<svg xmlns="http://www.w3.org/2000/svg" viewBox="0 0 100 100" role="img" aria-label="Multimodal AI">
  <defs>
    <linearGradient id="bg" x1="0" y1="0" x2="1" y2="1">
      <stop offset="0" stop-color="#6C2FBF"/>
      <stop offset="1" stop-color="#C0182A"/>
    </linearGradient>
  </defs>
  <g fill="none" stroke="url(#bg)" stroke-width="3.2" stroke-linecap="round" stroke-linejoin="round">
    <path d="M50 22c-7-7-22-5-25 6-7 2-9 12-3 17-3 8 4 16 12 14 3 5 13 5 16 0 8 2 15-6 12-14 6-5 4-15-3-17-3-11-18-13-25-6Z"/>
    <path d="M50 22v52M38 34h24M36 50h28M40 66h20"/>
  </g>
  <g fill="#6C2FBF">
    <circle cx="38" cy="34" r="3"/><circle cx="62" cy="34" r="3"/>
    <circle cx="36" cy="50" r="3"/><circle cx="64" cy="50" r="3"/>
    <circle cx="40" cy="66" r="3"/><circle cx="60" cy="66" r="3"/>
  </g>
</svg>
