<svg xmlns="http://www.w3.org/2000/svg" width="512" height="499" fill="currentColor" viewBox="0 0 512 499">
    <path fill-rule="evenodd" d="M237.53 2.54C210.25 7.57 193.3 13.4 167.86 26.1c-27.55 14.3-55.62 36.82-75.23 60.67-17.22 20.66-36.29 56.15-45.3 84.23-6.62 20.67-11.92 64.64-9.53 77.88 1.59 8.48 2.65 9.54 9.54 9.54 7.94 0 7.94 0 7.94-16.95 0-18.02 6.36-56.7 10.07-60.4 1.06-1.06 17.48 1.85 36.29 6.89 34.44 8.74 34.44 8.74 33.9 19.07a664 664 0 0 1-2.38 21.46c-1.32 11.39-1.32 11.39-22.25 11.39-11.39 0-21.46.8-21.99 1.85-.53 1.33-1.85 5.3-2.91 9.27-1.59 7.42-1.59 7.42 22.25 7.42 12.98 0 23.84.8 23.84 1.85.27 1.33 1.33 10.34 2.65 20.4 1.33 11.66 5.3 24.37 11.13 35.5 7.94 16.16 8.74 19.6 8.47 40.8 0 16.15.8 23.3 3.18 23.3 1.6 0 5.04 5.04 7.42 11.4 6.36 16.95 29.93 51.65 45.56 67.54 7.95 7.95 12.19 13.78 10.07 13.78-6.1 0-41.33-16.69-55.9-26.5-6.88-4.76-16.68-12.44-21.45-16.95-8.74-8.2-8.74-8.2-14.04-1.85-2.65 3.44-5.03 7.15-5.03 8.48 0 2.65 23.04 21.19 38.4 31 17.49 11.12 50.34 23.83 73.38 28.6 15.9 3.18 29.67 3.97 50.86 3.18 23.84-1.33 34.44-3.18 55.63-10.07 28.08-9.53 58.81-26.75 80.8-45.03 29.93-25.17 60.4-70.46 73.1-108.6 17.23-51.66 19.08-111 4.78-154.71-3.98-12.72-3.98-12.72-10.6-6.1s-6.62 6.63-2.38 25.17c2.38 10.33 4.24 23.58 4.24 29.4 0 10.87 0 10.87-37.1 10.87-41.58 0-37.08 3.18-41.05-31-1.32-11.39-.53-14.04 3.18-16.42 4.5-2.38 4.5-2.65.26-7.42-2.65-2.65-7.94-11.39-12.18-19.33-3.98-7.95-14.3-25.17-22.52-38.15s-16.16-27.55-17.48-32.58c-2.39-8.21-21.72-30.47-54.3-62.25-5.57-5.57-9.8-10.86-9.01-11.66 2.12-1.85 32.85 5.56 49.27 11.66 13.24 5.03 13.24 5.03 16.16-1.33 1.59-3.44 2.91-7.42 2.91-8.74 0-3.44-15.63-9.8-40.8-16.16-27.01-6.89-65.69-8.48-92.18-3.97M213.7 43.07c-18.54 19.34-44.77 55.36-48.47 67.02-1.06 2.91-3.45 5.3-5.57 5.3s-14.3-4.77-26.75-10.87c-22.52-10.86-22.52-10.86-13.78-20.13 14.57-15.1 42.12-34.96 61.99-44.5 15.9-7.68 41.59-16.42 50.06-16.95 1.33-.27-6.35 9-17.48 20.13m69.14-3.98c6.62 20.4 17.75 67.29 20.13 86.36 1.86 14.04 1.86 14.04-25.7 13.25-27.28-.8-27.28-.8-26.48-12.72 1.59-25.7 20.13-103.31 24.63-103.31 1.06 0 4.5 7.42 7.42 16.42m-32.58 3.98c-5.04 15.9-12.72 50.33-15.37 68.87-2.91 20.4-3.7 21.99-9.27 21.99-8.21 0-41.06-7.95-44.24-10.86-1.32-1.06 2.12-10.07 7.69-20.14 6.35-11.12 18.8-26.75 33.1-41.32 22.52-22.25 31-28.08 28.09-18.54m97.48 53.5c5.83 6.36 13.51 15.64 16.95 20.4 4.5 6.63 5.3 9.28 2.65 10.34-5.82 2.11-42.65 9.53-43.44 8.74-.27-.53-3.7-15.63-7.42-33.91-3.7-18.28-7.68-36.03-8.47-39.73-1.6-5.57.79-4.24 13.5 7.94a813 813 0 0 1 26.23 26.23m-196.55 35.24c4.5 1.59-9.28 45.56-14.57 46.62s-60.14-14.3-63.58-17.75c-2.65-2.65 10.6-30.73 20.93-44.5 6.35-8.48 6.35-8.48 30.2 3.18 13.24 6.36 25.16 11.92 27.02 12.45m49.8 15.1c19.07 5.03 27.55 8.47 27.02 10.86-.53 1.85-1.6 21.2-2.39 42.65-1.59 39.47-1.59 39.47-38.14 39.47-36.82 0-36.82 0-35.23-16.7.79-9 2.64-23.04 3.97-30.98 2.91-18.02 13.24-52.98 15.36-52.72.8 0 14.04 3.44 29.4 7.42m188.87 25.43c3.97 15.9 7.95 37.88 9 48.21 1.6 19.34 1.6 19.34-33.1 19.34-34.44 0-34.44 0-36.03-18.02-.8-9.8-2.12-29.4-3.18-43.7-1.6-25.7-1.6-25.7 4.77-25.96 3.18 0 13.77-2.39 23.3-4.77 27.56-7.95 26.76-8.48 35.24 24.9m-81.59-7.95c.8 4.24 2.12 23.05 3.18 41.59 1.59 33.9 1.59 33.9-34.97 33.9-36.55 0-36.55 0-34.96-29.93 1.06-16.42 2.65-35.5 3.44-42.12 1.59-11.92 1.59-11.92 31.52-11.65 29.94.26 29.94.26 31.8 8.21m-83.18 124.5c1.06 15.9 2.12 34.97 2.65 42.12 1.06 13.25 1.06 13.25-21.46 18.02-43.7 9.27-37.88 11.39-44.76-16.16-5.57-23.31-11.13-68.35-9.01-72.59.8-1.06 16.95-1.58 36.03-1.32 34.96.8 34.96.8 36.55 29.93m85.83-.8c-1.06 16.43-2.65 35.24-3.7 41.86-1.6 11.66-1.6 11.66-30.74 11.4-29.14 0-29.14 0-30.73-10.34-1.06-5.56-2.64-24.37-3.44-41.59-1.85-30.99-1.85-30.99 34.44-30.99s36.29 0 34.17 29.67m87.68-7.94c-1.85 21.2-9 57.22-14.3 71.26-2.65 6.62-2.65 6.62-31.53-.53-26.75-6.62-28.6-7.42-28.08-13.24.27-3.45 1.33-21.2 2.12-39.47 1.06-18.28 2.12-34.7 2.92-36.56.53-2.39 10.06-3.18 35.76-3.18 34.97 0 34.97 0 33.11 21.72m92.72-2.91c-1.33 15.63-6.36 42.38-7.95 42.12 0 0-15.63-2.92-34.7-6.36-34.44-6.1-34.44-6.1-33.65-19.07.27-7.16 1.33-18.02 2.12-24.37 1.33-11.13 1.33-11.13 38.68-11.13s37.35 0 35.5 18.8m-45.57 52.45c15.9 2.91 29.4 5.83 29.94 6.62.8.8 0 5.3-2.12 10.07-4.24 10.6-20.4 38.4-23.05 40.26-1.06.53-7.95-1.59-15.1-5.3-7.42-3.44-18.8-8.74-25.43-11.39-12.18-5.3-12.18-5.3-6.89-21.98 2.65-9.28 5.57-18.28 6.1-20.14a5.3 5.3 0 0 1 4.5-3.18c1.85 0 16.42 2.39 32.05 5.04M302.7 361.2c2.65 4.24-21.2 106.49-26.23 111.26-.8.8-1.85.8-2.65.26-2.12-2.38-16.95-62.78-19.86-81.06a1235 1235 0 0 0-4.24-25.43c-1.6-7.15-1.6-7.15 25.16-7.15 14.57 0 27.02.8 27.82 2.12m-67.55 20.93c1.85 11.39 6.89 35.5 11.12 53.24 4.5 18.02 7.42 33.38 6.63 34.17-3.45 3.71-32.32-23.04-49.27-45.56-14.04-18.54-28.08-45.83-24.9-49 2.38-2.39 40.79-12.72 49-12.98 3.44-.27 5.03 4.23 7.42 20.13m113.11-15.1c11.4 2.91 21.99 6.62 23.31 7.95 3.71 3.7-14.3 37.61-31 58-12.97 16.17-41.05 41.6-43.17 39.21-.53-.53 2.38-14.57 6.89-31.25 4.24-16.43 9.8-39.74 11.92-51.4 5.03-25.69 5.83-27.8 8.74-27.8 1.32 0 11.65 2.37 23.31 5.29m81.32 29.93c9.8 5.57 9.8 5.57-3.97 19.87-7.68 7.68-19.34 18.28-25.96 23.05-15.1 11.12-52.71 29.93-64.1 32.31-8.75 1.6-8.75 1.6 4.76-12.71 15.9-17.22 31.8-40 43.18-62.52 8.21-16.69 8.21-16.69 22.25-11.12 7.42 2.91 18.28 7.94 23.84 11.12M418.2 8.9c-16.95 8.74-29.93 26.22-34.7 46.35-4.77 21.99.8 36.56 32.58 84.24 15.1 22.52 29.4 41.06 31.8 41.59 3.44.8 11.38-9.27 29.4-37.09 13.77-20.92 27.02-42.11 29.66-47.15 3.45-6.62 5.04-15.1 5.04-29.14.26-15.36-1.06-22.25-5.57-30.73-6.62-12.71-21.72-26.75-34.17-31.78-5.03-2.12-15.9-3.71-24.63-3.71-11.92 0-18.81 1.85-29.4 7.42m44.77 33.37c8.48 4.5 13.51 14.3 13.51 27.02 0 12.19-3.7 18.55-13.24 23.58-24.37 12.71-50.86-8.74-42.39-34.44 5.83-17.22 25.17-24.9 42.12-16.16M43.63 288.9c-25.7 9.8-41.06 30.47-43.18 58.02-1.06 11.65-.27 20.92 2.65 28.87 4.24 12.45 42.65 74.97 55.36 90.07 6.36 7.41 7.42 7.94 11.13 4.5 8.47-8.48 53.24-81.59 57.74-94.04 5.83-16.42 5.83-25.7.53-43.44-4.76-16.16-18.54-32.59-33.9-40.53-13.51-6.89-36.82-8.48-50.33-3.45m40.53 42.65c10.06 8.21 12.71 20.66 7.41 33.64-4.24 9.8-15.63 17.75-25.7 17.75-7.67 0-20.12-6.88-24.9-13.77-2.38-3.18-4.23-10.6-4.23-16.16 0-8.21 1.85-12.19 9-19.34s11.13-9 19.6-9c7.69 0 12.99 1.85 18.82 6.88" clip-rule="evenodd"/>
</svg>
