<svg xmlns="http://www.w3.org/2000/svg" width="473" height="512" fill="currentColor" viewBox="0 0 473 512">
    <path fill-rule="evenodd" d="M200.75 2.08c-22.7 3.2-51.22 13.7-80.67 29.83-13.7 7.5-34.52 24.2-49.53 40.15-16.14 16.89-19.89 21.76-33.02 43.15-16.32 26.27-27.02 53.84-33.58 86.3-3.75 19.14-5.25 69.6-2.63 90.05 2.25 16.51 8.63 43.15 14.07 58.35 9.2 25.89 30.77 61.72 51.22 85.17 10.13 11.45 29.83 29.27 45.78 40.9 7.87 5.82 33.2 18.76 49.9 25.51 19.13 7.7 38.83 10.51 73.54 10.51 34.9 0 56.47-3 75.23-10.32 42.03-16.5 75.42-40.9 103-74.85 14.63-18.01 17.26-22.14 27.01-40.71 11.26-21.2 20.83-46.16 24.77-64.73 1.69-8.07 4.12-18.57 5.06-23.26 2.44-11.07 2.44-71.48 0-83.49-8.63-41.65-14.26-58.53-27.95-85.36-15.57-30.4-45.4-65.85-70.73-84.42-19.51-14.26-42.4-25.9-67.91-34.9a358 358 0 0 0-26.08-6.38C265.1.96 253.47-.17 236.21.02c-12.95.19-28.9 1.13-35.46 2.06m71.48 33.4c52.9 9.57 100 40.52 132.26 86.86 12.57 18.2 25.89 47.46 32.64 71.85 5.82 21.58 6 23.45 6.2 59.85 0 38.46-.57 42.96-9.76 74.1-7.5 25.52-20.26 50.47-37.9 74.11-15.38 20.45-39.77 41.46-63.97 54.97-40.34 22.7-89.12 30.4-133.95 21.01-22.9-4.88-32.46-8.44-54.41-20.64-22.32-12.38-42.4-28.7-58.53-47.84-22.9-27.2-35.84-50.84-46.72-85.36-5.44-17.44-10.32-50.28-10.32-69.22 0-33.4 10.14-76.92 24.2-104.88 7.13-14.07 17.83-31.14 24.4-38.83 2.62-3.2 7.69-9.38 11.25-13.88 8.26-10.14 30.4-27.96 46.72-37.53 22.5-13.13 54.21-23.82 80.1-27.01 15.2-1.88 39.4-.94 57.79 2.44M224.39 82c-6 3.76-27.02 17.08-46.9 29.27-19.9 12.38-40.34 24.95-45.6 28.33-5.06 3.38-15.57 9.57-22.88 13.88-7.5 4.32-14.45 9.2-15.39 11.07-.93 1.69-1.87 44.65-1.87 97-.38 93.99-.38 93.99 3.94 97.93 2.44 2.06 15.76 10.88 29.64 19.5 13.88 8.45 37.7 23.08 53.1 32.46 15.19 9.38 34.14 21.01 42.2 25.9 7.88 4.87 15.39 9 16.51 9s5.63-2.44 10.32-5.26c4.5-3 33.58-20.44 64.54-38.83 30.95-18.39 59.85-35.83 64.35-38.83 7.88-5.45 7.88-5.45 7.88-101.69 0-109.19 1.87-97.18-17.07-108.81-8.45-5.07-56.66-34.7-72.05-44.28-42.2-26.07-55.34-33.76-57.6-33.58-1.3 0-7.3 3.2-13.12 6.94m29.45 18.39c7.7 4.88 13.5 9.57 12.95 10.5-.57.94-5.63 4.32-11.26 7.32-5.63 3.2-10.7 6.57-11.26 7.5-2.06 3.57-8.63 1.5-21.76-6.93-13.5-8.63-13.5-8.63-8.07-12.76 6.76-4.88 22.14-14.07 23.83-14.07.75-.19 7.7 3.75 15.57 8.44m-43.71 27.2c14.82 9.76 14.82 9.76.56 18.76-7.7 4.88-15.2 9.2-16.7 9.57-2.81.56-30.95-15.38-31.14-17.45 0-1.12 18.2-12.94 20.08-12.94.37 0 3-1.69 5.62-3.75s5.26-3.76 5.82-3.76 7.7 4.32 15.76 9.57m88.74.57c16.32 10.31 16.32 10.31 9 14.82-3.94 2.44-10.88 6.56-15.57 9.38-8.44 4.69-8.44 4.69-22.14-3.2-7.5-4.5-14.44-8.81-15.57-9.94-1.5-1.5.75-3.94 7.13-8.25 7.32-5.07 18.76-12.38 20.64-12.76.18-.19 7.69 4.32 16.5 9.95m-43.34 27.76c13.7 8.07 15.76 9.94 12.94 11.45-1.87 1.12-9 5.44-15.75 9.94-6.95 4.5-13.14 8.25-13.89 8.25-1.69 0-33.02-19.13-32.45-19.7 3.56-3.37 29.26-19.7 30.95-19.7 1.13 0 9.38 4.32 18.2 9.76m-92.68.38c7.32 4.5 13.5 8.81 13.7 9.38.18.56-6.94 5.63-16.14 11.44-16.32 10.5-16.32 10.5-31.52.75-8.25-5.44-14.44-10.32-13.5-11.07 3.56-3.37 29.64-18.76 31.7-18.76 1.32 0 8.26 3.75 15.76 8.26m182.54.18c7.13 4.5 13.7 8.45 14.82 8.82 3.76 1.32 0 4.7-14.44 13.7-13.88 8.63-13.88 8.63-29.46-1.32-8.63-5.44-16.13-10.5-16.7-11.44-1.12-2.06 24.77-18.2 29.27-18.2 2.07 0 9.57 3.75 16.51 8.44m-48.02 25.7c6.94 4.32 14.63 9.2 16.88 10.89 3.94 3 3.94 3.19-6.57 9.38-6 3.38-12.57 7.69-15 9.57-5.44 4.12-8.82 3-27.02-8.63-10.88-7.13-12.76-9-10.88-11.26 1.31-1.5 3-2.81 3.94-2.81s6.75-3.38 13.13-7.5c6.38-4.14 11.82-7.51 12.2-7.51s6.19 3.56 13.32 7.88m-89.5 1.5c7.14 4.13 13.51 8.45 14.27 9.58 1.3 2.25-2.07 5.06-16.14 12.94a332 332 0 0 0-13.32 7.88c-2.44 1.69-5.44.56-14.63-5.25a237 237 0 0 1-15.76-10.32c-3.94-3-3.75-3.2 10.88-12.76 8.25-5.25 16.5-9.57 18.39-9.57 1.87 0 9.19 3.38 16.32 7.5M371.1 203.2c0 23.45 0 23.45-15.39 33.02-15.57 9.57-15.57 9.57-16.13-10.7-.38-11.06-.19-21.95.37-24.01.57-2.25 6.94-7.5 15.57-12.57 8.07-4.69 14.82-8.82 15.2-8.82.19-.18.38 10.32.38 23.08m-248.02-12c13.5 8.43 13.5 8.43 13.5 31.51s0 23.08-7.87 18.2c-4.5-2.63-11.26-6.76-15.01-9-3.94-2.26-7.32-5.26-7.5-6.76-1.13-5.44.74-43.53 2.06-42.96.75.37 7.5 4.31 14.82 9m117.44 12.94c.56.93 7.88 5.62 16.14 10.5 8.25 4.88 14.63 9.38 14.07 10.32-.94 1.5-26.27 17.07-31.33 19.14-2.07.93-8.45-1.88-18.77-8.07-8.63-5.25-15.57-10.13-15.57-11.07 0-1.69 30.2-21.95 33.21-22.32.75-.2 1.69.56 2.25 1.5m-67.73 17.63c8.82 5.63 8.82 5.63 8.82 27.96 0 12.94-.75 22.13-1.87 22.13-.94 0-8.07-3.94-15.95-8.63-14.07-8.44-14.07-8.44-14.07-32.08 0-26.26-2.25-25.32 23.07-9.38m150.28 34.15c-1.69.93-8.63 5.44-15.2 9.75-6.75 4.5-12.38 8.07-12.94 8.07-.38 0-.75-10.5-.75-23.45 0-23.27 0-23.27 9-28.52a291 291 0 0 0 15.39-9.57c6.56-4.5 6.56-4.5 7.12 18.76.38 19.9.2 23.27-2.62 24.96m-93.8 5.62c1.68 5.82 1.3 39.96-.38 41.09-.75.38-5.07-1.31-9.38-4.13a620 620 0 0 0-16.32-10.32c-8.45-5.44-8.45-5.44-8.45-28.7s0-23.26 16.7-12.57c9.57 6.2 17.26 12.38 17.82 14.63m53.65-3c0 22.33 0 22.33-18.2 33.2-10.13 6.2-19.32 11.83-20.63 12.58-1.88 1.12-2.44-3.38-2.44-21.95 0-23.26 0-23.26 18.38-34.52 9.95-6.2 19.33-11.26 20.64-11.44 1.69-.2 2.25 5.44 2.25 22.13m-150.46 1.7c3.94 2.43 4.13 3.93 4.13 24.94 0 12.39-.38 22.33-.75 22.33-.38 0-6.57-3.75-13.7-8.44-6.94-4.7-13.32-8.45-14.07-8.45-.94 0-1.5-10.5-1.5-23.45 0-23.64 0-23.64 10.88-16.7 5.82 3.76 12.57 8.26 15 9.76m238.64 6c0 22.5 0 22.5-5.07 25.7-3 1.69-9.57 5.81-15 9.38-5.26 3.37-10.14 6.19-10.7 6.19s-1.13-9.76-1.13-21.58c0-18.2.57-21.95 3.38-24.39 4.69-3.94 25.51-17.44 27.2-17.63.75-.19 1.32 9.94 1.32 22.32m-203.93 15.38c14.44 9.94 14.44 9.94 14.44 32.08 0 22.32 0 22.32-4.13 19.7-2.43-1.5-9.56-6-15.94-9.95-11.82-7.12-11.82-7.12-11.82-29.26 0-12.38.56-22.33 1.5-22.33.75 0 7.88 4.5 15.95 9.76m158.9 12.76c0 22.5 0 22.5-14.45 30.95-8.06 4.5-15.2 7.7-15.94 6.94-.94-.94-1.32-10.7-1.13-21.95.56-20.26.56-20.26 14.64-29.26 7.69-4.88 14.63-9.01 15.57-9.01.75-.19 1.31 9.94 1.31 22.33m-43.15 25.89c0 22.32 0 22.32-18.95 33.76-10.5 6.38-19.88 11.64-20.82 11.64s-1.5-9.76-1.32-21.58c.2-21.01.38-21.76 5.26-25.14 2.62-1.87 9.19-5.81 14.26-8.63 5.25-3 11.44-6.75 13.88-8.82 2.44-1.87 5.25-3.37 6-3.37.94 0 1.69 9.94 1.69 22.14m-76.17-13.7c4.88 3.19 12.2 7.88 16.14 10.7 7.12 5.06 7.12 5.06 7.31 24.38.19 10.7-.56 20.45-1.31 21.77-1.31 1.87-2.63 1.68-6.2-1.13-2.43-1.88-9.75-6.75-16.13-10.7-11.82-7.12-11.82-7.12-11.82-29.45 0-12.38.57-22.14 1.5-21.76.76.37 5.45 3.19 10.51 6.19m-79.92 11.82c9.76 6.57 9.76 6.57 9.76 27.01 0 13.14-.75 20.27-2.07 20.27-1.12 0-7.69-3.38-14.82-7.7-8.63-5.06-12.94-8.81-13.32-11.63-.37-2.25-.56-12.38-.19-22.32.75-20.83-1.3-20.26 20.64-5.63m242.01 31.52c-4.87 5.06-26.82 17.26-28.32 15.94-.75-.75-1.13-10.69-.94-21.76.56-20.45.56-20.45 15.57-29.45s15-9 15.57 12c.38 15.2-.19 21.58-1.88 23.27m-201.86-6.57c14.63 9.76 14.63 9.76 14.63 31.14 0 21.58 0 21.58-4.13 18.95-2.43-1.5-9.56-5.81-15.94-9.75-11.82-6.94-11.82-6.94-11.82-28.52 0-11.82.56-21.39 1.31-21.39s7.88 4.32 15.95 9.57m158.34 32.64c-.75 2.26-26.64 17.83-29.46 17.83-.93 0-1.68-9.2-1.68-20.26 0-23.27-.75-21.95 18.76-32.84 12.2-6.75 12.2-6.75 12.75 13.14.2 11.07.2 21-.37 22.13m-42.78 5.45c.38 21.2.38 21.2-18.57 32.83-10.5 6.19-19.7 11.44-20.64 11.44-.93 0-1.68-9.2-1.68-20.64 0-20.45 0-20.45 8.06-25.89 4.32-3 12.39-7.88 17.83-10.69s10.31-5.82 10.88-6.75c2.62-4.5 3.56 0 4.12 19.7m-82.35-17.08c1.12 1.5 6.56 4.88 12 7.7 5.63 2.8 12.2 6.94 14.45 9 4.13 3.75 4.31 4.88 3.19 22.7-.75 10.32-1.7 19.14-2.07 19.7-.93.75-6.94-2.63-22.13-13.13-2.82-1.88-6-3.38-6.95-3.38-1.12 0-2.62-1.5-3.37-3.38-1.88-4.12-.75-41.65 1.12-41.65.94 0 2.44 1.13 3.76 2.44" clip-rule="evenodd"/>
</svg>
