<svg xmlns="http://www.w3.org/2000/svg" width="508" height="512" fill="currentColor" viewBox="0 0 508 512">
    <path fill-rule="evenodd" d="M216 1.47c-18.48 3-44.72 10.75-62.96 19-40.49 17.74-81.22 50.97-105.96 85.96C31.34 128.92 14.1 164.9 8.6 186.64a887 887 0 0 1-6.5 23.74c-3 10.5-2.75 81.71.5 94.46 7.25 28.49 11.25 39.48 21.24 60.22 6 12.25 12.25 24.74 14 27.49 6.74 10.5 30.98 40.48 40.23 49.23 30.23 29.99 80.21 56.22 125.7 65.97 25.98 5.5 75.96 5.75 100.45.25 24.74-5.5 57.97-18 76.47-28.74 26.98-15.5 46.48-32.73 76.71-66.97 2.75-3 4.75-6 4.75-6.75 0-1 3-5.74 6.5-11 14.49-21.48 28.73-55.72 36.23-88.2 1.75-7.75 3.25-29.99 3.25-49.98 0-39.98-3.25-59.22-16-92.46-12.49-32.24-36.48-68.22-62.72-94.7-28.23-28-77.96-55.23-117.94-63.98C289.97.22 237-1.53 216 1.47m82.72 26.49c44.48 9 83.46 30.24 114.95 61.97 36.24 36.74 59.72 82.47 66.22 127.7 1.5 11 3 20.49 3.5 21.24 1.75 3-3.75 55.22-7.5 72.72-4.74 20.74-5.5 22.74-15.24 43.48-17.5 36.98-40.98 65.72-73.22 89.46-17.24 12.74-39.48 24.24-62.22 31.98-19.24 6.5-50.98 12.25-68.97 12.25-35.23 0-82.21-12.5-113.7-30.24-28.49-16.24-56.48-41.48-75.97-69.22-10.5-14.74-23.99-42.23-30.48-61.72-11-32.74-14.5-85.21-7.75-114.95 5.25-23.24 14.24-49.23 19.24-56.73 2.75-3.5 4.75-7.5 4.75-9 0-3 21.24-34.48 29.74-43.72 35.98-39.99 77.96-64.72 127.69-75.22 22.49-5 65.22-4.75 88.96 0M118.05 156.9c-2.25 4.5-9.5 18.25-15.74 30.74a3108 3108 0 0 1-24.74 46.98c-7.25 13.5-12.25 25.49-11.25 26.49 1.25 1 9.75 6 18.74 10.74 9 5 17.75 8.25 19 7.5 1.5-1 7.24-11.25 12.74-22.99 5.75-11.74 14.24-27.99 19-36.23 16.49-29.24 24.48-45.73 23.48-50.23-.75-4.25-27.74-21-33.73-21-1.75 0-5 3.76-7.5 8m240.65.75c-6.75 4.75-13.25 9.5-14.25 10.5-1.5 1.5.5 7.5 4.5 14.74 21.24 39.23 26.74 49.73 38.23 72.72 7 14.24 13.25 25.74 14 25.74.5 0 9-4.25 18.49-9.25 9.5-5.24 17.5-11.24 17.5-13.24 0-3.75-14.75-33.99-27-54.98-3.5-6.24-11.24-20.99-17.24-33.23-12.74-25.24-15-26-34.23-13m-108.96 18c-10 4.24-38.48 31.23-51.47 48.47-4.75 6.5-8.5 14.5-8.5 17.75 0 3.5 2 8 4.5 10.24 7 6.25 20.74 1.5 29.23-10.24 3.75-5 10.5-12.25 14.75-16 5.75-5 10.5-6.74 17.74-6.74 11.74 0 16.5 2.5 31.49 16.24 15.24 14.24 71.96 64.22 76.46 67.22 2.75 2 5.75-.25 13.5-8.75 7.5-8.74 9.5-12.74 8.24-17.49-.75-3.5-2.75-8-4.74-10-1.75-2-10.25-17.24-18.75-33.73-8.5-16.5-16.49-30.99-17.74-32.24-1.25-1.5-2.25-4.5-2.25-7 0-3.74-2-4.5-10.74-4.5-6.25 0-19.74-3.49-32.74-8.74-12.24-4.74-26.49-8.74-31.24-8.5-5 0-12.99 1.76-17.74 4m-51.22 7c-9.5 3.5-21.25 6.24-25.5 6.24-7.49 0-8.99 1.5-15.74 14.24-4 8-11.5 21.24-16.24 29.49-10 17.24-23.74 44.98-23.74 48.48 0 1.25 3 5.75 6.75 10 6.5 7.5 18.24 10.74 18.24 5 0-1.26 4-4.26 8.75-6 10.24-4.5 18.99-2 25.23 7.5 3 4.74 6.25 6.24 12.75 6.24 11.5 0 17 3.25 20.49 12.24 2.25 4.75 5.5 7.75 10.25 8.75 10.24 2 17.49 10 17.49 19 0 5.99 1.5 8.24 6.5 10.24 3.74 1.25 10 5.24 13.99 8.5 4 3.5 8.75 6.24 10.5 6.24 1.5 0 8.24 5.5 14.74 12.5 6.5 6.74 13.5 12.49 15.74 12.49 4.25 0 16-11 16-15 0-3.24-6-8.99-29.5-28.48-9.74-8.25-18.48-16.5-19.23-18.5-1.5-4.24.5-7.99 4.5-7.99 1.74 0 13.99 10.75 27.48 23.74 24.74 24.24 30.74 27.24 40.23 20.5 3-2.26 4.25-5.76 3.5-10.5-.5-5.25-4.5-10.25-14.5-18.25-21.48-17.24-42.47-36.98-42.47-40.23 0-1.5 2.75-2.75 6-2.75 4.24 0 13.99 7.5 32.23 25 14.5 13.99 28.24 24.98 30.99 24.98 5 0 10.24-3.5 15.24-10.25s-.25-14.24-24.99-34.73c-20.74-17.5-44.98-38.48-54.47-47.48-15-14.24-30.24-24.99-35.49-24.99-4.5 0-10 4.25-19.5 15.25-14.23 16.24-26.73 23.48-35.73 20.74-10-3-19.24-11.25-19.24-16.75 0-14.74 5.75-25.24 25.24-45.48 10.75-11.24 19.74-21.74 19.74-23.49 0-4.24-7-3.24-26.23 3.5m-55.48 125.19c-8.5 9-13.24 16.24-13.24 19.99 0 6.25 7.74 16 12.74 16 4.25 0 26.99-25.5 28.74-32 1.25-4 0-7.5-4.25-11.99-3-3.25-6.75-6-8.25-6s-8.5 6.25-15.74 14m37.23 6.5c-1.75 1.74-3 4-3 5.24s-5 8-11.24 14.75c-6.25 7-11.25 14.49-11.25 16.99 0 5.5 7.75 12.5 14 12.5 4.75 0 18.49-12 18.49-16 0-1.25 3.25-6.25 7.5-11.25 5.24-7 6.74-10.99 5.74-15.49-.75-3.25-2.74-6.75-4.24-7.75-4.25-3-12.75-2.24-16 1m22.74 27.23a150 150 0 0 1-13.24 17c-12.75 13.24-13 13.99-7.25 21.24 7.75 10 15 8.5 26.24-5.5 5.25-6.5 11.5-14 14.24-16.5 3.5-3.5 4.5-6.74 3.5-13.49-1-4.75-1.75-9-2.25-9.24a85 85 0 0 0-7.5-2.25c-5.74-1.25-7.49-.25-13.74 8.74m16.25 32.24c-6.75 8.24-12 16.5-12 18.49 0 4.75 8.25 11.5 14 11.5 7-.25 11.74-4.75 18.99-17.5 5.74-10.74 11.74-14.5 13.74-8.5.5 1.5-1.25 5.25-4 8.25-5.5 6.25-4.5 11.5 2.5 15.25 9.75 5.24 29.74 1.25 29.74-5.75 0-1.75-5.5-8.5-12-15-7.74-7.74-13.49-11.49-15.99-10.49-2.25 1-5.25-.75-8-4.75-6.74-10.5-13.74-8.24-26.98 8.5" clip-rule="evenodd"/>
</svg>
