<svg xmlns="http://www.w3.org/2000/svg" width="488" height="512" fill="currentColor" viewBox="0 0 488 512">
    <path fill-rule="evenodd" d="M 222.76520694,16.5386113539 c -26.5670436691,2.33639249289 -64.4768960537,14.0277758948 -85.8624241136,26.2184689827 C 105.662954171,60.7981755942 81.6113008068,82.1837036541 59.8960399354,111.077718879 c -19.70860119,26.2278899202 -34.5748405198,60.3034207539 -41.9231717474,95.7167247086 C 14.6284353857,223.168032912 14.1291256997,230.846096952 14.1291256997,258.57191593 c 0.169576874484,27.0663533551 0.659465622993,35.4227248922 3.8437424883,49.2809239125 c 5.84098123222,27.2265092921 10.5231871555,40.255665815 23.0530339923,64.4768960537 a 255.307,255.307 0 0,0 44.0899873658,59.964267005 c 16.0438565137,15.8742796392 29.5723227225,26.0583130457 49.7802335985,37.4199636361 c 36.2517673896,20.047754939 75.3392369582,29.063592099 118.939335575,27.2265092921 c 48.4424604775,-2.00665968139 88.029239732,-16.3641683877 126.947132426,-45.9364911102 c 10.69276403,-8.18679466258 16.0344355762,-13.0291565228 29.562901785,-27.3960861666 c 20.047754939,-21.2065302479 37.9192733221,-50.2795432844 47.1046873566,-76.4980122671 c 2.17623655588,-6.01997904418 4.52204998623,-12.3602699624 5.18151560923,-14.1973527693 c 3.17485592784,-7.18817529062 6.68886560464,-25.0596936737 9.35499090902,-46.2756448591 c 2.83570217887,-23.0530339923 2.50596936737,-44.5987179892 -1.16819624644,-68.4902154165 c -2.00665968139,-14.0277758948 -8.18679466258,-37.0808098871 -13.8676199578,-51.9470492169 c -9.18541403454,-24.5509630503 -26.2184689827,-52.2862029658 -44.7682948637,-73.3325772768 c -10.014456532,-11.3522296529 -31.3999845919,-29.8926345965 -44.7588739263,-39.0874695685 C 347.53610281,40.2605319067 318.472510711,27.5611081954 293.921547661,21.7107060257 c -12.6900027739,-3.00527905335 -46.6053776706,-7.34833122763 -53.2848223378,-6.84902154165 c -1.50734999541,0.169576874484 -9.51514684604,0.838463434948 -17.8715183831,1.6769268699 m 48.612037352,31.7297174034 c 16.3641683877,2.34581343036 27.7258189781,5.18151560923 38.4091620706,9.35499090902 c 42.6014792453,16.5431661996 74.1710407117,41.7630158104 100.559086569,80.6809085044 c 12.6994237113,18.709981818 24.8901167992,48.112727666 30.7405189689,74.3311966487 c 1.66750593242,6.84902154165 2.33639249289,21.5551049344 2.33639249289,45.9364911102 c -0.169576874484,28.404126476 -0.659465622993,38.4280039455 -3.00527905335,47.6134179801 c -11.5218065274,45.5973373612 -35.5828808292,85.5232703647 -69.658411663,114.586862464 c -13.6980430833,11.6913834019 -23.7219205528,18.3708280691 -39.916512066,26.5670436691 c -15.7047027647,7.84764091361 -33.5762211478,13.8487780828 -51.9564701543,17.7019415086 c -11.1920737159,2.1668156184 -19.8781780645,2.66612530438 -43.2609448683,1.99723874392 c -29.063592099,-0.829042497476 -29.7324786595,-0.99861937196 -49.7802335985,-7.67806403913 c -11.1920737159,-3.8437424883 -24.0516533643,-8.68610434856 -28.5642824131,-11.0224968414 c -16.7033221367,-8.52594841155 -40.0860889405,-25.5590033597 -53.7841320238,-39.4266233175 c -27.8953958526,-27.7258189781 -45.2676045497,-58.626493884 -56.1299454541,-100.050355945 c -3.67416561382,-13.3777312093 -4.50320811129,-21.0557952484 -5.18151560923,-45.2770254872 c -0.659465622993,-25.3894264852 -0.329732811496,-31.5601405289 2.67554624186,-46.6053776706 c 7.18817529062,-35.4038830172 20.047754939,-64.1377423048 41.2637061244,-92.5324478433 c 10.69276403,-14.2067737068 29.562901785,-32.2384480269 44.9378717382,-43.1007889313 c 19.70860119,-13.8676199578 48.772193289,-26.8967764806 68.4902154165,-30.5709420944 c 33.2370673988,-6.3402909182 43.4305217428,-6.84902154165 71.8158063439,-2.50596936737 m -113.25851028,80.1815988184 c -1.50734999541,0.838463434948 -4.01331936278,3.8437424883 -5.34167154624,6.51928873016 c -2.17623655588,4.1734752998 -2.50596936737,21.5456839969 -2.50596936737,125.609359305 c 0,66.4835557351 0.49930968598,122.443924315 0.99861937196,124.450583996 s 2.83570217887,4.84236186026 4.84236186026,6.18013498119 c 3.34443280232,2.1668156184 15.5445468277,2.66612530438 87.5299300461,2.66612530438 c 56.7988320146,0.169576874484 84.6942278672,-0.329732811496 87.0306203601,-1.66750593242 c 1.83708280691,-0.99861937196 4.51262904876,-4.00389842531 5.84098123222,-6.68886560464 c 2.1668156184,-4.16405436232 2.50596936737,-18.0316743201 2.50596936737,-96.3761903316 c 0,-50.2795432844 -0.659465622993,-92.5418687808 -1.50734999541,-93.8796419017 c -1.15877530897,-1.83708280691 -6.3402909182,-2.1668156184 -27.8859749151,-1.32835218346 c -26.2278899202,0.829042497476 -26.2278899202,0.829042497476 -31.0702517804,-3.8437424883 c -4.68220592325,-4.68220592325 -4.68220592325,-4.68220592325 -4.68220592325,-34.0755308338 s 0,-29.3933249105 -56.2901013912,-29.3933249105 c -35.2437270802,0 -57.6278745121,0.659465622993 -59.464957319,1.82766186944 m 105.900758115,90.0358994134 a 5.88809,5.88809 0 0,1 1.00804030943,9.68472372052 c -2.67554624186,2.1668156184 -71.5049154073,2.50596936737 -77.1763197651,0.339153748968 c -4.51262904876,-1.66750593242 -5.51124842072,-6.34971185567 -2.1668156184,-9.68472372052 c 1.50734999541,-1.50734999541 12.3602699624,-2.00665968139 38.5787389451,-2.00665968139 c 21.8848377459,0 37.7496964476,0.659465622993 39.756356129,1.66750593242 m 42.9312120568,44.7682948637 c 0.49930968598,5.34167154624 0.49930968598,5.34167154624 -60.9723073144,5.01193873474 c -57.7974513866,-0.49930968598 -61.4716170004,-0.668886560464 -61.9709266864,-3.5140096768 c -1.50734999541,-8.00779685062 -2.83570217887,-7.84764091361 61.8013498119,-7.50848716464 c 60.6425745029,0.49930968598 60.6425745029,0.49930968598 61.1418841889,6.0105581067 m -1.66750593242,33.5762211478 c 1.33777312093,0.829042497476 2.00665968139,3.50458873933 1.66750593242,6.18013498119 c -0.49930968598,4.84236186026 -0.49930968598,4.84236186026 -61.4716170004,4.84236186026 s -60.9723073144,0 -61.4716170004,-3.8437424883 c -1.33777312093,-8.68610434856 -0.99861937196,-8.68610434856 61.3020401259,-8.68610434856 c 31.7485592784,0 58.805491696,0.668886560464 59.9736879424,1.50734999541 m -39.756356129,41.0941292499 a 6.97149,6.97149 0 0,1 0.829042497476,5.84098123222 c -0.99861937196,3.34443280232 -1.99723874392,3.34443280232 -41.4238620614,3.01469999082 c -40.415821752,-0.508730623451 -40.415821752,-0.508730623451 -40.9245523754,-4.52204998623 c -0.329732811496,-2.1668156184 0.339153748968,-4.67278498578 1.6769268699,-5.34167154624 c 1.16819624644,-0.829042497476 19.209291504,-1.50734999541 39.916512066,-1.50734999541 c 31.0702517804,0 38.2490061336,0.508730623451 39.9259330035,2.51539030484 m 18.2012511946,-210.143431235 c -0.160155937012,0.668886560464 0,13.3683102718 0.169576874484,28.0649727271 c 0.169576874484,17.8715183831 1.00804030943,27.0569324176 2.33639249289,27.8953958526 c 1.00804030943,0.668886560464 12.8690005858,1.33777312093 26.5670436691,1.33777312093 c 17.2026318226,0 24.5509630503,-0.49930968598 24.5509630503,-1.83708280691 c 0,-1.16819624644 -7.84764091361,-10.3630312185 -17.3722086971,-20.547064625 a 3336.9,3336.9 0 0,1 -23.7219205528,-25.7191592967 c -6.67944466717,-7.51790810212 -12.1906930879,-11.5312274649 -12.5298468369,-9.19483497201" clip-rule="evenodd"/>
</svg>
