<svg xmlns="http://www.w3.org/2000/svg" width="471" height="512" fill="currentColor" viewBox="0 0 471 512">
    <path fill-rule="evenodd" d="M204.53 1.56c0 .87-3.64 2.08-8.15 2.78-13.37 1.9-42 11.1-56.58 18.4-25.34 12.5-42.7 25.16-64.74 47.38-11.8 11.8-24.82 27.07-30.03 34.88-11.63 17.7-26.2 47.56-32.8 67.87C4.77 195.25 1.47 214 .25 242.12c-1.04 24.47 1.22 57.8 5.04 73.41 4.16 18.05 14.58 45.65 23.43 62.66 13.01 25.34 22.39 38.87 39.74 57.27 34.02 36.1 63.7 54.67 110.04 68.73 14.4 4.51 38.88 7.81 57.27 7.81 16.32 0 46-3.64 56.24-6.94 21.17-6.6 28.46-9.37 41.3-15.28 15.97-7.46 36.97-21.52 52.07-34.7 32.8-28.82 59.19-68.91 73.07-111.6 10.93-33.33 12.5-43.4 12.5-85.74 0-40.27-1.91-55.37-9.9-80.7-10.58-33.33-23.95-59.02-45.3-87.66-9.37-12.5-38.35-39.74-52.58-49.11-24.65-16.67-57.45-30.55-83.31-35.41-6.08-1.04-11.11-2.6-11.11-3.47 0-.7-14.4-1.39-32.1-1.39s-32.12.7-32.12 1.56m60.75 31.59c32.63 5.2 64.74 19.26 93.72 40.79 20.83 15.62 46.17 46.51 59.18 72.2a263 263 0 0 1 20.83 58.83c3.3 15.45 4 22.91 3.82 51.9-.17 29.5-.7 36.27-4.34 52.93-2.43 10.42-6.42 24.3-8.85 30.72-7.12 18.75-20.3 42.87-31.24 57.45-11.8 15.45-30.37 34.02-45.47 45.47-23.26 17.53-58.5 31.94-87.13 35.76-9.03 1.21-25.17 1.56-39.57 1.04-20.3-.7-27.42-1.74-43.4-6.42-21.51-6.08-46.5-18.4-63.86-31.42-43.22-32.45-74.46-81.22-86.43-135.2-3.65-15.8-4.17-22.74-4-52.94 0-32.1.35-36.1 4.69-52.93 5.2-19.96 11.8-38.53 17.36-49.47 12.32-23.77 29.5-48.07 43.04-60.91 16.66-15.8 36.8-30.03 54.15-38.54 17.7-8.67 41.83-16.66 58.14-19.43 12.15-2.09 46.52-1.91 59.36.17M130.6 145.27c-27.43.52-27.95.7-32.11 5.03-4.17 4.51-4.17 4.51-4.69 106.05-.34 101.53-.34 101.53 5.56 107.43s5.9 5.9 132.94 5.9c127.05 0 127.05 0 132.95-5.9s5.9-5.9 5.9-106.74 0-100.84-5.03-106.4c-5.04-5.72-5.04-5.72-106.4-5.9-55.7 0-113.68.18-129.12.53m196.3 35.06c6.24 3.47 11.27 12.84 11.27 21 0 13.36-11.8 26.03-24.12 26.03-3.47 0-8.85-1.56-11.98-3.47-12.67-7.8-16.48-24.64-8.15-36.97 2.43-3.47 4.68-6.42 4.86-6.42.17 0 3.47-1.21 7.29-2.6 7.63-2.78 12.84-2.26 20.82 2.43m-121.5 70.29c6.6 6.94 18.92 19.96 27.08 28.81 13.01 13.71 15.62 15.8 19.09 14.75 2.25-.52 11.28-8.5 19.78-17.53 11.8-12.5 16.67-16.31 19.96-16.31 3.47 0 9.55 5.38 26.38 22.9 43.91 46.52 39.58 40.62 39.58 53.64 0 6.42-.87 12.15-2.09 13.36-1.56 1.56-31.41 2.09-123.92 2.09-121.84 0-121.84 0-123.05-6.25-.52-3.47-.52-10.42.17-15.62 1.04-8.85 1.91-10.24 21.87-32.29 30.9-34.01 57.1-60.4 60.22-60.4 1.4 0 8.16 5.73 14.93 12.85" clip-rule="evenodd"/>
</svg>
