<svg xmlns="http://www.w3.org/2000/svg" width="492" height="512" fill="currentColor" viewBox="0 0 492 512">
    <path fill-rule="evenodd" d="M202.98 3.61c-26.11 4.73-64.17 19.9-86.06 34.58-9.7 6.46-27.87 21.39-39.8 32.83-26.87 25.62-42.3 48.26-60.45 90.3-3.49 7.96-7.22 20.4-13.93 46.27-1.5 5.72-2.74 28.1-2.74 50 0 32.09 1 44.03 5.22 60.7 6.22 25.37 12.94 41.29 30.85 73.13 16.67 29.6 50.25 64.18 82.09 84.58 7.71 4.97 23.88 12.93 35.57 17.9 68.4 28.36 147.02 23.14 210.7-13.92 22.14-12.69 51-37.07 67.41-56.72 7.71-9.45 14.43-18.66 15.17-20.65 1-1.99 2.74-5.47 4.48-7.46 8.96-11.2 22.64-42.04 33.09-74.63 4.97-15.67 8.45-57.7 6.96-83.33-1.5-23.13-6.47-50.5-11.2-62.19-1.24-2.73-3.97-9.95-6.46-16.17-6.97-18.16-16.17-35.07-27.86-51.74-40.3-56.71-98.76-94.28-162.44-103.98-29.1-4.23-54.72-4.23-80.6.5m85.33 27.11c25.87 5.48 53.98 16.92 74.13 30.35 17.66 11.94 39.3 30.85 50 44.03 6.71 7.96 27.86 40.3 27.86 42.29 0 .75 2.73 7.21 5.97 14.43 6.71 14.43 11.69 30.35 16.42 51.74 3.48 16.17 1.99 76.86-2.24 95.77-3.24 14.93-19.16 54.48-25.63 63.93-2.48 3.48-4.47 7.21-4.47 8.2 0 2.75-25.13 33.6-34.83 43.04-28.36 27.37-63.68 46.52-102.98 56.47a194 194 0 0 1-91.05 1.5c-49.25-10.95-96.76-41.55-128.85-83.34-13.44-17.41-27.37-43.78-34.08-63.68-2.49-7.46-5.23-15.92-6.22-18.66-5.72-14.92-7.71-34.82-6.72-65.92 1.25-35.32 3.24-51.49 6.97-53.73 1.24-.74 2.24-3.98 2.24-7.21 0-3.24 1.49-9.7 3.48-14.18s4.23-9.95 4.97-11.94c2.24-5.72 19.4-35.33 26.62-46.27 10.45-15.42 37.56-41.3 56.97-54.23 20.4-13.68 51.74-27.36 74.87-32.34 21.4-4.72 64.93-4.72 86.57-.25m51.24 92.3c-3.98 1.98-8.2 5.22-9.2 6.7-1 1.75-2 7.72-2 13.69 0 10.2-.99 11.7-24.12 34.58-20.9 20.4-26.12 24.38-37.07 27.11-12.19 3.24-13.18 3.24-27.6-3.73-11.2-5.47-15.43-8.96-16.68-13.93-2.48-9.7-10.2-16.17-19.4-16.17-11.69.25-19.65 7.96-21.4 20.65-1.23 9.2-3.72 12.68-20.64 28.36-16.66 15.67-20.64 18.15-28.36 18.15-12.18 0-21.14 9.46-21.14 22.64 0 7.22 1.5 10.45 6.47 14.43 3.73 2.98 9.95 5.22 13.93 5.22 9.7 0 19.4-10.44 19.4-21.14 0-6.97 2.99-11.2 18.9-26.37 18.66-18.4 18.66-18.4 36.08-20.15 15.17-1.74 18.9-1.24 30.84 4.23 10.95 4.73 13.68 6.97 13.68 11.94 0 8.46 9.7 16.67 20.15 16.67 10.7 0 16.42-6.22 18.66-20.4 1.5-9.2 4.97-13.93 25.62-34.83 22.39-22.88 24.38-24.37 34.08-24.37 13.93 0 20.9-7.72 20.9-22.64 0-8.46-1.5-12.69-5.48-16.42-7.96-7.21-17.16-8.7-25.62-4.23m-14.43 84.57c-1 1-1.74 41.79-1.74 90.8 0 78.6.5 89.05 3.98 90.3 2.24.74 12.69 1.49 23.39 1.49 13.18 0 20.14-1 22.13-3.49 2-2.24 2.74-28.36 2.24-91.29-.74-88.06-.74-88.06-24.37-88.8-13.19-.25-24.63 0-25.63.99m-141.79 52.24c-1 1-1.74 30.1-1.74 64.67 0 54.73.5 62.94 3.98 64.18 5.47 2.24 40.3 1.74 41.54-.5.75-.99 1.5-30.34 2-65.17.99-63.43.99-63.43-21.4-64.18-12.44-.25-23.38 0-24.38 1m70.65 18.16c-3.23 2.24-4.48 106.46-1 109.95 1.5 1.49 11.7 2.24 24.63 1.74 22.14-.75 22.14-.75 22.14-56.72s0-55.97-21.64-56.22c-11.94 0-22.64.5-24.13 1.25m-142.79 37.8c-3.98 2.25-4.47 6.23-3.98 33.34.5 39.8 1.25 41.05 25.87 41.05 9.95 0 19.9-.75 22.14-1.5 3.49-1.24 3.98-6.96 3.98-37.06s-.5-35.82-3.98-37.07c-6.46-2.48-39.3-1.49-44.03 1.25" clip-rule="evenodd"/>
</svg>
