<svg xmlns="http://www.w3.org/2000/svg" width="512" height="449" fill="currentColor" viewBox="0 0 512 449">
    <path fill-rule="evenodd" d="M30.35 3.3C21.91 8.05 10.3 19.4 6.07 27.32c-2.38 5.01-3.96 15.83-3.96 30.35-.26 22.96-.26 22.96 254.68 23.75C512 81.95 512 81.95 512 61.62c0-14.24-1.58-23.74-5.01-31.13-5.81-12.4-16.9-23.5-27.45-27.45-10.56-4.22-441.8-3.96-449.19.26m35.9 33.52c5.27 4.22 5.8 6.07 3.69 12.4-2.11 5.55-4.75 7.92-10.03 8.45-8.97 1.05-15.04-3.43-15.04-10.82 0-6.07 7.12-15.04 11.87-15.04 1.85 0 6.07 2.37 9.5 5.01m44.6.26c6.07 6.07 6.33 8.71 2.63 16.1-3.16 5.8-15.57 6.86-20.58 1.85-5.02-5.01-3.7-14.52 2.64-19 3.17-2.38 6.86-4.22 7.92-4.22 1.32 0 4.48 2.37 7.39 5.27m45.39-.79c5.54 4.75 6.33 13.99 1.58 18.74-1.84 1.85-6.33 3.17-10.03 3.17-8.18 0-13.2-4.49-13.2-11.62 0-6.33 7.4-14.77 12.68-14.77 2.37 0 6.33 1.84 8.97 4.48M0 248.75c0 92.63 1.06 153.07 2.9 160.46 3.43 15.57 13.73 28.5 27.19 34.57 10.29 4.75 21.37 5.01 224.59 4.75 157.3 0 216.15-1.05 222.48-3.17 10.3-3.95 22.96-15.3 28.77-26.65 4.49-8.45 4.49-1.85 3.43-308.52 0-9.77 0-9.77-254.68-9.77H0zm463.18-79.7c0 6.59 0 6.59-74.17 7.38-67.03.53-74.42.27-76-3.7-1.06-2.37-.27-6.06 1.32-7.91 2.63-3.17 16.36-3.7 76-3.17 72.85.8 72.85.8 72.85 7.4m-315.39 53.83c0 55.69 0 56.74 5.81 58.33 2.9 1.05 18.21 1.58 33.52 1.05 15.3-.26 37.21-.52 48.82-.26 20.85.53 20.85.53 19.27 10.82-3.7 28.5-30.35 62.81-59.12 76.27-13.72 6.34-18.47 6.86-44.34 7.13-27.7 0-30.08-.53-46.71-8.71-29.56-14.52-49.09-41.7-54.63-76.27-6.34-40.38 10.3-81.82 42.49-105.57 14.51-10.56 35.63-19 47.77-19.27 7.12 0 7.12 0 7.12 56.48m54.63-47.24c7.92 3.96 19.8 13.46 27.98 22.43 14.78 16.1 23.22 33 26.92 54.63 1.85 11.35 1.85 11.35-45.92 11.35s-47.77 0-47.77-49.09c0-49.35 0-49.35 12.67-47.5 6.86.8 18.47 4.75 26.12 8.18m260.76 35.63c0 6.6 0 6.6-74.17 7.39-67.03.53-74.42.26-76-3.7-1.06-2.37-.27-6.07 1.32-7.91 2.63-3.17 16.36-3.7 76-3.17 72.85.8 72.85.8 72.85 7.39m-55.43 128c0 55.42 0 55.42-18.47 55.42-18.48 0-18.48 0-19.27-52.78-.26-29.03 0-54.1.8-56.22.79-2.37 6.06-3.16 19-2.64 17.94.8 17.94.8 17.94 56.22m54.63-11.09c2.64 2.64 3.17 11.09 2.11 35.1-1.31 31.41-1.31 31.41-19 32.2-17.94.8-17.94.8-17.94-33.51s0-34.31 13.98-35.37c7.4-.53 14.52-1.05 15.58-1.32 1.05-.26 3.43 1.06 5.27 2.9m-114.54 7.66c3.7 3.7 4.49 51.46.8 57-1.32 2.38-7.13 3.17-19 2.64-16.9-.79-16.9-.79-17.69-28.24-.26-15.3 0-29.3.53-31.14 1.85-4.48 30.88-4.75 35.36-.26" clip-rule="evenodd"/>
</svg>
