<svg xmlns="http://www.w3.org/2000/svg" width="504" height="512" fill="currentColor" viewBox="0 0 504 512">
    <path fill-rule="evenodd" d="M 207.857919348,29.8524532818 c -21.3275758996,4.52348837853 -45.6827539218,13.3644448728 -62.9167967738,22.6263992954 c -8.83199909154,4.74742344677 -23.9162652885,14.8692885314 -33.3931973765,22.1964439643 c -28.009798336,21.9725088961 -48.9074189045,48.0475082424 -63.3467521048,79.0759512983 c -11.4206884804,24.561198285 -15.0842661969,35.5608888371 -19.822732241,59.6831743884 c -2.80366705441,14.6543108659 -2.80366705441,68.0941755516 0,82.7395290148 c 4.73846604404,23.4863099574 12.2716417398,48.0564656452 17.6639981831,56.0285540746 c 2.14977665514,3.0096873172 3.87855538199,6.67326503367 3.87855538199,7.97208842948 c 0,1.28986599309 4.52348837853,9.6919097536 10.3458001529,18.9628215789 c 14.4303757976,23.9162652885 54.2997753478,63.1317744393 76.9172172404,76.0573065784 c 24.1402003567,13.5794225383 48.7013986417,23.0563546264 70.8888852033,26.9349100084 c 23.9162652885,4.0935330475 69.1690638792,4.30851071301 90.0756418504,0.214977665514 c 32.1033313835,-6.25226710537 63.5617297704,-19.6077545754 88.9828387174,-38.1406208233 c 11.6446235487,-8.40204376051 37.2807101613,-33.8231527076 41.5892208743,-41.365285806 c 1.93479898963,-3.23362238544 4.30851071301,-5.82231177434 5.16842137507,-5.82231177434 s 3.01864471993,-2.57973198617 4.96240111229,-5.82231177434 c 1.93479898963,-3.43964264823 5.16842137507,-9.04697675706 7.53317569573,-12.495576808 c 5.60733410883,-8.83199909154 15.0842661969,-29.0846866635 15.0842661969,-32.1033313835 c 0,-1.5048436586 0.868868064787,-3.44860005096 1.94375639236,-4.73846604404 c 1.07488832757,-1.07488832757 3.01864471993,-5.82231177434 4.52348837853,-10.5607778184 c 1.28986599309,-4.73846604404 3.87855538199,-14.0004204666 5.82231177434,-20.4676652375 c 2.57973198617,-9.04697675706 3.43964264823,-22.1964439643 3.65462031374,-54.9447083443 c 0,-43.7389975294 -1.28986599309,-54.7297306788 -10.5518204157,-80.5897523596 c -7.54213309846,-21.5425535651 -21.1215556368,-46.9726199149 -32.9632420455,-61.6269307807 c -10.1308224874,-12.4866194053 -25.4390237525,-28.2158185987 -38.149578226,-38.9915740826 c -25.8510642781,-21.7664886333 -60.7580627159,-37.9256431578 -99.7585942013,-45.8977315873 c -15.7291991935,-3.22466498271 -71.7487958654,-2.5886893889 -88.1318854581,1.07488832757 m 86.412064134,33.4021547793 c 58.6082860608,13.5704651356 107.3007273,53.2159296175 133.805681977,108.599550696 c 6.45828736816,13.3554874701 7.54213309846,16.37413219 11.4206884804,29.0846866635 c 3.0096873172,10.3458001529 4.52348837853,17.6729555858 6.89720010191,36.8417974275 c 2.79470965168,22.4114216299 -1.72877872684,57.5333977332 -10.7757554839,82.7484864175 c -8.62597882876,24.131242954 -30.1685323938,58.6082860608 -47.6175529114,76.2722842439 c -31.0284430559,30.8134653904 -63.3557095076,47.6175529114 -109.244483692,56.4585094057 c -17.2430002548,3.22466498271 -47.1875975804,1.28986599309 -69.8139968757,-4.53244578126 C 161.530232429,436.670813059 117.361279569,403.913591276 89.9964142296,360.389571413 c -14.6453534632,-23.2713322919 -22.1874865616,-41.8041985398 -28.2158185987,-68.9540862137 c -2.59764679163,-11.8506438115 -3.24257978817,-23.0563546264 -2.59764679163,-42.0102188026 c 1.07488832757,-35.3459111716 6.6822224364,-56.2435317402 23.2713322919,-86.1970864685 c 12.7195118763,-23.7012876229 34.6920207724,-48.4774635735 59.6921317911,-67.6552628179 c 14.8692885314,-11.4206884804 53.2159296175,-28.439753667 73.683594855,-32.74826438 c 25.4300663498,-5.39235644331 54.0847976823,-5.1773787778 78.4399757045,0.429955331028 m -50.6361976313,36.6357771647 c -4.31746811574,4.29955331028 -4.53244578126,6.24330970264 -3.44860005096,25.4211089471 c 0.644932996543,11.4206884804 1.93479898963,22.4024642271 2.79470965168,24.561198285 c 0.868868064787,2.5886893889 3.87855538199,3.66357771647 10.7757554839,3.66357771647 c 7.11217776743,0 9.91584482184,-1.07488832757 11.6446235487,-4.0935330475 c 1.07488832757,-2.37371172339 2.14977665514,-14.4393332004 2.14977665514,-26.9349100084 c 0,-20.252687572 -0.429955331028,-22.8413769609 -4.0935330475,-24.991153616 c -6.6822224364,-3.44860005096 -14.8692885314,-2.59764679163 -19.822732241,2.36475432066 m -99.5525739385,37.9166857551 c -0.859910662057,0.644932996543 -1.5048436586,5.38339904058 -1.5048436586,10.1218650846 c 0,8.19602349773 1.28986599309,10.1308224874 14.0004204666,22.4114216299 c 13.1494672073,12.9344895418 14.4393332004,13.5794225383 23.0563546264,12.9344895418 c 9.2709118253,-0.653890399272 9.2709118253,-0.653890399272 9.91584482184,-10.1308224874 c 0.644932996543,-8.83199909154 0.214977665514,-9.91584482184 -13.1494672073,-23.0563546264 c -12.2716417398,-12.2805991425 -14.6453534632,-13.7944002038 -22.4024642271,-13.7944002038 c -4.74742344677,0 -9.2709118253,0.653890399272 -9.91584482184,1.51380106133 m 187.675501994,11.4206884804 c -11.8506438115,12.495576808 -12.495576808,13.7944002038 -12.495576808,23.9162652885 c 0,10.5607778184 0,10.5607778184 9.26195442257,10.5607778184 c 8.40204376051,0 10.3458001529,-1.07488832757 22.6263992954,-13.5794225383 c 13.1405098046,-13.1405098046 13.5794225383,-14.2153981321 12.925532139,-23.2713322919 c -0.644932996543,-9.47693208808 -0.644932996543,-9.47693208808 -10.1218650846,-10.1218650846 c -9.2709118253,-0.653890399272 -9.91584482184,-0.214977665514 -22.1964439643,12.495576808 m -106.225838972,15.7291991935 a 105.697,105.697 0 0,0 -17.2340428521,8.40204376051 c -20.0466673092,12.925532139 -31.8883537179,31.6733760524 -37.7106654923,59.2532190573 c -2.5886893889,12.495576808 -2.37371172339,17.8879332513 1.28986599309,39.4304868164 c 1.51380106133,9.2709118253 10.5607778184,28.009798336 17.6729555858,35.9818867654 c 7.75711076397,9.04697675706 17.6639981831,23.7012876229 17.6639981831,26.2899770118 c 0,1.28986599309 1.51380106133,6.03728943986 3.44860005096,10.7757554839 c 3.23362238544,8.40204376051 3.23362238544,8.40204376051 41.3742432088,9.26195442257 c 20.8976205685,0.644932996543 39.8604421474,0.214977665514 42.0102188026,-0.859910662057 c 1.94375639236,-1.07488832757 3.6725351192,-4.0935330475 3.6725351192,-6.89720010191 c 0,-6.67326503367 11.4117310777,-28.6547313325 19.3838195072,-36.8417974275 c 3.44860005096,-3.6725351192 8.62597882876,-12.2805991425 11.8506438115,-19.3927769099 c 3.23362238544,-7.11217776743 6.6822224364,-14.6543108659 7.75711076397,-16.5891098555 c 1.07488832757,-2.14977665514 1.94375639236,-12.7195118763 1.94375639236,-23.7012876229 c 0,-31.2434207214 -8.83199909154,-51.9350210271 -30.1685323938,-69.5990192102 c -17.4490205176,-14.6543108659 -24.3462206195,-17.0190651865 -50.6361976313,-17.6729555858 c -15.2992438624,-0.429955331028 -26.7199323429,0.429955331028 -32.318309049,2.14977665514 m 31.6733760524,48.2624859079 c 0.644932996543,5.82231177434 1.28986599309,6.03728943986 12.925532139,6.6822224364 c 12.2895565452,0.644932996543 12.2895565452,0.644932996543 10.9907331494,6.89720010191 c -1.93479898963,9.6919097536 0.859910662057,17.0190651865 6.89720010191,18.5239088451 c 6.89720010191,1.72877872684 6.89720010191,6.46724477089 0,8.187066095 c -3.87855538199,1.07488832757 -5.5983767061,3.23362238544 -6.6822224364,8.62597882876 c -0.644932996543,4.0935330475 -0.644932996543,9.26195442257 0,11.4206884804 c 1.07488832757,3.66357771647 0.429955331028,4.0935330475 -5.16842137507,3.22466498271 c -10.3458001529,-1.5048436586 -15.944176859,1.07488832757 -19.1777992444,8.62597882876 c -2.80366705441,6.45828736816 -3.01864471993,6.67326503367 -3.87855538199,2.14977665514 c -1.28986599309,-7.11217776743 -9.91584482184,-12.065621477 -18.9628215789,-10.5607778184 c -7.54213309846,1.29882339581 -7.54213309846,1.29882339581 -7.54213309846,-9.26195442257 c 0,-9.6919097536 -0.644932996543,-10.9907331494 -6.67326503367,-14.2243555349 c -6.89720010191,-3.43964264823 -6.46724477089,-6.24330970264 1.28986599309,-7.74815336124 c 3.66357771647,-0.653890399272 4.30851071301,-2.59764679163 4.95344370956,-12.9344895418 c 0.644932996543,-12.2716417398 0.644932996543,-12.2716417398 7.54213309846,-10.9907331494 c 3.87855538199,0.429955331028 9.47693208808,0 12.925532139,-1.28986599309 c 4.0935330475,-1.71982132411 5.82231177434,-3.66357771647 5.82231177434,-7.75711076397 c 0,-7.32715543294 3.87855538199,-6.89720010191 4.74742344677,0.429955331028 m -15.7291991935,16.37413219 c -6.89720010191,4.53244578126 -7.32715543294,5.60733410883 -7.97208842948,18.9628215789 c -0.429955331028,12.065621477 0,14.6543108659 4.0935330475,18.3178885824 c 3.44860005096,3.01864471993 7.75711076397,4.0935330475 17.2340428521,4.0935330475 c 8.84095649427,0 13.5794225383,-1.07488832757 16.1681119272,-3.44860005096 c 3.87855538199,-4.0935330475 6.45828736816,-20.4676652375 4.29955331028,-28.869708998 c -1.71982132411,-6.46724477089 -12.925532139,-14.0093778693 -20.8976205685,-14.0093778693 c -3.0096873172,0 -8.83199909154,2.14977665514 -12.925532139,4.95344370956 M 126.417213729,239.079466243 c -19.3927769099,1.28986599309 -20.4766226402,1.93479898963 -20.4766226402,11.4206884804 c 0,11.8506438115 4.0935330475,13.5704651356 30.3835100593,12.495576808 c 22.8413769609,-0.644932996543 25.6450440153,-1.94375639236 25.6450440153,-12.065621477 c 0,-2.5886893889 -1.94375639236,-6.6822224364 -4.30851071301,-9.04697675706 c -4.31746811574,-4.31746811574 -5.82231177434,-4.53244578126 -31.2434207214,-2.80366705441 m 233.788211247,0 c -5.1773787778,0.644932996543 -10.7757554839,1.93479898963 -12.2895565452,3.22466498271 c -1.5048436586,1.29882339581 -2.79470965168,5.39235644331 -2.79470965168,9.48588949081 c 0,4.95344370956 1.28986599309,7.97208842948 4.0935330475,9.47693208808 c 4.52348837853,2.37371172339 42.8790868674,3.01864471993 48.4774635735,0.868868064787 c 2.5886893889,-0.868868064787 3.44860005096,-4.30851071301 3.44860005096,-11.6446235487 c 0,-7.31819803021 -0.859910662057,-10.7667980812 -3.44860005096,-11.6267087432 c -3.44860005096,-1.29882339581 -20.252687572,-1.29882339581 -37.4956878268,0.214977665514 M 155.707920655,327.417371964 c -12.065621477,11.6446235487 -13.1405098046,13.3644448728 -13.1405098046,21.7664886333 c 0,7.54213309846 0.859910662057,9.47693208808 5.16842137507,11.4206884804 c 3.01864471993,1.5048436586 7.97208842948,1.93479898963 10.9907331494,1.07488832757 c 6.6822224364,-1.71982132411 28.439753667,-23.7012876229 30.3835100593,-30.5984877249 c 0.644932996543,-2.57973198617 0.859910662057,-7.1032203647 0.429955331028,-9.6919097536 c -0.644932996543,-4.52348837853 -1.94375639236,-5.16842137507 -10.5607778184,-5.82231177434 c -9.6919097536,-0.644932996543 -10.5607778184,0 -23.2713322919,11.8506438115 m 163.54425904,-1.93479898963 c 0,10.1218650846 0.644932996543,10.9907331494 13.7944002038,23.7012876229 c 9.47693208808,9.04697675706 15.5052641252,13.3554874701 19.1688418417,13.3554874701 c 10.1218650846,0 12.2805991425,-1.93479898963 12.2805991425,-11.8506438115 c 0,-8.40204376051 -1.28986599309,-10.5518204157 -12.925532139,-22.4024642271 c -11.8506438115,-12.2895565452 -13.5704651356,-13.1494672073 -22.6263992954,-13.1494672073 c -9.6919097536,0 -9.6919097536,0 -9.6919097536,10.3458001529 m -105.150950645,53.6548423513 c 0.644932996543,20.8976205685 0.644932996543,20.8976205685 7.75711076397,22.6174418926 c 4.52348837853,1.29882339581 6.89720010191,3.23362238544 6.89720010191,5.60733410883 c 0,2.14977665514 1.93479898963,6.02833203713 4.29955331028,8.61702142603 c 3.88751278471,4.0935330475 6.89720010191,4.74742344677 19.4017343127,4.74742344677 c 19.3927769099,0 24.991153616,-2.15873405787 26.5049546774,-10.5697352211 c 1.07488832757,-5.37444163785 2.79470965168,-7.1032203647 7.75711076397,-7.97208842948 c 3.66357771647,-0.859910662057 7.1032203647,-3.43964264823 8.61702142603,-6.45828736816 c 2.57973198617,-5.60733410883 3.22466498271,-28.439753667 1.07488832757,-34.0381303731 c -1.07488832757,-3.02760212266 -6.89720010191,-3.45755745369 -42.0102188026,-3.45755745369 c -40.9442878777,0 -40.9442878777,0 -40.2993548812,20.9065779713" clip-rule="evenodd"/>
</svg>
