<svg xmlns="http://www.w3.org/2000/svg" width="479" height="512" fill="currentColor" viewBox="0 0 479 512">
    <path fill-rule="evenodd" d="M 209.766166941,15.6854588369 c -28.5118947143,4.45202342714 -51.4256067786,11.868905009 -75.1539444063,24.230374312 c -16.1598978015,8.57251319482 -38.7420762064,25.386005925 -52.7517414165,39.7272047946 c -25.5470365596,26.0490732439 -42.3605292898,52.4107353668 -53.8979006393,84.3989973103 C 14.6065101973,200.785437113 12.6362530211,212.483839097 12.6362530211,256.331533659 c 0,29.1749620332 0.663067318936,39.0641374756 3.12588878927,50.2699751656 c 7.74841524128,35.7677456615 21.9285834763,69.224228097 40.8828364076,96.7509942231 c 10.3817397365,15.1652968231 32.8028875068,39.0641374756 45.8179517385,48.953312918 c 28.3508640797,21.5970498168 55.8871025961,34.7826170733 89.0120513721,42.5310323146 c 13.024536622,2.96485815467 20.763479473,3.61845308334 46.149485398,3.61845308334 c 23.7378100179,0.170503024869 33.7880160949,-0.492564294067 45.3253874444,-2.96485815467 c 30.6621273057,-6.26124996881 62.3093831995,-20.2709151789 85.7156595579,-37.747475228 c 15.4873580923,-11.3668683246 39.3956711351,-35.4267396117 50.6015088251,-50.6015088251 c 10.5427703711,-14.0096652101 24.5619079715,-38.7326038162 28.1803610548,-49.6069078467 c 1.48716527247,-3.95945913308 3.78895610821,-10.0596784673 5.11509074608,-13.517100916 c 3.45742244874,-7.74841524128 8.57251319482,-29.1749620332 11.6984019841,-47.305117011 c 4.12048976768,-23.8988406525 2.64279688547,-79.2839065642 -2.46282147033,-91.4843452327 c -0.663067318936,-1.80922654167 -2.15023259141,-7.73894285101 -3.30586420441,-13.1855672566 c -2.6333244952,-13.1855672566 -12.1909662782,-38.4010701567 -20.1098845443,-53.5663669798 c -9.55764178295,-17.8080937086 -16.8134927302,-28.6823977391 -29.9990599867,-44.330786466 c -11.5373713495,-13.6876039409 -37.0844079091,-36.7623466399 -49.6069078467,-44.8422955406 c -19.7783508848,-12.8540335971 -47.1440863764,-24.7229386061 -65.9278362828,-28.8434283737 c -33.6269854603,-7.41688158182 -57.3647954783,-8.73354382942 -83.0728626725,-4.77408469634 m 52.2497047322,32.1492925781 c 41.0438670422,5.26664899041 82.5802983784,26.2006314883 112.579358365,57.1942924534 c 7.74841524128,7.90944587588 17.6375906837,19.60784786 21.919111086,25.7080671942 c 10.8837764208,15.1652968231 24.230374312,41.8679649957 29.5064956927,58.8424883605 c 7.90944587588,25.2249752904 10.2301814922,41.3754007016 10.0596784673,70.0577984408 c 0,22.2506447454 -0.663067318936,29.1749620332 -4.29099279255,44.5012894909 c -5.76868567475,24.3914049466 -15.3263274577,48.1292149645 -28.0193304202,68.5706331683 c -7.41688158182,12.0299356436 -15.4968304826,22.0801417206 -28.5118947143,35.2657089771 c -10.3817397365,10.5522427614 -23.4062763585,21.7580804514 -30.5010966711,26.3806069034 c -40.0492660638,26.0396008537 -81.2541637405,36.7528742496 -123.453662396,32.4713538473 c -18.1301549778,-1.81869893194 -43.1846272433,-8.74301621969 -59.4960832891,-16.1598978015 c -19.9488539097,-9.06507748889 -42.3605292898,-25.0544722655 -60.3296536329,-43.0141242184 c -8.73354382942,-8.74301621969 -22.5821784049,-26.8731711975 -29.8380293521,-39.2346405005 c -13.6781315506,-23.5673069931 -24.5524355812,-53.4053363452 -27.8488273953,-76.6411096788 c -2.96485815467,-20.7729518632 -2.80382752007,-51.264576144 0.161030634599,-71.7059943478 c 4.61305406174,-29.9895875965 20.4414182038,-68.2296271185 38.7420762064,-93.1135963592 c 6.75381426288,-9.23558051376 34.7636722928,-36.9328496648 44.5012894909,-43.8571669525 c 25.0449998753,-18.2911856124 62.2999108092,-32.6323844819 92.2989707959,-35.7677456615 c 12.361469303,-1.3166622476 29.5064956927,-1.14615922273 42.5310323146,0.502036684337 M 115.657969603,146.39497218 c -4.78355708661,2.15023259141 -9.39661114835,6.10021933421 -11.2153100803,9.72814480782 c -1.4776928822,2.6333244952 -1.97972956654,32.8028875068 -1.97972956654,110.921690068 c 0,107.473740009 0,107.473740009 5.60765504015,113.081395049 c 5.60765504015,5.59818264988 5.60765504015,5.59818264988 129.22234807,5.59818264988 s 123.61469303,0 128.729783776,-4.77408469634 c 3.13536117954,-2.97433054494 5.11509074608,-6.59278362828 5.27612138068,-9.56711417322 c 0.170503024869,-2.46282147033 0.492564294067,-50.2699751656 0.663067318936,-106.147605371 c 0.161030634599,-70.0483260505 -0.170503024869,-103.343777851 -1.48716527247,-107.13273396 c -0.985128588134,-3.12588878927 -4.12048976768,-7.08534792235 -7.41688158182,-9.23558051376 c -5.60765504015,-3.78895610821 -5.60765504015,-3.78895610821 -125.262888937,-3.61845308334 c -65.7668056482,0 -120.8203379,0.492564294067 -122.137000148,1.14615922273 m 69.224228097,37.4159415685 c 0,18.9542529313 0,18.9542529313 -32.1398201879,18.9542529313 s -32.1398201879,0 -32.1398201879,-17.7986213183 c 0,-9.88917544242 0.492564294067,-18.4616886372 1.14615922273,-18.944780541 c 0.502036684337,-0.663067318936 15.0042661885,-1.16510400327 32.1398201879,-1.16510400327 c 30.9936609651,0 30.9936609651,0 30.9936609651,18.9542529313 m 87.3543830747,0 c 0,18.9542529313 0,18.9542529313 -34.6121140485,18.9542529313 s -34.6121140485,0 -34.6121140485,-18.944780541 c 0,-18.9637253216 0,-18.9637253216 34.6121140485,-18.9637253216 s 34.6121140485,0 34.6121140485,18.9542529313 M 353.329713881,166.01229243 c 0.331533659468,0.824097953535 0.331533659468,9.22610812349 0,18.9542529313 c -0.492564294067,17.8080937086 -0.492564294067,17.8080937086 -31.8082865284,17.8080937086 c -31.1546915997,0 -31.1546915997,0 -31.1546915997,-18.9637253216 c 0,-18.944780541 0,-18.944780541 31.16416399,-18.944780541 c 17.296584634,0 31.4767528689,0.483091903796 31.7988141381,1.14615922273 M 184.8821977,239.044421416 c 0,18.1301549778 0,18.1301549778 -32.1398201879,18.1301549778 s -32.1398201879,0 -32.1398201879,-18.1301549778 s 0,-18.1301549778 32.1398201879,-18.1301549778 s 32.1398201879,0 32.1398201879,18.1301549778 m 87.3543830747,0 c 0,18.1301549778 0,18.1301549778 -34.7731446831,18.1301549778 c -34.6121140485,0 -34.6121140485,0 -33.7880160949,-16.983995755 c 0.492564294067,-9.22610812349 0.985128588134,-17.3060570242 0.985128588134,-18.1301549778 c 0,-0.663067318936 15.1558244328,-1.14615922273 33.7880160949,-1.14615922273 c 33.7880160949,0 33.7880160949,0 33.7880160949,18.1301549778 m 80.7710718367,0 c 0,18.1301549778 0,18.1301549778 -31.3157222343,18.1301549778 s -31.3251946246,0 -31.3251946246,-16.983995755 c 0,-9.38713875808 0.502036684337,-17.6281182934 1.155631613,-18.1301549778 c 0.492564294067,-0.663067318936 14.672732529,-1.14615922273 31.3157222343,-1.14615922273 c 30.1695630116,0 30.1695630116,0 30.1695630116,18.1301549778 m -168.134927302,54.3904649333 c 0,18.1301549778 0,18.1301549778 -32.1303477976,18.1301549778 s -32.1398201879,0 -32.1398201879,-18.1301549778 s 0,-18.1301549778 32.1398201879,-18.1301549778 s 32.1398201879,0 32.1398201879,18.1301549778 m 87.363855465,0 c 0,18.1301549778 0,18.1301549778 -34.6121140485,18.1301549778 s -34.6121140485,0 -34.6121140485,-16.9745233648 c 0,-9.39661114835 0.492564294067,-17.6375906837 1.155631613,-18.1301549778 c 0.492564294067,-0.663067318936 16.1504254112,-1.155631613 34.6121140485,-1.155631613 c 33.4564824355,0 33.4564824355,0 33.4564824355,18.1301549778 m 80.7710718367,0 c 0,18.1301549778 0,18.1301549778 -31.3157222343,18.1301549778 s -31.3251946246,0 -31.3251946246,-18.1301549778 s 0,-18.1301549778 31.3251946246,-18.1301549778 s 31.3157222343,0 31.3157222343,18.1301549778 m -168.134927302,56.0386608404 c 0,18.1301549778 0,18.1301549778 -31.6377835035,17.8080937086 c -31.8082865284,-0.502036684337 -31.8082865284,-0.502036684337 -32.3008508225,-18.3006580026 c -0.502036684337,-17.6375906837 -0.502036684337,-17.6375906837 31.8082865284,-17.6375906837 c 32.1398201879,0 32.1398201879,0 32.1398201879,18.1301549778 m 87.0323218055,-0.492564294067 c -0.492564294067,17.8080937086 -0.492564294067,17.8080937086 -34.6121140485,18.2911856124 c -34.2900527793,0.331533659468 -34.2900527793,0.331533659468 -34.2900527793,-6.59278362828 c 0,-3.94998674281 0.502036684337,-12.0299356436 1.16510400327,-18.2911856124 c 0.985128588134,-11.0448070554 0.985128588134,-11.0448070554 34.6121140485,-11.0448070554 s 33.6269854603,0 33.124948776,17.6375906837 m 81.1026054962,0.492564294067 c 0,18.1301549778 0,18.1301549778 -30.8231579403,17.8080937086 c -30.9936609651,-0.502036684337 -30.9936609651,-0.502036684337 -31.4862252592,-18.3006580026 c -0.492564294067,-17.6375906837 -0.492564294067,-17.6375906837 30.9936609651,-17.6375906837 c 31.3157222343,0 31.3157222343,0 31.3157222343,18.1301549778" clip-rule="evenodd"/>
</svg>
