<svg xmlns="http://www.w3.org/2000/svg" width="485" height="512" fill="currentColor" viewBox="0 0 485 512">
    <path fill-rule="evenodd" d="M 197.08902769,23.0115364993 c -23.5313918697,4.26333452698 -57.813400025,17.929997805 -77.5336292115,31.1537172361 c -8.73891298064,5.82286598815 -25.1001513277,19.2680573427 -35.8507676133,29.5757297814 c -20.6153448772,19.498757263 -36.9765832243,42.3565053655 -47.9578994302,66.7737849291 a 795.453,795.453 0 0,1 -7.84379728991,16.804182194 c -1.1073596174,2.02093130175 -2.67611907538,6.7272096757 -3.58046276292,10.7598442824 c -0.673643767251,4.03263460669 -2.46387514871,7.17015352266 -3.58046276292,7.17015352266 c -1.12581561102,0 -2.02093130175,29.5757297814 -2.02093130175,71.7015352266 c 0,46.3891399722 0.895115690731,71.7015352266 2.24240322523,71.7015352266 s 2.24240322523,1.12581561102 2.24240322523,2.47310314552 c 0,4.25410653017 11.6457319763,28.9020860141 23.5313918697,50.2003026554 c 15.0047228158,26.6596827889 45.2540963644,57.8041720282 74.3868822988,76.4078136005 c 17.4778259613,11.2027881293 52.2120059603,24.8694514074 71.9322351469,28.2376702437 c 8.73891298064,1.33805953769 16.1305384268,3.58046276292 16.1305384268,4.47557845365 s 13.6666632781,1.79023138146 30.2493735486,1.79023138146 s 30.2493735486,-0.895115690731 30.2493735486,-1.79023138146 s 7.84379728991,-3.13751891596 17.4778259613,-4.92775029742 c 19.7202291865,-3.36821883625 44.3682086704,-12.7807755841 64.5406097007,-24.4265075605 c 19.7202291865,-11.4334880496 45.7154962049,-33.6175923849 60.4987470972,-51.0954183461 c 6.94868159918,-8.50821306035 13.0022475076,-16.7949541972 13.6666632781,-18.5944135755 c 0.904343687542,-1.79023138146 2.46387514871,-4.92775029742 4.03263460669,-6.7272096757 c 8.0744972102,-10.0769725183 20.3938729538,-37.8624709182 29.8064297016,-67.2167287761 c 4.70627837394,-14.5710069656 7.62232536643,-52.2120059603 6.27503783193,-79.323860593 c -1.11658761421,-24.4265075605 -5.3799221412,-48.8530151209 -10.0862005151,-60.7294470175 c -1.11658761421,-2.46387514871 -3.58046276292,-8.96038490412 -5.82286598815,-14.5617789688 c -6.27503783193,-16.3612383471 -14.5617789688,-31.5966610831 -25.1001513277,-46.6106118957 c -36.3029394571,-51.0954183461 -88.9578892644,-84.9252546577 -146.319117446,-93.6641676383 c -26.4474388622,-3.81116268321 -58.2655718688,-3.81116268321 -81.575491815,0.442943846959 m 76.8599854443,33.3868924646 c 23.3006919494,4.93697829424 48.6315431974,15.2446507329 66.7737849291,27.3425545529 c 15.9090665033,10.7506162856 35.4078237663,27.7854983999 45.0326244409,39.6619302965 c 6.05356590845,7.17015352266 25.1001513277,36.3029394571 25.1001513277,38.0931708385 c 0,0.673643767251 2.47310314552,6.49650975541 5.3799221412,12.9930195108 c 6.05356590845,13.0022475076 10.5383723589,27.3425545529 14.7924788891,46.6106118957 c 3.13751891596,14.1188351218 1.79023138146,60.0558032503 -2.02093130175,77.3121572881 c -2.90681899567,13.2144914343 -17.2563540378,49.0652590476 -23.0699920291,57.5827001047 c -2.25163122204,3.13751891596 -4.04186260351,6.49650975541 -4.04186260351,7.40085344295 c 0,2.46387514871 -22.6270481822,30.2493735486 -31.3751891596,38.757586609 c -25.5430951747,24.6479794839 -57.3612281813,41.9043335217 -92.7598239508,50.8739464227 c -26.6689107857,6.71798167889 -46.8320838192,7.17015352266 -73.0488227611,1.33805953769 c -44.3682086704,-9.85550059485 -87.1676578829,-37.4195270713 -116.078971894,-75.060526066 c -12.0979038201,-15.6875945798 -24.6387514871,-39.440458373 -30.7015453924,-57.3704561781 c -2.23317522842,-6.71798167889 -4.70627837394,-14.3403070453 -5.60139406467,-16.7949541972 c -5.1492222209,-13.2329474279 -6.93945360236,-31.1537172361 -6.04433791163,-54.9065810294 c 1.11658761421,-28.0069703234 3.13751891596,-41.9043335217 6.27503783193,-43.9252648235 c 1.11658761421,-0.664415770439 2.01170330494,-3.58046276292 2.01170330494,-6.49650975541 c 0,-2.90681899567 1.3472875345,-8.73891298064 3.13751891596,-12.7715475873 a 255.616,255.616 0 0,0 4.48480645046,-10.7506162856 c 2.01170330494,-5.15845021772 17.4778259613,-31.8273610034 23.9743357167,-41.6828615982 c 9.41255674789,-13.8881352015 33.8390643083,-37.188827151 51.3076622728,-48.8530151209 c 18.3821696488,-12.3193757436 46.6198398925,-24.6387514871 67.4566566932,-29.1235579376 c 19.2680573427,-4.26333452698 49.7389028148,-4.26333452698 69.0161881544,-0.230699920291 m 46.1584400519,73.9531664486 c -3.58046276292,2.01170330494 -7.39162544614,4.92775029742 -8.28674113687,6.27503783193 c -0.904343687542,1.56875945798 -1.79945937827,6.93945360236 -1.79945937827,12.3193757436 c 0,9.19108482441 -0.895115690731,10.5291443621 -22.6270481822,31.8181330066 c -26.2167389419,25.5430951747 -31.1537172361,27.5640264764 -49.0744870444,19.94170111 c -9.41255674789,-4.03263460669 -12.0979038201,-6.49650975541 -15.0139508126,-13.6574352813 c -1.79023138146,-4.70627837394 -5.3799221412,-9.64325666818 -7.62232536643,-10.7598442824 c -2.23317522842,-1.3472875345 -8.73891298064,-2.24240322523 -14.7832508923,-2.24240322523 c -14.1188351218,0.22147192348 -21.067516721,5.82286598815 -22.636276179,18.5944135755 c -1.11658761421,8.29596913368 -3.35899083944,11.4334880496 -18.5944135755,25.5430951747 c -15.0139508126,14.1188351218 -18.6036415723,16.3612383471 -25.5430951747,16.3612383471 c -5.83209398497,0 -9.64325666818,1.56875945798 -13.4451913546,5.82286598815 c -4.70627837394,4.93697829424 -5.61062206149,8.29596913368 -5.61062206149,19.0465854193 c 0,11.2120161262 0.673643767251,13.4451913546 5.83209398497,17.4778259613 c 4.25410653017,3.36821883625 9.1818568276,4.70627837394 17.0256541175,4.70627837394 c 8.96961290093,0 11.8764318966,-1.11658761421 16.3612383471,-5.81363799134 c 3.58046276292,-3.82039068003 5.60139406467,-8.74814097745 5.60139406467,-13.2329474279 c 0,-6.04433791163 2.91604699248,-10.0769725183 17.4778259613,-24.4172795636 c 17.2563540378,-17.0348821143 17.2563540378,-17.0348821143 30.7015453924,-17.0348821143 c 8.50821306035,0 17.0256541175,1.79023138146 23.0699920291,4.48480645046 c 7.17938151947,3.35899083944 9.41255674789,5.60139406467 9.41255674789,9.63402867137 c 0,2.91604699248 2.25163122204,7.39162544614 5.16767821453,10.0862005151 c 4.02340660988,3.8019346864 8.05604121658,4.92775029742 17.4685979645,4.92775029742 s 13.0022475076,-1.12581561102 16.1397664236,-4.48480645046 c 2.01170330494,-2.46387514871 4.47557845365,-8.73891298064 5.1492222209,-13.8881352015 c 1.12581561102,-6.94868159918 3.81116268321,-11.8764318966 8.96038490412,-17.0348821143 c 4.26333452698,-3.81116268321 8.73891298064,-7.17015352266 9.86472859166,-7.17015352266 c 1.3472875345,0 2.24240322523,30.0279016251 2.24240322523,84.9252546577 c 0,75.3004539831 0.44294384696,85.155954578 3.58046276292,86.2725421922 c 2.02093130175,0.673643767251 13.4451913546,1.3472875345 25.5430951747,1.3472875345 c 15.6875945798,0 22.636276179,-0.895115690731 24.4265075605,-3.13751891596 c 1.79023138146,-2.02093130175 2.46387514871,-26.8903827092 2.02093130175,-86.7247140359 c -0.673643767251,-83.7994390466 -0.673643767251,-83.7994390466 -26.8903827092,-84.4730828139 c -19.7202291865,-0.452171843771 -26.4474388622,-1.3472875345 -26.4474388622,-3.35899083944 c 0,-1.56875945798 4.93697829424,-7.62232536643 10.9813162059,-13.4451913546 c 9.19108482441,-8.96961290093 12.3286037404,-10.5383723589 19.7202291865,-10.5383723589 c 6.27503783193,0 10.3076724386,-1.56875945798 13.6666632781,-5.1492222209 c 4.04186260351,-4.25410653017 4.93697829424,-7.84379728991 4.93697829424,-19.7202291865 c 0,-12.3193757436 -0.895115690731,-15.4568946595 -5.15845021772,-19.498757263 c -6.94868159918,-6.71798167889 -23.079220026,-8.50821306035 -31.8181330066,-3.8019346864 M 179.380501808,254.043664676 c -0.895115690731,0.673643767251 -1.56875945798,28.9020860141 -1.56875945798,62.5104504022 c 0,71.2585913796 -3.35899083944,64.3191377772 30.2586015454,63.1933221662 c 20.1631730335,-0.673643767251 20.1631730335,-0.673643767251 21.7319324914,-61.1723908645 c 0.895115690731,-33.3868924646 1.12581561102,-61.8460346317 0.673643767251,-63.4147940897 c -0.673643767251,-1.79023138146 -7.84379728991,-2.68534707219 -25.3216232512,-2.68534707219 c -13.4451913546,0 -25.1001513277,0.673643767251 -25.7645670981,1.56875945798 m 64.3191377772,15.6875945798 c -3.58969075973,2.46387514871 -5.15845021772,104.866955768 -1.79945937827,108.225946607 c 1.56875945798,1.56875945798 11.4334880496,2.24240322523 26.8903827092,1.79023138146 c 24.4265075605,-0.673643767251 24.4265075605,-0.673643767251 24.4265075605,-55.5709967998 s 0,-54.9065810294 -23.5313918697,-55.5709967998 c -12.9930195108,-0.22147192348 -24.6387514871,0.22147192348 -25.9860390216,1.11658761421 m -129.071991405,34.5034800788 c -3.58969075973,2.01170330494 -4.03263460669,6.05356590845 -4.03263460669,34.051308235 c 0,42.135033442 -0.22147192348,41.9135615185 28.0069703234,41.9135615185 c 11.4334880496,0 22.4055762587,-0.673643767251 24.4265075605,-1.3472875345 c 3.13751891596,-1.11658761421 3.58046276292,-6.71798167889 3.58046276292,-37.871698915 s -0.442943846959,-36.745883304 -3.58046276292,-37.8624709182 c -5.82286598815,-2.24240322523 -44.3682086704,-1.3472875345 -48.4008432771,1.1073596174" clip-rule="evenodd"/>
</svg>
