<svg xmlns="http://www.w3.org/2000/svg" width="503" height="512" fill="currentColor" viewBox="0 0 503 512">
    <path fill-rule="evenodd" d="M206.58 3.6c-24.26 5.15-51.96 15.2-71.57 25.74-10.05 5.4-27.21 16.91-38 25.25-31.87 25-55.64 54.66-72.07 89.96C11.95 172.49 7.78 185 2.4 212.45c-3.19 16.67-3.19 67.66 0 84.33 5.4 26.71 13.97 54.66 20.1 63.73 2.45 3.43 4.41 7.6 4.41 9.07s5.15 11.03 11.77 21.57c16.42 27.21 61.77 71.82 87.51 86.53 43.14 24.27 80.4 34.32 128.7 34.32 29.65 0 53.92-3.92 81.87-13.24 19.36-6.62 46.33-20.59 63.98-33.58 13.23-9.56 42.4-38.49 47.3-47.06 2.21-3.68 4.9-6.62 5.89-6.62s3.43-2.94 5.64-6.62c2.2-3.92 5.88-10.3 8.58-14.22 6.37-10.05 17.16-33.1 17.16-36.52 0-1.72.98-3.93 2.2-5.4 1.23-1.22 3.43-6.62 5.15-12 1.47-5.4 4.41-15.94 6.62-23.3 2.94-10.05 3.92-25 3.92-57.6.25-44.37-1.72-58.34-11.77-86.78-8.57-24.51-24.02-53.44-37.5-70.1-11.52-14.22-28.93-32.12-43.39-44.37-29.41-24.76-69.13-43.15-113.5-52.22C279.4-1.3 225.22-.57 206.59 3.6m98.3 28.19c66.68 15.44 122.08 60.55 152.23 123.55 7.1 14.95 8.33 18.14 12.99 33.09 3.18 10.3 6.86 32.36 9.07 52.7.73 8.34 0 26.48-2.2 42.4-4.42 32.86-7.36 43.15-19.62 70.36-9.8 21.08-30.88 51.97-45.84 67.17-35.3 35.05-72.07 54.17-124.28 64.22-20.34 3.92-64.47 1.47-89.23-4.9-54.17-13.97-104.18-51.23-135.3-100.75-16.68-26.47-25.26-47.56-32.12-78.44-2.94-13.97-3.68-26.72-2.94-52.7 1.22-45.1 7.1-67.42 26.47-102.96 14.47-26.96 39.47-55.15 67.9-76.97 16.92-13 60.55-32.36 83.84-37.26 29.9-6.13 70.6-6.13 99.03.49m-57.6 51.48c-4.9 4.9-5.15 7.1-3.68 24.51.73 10.54 2.2 20.84 2.94 23.04 2.2 5.15 12.5 4.66 15.69-.98 1.22-2.7 2.45-14.22 2.45-25.74 0-18.14-.74-21.32-4.66-23.53-2.7-1.22-5.4-2.45-6.13-2.45s-3.92 2.45-6.61 5.15M134.02 126.4c-4.9 4.66-.49 13 14.22 27.21 11.52 11.52 17.4 15.44 21.33 14.7 3.68-.48 5.88-2.69 6.37-6.37.74-4.4-2.94-9.56-14.95-21.57-14.22-14.21-22.55-18.63-26.97-13.97m213.76 13c-11.03 11.27-14.46 16.9-14.46 22.3 0 5.88.98 7.1 5.63 7.1 3.68 0 11.03-5.63 21.08-15.68 11.77-11.77 15.2-16.91 14.47-21.33q-.74-5.88-6.62-6.62c-4.41-.73-9.07 2.46-20.1 14.22m-121.1 17.89a120 120 0 0 0-19.6 9.56c-23.05 14.95-36.78 36.52-42.9 68.39-2.46 12.5-2.46 17.9-.5 24.27 1.72 4.4 2.95 10.54 2.95 13.72 0 5.89 10.78 26.97 18.14 35.55 10.3 12.25 20.34 28.68 23.04 37.75 1.71 5.39 3.68 11.03 4.9 12.74 1.23 1.96 14.22 2.95 41.18 3.44 21.57.24 40.7-.25 42.17-1.23 1.71-.98 2.94-4.41 2.94-7.6 0-7.35 13.23-32.36 22.06-41.67 3.92-4.17 9.8-13.97 13.48-22.06 3.68-8.1 7.6-16.67 8.83-18.88 1.22-2.45 2.2-12.25 2.2-22.06 0-20.1-6.62-42.16-16.91-56.13-8.1-11.28-25-25.5-38-32.36-7.6-3.68-15.44-5.15-32.1-5.88-13.74-.5-25.75.49-31.88 2.45m36.04 45.1c.73 6.62 1.47 6.86 13.97 6.86 9.8 0 13.97.98 15.93 4.17 1.97 3.19 1.97 5.64-.49 9.56-4.4 6.87-1.71 13.48 6.87 16.67 10.78 3.68 9.56 14.95-1.47 18.39-6.13 1.96-9.32 10.78-5.64 15.2 1.47 1.7 1.96 5.63.98 8.57-1.47 4.42-2.94 4.9-11.77 3.68-5.64-.74-11.52-.74-12.74.49-1.47.98-3.93 4.66-5.4 8.33-2.2 4.9-4.9 6.87-9.31 6.87s-6.13-1.23-6.13-4.9c0-2.7-2.7-6.62-5.88-8.58-4.66-3.2-6.87-3.2-12.01-.98-5.15 2.2-7.36 2.2-10.3-.25s-3.43-5.64-2.2-13.73c1.46-9.8.97-10.54-6.38-14.46-6.13-3.19-7.6-5.15-6.86-10.54.49-4.41 2.45-6.86 6.86-7.84s6.37-3.2 6.86-8.34c.5-3.68-.49-8.33-2.2-10.3-2.2-2.7-1.96-4.4.49-7.84 5.64-6.86 7.6-7.6 13.24-3.92 4.16 2.7 7.1 2.94 12 1.23 4.66-1.97 6.38-4.42 6.38-8.83 0-5.15 1.23-6.13 7.1-6.13 6.14 0 7.36.98 8.1 6.62m-17.9 28.44c-7.1 4.65-8.33 7.35-9.07 16.17-.98 12.26 3.44 18.63 14.47 21.09 10.05 2.2 19.85-3.44 22.55-12.75 3.19-11.28.24-19.86-8.83-25.25-4.16-2.7-8.58-4.9-9.31-4.9s-5.15 2.45-9.8 5.64m-130.9 10.78c-18.87 1.23-23.28 2.7-23.28 8.1 0 2.69 2.2 5.87 4.65 7.34 5.15 2.7 32.36 3.44 41.19.99 2.94-.74 5.88-2.95 6.61-4.9 1.72-4.66-7.1-13.49-12.5-12.75-2.45.24-9.8.73-16.67 1.22m264.99.5c-7.84.97-13 2.93-14.7 5.87-4.67 7.6 4.16 11.53 25.73 11.53 10.54 0 20.6-.74 22.8-1.47 2.2-.99 3.92-4.42 3.92-8.34s-1.72-7.35-3.92-8.33c-4.41-1.72-15.94-1.47-33.83.73M147.26 342.36c-15.44 14.7-18.63 22.8-10.54 27.2 2.7 1.48 6.13 1.24 9.56-.48 5.15-2.94 24.51-23.53 28.44-30.4 3.18-5.39 0-10.54-6.62-10.54-3.92 0-11.03 4.9-20.84 14.22m186.06-7.35c0 5.39 3.67 10.54 15.68 22.06 8.58 8.33 16.43 15.2 16.92 15.2.73 0 2.94-.74 5.15-1.47 7.84-2.95 4.16-12.5-10.79-27.7-10.3-10.55-16.42-14.96-20.84-14.96-5.14 0-6.12 1.23-6.12 6.87m-119.63 61.03c.74 18.88.74 18.88 8.83 20.84 5.14 1.47 7.84 3.68 7.84 6.37 0 2.45 2.2 6.87 4.9 9.8 3.93 4.18 7.85 5.4 17.16 5.4 17.16 0 23.54-3.19 25.25-12.01 1.23-6.13 3.19-8.09 8.83-9.07 8.33-1.72 12.5-9.32 12.5-23.04 0-17.9 1.71-17.16-44.37-17.16-41.67 0-41.67 0-40.94 18.87" clip-rule="evenodd"/>
</svg>
