<svg xmlns="http://www.w3.org/2000/svg" width="512" height="427" fill="currentColor" viewBox="0 0 512 427">
    <path fill-rule="evenodd" d="M 385.353148883,63.4465901818 c -14.7250023694,2.18924225611 -28.0627621213,4.97817793551 -29.450004739,6.17033956013 c -5.1804841506,4.17617829714 -1.58954883283,10.1514368641 9.34943722578,15.722083001 c 5.96803334505,2.98401667252 11.1485174957,5.96803334505 11.740985697,6.56772676834 c 0.599693423291,0.397387208205 -11.740985697,14.3276151613 -27.2607624829,30.6421663637 c -17.3116318338,18.3087124653 -28.0627621213,31.0467787938 -28.0627621213,33.6334082581 c 0,5.57064613684 9.3566624477,12.7380663285 13.7279217381,10.5488240724 c 1.79908026987,-0.997080631498 15.5270020078,-14.5226961544 30.6493915856,-29.8473919472 c 15.1296147997,-15.5270020078 28.0627621213,-28.0627621213 28.8575365377,-28.0627621213 c 0.794774416408,0.202306215086 3.77879108893,5.57064613684 6.77003298343,11.9432919121 c 4.37125929026,9.94913064904 6.16311433817,11.9360666901 10.1442116422,11.9360666901 c 2.78893567941,0 5.37556514372,-1.39446783969 6.17033956013,-2.98401667252 c 0.599693423291,-1.58954883283 2.38432324923,-16.9142446256 4.17617829714,-34.0307954663 c 3.3886291027,-33.2360210499 2.78893567941,-36.8125059237 -5.76572712996,-36.4151187155 c -2.18924225611,0 -16.3217764243,1.98693604103 -31.0467787938,4.17617829714 m -148.26155477,63.6831064204 c -6.16311433817,3.38140388073 -15.1223895777,12.1383729052 -17.70179382,17.5139380489 c -6.77003298343,13.1354535367 -5.1804841506,29.2549237459 4.16895307517,41.5883776442 c 5.97525856702,7.75988839296 18.7133248955,14.1325341682 28.4673745514,14.1325341682 c 15.714857779,0 34.2258764594,-14.7250023694 37.0075869168,-28.8575365377 c 3.17909766564,-17.5139380489 -4.76864649846,-35.425263306 -19.1034868817,-42.7877644908 c -8.55466280934,-4.37848451223 -26.2709070733,-5.36833992176 -32.8386338417,-1.58954883283 M 120.678817773,202.55378872 c -2.78893567941,1.19216162462 -8.35958181626,5.17325892864 -12.3406791203,9.1543562327 c -5.57064613684,5.36833992176 -7.96219460801,9.94913064904 -9.75404965596,17.9113252571 c -1.98693604103,8.15727560117 -1.78462982594,12.3334538983 0,18.5037934584 c 2.78893567941,9.75404965596 11.9432919121,20.4979547215 20.1005675131,23.8793586021 c 3.3886291027,1.39446783969 10.9462112806,2.18924225611 17.7162442639,1.58954883283 c 8.95927523952,-0.592468201325 13.5328407449,-2.18201703414 19.1034868817,-6.35819533128 c 3.97387208205,-3.18632288761 9.1543562327,-9.3566624477 11.1412922736,-13.9374531751 c 4.37848451223,-9.75404965596 4.77587172042,-23.2796651788 0.997080631498,-30.6421663637 c -3.77879108893,-7.36972640672 -14.9273085845,-17.7162442639 -21.6901163461,-20.1005675131 c -6.96511397655,-2.58662946432 -18.5110186804,-2.58662946432 -25.2738264419,0 m 244.77606981,0 c -6.5749519903,2.58662946432 -15.5270020078,11.3435984888 -19.3057930969,18.7060996735 c -1.79185504791,3.17909766564 -3.17909766564,10.3465178573 -3.17909766564,15.9171639941 c 0,21.2927291378 15.1223895777,36.8197311457 36.2128125004,36.8197311457 c 5.77295235193,0 12.7380663285,-1.19938684658 15.722083001,-2.78893567941 c 12.1383729052,-6.36542055325 22.2898097694,-22.2898097694 22.2898097694,-35.425263306 c 0,-10.3465178573 -7.16742019163,-22.6871969776 -17.3116318338,-29.2476985238 c -7.36972640672,-4.97817793551 -11.3435984888,-6.17033956013 -19.3057930969,-5.97525856702 c -5.57064613684,0 -12.3406791203,0.997080631498 -15.1223895777,1.994161263 m -129.353148883,10.3465178573 c -17.9185504791,4.97817793551 -32.6363276266,17.5139380489 -39.9988288113,34.0307954663 c -2.59385468629,5.77295235193 -4.58079072732,15.722083001 -5.1804841506,24.8764392335 c -1.58954883283,23.2796651788 -5.17325892864,22.0875035542 60.901395963,22.0875035542 c 42.7805392689,0 55.9232180275,-0.599693423291 58.7049284848,-2.58662946432 c 3.17909766564,-2.38432324923 3.58371009581,-4.97817793551 2.78171045745,-20.4979547215 c -0.989855409528,-20.1005675131 -4.97095271355,-29.8473919472 -16.9070194036,-41.7906838592 c -14.7322275914,-14.7250023694 -40.6057474567,-21.6901163461 -60.3017025396,-16.1194702091 M 112.716623165,289.11917311 c -4.97817793551,1.79185504791 -13.5328407449,6.56772676834 -19.3057930969,10.9462112806 c -13.5328407449,10.1514368641 -20.3028737283,23.8793586021 -21.8924225611,44.3773133236 c -0.989855409528,12.9331473216 -0.592468201324,15.722083001 2.39154847119,19.1034868817 c 3.38140388073,3.77879108893 6.17033956013,3.98109730402 58.7049284848,3.98109730402 s 55.3235246041,-0.202306215086 58.7121537069,-3.97387208205 c 2.98401667252,-3.39585432466 3.38140388073,-6.17756478211 2.38432324923,-18.5110186804 c -0.599693423291,-7.96219460801 -2.38432324923,-17.9185504791 -3.97387208205,-21.8924225611 c -4.3857097342,-10.3465178573 -18.5110186804,-24.8764392335 -30.2520043774,-30.6493915856 c -12.7380663285,-6.56772676834 -33.6334082581,-8.15727560117 -46.7688617948,-3.38140388073 m 247.760086483,-0.599693423291 c -12.3406791203,4.1834035191 -19.3057930969,8.35958181626 -27.2607624829,16.7191636325 c -11.3435984888,11.740985697 -15.5270020078,22.6871969776 -15.5270020078,41.5883776442 c 0,9.75404965596 0.997080631498,16.9214698476 2.38432324923,18.3087124653 c 1.79908026987,1.79185504791 17.5211632709,2.39154847119 58.3147664986,2.39154847119 c 53.5388947782,0 56.3206052356,-0.202306215086 59.7020091164,-3.97387208205 c 2.98401667252,-3.39585432466 3.38140388073,-6.17756478211 2.38432324923,-18.7133248955 c -0.592468201324,-8.16450082309 -2.78171045745,-18.9084058885 -4.97095271355,-23.684277609 c -4.97817793551,-11.1412922736 -17.5139380489,-23.481971394 -29.652310954,-29.450004739 c -11.1412922736,-5.37556514372 -33.8284892512,-6.96511397655 -45.374393955,-3.17909766564" clip-rule="evenodd"/>
</svg>
