<svg xmlns="http://www.w3.org/2000/svg" width="512" height="475" fill="currentColor" viewBox="0 0 512 475">
    <path fill-rule="evenodd" d="M 350.61843979,81.9433307413 c -14.9321129499,4.56950308328 -35.3255079509,10.7151736446 -44.9899032768,13.8813346311 c -17.2203209992,5.27463063924 -21.0846965265,7.90848945126 -18.9762268738,13.0033816939 c 0.345650762729,1.41025511194 6.67797273593,5.80693281385 13.8813346311,9.84413372248 s 13.1831200905,8.26105322919 13.1831200905,9.13900616661 c 0,4.04411392393 -46.3932453735,52.0135267755 -67.1322911373,69.5933245679 c -20.0339182077,16.6949318398 -54.1289094434,39.0101450817 -80.4882366094,52.3660905535 c -22.3152132418,11.2474758192 -53.2440434908,22.6746900351 -74.3356530325,27.4170184997 c -6.67797273593,1.40334209668 -10.8949120412,3.33898636796 -11.9526033751,5.44745602061 c -2.45412041538,4.74232846465 1.05769133395,8.43387861062 7.90848945126,8.43387861062 c 8.78644238855,0 45.5152924362,-9.49156994451 69.7730629645,-18.0982739364 c 36.3762862696,-12.8305563125 73.6236124614,-31.4542194084 104.911919504,-52.5458289501 c 17.9254485552,-12.1254287565 43.9322119429,-33.5696020762 63.4407409913,-52.1932651721 c 9.13900616661,-8.78644238855 17.0474956178,-15.9967172991 17.5728847771,-15.9967172991 s 4.92206686127,5.62719441723 9.4846569293,12.3051671531 c 6.67797273593,9.66439532593 9.31874456313,12.3051671531 12.8305563125,12.3051671531 c 2.81359720862,0 4.7492414799,-1.23742973056 5.80693281385,-4.04411392393 c 0.691301525458,-2.10846965265 4.73541544939,-24.2508575131 8.95926776993,-49.0340172008 c 6.15258357657,-37.0814138255 7.20336189529,-45.6950308328 5.267717624,-47.9763258669 c -1.23051671531,-1.40334209668 -3.51181174932,-2.633858812 -5.09489224263,-2.46103343063 c -1.58308049329,0 -15.1118513465,3.87128854256 -30.0508773117,8.61361700717 m -16.5221064584,156.579795516 c -11.2405628039,2.81359720862 -27.5829308657,12.4779925345 -37.0745008104,21.7898240824 c -4.7492414799,4.92206686127 -10.8949120412,12.8305563125 -13.5356838685,17.7526231738 c -13.7085092499,25.4813742284 -13.5287708532,58.166110352 0.705127555967,83.1220954208 c 7.7287510546,13.5287708532 20.9118711452,25.4813742284 36.0237224916,33.0372999016 c 10.7151736446,5.27463063924 15.2915897431,6.4982343393 27.0644547217,7.20336189529 c 17.7526231738,1.05769133395 32.8644745202,-2.81359720862 46.9186345329,-11.7728649786 c 20.0339182077,-13.0033816939 33.7424274577,-34.4475550136 37.6068029849,-58.6914995114 c 1.58999350855,-10.3695228819 1.58999350855,-15.9967172991 -0.172825381365,-25.4882872437 c -4.92206686127,-27.5829308657 -21.6169987011,-49.3796679635 -46.9186345329,-61.3253583234 c -11.9526033751,-5.62719441723 -15.4644151245,-6.50514735457 -28.647535215,-7.03053651391 c -8.26105322919,-0.179738396619 -18.0982739364,0.345650762729 -21.9695624791,1.40334209668 m 24.2577705284,27.2372801031 a 21.4303,21.4303 0 0,1 1.0507783187,5.80693281385 c 0,1.7489928594 2.81359720862,4.21693930529 7.03053651391,6.14567056132 c 4.04411392393,1.75590587466 8.43387861062,4.92206686127 9.83722070731,7.20336189529 c 2.1153826679,3.1661609866 2.28129503401,4.92206686127 0.705127555967,7.7356640699 c -2.633858812,4.91515384601 -8.43387861062,4.56259006803 -13.3559454718,-0.705127555967 c -7.7287510546,-8.43387861062 -23.5457299571,-3.87128854256 -23.5457299571,6.67797273593 c 0,5.62028140197 4.38976468666,9.31183154791 14.0541600126,11.7728649786 c 4.39667770192,1.05769133395 11.2474758192,3.87128854256 15.2915897431,6.32540895795 c 5.44745602061,3.1661609866 8.08822784784,6.15258357657 10.3695228819,12.1254287565 c 2.46103343063,6.67797273593 2.633858812,9.13900616661 0.877952937333,14.9390259652 c -2.10846965265,7.20336189529 -10.0169591039,15.1118513465 -16.8677572211,16.8677572211 c -3.33898636796,0.884865952585 -4.39667770192,2.46103343063 -4.7492414799,7.38310029189 c -0.525389159349,5.97975819521 -1.0507783187,6.4982343393 -5.80001979859,6.4982343393 c -4.56259006803,0 -5.267717624,-0.691301525458 -5.80001979859,-5.44054300536 c -0.525389159349,-4.7492414799 -1.57616747804,-5.97975819521 -8.08131483261,-8.43387861062 c -7.7287510546,-2.99333560524 -13.7085092499,-8.26105322919 -15.6372405058,-13.8882476465 c -0.705127555967,-1.93564427128 0.172825381365,-4.38976468666 2.28129503401,-6.4982343393 c 1.93564427128,-1.93564427128 4.39667770192,-3.51872476458 5.44745602061,-3.51872476458 c 1.05769133395,0 4.39667770192,2.81359720862 7.55592567326,6.15258357657 c 4.56950308328,4.92206686127 7.21027491053,6.15258357657 12.3051671531,6.15258357657 c 4.56259006803,0 7.7287510546,-1.23051671531 10.7151736446,-4.39667770192 c 2.46103343063,-2.28129503401 4.39667770192,-5.26771762399 4.39667770192,-6.4982343393 c 0,-5.10180525788 -5.62719441723,-10.0238721192 -14.5864621872,-12.8305563125 c -16.6949318398,-5.44745602061 -20.2067435892,-7.7356640699 -24.2508575131,-15.9898042839 c -2.633858812,-5.62719441723 -3.33898636796,-9.49156994451 -2.633858812,-13.8882476465 c 1.57616747804,-7.90848945126 8.43387861062,-15.9898042839 15.9898042839,-18.8034014924 c 4.92206686127,-1.57616747804 6.15258357657,-2.98642258998 6.15258357657,-6.67797273593 c 0,-2.62694579674 0.525389159349,-5.26771762399 1.23051671531,-5.80001979859 c 2.10846965265,-2.28129503401 8.95926776993,-1.22360370006 10.0169591039,1.58999350855 M 218.116676405,272.790942874 c -2.46103343063,2.28129503401 -2.81359720862,10.3695228819 -2.81359720862,61.1594459573 c 0,43.0542590056 0.525389159349,58.871237908 2.10846965265,60.4474053861 c 2.81359720862,2.81359720862 33.3898636796,2.81359720862 36.2034608883,0 c 2.98642258998,-2.98642258998 2.98642258998,-119.318643294 0,-122.311978899 c -1.41025511194,-1.40334209668 -7.90848945126,-2.10846965265 -17.4000593958,-2.10846965265 c -11.6000395972,0 -15.9898042839,0.705127555967 -18.0982739364,2.81359720862 m -55.179687762,34.4475550136 c -1.58999350855,1.57616747804 -2.10846965265,12.8236432973 -2.10846965265,42.3491314495 c 0,24.2508575131 0.698214540713,41.4780915275 1.75590587466,43.5796481649 c 1.57616747804,2.99333560524 3.86437552731,3.33898636796 18.0982739364,3.33898636796 c 8.96618078523,0 17.2203209992,-0.698214540713 18.4577507297,-1.40334209668 c 1.57616747804,-1.23051671531 2.10155663739,-11.4203012006 1.7489928594,-45.3424670548 c -0.525389159349,-43.7593865615 -0.525389159349,-43.7593865615 -18.0982739364,-44.2847757209 c -12.3051671531,-0.345650762729 -18.2780123332,0.179738396619 -19.8541798112,1.76281888992 m -51.4950506313,25.8270249911 c -1.40334209668,0.352563777983 -2.98642258998,1.58999350855 -3.69155014595,2.64077182725 s -1.40334209668,14.2338984092 -1.40334209668,29.1729243743 c 0,18.9762268738 0.705127555967,28.1152330403 2.10846965265,29.5185751371 c 2.81359720862,2.81359720862 33.3898636796,2.81359720862 36.2034608883,0 c 1.40334209668,-1.40334209668 2.10846965265,-10.7151736446 2.10846965265,-30.7490918524 c 0,-27.0644547217 -0.179738396619,-28.647535215 -3.69155014595,-30.4034410897 c -3.33898636796,-1.93564427128 -26.1865017844,-1.93564427128 -31.6339578049,-0.179738396619" clip-rule="evenodd"/>
</svg>
