<svg xmlns="http://www.w3.org/2000/svg" width="512" height="512" fill="currentColor" viewBox="0 0 512 512">
    <path fill-rule="evenodd" d="M10.78 5.39c0 3.5-1.89 5.39-5.4 5.39C0 10.78 0 12.67 0 140.13c0 121.26.27 129.34 4.85 129.34 3.23 0 7.55 7.01 15.1 24.26C25.6 307.2 38.8 330.9 49.3 346.8c23.72 36.11 70.6 84.08 105.9 108.06 25.34 16.98 67.1 38.8 85.16 44.2 7 2.15 10.24 4.58 10.24 8.08 0 4.58 5.66 4.85 130.7 4.85C512 512 512 512 512 431.16c0-44.47-.54-80.84-1.35-80.84-.8 0-7.27 2.96-14.55 6.46-16.98 8.63-40.42 16.44-66.56 22.1-29.91 6.47-94.31 6.74-124.5.27-55.78-11.86-103.2-36.92-141.47-74.38-27.76-26.94-42.85-47.15-57.94-77.06-21.28-42.04-30.18-82.73-30.18-137.44.27-30.99 3.5-59.55 9.43-83C86.78 0 86.78 0 48.78 0c-36.11 0-38 .27-38 5.39m226.36.54c0 5.12.54 5.39 2.7 2.15 3.5-5.12 3.5-8.08 0-8.08-1.36 0-2.7 2.7-2.7 5.93m66.29 3.5c-1.08 5.12-.54 11.59.8 14.28 2.16 3.5 2.7 1.35 2.97-9.7 0-7.54-.54-14.01-1.08-14.01s-1.88 4.31-2.7 9.43m-28.57 9.16c0 4.58-1.34 10.78-3.23 13.48-2.7 4.3-1.08 7.27 9.7 19.94 7.28 8.08 15.9 15.36 19.4 16.17 3.5.54 6.47.27 6.47-.54 0-1.08-5.39-7.28-12.13-13.75-10.78-10.77-11.85-12.93-12.66-26.4-.54-8.9-2.16-15.36-4.04-16.17-2.43-.54-3.5 1.88-3.5 7.27m94.32-5.12c0 1.35 1.35 2.7 2.96 2.7 1.35 0 1.89-1.35 1.08-2.7-.8-1.61-2.15-2.7-2.96-2.7-.54 0-1.08 1.09-1.08 2.7m-156.3 21.3c-1.34 2.96-2.7 11.31-2.7 18.32 0 7.27-1.34 14.55-3.22 16.43-2.43 2.43-.27 3.24 10.5 3.24 7.82 0 14.83 1.08 15.63 2.7.81 1.34 2.97 2.69 4.59 2.69s.8-2.43-1.9-5.4c-2.69-2.96-7-5.38-9.42-5.38-8.36 0-11.59-7-10.24-22.9.8-8.1.8-14.83.54-14.83-.54 0-2.16 2.43-3.78 5.12m31.53-2.43c1.62 2.15 3.5 7 4.31 10.78 1.08 6.73 1.08 6.73 1.62-.27 0-4.05-1.89-8.9-4.31-10.78-4.31-3.24-4.58-3.24-1.62.27M369.18 45.8c0 1.35 1.35 2.7 2.96 2.7 1.35 0 1.89-1.35 1.08-2.7-.8-1.62-2.15-2.7-2.96-2.7-.54 0-1.08 1.08-1.08 2.7m92.97 33.68a47 47 0 0 1-14.02 4.05c-4.85 0-6.2 1.61-6.2 6.73 0 6.2.82 6.74 12.94 6.74 11.32 0 13.48-1.08 20.21-9.43 4.04-5.12 6.47-9.43 4.85-9.43-1.34 0-4.04-.54-6.2-1.08-1.88-.54-7 .54-11.58 2.42m-264.9 6.74c0 3.77.54 5.12 1.35 3.24.54-1.62.54-4.86 0-6.74-.8-1.62-1.35-.27-1.35 3.5m75.19 4.31c3.5 3.78 6.73 5.4 7.27 3.78 1.89-5.4-1.88-10.78-7.81-10.78s-5.93 0 .54 7m228.78-1.61c0 1.34 2.43 2.7 5.4 2.7 2.95 0 5.38-1.36 5.38-2.7 0-1.62-2.43-2.7-5.39-2.7s-5.39 1.08-5.39 2.7M231.75 102.4c-2.16 1.35-8.63 2.7-14.02 2.7-10.24 0-10.24 0-10.24 11.04 0 5.93 1.62 13.48 3.24 16.71 3.23 5.39 3.5 5.12 4.85-6.2 1.35-11.05 2.15-12.12 9.43-12.93 8.08-1.08 17.52-7.28 17.52-11.86 0-2.96-5.66-2.7-10.78.54m256.54 16.17c-6.74 7.81-14.02 13.47-16.98 13.47-4.58 0-4.85.81-2.43 5.4 2.97 5.65 2.97 5.65 10.51.26 4.05-2.96 10.51-11.32 14.82-18.86 4.05-7.55 7.01-13.75 6.47-13.75s-5.93 6.2-12.4 13.48m-244.42 26.68c-.8 1.61-4.04 2.96-7 2.96-3.78 0-5.12 1.89-5.12 7.55 0 4.3 1.88 9.97 4.04 12.93 3.77 4.85 3.77 4.58 4.04-4.04 0-5.12 1.89-11.59 4.58-14.28 2.43-2.7 3.78-5.66 2.97-6.47s-2.43-.27-3.5 1.35m24.8 36.64c-2.7 1.9-3.78 4.32-2.43 5.12 1.35.81 4.04-.26 5.93-2.42 4.58-5.66 2.42-7.28-3.5-2.7" clip-rule="evenodd"/>
</svg>
