<svg xmlns="http://www.w3.org/2000/svg" width="512" height="499" fill="currentColor" viewBox="0 0 512 499">
    <path fill-rule="evenodd" d="M 244.752959963,99.1172708407 C 228.141197526,102.180216774 217.81973956,105.730311166 202.328418578,113.463792945 c -16.7761750419,8.70777869691 -33.8689965818,22.4210078055 -45.8102231724,36.9441212265 c -10.4858705706,12.5806089424 -22.0982719517,34.1917324357 -27.5847814663,51.2906433313 c -4.03115349462,12.5866982982 -7.25851203265,39.3615954521 -5.80315601267,47.4239024414 c 0.9682075614,5.1637736608 1.613679269,5.8092453684 5.8092453684,5.8092453684 c 4.83494845127,0 4.83494845127,0 4.83494845127,-10.3214579659 c 0,-10.9730190292 3.8728302456,-34.5266470008 6.1319812222,-36.7797086217 c 0.6454717076,-0.6454717076 10.6441938197,1.12653081044 22.0982719517,4.1955660994 c 20.9717411412,5.32209690983 20.9717411412,5.32209690983 20.6429159317,11.6124013811 a 404.333,404.333 0 0,1 -1.44926666424,13.067757401 c -0.803794956637,6.93577617884 -0.803794956637,6.93577617884 -13.5488165038,6.93577617884 c -6.93577617884,0 -13.067757401,0.487148458565 -13.3904932548,1.12653081044 c -0.3227358538,0.809884312364 -1.12653081044,3.227358538 -1.77200251803,5.64483276363 c -0.9682075614,4.5183019532 -0.9682075614,4.5183019532 13.5488165038,4.5183019532 c 7.90398374023,0 14.5170240652,0.487148458565 14.5170240652,1.12653081044 c 0.164412604766,0.809884312364 0.809884312364,6.29639382696 1.613679269,12.4222856934 c 0.809884312364,7.10018878357 3.227358538,14.8397599191 6.7774529298,21.6172128489 c 4.83494845127,9.84039886301 5.32209690983,11.9351372348 5.15768430507,24.8445713869 c 0,9.83430950726 0.487148458565,14.1881988557 1.9364151228,14.1881988557 c 0.974296917136,0 3.06903528896,3.06903528896 4.5183019532,6.94186553456 c 3.8728302456,10.3214579659 18.2254417061,31.4515223562 27.7431047153,41.1275086144 c 4.841037807,4.841037807 7.42292463739,8.39113219882 6.1319812222,8.39113219882 c -3.71450699657,0 -25.1673072407,-10.1631347169 -34.0394985423,-16.13679269 c -4.18947674367,-2.89853332847 -10.1570453611,-7.57515853067 -13.0616680454,-10.3214579659 c -5.32209690983,-4.99327170031 -5.32209690983,-4.99327170031 -8.5494554479,-1.12653081044 c -1.613679269,2.09473837182 -3.06294593323,4.35388934842 -3.06294593323,5.1637736608 c 0,1.613679269 14.0298756066,12.9033447963 23.3831260112,18.8770027694 c 10.6502831754,6.77136357407 30.6538167553,14.5109347095 44.683692362,17.4155573937 c 9.682075614,1.9364151228 18.0671184571,2.41747422562 30.9704632533,1.9364151228 c 14.5170240652,-0.809884312364 20.9717411412,-1.9364151228 33.8750859376,-6.1319812222 c 17.0989108956,-5.80315601267 35.8115010604,-16.2890265833 49.2019943151,-27.4203688615 c 18.2254417061,-15.3269083776 36.7797086217,-42.9056004882 44.5131904014,-66.1304032504 c 10.4919599264,-31.4576117119 11.6184907367,-67.591848626 2.91071203994,-94.208422531 c -2.42356358136,-7.74566049121 -2.42356358136,-7.74566049121 -6.454717076,-3.71450699657 s -4.03115349462,4.03724285037 -1.44926666424,15.3269083776 c 1.44926666424,6.29030447123 2.5818868304,14.3587008162 2.5818868304,17.9027058523 c 0,6.61912968076 0,6.61912968076 -22.591509766,6.61912968076 c -25.319541134,0 -22.5793310545,1.9364151228 -24.9968052802,-18.8770027694 c -0.803794956637,-6.93577617884 -0.3227358538,-8.5494554479 1.9364151228,-9.99872211211 c 2.74021007943,-1.44926666424 2.74021007943,-1.613679269 0.158323249034,-4.5183019532 c -1.613679269,-1.613679269 -4.83494845127,-6.93577617884 -7.41683528166,-11.7707246301 c -2.42356358136,-4.841037807 -8.70777869691,-15.3269083776 -13.7132291086,-23.2308921179 s -9.84039886301,-16.7761750419 -10.6441938197,-19.8391209751 c -1.45535601997,-4.99936105603 -13.2260806501,-18.5542669156 -33.0652016251,-37.9062394322 c -3.39177114276,-3.39177114276 -5.96756861743,-6.61304032504 -5.4865095146,-7.10018878357 c 1.2909434152,-1.12653081044 20.0035335799,3.38568178703 30.002255692,7.10018878357 c 8.06230698923,3.06294593323 8.06230698923,3.06294593323 9.84039886301,-0.809884312364 c 0.9682075614,-2.09473837182 1.77200251803,-4.5183019532 1.77200251803,-5.32209690983 c 0,-2.09473837182 -9.51766300926,-5.96756861743 -24.8445713869,-9.84039886301 c -16.4473498324,-4.1955660994 -40.000977804,-5.1637736608 -56.1316811382,-2.41747422562 M 230.242025252,123.797429623 c -11.2896655273,11.7768139858 -27.2620456125,33.7106733328 -29.5151072334,40.8108621163 c -0.6454717076,1.77200251803 -2.10082772757,3.227358538 -3.39177114276,3.227358538 s -8.70777869691,-2.9046226842 -16.2890265833,-6.61912968076 c -13.7132291086,-6.61304032504 -13.7132291086,-6.61304032504 -8.39113219882,-12.2578730887 c 8.87219130165,-9.19492715547 25.6483663435,-21.2883876393 37.7479161832,-27.0976330078 c 9.682075614,-4.67662520223 25.3256304898,-9.99872211211 30.4833147948,-10.3214579659 c 0.809884312364,-0.164412604766 -3.86674088987,5.48042015887 -10.6441938197,12.2578730887 m 42.1018055315,-2.42356358136 c 4.03115349462,12.4222856934 10.8086064245,40.9752747212 12.2578730887,52.5876761022 c 1.13262016616,8.5494554479 1.13262016616,8.5494554479 -15.6496442314,8.06839634498 c -16.6117624371,-0.487148458565 -16.6117624371,-0.487148458565 -16.1246139785,-7.74566049121 c 0.9682075614,-15.6496442314 12.2578730887,-62.909134068 14.9980831681,-62.909134068 c 0.6454717076,0 2.74021007943,4.5183019532 4.5183019532,9.99872211211 m -19.8391209751,2.42356358136 c -3.06903528896,9.682075614 -7.74566049121,30.6477273996 -9.35933976021,41.9373929268 c -1.77200251803,12.4222856934 -2.25306162087,13.3904932548 -5.64483276363,13.3904932548 c -4.99936105603,0 -25.0028946359,-4.841037807 -26.9393097587,-6.61304032504 c -0.803794956637,-0.6454717076 1.2909434152,-6.1319812222 4.68271455796,-12.2639624444 c 3.86674088987,-6.77136357407 11.4479887763,-16.2890265833 20.1557674732,-25.1612178849 c 13.7132291086,-13.5488165038 18.8770027694,-17.0989108956 17.1050002514,-11.2896655273 m 59.3590396762,32.5780531666 c 3.5500943918,3.8728302456 8.22671959407,9.523752365 10.3214579659,12.4222856934 c 2.74021007943,4.03724285037 3.227358538,5.65092211937 1.613679269,6.29639382696 c -3.54400503607,1.28485405946 -25.9711021973,5.80315601267 -26.4521613001,5.32209690983 c -0.164412604766,-0.3227358538 -2.25306162087,-9.51766300926 -4.5183019532,-20.6490052875 c -2.25306162087,-11.1313422782 -4.67662520223,-21.9399487027 -5.15768430507,-24.1930103235 c -0.974296917136,-3.39177114276 0.481059102834,-2.5818868304 8.22063023834,4.83494845127 a 495.065,495.065 0 0,1 15.9723800853,15.9723800853 m -119.686286915,21.4588895998 c 2.74021007943,0.9682075614 -5.65092211937,27.7431047153 -8.87219130165,28.3885764229 s -36.6213853726,-8.70777869691 -38.7161237445,-10.8086064245 c -1.613679269,-1.613679269 6.454717076,-18.7125901647 12.7450215473,-27.0976330078 c 3.86674088987,-5.1637736608 3.86674088987,-5.1637736608 18.3898543109,1.9364151228 c 8.06230698923,3.8728302456 15.3208190218,7.25851203265 16.4534391881,7.58124788641 m 30.3249915458,9.19492715547 c 11.6124013811,3.06294593323 16.7761750419,5.15768430507 16.4534391881,6.61304032504 c -0.3227358538,1.12653081044 -0.974296917136,12.909434152 -1.45535601997,25.9711021973 c -0.9682075614,24.0346870745 -0.9682075614,24.0346870745 -23.2248027621,24.0346870745 c -22.4210078055,0 -22.4210078055,0 -21.4528002441,-10.1692240725 c 0.481059102833,-5.48042015887 1.60758991326,-14.0298756066 2.41747422562,-18.8648240579 c 1.77200251803,-10.9730190292 8.06230698923,-32.2614066686 9.35325040448,-32.1030834195 c 0.487148458565,0 8.5494554479,2.09473837182 17.9027058523,4.5183019532 m 115.009661712,15.4852316267 c 2.41747422563,9.682075614 4.841037807,23.0664795131 5.48042015887,29.3567839844 c 0.974296917136,11.7768139858 0.974296917136,11.7768139858 -20.1557674732,11.7768139858 c -20.9717411412,0 -20.9717411412,0 -21.9399487027,-10.9730190292 c -0.487148458565,-5.96756861743 -1.2909434152,-17.9027058523 -1.9364151228,-26.6104845492 c -0.974296917136,-15.6496442314 -0.974296917136,-15.6496442314 2.9046226842,-15.8079674804 c 1.9364151228,0 8.38504284308,-1.45535601997 14.1881988557,-2.9046226842 c 16.7822643975,-4.841037807 16.295115939,-5.1637736608 21.4588895998,15.1624957728 m -49.6830534181,-4.841037807 c 0.487148458566,2.5818868304 1.2909434152,14.0359649624 1.9364151228,25.3256304898 c 0.9682075614,20.6429159317 0.9682075614,20.6429159317 -21.2944769951,20.6429159317 c -22.2565952007,0 -22.2565952007,0 -21.2883876393,-18.2254417061 c 0.6454717076,-9.99872211211 1.613679269,-21.6172128489 2.09473837182,-25.6483663435 c 0.9682075614,-7.25851203265 0.9682075614,-7.25851203265 19.1936492675,-7.09409942784 c 18.2315310618,0.158323249034 18.2315310618,0.158323249034 19.364151228,4.99936105603 m -50.6512609794,75.8124788641 c 0.6454717076,9.682075614 1.2909434152,21.2944769951 1.613679269,25.6483663435 c 0.6454717076,8.06839634498 0.6454717076,8.06839634498 -13.067757401,10.9730190292 c -26.6104845492,5.64483276363 -23.0664795131,6.93577617884 -27.2559562568,-9.84039886301 c -3.39177114276,-14.1942882115 -6.7774529298,-41.6207464287 -5.4865095146,-44.2026332592 c 0.487148458565,-0.6454717076 10.3214579659,-0.962118205664 21.9399487027,-0.803794956637 c 21.2883876393,0.487148458565 21.2883876393,0.487148458565 22.2565952007,18.2254417061 m 52.2649402484,-0.487148458566 c -0.6454717076,10.0048114678 -1.613679269,21.4588895998 -2.25306162087,25.4900430944 c -0.974296917136,7.10018878357 -0.974296917136,7.10018878357 -18.7186795203,6.94186553456 c -17.7443826032,0 -17.7443826032,0 -18.7125901647,-6.29639382696 c -0.6454717076,-3.38568178703 -1.60758991326,-14.8397599191 -2.09473837182,-25.3256304898 c -1.12653081044,-18.8709134137 -1.12653081044,-18.8709134137 20.9717411412,-18.8709134137 s 22.0982719517,0 20.8073285365,18.0671184571 m 53.3914710589,-4.83494845127 c -1.12653081044,12.909434152 -5.48042015887,34.8432934988 -8.70777869691,43.3927489467 c -1.613679269,4.03115349462 -1.613679269,4.03115349462 -19.1997386233,-0.3227358538 c -16.2890265833,-4.03115349462 -17.4155573937,-4.5183019532 -17.0989108956,-8.06230698923 c 0.164412604766,-2.10082772757 0.809884312364,-12.909434152 1.2909434152,-24.0346870745 c 0.6454717076,-11.1313422782 1.2909434152,-21.1300643903 1.77809187377,-22.2626845564 c 0.3227358538,-1.45535601997 6.12589186647,-1.9364151228 21.7755360979,-1.9364151228 c 21.2944769951,0 21.2944769951,0 20.161856829,13.2260806501 m 56.4605063477,-1.77200251803 c -0.809884312364,9.51766300926 -3.8728302456,25.8066895925 -4.841037807,25.6483663435 c 0,0 -9.51766300926,-1.77809187377 -21.1300643903,-3.8728302456 c -20.9717411412,-3.71450699657 -20.9717411412,-3.71450699657 -20.4906820384,-11.6124013811 c 0.164412604766,-4.35997870416 0.809884312364,-10.9730190292 1.2909434152,-14.8397599191 c 0.809884312364,-6.7774529298 0.809884312364,-6.7774529298 23.5536279717,-6.7774529298 s 22.7437436593,0 21.6172128489,11.4479887763 m -27.7491940711,31.9386708148 c 9.682075614,1.77200251803 17.9027058523,3.5500943918 18.2315310618,4.03115349462 c 0.487148458565,0.487148458565 0,3.227358538 -1.2909434152,6.1319812222 c -2.5818868304,6.454717076 -12.4222856934,23.3831260112 -14.0359649624,24.5157461773 c -0.6454717076,0.3227358538 -4.841037807,-0.9682075614 -9.19492715547,-3.227358538 c -4.5183019532,-2.09473837182 -11.4479887763,-5.32209690983 -15.4852316267,-6.93577617884 c -7.41683528166,-3.227358538 -7.41683528166,-3.227358538 -4.1955660994,-13.384403899 c 1.613679269,-5.65092211937 3.39177114276,-11.1313422782 3.71450699657,-12.2639624444 a 3.22736,3.22736 0 0,1 2.74021007943,-1.9364151228 c 1.12653081044,0 9.99872211211,1.45535601997 19.5163851213,3.06903528896 M 284.43729127,317.518103527 c 1.613679269,2.5818868304 -12.909434152,64.8455491908 -15.9723800853,67.750171875 c -0.487148458566,0.487148458566 -1.12653081044,0.487148458566 -1.613679269,0.158323249034 c -1.2909434152,-1.44926666424 -10.3214579659,-38.2289752859 -12.0934604839,-49.3603175642 a 752.035,752.035 0 0,0 -2.5818868304,-15.4852316267 c -0.974296917136,-4.35388934842 -0.974296917136,-4.35388934842 15.3208190218,-4.35388934842 c 8.87219130165,0 16.4534391881,0.487148458565 16.9405876466,1.2909434152 m -41.1335979702,12.7450215473 c 1.12653081044,6.93577617884 4.1955660994,21.6172128489 6.77136357407,32.4197299176 c 2.74021007943,10.9730190292 4.5183019532,20.3262694336 4.03724285037,20.8073285365 c -2.10082772757,2.2591509766 -19.6807977261,-14.0298756066 -30.002255692,-27.7431047153 c -8.5494554479,-11.2896655273 -17.0989108956,-27.9075173201 -15.1624957728,-29.8378430872 c 1.44926666424,-1.45535601997 24.8384820312,-7.74566049121 29.8378430872,-7.90398374023 c 2.09473837182,-0.164412604766 3.06294593323,2.57579747467 4.5183019532,12.2578730887 m 68.8767026855,-9.19492715547 c 6.94186553456,1.77200251803 13.3904932548,4.03115349462 14.1942882115,4.841037807 c 2.2591509766,2.25306162087 -8.70777869691,22.9020669084 -18.8770027694,35.318263246 c -7.89789438449,9.84648821875 -24.9968052802,25.3317198455 -26.2877486954,23.8763638255 c -0.3227358538,-0.3227358538 1.44926666424,-8.87219130165 4.1955660994,-19.0292366627 c 2.5818868304,-10.0048114678 5.96756861743,-24.1990996792 7.25851203265,-31.2992884628 c 3.06294593323,-15.6435548757 3.5500943918,-16.9284089351 5.32209690983,-16.9284089351 c 0.803794956637,0 7.09409942784,1.4431773085 14.1942882115,3.22126918227 m 49.5186408132,18.2254417061 c 5.96756861743,3.39177114276 5.96756861743,3.39177114276 -2.41747422562,12.0995498396 c -4.67662520223,4.67662520223 -11.7768139858,11.1313422782 -15.8079674804,14.0359649624 c -9.19492715547,6.77136357407 -32.0969940638,18.2254417061 -39.0327702426,19.6747083704 c -5.32818626556,0.974296917136 -5.32818626556,0.974296917136 2.89853332847,-7.73957113549 c 9.682075614,-10.4858705706 19.364151228,-24.3574229283 26.2938380511,-38.0706520368 c 4.99936105603,-10.1631347169 4.99936105603,-10.1631347169 13.5488165038,-6.77136357407 c 4.5183019532,1.77200251803 11.1313422782,4.83494845127 14.5170240652,6.77136357407 M 354.769349974,102.990101086 c -10.3214579659,5.32209690983 -18.2254417061,15.9662907295 -21.1300643903,28.2241638182 c -2.9046226842,13.3904932548 0.487148458565,22.2626845564 19.8391209751,51.296732687 c 9.19492715547,13.7132291086 17.9027058523,25.0028946359 19.364151228,25.3256304898 c 2.09473837182,0.487148458565 6.9296868231,-5.64483276363 17.9027058523,-22.5854204103 c 8.38504284308,-12.7389321915 16.4534391881,-25.6422769878 18.0610291013,-28.7113122768 c 2.10082772757,-4.03115349462 3.06903528896,-9.19492715547 3.06903528896,-17.7443826032 c 0.158323249034,-9.35325040448 -0.6454717076,-13.5488165038 -3.39177114276,-18.7125901647 c -4.03115349462,-7.73957113549 -13.2260806501,-16.2890265833 -20.8073285365,-19.3519725165 c -3.06294593323,-1.2909434152 -9.682075614,-2.2591509766 -14.9980831681,-2.2591509766 c -7.25851203265,0 -11.4540781321,1.12653081044 -17.9027058523,4.5183019532 m 27.2620456125,20.320180078 c 5.1637736608,2.74021007943 8.22671959407,8.70777869691 8.22671959407,16.4534391881 c 0,7.42292463739 -2.25306162087,11.295754883 -8.06230698923,14.3587008162 c -14.8397599191,7.73957113549 -30.9704632533,-5.32209690983 -25.8127789483,-20.9717411412 c 3.5500943918,-10.4858705706 15.3269083776,-15.1624957728 25.6483663435,-9.84039886301 M 126.680352318,273.492061584 c -15.6496442314,5.96756861743 -25.0028946359,18.5542669156 -26.2938380511,35.3304419574 c -0.6454717076,7.09409942784 -0.164412604766,12.7389321915 1.613679269,17.5799699985 c 2.5818868304,7.58124788641 25.9711021973,45.6518999234 33.7106733328,54.8468270788 c 3.8728302456,4.51221259747 4.5183019532,4.83494845127 6.7774529298,2.74021007943 c 5.15768430507,-5.1637736608 32.4197299176,-49.6830534181 35.1599399969,-57.2643013044 c 3.5500943918,-9.99872211211 3.5500943918,-15.6496442314 0.3227358538,-26.4521613001 c -2.89853332847,-9.84039886301 -11.2896655273,-19.8452103309 -20.6429159317,-24.6801587821 c -8.22671959407,-4.1955660994 -22.4210078055,-5.1637736608 -30.6477273996,-2.10082772757 m 24.6801587821,25.9711021973 c 6.12589186647,4.99936105603 7.73957113549,12.5806089424 4.51221259747,20.4845926826 c -2.5818868304,5.96756861743 -9.51766300926,10.8086064245 -15.6496442314,10.8086064245 c -4.67053584651,0 -12.2517837329,-4.18947674367 -15.1624957728,-8.38504284308 c -1.44926666424,-1.9364151228 -2.57579747467,-6.454717076 -2.57579747467,-9.84039886301 c 0,-4.99936105603 1.12653081044,-7.42292463739 5.48042015887,-11.7768139858 s 6.7774529298,-5.48042015887 11.9351372348,-5.48042015887 c 4.68271455796,0 7.91007309596,1.12653081044 11.4601674877,4.18947674367" clip-rule="evenodd"/>
</svg>
