<svg xmlns="http://www.w3.org/2000/svg" width="488" height="512" fill="currentColor" viewBox="0 0 488 512">
    <path fill-rule="evenodd" d="M221.46 1.82c-28.2 2.48-68.44 14.89-91.14 27.83C97.16 48.8 71.63 71.5 48.58 102.17c-20.92 27.84-36.7 64.01-44.5 101.6C.53 221.15 0 229.3 0 258.73c.18 28.73.7 37.6 4.08 52.31 6.2 28.9 11.17 42.73 24.47 68.44a271 271 0 0 0 46.8 63.65c17.03 16.85 31.39 27.66 52.84 39.72 38.48 21.28 79.97 30.85 126.25 28.9 51.42-2.13 93.44-17.37 134.75-48.76 11.35-8.69 17.02-13.83 31.38-29.08 21.28-22.51 40.25-53.37 50-81.2 2.31-6.39 4.8-13.12 5.5-15.07 3.37-7.63 7.1-26.6 9.93-49.12 3.01-24.47 2.66-47.34-1.24-72.7-2.13-14.89-8.69-39.36-14.72-55.14-9.75-26.06-27.83-55.5-47.52-77.84-10.63-12.05-33.33-31.73-47.51-41.49C353.9 27 323.05 13.52 296.99 7.31c-13.47-3.19-49.47-7.8-56.56-7.27-1.6.18-10.1.89-18.97 1.78m51.6 33.68c17.37 2.49 29.43 5.5 40.77 9.93 45.22 17.56 78.73 44.33 106.74 85.64 13.48 19.86 26.42 51.07 32.63 78.9 1.77 7.27 2.48 22.88 2.48 48.76-.18 30.15-.7 40.79-3.19 50.54-12.23 48.4-37.77 90.78-73.94 121.63-14.54 12.41-25.18 19.5-42.37 28.2-16.67 8.33-35.64 14.7-55.15 18.79-11.88 2.3-21.1 2.83-45.92 2.12-30.85-.88-31.56-1.06-52.84-8.15-11.88-4.08-25.53-9.22-30.32-11.7-17.73-9.05-42.55-27.13-57.09-41.85-29.61-29.43-48.05-62.23-59.58-106.2-3.9-14.2-4.78-22.35-5.5-48.06-.7-26.95-.35-33.5 2.84-49.47 7.63-37.58 21.28-68.08 43.8-98.22 11.35-15.08 31.38-34.22 47.7-45.75 20.92-14.72 51.77-28.55 72.7-32.45 35.28-6.73 46.1-7.27 76.23-2.66m-120.22 85.11c-1.6.89-4.26 4.08-5.67 6.92-2.31 4.43-2.66 22.87-2.66 133.33 0 70.57.53 129.97 1.06 132.1s3.01 5.14 5.14 6.56c3.55 2.3 16.5 2.83 92.91 2.83 60.29.18 89.9-.35 92.38-1.77 1.95-1.06 4.79-4.25 6.2-7.1 2.3-4.42 2.66-19.14 2.66-102.3 0-53.37-.7-98.23-1.6-99.65-1.23-1.95-6.73-2.3-29.6-1.41-27.84.88-27.84.88-32.98-4.08-4.97-4.97-4.97-4.97-4.97-36.17s0-31.2-59.75-31.2c-37.41 0-61.17.7-63.12 1.94m112.41 95.57a6.25 6.25 0 0 1 1.07 10.28c-2.84 2.3-75.9 2.66-81.92.36-4.79-1.77-5.85-6.74-2.3-10.28 1.6-1.6 13.12-2.13 40.95-2.13 23.23 0 40.07.7 42.2 1.77m45.57 47.52c.53 5.67.53 5.67-64.72 5.32-61.35-.53-65.25-.71-65.78-3.73-1.6-8.5-3.01-8.33 65.6-7.97 64.37.53 64.37.53 64.9 6.38m-1.77 35.64c1.42.88 2.13 3.72 1.77 6.56-.53 5.14-.53 5.14-65.25 5.14s-64.72 0-65.25-4.08c-1.42-9.22-1.06-9.22 65.07-9.22 33.7 0 62.42.71 63.66 1.6m-42.2 43.62a7.4 7.4 0 0 1 .88 6.2c-1.06 3.55-2.12 3.55-43.97 3.2-42.9-.54-42.9-.54-43.44-4.8-.35-2.3.36-4.96 1.78-5.67 1.24-.88 20.39-1.6 42.37-1.6 32.98 0 40.6.54 42.38 2.67m19.32-223.06c-.17.71 0 14.19.18 29.79.18 18.97 1.07 28.72 2.48 29.61 1.07.71 13.66 1.42 28.2 1.42 18.26 0 26.06-.53 26.06-1.95 0-1.24-8.33-11-18.44-21.81a3542 3542 0 0 1-25.18-27.3c-7.09-7.98-12.94-12.24-13.3-9.76" clip-rule="evenodd"/>
</svg>
