<svg xmlns="http://www.w3.org/2000/svg" width="472" height="512" fill="currentColor" viewBox="0 0 472 512">
    <path fill-rule="evenodd" d="M199.86 1.7c-12.72 1.92-44.45 11.85-58.04 18.48A235 235 0 0 0 75.4 66.7c-23.7 23.7-36.08 41.31-51.07 72.69-8.54 17.95-14.64 36.42-19.52 59.08-5.23 23.88-6.45 70.6-2.44 98.48 4.88 35.73 20.4 76.35 40.96 108.07 16.38 25.1 39.91 49.67 62.22 65.01 17.96 12.2 43.58 26.5 47.76 26.5 1.05 0 4.36 1.04 7.32 2.44 8.2 3.48 29.98 9.4 43.75 11.67 8.02 1.4 21.44 1.75 38.35.87 44.27-1.74 73.55-10.28 110.85-32.24 15.51-9.06 41.31-30.85 53.34-44.97 4.7-5.58 9.41-11.15 10.63-12.37 2.1-2.1 6.45-8.72 18.3-27.37 6.8-10.98 16.73-33.12 23.36-52.29 11.5-33.3 15.68-81.4 10.98-124.28-2.1-19.34-4.88-31.37-12.38-53.5-5.57-16.21-24.22-54.39-29.28-59.79a33 33 0 0 1-4.53-5.75c-8.54-14.64-41.14-46.89-60.66-59.96a305 305 0 0 0-29.28-16.9c-17.26-8.55-46.54-17.79-63.62-20.4-14.3-2.27-55.95-2.27-70.59 0m83.84 33.64c29.98 7.84 65.01 26.5 86.8 46.36 41.13 37.65 66.4 86.8 73.03 142.06 2.79 23.35 2.44 49.15-1.22 75.47-3.49 24.75-17.78 61.53-33.81 86.45-9.07 14.3-25.45 33.3-38.87 44.97-24.4 21.61-46.71 34.51-75.13 43.4-24.05 7.5-37.64 9.06-66.4 8.02-19.7-.7-28.59-1.92-40.1-5.23-18.3-5.4-18.82-5.58-34.85-12.9-15.86-7.32-38.7-22.3-51.6-33.99-9.58-8.89-31.72-35.55-38.69-46.7-13.25-21.45-27.54-57-31.72-79.32-1.22-5.75-2.44-23.35-2.96-39.21-1.05-34.51 1.91-59.96 9.93-84.19 15.51-46.36 42.18-84.01 80.18-112.6 9.93-7.5 45.49-25.8 54.9-28.23 2.8-.7 9.94-2.62 15.69-4.19 18.3-5.23 25.62-5.92 51.42-5.4 20.39.52 28.76 1.57 43.4 5.23M123.34 126.5c0 4.53 0 24.23.18 43.57.17 35.39.17 35.39-25.63 35.56-21.43.17-24.22.52-16.2 1.74 5.22.87 16.73 1.4 25.27 1.22 15.69-.35 15.69-.35 16.2 20.05.36 12.55 1.23 20.39 2.27 20.39 1.05 0 1.75-6.1 1.57-16.21-.17-8.71-.17-17.95-.17-20.4.17-4.35.17-4.35 27.19-4 15.69.17 27.36-.35 27.89-1.22.7-1.05-9.59-1.74-26.84-1.74-28.07 0-28.07 0-28.07-42.53 0-26.67-.7-43.06-1.74-43.75-1.05-.7-1.74 2.26-1.92 7.32m221.54.17c0 7.32 0 7.32-24.4 7.32-15.17 0-24.4.7-24.4 1.75 0 1.04 9.23 1.74 24.4 1.74 24.4 0 24.4 0 24.4 33.99s0 33.99-24.58 33.99c-15.86 0-24.05.7-23.36 1.74s10.81 1.74 24.58 1.74c23.36 0 23.36 0 23.36 12.2 0 7.85.7 12.2 1.91 12.2 1.4 0 1.75-3.48 1.22-10.98-.52-5.92-.52-11.68-.17-12.72.35-1.22 4.18-1.57 10.1-1.05 5.24.35 15.52 0 23.02-.7 13.6-1.56 13.6-1.56-9.94-2.43s-23.53-.88-23.88-42.36c0-22.83-.7-42-1.22-42.53-.52-.7-1.04 2.1-1.04 6.1m-168.55 7.85c-.52.87-.52 1.91 0 2.44 1.22 1.04 92.2.87 93.25-.35.52-.53.52-1.22 0-1.75-1.57-1.56-92.38-1.91-93.25-.34m-44.1 1.22c0 1.04 8.2 1.74 20.92 1.74s20.91-.7 20.91-1.74c0-1.05-8.19-1.75-20.91-1.75s-20.92.7-20.92 1.75m141.18 0c0 .87 2.8 1.74 6.1 1.74 3.32 0 6.1-.87 6.1-1.74 0-1.05-2.78-1.75-6.1-1.75-3.3 0-6.1.7-6.1 1.75m15.17-.7c-.7.7-.7 1.74-.18 2.61 1.05 1.75 5.93 0 5.93-2.09 0-1.74-4.18-2.09-5.75-.52m68.15.17a9 9 0 0 0 4.36 0c1.04-.52.17-.87-2.27-.87s-3.31.35-2.1.87m-67.98 38.17c-.7 41.31.87 94.65 2.44 92.03.7-1.04 1.22-14.29.87-29.28-.17-15.51.35-27.36 1.22-27.71.88-.35 1.05-1.57.35-2.62-.7-1.22-1.74-16.03-2.09-32.94-.52-17.08-1.22-31.2-1.57-31.55-.35-.52-.87 13.95-1.22 32.07m-54.2-29.45c-.7.52-1.22 3.3-1.22 6.1 0 3.14-1.57 6.62-4.19 8.89-2.79 2.61-5.05 7.84-6.97 16.03-2.79 12.03-6.8 25.62-16.04 54.9-2.61 8.2-6.1 19.88-7.84 26.15a285 285 0 0 1-6.45 20.4c-3.3 9.06-3.3 9.06-6.97 1.22-3.66-7.33-4.18-7.67-11.15-7.67-8.2-.18-7.15 1.22-16.91-21.1-4.19-9.23-9.76-12.72-15.86-9.75-3.31 1.74-9.59 11.32-17.78 26.84-1.92 3.83-2.79 4-28.76 4-15.17 0-28.41.88-30.33 1.75-3.83 2.1-4.53 10.28-1.22 13.6 1.4 1.39 11.16 2.09 32.42 2.09 30.5 0 30.5 0 29.28 5.4-.52 2.96-1.04 13.6-1.04 23.53 0 18.13 0 18.13-12.03 18.13-6.8 0-12.72.7-13.25 1.74-.7 1.05 3.84 1.74 12.03 1.74 13.25 0 13.25 0 13.25 18.48 0 11.68.7 17.95 1.74 17.25 1.05-.7 1.74-17.08 1.74-43.57 0-33.12.53-42.53 2.27-43.23 1.22-.52 4.88-5.57 8.02-11.5s6.27-10.63 6.97-10.63c.87 0 3.14 4.18 5.4 9.06 2.1 5.06 5.06 10.28 6.63 11.33 1.56 1.22 5.22 2.27 8.36 2.27 2.96 0 6.45 1.04 7.5 2.26 1.04 1.4 3.13 5.75 4.53 9.94 3.48 9.93 7.32 13.94 13.07 13.94 5.58 0 9.76-4.18 11.33-11.33 1.05-4.7 9.94-32.24 12.55-39.22.52-1.39 1.22-3.48 1.4-4.35 2.09-8.9 5.22-19.35 8.53-28.76a279 279 0 0 0 5.76-17.43c1.57-5.93 1.74-5.58 2.96 6.1.7 6.62 2.79 23.88 4.88 38.34 1.92 14.3 4.53 35.9 5.93 47.94 1.4 12.02 2.79 23.7 3.48 25.97.53 2.44 1.57 10.45 2.44 17.95.87 7.32 2.44 15.16 3.49 17.08 2.09 4.01 8.19 4.53 12.72.87 1.92-1.4 4.7-7.84 6.63-15.16 3.13-12.03 9.58-31.72 17.6-54.2 3.49-9.94 3.49-9.94 16.04-9.94 11.32 0 13.07-.53 16.38-4.36 2.1-2.27 5.58-8.72 7.84-14.12 4.19-9.93 4.19-9.93 10.98 3.83s6.8 13.77 35.56 14.3c15.86.17 30.5 0 32.77-.53 2.96-.7 3.83-2.09 3.83-6.62 0-3.14-.87-6.62-2.09-7.84-1.4-1.4-10.1-2.1-27.54-2.1-25.44 0-25.44 0-33.11-16.03-8.54-17.78-13.6-22.31-19.87-18.13-1.92 1.22-7.15 9.24-11.68 17.78-8.2 15.51-8.2 15.51-21.27 16.04-9.58.35-13.77 1.22-15.68 3.48-2.62 2.97-13.77 34.34-16.04 45.15-1.92 9.23-4.36 8.36-4.36-1.57 0-5.06-1.57-20.22-3.48-33.64-1.92-13.42-5.06-36.6-6.8-51.42-6.45-52.64-9.06-68.85-12.03-73.2-1.57-2.45-2.61-6.98-2.26-10.11.52-5.58 0-6.63-2.1-4.36m-56.65 49.32c0 2.44.35 3.32.87 2.1a9 9 0 0 0 0-4.36c-.52-1.05-.87-.18-.87 2.26m8.02 13.43a9 9 0 0 0 4.35 0c1.05-.53.18-.88-2.26-.88s-3.31.35-2.1.88m75.3.52c0 .87 4.18 1.74 9.4 1.74s10.11-.87 10.64-1.74c.7-1.05-2.97-1.74-9.41-1.74-5.93 0-10.64.7-10.64 1.74m-83.15 20.04c0 5.75.35 7.85.7 4.7.35-3.13.35-7.83 0-10.45s-.7 0-.7 5.75m166.98 87.5c-.17 13.6-.87 19.7-2.26 20.4-1.75.87-1.75 1.21 0 2.09 1.56.7 2.09 9.23 2.09 33.29 0 17.95.35 32.07.87 31.72.35-.52.87-14.64 1.04-31.37s.7-31.03 1.22-31.9c1.22-2.1.35-26.5-1.39-35.9-1.05-6.1-1.4-3.67-1.57 11.67M234.72 325.2c0 .87-.35 2.1-.52 3.14-.35.87-.53 2.79-.7 3.83-.17 1.74-9.94 2.27-42.88 2.27-27.36 0-42.7.7-42.7 1.74 0 1.05 6.45 1.92 15.34 2.1 8.36 0 16.38.17 17.78 0 1.39-.18 14.64-.36 29.28-.36 26.5-.35 26.5-.35 26.5-7.14 0-3.66-.36-6.8-.88-6.8s-1.05.52-1.22 1.22m54.56 37.12c-.18 41.14 4 37.83-46.72 36.78-5.75-.17-5.75-.17-5.75-24.05 0-13.07-.52-23.18-1.22-22.49-.87.7-1.74 11.68-2.26 24.23-.88 23-.88 23-26.15 23s-25.27 0-25.62-9.58a356 356 0 0 0-1.74-19.17c-1.22-8.89-1.4-8.2-2.27 9.59-1.05 21.6 1.05 19.17-17.26 19.87-4.18 0-7.32.7-6.8 1.22.7.52 18.13 1.04 39.05.87 25.62 0 38.87.7 40.44 1.92 1.57 1.39 2.79 1.39 3.48.17.87-1.22 10.46-1.74 26.5-1.57 25.27.18 25.27.18 26.32 8.02 1.04 7.84 1.04 7.84 1.22.35.34-5.06 1.22-7.85 3.13-8.54 2.1-.7 2.27-1.4.53-2.44-1.57-.88-2.1-8.72-1.92-30.33.17-16.04.7-29.8 1.4-30.68.52-.87 10.28-1.57 21.6-1.57 29.11 0 28.94-3.3-.34-3.83-22.84-.52-23.01-.52-24.23-4.88-.7-2.44-1.22 12.55-1.4 33.11m64.31-26.14c1.4.87 6.28 1.57 11.16 1.4 5.57 0 7.67-.53 6.1-1.57-1.4-.88-6.28-1.57-11.16-1.57-6.1 0-7.84.52-6.1 1.74m-175.7 16.56c0 2.79.36 3.83.88 2.09.35-1.57.35-4 0-5.23-.52-1.04-.87.18-.87 3.14m140.5 49.15a9 9 0 0 0 4.35 0c1.05-.52.18-.87-2.26-.87-2.45 0-3.32.35-2.1.87m-82.97 10.98c0 2.44.35 3.31.87 2.1a9 9 0 0 0 0-4.36c-.52-1.05-.87-.18-.87 2.26" clip-rule="evenodd"/>
</svg>
