<svg xmlns="http://www.w3.org/2000/svg" width="479" height="512" fill="currentColor" viewBox="0 0 479 512">
    <path fill-rule="evenodd" d="M 199.303004376,31.898877553 c -24.8480878641,4.21498503242 -64.8595181089,22.5329388526 -87.6133681267,40.2235049635 c -25.0601625827,19.3783274132 -51.6048481957,53.0805347794 -64.0288921277,80.8799958108 c -2.94253672075,6.74220876255 -7.15752175317,16.2148795272 -9.04852132746,20.8540139969 c -2.11191073951,4.63029802304 -5.47859689749,16.4269542458 -7.58167119039,26.3237744478 C 28.0791784367,215.131434434 27.6550289995,225.867717064 28.5033278739,265.472670765 c 0.839462427841,49.0687880189 1.26361186507,51.8080864677 11.9998944948,78.1318609154 c 4.63029802304,11.7966562228 5.26652217887,12.8481933693 14.1118052343,29.0719093431 C 86.4173989483,430.16636266 143.492007595,471.856717761 203.093839972,480.498762544 c 24.8569243107,3.57876087658 72.2467874739,1.26361186507 92.2525025964,-4.41822330442 c 21.4814017061,-6.11482105332 50.9686240398,-20.6507757249 67.3955782857,-33.2868943755 c 24.8480878641,-18.7421032574 50.129161612,-49.4841010095 64.0288921277,-77.7165479248 c 9.47267076469,-19.1662526946 17.9026408295,-44.6505647145 20.4298645597,-62.756443816 c 1.26361186507,-8.21789534623 2.73929844874,-26.1205361758 3.35784971136,-40.0202666915 c 0.848298874449,-18.1147155481 0.220911165221,-31.5902966266 -2.30631256491,-47.3898631633 c -4.00291031381,-24.2118637082 -6.95428348116,-35.5932069404 -13.8997305157,-51.6048481957 c -21.9143875899,-51.3839370305 -57.922907521,-90.9800542847 -102.573472236,-113.512993137 C 301.885313058,34.8502507204 276.613075757,29.5837285415 238.059659203,29.7958032601 C 222.684242103,30.0078779787 205.205750711,30.8473404065 199.29416793,31.898877553 M 275.552702164,63.277099461 c 18.750939704,4.85120918826 42.5474904216,15.3754170994 59.8227435419,26.9599986036 c 16.4269542458,10.7451190764 39.7993555263,34.7537445126 50.7565493212,52.0201611863 c 24.6360131455,38.968729545 34.5328333474,71.6105633181 34.3295950754,113.733904302 c 0,21.4814017061 -2.32398545813,42.5474904216 -5.05444746026,46.3383260168 c -0.848298874449,1.05153714645 -2.11191073951,6.09714816011 -2.95137316736,10.7362826298 c -1.67892485568,11.160432067 -13.8997305157,37.70511768 -26.3326108944,56.6592956559 c -13.2635063599,20.4298645597 -40.0114302449,46.3294895702 -60.4412948045,58.3382205116 c -9.26943249268,5.47859689749 -25.9084614571,13.0602680879 -36.8568188055,16.6390289645 c -15.7995665366,5.47859689749 -24.4327748735,6.94544703455 -42.1233409844,7.793745909 c -49.7050121748,2.10307429291 -92.0404278778,-15.1633423808 -131.212395695,-53.7079224886 c -12.2119692134,-11.7966562228 -19.7936404038,-21.6934764247 -31.1661471894,-39.3840425356 c -4.63913446965,-7.15752175317 -15.1633423808,-31.3870583546 -18.5388649854,-42.335415703 c -9.47267076469,-31.174983636 -13.6876557971,-62.9773549813 -10.3209696391,-78.9801597899 c 7.793745909,-40.2235049635 19.5904021318,-71.1864138809 34.9658192312,-93.3040397428 c 3.7908355952,-5.47859689749 6.94544703455,-10.3209696391 6.94544703455,-10.7362826298 c 0,-0.636224155837 6.74220876255,-8.21789534623 15.1633423808,-17.0543419551 c 33.9142820848,-35.8141181057 81.50738352,-57.5075945304 127.218321828,-57.922907521 c 12.6361186507,0 24.8480878641,1.47568658368 35.7964452124,4.20614858581 M 205.83313842,116.145559522 c -3.36668615797,2.73929844874 -8.00582062762,7.15752175317 -10.1088949205,9.6847454833 c -2.10307429291,2.73929844874 -5.68183516949,4.84237274165 -8.00582062762,4.84237274165 c -2.31514901152,0 -6.73337231594,3.7996720418 -10.3121331925,8.84528305546 c -5.06328390687,6.95428348116 -6.32689577194,10.7451190764 -6.32689577194,19.5904021318 c 0,7.58167119039 -0.839462427841,11.5845815042 -2.94253672075,12.2119692134 c -9.26943249268,3.58759732319 -13.2723428065,34.9658192312 -5.90274633471,47.6019378819 c 1.8998360209,3.57876087658 4.21498503242,6.53013404394 5.26652217887,6.53013404394 c 0.848298874449,0 1.47568658368,6.31805932533 1.47568658368,14.1118052343 c 0.212074718612,12.424043932 0.839462427841,15.1633423808 5.90274633471,20.8540139969 c 3.15461143936,3.57876087658 7.99698418101,7.36959647178 10.9483573484,8.20905889962 s 8.84528305546,5.8939098881 13.2635063599,10.7451190764 c 8.21789534623,9.26059604607 8.21789534623,9.26059604607 23.381237727,9.26059604607 c 8.42113361823,0 16.2148795272,-1.05153714645 17.4784913923,-2.31514901152 c 1.68776130229,-1.67892485568 2.73929844874,-1.67892485568 3.58759732319,0 c 0.839462427841,1.26361186507 7.36959647178,2.31514901152 14.3150435063,2.31514901152 c 9.26943249268,0 14.7480293902,-1.26361186507 19.7936404038,-4.20614858581 c 3.7996720418,-2.52722373013 7.590507637,-6.31805932533 8.21789534623,-8.42997006484 c 0.636224155837,-2.31514901152 5.6906716161,-6.31805932533 11.1692685136,-9.05735777407 s 11.160432067,-7.15752175317 12.424043932,-10.1088949205 c 1.47568658368,-2.73929844874 2.73929844874,-9.6847454833 2.73929844874,-15.1633423808 c 0,-6.53013404394 1.46685013707,-12.424043932 3.7908355952,-15.79073009 c 5.68183516949,-8.21789534623 8.83644660885,-18.750939704 8.83644660885,-29.911371771 c 0,-7.15752175317 -1.67892485568,-12.2119692134 -6.30922287872,-19.5815656852 c -4.41822330442,-6.95428348116 -6.31805932533,-12.6361186507 -6.31805932533,-18.5388649854 c 0,-4.63029802304 -1.06037359306,-10.5330443577 -2.32398545813,-13.0602680879 c -3.35784971136,-6.53013404394 -12.424043932,-14.1118052343 -16.8422672365,-14.1118052343 c -2.11191073951,0 -5.6906716161,-2.94253672075 -8.21789534623,-6.31805932533 c -6.94544703455,-9.89682020191 -15.3754170994,-13.2635063599 -29.2751476151,-11.7878197762 c -15.3754170994,1.46685013707 -13.8997305157,1.46685013707 -29.6904606057,0 c -12.22080566,-1.06037359306 -14.3238799529,-0.636224155837 -20.014551569,3.57876087658 m 60.0259818139,27.1632368756 c 0,2.11191073951 -1.47568658368,4.85120918826 -3.15461143936,6.32689577194 c -1.68776130229,1.46685013707 -3.16344788597,6.09714816011 -3.16344788597,10.3121331925 c 0,5.26652217887 -1.26361186507,8.42997006484 -4.21498503242,10.3209696391 c -4.00291031381,2.52722373013 -4.20614858581,2.11191073951 -4.20614858581,-13.8997305157 c 0,-11.7878197762 1.05153714645,-17.6905661109 3.57876087658,-21.2693269875 c 3.36668615797,-5.05444746026 3.36668615797,-5.05444746026 7.36959647178,-0.212074718612 c 2.10307429291,2.52722373013 3.7908355952,6.31805932533 3.7908355952,8.42113361823 m -35.8052816591,-6.52129759733 c 1.06037359306,2.31514901152 2.11191073951,12.424043932 2.11191073951,22.5329388526 c 0,16.6390289645 -0.212074718612,18.1147155481 -3.16344788597,14.3150435063 c -1.67892485568,-2.10307429291 -3.16344788597,-7.99698418101 -3.16344788597,-13.0514316413 c 0,-8.42113361823 -0.203238272004,-8.84528305546 -6.31805932533,-8.84528305546 c -5.8939098881,0 -6.31805932533,-0.424149437225 -5.05444746026,-5.8939098881 c 2.32398545813,-9.27826893929 4.85120918826,-13.0602680879 9.27826893929,-13.0602680879 c 2.30631256491,0 5.04561101365,1.89099957429 6.30922287872,4.00291031381 m -23.1691630084,18.3179538201 c 0,1.47568658368 -0.839462427841,3.37552260458 -2.10307429291,4.00291031381 c -1.06037359306,0.636224155837 -2.10307429291,4.63029802304 -2.10307429291,8.42113361823 c 0,5.06328390687 1.89099957429,9.48150721129 6.53013404394,14.7480293902 c 5.05444746026,5.68183516949 8.21789534623,7.36959647178 13.6876557971,7.36959647178 c 6.10598460671,0 7.15752175317,0.636224155837 7.15752175317,5.05444746026 c 0,5.05444746026 -0.424149437225,5.05444746026 -6.74220876255,2.95137316736 c -3.7908355952,-1.26361186507 -10.1088949205,-4.63913446965 -13.8997305157,-7.36959647178 c -3.9940738672,-2.73929844874 -8.63320833684,-4.85120918826 -10.1088949205,-4.85120918826 c -2.10307429291,0 -2.94253672075,-2.94253672075 -2.94253672075,-9.26059604607 c 0,-5.26652217887 -0.848298874449,-10.1088949205 -2.11191073951,-10.7451190764 c -3.15461143936,-1.89099957429 -2.52722373013,-7.58167119039 1.26361186507,-11.7966562228 c 3.57876087658,-3.9940738672 11.3725067856,-2.94253672075 11.3725067856,1.47568658368 m 82.1436076759,1.06037359306 c 1.67892485568,3.15461143936 1.67892485568,6.09714816011 0.212074718612,10.7362826298 c -1.26361186507,3.57876087658 -2.32398545813,8.21789534623 -2.32398545813,10.3209696391 c 0,1.89099957429 3.16344788597,5.47859689749 7.15752175317,7.793745909 c 4.01174676042,2.31514901152 7.590507637,6.53013404394 8.42997006484,9.6847454833 c 1.8998360209,7.58167119039 -3.36668615797,16.8511036831 -11.3725067856,20.217789841 c -4.84237274165,2.11191073951 -6.31805932533,4.00291031381 -6.31805932533,8.63320833684 c 0,3.7996720418 1.47568658368,6.74220876255 4.21498503242,8.21789534623 c 5.05444746026,2.73929844874 5.47859689749,7.793745909 0.627387709228,13.0602680879 c -6.09714816011,6.94544703455 -9.05735777407,4.63029802304 -9.05735777407,-6.74220876255 c 0,-7.15752175317 -1.05153714645,-10.957193795 -2.94253672075,-11.7966562228 c -1.67892485568,-0.627387709228 -7.793745909,-0.212074718612 -13.6964922437,0.848298874449 c -10.5242079111,1.89099957429 -10.7362826298,1.89099957429 -10.7362826298,-2.95137316736 c 0,-4.41822330442 1.06037359306,-5.05444746026 8.42113361823,-5.05444746026 c 8.64204478345,0 18.954177976,-4.00291031381 25.9084614571,-10.1088949205 c 2.31514901152,-2.10307429291 3.57876087658,-6.31805932533 3.57876087658,-12.424043932 c 0,-9.05735777407 0,-9.05735777407 -9.26943249268,-9.05735777407 c -6.94544703455,0 -10.3121331925,1.05153714645 -12.2119692134,4.00291031381 c -1.47568658368,2.10307429291 -6.31805932533,5.47859689749 -10.7451190764,7.15752175317 c -7.7849094624,3.36668615797 -7.7849094624,3.36668615797 -7.7849094624,-1.8998360209 c 0,-4.41822330442 0.839462427841,-5.05444746026 7.99698418101,-5.05444746026 c 6.31805932533,0 9.48150721129,-1.46685013707 14.9601041088,-7.15752175317 c 6.31805932533,-6.53013404394 6.94544703455,-8.21789534623 6.52129759733,-18.3267902668 c -0.203238272004,-6.31805932533 -0.415312990616,-11.9998944948 -0.203238272004,-13.0514316413 c 0.415312990616,-3.16344788597 6.52129759733,-1.26361186507 8.63320833684,2.94253672075 m -86.5618309803,56.8625339279 c 12.2119692134,6.53013404394 17.0543419551,7.36959647178 23.5933124456,4.00291031381 c 3.78199914859,-2.11191073951 3.9940738672,-1.47568658368 3.78199914859,8.83644660885 c 0,8.21789534623 -0.627387709228,9.89682020191 -1.89099957429,6.74220876255 c -1.8998360209,-4.84237274165 -15.3754170994,-10.1088949205 -23.381237727,-8.83644660885 c -3.7908355952,0.415312990616 -5.26652217887,2.10307429291 -5.68183516949,6.52129759733 c -0.424149437225,3.37552260458 1.05153714645,8.21789534623 3.7908355952,12.0087309414 c 4.41822330442,6.31805932533 4.41822330442,6.31805932533 -1.8998360209,6.31805932533 c -4.41822330442,0 -7.36959647178,-1.47568658368 -9.6847454833,-5.05444746026 c -3.57876087658,-5.26652217887 -2.52722373013,-10.7451190764 2.31514901152,-12.6361186507 c 1.67892485568,-0.636224155837 2.95137316736,-4.00291031381 2.95137316736,-7.58167119039 c 0,-4.85120918826 -1.26361186507,-6.95428348116 -5.05444746026,-8.42997006484 c -2.73929844874,-0.839462427841 -6.95428348116,-4.20614858581 -9.27826893929,-7.36959647178 c -3.56992442997,-4.41822330442 -3.9940738672,-6.53013404394 -2.30631256491,-11.160432067 c 1.05153714645,-3.16344788597 3.7908355952,-6.95428348116 5.68183516949,-8.42997006484 c 3.16344788597,-2.52722373013 3.57876087658,-1.67892485568 4.63913446965,8.21789534623 c 1.05153714645,10.7451190764 1.26361186507,10.957193795 12.424043932,16.8511036831 m 28.4268487407,38.5357436612 c -0.839462427841,6.74220876255 -2.94253672075,13.4844175251 -4.63029802304,15.1721788274 c -2.73929844874,2.73929844874 -3.57876087658,2.73929844874 -6.94544703455,-0.424149437225 c -2.32398545813,-1.8998360209 -4.00291031381,-6.10598460671 -4.00291031381,-9.26943249268 c 0,-4.63029802304 1.26361186507,-6.10598460671 6.94544703455,-7.58167119039 c 4.63913446965,-1.47568658368 6.95428348116,-3.57876087658 7.36959647178,-6.94544703455 c 0.424149437225,-2.52722373013 1.26361186507,-4.42705975103 1.68776130229,-3.7996720418 c 0.636224155837,0.424149437225 0.212074718612,6.32689577194 -0.424149437225,12.8481933693 m 36.2294310963,3.7996720418 c 1.26361186507,4.20614858581 -4.00291031381,14.3150435063 -7.58167119039,14.3150435063 c -3.7908355952,0 -8.42113361823,-9.47267076469 -8.42113361823,-17.2664166737 c 0,-8.00582062762 0,-8.00582062762 7.36959647178,-4.41822330442 c 4.00291031381,1.89099957429 7.793745909,5.25768573226 8.63320833684,7.36076002517 m 69.083339588,-48.4414003097 c -0.636224155837,2.52722373013 -1.06037359306,16.8422672365 -0.636224155837,32.0056096172 c 0.212074718612,15.1633423808 0.424149437225,39.5961172542 0.212074718612,54.3441466444 c -0.424149437225,26.747923885 -0.424149437225,26.747923885 -31.378221908,26.3237744478 c -36.0173563777,-0.424149437225 -47.3898631633,1.8998360209 -57.7019963558,12.0087309414 c -6.75104520916,6.73337231594 -6.75104520916,6.73337231594 -12.22080566,1.67892485568 c -11.7966562228,-10.957193795 -15.7995665366,-11.9998944948 -54.9715343536,-13.0514316413 c -36.8568188055,-1.06037359306 -36.8568188055,-1.06037359306 -36.6447440869,-58.5502952302 c 0.203238272004,-57.4987580838 0.203238272004,-57.4987580838 -10.5330443577,-56.8713703745 c -10.7451190764,0.636224155837 -10.7451190764,0.636224155837 -11.3725067856,8.42997006484 c -0.636224155837,6.73337231594 -1.47568658368,7.99698418101 -5.47859689749,7.99698418101 c -2.52722373013,0 -6.31805932533,1.26361186507 -8.21789534623,2.52722373013 c -3.35784971136,2.52722373013 -3.57876087658,8.84528305546 -3.15461143936,74.3498617668 c 0.636224155837,71.6105633181 0.636224155837,71.6105633181 51.8080864677,72.6621004646 c 47.6019378819,1.05153714645 51.6048481957,1.26361186507 54.3441466444,5.05444746026 c 1.67892485568,2.31514901152 2.94253672075,5.26652217887 2.94253672075,6.74220876255 c 0,1.26361186507 3.16344788597,3.9940738672 6.95428348116,5.68183516949 c 5.26652217887,2.52722373013 10.7362826298,3.16344788597 22.7450135712,2.10307429291 c 16.6390289645,-1.26361186507 22.9570882898,-3.35784971136 22.9570882898,-7.58167119039 c 0,-1.46685013707 1.8998360209,-4.84237274165 4.21498503242,-7.36959647178 c 4.20614858581,-4.41822330442 5.68183516949,-4.63029802304 54.759459635,-4.63029802304 c 50.5444746026,0 50.5444746026,0 50.5444746026,-72.4588621926 c 0,-72.4411892993 0,-72.4411892993 -8.42113361823,-75.8167119039 c -6.53897049055,-2.52722373013 -8.42997006484,-4.41822330442 -8.42997006484,-8.42113361823 c 0,-7.15752175317 -5.26652217887,-11.7966562228 -13.6876557971,-11.7966562228 c -5.47859689749,0 -7.36959647178,1.06037359306 -8.63320833684,4.63913446965 M 27.8671037181,149.635692169 c 0,6.09714816011 0.839462427841,8.42113361823 3.16344788597,8.42113361823 s 3.15461143936,-2.31514901152 3.15461143936,-8.42113361823 c 0,-6.11482105332 -0.839462427841,-8.42997006484 -3.15461143936,-8.42997006484 S 27.8671037181,143.520871116 27.8671037181,149.635692169" clip-rule="evenodd"/>
</svg>
