<svg xmlns="http://www.w3.org/2000/svg" width="493" height="512" fill="currentColor" viewBox="0 0 493 512">
    <path fill-rule="evenodd" d="M 206.725941452,28.4065144433 c -53.4789436729,10.5979613986 -102.664354266,41.9661155211 -137.411174715,87.0935032885 C 50.5735854258,139.875328949 34.5679462879,175.075053731 26.2073322957,210.501230679 C 23.2815703028,223.816618078 22.6022138029,234.18812731 23.734474636,268.038197178 c 0.905808666547,36.5493796952 1.81161733309,43.3157704343 6.99284290574,59.1130735789 c 6.3225444925,19.1759694708 23.4604444636,55.2815029194 28.4333340429,60.0188822454 c 0.67935649991,0.67935649991 4.96383149268,6.3225444925 9.70121081872,12.6360308983 c 10.5979613986,14.6741003981 37.4551883617,40.399066528 53.4789436729,50.77057576 c 24.3662531301,16.0237553112 51.6673263399,27.5275253764 80.1006603828,33.3971655356 c 19.8553259707,4.05802282613 42.1925676878,4.96383149268 67.6910816511,2.70836791298 c 48.9589584269,-4.0670809128 98.8237255203,-26.6307747965 132.673795389,-59.8014881654 c 21.2049808839,-20.525624384 28.6597862096,-29.3300846228 35.6526291153,-41.9661155211 c 3.15221415958,-5.64318799259 6.76639073911,-12.1831265651 8.3424978189,-14.6741003981 c 9.25736457211,-16.2411493912 18.7321232242,-41.5132111879 20.9875868039,-55.2724448327 c 1.35871299982,-9.92766298536 2.02901141307,-37.4551883617 1.57610707979,-70.6259017307 c -0.905808666547,-59.3395257455 -0.452904333274,-56.4047056659 -16.6940537245,-90.9341320347 C 427.625500963,99.7117726739 377.534281703,54.3669908266 322.026326617,35.1729051825 C 303.747107726,28.8594187766 269.906095944,23.8955872839 246.436593393,24.1220394506 c -10.5979613986,0 -28.4242759563,2.02901141307 -39.7106519414,4.28447499277 m 94.5392505275,31.3681541225 c 41.2958171079,11.5037700651 79.8832663028,39.0403535282 107.854637926,76.9393881365 c 9.03091240548,12.1831265651 23.016598217,40.1635562747 27.753977543,55.2815029194 c 2.26452166637,7.44574723902 5.19028365932,16.4676015578 6.77544882577,20.308230304 c 1.35871299982,4.05802282613 2.48191574634,21.4314330505 2.48191574634,42.8719241877 c 0,33.8410117822 -1.35871299982,43.9951269342 -7.89865157229,60.924690912 c -0.905808666547,2.48191574634 -3.61417657952,9.47475865208 -5.86964015923,15.7882450579 c -4.51092715941,12.6360308983 -11.9566743984,26.8572269631 -21.8843373838,41.7487214412 c -10.3805673186,15.1179466447 -34.9732726154,39.9371041081 -49.6383149268,50.0912192601 c -20.0817781374,13.7682917315 -52.8086452597,28.1978237896 -72.6549131438,32.491356869 c -23.4695025502,4.96383149268 -55.9608594193,4.96383149268 -80.1006603828,0 c -36.3319856152,-7.67219940565 -85.0735499621,-36.1055334486 -106.052078679,-62.5007979918 c -13.0889352316,-16.4766596445 -23.6959547169,-32.0475106224 -27.753977543,-41.5222692745 c -2.26452166637,-4.96383149268 -4.96383149268,-10.8334716519 -6.09609232586,-12.862483065 c -1.35871299982,-2.2554635797 -3.16127224625,-5.86058207256 -4.28447499277,-7.89865157229 c -2.02901141307,-3.83157065949 -5.86964015923,-18.2701608043 -11.2863759852,-41.9661155211 c -2.92576199295,-13.0889352316 -3.15221415958,-49.4118627602 -0.452904333274,-58.8866214122 c 1.35871299982,-3.84062874616 3.84062874616,-14.2211960648 5.86964015923,-22.7901460503 c 4.51092715941,-18.7321232242 15.3443988113,-42.4190198544 28.8862383762,-63.6330588249 c 27.3010732097,-42.4190198544 76.03357947,-76.4955418899 124.54869165,-87.3199554552 c 22.5636938837,-4.96383149268 66.5678789046,-3.61417657952 89.8018712015,2.93482007961 m 31.1417019559,75.1368288901 c -12.862483065,13.5327814782 -16.0237553112,18.2701608043 -17.3734102244,25.9423602099 c -0.67935649991,5.19028365932 -0.67935649991,10.6070194853 0.226452166637,11.9566743984 c 0.905808666547,1.35871299982 -14.2211960648,18.0527667243 -35.8700231953,39.4932578615 c -30.9243078759,30.6887976226 -38.8139013615,37.2287361951 -45.815802354,38.5874491949 c -11.9566743984,2.2554635797 -18.7230651375,9.92766298536 -18.7230651375,21.2049808839 c 0,12.6360308983 7.67219940565,20.308230304 20.0817781374,20.308230304 c 4.96383149268,0 10.5979613986,-0.67935649991 12.6360308983,-1.35871299982 c 4.05802282613,-1.57610707979 10.1450570653,-12.1831265651 10.1450570653,-17.599862391 c 0,-2.02901141307 9.93672107202,-13.0798771449 21.8933954704,-24.3662531301 c 11.9566743984,-11.5037700651 27.0836791298,-26.1778704632 33.3971655356,-32.2649047024 c 20.7520765506,-20.0817781374 20.5346824706,-20.0817781374 32.491356869,-19.4024216374 c 10.8244135652,0.452904333274 11.5037700651,0 29.3300846228,-16.0237553112 c 14.891494478,-13.3153873982 18.2792188909,-17.599862391 17.8263145576,-22.1107895504 c -0.67935649991,-5.19028365932 -1.81161733309,-5.64318799259 -13.0889352316,-6.76639073911 c -10.3805673186,-0.905808666547 -12.862483065,-2.03806949973 -15.1179466447,-6.77544882577 c -1.57610707979,-3.15221415958 -2.93482007961,-10.371509232 -2.93482007961,-16.4676015578 c 0,-10.154115152 -0.226452166637,-10.5979613986 -6.76639073911,-10.5979613986 c -5.19028365932,0 -9.70121081872,3.37866632622 -22.3372417171,16.2411493912 m -124.095787317,13.3153873982 c -6.77544882577,1.12320274652 -18.9585753908,5.40767773929 -27.0836791298,9.23924839878 c -10.5979613986,5.19934174598 -19.8553259707,12.1921846517 -31.8120003691,24.3753112168 c -20.7611346373,21.2140389705 -30.2358932893,39.0403535282 -35.8700231953,67.2381773178 c -4.29353307943,20.7611346373 -2.490973833,45.353839934 4.50186907274,62.5007979918 c 0.905808666547,2.48191574634 2.48191574634,6.77544882577 3.17033033292,9.48381673875 c 2.69930982631,9.47475865208 23.0075401303,37.8990346083 33.8410117822,47.6093035137 c 13.0798771449,11.5037700651 38.1345448616,24.1398009635 55.2815029194,27.753977543 c 16.9205058911,3.60511849286 49.8647670934,1.34965491316 66.5588208179,-4.51998524607 c 26.1778704632,-9.24830648545 53.2524915063,-31.8120003691 66.7852729845,-55.725349166 c 2.71742599964,-4.74643741271 7.22835315905,-15.3443988113 10.154115152,-23.4695025502 c 4.51998524607,-12.1831265651 5.41673582595,-18.9585753908 5.41673582595,-39.4932578615 c 0,-26.6217167098 -2.48191574634,-37.8990346083 -12.1831265651,-57.0840621658 c -4.28447499277,-8.56894998554 -7.21929507238,-11.7302222318 -10.5979613986,-11.7302222318 c -2.93482007961,0 -9.71026890539,5.19028365932 -16.9295639778,12.6360308983 c -11.7302222318,12.1831265651 -14.4385901448,17.8263145576 -10.3805673186,22.5636938837 c 4.29353307943,4.73737932604 8.35155590557,23.2430503836 8.12510373893,35.8700231953 c -0.67935649991,28.4423921296 -21.6578852171,58.216322999 -50.5441235933,71.9846147305 c -12.6360308983,5.86964015923 -17.3734102244,6.99284290574 -32.7178090357,6.99284290574 c -15.5708509779,0 -19.8553259707,-0.905808666547 -31.5855482025,-6.76639073911 c -17.3734102244,-8.80446023884 -32.2649047024,-23.4604444636 -40.616460608,-40.616460608 c -5.64318799259,-11.9566743984 -6.53993857247,-16.0237553112 -6.53993857247,-33.8410117822 c 0,-11.5037700651 1.34965491316,-24.1488590501 2.92576199295,-29.3391427095 c 3.38772441289,-9.47475865208 16.2502074779,-28.1978237896 25.2720617967,-36.5493796952 c 3.16127224625,-2.71742599964 12.6360308983,-8.12510373893 21.2140389705,-12.1831265651 c 12.6360308983,-5.64318799259 18.7230651375,-7.00190099241 31.5855482025,-7.21929507238 c 12.6360308983,0 18.2792188909,1.12320274652 28.4333340429,5.86058207256 c 6.99284290574,3.38772441289 14.891494478,6.09609232586 17.599862391,6.09609232586 c 6.09609232586,0 27.5275253764,-21.8843373838 26.6307747965,-27.0836791298 c -0.67935649991,-4.73737932604 -17.6089204777,-15.3353407246 -32.7268671224,-20.7520765506 c -14.891494478,-5.19028365932 -49.1854105935,-7.21929507238 -67.9175338177,-3.84062874616 m 10.5979613986,59.3304676588 c -8.79540215217,1.81161733309 -15.7973031446,5.42579391262 -23.2430503836,11.2863759852 c -5.86058207256,4.73737932604 -11.0508657319,10.3805673186 -11.9566743984,12.4095787317 c -0.67935649991,2.02901141307 -2.93482007961,6.09609232586 -4.73737932604,9.25736457211 c -9.02185431881,13.9856858115 -11.7302222318,34.5113101954 -6.31348640583,49.6383149268 c 6.99284290574,20.0817781374 22.7901460503,37.908092695 39.2577476082,44.2215791008 c 6.99284290574,2.71742599964 14.2211960648,3.38772441289 27.0836791298,2.71742599964 c 13.9856858115,-0.688414586576 19.846267884,-2.26452166637 28.4242759563,-7.22835315905 c 5.64318799259,-3.38772441289 13.7682917315,-10.1450570653 17.599862391,-15.1179466447 c 13.5327814782,-17.1469580577 19.1759694708,-42.8719241877 12.862483065,-60.0188822454 c -1.58516516646,-4.05802282613 -4.29353307943,-7.44574723902 -6.3225444925,-7.44574723902 c -1.80255924643,0 -8.12510373893,4.05802282613 -13.7682917315,9.02185431881 c -8.11604565226,6.77544882577 -10.8244135652,10.8334716519 -11.7302222318,17.599862391 c -3.37866632622,20.9875868039 -15.7882450579,32.9442612023 -32.491356869,31.3681541225 a 32.9714,32.9714 0 0,1 -26.3952645432,-18.2792188909 c -11.2863759852,-23.6868966302 5.19028365932,-48.7325062602 31.8120003691,-48.7325062602 c 7.89865157229,0 10.8334716519,-1.35871299982 17.599862391,-7.89865157229 c 4.73737932604,-4.73737932604 7.89865157229,-10.154115152 7.89865157229,-13.5418395649 c 0,-4.73737932604 -1.81161733309,-6.09609232586 -11.7302222318,-9.02185431881 c -13.5418395649,-3.84062874616 -16.4766596445,-4.0670809128 -33.8500698689,-0.226452166637" clip-rule="evenodd"/>
</svg>
