<svg xmlns="http://www.w3.org/2000/svg" width="505" height="512" fill="currentColor" viewBox="0 0 505 512">
    <path fill-rule="evenodd" d="M235.89.23c-1.18.09-5.83.52-10.3 1A247 247 0 0 0 120.43 37.9c-30.82 19.38-57.18 45.42-77.87 76.9a226 226 0 0 0-15.83 27.76A256.38 256.38 0 0 0 .2 265.96c.87 21.09 3.55 38.8 9.03 58.98 1.97 7.4 5.4 17.89 8.2 25.12a262 262 0 0 0 23.02 44.95c13.42 20.7 30.92 40.34 50.52 56.87a256 256 0 0 0 75.77 44.47c20.04 7.54 39.81 12.14 62.57 14.69 8.47.92 29.82 1.27 38.6.65 28.76-2.06 55.07-8.5 81.99-20.08a313 313 0 0 0 29.82-15.26c25.17-15.13 46.7-33.55 66.52-57a257 257 0 0 0 24.64-35.26c9.7-16.84 17.94-36 22.98-53.37 6.27-21.48 9.6-41.3 10.57-62.7.44-9.87-.05-27.63-1.06-36.8-2.4-22.8-7.27-44.15-14.51-63.7-6.4-17.41-16.84-37.98-27.14-53.59a336 336 0 0 0-20-26.53c-6.05-7.1-23.9-24.86-30.56-30.39a259 259 0 0 0-32.1-22.89c-7.98-4.82-24.38-12.84-33.76-16.57a257 257 0 0 0-59.2-15.66C275.84.5 265.93-.08 251.9.01c-7.59.04-14.78.13-16.01.22m27.85 18.55a227 227 0 0 1 72.44 15.78 246 246 0 0 1 33.9 16.8 240 240 0 0 1 49.63 40.16c8.29 8.86 12.32 13.6 18.77 22.2a232 232 0 0 1 24.16 39.46 226 226 0 0 1 11.62 28.15c12.32 36.44 15.52 75.5 9.38 114.67a234 234 0 0 1-14.03 50.38 265 265 0 0 1-13.77 28.46c-7.63 13.37-18.77 28.94-29.82 41.61a242 242 0 0 1-23.72 23.24c-25.78 21.53-53.19 36.53-82.88 45.43-18.72 5.61-35.43 8.46-55.42 9.52-19.3 1-39.55-.75-60.12-5.14a243 243 0 0 1-37.71-11.62c-7.28-2.89-19.9-9.07-26.97-13.15-15.13-8.77-30.91-20.48-45.3-33.63a256 256 0 0 1-28.45-31.44c-5-6.67-12.02-17.24-16.14-24.38a308 308 0 0 1-14.43-29.65c-16.75-41.79-21.22-87.3-12.93-132.6 2.58-14.2 8.46-33.76 14.34-47.84a251 251 0 0 1 22.27-41.22 313 313 0 0 1 16.18-21.4c11.5-13.72 27.23-28.37 42.97-40.03 11.01-8.11 21.36-14.34 34.34-20.79 30.26-14.95 64.15-22.93 98.97-23.32 2.76-.05 8.5.13 12.72.35M198 75.12a39 39 0 0 0-14.2 6.98c-7.5 5.6-12.98 14.16-14.78 23.02-.75 3.77-.75 3.77-6.62 4.03-7.24.3-12.28 1.5-17.85 4.12a39 39 0 0 0-12.19 8.6c-3.95 4.16-6.05 7.19-8.24 11.84-2.85 5.96-3.9 10.7-3.95 17.71-.04 3.12.13 7.02.3 8.6.36 2.85.36 2.85-3.46 3.86a47 47 0 0 0-13.8 6.22c-3.6 2.37-8.47 7.28-10.88 10.83a51 51 0 0 0-6.27 13.68c-.88 3.25-1.01 4.78-1.01 11.62 0 7.24.08 8.25 1.18 12.15 1.45 5.18 3.11 8.86 5.7 12.67 1.93 2.9 1.93 2.9.22 4.17-2.37 1.75-6.1 5.83-8.24 9.03a49 49 0 0 0-6.14 13.38 52.6 52.6 0 0 0 .09 24.9 50 50 0 0 0 8.46 16.62 46 46 0 0 0 10 8.86c1.62 1.05 1.62 1.05-.1 4.52-3.06 6.18-4.81 13.94-4.81 21.53 0 1.8.3 5.17.65 7.45 2.28 15.26 11.84 28.37 25 34.47 5.43 2.5 10.92 3.72 17.76 3.99 5.96.22 5.96.22 5.78 6-.35 11.01 2.1 19.7 8.12 28.73a58 58 0 0 0 6.1 7.36c6 6.06 14.2 10.7 22.49 12.8 7.85 1.98 18.98 2.24 27.89.7a57.5 57.5 0 0 0 21.3-8.59c3.6-2.4 9.83-8.63 12.1-12.01a44 44 0 0 0 7.11-18.42c.31-2.19.53-18.59.66-43.19.09-21.84.04-39.95-.04-40.25-.13-.4-1.85-.53-6.32-.53-6.1 0-6.1 0-8.11 2.72-1.1 1.53-5.7 7.94-10.17 14.25-8.12 11.53-8.12 11.53-12.41 11.53-2.33 0-4.6.13-4.96.27-.4.13-3.46 3.55-6.8 7.58a229 229 0 0 1-6.8 7.9c-.6.48-.7 1.92-.7 9.2 0 8.64 0 8.64 2.68 9.91a19.2 19.2 0 0 1 8.29 8.12c.7 1.4 1.53 3.94 1.8 5.65.4 2.37.4 3.69-.05 5.83a18.4 18.4 0 0 1-4.73 9.48 18 18 0 0 1-8.86 5.17 17.9 17.9 0 0 1-16.58-4.38 18 18 0 0 1-5.13-8.82 18.3 18.3 0 0 1 1.54-13.33c1.45-2.94 5.09-6.27 8.46-7.9 2.94-1.4 2.94-1.4 2.94-11.48 0-11.36-1.67-8.2 13.11-24.95 3.25-3.64 6.36-6.84 6.93-7.06.61-.22 2.72-.4 4.7-.4 2.89 0 3.76-.17 4.33-.78.35-.4 3.95-5.35 7.94-11.01 7.28-10.22 7.28-10.22 3.24-15.22s-4.03-5-18.1-5-14.08 0-22.1 10.53c-4.43 5.74-8.51 11-9.08 11.62a3.5 3.5 0 0 1-1.8 1.14c-.44 0-3.03.17-5.79.35-4.95.35-4.95.35-8.37 3.77s-3.42 3.42-3.6 7.85c-.13 3.73-.3 4.82-1.36 7.06-1.62 3.5-5.4 7.28-8.81 8.81-2.33 1.06-3.25 1.23-6.84 1.27-3.38 0-4.65-.17-6.71-1a19 19 0 0 1-5.09-3.38 18.2 18.2 0 0 1-4.16-21.1 18.2 18.2 0 0 1 7.76-8.06c3.11-1.5 7.19-2.37 9.2-1.97 3.43.7 6.85 2.1 9.04 3.77 2.67 2.01 1.88 2.32 7.28-2.72 2.15-1.97 3.11-2.59 4.95-2.98 1.27-.27 3.77-.49 5.57-.49 3.2 0 3.2 0 5.09-2.32l7.98-9.43c6.1-7.14 6.1-7.14 4.6-8.77-.79-.87-4.47-5.04-8.2-9.2-6.7-7.55-6.7-7.55-21.44-7.46-14.69.13-14.69.13-15.83 2.2-2.06 3.8-4.2 5.87-7.8 7.67-3.25 1.62-3.51 1.66-7.99 1.66-4.2 0-4.9-.13-7.36-1.27-3.47-1.58-6.71-4.95-8.6-8.9-1.31-2.76-1.4-3.33-1.4-7.59 0-4.12.13-4.86 1.23-7.19 2.37-5.08 6.05-8.46 10.92-10 1.44-.43 3.68-.79 4.95-.79 3.11 0 7.46 1.4 10.09 3.3 2.58 1.8 6.05 6.22 6.75 8.59.26.92.7 1.8.96 1.97.27.18 7.33.26 15.7.26 8.33-.04 15.53.1 15.96.27s1.85 1.53 3.07 2.98c1.27 1.49 4.26 4.91 6.71 7.67 2.41 2.77 5.75 6.58 7.41 8.51a52 52 0 0 0 3.51 3.81c.22.18 6.75.36 14.47.36 8.25 0 14.7.17 15.66.43 1.27.4 2.8 1.76 7.23 6.58 5.61 6.14 5.61 6.14 12.67 6.14 6.19 0 7.15-.09 7.37-.74.4-.97.22-180.97-.17-191.32-.27-7.54-.4-8.42-1.72-12.28a46 46 0 0 0-3.2-7.2 41 41 0 0 0-5.04-6.4A37.6 37.6 0 0 0 217.4 74.9c-2.55-.65-4.78-.87-9.3-.87-4.82.04-6.75.26-10.09 1.1m17.98 22.9c3.2 1.57 6.01 4.07 7.59 6.83 1.7 2.9 2.59 6.98 2.37 10.83a16 16 0 0 1-1.58 6.28 20.6 20.6 0 0 1-8.42 8.9c-2.41 1.27-2.41 1.27-2.54 11.8-.1 10.47-.1 10.47 5.48 16.22 3.11 3.11 6.97 7.1 8.6 8.81 2.97 3.11 2.97 3.11 2.97 8.46-.04 5.35-.04 5.35-4.51 10.66l-8.16 9.6c-3.64 4.34-3.64 4.34-3.33 21.23.3 16.88.3 16.88 2.45 18.24a20 20 0 0 1 7.06 8.2c2.55 5.4 1.98 11.8-1.44 17.1a18 18 0 0 1-3.42 3.95c-4.43 3.5-10.3 4.82-15.22 3.37-3.24-.92-5.35-2.02-7.02-3.6-2.32-2.19-19.6-21.09-25.43-27.8-2.2-2.54-2.2-2.54-9.03-2.54-4.83-.04-7.5-.26-9.21-.74-2.2-.62-2.9-1.23-9.17-7.68-6.8-7.01-6.8-7.01-10.04-5.35-3.15 1.63-3.37 1.67-7.89 1.67-4.2 0-4.91-.13-7.1-1.23a16.4 16.4 0 0 1-8.07-7.9c-2.85-5.87-2.94-10.6-.3-16.26a17.07 17.07 0 0 1 22.14-8.24c2.89 1.31 6.1 4.12 7.71 6.84 2.41 4.07 3.3 9.34 2.2 13.72-.53 1.98-.53 1.98 6.44 8.95s6.97 6.97 12.9 6.97a143 143 0 0 1 8.85.26c3.25.3.61-2.32 25.96 25.96 3.5 3.9 6.23 6.58 7.1 6.93 2.2.92 6.06.79 8.12-.26 2.1-1.1 4.16-3.86 4.56-6.1.35-2.1-.4-5.08-1.76-6.84a13 13 0 0 0-6.93-4.38c-2.28-.53-2.28-.53-2.4-17.15-.14-16.62-.14-16.62-5.05-21.8-4.91-5.12-4.91-5.12-12.1-5.12-7.2 0-7.2 0-9-1.89-1-1-2.93-3.16-4.33-4.78-2.55-2.9-2.55-2.9-2.81-9.86-.26-6.93-.26-6.93-3.16-10.09-2.85-3.16-2.85-3.16-6.8-3.16-3.02.05-4.55-.17-6.4-.87a18 18 0 0 1-10.78-11.76 19 19 0 0 1-.53-6.22c.18-2.85.48-4.04 1.62-6.32a17.8 17.8 0 0 1 13.03-9.64c3.46-.62 6.66-.05 10.56 1.88a18 18 0 0 1 7.85 8.25c.97 1.92 1.28 3.33 1.4 6.27.23 4.56-.52 7.63-2.76 10.91a30 30 0 0 0-1.53 2.46c0 .13 1.4 1.8 3.07 3.73 3.07 3.55 3.07 3.55 3.07 10.7s0 7.14 1.97 9.34c2.02 2.23 2.02 2.23 9.21 2.36 7.24.14 7.24.14 11.1 3.95 2.1 2.15 4.03 3.86 4.25 3.82.26 0 2.02-1.98 3.94-4.43 1.93-2.41 5.22-6.5 7.37-9.04 2.85-3.46 3.82-4.9 3.82-5.87 0-1.05-1.58-2.94-9-10.79-8.98-9.51-8.98-9.51-8.98-20.96 0-12.93.3-11.8-3.82-13.99a21 21 0 0 1-7.63-7.4 24 24 0 0 1-1.97-5.49 13 13 0 0 1-.22-6.36c.66-3.86 2.06-7.06 4.25-9.47a18.3 18.3 0 0 1 7.41-4.91c1.71-.61 3.12-.79 6.4-.66 3.69.09 4.52.27 7.02 1.5m-10.78 9.11c-3.2 1.14-5.49 4.6-5.49 8.34.05 1.84 1.4 4.56 3.12 6.22a8.2 8.2 0 0 0 11.4-.35 8.7 8.7 0 0 0 1.75-9.82 8.37 8.37 0 0 0-10.79-4.38m-46.97 35.3a7.6 7.6 0 0 0-4.12 5.4c-.7 2.67.04 5.3 2.15 7.36 1.84 1.85 4.56 2.77 6.84 2.33 3.07-.57 6.05-3.51 6.62-6.54.57-3.15-1.88-7.54-4.95-8.81a8 8 0 0 0-6.54.26m-35.47 55.21a8.5 8.5 0 0 0-4.6 5.22c-.53 2.02-.53 2.1.04 4.16s2.76 4.65 4.65 5.4a8.2 8.2 0 0 0 9.69-3.03c.96-1.45 1.18-2.28 1.18-4.47 0-2.2-.22-3.03-1.18-4.47-1.36-2.02-4.26-3.64-6.54-3.64-.83 0-2.28.4-3.24.83M284.9 75.08a50 50 0 0 0-7.93 3.07 37.9 37.9 0 0 0-19.03 22.89c-1.01 3.46-1.01 3.46-1.01 103s0 99.54 6.8 99.67c6.8.1 6.8.1 11.8-5.87 3.28-3.9 5.52-6.19 6.44-6.58 1.14-.48 4.69-.61 16.35-.61 14.87 0 14.87 0 20.92-7.15 10.74-12.59 13.86-16 14.82-16.27.48-.13 7.94-.26 16.53-.26 15.66 0 15.66 0 17.2-3.2 2.14-4.48 4.5-6.98 8.54-8.95 3.2-1.58 3.5-1.67 7.72-1.67 3.95 0 4.7.14 6.88 1.23a18.35 18.35 0 0 1 4.47 30.12 18 18 0 0 1-4.86 3.12c-2.02.83-3.38 1-6.93 1.05-4.2 0-4.52-.09-7.67-1.62a22 22 0 0 1-4.91-3.33c-.93-.92-2.2-2.77-2.9-4.08-1.23-2.37-1.23-2.37-16.18-2.5-14.95-.09-14.95-.09-21.84 7.67-3.81 4.3-7.5 8.42-8.15 9.17-1.27 1.36-1.27 1.36 4.34 8.33 3.07 3.86 6.49 8.11 7.58 9.47 1.98 2.5 1.98 2.5 5.8 2.5 2.1.04 4.77.26 5.96.48 1.75.4 2.76 1.06 5.87 3.95 2.1 1.93 3.9 3.5 4.08 3.5.13 0 1.27-.78 2.54-1.75a22 22 0 0 1 4.04-2.4 17.6 17.6 0 0 1 9.12-1.1c5.87.92 10.26 4.34 12.98 10.08 1.49 3.11 1.58 3.55 1.58 7.67 0 4.08-.13 4.6-1.5 7.42a18.3 18.3 0 0 1-8.63 8.68 17.25 17.25 0 0 1-20.13-4.12c-3.2-3.47-4.3-6.36-4.47-11.93-.09-2.85-.3-4.56-.66-4.87-.3-.26-1.93-1.75-3.55-3.33-3.03-2.8-3.03-2.8-9.08-3.03-5.96-.22-6.1-.26-7.37-1.49-.74-.66-4.82-5.92-9.16-11.7-7.8-10.49-7.8-10.49-21.84-10.49s-14.03 0-18.06 4.83c-2.24 2.67-4.08 5.04-4.08 5.26 0 .53 3.68 5.7 9.03 12.8 2.15 2.81 4.43 6.01 5.09 7.1 1.23 2.02 1.23 2.02 4.95 2.02 2.2 0 4.34.27 5.22.62 1.01.4 4.17 3.81 10.48 11.27 9.08 10.7 9.08 10.7 9.08 20.6 0 9.92 0 9.92 3.24 11.54a18 18 0 0 1 5.62 4.17c2.63 2.85 4.07 5.48 4.78 8.9 1 4.65-.4 10.48-3.56 14.64a17.85 17.85 0 0 1-27.18 1.5 19 19 0 0 1-4.91-10c-.4-2.37-.4-3.73 0-5.88 1.14-6.1 5.21-11.4 10.39-13.55 2.41-1 2.41-1 2.41-9.47s0-8.46-6.62-16.23c-3.68-4.3-6.97-8.06-7.32-8.37-.44-.35-2.28-.53-5.31-.53-4.65-.04-4.65-.04-6.84-3.42a94 94 0 0 1-2.98-4.9c-.44-.84-4-5.7-7.9-10.75-7.1-9.21-7.1-9.21-12.58-9.21s-5.48 0-5.44 41c.05 40.56.05 41.04 1.01 45.6.53 2.5 1.54 5.97 2.28 7.68a45 45 0 0 0 15.04 19.16 57 57 0 0 0 14.73 7.54c5.75 1.89 10.92 2.59 19.3 2.63 4.56 0 8.99-.22 10.96-.57a53 53 0 0 0 19.73-7.93c3.77-2.55 8.51-7.2 11.58-11.32a53 53 0 0 0 4.78-7.72c3.55-7.19 4.87-13.2 4.87-22.45.04-6.18.04-6.18 6.18-6.44 6.7-.27 10.79-1.1 16.66-3.47a51 51 0 0 0 7.24-3.9 52 52 0 0 0 12.23-12.19c6.97-10.3 9.43-24.07 6.8-37.97-.79-4.04-2.76-9.39-4.3-11.67-1.1-1.58-1.1-1.58 2.2-3.68a38 38 0 0 0 11.26-11.27c4.39-6.84 6.5-12.8 7.37-21.05.79-7.15-.57-16.53-3.29-23.06-2.8-6.62-7.9-13.25-13.1-17.02-1.24-.87-1.24-.87.39-3.24a49 49 0 0 0 6.18-13.81c1.05-3.9 1.18-5.18 1.18-11.62 0-5.18-.22-8.16-.74-10.4-1.76-7.63-6.19-15.7-11.62-21.09a44 44 0 0 0-13.03-8.81 39 39 0 0 0-6.97-2.06c-3.77-.75-3.86-.8-3.55-1.89.57-2.41.74-13.64.26-17.1a50 50 0 0 0-4.34-13.46c-3.07-6.05-8.9-12.46-15-16.31-3.33-2.15-8.72-4.26-13.06-5.14-2.63-.52-5.27-.7-9.52-.57-5.74.14-5.92.1-5.92-.78 0-1.85-1.8-7.94-3.24-11.01-4.12-8.64-10.7-15.44-18.9-19.47-5.92-2.94-8.73-3.55-16.67-3.73-6.35-.17-7.4-.09-11.05.88m14.12 22.01c1.45.35 3.42 1.14 4.39 1.71a19 19 0 0 1 6.93 7.68c1.31 2.67 1.4 3.07 1.4 7.89 0 4.73-.09 5.22-1.36 7.9-2.24 4.73-5.4 7.71-9.95 9.42-1.45.57-2.28 1.14-2.55 1.89-.22.6-.4 5.83-.4 11.57.05 10.48.05 10.48-1.57 12.32-.92 1.01-5.61 5.92-10.52 10.92-5.48 5.66-9.17 9.12-9.7 9.12-1.75 0-2.23-.96-2.54-4.6-.26-3.5-.26-3.5 3.73-7.67 2.24-2.29 5.88-6.06 8.16-8.38 4.12-4.21 4.12-4.21 4.12-14.08 0-7.19-.13-10-.53-10.52-.3-.35-1.36-1.14-2.32-1.71-5.7-3.38-9.43-9.73-9.43-16.18 0-5.18 2.8-11.53 6.27-14.16a18.2 18.2 0 0 1 15.87-3.12m49.2 36.57a18.3 18.3 0 0 1 10.26 13.2c.62 3.42.14 6.97-1.4 10.3-1.4 2.94-5.48 6.93-8.6 8.43-2.32 1.05-3.02 1.18-7.8 1.22-5.22 0-5.22 0-8.42 3.47-3.2 3.42-3.2 3.42-3.29 8.5-.04 2.81-.13 5.84-.13 6.71-.09 1.45-.61 2.2-4.65 6.5-4.56 4.82-4.56 4.82-10.04 4.82s-5.48 0-11.75 6.36c-6.23 6.35-6.23 6.35-6.14 18.68.13 12.36.13 12.36 3.77 14.2 4.04 2.02 6.05 3.77 8.07 6.89.7 1.18 1.5 2.1 1.67 2.1s4.65-4.69 9.95-10.43c5.3-5.7 12.76-13.77 16.58-17.85 6.92-7.46 6.92-7.46 15.3-7.68s8.38-.21 8.64-4.38c.35-5.3 1.53-8.46 4.34-11.53a21 21 0 0 1 4.7-3.73c3.15-1.67 7.49-2.46 10.47-1.89 6.8 1.32 11.75 5.7 13.77 12.28a17.8 17.8 0 0 1-4.34 18.02c-1.1 1.1-3.2 2.64-4.65 3.34-2.37 1.14-3.07 1.27-7.01 1.27-5 0-7.42-.7-10.57-3.11-1.93-1.5-1.93-1.5-10.66-1.5-9.82 0-5.44-3.46-34.46 27.2-6.54 6.88-12.8 13.94-14 15.69-1.18 1.8-3.02 3.9-4.11 4.7a20 20 0 0 1-8.73 3.54c-2.67.35-6.67-.43-9.52-1.88-2.76-1.4-6.4-5.04-7.63-7.63a26 26 0 0 1-1.62-5.18 13 13 0 0 1-.22-5.83 18.4 18.4 0 0 1 8.69-12.76c2.5-1.45 2.5-1.45 2.63-15.7.08-14.2.08-14.2 8.55-22.97 8.46-8.73 8.46-8.73 14.07-8.82 5.66-.09 5.66-.09 7.98-2.4 2.37-2.33 2.37-2.33 2.37-8.82s0-6.5 3.95-10.83c2.19-2.37 3.94-4.52 3.94-4.74 0-.18-.48-1.1-1.05-1.93a20 20 0 0 1-2.02-4.38c-.78-2.24-.92-3.51-.78-6.4.17-2.9.43-4.08 1.62-6.45a21 21 0 0 1 3.55-5 20 20 0 0 1 8.9-4.91c2.94-.62 6.8-.09 9.82 1.31m-57.62-26.35c-3.6 1.67-5.7 6.36-4.56 10.22.7 2.36 3.2 4.95 5.57 5.87 1.67.66 2.33.66 4.17.27 1.23-.31 2.85-1.06 3.68-1.67a8.86 8.86 0 0 0 2.46-10.48 8.2 8.2 0 0 0-4.52-4.39 8.5 8.5 0 0 0-6.8.18m47.89 34.86c-1.8.79-4.04 3.38-4.56 5.4-.57 2.05-.57 2.14-.05 4.16a9 9 0 0 0 4.08 5.04c.8.4 2.41.7 3.64.7a8 8 0 0 0 6.76-3.5c.87-1.28 1.1-2.15 1.1-4.3 0-2.2-.23-3.03-1.24-4.52a9 9 0 0 0-2.93-2.72 8.7 8.7 0 0 0-6.8-.26m35.74 55.34a7.2 7.2 0 0 0-4 3.77 8.7 8.7 0 0 0 1.32 9.3 9 9 0 0 0 5.53 2.45c.87 0 2.28-.3 3.2-.66 4.12-1.75 5.92-5.52 4.69-9.73a7.7 7.7 0 0 0-4.7-5.13 7.3 7.3 0 0 0-6.04 0m-84.5 46.17a7.8 7.8 0 0 0-3.25 2.98c-1.18 1.89-1.31 2.37-1.18 4.83.13 2.23.4 3.02 1.49 4.38a10 10 0 0 0 2.85 2.41c2.76 1.45 6.84.84 9.34-1.35 1.36-1.19 2.46-3.86 2.46-5.97 0-4.3-3.25-7.67-7.59-7.98a7.6 7.6 0 0 0-4.12.7m-174 19.7c-4.87 2.27-6.4 8.02-3.29 12.27 1.32 1.84 4.39 3.6 6.27 3.6 2.72 0 6.23-2.33 7.63-5 .92-1.8.84-5.18-.17-7.15-1.93-3.73-6.75-5.44-10.44-3.73m264.72.12a11 11 0 0 0-3.07 2.46c-.87 1.18-1.18 2.2-1.31 4.3s0 3.06.74 4.51c.97 1.93 3.64 3.82 6.01 4.3 1.8.35 4.7-.48 6.32-1.89 2.67-2.23 3.77-6.14 2.58-9.2-1.05-2.81-4.78-5.4-7.71-5.4-.93 0-2.5.44-3.56.92m-246.74 62.97c-2.28.4-2.9.66-4.17 1.71-2.89 2.46-3.9 6.71-2.28 9.78.4.83 1.5 2.1 2.42 2.85 1.31 1.05 2.19 1.36 4.25 1.5 2.24.17 2.9.03 4.6-.97a7.8 7.8 0 0 0 3.82-6.84c0-2.42-.8-4.08-2.8-6.01-1.45-1.4-4.09-2.28-5.84-2.02m234.16-.09c-.22.1-.97.27-1.62.4-2.77.61-5.62 4.51-5.62 7.72 0 2.23 1.4 4.95 3.3 6.4 1.3.96 2.18 1.27 4.33 1.4 2.37.13 2.9 0 4.7-1.14 2.28-1.45 3.9-4.25 3.9-6.66 0-2.99-2.8-6.85-5.48-7.59-1.67-.44-3.07-.66-3.51-.53M182.44 384.7a8.2 8.2 0 0 0-4.91 4.91 7.8 7.8 0 0 0 3.5 9.56 7.6 7.6 0 0 0 8.25-.17 8.5 8.5 0 0 0 3.86-6.8 9 9 0 0 0-2.72-5.83c-1.23-1.18-3.9-2.32-5.26-2.32-.57.04-1.76.3-2.72.65m131.5.18c-.96.44-2.19 1.27-2.72 1.84-1.22 1.36-2.32 3.95-2.32 5.57 0 .66.53 2.28 1.14 3.5 2.02 4.09 6.36 5.58 10.44 3.6 2.01-.96 4.03-3.68 4.47-6.05.61-3.2-1.58-6.97-4.87-8.46-2.23-1.01-3.9-1.01-6.14 0" clip-rule="evenodd"/>
</svg>
