<svg xmlns="http://www.w3.org/2000/svg" width="472" height="512" fill="currentColor" viewBox="0 0 472 512">
    <path fill-rule="evenodd" d="M218.75.26C190.42 3.4 161.22 11.4 140.01 22c-25.38 12.51-42.76 25.2-64.84 47.45-11.82 11.82-24.85 27.12-30.07 34.94-11.65 17.73-26.25 47.63-32.85 67.97-7.48 22.42-10.78 41.2-12 69.35-1.04 24.51 1.22 57.89 5.05 73.53 4.17 18.08 14.6 45.72 23.46 62.75 13.04 25.38 22.42 38.94 39.8 57.36 34.08 36.16 63.8 54.76 110.21 68.84 14.43 4.52 38.94 7.82 57.36 7.82 16.34 0 46.07-3.65 56.32-6.95 21.21-6.6 28.51-9.39 41.37-15.3 16-7.47 37.03-21.55 52.15-34.76 32.85-28.86 59.27-69.01 73.18-111.77 10.95-33.38 12.52-43.46 12.52-85.87 0-30.25-.7-41.55-3.13-53.89-7.13-35.28-22.43-72.3-40.85-99.08-12-17.2-16.69-22.77-33.38-39.1-18.94-18.78-37.2-31.64-59.97-42.6C304.1 8.08 277.16 1.3 245.7.26c-11.47-.35-23.64-.35-26.94 0m46.93 32.16c32.68 5.21 64.84 19.3 93.87 40.85 20.86 15.64 46.24 46.58 59.27 72.3a264 264 0 0 1 20.86 58.93c3.3 15.47 4 22.95 3.83 51.98-.18 29.55-.7 36.33-4.35 53.01-2.43 10.43-6.43 24.34-8.86 30.77-7.13 18.77-20.34 42.94-31.3 57.54-11.81 15.47-30.41 34.07-45.53 45.54-23.3 17.56-58.58 31.98-87.26 35.8-9.04 1.22-25.2 1.57-39.64 1.05-20.33-.7-27.46-1.74-43.45-6.43-21.56-6.09-46.59-18.43-63.97-31.46-43.28-32.5-74.57-81.35-86.56-135.41-3.65-15.82-4.18-22.77-4-53.02 0-32.16.35-36.15 4.7-53.02 5.2-19.99 11.81-38.58 17.37-49.54 12.34-23.81 29.55-48.15 43.11-61 16.69-15.83 36.85-30.08 54.24-38.6 17.73-8.69 41.89-16.68 58.23-19.47 12.16-2.08 46.58-1.9 59.44.18M130.8 144.7c-27.47.52-27.99.7-32.16 5.04-4.17 4.52-4.17 4.52-4.7 106.2-.34 101.7-.34 101.7 5.57 107.6 5.9 5.91 5.9 5.91 133.15 5.91 127.24 0 127.24 0 133.15-5.9 5.9-5.92 5.9-5.92 5.9-106.9 0-101 0-101-5.03-106.56-5.04-5.74-5.04-5.74-106.56-5.91-55.8 0-113.85.17-129.32.52m196.6 35.11c6.25 3.48 11.3 12.86 11.3 21.03 0 13.39-11.83 26.08-24.17 26.08-3.48 0-8.87-1.57-12-3.48-12.68-7.82-16.5-24.68-8.16-37.02 2.43-3.48 4.69-6.43 4.86-6.43.18 0 3.48-1.22 7.3-2.61 7.65-2.78 12.87-2.26 20.86 2.43m-121.69 70.4c6.61 6.95 18.95 19.99 27.12 28.86 13.04 13.73 15.65 15.81 19.12 14.77 2.26-.52 11.3-8.52 19.82-17.56 11.82-12.51 16.69-16.34 19.99-16.34 3.47 0 9.56 5.4 26.42 22.95 43.98 46.58 39.63 40.67 39.63 53.71 0 6.43-.87 12.17-2.08 13.39-1.57 1.56-31.47 2.08-124.12 2.08-122.02 0-122.02 0-123.24-6.6-1.56-9.74.18-22.77 3.83-26.95 1.74-2.08 11.3-12.86 21.2-23.81 28.34-31.29 54.41-57.36 57.37-57.36 1.39 0 8.17 5.73 14.94 12.86" clip-rule="evenodd"/>
</svg>
