<svg xmlns="http://www.w3.org/2000/svg" width="502" height="512" fill="currentColor" viewBox="0 0 502 512">
    <path fill-rule="evenodd" d="M397.93 29.2c-29.77 29.23-29.77 29.23-29.77 55.17 0 26.21 0 26.21-76.46 102.67-66.35 66.36-76.46 77.56-76.46 84.66 0 4.37 1.1 9.55 2.19 11.2 2.45 3.82 12.83 9.28 17.2 9.28 1.91 0 38.78-34.96 81.65-77.83 78.1-77.82 78.1-77.82 104.04-77.82 25.67 0 25.67 0 53.8-28.13 15.29-15.3 27.85-30.04 27.85-32.5 0-6.55-6.56-9.55-25.94-11.74-28.13-3.55-27.86-3.27-30.04-29.22-1.1-12.56-3-25.4-4.37-28.94-4.37-11.74-12.84-7.37-43.7 23.2M192.3 45.06c-49.15 10.1-86.83 29.76-121.24 62.53-15.3 14.47-36.04 42.6-45.6 61.71C-1.3 222.54-7.31 283.71 9.07 339.96c15.84 54.9 51.07 104.86 95.03 134.63 17.75 12.29 48.88 26.76 70.18 32.5 13.38 3.82 27.86 4.91 60.08 4.91 40.69 0 43.42-.55 68-9.01 43.41-15.02 76.45-38.23 104.85-74 18.02-22.67 39.6-65 47.52-93.12 3.55-13.38 4.91-27.85 4.91-58.71 0-34.95-1.1-43.97-6.28-62.54-3.55-11.74-8.74-26.76-11.47-33.31-4.37-10.1-6.55-12.02-12.83-12.02-5.46 0-12.02 4.37-24.3 16.66-16.94 16.66-16.94 16.66-12.02 30.86 13.1 37.14 13.38 76.19 1.1 113.6-12.84 37.95-36.05 69.08-68.82 91.2-10.1 7.1-27.58 15.84-38.78 19.94-15.3 5.46-27.3 7.64-48.06 8.46-32.5 1.37-52.7-3-83.01-17.75-15.57-7.64-26.22-15.56-43.97-33.58-19.39-19.12-25.67-27.59-34.68-46.43-6-12.83-12.29-29.22-14.2-36.86-4.37-18.84-3.82-62.26 1.37-81.92 2.18-9.01 8.74-25.67 14.2-36.6 7.1-15.01 15.56-26.21 31.95-42.87 18.02-18.02 26.48-24.3 45.33-33.31 12.83-6 30.03-12.56 38.5-14.2 9.56-2.19 27.03-3 46.42-2.19 23.21 1.1 35.5 3 48.34 7.92 16.93 6.28 16.93 6.28 33.31-9.83 12.29-12.01 16.38-18.02 16.38-23.75 0-9.84-8.73-15.3-43.14-26.77-20.75-6.82-31.68-8.73-54.89-9.83-18.57-.54-35.5.55-47.79 3m-.81 118.78c-33.05 12.02-60.63 38.23-72.37 68.82-7.64 20.2-9.28 51.06-3.82 72.36 6 24.03 13.65 37.69 30.58 55.7 10.38 10.66 20.76 18.3 34.68 24.58 18.84 8.74 21.03 9.29 51.07 9.29 29.76 0 32.5-.55 49.97-8.74 21.84-10.38 44.78-31.95 54.89-52.16 9-18.02 15.29-41.78 15.29-58.7 0-14.48-4.92-37.42-8.2-37.42-1.09 0-12.28 9.56-24.84 21.58-19.12 17.75-23.49 23.48-26.22 34.13-4.37 15.3-19.93 33.31-34.95 40.14-14.2 6.55-37.69 6.55-51.89 0-13.38-6.28-27.03-20.2-32.5-33.59-13.64-32.77 5.47-75.1 37.42-83.01 9.83-2.19 54.61-50.52 50.8-54.34-1.37-1.64-14.75-3-29.23-3.28-20.48-.54-29.76.55-40.68 4.64" clip-rule="evenodd"/>
</svg>
