<svg xmlns="http://www.w3.org/2000/svg" width="512" height="449" fill="currentColor" viewBox="0 0 512 449">
    <path fill-rule="evenodd" d="M 143.181584909,113.906455049 C 138.961831205,116.281316435 133.157170007,121.95598522 131.042293447,125.915754099 c -1.18993054694,2.50485379839 -1.97988443944,7.91453804958 -1.97988443944,15.1741143275 c -0.129992412691,11.4793299823 -0.129992412691,11.4793299823 127.332567939,11.8743069285 C 383.992529418,153.229159888 383.992529418,153.229159888 383.992529418,143.064753157 c 0,-7.11958444889 -0.789953892509,-11.8693072203 -2.50485379839,-15.5640915656 c -2.90483045282,-6.19963814372 -8.44950682492,-11.749314224 -13.7241989553,-13.7241989553 c -5.27969183852,-2.10987685213 -220.887107411,-1.97988443944 -224.581891756,0.129992412691 m 17.9489523677,16.7590218207 c 2.63484621108,2.10987685213 2.89983074464,3.03482286551 1.84489231857,6.19963814372 c -1.05493842607,2.77483804013 -2.3748613857,3.95976887889 -5.01470730496,4.22475341245 c -4.48473823783,0.524969358944 -7.51956110337,-1.71489990588 -7.51956110337,-5.40968425121 c 0,-3.03482286551 3.55979222445,-7.51956110337 5.93465361016,-7.51956110337 c 0.92494601338,0 3.03482286551,1.18493083876 4.7497227714,2.50485379839 m 22.2986984847,0.129992412691 c 3.03482286551,3.03482286551 3.1648152782,4.35474582514 1.31492325145,8.04953017045 c -1.57990778501,2.89983074464 -7.78454563691,3.42979981176 -10.2893994353,0.92494601338 c -2.50985350657,-2.50485379839 -1.84989202675,-7.25957627795 1.31992295963,-9.49944554278 c 1.58490749319,-1.18993054694 3.42979981176,-2.10987685213 3.95976887889,-2.10987685213 c 0.659961479815,0 2.23986926482,1.18493083876 3.69478434533,2.63484621108 m 22.6936754309,-0.394976946253 c 2.76983833195,2.3748613857 3.1648152782,6.99459174441 0.789953892509,9.3694531301 c -0.919946305199,0.92494601338 -3.1648152782,1.58490749319 -5.01470730496,1.58490749319 c -4.08976129158,0 -6.59961479815,-2.244868973 -6.59961479815,-5.80966090565 c 0,-3.1648152782 3.69978405351,-7.3845689825 6.33962997277,-7.3845689825 c 1.18493083876,0 3.1648152782,0.919946305199 4.48473823783,2.23986926482 M 128.007470581,236.624292337 c 0,46.3122968752 0.529969067124,76.530533118 1.44991537232,80.2253174626 c 1.71489990588,7.78454563691 6.86459933171,14.2491683142 13.5942065425,17.2839911797 c 5.14469971765,2.3748613857 10.6843763816,2.50485379839 112.288446024,2.3748613857 c 78.6454096778,0 108.06869232,-0.524969358944 111.233507598,-1.58490749319 c 5.14969942583,-1.97488473126 11.4793299823,-7.64955351604 14.384160435,-13.3242223008 c 2.244868973,-4.22475341245 2.244868973,-0.92494601338 1.71489990588,-154.250996782 c 0,-4.88471489227 0,-4.88471489227 -127.332567939,-4.88471489227 L 128.007470581,162.463620897 z m 231.576483501,-39.8476741979 c 0,3.29480769089 0,3.29480769089 -37.0828355741,3.68978463714 c -33.5130439333,0.264984533562 -37.2078282787,0.134992120871 -37.9977821712,-1.84989202675 c -0.529969067124,-1.18493083876 -0.134992120871,-3.02982315733 0.659961479815,-3.95476917071 c 1.31492325145,-1.58490749319 8.17952258319,-1.84989202675 37.9977821712,-1.58490749319 c 36.4228740944,0.399976654433 36.4228740944,0.399976654433 36.4228740944,3.69978405351 m -157.685796302,26.9134291352 c 0,27.8433748568 0,28.3683442157 2.90483045282,29.1632978163 c 1.44991537232,0.524969358944 9.10446859656,0.789953892509 16.7590218207,0.524969358944 c 7.64955351604,-0.129992412691 18.6039141393,-0.259984825381 24.4085753368,-0.129992412691 c 10.4243915561,0.264984533562 10.4243915561,0.264984533562 9.63443766364,5.40968425121 c -1.84989202675,14.2491683142 -15.1741143275,31.4031670812 -29.5582747626,38.132774292 c -6.85959962353,3.16981498638 -9.23446100924,3.42979981176 -22.1687060719,3.56479193264 c -13.8491916598,0 -15.0391222067,-0.264984533562 -23.3536369107,-4.35474582514 c -14.7791373813,-7.25957627795 -24.5435674576,-20.8487831124 -27.3134057896,-38.132774292 c -3.16981498638,-20.1888216325 5.14969942583,-40.9076123321 21.2437600586,-52.7819192607 c 7.25457656976,-5.27969183852 17.8139602468,-9.49944554278 23.8836059779,-9.63443766364 c 3.55979222445,0 3.55979222445,0 3.55979222445,28.238351803 m 27.3134057896,-23.6186214443 c 3.95976887889,1.97988443944 9.89942219725,6.72960721084 13.9891834888,11.2143454486 c 7.38956869062,8.04953017045 11.6093223949,16.4990369954 13.4592144217,27.3134057896 c 0.92494601338,5.67466878478 0.92494601338,5.67466878478 -22.9586599644,5.67466878478 s -23.8836059779,0 -23.8836059779,-24.5435674576 c 0,-24.6735598704 0,-24.6735598704 6.33463026459,-23.748613857 c 3.42979981176,0.399976654433 9.23446100924,2.3748613857 13.0592377673,4.08976129158 m 130.372390513,17.8139602468 c 0,3.29980739907 0,3.29980739907 -37.0828355741,3.69478434533 c -33.5130439333,0.264984533562 -37.2078282787,0.129992412691 -37.9977821712,-1.84989202675 c -0.529969067124,-1.18493083876 -0.134992120871,-3.03482286551 0.659961479815,-3.95476917071 c 1.31492325145,-1.58490749319 8.17952258319,-1.84989202675 37.9977821712,-1.58490749319 c 36.4228740944,0.399976654433 36.4228740944,0.399976654433 36.4228740944,3.69478434533 m -27.713382444,63.9962647093 c 0,27.7083827359 0,27.7083827359 -9.23446100924,27.7083827359 c -9.23946071742,0 -9.23946071742,0 -9.63443766364,-26.3884597762 c -0.129992412691,-14.5141528478 0,-27.0484212561 0.399976654433,-28.1083593903 c 0.394976946253,-1.18493083876 3.02982315733,-1.57990778501 9.49944554278,-1.31992295963 c 8.9694764757,0.399976654433 8.9694764757,0.399976654433 8.9694764757,28.1083593903 m 27.3134057896,-5.54467637209 c 1.31992295963,1.31992295963 1.58490749319,5.54467637209 1.05493842607,17.5489757133 c -0.654961771635,15.7040833947 -0.654961771635,15.7040833947 -9.49944554278,16.099060341 c -8.9694764757,0.399976654433 -8.9694764757,0.399976654433 -8.9694764757,-16.7540221126 s 0,-17.153998767 6.98959203622,-17.6839678342 c 3.69978405351,-0.264984533562 7.25957627795,-0.524969358944 7.7895453451,-0.659961479815 c 0.524969358944,-0.129992412691 1.71489990588,0.529969067124 2.63484621108,1.44991537232 m -57.2666574985,3.8297764662 c 1.84989202675,1.84989202675 2.244868973,25.7284982964 0.399976654433,28.4983366284 c -0.659961479815,1.18993054694 -3.56479193264,1.58490749319 -9.49944554278,1.31992295963 c -8.44950682492,-0.394976946253 -8.44950682492,-0.394976946253 -8.84448377114,-14.1191759015 c -0.129992412691,-7.64955351604 0,-14.6491449686 0.264984533562,-15.5690912738 c 0.92494601338,-2.23986926482 15.4390988611,-2.3748613857 17.678968126,-0.129992412691" clip-rule="evenodd"/>
</svg>
