<svg xmlns="http://www.w3.org/2000/svg" width="512" height="427" fill="currentColor" viewBox="0 0 512 427">
    <path fill-rule="evenodd" d="M435.03 5.82c-20.38 3.03-38.84 6.89-40.76 8.54-7.17 5.78-2.2 14.05 12.94 21.76 8.26 4.13 15.43 8.26 16.25 9.09.83.55-16.25 19.83-37.73 42.41-23.96 25.34-38.84 42.97-38.84 46.55 0 7.71 12.95 17.63 19 14.6 2.49-1.38 21.49-20.1 42.42-41.31 20.94-21.49 38.84-38.84 39.94-38.84 1.1.28 5.23 7.71 9.37 16.53 6.05 13.77 8.53 16.52 14.04 16.52 3.86 0 7.44-1.93 8.54-4.13.83-2.2 3.3-23.41 5.78-47.1 4.69-46 3.86-50.95-7.98-50.4-3.03 0-22.59 2.75-42.97 5.78m-205.2 88.14c-8.53 4.68-20.93 16.8-24.5 24.24-9.37 18.18-7.17 40.49 5.77 57.56 8.27 10.74 25.9 19.56 39.4 19.56 21.75 0 47.37-20.38 51.22-39.94 4.4-24.24-6.6-49.03-26.44-59.22-11.84-6.06-36.36-7.43-45.45-2.2M68.71 198.35c-3.86 1.65-11.57 7.16-17.08 12.67-7.71 7.43-11.02 13.77-13.5 24.79-2.75 11.29-2.47 17.07 0 25.61 3.86 13.5 16.53 28.37 27.82 33.05 4.69 1.93 15.15 3.03 24.52 2.2 12.4-.82 18.73-3.02 26.44-8.8 5.5-4.41 12.67-12.95 15.42-19.29 6.06-13.5 6.61-32.22 1.38-42.41-5.23-10.2-20.66-24.52-30.02-27.82-9.64-3.58-25.62-3.58-34.98 0m338.78 0c-9.1 3.58-21.49 15.7-26.72 25.89-2.48 4.4-4.4 14.32-4.4 22.03 0 29.47 20.93 50.96 50.12 50.96 7.99 0 17.63-1.66 21.76-3.86 16.8-8.81 30.85-30.85 30.85-49.03 0-14.32-9.92-31.4-23.96-40.48-10.2-6.89-15.7-8.54-26.72-8.27-7.71 0-17.08 1.38-20.93 2.76m-179.03 14.32c-24.8 6.89-45.17 24.24-55.36 47.1-3.59 7.99-6.34 21.76-7.17 34.43-2.2 32.22-7.16 30.57 84.29 30.57 59.21 0 77.4-.83 81.25-3.58 4.4-3.3 4.96-6.89 3.85-28.37-1.37-27.82-6.88-41.31-23.4-57.84-20.39-20.38-56.2-30.02-83.46-22.31M57.69 318.16c-6.89 2.48-18.73 9.09-26.72 15.15-18.73 14.05-28.1 33.05-30.3 61.42-1.37 17.9-.82 21.76 3.31 26.44 4.68 5.23 8.54 5.51 81.25 5.51s76.57-.28 81.26-5.5c4.13-4.7 4.68-8.55 3.3-25.62-.83-11.02-3.3-24.8-5.5-30.3-6.07-14.32-25.62-34.43-41.87-42.42-17.63-9.09-46.55-11.29-64.73-4.68m342.91-.83c-17.08 5.79-26.72 11.57-37.73 23.14-15.7 16.25-21.49 31.4-21.49 57.56 0 13.5 1.38 23.42 3.3 25.34 2.49 2.48 24.25 3.31 80.71 3.31 74.1 0 77.95-.28 82.63-5.5 4.13-4.7 4.68-8.55 3.3-25.9-.82-11.3-3.85-26.17-6.88-32.78-6.89-15.42-24.24-32.5-41.04-40.76-15.42-7.44-46.82-9.64-62.8-4.4" clip-rule="evenodd"/>
</svg>
