<svg xmlns="http://www.w3.org/2000/svg" width="473" height="512" fill="currentColor" viewBox="0 0 473 512">
    <path fill-rule="evenodd" d="M 199.244333127,15.3991569571 c -11.8729969337,1.78804495655 -41.4845351031,11.0688497311 -54.1806003502,17.2465923587 c -10.5769008541,5.04247598859 -16.5938140413,8.45773646116 -34.1715258364,19.8482450733 c -12.8474341323,8.29690702063 -41.0020467815,35.4770824713 -50.5950498818,48.9772949211 c -14.9760590806,20.9835117124 -28.6371009709,47.5109088456 -35.6379119119,69.308028316 c -8.45773646116,26.0354482563 -10.8985597352,41.8156545395 -11.7121674932,75.495231499 c -0.974437198546,38.4098546223 1.78804495655,61.8341896087 10.4066108583,88.683245623 c 10.255241973,31.7307025624 27.8234932128,64.4263817679 46.214812766,85.5801834762 c 13.1785535687,15.4585474022 28.4762715303,29.4507087289 41.654825099,38.5612235075 c 16.7546434818,11.3905086121 40.6803879005,24.7393521767 44.5781366946,24.7393521767 c 0.974437198546,0 4.06803879005,0.974437198546 6.83998150047,2.27053327816 c 7.64412870316,3.25443103204 27.9843226534,8.79831645289 40.8317567857,10.9080202905 c 14.3232807631,2.44082327403 62.6477973667,0.813607758009 77.4535664514,-2.44082327403 c 27.3410048912,-6.187203183 44.909256131,-13.0177241281 68.3335911174,-26.8490560143 c 14.4841102036,-8.45773646116 38.5612235075,-28.7979304114 49.7909026791,-41.9764839801 c 4.39915822644,-5.20330542913 8.78885589756,-10.4160714136 9.93358309197,-11.5513380527 c 1.94887439709,-1.95833495242 6.01691318714,-8.13607758009 17.0763023629,-25.5434993794 c 6.33857206821,-10.255241973 15.6193768427,-30.9170948043 21.8065800257,-48.8164654805 c 3.0936015915,-8.9496853381 7.00081094101,-25.3826699388 8.78885589756,-36.6123491104 c 5.20330542913,-33.1876280825 3.89774879418,-85.0976951546 -2.61111326989,-111.445341737 c -4.88164654805,-18.8832684301 -12.6866046917,-39.2234623803 -22.2890683473,-58.2580996956 c -5.36413486966,-10.4066108583 -11.0688497311,-20.3401939502 -12.5257752512,-21.9674094662 a 30.2738,30.2738 0 0,1 -4.22886823058,-5.36413486966 c -7.97524813955,-13.6705024456 -38.4098546223,-43.773989492 -56.6214236242,-55.9781058621 a 284.763,284.763 0 0,0 -27.3410048912,-15.7802062832 c -16.1113257196,-7.97524813955 -43.4428700556,-16.5938140413 -59.3839057793,-19.0346373153 c -13.5096730051,-2.11916439295 -58.5797585767,-2.11916439295 -72.4110904628,0 m 78.2671742094,37.90844519 C 305.49582999,60.4692425287 338.200969751,78.0374937685 358.541163701,96.5896427622 c 28.3059815345,26.0354482563 48.1542266077,56.7822530648 60.0366840968,93.8770904968 c 13.1785535687,41.0115073369 13.0177241281,91.124068897 -0.321658881073,131.965286238 c -9.27134421917,27.9843226534 -21.6457505852,50.5950498818 -39.7059507019,72.0799710264 c -17.4074217993,20.8226822718 -41.1628762221,39.8573195871 -63.7830640058,51.0869987587 c -14.3138202078,7.16164038155 -38.400394067,14.8057690847 -54.0197709097,17.2465923587 c -17.5682512398,2.7624821551 -49.2894932468,0.813607758009 -66.0535972839,-3.90720934951 c -16.9249334777,-5.04247598859 -17.4074217993,-5.20330542913 -32.5443103204,-12.0338263743 c -14.8057690847,-6.83998150047 -36.1204002335,-20.8321428272 -48.1542266077,-31.7307025624 c -8.95914589343,-8.29690702063 -29.6209987247,-33.1970886378 -36.1298607888,-43.6131600514 c -12.5257752512,-20.1699039544 -25.7043288199,-53.3575320369 -29.6115381694,-74.0288454235 c -0.974437198546,-5.36413486966 -2.27053327816,-20.3401939502 -2.77194271043,-33.3579180784 c -0.974437198546,-28.6276404155 1.95833495242,-53.3575320369 9.27134421917,-75.3344020584 c 14.4841102036,-43.2725800597 39.3842918208,-78.4280036499 74.8519137368,-105.106769668 c 9.27134421917,-7.00081094101 42.468432857,-24.0771133039 51.2572887546,-26.3571071374 c 2.60165271456,-0.652778317472 9.27134421917,-2.44082327403 14.6449396442,-3.90720934951 c 16.9154729223,-4.72081710752 23.9162838633,-5.53442486553 44.7484266905,-5.04247598859 c 15.2882574063,0.491948876936 24.5596016255,1.79750551188 37.2556668726,4.88164654805 M 127.977969859,131.404486361 c 0,7.16164038155 -0.160829440537,7.48329926262 -4.88164654805,7.48329926262 c -4.06803879005,0 -4.88164654805,0.662238872798 -4.88164654805,3.90720934951 c 0,3.0936015915 0.974437198546,4.06803879005 4.55998766698,4.55998766698 c 4.38969767112,0.48248832161 4.38969767112,0.48248832161 4.88164654805,29.2898792883 c 0.321658881073,28.9492992966 0.321658881073,28.9492992966 -23.2729661012,28.9492992966 c -23.5851644269,0 -23.5851644269,0 -23.5851644269,3.91666990483 c 0,3.40579991725 0.813607758009,3.89774879418 9.92412253665,4.88164654805 c 5.5249643102,0.48248832161 16.2721551602,0.974437198546 23.5851644269,0.974437198546 c 13.6705024456,0 13.6705024456,0 13.6705024456,18.7129784342 c 0,15.7802062832 0.331119436399,18.7129784342 2.44082327403,18.7129784342 c 2.11916439295,0 1.79750551188,1.13526663908 -1.13526663908,6.50886206407 c -3.74637990897,6.49940150875 -3.74637990897,6.49940150875 -28.6371009709,6.49940150875 c -14.001621882,0 -26.3571071374,0.813607758009 -28.1546126492,1.62721551602 c -2.44082327403,1.30555663494 -3.08414103617,3.4247210279 -3.08414103617,9.44163421504 c 0,4.38969767112 0.813607758009,8.62802645703 1.94887439709,9.76329309611 c 1.30555663494,1.29609607962 10.255241973,1.94887439709 29.2898792883,1.94887439709 c 27.3410048912,0 27.3410048912,0 27.3410048912,18.7129784342 c 0,18.5426884383 0,18.5426884383 -11.7310886039,19.0346373153 c -11.5418774973,0.491948876936 -11.8729969337,0.662238872798 -12.3554852553,5.05193654392 c -0.491948876936,4.38969767112 -0.491948876936,4.38969767112 11.7121674932,4.38969767112 c 12.3649458107,0 12.3649458107,0 12.3649458107,20.3401939502 s 0,20.3401939502 3.90720934951,20.3401939502 c 3.0936015915,0 3.90720934951,-0.983897753871 4.88164654805,-6.02637374246 c 0.491948876936,-3.41526047257 0.974437198546,-23.2729661012 0.974437198546,-44.0861878177 c 0,-23.5946249823 0.652778317472,-37.7476157495 1.62721551602,-37.7476157495 c 0.813607758009,0 3.74637990897,-3.74637990897 6.33857206821,-8.46719701649 c 4.89110710338,-8.45773646116 4.89110710338,-8.45773646116 8.13607758009,-0.974437198546 c 3.26389158736,7.64412870316 5.70471486139,9.43217365971 13.188014124,9.43217365971 c 2.44082327403,0 5.36413486966,0.974437198546 6.33857206821,2.11916439295 c 0.983897753871,1.29609607962 2.93277215096,5.36413486966 4.23832878591,9.27134421917 c 3.73691935365,10.5769008541 6.50886206407,13.0177241281 15.4585474022,13.0177241281 c 8.6185659017,0 12.0338263743,-2.60165271456 13.8313318862,-10.5769008541 c 1.29609607962,-5.36413486966 9.92412253665,-32.213190884 12.2041163701,-37.4259568684 c 0.804147202683,-1.78804495655 2.27053327816,-7.15217982622 3.24497047671,-11.8729969337 c 1.13526663908,-4.72081710752 3.25443103204,-11.8824574891 4.73027766284,-15.7802062832 c 2.7624821551,-7.32246982208 2.7624821551,-7.32246982208 6.49940150875,20.6618528313 c 2.11916439295,15.4585474022 4.38969767112,32.213190884 5.20330542913,37.094837432 c 0.662238872798,4.88164654805 1.30555663494,11.7216280485 1.30555663494,14.9760590806 c 0.160829440537,5.36413486966 -0.321658881073,6.01691318714 -4.22886823058,6.49940150875 c -3.57608991311,0.331119436399 -4.72081710752,1.46638607548 -5.04247598859,4.88164654805 c -0.491948876936,4.55998766698 -0.491948876936,4.55998766698 -43.6131600514,4.55998766698 c -42.9509211786,0 -42.9509211786,0 -42.9509211786,3.90720934951 c 0,3.25443103204 0.974437198546,4.06803879005 6.187203183,4.88164654805 c 8.29690702063,1.13526663908 31.8820714476,1.62721551602 63.4519445694,1.29609607962 c 26.3571071374,-0.321658881073 26.3571071374,-0.321658881073 26.5179365779,-9.76329309611 c 0.331119436399,-9.27134421917 0.331119436399,-9.27134421917 1.62721551602,-1.94887439709 c 0.662238872798,4.06803879005 1.95833495242,13.3393830092 2.93277215096,20.6618528313 c 2.27053327816,18.0696606721 3.41526047257,20.0185350692 12.0432869296,20.0185350692 c 3.73691935365,0 8.13607758009,-1.13526663908 9.76329309611,-2.44082327403 c 1.78804495655,-1.30555663494 4.55052711166,-8.13607758009 6.83052094515,-16.6032745966 c 2.11916439295,-7.80495814369 5.04247598859,-16.9154729223 6.33857206821,-20.0090745138 c 2.28945438882,-5.37359542499 2.45028382935,-3.74637990897 2.61111326989,27.1707148954 c 0,33.026798642 0,33.026798642 -21.1538017082,33.026798642 s -21.1538017082,0 -21.1538017082,-21.9579489109 s 0,-21.9674094662 -3.89774879418,-21.9674094662 c -2.11916439295,0 -4.39915822644,1.13526663908 -4.88164654805,2.60165271456 c -0.491948876936,1.46638607548 -0.983897753871,11.2296791716 -0.983897753871,21.6362900298 c 0,19.2049273111 0,19.2049273111 -9.92412253665,20.3401939502 c -16.5938140413,1.62721551602 -30.7468048085,1.13526663908 -31.5604125665,-1.13526663908 c -0.331119436399,-0.974437198546 -1.13526663908,-12.0432869296 -1.62721551602,-24.4082327403 c -1.13526663908,-22.1282389068 -1.13526663908,-22.2890683473 -5.04247598859,-22.2890683473 s -3.90720934951,0 -3.90720934951,23.4243349864 c 0,23.5946249823 0,23.5946249823 -11.3905086121,24.7393521767 c -10.5769008541,0.974437198546 -11.3905086121,1.29609607962 -11.3905086121,4.88164654805 c 0,4.38969767112 -2.93277215096,4.06803879005 47.1892499645,4.55052711166 c 13.8218713308,0 26.1962776968,0.813607758009 27.3315443359,1.46638607548 c 0.974437198546,0.813607758009 1.94887439709,3.41526047257 1.94887439709,6.187203183 c 0,3.89774879418 0.662238872798,4.71135655219 4.06803879005,4.71135655219 c 3.58555046844,0 4.06803879005,-0.643317762147 4.06803879005,-6.17774262767 c 0,-6.02637374246 0,-6.02637374246 20.8321428272,-6.02637374246 c 20.6618528313,0 20.6618528313,0 21.1538017082,6.83998150047 c 0.48248832161,6.17774262767 0.974437198546,7.00081094101 4.55052711166,7.00081094101 c 3.41526047257,0 3.90720934951,-0.662238872798 3.90720934951,-6.5183226194 c 0,-4.38969767112 0.813607758009,-7.00081094101 2.44082327403,-7.47383870729 c 2.7624821551,-1.14472719441 3.41526047257,-8.79831645289 0.813607758009,-8.79831645289 c -1.13526663908,0 -1.62721551602,-8.94022478277 -1.30555663494,-25.5434993794 c 0.491948876936,-25.7043288199 0.491948876936,-25.7043288199 21.3146311488,-26.1962776968 c 20.6713133866,-0.48248832161 20.6713133866,-0.48248832161 20.6713133866,29.7818281653 c 0,30.094026491 0,30.094026491 4.06803879005,30.094026491 s 4.06803879005,0 4.38969767112,-18.3818589978 c 0.321658881073,-9.93358309197 0.48248832161,-23.4337955417 0.48248832161,-29.6115381694 c 0,-11.3905086121 0,-11.3905086121 11.8824574891,-11.8824574891 c 11.0688497311,-0.48248832161 11.7121674932,-0.652778317472 11.7121674932,-4.22886823058 c 0,-2.10970383763 -1.13526663908,-4.38969767112 -2.60165271456,-4.88164654805 c -1.46638607548,-0.48248832161 -6.50886206407,-0.974437198546 -11.3905086121,-0.974437198546 c -8.78885589756,0 -8.78885589756,0 -8.78885589756,-9.44163421504 c 0,-5.04247598859 -0.48248832161,-13.1785535687 -0.974437198546,-17.8899101209 c -0.974437198546,-7.49275981794 -1.46638607548,-8.46719701649 -4.88164654805,-8.46719701649 c -3.89774879418,0 -3.89774879418,0.160829440537 -3.89774879418,17.8993706762 c 0,18.0696606721 0,18.0696606721 -21.4754605893,17.5777117951 c -21.002432823,-0.491948876936 -21.6457505852,-0.662238872798 -22.1376994621,-4.23832878591 c -0.48248832161,-2.60165271456 -1.62721551602,-3.57608991311 -4.55052711166,-3.57608991311 c -2.11916439295,0 -3.90720934951,-0.160829440537 -3.90720934951,-0.491948876936 c 0,-0.160829440537 2.27053327816,-6.50886206407 4.88164654805,-14.1529907672 c 2.7624821551,-7.64412870316 4.88164654805,-13.9921613267 4.88164654805,-14.1529907672 c 0,-0.331119436399 5.36413486966,-0.491948876936 11.8729969337,-0.491948876936 c 10.7377302947,0 12.3649458107,-0.48248832161 15.4585474022,-4.06803879005 a 41.6264,41.6264 0 0,0 5.69525430606,-9.27134421917 c 2.11916439295,-5.37359542499 2.11916439295,-5.37359542499 7.00081094101,3.57608991311 c 4.71135655219,8.9496853381 4.71135655219,8.9496853381 34.8148435985,9.44163421504 c 16.6032745966,0.160829440537 31.7307025624,0 33.8498669553,-0.491948876936 c 3.08414103617,-0.813607758009 3.57608991311,-1.94887439709 3.57608991311,-9.43217365971 c 0,-4.72081710752 -0.813607758009,-9.44163421504 -1.94887439709,-10.5769008541 c -1.30555663494,-1.30555663494 -9.44163421504,-1.95833495242 -25.7137893752,-1.95833495242 c -23.7459938675,0 -23.7459938675,0 -30.1034870463,-13.3393830092 c -4.06803879005,-8.6185659017 -5.5249643102,-13.5002124498 -4.38969767112,-13.9921613267 c 1.30555663494,-0.321658881073 1.94887439709,-4.72081710752 1.94887439709,-11.8729969337 c 0,-11.2296791716 0,-11.2296791716 12.6960652471,-11.2296791716 c 6.83052094515,0 16.4329846007,-0.491948876936 21.1538017082,-0.974437198546 c 7.47383870729,-0.983897753871 8.45773646116,-1.46638607548 8.45773646116,-4.88164654805 c 0,-3.74637990897 -0.160829440537,-3.74637990897 -21.3146311488,-4.22886823058 c -21.3146311488,-0.491948876936 -21.3146311488,-0.491948876936 -21.9674094662,-26.5273971332 c -0.321658881073,-14.3138202078 -0.160829440537,-27.3410048912 0.331119436399,-28.7979304114 c 0.643317762147,-2.11916439295 2.60165271456,-2.93277215096 7.32246982208,-2.93277215096 c 5.69525430606,0 6.33857206821,-0.48248832161 6.33857206821,-3.89774879418 c 0,-3.58555046844 -0.813607758009,-4.06803879005 -6.83052094515,-4.55998766698 c -6.83052094515,-0.491948876936 -7.00081094101,-0.652778317472 -7.48329926262,-6.66969150461 c -0.491948876936,-5.20330542913 -1.13526663908,-6.01691318714 -4.55998766698,-6.01691318714 c -3.40579991725,0 -3.89774879418,0.643317762147 -3.89774879418,6.50886206407 c 0,6.49940150875 0,6.49940150875 -98.2762487232,6.33857206821 c -98.4465387191,-0.160829440537 -98.4465387191,-0.160829440537 -98.9290270407,-6.83052094515 c -0.491948876936,-6.01691318714 -0.974437198546,-6.83052094515 -4.88164654805,-7.32246982208 c -4.39915822644,-0.491948876936 -4.55998766698,-0.321658881073 -4.55998766698,6.83052094515 m 102.505116954,22.2985289026 c 0,3.08414103617 -1.45692552016,6.17774262767 -3.89774879418,8.45773646116 c -2.77194271043,2.44082327403 -4.73027766284,7.32246982208 -6.67915205994,15.7802062832 a 433.293,433.293 0 0,1 -5.36413486966,19.8482450733 c -2.11916439295,6.187203183 -3.41526047257,7.81441869902 -6.33857206821,7.81441869902 s -3.74637990897,0.974437198546 -3.74637990897,4.06803879005 c 0,2.60165271456 0.974437198546,4.06803879005 2.44082327403,4.06803879005 c 1.29609607962,0 2.44082327403,0.652778317472 2.44082327403,1.62721551602 c 0,0.813607758009 -2.44082327403,9.11051477864 -5.53442486553,18.2210295573 c -3.0936015915,9.27134421917 -6.02637374246,19.3657567517 -6.66969150461,22.4593583432 a 52.0331,52.0331 0 0,1 -3.58555046844,10.4066108583 c -2.10970383763,4.06803879005 -2.7624821551,4.39915822644 -4.06803879005,2.11916439295 c -0.974437198546,-1.95833495242 -3.57608991311,-2.77194271043 -8.29690702063,-2.77194271043 c -7.48329926262,-0.160829440537 -6.50886206407,1.13526663908 -15.6099162874,-19.6779550774 c -2.28945438882,-5.20330542913 -4.89110710338,-8.13607758009 -8.13607758009,-9.60246365557 c -6.187203183,-2.44082327403 -14.1624513226,-0.813607758009 -17.2560529141,3.73691935365 c -2.27053327816,3.25443103204 -2.44082327403,2.44082327403 -2.44082327403,-10.7377302947 c 0,-14.1529907672 0,-14.1529907672 22.6107272284,-14.1529907672 c 12.374406366,0 25.8746188158,-0.491948876936 30.1034870463,-0.974437198546 c 6.50886206407,-0.983897753872 7.49275981794,-1.62721551602 7.49275981794,-4.88164654805 c 0,-3.90720934951 0,-3.90720934951 -30.1034870463,-3.90720934951 s -30.1034870463,0 -30.1034870463,-28.3154420898 c 0,-28.4762715303 0,-28.4762715303 46.3756422065,-28.4762715303 c 46.3661816512,0 46.3661816512,0 46.3661816512,4.89110710338 m 52.0708965126,23.4243349864 c 0,28.4762715303 0,28.4762715303 -13.0177241281,28.4762715303 s -13.0177241281,0 -13.0177241281,5.04247598859 s 0,5.04247598859 13.0177241281,4.38969767112 c 13.0177241281,-0.48248832161 13.0177241281,-0.48248832161 13.0177241281,25.0704716131 c 0,20.4915628354 -0.491948876936,25.6948682646 -2.11916439295,25.6948682646 c -3.89774879418,0 -7.15217982622,5.37359542499 -11.8729969337,19.2049273111 c -2.44082327403,7.32246982208 -4.88164654805,12.8568946876 -5.37359542499,12.3649458107 c -1.13526663908,-0.974437198546 -4.71135655219,-25.7043288199 -9.76329309611,-67.3591539189 c -6.01691318714,-48.8164654805 -8.45773646116,-64.2750128827 -10.8985597352,-67.8511027958 c -1.30555663494,-1.94887439709 -2.27053327816,-5.86554430193 -2.27053327816,-8.62802645703 c 0,-4.88164654805 0,-4.88164654805 21.1443411529,-4.88164654805 s 21.1538017082,0 21.1538017082,28.4762715303 m 52.0708965126,0 c 0,28.4762715303 0,28.4762715303 -21.1538017082,28.4762715303 s -21.1538017082,0 -21.1538017082,-7.81441869902 c 0,-4.22886823058 -0.491948876936,-16.9154729223 -1.13526663908,-28.4762715303 c -0.983897753871,-20.6618528313 -0.983897753871,-20.6618528313 21.1443411529,-20.6618528313 c 22.2985289026,0 22.2985289026,0 22.2985289026,28.4762715303 m 0,47.0189599687 c 0,8.95914589343 0,8.95914589343 -5.37359542499,7.97524813955 c -3.74637990897,-0.48248832161 -6.33857206821,0.170289995862 -8.78885589756,2.27999383349 c -1.94887439709,1.62721551602 -6.83052094515,9.11051477864 -10.8985597352,16.7641040371 c -6.33857206821,12.3649458107 -7.64412870316,13.8218713308 -12.2041163701,14.3138202078 c -5.04247598859,0.491948876936 -5.04247598859,0.491948876936 -5.04247598859,-24.7298916213 c 0,-25.3826699388 0,-25.3826699388 21.1538017082,-25.3826699388 s 21.1538017082,0 21.1538017082,8.78885589756 m -156.203228982,-26.6787660184 c 0,5.86554430193 0.48248832161,6.50886206407 4.06803879005,6.50886206407 c 3.73691935365,0 4.06803879005,-0.652778317472 4.06803879005,-6.50886206407 c 0,-5.86554430193 -0.331119436399,-6.50886206407 -4.06803879005,-6.50886206407 c -3.58555046844,0 -4.06803879005,0.652778317472 -4.06803879005,6.50886206407 m 0,31.7307025624 c 0,11.8729969337 0.160829440537,12.2041163701 4.06803879005,12.2041163701 s 4.06803879005,-0.331119436399 4.06803879005,-12.2041163701 s -0.160829440537,-12.2041163701 -4.06803879005,-12.2041163701 s -4.06803879005,0.321658881073 -4.06803879005,12.2041163701 M 308.589431582,391.900877253 c 0,3.58555046844 0.652778317472,4.06803879005 6.50886206407,4.06803879005 s 6.50886206407,-0.48248832161 6.50886206407,-4.06803879005 c 0,-3.73691935365 -0.662238872798,-4.06803879005 -6.50886206407,-4.06803879005 c -5.86554430193,0 -6.50886206407,0.331119436399 -6.50886206407,4.06803879005" clip-rule="evenodd"/>
</svg>
