<svg xmlns="http://www.w3.org/2000/svg" width="512" height="475" fill="currentColor" viewBox="0 0 512 475">
    <path fill-rule="evenodd" d="M392.87 12.48c-21.6 6.61-51.1 15.5-65.08 20.08-24.91 7.63-30.5 11.44-27.45 18.81.5 2.04 9.66 8.4 20.08 14.24s19.07 11.95 19.07 13.22c0 5.85-67.11 75.24-97.11 100.67-28.98 24.15-78.3 56.43-116.43 75.75-32.28 16.27-77.02 32.8-107.53 39.66-9.66 2.03-15.76 4.83-17.29 7.88-3.55 6.86 1.53 12.2 11.44 12.2 12.71 0 65.84-13.73 100.93-26.18 52.62-18.56 106.5-45.5 151.76-76.01 25.93-17.54 63.55-48.56 91.77-75.5 13.22-12.71 24.66-23.14 25.42-23.14s7.12 8.14 13.72 17.8c9.66 13.98 13.48 17.8 18.56 17.8 4.07 0 6.87-1.79 8.4-5.85 1-3.05 6.85-35.08 12.96-70.93 8.9-53.64 10.42-66.1 7.62-69.4-1.78-2.03-5.08-3.81-7.37-3.56-2.29 0-21.86 5.6-43.47 12.46m-23.9 226.5c-16.26 4.07-39.9 18.05-53.63 31.52-6.87 7.12-15.76 18.56-19.58 25.68-19.83 36.86-19.57 84.14 1.02 120.24 11.18 19.57 30.25 36.86 52.11 47.79 15.5 7.63 22.12 9.4 39.15 10.42 25.68 1.53 47.54-4.07 67.87-17.03 28.98-18.81 48.81-49.83 54.4-84.9 2.3-15 2.3-23.14-.25-36.87-7.12-39.9-31.27-71.43-67.87-88.71-17.29-8.14-22.37-9.41-41.44-10.17-11.95-.26-26.18.5-31.78 2.03m35.09 39.4a31 31 0 0 1 1.52 8.4c0 2.53 4.07 6.1 10.17 8.89 5.85 2.54 12.2 7.12 14.23 10.42 3.06 4.58 3.3 7.12 1.02 11.19-3.81 7.11-12.2 6.6-19.32-1.02-11.18-12.2-34.06-5.6-34.06 9.66 0 8.13 6.35 13.47 20.33 17.03 6.36 1.53 16.27 5.6 22.12 9.15 7.88 4.58 11.7 8.9 15 17.54 3.56 9.66 3.81 13.22 1.27 21.61-3.05 10.42-14.49 21.86-24.4 24.4-4.83 1.28-6.36 3.56-6.87 10.68-.76 8.65-1.52 9.4-8.39 9.4-6.6 0-7.62-1-8.39-7.87-.76-6.87-2.28-8.65-11.69-12.2-11.18-4.33-19.83-11.95-22.62-20.09-1.02-2.8.25-6.35 3.3-9.4 2.8-2.8 6.36-5.09 7.88-5.09 1.53 0 6.36 4.07 10.93 8.9 6.61 7.12 10.43 8.9 17.8 8.9 6.6 0 11.18-1.78 15.5-6.36 3.56-3.3 6.36-7.62 6.36-9.4 0-7.38-8.14-14.5-21.1-18.56-24.15-7.88-29.23-11.19-35.08-23.13-3.81-8.14-4.83-13.73-3.81-20.09 2.28-11.44 12.2-23.13 23.13-27.2 7.12-2.28 8.9-4.32 8.9-9.66 0-3.8.76-7.62 1.78-8.39 3.05-3.3 12.96-1.77 14.49 2.3M201.2 288.55c-3.56 3.3-4.07 15-4.07 88.47 0 62.28.76 85.16 3.05 87.44 4.07 4.07 48.3 4.07 52.37 0 4.32-4.32 4.32-172.6 0-176.93-2.04-2.03-11.44-3.05-25.17-3.05-16.78 0-23.13 1.02-26.18 4.07m-79.82 49.83c-2.3 2.28-3.05 18.55-3.05 61.26 0 35.08 1.01 60 2.54 63.04 2.28 4.33 5.59 4.83 26.18 4.83 12.97 0 24.91-1.01 26.7-2.03 2.28-1.78 3.04-16.52 2.53-65.59-.76-63.3-.76-63.3-26.18-64.06-17.8-.5-26.44.26-28.72 2.55m-74.49 37.36c-2.03.51-4.32 2.3-5.34 3.82s-2.03 20.59-2.03 42.2c0 27.45 1.02 40.67 3.05 42.7 4.07 4.07 48.3 4.07 52.37 0 2.03-2.03 3.05-15.5 3.05-44.48 0-39.15-.26-41.44-5.34-43.98-4.83-2.8-37.88-2.8-45.76-.26" clip-rule="evenodd"/>
</svg>
