<svg xmlns="http://www.w3.org/2000/svg" width="479" height="512" fill="currentColor" viewBox="0 0 479 512">
    <path fill-rule="evenodd" d="M209.57 2.24C179.26 6.97 154.9 14.86 129.67 28 112.49 37.11 88.49 55 73.59 70.23c-27.16 27.69-45.03 55.72-57.3 89.72C2.29 198.67 0 211.64 0 256.32c0 29.26.7 39.95 3.33 51.7 8.23 38.02 23.3 73.59 43.46 102.85 11.03 16.12 34.87 41.53 48.7 52.04 30.15 22.96 59.4 36.97 94.63 45.03 13.67 3.33 22.08 4.03 47.31 4.03 23.48.18 34.34-.52 46.44-3.15 32.59-6.66 66.23-21.55 91.11-40.13 16.47-12.09 41.88-37.67 53.8-53.79 11.21-14.9 26.1-41.18 29.96-52.74 1.58-4.2 4.03-10.7 5.43-14.37 3.68-8.24 9.11-31.02 12.44-50.3 4.38-25.22 2.8-80.77-2.63-93.74-.7-1.92-2.27-8.23-3.5-14.01-2.8-14.02-12.97-40.83-21.38-56.95-10.16-18.93-17.87-30.5-31.89-47.14C404.95 71.11 377.8 46.58 364.47 38c-21.03-13.67-50.12-26.28-70.1-30.66-35.74-7.89-58.17-9.12-84.8-5.09m55.55 30.67c43.63 5.6 87.78 27.86 119.68 60.8 8.23 8.41 18.74 20.85 23.3 27.34 11.56 16.12 25.76 44.5 31.37 62.55 8.4 27.34 10.86 43.8 10.68 76.23 0 25.58-.7 32.41-4.55 49.06-6.13 25.93-16.47 51.16-29.79 72.9-7.89 12.78-16.47 23.47-30.31 37.49-11.04 11.21-24.89 23.13-32.42 28.04-43.1 27.86-86.74 39.25-133.87 34.52-20.15-1.93-46.09-8.94-64.14-17.18-21.2-9.63-45.03-26.63-64.13-45.73-9.28-9.29-24-28.56-31.71-41.7-14.55-25.06-26.11-56.78-29.62-81.48-3.15-22.08-2.98-58 .18-79.73 4.9-31.9 21.73-72.54 41.18-99 7.18-9.82 36.97-39.25 47.3-46.61 26.64-19.45 66.24-34.7 98.13-38.03 13.32-1.4 35.05-1.05 48.72.53M109.52 141.2c-5.09 2.28-10 6.48-11.92 10.34-1.58 2.8-2.1 34.34-2.1 116.17 0 112.5 0 112.5 5.96 118.45s5.95 5.96 135.62 5.96 129.67 0 135.1-5.08c3.5-3.16 5.43-7.01 5.6-10.16.18-2.63.36-52.75.53-111.27.35-71.5-.17-108.3-1.4-112.15-1.05-3.15-4.56-7.36-7.89-9.63-5.95-4.03-5.95-4.03-131.41-3.86-69.04 0-126.7.53-128.1 1.23m73.6 38.02c0 21.9 0 21.9-35.93 21.9s-35.92 0-35.92-20.67c0-11.4.52-21.38 1.22-21.9.53-.7 16.83-1.23 35.93-1.23 34.7 0 34.7 0 34.7 21.9m92.86 0c0 21.9 0 21.9-38.55 21.9s-38.55 0-38.55-21.9 0-21.9 38.55-21.9 38.55 0 38.55 21.9m86.39-20.68c.35.88.35 10.7-.18 21.9-.7 20.68-.7 20.68-35.57 20.68s-34.87 0-34.87-21.9 0-21.9 34.87-21.9c19.28 0 35.4.52 35.75 1.22M183.1 237.92c0 21.03 0 21.03-35.92 21.03s-35.92 0-35.92-21.03c0-21.02 0-21.02 35.92-21.02s35.92 0 35.92 21.02m92.87 0c0 21.03 0 21.03-38.72 21.03-38.55 0-38.55 0-37.68-20.68.53-11.21.88-20.67.88-21.02.17-.18 17.17-.35 37.85-.35 37.67 0 37.67 0 37.67 21.02m85.86 0c0 21.03 0 21.03-35.04 21.03s-35.05 0-35.05-19.8c0-11.04.53-20.5 1.23-21.03.52-.7 16.3-1.22 35.04-1.22 33.82 0 33.82 0 33.82 21.02m-178.73 57.83c0 21.02 0 21.02-35.92 21.02s-35.92 0-35.92-21.02c0-21.03 0-21.03 35.92-21.03s35.92 0 35.92 21.03m92.87 0c0 21.02 0 21.02-38.55 21.02s-38.55 0-38.55-19.8c0-11.04.53-20.5 1.23-21.02.52-.7 17.87-1.23 38.55-1.23 37.32 0 37.32 0 37.32 21.03m85.86 0c0 21.02 0 21.02-35.04 21.02s-35.05 0-35.05-21.02c0-21.03 0-21.03 35.05-21.03s35.04 0 35.04 21.03M241.11 334.3c35.05 0 35.05 0 34.52 20.5-.53 20.67-.53 20.67-38.9 21.2-38.2.35-38.2.35-37.15-21.03.53-11.91.88-21.9 1.05-22.25 0-.35 1.23 0 2.8.52 1.58.53 18.4 1.06 37.68 1.06m120.73 20.15c0 21.9 0 21.9-34.52 21.55-34.7-.53-34.7-.53-35.22-21.03-.52-20.67-.52-20.67 33.3-21.2 18.57-.17 34.34-.53 35.21-.88.7-.17 1.23 9.47 1.23 21.56m-178.73.87c0 21.03 0 21.03-35.4 20.68-35.57-.53-35.57-.53-36.1-21.2-.52-20.5-.52-20.5 35.58-20.5 35.92 0 35.92 0 35.92 21.02" clip-rule="evenodd"/>
</svg>
