<svg xmlns="http://www.w3.org/2000/svg" width="477" height="512" fill="currentColor" viewBox="0 0 477 512">
    <path fill-rule="evenodd" d="M209 .5c-14.51 2.42-48.88 11.74-59.94 16.4-57.17 24.36-100 66.33-126.95 124.2-6.56 14.5-15.03 41.62-19 61.32C.86 214.16.17 226.77 0 254.23c0 22.98.86 41.63 2.42 50.96 2.76 17.44 12.26 47.84 19.69 63.73 22.1 47.5 53.89 83.95 94.48 108.65 16.06 9.84 32.3 17.44 48.02 22.62 17.79 5.88 27.8 7.95 51.99 10.71 39.55 4.32 87.4-4.32 121.94-22.1 16.24-8.3 32.13-17.8 35.76-21.08 1.55-1.55 7.42-6.56 13.3-11.23 11.22-9.15 32.99-32.12 39.72-42.31 2.42-3.46 5.36-7.26 6.57-8.47 1.2-1.2 2.24-3.45 2.24-4.66s1.9-4.66 4.32-7.43c2.42-2.93 4.32-5.7 4.32-6.39s2.59-6.39 5.87-12.78c8.12-16.24 17.62-45.08 20.73-63.22 4.66-27.8 6.56-53.02 5.52-69.09-4.31-56.65-20.9-106.22-48.53-143.36-7.95-11.05-25.22-30.4-33.51-38-25.4-23.32-66.15-46.12-94.3-52.68-8.47-1.9-18.32-4.5-21.6-5.36C272.56.84 217.81-.88 209 .5m56.3 39.38c10.02 1.38 22.8 4.15 28.5 6.22 5.53 2.07 13.65 5 17.97 6.39 4.32 1.55 8.98 3.63 10.36 4.84 1.38 1.2 6.05 3.97 10.37 6.04 8.46 4.32 27.63 18.48 39.2 28.85 28.16 25.73 49.75 61.66 62.01 103.29 3.46 12.09 7.6 44.04 7.6 59.41 0 16.24-2.93 40.77-6.22 54.58-7.6 30.23-22.45 60.63-42.14 86.37-4.15 5.52-33.16 34.2-38.86 38.51-24.7 18.31-58.56 33.34-86.2 38.18-14.5 2.59-49.91 2.24-62.35-.52-31.09-7.08-51.47-15.72-76.34-32.47-22.11-15.03-45.77-39.73-60.46-63.4-18.3-29.53-28.84-59.76-32.81-93.44-2.42-20.03-2.42-26.77-.7-48.36 1.73-19.86 3.46-29.02 8.3-44.05 5.7-17.96 16.92-42.83 25.21-56.3 6.74-11.06 21.08-28.16 33.51-40.08 11.75-11.4 40.25-32.3 44.05-32.3 1.03 0 3.28-1.03 4.66-2.41 2.94-2.6 28.16-12.61 38.17-15.2 12.61-3.29 34.03-6.22 45.78-6.4 6.73 0 20.38 1.04 30.4 2.25m-52.5 68.4c-9.85 3.8-15.72 10.02-19.35 20.55-3.1 9.16-3.28 15.72-.69 24.53 1.9 6.22 1.73 6.74-4.66 14.86-3.8 4.49-7.26 8.63-7.77 9.15-1.9 1.73-28.33 34.89-30.75 38.52-2.07 3.45-3.8 3.8-16.58 3.8-13.47 0-14.86.34-21.07 5.35-3.63 2.94-8.3 8.3-10.37 12.1-3.1 5.35-3.97 9.5-3.97 19.68 0 11.4.7 14 5.18 21.08 5.53 8.98 15.55 15.2 23.84 15.2 4.66 0 5.52.86 8.8 9.84 1.9 5.53 5.19 14.68 6.92 20.38 1.9 5.7 5 14.86 6.9 20.38 3.63 10.2 3.63 10.2-.51 15.55-2.25 3.1-5.01 8.98-6.22 12.95-2.42 9.68.17 22.98 6.04 30.75 2.25 3.1 7.6 7.08 11.75 9.15 13.99 6.74 28.33 3.98 39.03-7.6 4.67-5.18 7.09-9.32 7.09-12.43 0-2.77.69-5.7 1.38-6.74s16.93-7.25 36.27-13.64c35.06-11.75 35.06-11.75 40.6-6.4 3.1 2.94 7.76 6.22 10.35 7.09 6.91 2.59 26.26 2.41 32.82-.52 3.11-1.21 8.12-5.01 11.06-8.3 3.97-4.14 6.21-8.46 7.42-15.2 2.08-10.53.87-24.35-2.76-31.43-1.2-2.42-4.32-6.04-6.74-7.94-4.14-3.29-4.31-3.8-2.41-11.92 1.03-4.5 2.59-9.85 3.45-11.75 1.9-4.66 6.22-20.2 8.98-31.78 2.07-9.15 2.25-9.33 10.37-11.4 10.88-2.76 20.38-10.7 24-20.03 1.56-4.15 2.94-12.27 2.94-17.97.17-12.95-4.66-23.32-14.16-30.92-6.4-5-7.6-5.35-21.94-5.35-13.3 0-15.89.52-20.73 3.97-5.52 4.15-5.52 4.15-16.06-1.2-14.5-7.26-39.04-20.39-43.7-23.5-2.76-1.72-3.8-4.49-4.49-11.92-.69-7.77-1.9-10.88-7.08-17.1-4.5-5.35-8.81-8.63-14.51-10.53-10.36-3.63-18.3-3.46-28.67.69m20.9 23.49a21 21 0 0 1 5.7 6.05c2.59 5-.7 12.09-7.08 16.06-3.98 2.24-5.88 2.42-8.47 1.04-4.66-2.42-8.8-8.64-8.8-13.3 0-4.32 7.94-12.61 12.08-12.61 1.56 0 4.5 1.2 6.57 2.76m63.04 60.63c12.96 6.9 14.86 8.46 12.44 10.19-1.56 1.2-11.92 4.14-22.97 6.56-11.06 2.6-27.12 6.56-35.76 8.81a569 569 0 0 1-28.5 7.08c-7.08 1.56-17.27 4.15-22.45 5.87-10.37 3.29-32.65 7.78-33.51 6.74-.35-.34 7.94-11.23 18.3-24a3285 3285 0 0 0 23.5-29.37c4.49-6.05 4.49-6.05 16.06-5.53 12.78.87 21.94-1.55 26.6-6.56 2.94-3.28 3.28-3.11 17.1 4.49 7.6 4.14 20.9 11.23 29.2 15.72m59.76 3.28c2.08 2.59 3.63 6.9 3.63 9.67 0 5.87-6.73 13.47-11.92 13.47-1.9 0-5.7-2.07-8.63-4.49-6.57-5.52-7.08-12.26-1.04-18.65 5.53-6.05 13.13-6.05 17.96 0m-35.4 36.79c4.66 4.84 4.66 4.84.51 21.07a4622 4622 0 0 0-8.46 31.78c-4.14 15.55-4.14 15.55-11.05 16.58-7.43 1.04-12.79 3.46-16.07 7.43-2.24 2.77-3.28 2.25-39.9-14.85-8.11-3.8-20.03-9.33-26.77-12.1-6.56-2.93-12.78-5.7-13.82-6.38-.86-.7-7.77-3.8-15.02-7.09-7.43-3.1-13.48-6.21-13.48-6.73 0-.7 6.74-2.6 15.2-4.32 8.3-1.73 20.04-4.5 26.26-6.22 11.74-3.28 34.72-8.98 70.64-17.44 11.75-2.77 21.77-5.36 22.28-5.88 2.08-1.9 5.19-.69 9.68 4.15m-181.88 12.26c1.72 1.04 4.49 4.15 5.87 7.08 2.59 4.84 2.59 5.53-.86 10.2-5.19 7.25-9.5 9.15-14.17 6.73-5.35-2.59-10.02-8.63-10.02-12.78 0-4.66 7.95-12.95 12.27-12.95 1.9 0 5 .86 6.9 1.72m32.81 43.87c33.34 15.03 40.77 18.31 42.5 18.31 1.03 0 2.24.7 2.59 1.56s5.18 3.45 10.88 5.87c21.07 8.81 43.18 18.83 44.39 20.04.69.69-12.27 5.87-29.02 11.4-16.58 5.7-32.82 11.22-35.75 12.43-5.19 1.9-5.88 1.56-10.37-3.1-2.59-2.77-6.73-5.36-8.98-5.88-2.42-.52-6.04-1.2-8.29-1.73-3.63-.69-5.35-4.66-14-30.22-8.63-25.22-10.53-34.55-7.25-34.55.35 0 6.4 2.6 13.3 5.87m147.34 39.9c2.94 2.77 4.49 5.88 4.49 9.5s-1.55 6.74-4.5 9.5c-2.58 2.42-6.04 4.32-7.6 4.32-4.48 0-13.8-9.32-13.8-13.82 0-4.66 8.97-13.81 13.46-13.81 1.73 0 5.36 1.9 7.95 4.31m-136.63 47.85c3.63 4.84 3.63 4.84 0 9.5-1.9 2.76-4.83 5-6.39 5.35s-4.83-.69-7.08-2.07c-5.7-3.8-5.87-11.92-.34-15.72 2.07-1.38 5.35-2.42 7.08-2.24 1.72.34 4.83 2.59 6.73 5.18" clip-rule="evenodd"/>
</svg>
