<svg xmlns="http://www.w3.org/2000/svg" width="490" height="512" fill="currentColor" viewBox="0 0 490 512">
    <path fill-rule="evenodd" d="M195.94 3.95c-42.64 9.11-86.02 32.53-117.81 63.34-23.66 23.16-38.94 44.11-52 71.72-11.59 24.15-12.33 25.88-17.01 44.36C.74 216.4 0 223.05 0 257.31c0 24.9 1.23 39.68 3.94 49.79 2.22 7.88 4.93 18.73 6.41 24.15 3.2 12.57 4.44 15.77 15.78 39.43 20.7 43.13 56.44 83.3 93.65 105.98 38.2 23.17 70.24 32.78 114.36 35 18 .74 37.96.25 48.06-1.23 52.99-8.38 106.47-36.97 141.72-75.42 11.09-12.08 13.06-14.54 30.07-40.67 10.35-15.28 19.22-33.52 19.22-38.7 0-1.96.99-5.41 2.22-7.88 11.09-21.93 15.03-45.35 15.03-90.7 0-28.83-1.23-43.37-4.93-60.13-2.7-12.08-6.65-26.13-8.87-31.3-5.18-12.57-28.34-58.42-30.31-59.9-.74-.73-4.69-5.42-8.63-10.6-16.02-21.93-44.86-47.07-71.48-62.84-20.94-12.57-49.78-23.66-73.93-28.84-23.42-4.68-73.2-4.68-96.37.5m79.11 21.68c12.08 2.22 27.6 5.67 34.26 7.9 18.98 5.9 47.57 21.19 64.57 33.76 18.24 13.8 42.64 39.68 54.47 58.16 12.08 18.73 23.66 45.1 28.6 64.08 2.46 8.88 5.17 19.97 6.65 24.9 2.96 11.58 2.96 74.92 0 84.53-1.48 4.2-4.44 15.28-6.66 24.9-4.93 20.2-17 47.8-28.83 65.06-22.92 34.5-57.43 63.84-93.66 80.1-32.78 15.04-45.6 17.5-89.22 17.25-44.6 0-59.15-2.7-88.48-17.25-34.01-17-57.43-35.24-78.87-62.35-7.15-8.88-16.02-21.94-19.71-28.6-3.95-6.9-7.9-13.55-8.88-14.78-4.19-5.42-17.74-48.06-20.95-66.55-5.91-32.28-3.94-85.52 3.95-103.51.98-2.71 3.94-11.1 6.16-18.49s5.17-14.54 6.16-16.02a9 9 0 0 0 2.22-5.66c0-1.73 7.15-14.05 15.77-27.11 36.48-55.21 88.48-89.72 151.08-100.07 26.38-4.44 35.99-4.44 61.37-.25m-70.73 67.54c-55.46 12.57-101.05 54.96-118.55 110.66-4.2 13.3-5.18 22.92-5.18 49.78-.24 25.39.99 36.48 4.2 46.83 7.39 22.18 21.44 49.79 31.79 61.62 22.92 26.62 53.48 45.35 86.01 52.99 27.11 6.4 68.52 3.7 82.81-5.43 4.69-2.7 5.18-4.19 2.72-7.14-1.48-1.97-3.95-3.45-5.43-3.45s-5.17-2.22-8.13-5.18c-5.18-4.68-5.91-4.93-12.82-1.23-13.55 6.9-15.28 5.67-15.28-11.59-.24-8.38-1.72-19.71-3.7-25.13-1.97-5.43-3.7-11.83-3.7-14.3 0-2.96-1.47-4.19-4.18-3.7-3.94.74-4.44 3.7-3.45 31.06.74 22.92.25 30.07-2.22 30.07-4.19 0-28.1-24.16-32.53-33.28a281 281 0 0 0-7.89-14.78c-7.15-13.31-5.67-15.53 11.58-17.01 8.38-.99 20.21-1.73 26.38-2.22 10.6-.5 11.09-.98 11.83-8.62.98-9.12 2.21-8.88-34.02-5.43-12.81 1.24-24.15 1.48-25.13.5-2.96-2.96-9.62-39.93-8.88-48.06.74-7.9.74-7.9 30.32-7.9 29.57 0 29.57 0 28.59 13.56-2.22 26.87-1.97 28.35 4.43 29.09 3.2.49 5.18 0 4.2-1.48-.75-1.23 1.23-10.6 4.43-20.46 5.67-17.74 8.63-21.2 23.17-28.34a6.1 6.1 0 0 0 2.96-4.93c0-2.46-3.2-3.45-11.1-3.45-11.09 0-11.09 0-11.09-28.1 0-27.85 0-27.85 20.46-29.57 37.96-3.2 35-3.7 35.74 5.91.24 4.68 1.72 15.04 3.2 22.68 2.47 12.07 3.7 14.3 8.13 14.3 2.72 0 6.9-1 8.88-2.47 2.95-1.73 3.2-3.95.49-13.56-1.73-6.16-2.96-14.79-2.96-19.22 0-4.44-1.23-9.37-2.7-10.85-1.98-1.97-1.73-3.2.73-4.68 5.67-3.7 35.24-12.82 37.22-11.58 3.94 2.46 16.26 31.05 20.7 48.06 4.44 17.25 12.82 30.31 18.73 28.34 4.68-1.48 1.97-29.08-4.93-48.3-3.45-10.11-10.1-24.65-15.03-32.05-4.69-7.64-17.26-22.18-27.6-32.53-14.3-14.3-23.67-21.2-37.72-27.85-34-16.02-68.51-19.96-105.48-11.58m26.86 47.56c-.74 32.78-.74 32.78-17.5 32.29-9.36 0-19.71-.99-22.92-1.73-5.67-1.47-6.16-2.46-4.68-9.36 1.73-6.9 13.3-26.87 21.44-36.48 5.18-6.16 19.47-17.25 21.94-17.25 1.48 0 2.22 12.32 1.72 32.53m35.25-19.71c6.9 7.14 14.05 16.76 16.51 21.68 2.22 4.69 4.68 9.12 5.42 9.86 2.47 2.22 7.64 15.53 6.41 16.76-2.22 2.22-22.18 5.18-35 5.42-12.57 0-12.57 0-13.06-33.27-.5-29.08 0-33.27 3.45-33.27 2.22 0 9.61 5.67 16.27 12.82m-69.26-5.67c0 1.48-2.22 3.94-5.18 6.16-2.95 1.97-6.65 6.16-8.13 9.36a446 446 0 0 0-8.38 15.04c-2.96 5.17-5.42 10.84-5.42 12.57a5.3 5.3 0 0 1-3.45 4.68c-3.94 1.48-25.88-4.44-29.58-8.13-1.48-1.48-.98-3.95 1.24-6.41 8.62-10.35 47.56-35 55.94-35.5 1.48 0 2.96 1 2.96 2.23m106.47 5.67c16.27 8.62 39.68 28.34 38.45 32.04-.98 2.7-23.17 11.83-28.34 11.83-1.73 0-3.2-1.48-3.2-3.45s-1.48-5.18-3.21-6.9c-1.97-1.73-4.19-6.17-4.93-9.86-.99-3.45-6.16-12.08-11.58-18.98-12.08-15.04-8.88-16.27 12.81-4.68m-157.49 54.22c13.07 4.19 16.27 6.16 15.04 9.36-2.96 6.66-6.16 25.64-7.64 43.63-1.24 17.99-1.24 17.99-29.33 17.99-28.1 0-28.1 0-26.87-10.6 1.97-13.8 8.63-35.98 11.34-37.7 1.23-.75 2.22-2.97 2.22-4.94s2.46-8.62 5.17-14.78c3.95-8.14 6.41-10.85 9.37-9.86 2.22.74 11.58 3.7 20.7 6.9m60.88 13.55c25.38 2.22 24.9 1.73 24.4 31.8-.25 25.63-.25 25.63-31.55 25.63s-31.3 0-29.57-19.22c.98-10.36 3.2-22.93 4.68-27.6 1.72-4.7 3.45-10.11 3.94-12.09.74-2.21 2.96-2.7 6.66-1.72 2.95.99 12.57 2.22 21.44 3.2m-53.73 89.47c1.73 14.79 4.93 33.27 7.15 41.65.74 2.47-4.2 5.18-16.27 9.12-9.36 3.2-19.22 5.67-21.44 5.67-7.89.25-23.9-40.42-24.15-60.88 0-13.06 0-13.06 26.61-12.32 26.37.74 26.37.74 28.1 16.76m18 73.2c4.92 12.57 13.8 28.1 21.93 36.97 4.19 5.17 4.43 5.67.74 5.67-5.92 0-27.6-11.59-42.89-22.68-13.06-9.6-18.98-17.25-17.25-22.43.5-1.47 5.67-4.19 11.83-5.66 19.22-5.18 20.7-4.69 25.63 8.13m163.15-81.33c.25 36.47.25 36.47 37.46 37.21s37.22.74 37.22-8.38c0-4.93-2.96-15.28-6.66-22.67-11.58-23.66-31.05-37.96-56.19-41.16-12.32-1.73-12.32-1.73-11.83 35m-38.7-25.39c-12.32 6.65-34.5 25.14-34.5 29.08 0 1.24-1.97 5.43-4.44 8.88-8.37 12.32-11.58 40.17-6.65 57.42 3.2 11.83 12.08 26.87 20.21 35 4.44 4.68 14.05 11.58 21.2 15.53 11.33 6.4 15.28 7.14 33.76 7.14 18.49-.24 22.43-.98 32.78-7.14 6.4-3.7 15.53-10.6 20.21-15.28 10.6-10.1 23.42-35.99 23.42-47.08 0-8.13 0-8.13-38.2-8.13s-38.2 0-38.2-40.67c0-40.66 0-40.66-9.13-40.66-5.17.24-14.3 2.95-20.45 5.91" clip-rule="evenodd"/>
</svg>
