<svg xmlns="http://www.w3.org/2000/svg" width="512" height="473" fill="currentColor" viewBox="0 0 512 473">
    <path fill-rule="evenodd" d="M336.2 3.16c-2.32 2.33-4.14 6.48-4.14 9.33 0 4.67-3.11 4.93-77 5.45-77.27.78-77.27.78-77.27 8.55s0 7.78 164.64 8.56c150.38.52 164.9.26 167.75-3.63 2.33-3.11 2.33-5.7.52-9.07-2.34-4.67-7-4.93-80.38-4.93-71.81 0-77.78-.26-79.07-4.67C347.1-.2 342.69-3.06 336.2 3.16M68.9 39.46c-12.18 4.4-21 14.26-24.89 28-5.18 18.93 5.96 39.93 24.9 47.19 14.77 5.7 26.96 3.63 38.88-6.75a41 41 0 0 0 13.48-36.3C117.9 46.73 92.5 30.9 68.9 39.47m128.34 70c0 55.74 0 55.74 13.74 55.74 16.34 0 22.56 4.93 22.56 17.9 0 10.1-7.26 17.36-23.6 23.33-11.4 4.4-11.4 4.4-11.4 45.63 0 41.48 0 41.48 143.63 42.26 104.49.26 144.42-.26 147-2.33 3.12-2.6 3.64-23.34 3.12-120.05l-.78-116.93-147-.77c-147.27-.52-147.27-.52-147.27 55.22m248.38 70.78c.52 78.56.52 78.56-18.15 77.78-18.92-.78-18.92-.78-19.44-72.6-.52-42 .26-74.66 1.81-78.55 2.33-6.48 3.37-6.74 18.67-5.97 16.33.78 16.33.78 17.11 79.34M386 202.02c.52 56.52.52 56.52-17.63 56.52s-18.15 0-18.15-55.22c0-30.6.78-56.27 1.81-57.3 1.04-1.04 8.82-1.56 17.63-1.04 15.56.78 15.56.78 16.34 57.04m-51.34 18.93c0 37.6 0 37.6-15.3 37.6-15.03 0-15.03 0-16.59-9.6-1.03-5.19-1.03-22.04 0-37.6 1.56-28 1.56-28 16.86-28 15.03 0 15.03 0 15.03 37.6M286.7 233.9c0 23.33 0 23.33-17.37 24.11-17.63.78-17.63.78-17.63-22.3 0-12.7.77-23.85 1.81-24.89s8.82-1.55 17.63-1.03c15.56.78 15.56.78 15.56 24.11M41.68 137.46c-12.7 4.15-34.49 26.45-38.37 39.67-4.41 14.78-4.41 107.6 0 112 1.81 1.82 7 3.12 11.66 3.12 8.56 0 8.56 0 8.82 36.81 0 20.48 1.04 54.97 1.81 76.75 1.56 35.26 2.6 40.18 7 43.55 2.6 2.08 9.86 3.63 16.08 3.63 8.55 0 11.92-1.3 14.78-5.96 2.59-3.89 4.92-23.6 7.77-60.67 2.34-30.07 4.15-57.82 4.15-61.45s1.3-6.74 2.6-6.74c1.55 0 2.59 5.45 2.59 12.19 0 7 1.3 34.48 2.85 61.7 2.07 32.93 4.15 51.08 6.74 54.97 2.85 4.93 5.7 5.96 16.34 5.96 19.7 0 20.22-1.3 22.03-68.7 1.82-74.15 3.11-89.71 7.78-94.64 3.11-3.37 3.89-12.44 3.89-40.96 0-36.82 0-36.82 10.11-36.82 9.85 0 47.97-11.92 63.26-19.96 5.19-2.6 7-5.19 6.49-9.34-.78-5.18-2.34-5.7-15.04-5.7-7.78 0-22.3 1.04-32.41 2.07-18.15 1.82-18.15 1.82-27.22-12.44-9.6-15.3-22.3-25.93-36.56-29.82-11.67-3.37-55.74-2.85-67.15.78m145.45 176.56c-4.15 4.93-.78 11.67 6.74 13.75 3.63.77 35.52 1.03 70.78.26 35.52-.78 65.34-.78 66.63.25 1.04.78 2.34 10.9 2.6 22.3.25 20.74.25 20.74-35.78 65.34-19.7 24.63-36.04 46.4-36.04 48.22 0 4.93 6.74 10.37 10.1 8.56 1.3-1.04 15.05-17.37 30.08-36.56 15.3-19.19 28.78-35 30.08-35s2.6 16.07 2.85 35.52c.78 35.78.78 35.78 7.26 35.78s6.48 0 7.26-35.78c.26-19.45 1.56-35.52 2.6-35.52 1.03 0 14 15.81 29.03 35s28.78 35.52 30.85 36.3c4.15 1.55 10.63-3.11 10.63-7.78 0-1.56-16.33-23.33-36.3-47.7-36.3-44.86-36.3-44.86-36.3-66.64s0-21.78 70.79-21.78c74.93 0 81.41-1.03 79.08-11.92-.78-4.67-4.93-4.93-155.3-5.7-128.86-.53-155.05 0-157.64 3.1" clip-rule="evenodd"/>
</svg>
