<svg xmlns="http://www.w3.org/2000/svg" width="495" height="512" fill="currentColor" viewBox="0 0 495 512">
    <path fill-rule="evenodd" d="M204.58 4.79c-59.62 11.82-114.46 46.78-153.2 97.1-20.87 27.16-38.73 66.4-48.04 105.9C.07 222.61-.68 234.18.58 269.4c1 37.98 2 46.03 7.8 63.39 7.04 21.38 26.15 61.63 31.69 66.9.75.76 5.53 7.05 10.81 14.1 11.83 16.35 41.76 45.02 59.62 56.6 35.97 23.64 75.46 37.47 118.22 41.25 9.06.75 28.18.25 42.77-1.01 53.32-4.53 109.42-29.93 146.65-66.66 23.64-22.89 31.94-32.7 39.74-46.79 3.52-6.28 7.55-13.58 9.3-16.35 8.81-15.6 20.88-45.53 23.4-58.35 4.28-21.13 5.79-106.91 2.26-124.02-9.05-43-31.94-85.52-64.64-120.99-25.91-27.67-64.15-52.82-100.12-65.15C308.46 5.54 270.23-.24 246.33.01c-10.31 0-29.18 2.26-41.75 4.78m105.4 29.93C356 47.55 399.01 78.24 430.2 120.5c10.06 13.58 25.66 44.77 30.94 61.62 2.51 8.3 5.78 18.37 7.55 22.64 1.5 4.53 2.76 24.65 2.76 50.31 0 40.5-1.26 51.32-8.8 70.43-1 2.77-4.03 10.57-6.54 17.61-5.03 14.09-13.33 29.94-24.4 46.54-11.57 16.85-38.99 44.52-55.34 55.84-22.39 15.34-58.86 31.44-81 36.22-26.66 5.54-67.16 5.54-94.33 0-40.5-8.55-94.83-40.24-118.22-69.68-14.59-18.36-26.41-35.71-30.94-46.28-2.52-5.53-5.53-12.07-6.8-14.34-1.5-2.51-3.51-6.54-4.77-8.8-2.27-4.28-6.54-20.38-12.58-46.79-3.27-14.59-3.52-60.12-.5-70.68 1.5-4.28 4.27-15.85 6.54-25.4 5.03-20.89 17.1-47.3 32.2-70.94 30.43-47.3 84.77-85.28 138.85-97.35 25.65-5.78 79.23-4.02 105.14 3.27m35.2 88.54c-9.55 9.81-17.85 20.88-19.1 24.4-1.02 3.78-1.02 10.07-.26 13.84 1.26 6.29-2.26 10.56-40.25 48.3-34.46 34.2-43.26 41.5-51.06 43-19.37 3.78-27.42 22.4-14.59 34.97 6.04 6.3 16.35 8.05 25.15 4.78 4.53-1.76 11.32-13.58 11.32-19.62 0-2.26 11.07-14.59 24.4-27.17 13.34-12.82 30.19-29.17 37.48-36.22 22.4-21.88 25.4-23.64 37.23-22.13 10.57 1.5 11.32 1.25 30.69-16.6 10.82-9.81 19.87-19.88 19.87-22.14 0-3.27-3.02-4.53-13.83-5.53-11.57-1.01-14.34-2.27-16.86-7.55-1.76-3.52-3.27-11.57-3.27-18.36 0-10.06-.75-11.83-5.03-11.83-3.02 0-12.07 7.3-21.88 17.86m-138.84 15.1c-7.55 1.25-21.13 6.03-30.19 10.31-11.82 5.79-22.13 13.58-35.47 27.17-17.35 17.86-27.92 33.95-34.7 54.08-4.28 12.32-8.06 33.45-8.06 45.28 0 11.06 3.78 30.18 7.8 40.24 1 2.77 2.77 7.55 3.52 10.57 3.02 10.56 25.66 42.26 37.73 53.07 14.6 12.83 42.51 26.92 61.63 30.94 18.11 3.78 50.3 1.51 69.17-5.03 28.93-10.31 59.37-35.47 74.46-62.13 3.02-5.28 8.05-17.1 11.32-26.16 4.78-13.08 6.04-21.38 6.04-41.5 0-14.34-1.51-30.19-3.52-36.73-4.78-15.85-16.1-37.48-19.37-37.48-1.76 0-9.06 6.54-16.6 14.34-11.58 12.07-13.34 15.1-11.32 19.37 7.3 15.34 9.3 24.65 9.05 41.75-.25 15.35-1.76 21.89-7.8 35.22a103.8 103.8 0 0 1-48.54 48.8c-14.6 6.79-18.87 7.8-39 7.8s-24.4-.76-37.72-7.55c-19.37-9.81-35.97-26.16-45.28-45.28-6.54-13.58-7.3-17.6-7.3-40.24 0-15.1 1.26-29.18 3.27-35.22 3.78-10.57 18.11-31.44 28.18-40.75 3.52-3.02 14.08-9.06 23.64-13.58 15.1-6.8 20.63-8.05 37.73-8.05 16.86 0 22.39 1 34.46 6.79 8.05 3.77 16.6 6.29 18.87 5.53 2.52-.75 9.3-7.04 15.1-13.83 10.8-12.58 10.8-12.58 4.27-17.61-10.57-8.3-31.44-17.1-47.3-20.12-17.35-3.27-34.7-3.27-54.07 0m11.82 66.15c-9.81 2.01-17.6 6.04-25.91 12.58-6.54 5.28-12.33 11.57-13.33 13.83-.76 2.27-3.27 6.8-5.28 10.32-6.04 9.05-10.32 22.89-10.32 32.7 0 25.15 22.64 57.35 47.04 66.9 15.85 6.3 41.5 3.78 56.85-5.02 6.54-3.78 15.34-11.32 19.62-16.86 9.06-11.57 17.36-32.7 17.36-44.77 0-8.8-4.78-25.4-7.55-25.4-.75 0-6.54 4.52-12.83 10.06-9.05 7.54-12.07 12.07-13.08 19.62-2.26 14.08-8.8 25.4-17.86 30.94-5.78 3.77-11.07 4.77-20.62 4.02-22.9-1.5-36.23-16.85-36.23-41.5 0-22.14 16.6-38.24 39.5-38.24 8.8 0 12.07-1.5 19.62-8.8 4.78-5.03 8.8-10.57 8.8-12.58 0-2.26-5.28-5.03-13.08-7.55-7.04-2-14.09-3.77-15.6-3.52-1.5 0-9.05 1.51-17.1 3.27" clip-rule="evenodd"/>
</svg>
