<svg xmlns="http://www.w3.org/2000/svg" width="482" height="512" fill="currentColor" viewBox="0 0 482 512">
    <path fill-rule="evenodd" d="M202.1 2.45c-28.66 4.86-74.81 26-101.05 46.4-28.9 22.35-59.51 61.21-73.84 93.28-3.4 7.77-8.02 17.97-9.96 22.59-5.59 12.63-10.45 34.73-14.34 67.04-2.91 25.75-2.91 32.3.5 57.08 3.88 29.88 7.04 42.27 15.54 63.4 5.34 13.6 6.07 14.82 16.27 33.53 36.68 66.31 102.51 114.4 171.5 124.37 26.96 3.88 73.11 1.45 96.43-5.1 24.54-7.05 58.54-23.81 77.73-38.38 28.67-21.62 57.82-57.09 73.85-89.64 10.93-22.1 20.65-51.74 23.56-72.39 4.86-34.49 5.35-64.61 1.22-91.09-4.62-27.93-8.02-41.05-16.04-59.51-25.26-59.27-66.8-104.94-118.3-130.93C312.15 6.58 281.06-.46 241.95.02c-15.06.25-33.04 1.22-39.84 2.43m96.92 28.9c19.2 5.84 43.48 17.5 61.46 29.4 17.73 11.9 44.94 40.08 57.08 59.27 29.15 46.15 39.84 82.35 39.6 136.03 0 28.9-2.43 53.69-5.83 58.3-.97 1.21-2.43 7.04-3.4 12.39-1.95 12.87-16.03 43.48-30.37 65.34-15.3 23.56-46.15 53.44-69.71 67.29-10.69 6.31-29.88 15.06-42.51 19.19-19.68 6.8-26.96 8.01-53.44 8.99-22.6.72-35.95 0-50.28-2.92-38.63-7.77-73.6-27.2-105.91-59.03-14.1-13.6-22.84-25.02-35.95-45.42-.98-1.46-5.1-9.72-9.23-18.46-12.4-25.75-19.68-52.23-24.54-91.1-2.18-16.51-2.18-25.5.24-38.86 1.7-9.23 3.9-19.68 4.86-23.08s3.89-13.11 6.08-21.86c5.1-18.94 18.46-47.85 29.63-63.88 4.37-6.32 8.02-11.9 8.02-12.4 0-.72 7.77-9.47 17.49-19.67 26.72-28.18 62.18-49.8 98.38-59.75 35.95-9.96 75.05-9.72 108.33.24M209.4 99.87c-3.89 3.16-8.99 8.02-11.42 10.93-2.43 3.16-6.56 5.59-9.23 5.59s-7.77 4.37-11.9 10.2c-6.32 8.5-7.29 12.15-7.05 22.1.5 9-.24 12.4-3.15 14.1-6.32 3.4-11.66 16.51-11.66 27.93 0 9.72 6.31 25.26 10.44 25.26.97 0 1.7 7.29 1.7 16.28.25 14.33.97 17.49 6.8 24.04 3.65 4.13 9.23 8.5 12.64 9.48 3.4.97 10.2 6.8 15.3 12.39 8.99 10.2 10.2 10.68 22.35 10.68 7.28 0 13.84-1.21 14.57-2.42.73-1.46 4.13-2.43 7.29-2.43s6.56.97 7.29 2.43c.73 1.21 6.07 2.42 11.41 2.42 11.18 0 25.27-7.53 27.45-14.57.73-2.67 6.56-7.29 12.88-10.45 6.31-3.15 12.87-8.25 14.33-11.65 1.7-3.16 3.16-11.18 3.16-17.5 0-7.52 1.7-14.33 4.37-18.21 5.59-8.02 10.2-21.14 10.2-29.15 0-7.05-11.17-27.2-14.82-27.2-1.45 0-1.94-3.9-.97-10.7.97-6.55.49-12.87-1.21-16.27-4.13-8.02-14.33-16.76-19.68-16.76-2.43 0-6.56-3.4-9.47-7.29-9.48-13.36-26-18.22-38.63-11.17-5.1 2.67-7.28 2.67-13.84 0-11.66-4.86-21.13-4.13-29.15 1.94m27.45 13.6c2.18 2.67 2.67 20.9 2.18 71.9-.48 37.66-1.21 71.66-1.21 76.04-.49 14.81-14.09 20.16-24.3 9.47-3.4-3.4-5.1-8.02-4.6-11.42.72-5.34-.25-5.83-10.7-6.56-8.5-.48-12.63-2.18-15.3-6.07-5.1-7.29-4.61-17.73 1.46-23.32 5.34-4.86 4.61-9.96-1.46-9.96-4.61 0-15.79-14.09-15.79-19.67 0-2.68 1.7-8.5 3.65-13.12 2.43-6.32 5.34-8.99 10.93-9.96 8.26-1.7 9.23-6.32 3.64-17-1.94-3.89-3.64-8.26-3.64-9.72s2.43-5.83 5.34-9.47c4.37-5.6 6.56-6.32 13.12-5.35 7.77 1.22 8.26.97 10.69-8.01 1.45-5.35 4.37-10.7 6.8-11.9 5.1-2.92 15.3-.98 19.19 4.12m38.14-1.45c5.1 7.04 5.1 22.34.24 26.23-2.67 2.19-3.4 5.34-2.19 10.45 1.22 5.82.25 8.25-4.61 12.38-7.78 6.32-9.48 14.34-3.16 15.55 2.67.49 7.77-2.43 12.87-7.29 6.8-6.31 8.26-9.47 7.3-15.3-.5-4.13-1.71-8.99-2.68-11.17-.97-2.2.24-6.08 2.91-9.48 3.65-4.37 5.83-5.34 11.18-3.88 4.13.97 7.77 4.61 10.44 9.95 3.65 7.53 3.65 8.75 0 16.28-3.64 7.29-3.64 8.26-.24 10.44 10.69 6.56 13.6 10.45 14.82 19.68 1.7 12.63-3.89 23.56-13.85 27.7-3.89 1.7-7.29 3.88-7.29 5.1 0 1.2 2.19 3.15 4.86 4.6 3.4 1.95 4.86 5.11 4.86 11.43 0 12.38-5.59 17.73-18.7 17.73-9.72 0-10.45.48-10.45 6.8 0 9.96-6.31 17.49-14.57 17.49-13.6 0-14.1-3.16-14.34-84.78-.24-62.67.25-74.81 3.4-79.67 4.86-7.29 14.34-7.29 19.2-.24m-65.83 35.22c-1.7 3.64-3.16 7.28-3.16 8.5 0 3.4 15.06 18.95 18.22 18.95 5.83 0 6.07-4.13 1.21-10.2-3.4-4.62-4.37-8.26-3.16-15.07 1.22-8.01.98-8.74-4.37-8.74q-5.83 0-8.74 6.56m-17.25 39.84c.73 6.55 2.67 8.74 13.85 14.57 10.2 5.59 13.84 6.32 17.73 4.37 6.56-3.4 4.61-9.71-3.89-12.63-3.88-1.21-10.93-4.86-15.54-8.02-4.62-3.15-9.48-5.83-10.7-5.83-1.2 0-1.94 3.4-1.45 7.54m10.44 38.62c-.97 1.46 1.22 6.31 4.86 10.93 3.4 4.61 6.8 8.5 7.3 8.5.48 0 3.63-.97 7.03-2.19 4.38-1.94 5.6-3.64 4.62-7.53-.73-2.91-5.1-6.55-9.72-8.5-10.2-4.37-12.14-4.37-14.09-1.21m80.9-39.11c-1.7 2.43-7.3 6.31-12.4 8.26-6.31 2.67-8.98 5.34-8.98 8.74 0 3.89 1.46 5.1 6.07 5.1 6.8 0 19.2-5.58 26.24-11.66 2.18-1.94 4.12-6.31 4.12-9.47 0-4.37-1.21-5.59-5.83-5.59-3.4 0-7.53 2.19-9.23 4.62m-8.02 41.05c-7.53.97-13.36 4.37-13.36 8.02s14.57 9.71 19.43 8.26c3.4-.98 4.86-3.65 4.86-8.5 0-3.9-.73-7.3-1.7-7.78-1.22-.48-5.1-.48-9.23 0m85.75-25.75c-.25 1.7-.49 32.07-.49 67.53-.24 64.37-.24 64.37-36.68 64.37-22.83 0-40.57 1.22-47.85 3.4-7.29 1.95-14.82 6.56-20.65 12.64-5.1 5.1-10.2 9.47-11.17 9.47-1.22 0-5.35-3.4-9.48-7.29-14.33-14.57-18.94-15.79-65.1-17-42.5-1.22-42.5-1.22-42.5-67.53s0-66.32-7.3-65.59c-6.55.73-7.28 1.7-8.01 9.72-.73 7.77-1.7 9.23-6.32 9.23-2.91 0-7.28 1.46-9.47 2.91-3.89 2.92-4.13 9.96-3.64 80.9.72 77.73.72 77.73 59.75 78.94 54.9 1.21 59.52 1.46 62.67 5.83 1.95 2.67 3.4 6.07 3.4 7.53 0 5.59 10.94 9.23 26.24 8.75 16.52-.5 24.78-3.16 24.78-8.26 0-1.7 2.18-5.6 4.85-8.5 4.86-5.1 6.56-5.35 63.16-5.35 58.3 0 58.3 0 58.3-78.46 0-78.7 0-78.7-10.2-83.32-8.75-3.89-10.45-5.83-10.45-11.42-.24-6.8-4.37-11.41-10.2-11.41-1.7 0-3.4 1.46-3.64 2.91M0 133.38c0 3.4.49 4.62 1.21 2.92.49-1.46.49-4.38 0-6.08-.72-1.45-1.21-.24-1.21 3.16" clip-rule="evenodd"/>
</svg>
