<svg xmlns="http://www.w3.org/2000/svg" width="512" height="473" fill="currentColor" viewBox="0 0 512 473">
    <path fill-rule="evenodd" d="M 304.920847404,94.1659534521 c -1.41516665806,1.42126651434 -2.52534050187,3.9527068725 -2.52534050187,5.69116591365 c 0,2.84863288497 -1.89705530455,3.00722914837 -46.9688933924,3.32442167518 c -47.1335895122,0.475788790209 -47.1335895122,0.475788790209 -47.1335895122,5.21537712344 s 0,4.74568818952 100.428033872,5.22147697973 c 91.7296388096,0.317192526806 100.586630135,0.158596263403 102.325089176,-2.21424783136 c 1.42126651434,-1.89705530455 1.42126651434,-3.4769180823 0.317192526806,-5.53256965025 c -1.42736637063,-2.84863288497 -4.26989939931,-3.00722914837 -49.0306448167,-3.00722914837 c -43.8030679806,0 -47.4446821827,-0.158596263403 -48.2315636434,-2.84863288497 C 311.569690754,92.1164017404 308.879654132,90.371842843 304.920847404,94.1659534521 M 141.871688912,116.308431766 c -7.4296249548,2.68393676528 -12.809698198,8.69839506201 -15.1825422927,17.0795975972 c -3.15972555549,11.547027947 3.6355143457,24.3567261449 15.188642149,28.7852218076 c 9.00948773253,3.4769180823 16.4452125436,2.21424783136 23.716241235,-4.1174029922 a 25.0094,25.0094 0 0,0 8.22260627181,-22.1424783136 C 171.760984708,120.743027285 156.267349745,111.086954786 141.871688912,116.314531622 m 78.2855555582,42.6989939931 c 0,34.0005989311 0,34.0005989311 8.38120253521,34.0005989311 c 9.96716516922,0 13.7612757784,3.00722914837 13.7612757784,10.9187427497 c 0,6.16085484758 -4.42849566271,10.5893505103 -14.395660832,14.2309647123 c -6.9538361646,2.68393676528 -6.9538361646,2.68393676528 -6.9538361646,27.8336442272 c 0,25.3022038691 0,25.3022038691 87.6122358178,25.7779926593 c 63.7373983192,0.158596263403 88.0941244639,-0.158596263403 89.6678873854,-1.42126651434 c 1.90315516084,-1.58596263403 2.22034768764,-14.2370645686 1.90315516084,-73.2287746982 l -0.475788790209,-71.3256195374 l -89.6678873854,-0.469688933924 c -89.8325835054,-0.317192526806 -89.8325835054,-0.317192526806 -89.8325835054,33.6834064043 m 151.5082304,43.1747827833 c 0.317192526806,47.9204709729 0.317192526806,47.9204709729 -11.0712391568,47.4446821827 c -11.5409280907,-0.475788790209 -11.5409280907,-0.475788790209 -11.8581206175,-44.2849566271 c -0.317192526806,-25.6193963959 0.158596263403,-45.5415270218 1.10407398754,-47.9143711166 c 1.42126651434,-3.9527068725 2.05565156796,-4.11130313591 11.3884316836,-3.64161420198 c 9.96106531294,0.475788790209 9.96106531294,0.475788790209 10.4368541031,48.3962597631 M 335.298131701,215.46769553 c 0.317192526806,34.4763877213 0.317192526806,34.4763877213 -10.7540466299,34.4763877213 s -11.0712391568,0 -11.0712391568,-33.6834064043 c 0,-18.6655602313 0.475788790209,-34.3238913142 1.10407398754,-34.9521765115 c 0.634385053612,-0.634385053612 5.38007324313,-0.951577580416 10.7540466299,-0.634385053612 c 9.49137637902,0.475788790209 9.49137637902,0.475788790209 9.96716516922,34.7935802481 m -31.3166621658,11.547027947 c 0,22.9354596306 0,22.9354596306 -9.33278011562,22.9354596306 c -9.16808399593,0 -9.16808399593,0 -10.1196615763,-5.85586203334 c -0.628285197328,-3.16582541177 -0.628285197328,-13.4440832516 0,-22.9354596306 c 0.951577580416,-17.0795975972 0.951577580416,-17.0795975972 10.284357696,-17.0795975972 c 9.16808399593,0 9.16808399593,0 9.16808399593,22.9354596306 M 274.726558794,234.914037366 c 0,14.2309647123 0,14.2309647123 -10.5954503665,14.7067535025 c -10.7540466299,0.475788790209 -10.7540466299,0.475788790209 -10.7540466299,-13.602679515 c 0,-7.74681748161 0.469688933925,-14.5481572391 1.10407398754,-15.1825422927 s 5.38007324313,-0.945477724131 10.7540466299,-0.628285197328 c 9.49137637902,0.475788790209 9.49137637902,0.475788790209 9.49137637902,14.7067535025 M 125.267880106,176.087023356 c -7.74681748161,2.53144035817 -21.038404326,16.1341198731 -23.4051485645,24.1981298815 c -2.69003662157,9.01558758881 -2.69003662157,65.6344536237 0,68.318390389 c 1.10407398754,1.11017384382 4.26989939931,1.90315516084 7.112432428,1.90315516084 c 5.22147697973,0 5.22147697973,0 5.38007324313,22.4535709841 c 0,12.4925056712 0.634385053612,33.5309099972 1.10407398754,46.8163969853 c 0.951577580416,21.50809326 1.58596263403,24.509222552 4.26989939931,26.56487412 c 1.58596263403,1.26877010723 6.01445829674,2.21424783136 9.80856890582,2.21424783136 c 5.21537712344,0 7.2710286914,-0.792981317014 9.01558758881,-3.6355143457 c 1.57986277774,-2.37284409476 3.00112929209,-14.395660832 4.73958833324,-37.0078280795 c 1.42736637063,-18.3422678482 2.53144035817,-35.2693690383 2.53144035817,-37.4836168697 s 0.792981317014,-4.11130313591 1.58596263403,-4.11130313591 c 0.945477724131,0 1.57986277774,3.32442167518 1.57986277774,7.43572481108 c 0,4.26989939931 0.792981317014,21.0323044698 1.73845904115,37.6361132768 c 1.26267025094,20.0868267456 2.53144035817,31.1580659024 4.11130313591,33.5309099972 c 1.73845904115,3.00722914837 3.4769180823,3.6355143457 9.96716516922,3.6355143457 c 12.0167168809,0 12.3339094077,-0.792981317014 13.4379833953,-41.9060126761 c 1.11017384382,-45.2304343513 1.89705530455,-54.7218107304 4.74568818952,-57.7290398787 c 1.89705530455,-2.05565156796 2.37284409476,-7.58822121821 2.37284409476,-24.9850113422 c 0,-22.4596708404 0,-22.4596708404 6.16695470387,-22.4596708404 c 6.00835844046,0 29.2610105979,-7.2710286914 38.5876908572,-12.1753131443 c 3.16582541177,-1.58596263403 4.26989939931,-3.16582541177 3.95880672879,-5.69726576994 c -0.475788790209,-3.15972555549 -1.42736637063,-3.4769180823 -9.17418385221,-3.4769180823 c -4.74568818952,0 -13.602679515,0.634385053612 -19.7696342188,1.26267025094 c -11.0712391568,1.11017384382 -11.0712391568,1.11017384382 -16.603808807,-7.5882212182 c -5.85586203334,-9.33278011562 -13.602679515,-15.8169273463 -22.301074577,-18.1897714411 c -7.11853228428,-2.05565156796 -34.0005989311,-1.73845904115 -40.960534952,0.475788790209 m 88.7224096616,107.699062563 c -2.53144035817,3.00722914837 -0.475788790209,7.11853228428 4.11130313591,8.38730239149 c 2.21424783136,0.469688933925 21.6666895234,0.628285197328 43.1747827833,0.158596263403 c 21.6666895234,-0.475788790209 39.8564609645,-0.475788790209 40.6433424252,0.152496407118 c 0.634385053612,0.475788790209 1.42736637063,6.64884335036 1.58596263403,13.602679515 c 0.152496407118,12.6511019346 0.152496407118,12.6511019346 -21.8252857868,39.8564609645 c -12.0167168809,15.0239460293 -21.9838820502,28.3033331612 -21.9838820502,29.413507005 c 0,3.00722914837 4.11130313591,6.32555096727 6.16085484758,5.22147697973 c 0.792981317014,-0.634385053612 9.1802837085,-10.5954503665 18.3483677045,-22.301074577 c 9.33278011562,-11.7056242104 17.5553863874,-21.3494969966 18.3483677045,-21.3494969966 s 1.58596263403,9.80246904953 1.73845904115,21.6666895234 c 0.475788790209,21.8252857868 0.475788790209,21.8252857868 4.42849566271,21.8252857868 s 3.9527068725,0 4.42849566271,-21.8252857868 c 0.158596263403,-11.8642204738 0.951577580416,-21.6666895234 1.58596263403,-21.6666895234 c 0.628285197328,0 8.53979879861,9.64387278613 17.7078827945,21.3494969966 s 17.5553863874,21.6666895234 18.8180566384,22.1424783136 c 2.53144035816,0.945477724131 6.48414723067,-1.89705530455 6.48414723067,-4.74568818952 c 0,-0.951577580415 -9.96106531294,-14.2309647123 -22.1424783136,-29.0963144782 c -22.1424783136,-27.3639552933 -22.1424783136,-27.3639552933 -22.1424783136,-40.6494422815 s 0,-13.2854869882 43.1808826396,-13.2854869882 c 45.7062231415,0 49.658930014,-0.628285197328 48.2376634997,-7.2710286914 c -0.475788790209,-2.84863288497 -3.00722914837,-3.00722914837 -94.7307681016,-3.4769180823 c -78.602748085,-0.32329238309 -94.5782716949,0 -96.1581344722,1.89095544827" clip-rule="evenodd"/>
</svg>
