<svg xmlns="http://www.w3.org/2000/svg" width="512" height="501" fill="currentColor" viewBox="0 0 512 501">
    <path fill-rule="evenodd" d="M95.9 5.14C92 9.32 91.16 16.3 91.16 40.28c0 27.6-.28 30.12-4.74 28.16-17-7.25-25.93-9.48-37.92-9.76-24.82 0-40.72 11.44-46.85 34.58-7.53 28.45 11.43 78.09 43.5 112.67 18.13 19.52 47.69 42.94 65.26 52.15 9.2 4.74 9.2 4.74.55 13.66-4.74 4.74-8.64 11.71-8.64 14.78 0 8.09 7.25 14.78 15.34 14.78 7.8 0 16.45-10.87 13.94-17.29-.84-2.23.28-5.85 3.07-7.8 3.9-3.35 4.74-3.35 6.97.55 4.74 8.65 22.03 27.61 33.74 37.65 10.6 8.92 28.73 18.68 45.18 24.26 4.74 1.67 5.02 4.18 3.9 24.82-.83 15.9-3.06 26.22-7.25 34.3-6.97 13.67-22.86 28.17-33.46 30.68-13.67 3.07-20.08 8.92-20.08 17.85 0 8.08-.56 8.36-12.27 8.36-10.04 0-13.39 1.4-18.13 7.25-6.69 8.65-7.8 25.38-1.95 33.47 3.9 5.02 8.37 5.3 123.82 5.3 97.33 0 120.47-.84 124.1-3.9 3.34-2.52 4.74-8.1 4.74-17.3 0-18.12-6.42-24.82-23.7-24.82-11.16 0-12.55-.56-12.55-6.41 0-9.2-5.02-14.22-20.08-19.8-15.9-5.86-33.19-24.26-37.93-40.16-1.95-6.13-3.35-19.8-3.35-30.95 0-15.9.84-19.8 4.19-19.8 2.5 0 11.99-3.9 21.47-8.65 16.17-8.09 46.57-35.42 55.5-49.64 5.3-8.36 10.87-5.58 10.87 5.02 0 8.93 7.53 17.01 16.18 17.01 5.85 0 14.5-9.48 14.5-15.9 0-1.95-3.63-7.52-8.37-12.82-8.09-9.48-8.09-9.48 17.57-26.21 26.21-17.3 54.66-43.79 67.77-63.03 3.9-5.86 11.15-18.96 15.9-29.28 6.4-13.95 8.92-23.43 9.75-39.6.84-16.45 0-23.7-3.62-31.8-6.98-14.5-18.97-22.02-37.37-23.42-11.16-.83-20.64.56-32.35 4.74a240 240 0 0 1-17.3 5.86c-.55 0 0-13.1 1.12-29C424.7-4.34 442.54.12 256.26.12 108.73.12 100.09.4 95.9 5.14m175.41 94.54C282.47 127 282.47 127 309.24 129.8c14.78 1.67 27.89 3.9 29 4.74 1.12 1.11-7.53 10.87-19.24 21.75-13.94 12.83-20.63 21.2-19.8 24.54.56 2.51 3.63 15.9 6.7 29.56 3.34 13.39 5.3 25.38 4.46 26.21s-13.39-5.85-27.61-14.5c-26.22-15.61-26.22-15.61-51.87 0-14.22 8.65-26.22 15.06-27.05 14.5-.84-.83 1.67-14.78 5.3-31.23 6.69-29.84 6.69-29.84-14.5-49.08-16.46-15.06-20.36-20.08-17.3-22.03 2.24-1.4 15.06-3.35 28.45-4.46 13.66-1.12 25.66-3.35 27.05-5.3 1.4-1.68 4.46-8.09 6.97-14.22 9.48-24.55 15.9-37.65 18.13-37.65 1.11 0 7.25 12.27 13.38 27.05M82.24 94.66c11.71 6.13 14.5 10.32 14.5 22.59 0 15.34 10.88 71.39 18.13 92.86 4.18 12 6.69 22.59 6.13 23.43-3.06 2.79-25.93-15.62-45.73-36.26-25.38-26.77-40.44-56.05-42.11-81.43-1.12-15.33-.28-18.4 5.02-23.7s8.36-6.14 19.8-4.74c7.25.83 18.12 4.18 24.26 7.25m392.93-.84c6.41 6.7 6.97 8.65 5.58 24.26-1.96 21.2-16.46 51.04-35.7 72.51-13.38 15.06-49.36 43.78-54.66 43.78-1.67 0 0-7.8 3.35-17.57 8.92-24.26 17.29-59.95 21.75-91.19 3.63-26.49 3.63-26.49 18.69-32.62 20.63-8.37 31.79-8.1 40.99.83" clip-rule="evenodd"/>
</svg>
