<svg xmlns="http://www.w3.org/2000/svg" width="512" height="501" fill="currentColor" viewBox="0 0 512 501">
    <path fill-rule="evenodd" d="M 162.94088902,107.882988944 C 160.673990001,110.312639687 160.185734828,114.369807673 160.185734828,128.308330355 c 0,16.0426699753 -0.162751724388,17.5074354948 -2.75515419141,16.3681734241 c -9.88135469494,-4.21410714932 -15.0719721906,-5.51030838283 -22.0412335314,-5.67306010722 c -14.4267778546,0 -23.6687507752,6.64957045355 -27.2318510269,20.0998379619 c -4.3768588737,16.5367377101 6.64375789196,45.3902934193 25.2846428959,65.4901313812 c 10.5381741541,11.3461202145 27.7201062001,24.9591394472 37.9327769055,30.3125086672 c 5.34755665845,2.75515419141 5.34755665845,2.75515419141 0.31969088719,7.93995912549 c -2.75515419141,2.75515419141 -5.02205320967,6.80650961635 -5.02205320967,8.59096602304 c 0,4.70236232248 4.21410714932,8.59096602304 8.91646947177,8.59096602304 c 4.53379803651,0 9.56166380776,-6.31825444319 8.10271084989,-10.0499189809 c -0.488255173162,-1.29620123351 0.162751724388,-3.40034852739 1.78445640667,-4.53379803651 c 2.26689901826,-1.94720813107 2.75515419141,-1.94720813107 4.05135542493,0.31969088719 c 2.75515419141,5.02786577126 12.8050731723,16.0484825369 19.6115827887,21.8842943686 c 6.16131528039,5.18480493406 16.6994894345,10.8578650413 26.2611532422,14.1012744059 c 2.75515419141,0.970697784741 2.9179059158,2.42965074264 2.26689901826,14.4267778546 c -0.482442611576,9.24197292058 -1.77864384509,15.2405364766 -4.21410714932,19.9370862374 c -4.05135542493,7.94577168706 -13.2875157839,16.3739859857 -19.4488310643,17.8329389436 c -7.94577168706,1.78445640668 -11.6716236633,5.18480493406 -11.6716236633,10.3754224297 c 0,4.69654976089 -0.325503448775,4.85930148529 -7.13201306512,4.85930148529 c -5.83581183161,0 -7.78301996265,0.813758621939 -10.5381741541,4.21410714932 c -3.88860370054,5.02786577126 -4.53379803651,14.7522813034 -1.13344950913,19.4546436259 c 2.26689901826,2.9179059158 4.86511404687,3.0806576402 71.9711375487,3.0806576402 c 56.5736619094,0 70.0239294177,-0.488255173162 72.1338892732,-2.26689901826 c 1.94139556948,-1.46476551948 2.75515419141,-4.70817488407 2.75515419141,-10.0557315426 c 0,-10.5323615925 -3.73166453774,-14.4267778546 -13.7757709571,-14.4267778546 c -6.48681872915,0 -7.29476478951,-0.325503448775 -7.29476478951,-3.72585197616 c 0,-5.34755665845 -2.9179059158,-8.26546257423 -11.6716236633,-11.5088719388 c -9.24197292058,-3.40616108897 -19.2918919015,-14.1012744059 -22.0470460929,-23.3432473265 c -1.13344950913,-3.56310025176 -1.94720813107,-11.5088719388 -1.94720813107,-17.9898781064 c 0,-9.24197292058 0.488255173162,-11.5088719388 2.43546330422,-11.5088719388 c 1.45314039632,0 6.96926134074,-2.26689901826 12.4795697235,-5.02786577126 c 9.39891208331,-4.70236232248 27.0690993026,-20.588093135 32.2597167982,-28.8535557092 c 3.0806576402,-4.85930148529 6.31825444319,-3.24340936458 6.31825444319,2.9179059158 c 0,5.19061749564 4.3768588737,9.88716725657 9.40472464504,9.88716725657 c 3.40034852739,0 8.42821429863,-5.51030838283 8.42821429863,-9.24197292058 c 0,-1.13344950913 -2.10995985545,-4.37104631212 -4.86511404687,-7.4517039523 c -4.70236232248,-5.51030838283 -4.70236232248,-5.51030838283 10.2126707053,-15.234723915 c 15.234723915,-10.0557315426 31.7714616251,-25.4532071819 39.3917298633,-36.636575672 c 2.26689901826,-3.40616108897 6.48100616757,-11.0206167656 9.24197292058,-17.0191803216 c 3.72003941457,-8.10852341146 5.18480493406,-13.6188317943 5.66724754563,-23.0177438776 c 0.488255173162,-9.56166380776 0,-13.7757709571 -2.10414729387,-18.4839458412 c -4.05716798652,-8.42821429863 -11.0264293273,-12.7992606108 -21.7215426441,-13.6130192327 c -6.48681872915,-0.482442611577 -11.997127112,0.325503448775 -18.8036367283,2.75515419141 a 139.501,139.501 0 0,1 -10.0557315426,3.40616108897 c -0.31969088719,0 0,-7.61445567667 0.651006897549,-16.8564285973 C 354.057913943,102.372680561 364.427523811,104.965083028 256.151126601,104.965083028 C 170.398405534,104.965083028 165.376352324,105.127834753 162.94088902,107.882988944 m 101.958142767,54.9519572271 C 271.385850516,178.714864422 271.385850516,178.714864422 286.94607788,180.342381666 c 8.59096602304,0.970697784741 16.2112342613,2.26689901826 16.8564285973,2.75515419141 c 0.651006897549,0.645194335964 -4.3768588737,6.31825444319 -11.1833684901,12.642321448 c -8.10271084989,7.45751651389 -11.9913145504,12.3226305608 -11.5088719388,14.2640261302 c 0.325503448775,1.4589529579 2.10995985545,9.24197292058 3.89441626213,17.1819320461 c 1.94139556948,7.78301996265 3.0806576402,14.7522813034 2.59240246703,15.234723915 s -7.78301996265,-3.40034852739 -16.0484825369,-8.42821429863 c -15.2405364766,-9.07340863461 -15.2405364766,-9.07340863461 -30.1497569427,0 c -8.26546257423,5.02786577126 -15.2405364766,8.75371774745 -15.7229790881,8.42821429863 c -0.488255173162,-0.482442611577 0.970697784741,-8.59096602304 3.0806576402,-18.1526298308 c 3.88860370054,-17.3446837704 3.88860370054,-17.3446837704 -8.42821429863,-28.5280522605 c -9.5674763693,-8.75371774745 -11.8343753876,-11.6716236633 -10.0557315426,-12.8050731723 c 1.30201379509,-0.813758621939 8.75371774745,-1.94720813107 16.5367377101,-2.59240246703 c 7.93995912549,-0.651006897549 14.9150330278,-1.94720813107 15.7229790881,-3.0806576402 c 0.813758621939,-0.976510346319 2.59240246703,-4.70236232248 4.05135542493,-8.26546257423 c 5.51030838283,-14.2698386919 9.24197292058,-21.8842943686 10.5381741541,-21.8842943686 c 0.645194335964,0 4.21410714932,7.13201306512 7.77720740108,15.7229790881 M 155.000929894,159.917040255 c 6.80650961635,3.56310025176 8.42821429863,5.99856355599 8.42821429863,13.1305766211 c 0,8.91646947177 6.32406700477,41.4958771573 10.5381741541,53.9754468808 c 2.42965074264,6.97507390233 3.88860370054,13.1305766211 3.56310025176,13.6188317943 c -1.77864384509,1.62170468229 -15.0719721906,-9.07922119618 -26.5808441294,-21.0763483081 c -14.7522813034,-15.5602273638 -23.5059990508,-32.5794076854 -24.4766968356,-47.3316889888 c -0.651006897549,-8.9106569102 -0.162751724388,-10.6951133168 2.9179059158,-13.7757709571 s 4.85930148529,-3.56891281335 11.5088719388,-2.75515419141 c 4.21410714932,0.482442611577 10.5323615925,2.42965074264 14.1012744059,4.21410714932 m 228.39298237,-0.488255173162 c 3.72585197616,3.89441626213 4.05135542493,5.02786577126 3.24340936458,14.1012744059 c -1.13926207072,12.3226305608 -9.5674763693,29.6673143312 -20.7508448594,42.1468840548 c -7.77720740108,8.75371774745 -28.6908039849,25.4473946203 -31.7714616251,25.4473946203 c -0.970697784741,0 0,-4.53379803651 1.94720813107,-10.2126707053 c 5.18480493406,-14.1012744059 10.0499189809,-34.8463067036 12.642321448,-53.0047490961 c 2.10995985545,-15.3974756394 2.10995985545,-15.3974756394 10.8636776028,-18.9605758912 c 11.9913145504,-4.86511404687 18.4781332796,-4.70817488407 23.825689938,0.482442611577" clip-rule="evenodd"/>
</svg>
