<svg xmlns="http://www.w3.org/2000/svg" width="476" height="512" fill="currentColor" viewBox="0 0 476 512">
    <path fill-rule="evenodd" d="M211.95.43c-14.71 2.45-49.57 11.91-60.78 16.64-33.8 14.54-63.59 35.56-85.66 60.61-26.45 30.13-42.56 58.33-53.77 94.24C2.28 202.4.18 217.46 0 254.25c0 20.5.88 39.06 2.45 48.17 2.8 17.7 12.44 48.52 19.97 64.64 22.42 48.17 54.65 85.13 95.82 110.18 16.29 9.98 32.75 17.69 48.7 22.94 17.69 5.96 27.85 8.06 52.02 10.86 36.43 4.03 83.38-4.9 117.36-22.42 16.47-8.4 32.58-18.04 36.26-21.37 1.58-1.57 7.53-6.65 13.49-11.38 11.38-9.29 33.45-32.58 40.29-42.92 2.45-3.5 5.43-7.36 6.65-8.58 1.23-1.23 2.28-3.5 2.28-4.73s1.93-4.73 4.38-7.53c2.45-2.98 4.38-5.79 4.38-6.49s2.63-6.48 5.95-12.96c8.59-16.81 17.87-45.9 21.02-64.98 7.01-42.22 7.19-61.84.88-99.32-6.48-39.07-22.95-79.18-44.5-108.26-8.05-11.2-25.57-30.83-33.98-38.53-25.74-23.65-67.08-46.77-95.64-53.43a671 671 0 0 1-21.9-5.43C269.24.78 220.72-.79 211.96.43m57.1 32.93c10.17 1.4 23.13 4.2 28.9 6.31 5.61 2.1 13.85 5.08 18.23 6.48 4.38 1.58 9.1 3.68 10.5 4.9s6.14 4.03 10.52 6.14c8.58 4.38 28.02 18.74 39.76 29.25 28.55 26.1 50.45 62.53 62.88 104.75 4.03 13.84 7.89 45.72 7.71 63.94 0 19.79-2.8 44.14-6.3 58.68-7.71 30.65-22.78 61.48-42.75 87.58-4.2 5.6-33.63 34.68-39.4 39.06-25.4 18.92-59.56 33.98-88.47 38.89-15.41 2.8-56.23 2.28-69.19-.7-31.88-7.36-52.2-15.94-77.42-32.93-22.42-15.24-46.42-40.3-61.31-64.29-17.52-28.38-29.25-60.78-32.93-91.26-3.15-25.75-3.15-41.17 0-68.32 1.75-15.24 4.38-27.5 8.76-40.28 5.95-17.52 15.76-39.24 24.17-52.73 6.83-11.04 21.37-28.55 33.98-40.64 11.91-11.56 40.82-32.76 44.67-32.76 1.05 0 3.33-1.05 4.73-2.45 2.98-2.62 28.55-12.78 38.71-15.41 25.75-6.66 54.83-8.06 84.26-4.2m-53.24 76.38c-4.73 1.75-10.34 5.43-12.8 8.23-2.27 2.63-5.42 8.76-7 13.49-2.45 7-2.45 9.8-.87 15.76 1.22 3.86 2.45 8.41 2.97 9.99.35 1.57-2.62 7-6.65 12.26s-7.89 9.8-8.41 10.33-5.78 6.83-11.39 14.02c-5.78 7.18-12.96 16.29-16.29 20.14-3.15 3.85-6.48 7.88-7.35 9.11-1.23 1.4-3.33 1.58-8.06.17-9.64-2.62-20.15-.35-27.5 5.79-8.94 7.35-13.5 16.81-13.5 28.2 0 7.18 1.24 11.03 5.26 17.51 5.61 9.11 15.77 15.42 24.18 15.42 4.73 0 5.6.87 8.93 9.98 1.93 5.6 5.26 14.9 7 20.67 1.93 5.78 5.09 15.24 7.01 20.85 2.1 5.78 3.68 11.9 3.68 13.66 0 1.93-1.92 5.96-4.2 8.93-9.64 12.97-8.76 28.56 2.45 39.77 13.49 13.48 28.9 13.31 41.87-.88 4.73-5.25 7.18-9.46 7.18-12.61 0-2.8.7-5.78 1.4-6.83 1.05-1.93 73.57-26.98 77.6-26.98 1.05 0 3.85 2.45 6.48 5.43 5.78 7 13.66 10.34 24 10.34 10.16 0 17.86-3.33 24.87-10.86 6.66-6.84 9.81-19.27 7.7-30.3-1.74-8.94-3.85-12.97-10.33-18.75-5.25-4.73-5.25-4.73-2.62-15.77 1.57-6.13 3.32-12.6 4.2-14.53 1.93-4.73 6.3-20.67 9.1-32.23 2.11-9.29 2.29-9.46 10.52-11.57 16.29-4.2 27.15-18.04 27.32-35.03.18-9.1-5.95-21.2-14-27.5-4.56-3.68-8.94-5.43-15.77-6.13-9.64-.88-15.42.7-26.28 7.7-2.45 1.58-5.6 2.28-7 1.76-1.4-.7-7.19-3.86-12.97-7-5.78-3.16-17.51-9.64-26.27-14.2-8.59-4.55-16.64-9.1-17.7-9.98s-2.45-5.96-2.8-11.21c-.7-7.53-2.1-10.86-7.18-17.17-4.55-5.43-8.93-8.76-14.71-10.68-4.38-1.58-9.46-2.8-10.86-2.8-1.58.17-6.66 1.57-11.21 3.5m23.47 19.09c5.43 5.6 6.65 12.44 3.15 19.97-2.28 5.08-10.16 9.98-16.11 9.98-5.96 0-13.14-6.13-14.9-12.78-3.15-11.92 4.04-22.07 15.95-22.25 5.08 0 7.88 1.23 11.9 5.08m45.54 50.45c26.28 14.36 31.36 17.69 31.36 21.02 0 2.1-1.4 4.73-3.16 5.6-1.75.88-12.26 3.86-23.3 6.3a817 817 0 0 0-35.73 8.94 839 839 0 0 1-28.9 7c-7.18 1.59-16.3 3.86-20.14 5.26-6.49 2.1-38.37 9.46-41.52 9.46-.7 0-2.1-1.57-3.15-3.5-1.58-2.8 1.22-7 19.62-29.78 11.9-14.71 23.47-29.25 25.75-32.58 2.97-4.2 5.08-5.78 7-4.9 5.6 2.27 19.27 2.8 25.05.87 3.33-1.05 8.06-4.03 10.16-6.3 2.28-2.46 4.38-4.38 4.73-4.38.53 0 14.89 7.7 32.23 16.99m75.67 10.5c1.58 1.58 3.86 5.79 4.9 9.3 1.58 5.07 1.4 7.7-.87 12.78-1.92 4.73-4.55 7.36-8.93 9.28-3.5 1.4-7.88 2.1-9.81 1.58-1.75-.7-5.78-3.15-8.58-5.6-4.56-3.68-5.26-5.61-5.26-12.44 0-5.08 1.23-9.81 3.15-12.26 5.6-7.36 18.57-8.59 25.4-2.63m-35.03 38.72c6.48 6.66 6.48 6.66 1.4 25.75-14.19 53.6-13.14 50.8-17.87 51.32-8.93 1.05-12.26 2.28-18.04 7.36-5.95 5.26-5.95 5.26-19.62-1.05-7.7-3.5-21.9-10.16-31.88-14.89s-18.39-8.58-18.92-8.58c-.35 0-6.48-2.8-13.48-6.13-7.18-3.33-19.27-8.76-26.8-12.1-7.71-3.32-13.84-7.17-13.84-8.4 0-2.28 4.2-3.5 32.4-9.98 8.24-1.93 24.35-5.78 35.91-8.59 11.56-2.97 28.2-7 36.79-9.1 8.76-2.1 22.07-5.61 29.78-7.89 7.7-2.1 14.89-4.03 15.76-4.2 1.05 0 4.9 2.8 8.41 6.48m-184.28 12.61c4.2 2.28 8.59 10.69 8.59 16.47 0 6.13-10.51 16.81-16.47 16.81-10.68 0-18.4-7.88-18.57-18.39 0-5.08 1.23-8.4 4.38-11.91 3.5-3.68 6.13-4.73 11.56-4.73 3.86 0 8.59.88 10.51 1.75m31.71 43.62c30.3 14.01 42.74 19.44 44.67 19.44 1.05 0 2.27.7 2.62 1.4.53 1.4 12.1 6.83 44.85 20.85 12.08 5.08 14.54 6.83 14.01 9.8-.35 2.99-6.13 5.44-32.93 14.72-52.55 18.04-46.24 16.82-52.55 9.99-2.8-3.33-7.18-6.31-9.63-6.84-2.46-.52-6.31-1.22-8.41-1.75-3.68-.7-5.6-4.73-15.42-34.33-11.2-33.28-11.2-33.28-7-36.79 2.27-1.75 4.37-3.32 4.55-3.32.35 0 7.18 2.97 15.24 6.83m149.42 39.76c5.78 3.85 8.23 11.91 6.13 19.97-2.1 7.88-8.06 12.26-16.47 12.26-4.2 0-7.53-1.57-11.38-5.08-4.38-4.2-5.43-6.48-5.43-12.43 0-5.79 1.05-8.41 5.08-12.44 3.85-3.68 6.83-5.08 11.56-5.08 3.33 0 8.05 1.22 10.5 2.8m-139.09 47.82c6.31 6.3 6.66 14.01 1.23 19.97-5.6 6.13-11.74 7-18.4 3.15-5.42-3.32-7.35-8.75-6.12-17.34.7-4.38 9.63-10.86 14.89-10.86 1.75 0 5.6 2.28 8.4 5.08" clip-rule="evenodd"/>
</svg>
