<svg xmlns="http://www.w3.org/2000/svg" width="473" height="512" fill="currentColor" viewBox="0 0 473 512">
    <path fill-rule="evenodd" d="M 202.990863885,17.9960883285 c -21.2771297847,2.9994191767 -48.0094531971,12.8412633503 -75.6134828077,27.9602106378 c -12.8412633503,7.0298886954 -32.3562343687,22.6831075238 -46.4253849444,37.6333374827 c -15.1283204725,15.831309342 -18.6432648202,20.3960504016 -30.9502566296,40.4452929609 c -15.2970378012,24.6233568038 -25.3263456733,50.465227648 -31.4751549855,80.8905859217 c -3.5149443477,17.9402759507 -4.92092208678,65.2373670933 -2.46514763585,84.4055302694 c 2.10896660862,15.4751283148 8.08905859217,40.4452929609 13.1880711926,54.6925340502 c 8.62333013302,24.2671757765 28.841290021,57.8512973707 48.0094531971,79.831416025 c 9.49503633125,10.7322967416 27.9602106378,27.4353122819 42.9104405967,38.3363263522 c 13.3567885213,9.84184417356 52.2180132294,27.6040296106 65.0592765797,29.5442788905 c 3.69303486132,0.70298886954 6.86117136671,1.75278558139 6.86117136671,2.63386496454 s 19.3368805048,1.5840682527 43.0791579254,1.5840682527 s 43.0791579254,-0.70298886954 43.0791579254,-1.5840682527 c 0,-0.70298886954 3.69303486132,-1.930876095 8.43586643448,-2.45577445093 c 16.0093998557,-1.94024927993 52.0586690857,-18.9994458474 73.3357988704,-34.8213820045 a 225.894,225.894 0 0,0 42.9104405967,-40.9701913168 c 13.7129695485,-16.8811060539 16.1781171843,-20.7522314288 25.3169724884,-38.1582358386 c 10.554206228,-19.8711520457 19.5243442034,-43.266621624 23.2173790647,-60.6726260338 c 1.5840682527,-7.56416023625 3.86175219001,-17.4060044098 4.74283157316,-21.8020281407 c 2.28705712224,-10.3761157144 2.28705712224,-66.9995258596 0,-78.2567209572 c -8.08905859217,-39.0393152218 -13.3661617062,-54.8612513789 -26.1980518715,-80.0095065386 c -14.5940489317,-28.4944821787 -42.5542595695,-61.7224227456 -66.2965369901,-79.1284271554 c -18.287083793,-13.3661617062 -39.7423040913,-24.2765489614 -63.6532988406,-32.7124153959 a 335.56,335.56 0 0,0 -24.4452662901,-5.98009198355 C 263.307308892,16.9462916167 252.406294821,15.8871217199 236.228177637,16.0652122335 c -12.1382744807,0.178090513617 -27.0885044396,1.05916989677 -33.2373137519,1.930876095 m 66.9995258596,31.3064376568 c 49.5841482649,8.97013797533 93.731849272,37.980145325 123.969743847,81.4154842777 c 11.7820934535,17.0591965675 24.2671757765,44.4851356645 30.5940756024,67.3463337019 c 5.45519362763,20.2273330729 5.62391095632,21.9801186543 5.81137465486,56.0985117893 c 0,36.04926923 -0.53427154085,40.2672024473 -9.14822848895,69.4553003106 c -7.0298886954,23.9203679342 -18.9900726625,47.3064643276 -35.5243708741,69.4646734955 c -14.415958418,19.1681631761 -37.2771564555,38.8612247082 -59.9602639793,51.5243975448 c -37.8114279963,21.2771297847 -83.5338240712,28.4944821787 -125.5538121,19.693061532 c -21.4645934833,-4.57411424447 -30.4253582737,-7.91096807856 -50.9994991889,-19.3462536897 c -20.9209487575,-11.6040029399 -39.7423040913,-26.9010407411 -54.8612513789,-44.8413166917 c -21.4645934833,-25.495063002 -33.5934947791,-47.6532721699 -43.7915199799,-80.0095065386 c -5.0990126004,-16.346834513 -9.67312684487,-47.128373814 -9.67312684487,-64.8811860661 c 0,-31.3064376568 9.50440951618,-72.09853846 22.6831075238,-98.3059635165 c 6.68308085309,-13.1880711926 16.7123887252,-29.1880978633 22.8705712224,-36.3960770723 c 2.45577445093,-2.9994191767 7.20797920902,-8.79204746171 10.5448330431,-13.009980679 c 7.74225074987,-9.50440951618 28.4944821787,-26.2074250565 43.7915199799,-35.1775630318 c 21.0896660862,-12.3069918094 50.8120354904,-22.3269264966 75.0792112669,-25.3169724884 c 14.2472410893,-1.76215876631 36.9303486132,-0.881079383157 54.1676356943,2.28705712224 M 225.149073053,92.9065822667 c -5.62391095632,3.52431753263 -25.3263456733,16.0093998557 -43.9602373086,27.4353122819 c -18.6526380051,11.6040029399 -37.8114279963,23.3860963934 -42.741723268,26.5542328988 c -4.74283157316,3.16813650539 -14.5940489317,8.97013797533 -21.4458471134,13.009980679 c -7.0298886954,4.04921588855 -13.5442522198,8.79204746171 -14.5940489317,10.7322967416 c -1.05916989677,2.10896660862 -1.76215876631,34.9900993332 -1.76215876631,91.0886111225 c 0,87.7423841035 0,87.7423841035 4.04921588855,91.2667016361 c 2.10896660862,2.10896660862 14.5940489317,10.1980252008 27.6040296106,18.277710608 c 13.009980679,7.92034126348 35.3369071755,21.633310812 49.7716119634,30.4253582737 c 14.2378679044,8.79204746171 32.0000533415,19.693061532 39.5548403928,24.2765489614 c 7.38606972263,4.56474105955 14.425331603,8.43586643448 15.4751283148,8.43586643448 s 5.27710311401,-2.28705712224 9.67312684487,-4.93029527171 c 4.21793321724,-2.81195547816 31.4751549855,-19.1587899912 60.4945355201,-36.3960770723 c 29.0100073497,-17.2372870811 56.0985117893,-33.5841215942 60.3164450065,-36.3960770723 c 7.38606972263,-5.10838578532 7.38606972263,-5.10838578532 7.38606972263,-95.3159175247 c 0,-102.34580622 1.75278558139,-91.0886111225 -16.0000266707,-101.989625193 c -7.92034126348,-4.75220475809 -53.1084657975,-32.5249516974 -67.5337974005,-41.5044628576 c -39.5548403928,-24.4358931052 -51.8712053871,-31.6438723142 -53.9895451807,-31.4751549855 c -1.21851404054,0 -6.84242499686,2.9994191767 -12.2976186245,6.50499033948 m 26.5542328988,16.5342982116 c 6.85179818178,4.21793321724 12.485082323,8.62333013302 12.485082323,9.67312684487 c 0,1.22788722546 -4.40539691578,4.74283157316 -9.67312684487,7.73287756494 s -10.1980252008,6.15818249717 -10.7322967416,7.0298886954 c -0.524898355923,0.881079383157 -2.45577445093,1.59344143762 -4.21793321724,1.59344143762 c -4.21793321724,0 -26.3761423851,-13.900433247 -26.3761423851,-16.5342982116 c 0,-1.05916989677 2.63386496454,-3.5149443477 5.80200146994,-5.62391095632 c 10.9010140703,-7.0298886954 17.9402759507,-11.2571950976 19.1681631761,-11.2571950976 c 0.70298886954,0 6.86117136671,3.33685383408 13.5442522198,7.38606972263 m -40.0984851186,26.0293345428 c 5.62391095632,4.03984270362 10.3761157144,8.25777592086 10.3761157144,9.49503633125 c 0,2.81195547816 -21.9801186543,16.871732869 -26.5542328988,16.871732869 c -4.39602373086,0 -26.1980518715,-13.7129695485 -26.1980518715,-16.346834513 c 0.178090513617,-2.10896660862 14.5940489317,-11.7820934535 17.4060044098,-11.7820934535 c 0.881079383157,0 2.46514763585,-1.22788722546 3.69303486132,-2.63386496454 c 3.69303486132,-4.40539691578 10.1980252008,-2.9994191767 21.2771297847,4.39602373086 m 82.652744688,0.346807842306 c 6.68308085309,4.21793321724 12.1289012958,8.62333013302 12.1289012958,10.1980252008 c 0,2.81195547816 -20.7522314288,15.831309342 -25.1482551597,15.831309342 c -4.21793321724,0 -27.6040296106,-14.0691505757 -27.6040296106,-16.7123887252 c 0,-1.22788722546 3.33685383408,-4.39602373086 7.56416023625,-7.20797920902 c 11.2478219126,-7.56416023625 14.0597773908,-9.13885530402 17.7528122521,-9.31694581764 c 1.76215876631,-0.178090513617 8.79204746171,3.16813650539 15.3064109861,7.21735239394 m -41.5044628576,25.3263456733 c 7.21735239394,4.56474105955 13.1880711926,9.13885530402 13.1880711926,10.1980252008 c -0.178090513617,1.75278558139 -24.7920741324,18.6338916353 -27.4353122819,18.6338916353 c -2.62449177962,0 -28.6631995074,-16.871732869 -28.6631995074,-18.4651743066 c 0,-2.10896660862 24.4452662901,-18.4651743066 27.4353122819,-18.4651743066 c 1.22788722546,0 8.08905859217,3.70240804624 15.4751283148,8.0984317771 m -85.4647001662,1.04979671185 c 6.68308085309,4.21793321724 12.3163649943,8.26714910579 12.3163649943,9.31694581764 c 0,2.28705712224 -26.0293345428,18.4651743066 -29.7129962192,18.4651743066 c -3.70240804624,0 -26.3855155701,-14.415958418 -26.3855155701,-16.7030155403 c 0,-1.930876095 26.1980518715,-18.4651743066 29.1880978633,-18.4651743066 c 1.23726041039,0 7.74225074987,3.34622701901 14.5940489317,7.38606972263 m 171.810479716,0.881079383157 c 7.20797920902,4.39602373086 13.009980679,9.14822848895 13.009980679,10.3761157144 c 0,2.63386496454 -21.633310812,16.5249250267 -25.8512440292,16.5249250267 c -4.03984270362,0 -30.2472677601,-16.0000266707 -30.4253582737,-18.4651743066 c 0,-2.45577445093 23.0392885511,-16.7030155403 27.0885044396,-16.7030155403 c 1.75278558139,0 9.13885530402,3.69303486132 16.1781171843,8.26714910579 m -129.256220146,25.1482551597 c 6.68308085309,4.03984270362 12.1382744807,8.43586643448 12.1382744807,9.84184417356 s -3.69303486132,4.75220475809 -8.26714910579,7.56416023625 c -4.74283157316,2.81195547816 -11.2478219126,6.86117136671 -14.5940489317,8.97013797533 c -5.45519362763,3.5149443477 -6.68308085309,3.69303486132 -10.0293078721,1.5840682527 c -2.09959342369,-1.40597773908 -8.25777592086,-5.0990126004 -13.5348790349,-8.26714910579 c -5.4458204427,-3.34622701901 -9.84184417356,-6.86117136671 -9.84184417356,-8.26714910579 c 0,-2.81195547816 24.2671757765,-18.277710608 28.6631995074,-18.4651743066 c 1.75278558139,0 8.79204746171,3.16813650539 15.4657551299,7.0298886954 m 86.3457795494,0.346807842306 c 6.68308085309,4.04921588855 12.8412633503,8.43586643448 13.3661617062,10.0293078721 c 0.524898355923,1.40597773908 -0.356181027234,3.33685383408 -2.10896660862,4.39602373086 c -1.76215876631,1.04979671185 -7.0298886954,4.56474105955 -11.9601839671,7.55478705132 c -4.75220475809,3.16813650539 -10.3761157144,5.81137465486 -12.485082323,5.81137465486 c -4.92092208678,0 -29.3661883769,-15.4751283148 -29.3661883769,-18.6526380051 c 0,-1.40597773908 1.76215876631,-3.33685383408 4.03984270362,-4.21793321724 c 2.11833979355,-0.87170619823 7.38606972263,-4.0304695187 11.7820934535,-6.85179818178 c 4.40539691578,-2.99004599178 9.32631900256,-5.45519362763 11.079104584,-5.45519362763 s 8.79204746171,3.34622701901 15.6532188284,7.38606972263 m -165.474206705,7.0298886954 c 12.1382744807,7.56416023625 12.1382744807,7.56416023625 12.1382744807,28.1383011515 c 0,12.3163649943 -0.70298886954,20.7522314288 -1.76215876631,20.7522314288 c -0.881079383157,0 -7.21735239394,-3.33685383408 -13.8910600621,-7.56416023625 c -12.3069918094,-7.37669653771 -12.3069918094,-7.37669653771 -12.485082323,-28.1289279665 c 0,-14.2472410893 0.524898355923,-20.5741409152 1.930876095,-20.5741409152 c 1.23726041039,0 7.56416023625,3.33685383408 14.0691505757,7.38606972263 m 231.948834208,12.6631728366 c 0,20.2273330729 0,20.2273330729 -12.8412633503,28.1383011515 c -7.21735239394,4.40539691578 -13.8910600621,8.08905859217 -14.9502299589,8.08905859217 c -1.57469506777,0 -2.10896660862,-5.80200146994 -2.10896660862,-19.8711520457 c 0,-10.7229235567 0.70298886954,-20.5741409152 1.40597773908,-21.623937627 c 1.94024927993,-3.16813650539 21.9801186543,-14.7721394453 25.495063002,-14.7721394453 c 2.64323814947,0 2.9994191767,2.10896660862 2.9994191767,20.0398693744 m -109.197604402,7.56416023625 c 7.73287756494,4.75220475809 14.2378679044,9.31694581764 14.2378679044,10.3761157144 c 0,2.63386496454 -25.8512440292,18.287083793 -30.0691772465,18.287083793 c -5.0990126004,0 -29.5442788905,-14.5940489317 -29.5442788905,-17.5840949234 c 0,-2.63386496454 25.1482551597,-19.1681631761 29.1880978633,-19.3462536897 c 1.05916989677,0 8.43586643448,3.69303486132 16.1781171843,8.26714910579 m -88.4641193429,1.05916989677 c 21.9894918392,13.009980679 20.0586157442,9.67312684487 20.0586157442,33.0592232382 c 0,12.3069918094 -0.712362054467,20.9209487575 -1.76215876631,20.9209487575 c -0.881079383157,0 -7.56416023625,-3.69303486132 -14.9502299589,-8.08905859217 c -13.1880711926,-7.91096807856 -13.1880711926,-7.91096807856 -13.1880711926,-29.0100073497 c 0,-11.4352856112 0.70298886954,-20.9303219424 1.5840682527,-20.9303219424 s 4.57411424447,1.76215876631 8.25777592086,4.04921588855 m 155.454272018,17.0591965675 c 0,20.9209487575 0,20.9209487575 -5.0990126004,23.7329042357 c -2.99004599178,1.40597773908 -8.79204746171,4.93029527171 -13.009980679,7.91096807856 c -4.40539691578,2.81195547816 -8.79204746171,5.27710311401 -9.85121735849,5.27710311401 c -1.22788722546,0 -1.930876095,-6.85179818178 -1.930876095,-21.0990392711 c 0,-20.9303219424 0,-20.9303219424 8.43586643448,-25.6825267005 a 144.347,144.347 0 0,0 12.485082323,-8.07968540725 c 8.26714910579,-6.32689982586 8.97013797533,-4.92092208678 8.97013797533,17.9402759507 m -40.4452929609,24.2671757765 c 0,20.9209487575 0,20.9209487575 -17.762185437,31.6438723142 c -9.84184417356,5.98009198355 -18.6338916353,10.9103872553 -19.3462536897,10.9103872553 c -0.87170619823,0 -1.57469506777,-9.49503633125 -1.57469506777,-20.9303219424 c 0,-20.9209487575 0,-20.9209487575 17.2279138962,-31.4751549855 c 9.32631900256,-5.81137465486 18.1183664643,-10.554206228 19.3462536897,-10.7229235567 c 1.5840682527,-0.187463698544 2.10896660862,5.0990126004 2.10896660862,20.5741409152 m -64.1875703815,-8.97013797533 c 7.21735239394,4.56474105955 13.3661617062,9.84184417356 13.8910600621,11.9508107822 c 0.53427154085,1.94024927993 1.05916989677,11.2571950976 1.05916989677,20.5741409152 c 0,19.3462536897 -0.70298886954,20.0586157442 -11.2478219126,13.1974443775 a 884.829,884.829 0 0,0 -14.2472410893,-8.80142064664 c -7.92034126348,-5.0990126004 -7.92034126348,-5.0990126004 -7.92034126348,-25.1388819747 c 0,-16.8811060539 0.356181027234,-20.0492425593 2.64323814947,-20.0492425593 c 1.5840682527,0 8.62333013302,3.69303486132 15.8219361571,8.26714910579 m 146.84031507,17.2279138962 c 0,20.0492425593 0,20.2273330729 -4.75220475809,23.2173790647 c -2.81195547816,1.5840682527 -8.43586643448,5.0990126004 -12.6537996517,7.91096807856 c -4.40539691578,2.63386496454 -8.80142064664,4.92092208678 -10.2073983857,4.92092208678 c -1.75278558139,0 -2.28705712224,-4.39602373086 -2.28705712224,-18.9900726625 c 0,-10.3761157144 0.70298886954,-19.693061532 1.40597773908,-20.7522314288 c 1.76215876631,-2.81195547816 23.7422774206,-16.5249250267 26.3761423851,-16.5249250267 c 1.59344143762,0 2.11833979355,5.27710311401 2.11833979355,20.217959888 m -230.889664312,-11.2478219126 c 11.079104584,7.20797920902 11.079104584,7.20797920902 11.079104584,27.2478485834 c 0,11.7820934535 -0.70298886954,20.0586157442 -1.76215876631,20.0586157442 c -0.881079383157,0 -7.21735239394,-3.34622701901 -13.8910600621,-7.56416023625 c -12.3069918094,-7.38606972263 -12.3069918094,-7.38606972263 -12.485082323,-27.2572217683 c 0,-23.3954695783 0.178090513617,-23.3954695783 17.0591965675,-12.485082323 m 41.1482818304,25.6731535156 c 12.1289012958,8.43586643448 12.1289012958,8.43586643448 12.1289012958,28.1289279665 c 0,11.7820934535 -0.70298886954,19.8711520457 -1.75278558139,19.8711520457 c -0.881079383157,0 -7.56416023625,-3.69303486132 -14.9502299589,-8.08905859217 c -13.1880711926,-8.25777592086 -13.1880711926,-8.25777592086 -13.1880711926,-28.1289279665 c 0,-17.0591965675 0.346807842306,-20.0586157442 2.81195547816,-20.0586157442 c 1.40597773908,0 8.26714910579,3.70240804624 14.9502299589,8.27652229072 m 147.533930754,11.9508107822 c 0,20.0586157442 0,20.0586157442 -11.9601839671,27.2572217683 c -6.68308085309,3.87112537493 -13.3661617062,7.0298886954 -14.940856774,7.0298886954 c -2.81195547816,0 -2.9994191767,-2.09959342369 -2.64323814947,-19.6836883471 c 0.524898355923,-19.5243442034 0.524898355923,-19.5243442034 12.8412633503,-27.2572217683 c 6.68308085309,-4.04921588855 13.1880711926,-7.56416023625 14.415958418,-7.56416023625 c 1.76215876631,0 2.28705712224,4.92092208678 2.28705712224,20.217959888 m -40.4452929609,24.2765489614 c 0,20.0398693744 0,20.0398693744 -17.762185437,30.7627929311 c -9.84184417356,5.98009198355 -18.6338916353,10.9103872553 -19.5149710184,10.9103872553 c -1.05916989677,0 -1.40597773908,-8.43586643448 -1.05916989677,-20.4054235865 c 0.524898355923,-19.1681631761 0.70298886954,-20.3960504016 4.92092208678,-23.564186907 c 2.46514763585,-1.930876095 8.62333013302,-5.62391095632 13.7223427334,-8.25777592086 c 5.27710311401,-2.64323814947 10.1980252008,-5.98009198355 11.2478219126,-7.21735239394 a 8.43587,8.43587 0 0,1 5.10838578532,-2.10896660862 c 2.98067280685,0 3.33685383408,1.59344143762 3.33685383408,19.8711520457 m -67.3463337019,-10.9103872553 c 6.68308085309,4.04921588855 13.1880711926,8.43586643448 14.7721394453,9.84184417356 c 2.45577445093,1.94024927993 2.98067280685,6.15818249717 3.15876332047,20.9303219424 c 0.178090513617,14.2472410893 -0.346807842306,18.6432648202 -2.10896660862,19.3462536897 c -1.40597773908,0.524898355923 -7.21735239394,-2.28705712224 -12.8412633503,-5.98009198355 s -12.1289012958,-7.73287756494 -14.2378679044,-8.97013797533 c -3.87112537493,-1.930876095 -4.04921588855,-3.15876332047 -4.04921588855,-22.1582091679 c 0,-12.1289012958 0.712362054467,-20.217959888 1.76215876631,-20.217959888 c 0.881079383157,0 7.0298886954,3.33685383408 13.5442522198,7.21735239394 m 149.99907839,17.2372870811 c 0,14.5940489317 -0.53427154085,19.5149710184 -2.64323814947,21.2771297847 c -5.0990126004,4.21793321724 -22.5050170102,14.0597773908 -24.9701646461,14.0597773908 c -1.930876095,0 -2.28705712224,-3.68366167639 -1.930876095,-19.6836883471 c 0.524898355923,-19.5243442034 0.524898355923,-19.5243442034 12.8412633503,-27.0885044396 c 6.84242499686,-4.21793321724 13.3567885213,-7.73287756494 14.5846757467,-7.73287756494 c 1.59344143762,0 2.11833979355,4.92092208678 2.11833979355,19.1681631761 m -230.720946983,-10.1980252008 c 10.9103872553,7.38606972263 10.9103872553,7.38606972263 10.9103872553,26.3761423851 c 0,12.485082323 -0.70298886954,19.1681631761 -1.94024927993,19.1681631761 c -1.04979671185,0 -7.38606972263,-3.34622701901 -14.0597773908,-7.21735239394 c -12.1382744807,-7.20797920902 -12.1382744807,-7.20797920902 -12.1382744807,-26.3761423851 c 0,-17.4060044098 0.346807842306,-19.1681631761 3.16813650539,-19.1681631761 c 1.930876095,0 8.25777592086,3.34622701901 14.0597773908,7.21735239394 m 40.8014739881,25.495063002 c 12.3069918094,8.26714910579 12.3069918094,8.26714910579 12.3069918094,27.2572217683 c 0,11.079104584 -0.70298886954,19.1681631761 -1.75278558139,19.1681631761 c -0.881079383157,0 -7.56416023625,-3.69303486132 -14.9502299589,-8.08905859217 c -13.1880711926,-7.91096807856 -13.1880711926,-7.91096807856 -13.1880711926,-27.2572217683 c 0,-16.0000266707 0.524898355923,-19.1681631761 2.63386496454,-19.1681631761 c 1.40597773908,0 8.26714910579,3.69303486132 14.9502299589,8.08905859217 m 147.355840241,11.6040029399 c -0.524898355923,19.5243442034 -0.524898355923,19.5243442034 -13.3567885213,27.2572217683 c -7.21735239394,4.21793321724 -13.7223427334,7.56416023625 -14.6034221166,7.56416023625 s -1.57469506777,-8.62333013302 -1.57469506777,-19.1681631761 c 0,-15.6532188284 0.524898355923,-19.5243442034 2.81195547816,-21.4552202984 c 4.74283157316,-3.87112537493 22.5050170102,-13.7129695485 24.9701646461,-13.8910600621 c 1.75278558139,0 2.10896660862,4.57411424447 1.75278558139,19.693061532 m -40.4452929609,24.0890852629 c 0.53427154085,18.9994458474 0.53427154085,18.9994458474 -17.4060044098,29.9004599178 c -9.84184417356,5.80200146994 -18.4651743066,10.7229235567 -19.3462536897,10.7229235567 c -0.87170619823,0 -1.57469506777,-8.62333013302 -1.57469506777,-19.3462536897 c 0,-19.3368805048 0,-19.3368805048 9.31694581764,-25.3169724884 c 11.9601839671,-7.74225074987 24.4452662901,-14.7721394453 26.7323234124,-14.9502299589 c 1.04979671185,-0.178090513617 1.930876095,7.56416023625 2.27768393731,18.9900726625 m -76.3164716773,-16.0000266707 c 0.53427154085,0.70298886954 5.0990126004,3.5149443477 10.3761157144,6.33627301079 c 14.7721394453,7.37669653771 17.0591965675,10.1980252008 17.0591965675,21.0896660862 c 0,15.1283204725 -1.930876095,25.6825267005 -4.75220475809,25.6825267005 c -1.21851404054,0 -4.56474105955,-1.40597773908 -7.20797920902,-3.16813650539 c -2.63386496454,-1.75278558139 -7.0298886954,-4.74283157316 -10.0293078721,-6.68308085309 c -2.81195547816,-1.930876095 -6.67370766817,-4.03984270362 -8.24840273594,-4.74283157316 c -2.82132866309,-1.05916989677 -3.17750969032,-3.69303486132 -3.17750969032,-20.5741409152 c 0,-15.6532188284 0.53427154085,-19.3462536897 2.46514763585,-19.3462536897 c 1.40597773908,0 2.9994191767,0.70298886954 3.5149443477,1.40597773908" clip-rule="evenodd"/>
</svg>
