<svg xmlns="http://www.w3.org/2000/svg" width="508" height="512" fill="currentColor" viewBox="0 0 508 512">
    <path fill-rule="evenodd" d="M 218.381067039,29.9485723407 c -16.2727893226,2.63811049608 -39.3495942682,9.4510086459 -55.3914378908,16.6991506149 C 127.379578715,62.2720878129 91.5563476351,91.495601389 69.7941566742,122.273557177 c -13.8478594727,19.7813874572 -29.01033293,51.4298308832 -33.842427576,70.5539113481 a 779.886,779.886 0 0,1 -5.72034733831,20.8828207956 c -2.63811049608,9.23782799975 -2.41604732301,76.2653761595 0.444126346142,87.4751251361 c 6.36877180368,25.0576084493 9.88625246512,34.7306802683 18.6799541187,52.9753905678 c 5.27622099217,10.7656226305 10.7656226305,21.762190961 12.3111823151,24.178238284 c 5.93352798446,9.23782799975 27.2515925993,35.6011679067 35.3791047337,43.3023187488 c 26.6031681339,26.3722224339 70.562793875,49.2269642064 110.560812609,58.02066586 c 23.0768049455,4.84097717295 70.7759745212,5.06304034602 92.7513461283,0.222063173071 c 21.762190961,-4.84097717295 50.994587064,-15.8286629765 67.2584938597,-25.2796716224 c 23.7429944647,-13.6257962996 40.8862714258,-28.7882697569 67.4805570328,-58.9000360253 c 2.41604732301,-2.63811049608 4.17478765373,-5.27622099217 4.17478765373,-5.93352798446 c 0,-0.888252692284 2.63811049608,-5.06304034602 5.71146481139,-9.68195434589 c 12.7553086612,-18.6799541187 25.2796716224,-48.7917203872 31.8705065991,-77.5799901441 c 1.54555968457,-7.03496132289 2.86017366915,-26.594285607 2.86017366915,-46.162492418 c 0,-37.5730888836 -2.63811049608,-53.6238150332 -14.0699226458,-83.5224006554 c -10.9876858036,-28.3530259377 -32.0836872453,-60.0014693638 -55.1604921908,-83.3003374824 c -24.8444278032,-24.6134821032 -68.5731078443,-48.5696572141 -103.747914459,-56.2619255293 C 288.055608222,29.0780847022 237.061021158,27.0972811985 218.381067039,29.9396898138 m 72.747895498,27.6957189454 c 9.67307181897,1.98080350379 25.0576084493,6.3776543306 34.2865539222,10.1083156382 c 62.4263992137,23.7429944647 114.957663435,89.2427479938 125.065979074,155.621871688 c 3.29541748837,21.3180646148 2.63811049608,47.2550432295 -1.53667715765,67.915800852 c -1.98080350379,9.23782799975 -3.96160700759,19.1240804649 -4.61891399988,22.2063173071 c -1.10143333843,6.58195244982 -2.63811049608,10.0994331113 -10.7656226305,27.4647732454 c -10.1171981651,21.1048839687 -23.2988681186,40.6642082528 -37.1467275913,54.9473115447 c -33.1940031106,33.8513101029 -72.9699586711,53.8547607332 -120.89119142,60.8897220561 c -14.7272296381,1.97192097687 -23.0768049455,1.97192097687 -40.8773888989,-0.222063173071 c -36.2673574259,-4.39685082681 -73.1920218442,-19.3461436379 -100.665677617,-40.8862714258 c -14.9492928111,-11.4229296228 -31.657325953,-29.01033293 -42.6361292296,-44.6169327334 c -9.23782799975,-12.9684893073 -21.1048839687,-37.1467275913 -26.825231307,-54.2900045524 c -9.4510086459,-28.5750891108 -12.5243629612,-71.2112183404 -6.81289814982,-96.7040706089 c 4.61891399988,-20.4475769764 12.5243629612,-43.3023187488 16.9300963149,-49.9020362525 c 2.41604732301,-3.0733543153 4.17478765373,-6.59083497675 4.17478765373,-7.90544896133 c 0,-2.63811049608 18.6799541187,-30.3338294415 26.1501592608,-38.4613415759 c 31.657325953,-35.1748066144 68.5731078443,-56.9369975754 112.319552939,-66.1659430482 c 19.5593242841,-4.3968508268 53.188571214,-4.17478765373 73.8493288365,0 M 132.220555888,166.668426737 c -1.98080350379,3.95272448066 -8.34957530747,16.0418436226 -13.8567419996,27.0295294262 C 112.883294777,204.481343848 102.997042312,222.930352266 96.8414511542,234.593110116 C 90.4549142967,246.229220385 85.4007564776,257.216906188 85.4007564776,259.197709692 c 0,4.17478765373 32.0925697722,21.984254134 37.1467275913,20.2255138033 c 1.98080350379,-0.444126346142 7.69226831518,-9.68195434589 12.7464261343,-20.2255138033 a 529.399,529.399 0 0,1 16.921213788,-32.5278135914 c 16.0507261496,-28.1309627646 21.5401277879,-40.2200819066 20.6607576225,-46.162492418 c -0.444126346142,-5.05415781909 -3.28653496145,-7.69226831518 -13.8389769458,-13.4037331266 c -7.25702449596,-4.17478765373 -15.3934191573,-7.47020514211 -18.0315296534,-7.47020514211 c -3.28653496145,0 -6.1467086306,2.41604732301 -8.79370165361,7.03496132289 m 209.894111187,1.97192097687 c -7.01719626904,4.84097717295 -12.7375436074,10.1171981651 -12.7375436074,11.6538753228 s 2.63811049608,7.69226831518 5.93352798446,13.6257962996 c 18.6799541187,34.2865539222 23.5209312917,43.7375625681 33.6292469299,63.9541938444 c 6.81289814982,13.8567419996 12.3022997881,22.6504436532 14.505166465,22.6504436532 c 1.75874033072,0 10.1083156382,-3.73954383451 18.4578909457,-8.13639466132 c 12.5243629612,-6.81289814982 15.3934191573,-9.23782799975 15.3934191573,-13.8567419996 c 0,-5.26733846524 -10.7745051574,-28.3441434108 -23.7429944647,-50.541578191 a 743.468,743.468 0 0,1 -15.1624734573,-29.2323961031 c -9.23782799975,-18.2447102995 -9.89513499204,-19.1240804649 -16.6991506149,-18.9108998187 c -4.40573335373,0 -11.8759384958,3.51748066144 -19.568206811,8.79370165361 m -94.0659601129,14.505166465 c -8.79370165361,3.73954383451 -33.842427576,27.4825382993 -45.2742397257,42.6361292296 c -8.79370165361,11.8759384958 -9.89513499204,23.3077506455 -3.29541748837,29.24127863 c 6.59083497675,5.93352798446 19.5593242841,2.63811049608 27.6868364185,-7.03496132289 c 13.4126156535,-15.8197804496 21.5401277879,-22.4194979532 27.9177821185,-22.4194979532 c 7.03496132289,0 18.2447102995,5.06304034602 20.8739382687,9.4510086459 c 0.888252692284,1.75874033072 15.6154823303,14.9492928111 32.5366961184,29.4544592761 s 32.7498767645,28.5750891108 34.9438609144,31.2131996069 c 6.59971750367,7.24814196904 12.9684893073,5.71146481139 22.2063173071,-5.49828416524 c 6.81289814982,-8.34957530747 7.90544896133,-10.9876858036 6.81289814982,-16.6991506149 c -0.666189519213,-3.96160700759 -2.63811049608,-8.58052100746 -4.39685082681,-10.3303788113 c -1.75874033072,-1.98080350379 -9.23782799975,-15.3934191573 -16.6991506149,-29.8985856223 c -7.47908766903,-14.505166465 -14.5140489919,-27.2515925993 -15.6154823303,-28.3530259377 c -1.09255081151,-1.31461398458 -1.97192097687,-3.95272448066 -1.97192097687,-6.15559115753 c 0,-3.28653496145 -1.75874033072,-3.95272448066 -9.4510086459,-3.95272448066 c -5.49828416524,0 -17.3653401341,-3.08223684222 -28.7971522838,-7.69226831518 c -21.5401277879,-8.34957530747 -34.5086170952,-9.4510086459 -47.4771064026,-3.96160700759 m -45.0610590796,6.15559115753 c -8.34957530747,3.08223684222 -18.6799541187,5.49828416524 -22.4194979532,5.49828416524 c -6.59083497675,0 -7.90544896133,1.31461398458 -13.8389769458,12.5243629612 c -3.51748066144,7.03496132289 -10.1171981651,18.6888366457 -14.2919858188,25.9369786147 c -10.9876858036,18.9020172918 -20.8739382687,39.7848380874 -20.8739382687,44.8389959065 c 0,2.20286667686 2.62922796916,7.25702449596 5.93352798446,10.9876858036 c 4.17478765373,4.61891399988 8.1275121344,6.82178067674 12.3022997881,6.82178067674 c 6.3776543306,0 6.3776543306,0 -0.444126346142,8.57163848054 c -7.90544896133,10.1083156382 -9.00688229976,19.9945681033 -2.40716479609,26.594285607 c 5.26733846524,5.27622099217 10.5435594574,5.48940163831 17.5874033072,0.65730699229 c 3.0733543153,-1.98080350379 4.17478765373,-2.20286667686 2.84240861531,-0.65730699229 c -4.17478765373,4.61891399988 -3.50859813452,14.2831032919 1.54555968457,18.6799541187 c 2.86017366915,2.63811049608 6.59083497675,3.51748066144 11.6449927958,2.86017366915 c 6.82178067674,-0.666189519213 7.25702449596,-0.444126346142 5.27622099217,3.0733543153 c -1.97192097687,3.08223684222 -1.53667715765,5.06304034602 2.20286667686,9.89513499204 c 3.51748066144,5.05415781909 6.15559115753,6.1467086306 13.6257962996,6.1467086306 c 7.69226831518,0 9.01576482668,0.666189519213 9.01576482668,4.61891399988 c 0,6.3776543306 6.81289814982,11.8670559689 14.505166465,11.8670559689 c 7.03496132289,-0.213180646148 11.8670559689,-3.28653496145 15.8197804496,-9.88625246512 c 1.3234965115,-2.41604732301 2.63811049608,-3.08223684222 2.63811049608,-1.75874033072 c 0,1.53667715765 1.98080350379,4.83209464602 4.3968508268,7.24814196904 c 3.08223684222,3.08223684222 7.25702449596,4.39685082681 14.9492928111,4.39685082681 c 13.4126156535,0 19.1240804649,-3.73066130759 17.5874033072,-11.8670559689 c -1.10143333843,-5.93352798446 -1.10143333843,-5.93352798446 3.0733543153,-1.31461398458 c 2.19398414994,2.41604732301 6.59083497675,4.3968508268 9.67307181897,4.3968508268 c 7.46132261518,0 16.921213788,-9.89513499204 15.8197804496,-16.2727893226 c -0.879370165361,-4.83209464602 -0.444126346142,-5.0541578191 7.03496132289,-4.17478765373 c 4.39685082681,0.65730699229 10.3303788113,0 12.9684893073,-1.53667715765 c 3.95272448066,-1.98080350379 4.83209464602,-4.17478765373 4.17478765373,-11.6449927958 c -0.65730699229,-8.13639466132 -1.98080350379,-10.1171981651 -12.9684893073,-19.1240804649 c -20.2166312764,-16.2639067957 -34.9438609144,-29.4544592761 -34.9438609144,-31.2131996069 c 0,-4.3968508268 5.71146481138,-0.222063173071 27.0295294262,20.2255138033 c 19.1240804649,18.2358277726 24.178238284,21.9753716071 29.8985856223,21.9753716071 c 4.83209464602,0 8.79370165361,-1.98080350379 12.3022997881,-5.71146481139 c 3.08223684222,-3.3043000153 5.49828416524,-7.25702449596 5.49828416524,-8.79370165361 c 0,-6.81289814982 -5.93352798446,-13.8567419996 -24.6134821032,-29.4544592761 c -18.2447102995,-15.3845366304 -39.5716574412,-33.842427576 -47.9212327487,-41.7567590643 c -1.75874033072,-1.75874033072 -8.57163848054,-7.47908766903 -14.7272296381,-12.7553086612 c -8.34957530747,-6.81289814982 -12.9684893073,-9.22894547283 -18.6799541187,-9.22894547283 c -6.59083497675,0 -9.23782799975,1.98080350379 -20.0034506302,14.0699226458 c -6.81289814982,7.69226831518 -15.3845366304,14.9404102842 -18.9020172918,16.2550242688 c -5.05415781909,1.76762285764 -7.90544896133,1.54555968457 -13.6257962996,-1.52779463073 c -3.95272448066,-2.20286667686 -8.13639466132,-5.27622099217 -9.23782799975,-7.03496132289 c -1.31461398458,-1.98080350379 -0.870487638438,-6.81289814982 0.666189519213,-12.7464261343 c 1.75874033072,-7.03496132289 6.81289814982,-14.0699226458 20.0034506302,-27.4736557723 c 18.9020172918,-19.7902699841 22.1974347802,-27.6957189454 11.4229296228,-27.6957189454 c -3.50859813452,0 -12.9684893073,2.63811049608 -21.5401277879,5.48940163831 m -21.9753716071,102.211237301 c 2.19398414994,2.41604732301 3.51748066144,4.3968508268 2.86017366915,4.3968508268 c -0.666189519213,0 -2.86017366915,-1.98080350379 -5.06304034602,-4.3968508268 s -3.50859813452,-4.39685082681 -2.85129114223,-4.39685082681 s 2.86017366915,1.97192097687 5.05415781909,4.39685082681 m 22.6415611263,10.1083156382 c 2.85129114223,0.65730699229 6.36877180368,4.17478765373 8.57163848054,8.57163848054 c 1.97192097687,4.17478765373 5.27622099217,7.69226831518 7.03496132289,7.69226831518 c 1.97192097687,0 5.05415781909,1.10143333843 6.81289814982,2.19398414994 c 2.41604732301,1.54555968457 0.879370165361,1.98080350379 -5.27622099217,1.54555968457 c -7.91433148825,-0.444126346142 -9.01576482668,0.213180646148 -15.8286629765,10.3303788113 c -4.17478765373,5.71146481139 -7.47020514211,9.4510086459 -7.47020514211,7.90544896133 c 0,-1.53667715765 3.0733543153,-6.59083497675 6.81289814982,-11.2097489766 c 5.71146481139,-7.24814196904 6.3776543306,-9.66418929205 5.27622099217,-15.5977172765 c -0.888252692284,-3.96160700759 -2.86017366915,-7.91433148825 -4.17478765373,-8.79370165361 c -3.96160700759,-2.63811049608 -15.6065998034,-1.98080350379 -18.4667734726,0.879370165361 c -1.98080350379,1.97192097687 -2.63811049608,1.53667715765 -2.63811049608,-1.75874033072 c 0,-3.73066130759 1.10143333843,-4.39685082681 7.25702449596,-3.73066130759 c 3.73066130759,0.435243819219 9.22894547283,1.31461398458 12.0802366151,1.97192097687 m -27.0384119531,18.0226471264 c -8.57163848054,8.1275121344 -8.57163848054,8.1275121344 -0.879370165361,-0.879370165361 c 4.17478765373,-4.83209464602 7.90544896133,-8.57163848054 8.57163848054,-8.13639466132 c 0.444126346142,0.444126346142 -2.86017366915,4.3968508268 -7.69226831518,9.01576482668 m 122.863112397,28.5750891108 c 1.54555968457,2.63811049608 0.666189519213,2.41604732301 -3.28653496145,-0.888252692284 c -16.2727893226,-12.7375436074 -28.3619084646,-24.3914189301 -28.3619084646,-26.8074662531 c 0,-3.08223684222 28.1309627646,21.5401277879 31.6484434261,27.6957189454 m -62.4175166868,-12.9684893073 c 1.31461398458,7.03496132289 0.879370165361,9.00688229976 -1.3234965115,9.00688229976 c -1.97192097687,0 -3.0733543153,-2.41604732301 -3.0733543153,-6.15559115753 c 0,-3.28653496145 -0.65730699229,-8.34957530747 -1.31461398458,-11.4229296228 c -1.10143333843,-4.3968508268 -0.888252692284,-5.06304034602 1.31461398458,-2.86017366915 c 1.53667715765,1.3234965115 3.51748066144,6.59083497675 4.3968508268,11.4318121497 m 15.3845366304,14.505166465 c 1.53667715765,1.98080350379 1.75874033072,3.29541748837 0.444126346142,3.29541748837 c -1.10143333843,0 -2.63811049608,-1.53667715765 -3.51748066144,-3.29541748837 c -0.666189519213,-1.75874033072 -0.888252692284,-3.29541748837 -0.444126346142,-3.29541748837 s 1.98080350379,1.53667715765 3.51748066144,3.29541748837 m -30.7690732607,8.57163848054 c 0,0.444126346142 -1.75874033072,2.19398414994 -3.73066130759,3.73066130759 c -3.52636318837,2.86017366915 -3.74842636144,2.64699302301 -0.888252692284,-0.870487638438 s 4.61891399988,-4.61891399988 4.61891399988,-2.86017366915 m 50.5504607179,4.61891399988 c 2.86017366915,3.0733543153 4.61891399988,5.48940163831 3.95272448066,5.48940163831 c -0.435243819219,0 -3.28653496145,-2.41604732301 -6.1467086306,-5.48940163831 c -2.86017366915,-3.08223684222 -4.61891399988,-5.49828416524 -3.96160700759,-5.49828416524 c 0.444126346142,0 3.29541748837,2.41604732301 6.15559115753,5.49828416524 m -21.9753716071,3.28653496145 c 0,1.11031586535 -1.10143333843,2.20286667686 -2.42492984993,2.20286667686 c -1.09255081151,0 -1.53667715765,-1.09255081151 -0.879370165361,-2.19398414994 c 0.666189519213,-1.3234965115 1.75874033072,-2.20286667686 2.42492984993,-2.20286667686 c 0.444126346142,0 0.879370165361,0.888252692284 0.879370165361,2.20286667686" clip-rule="evenodd"/>
</svg>
