<svg xmlns="http://www.w3.org/2000/svg" width="512" height="512" viewBox="0 0 512 512" fill="currentColor">
<path fill-rule="evenodd" clip-rule="evenodd" d="M 393.069758526,97.118948039 c -15.6048648169,2.31964206737 -29.7335937726,5.27191378948 -31.2097296337,6.53717309895 c -5.48279034106,4.42840758316 -1.68701241263,10.7547041305 9.91119792422,16.6592475747 c 6.32629654737,3.16314827369 11.8090868884,6.32629654737 12.4417165432,6.95892620211 c 0.632629654737,0.421753103158 -12.4417165432,15.1831117137 -28.8900875663,32.4749889432 c -18.3462599874,19.4006427453 -29.7335937726,32.8967420463 -29.7335937726,35.6381372169 c 0,5.90454344421 9.91119792422,13.4960993011 14.550482059,11.1764572337 c 1.89788896421,-1.0543827579 16.4483710232,-15.3939882653 32.4749889432,-31.6314827369 c 16.02661792,-16.4483710232 29.7335937726,-29.7335937726 30.577099979,-29.7335937726 c 0.843506206316,0.210876551579 4.00665448,5.90454344421 7.16980275369,12.6525930947 c 4.63928413474,10.543827579 6.53717309895,12.6525930947 10.7547041305,12.6525930947 c 2.95227172211,0 5.69366689264,-1.47613586105 6.53717309895,-3.16314827369 c 0.632629654737,-1.68701241263 2.53051861895,-17.9245068842 4.42840758316,-36.05989032 c 3.58490137684,-35.2163841137 2.95227172211,-39.0121620421 -6.11541999579,-38.590408939 c -2.31964206737,0 -17.2918772295,2.10876551579 -32.8967420463,4.42840758316 z M 235.9667276,164.599444544 c -6.53717309895,3.58490137684 -16.02661792,12.8634696463 -18.7680130905,18.557136539 c -7.16980275369,13.9178524042 -5.48279034106,30.9988530821 4.42840758316,44.07319928 c 6.32629654737,8.22418551158 19.8223958484,14.9722351621 30.1553468758,14.9722351621 c 16.6592475747,0 36.2707668716,-15.6048648169 39.2230385937,-30.577099979 c 3.37402482527,-18.557136539 -5.0610372379,-37.5360261811 -20.2441489516,-45.3384585895 c -9.0676917179,-4.63928413474 -27.8357048084,-5.69366689264 -34.7946310105,-1.68701241263 z M 112.603944926,244.521657593 c -2.95227172211,1.26525930947 -8.85681516632,5.48279034106 -13.0743461979,9.70032137264 c -5.90454344421,5.69366689264 -8.43506206316,10.543827579 -10.3329510274,18.9788896421 c -2.10876551579,8.64593861474 -1.89788896421,13.0743461979 0,19.6115192969 c 2.95227172211,10.3329510274 12.6525930947,21.7202848126 21.2985317095,25.3051861895 c 3.58490137684,1.47613586105 11.5982103368,2.31964206737 18.7680130905,1.68701241263 c 9.48944482106,-0.632629654737 14.3396055074,-2.31964206737 20.2441489516,-6.74804965053 c 4.21753103158,-3.37402482527 9.70032137264,-9.91119792422 11.8090868884,-14.7613586105 c 4.63928413474,-10.3329510274 5.0610372379,-24.6725565348 1.0543827579,-32.4749889432 c -4.00665448,-7.80243240843 -15.8157413684,-18.7680130905 -22.9855441221,-21.2985317095 c -7.38067930527,-2.74139517053 -19.6115192969,-2.74139517053 -26.7813220505,0 z M 371.982103368,244.521657593 c -6.95892620211,2.74139517053 -16.4483710232,12.01996344 -20.4550255032,19.8223958484 c -1.89788896421,3.37402482527 -3.37402482527,10.9655806821 -3.37402482527,16.8701241263 c 0,22.563791019 16.02661792,39.0121620421 38.3795323874,39.0121620421 c 6.11541999579,0 13.4960993011,-1.26525930947 16.6592475747,-2.95227172211 c 12.8634696463,-6.74804965053 23.6181737769,-23.6181737769 23.6181737769,-37.5360261811 c 0,-10.9655806821 -7.59155585685,-24.03992688 -18.3462599874,-30.9988530821 c -7.80243240843,-5.27191378948 -12.01996344,-6.53717309895 -20.4550255032,-6.32629654737 c -5.90454344421,0 -13.0743461979,1.0543827579 -16.02661792,2.10876551579 z M 234.912344842,255.487238275 c -18.9788896421,5.27191378948 -34.583754459,18.557136539 -42.3861868674,36.05989032 c -2.74139517053,6.11541999579 -4.85016068632,16.6592475747 -5.48279034106,26.3595689474 c -1.68701241263,24.6725565348 -5.48279034106,23.4072972253 64.5282247832,23.4072972253 c 45.3384585895,0 59.2563109937,-0.632629654737 62.2085827158,-2.74139517053 c 3.37402482527,-2.53051861895 3.79577792842,-5.27191378948 2.95227172211,-21.7202848126 c -1.0543827579,-21.2985317095 -5.27191378948,-31.6314827369 -17.9245068842,-44.2840758316 c -15.6048648169,-15.6048648169 -43.0188165221,-22.9855441221 -63.8955951285,-17.0810006779 z M 104.168882863,336.25295753 c -5.27191378948,1.89788896421 -14.3396055074,6.95892620211 -20.4550255032,11.5982103368 c -14.3396055074,10.7547041305 -21.5094082611,25.3051861895 -23.1964206737,47.0254710021 c -1.0543827579,13.7069758526 -0.632629654737,16.6592475747 2.53051861895,20.2441489516 c 3.58490137684,4.00665448 6.53717309895,4.21753103158 62.2085827158,4.21753103158 c 55.6714096169,0 58.623681339,-0.210876551579 62.2085827158,-4.21753103158 c 3.16314827369,-3.58490137684 3.58490137684,-6.53717309895 2.53051861895,-19.6115192969 c -0.632629654737,-8.43506206316 -2.53051861895,-18.9788896421 -4.21753103158,-23.1964206737 c -4.63928413474,-10.9655806821 -19.6115192969,-26.3595689474 -32.05323584,-32.4749889432 c -13.4960993011,-6.95892620211 -35.6381372169,-8.64593861474 -49.5559896211,-3.58490137684 z M 366.710189579,335.620327875 c -13.0743461979,4.42840758316 -20.4550255032,8.85681516632 -28.8900875663,17.7136303326 c -12.01996344,12.4417165432 -16.4483710232,24.03992688 -16.4483710232,44.07319928 c 0,10.3329510274 1.0543827579,17.9245068842 2.53051861895,19.4006427453 c 1.89788896421,1.89788896421 18.557136539,2.53051861895 61.7868296127,2.53051861895 c 56.7257923748,0 59.6780640969,-0.210876551579 63.2629654737,-4.21753103158 c 3.16314827369,-3.58490137684 3.58490137684,-6.53717309895 2.53051861895,-19.8223958484 c -0.632629654737,-8.64593861474 -2.95227172211,-20.0332724 -5.27191378948,-25.0943096379 c -5.27191378948,-11.8090868884 -18.557136539,-24.8834330863 -31.4206061853,-31.2097296337 c -11.8090868884,-5.69366689264 -35.8490137684,-7.38067930527 -48.07985376,-3.37402482527 z"/>
</svg>