<svg xmlns="http://www.w3.org/2000/svg" width="490" height="512" fill="currentColor" viewBox="0 0 490 512">
    <path fill-rule="evenodd" d="M 198.448260785,16.8364070722 c -40.4599706504,8.64423857001 -81.6221077709,30.8668584723 -111.786799773,60.1016543386 c -22.4503495682,21.9759127642 -36.9491383004,41.8548148544 -49.3414276225,68.0532151747 c -10.9974451182,22.9152976362 -11.6996115882,24.5568489783 -16.1403400742,42.0920332564 C 13.2281324795,218.424605118 12.5259660095,224.734614612 12.5259660095,257.243024427 c 0,23.6269528423 1.16711453799,37.6513047704 3.73856201601,47.2444169485 c 2.10649941004,7.47712403202 4.67794688805,17.7724026802 6.08227982808,22.9152976362 c 3.036395546,11.9273412541 4.21299882007,14.9637368001 14.9732255362,37.4140863684 c 19.6416836882,40.9249187184 53.5544264426,79.0411715568 88.8620134009,100.561624989 c 36.2469718304,21.9854015002 66.6488822347,31.1040768743 108.513185825,33.2105762844 c 17.0797249462,0.702166470012 36.0192421644,0.237218402031 45.6028656065,-1.16711453799 c 50.2808124945,-7.95156083608 101.026573057,-35.0798572924 134.474367743,-71.5640475248 c 10.5230083141,-11.4623931861 12.3922893221,-13.7966222621 28.5326293963,-38.5906896424 c 9.82084184409,-14.4987887321 18.2373507482,-31.8062433443 18.2373507482,-36.7214086344 c 0,-1.85979227192 1.16711453799,-5.59835428793 2.80866588005,-8.64423857001 c 5.60784302402,-10.9879563821 6.54722789606,-13.3316741942 7.95156083608,-22.6780792342 c 0.929896135962,-5.15238369212 2.33422907599,-9.36538251219 3.51083235006,-9.36538251219 c 1.16711453799,0 2.09701067396,-23.6174641062 2.09701067396,-52.6150415705 c 0,-30.1741807384 -0.929896135962,-52.6150415705 -2.10649941004,-52.6150415705 c -1.16711453799,0 -2.79917714397,-4.4502172221 -3.73856201601,-10.0580602461 c -0.939384872043,-5.38011335807 -3.73856201601,-15.2009552022 -6.31000949403,-21.5204534323 c -4.67794688805,-12.3922893221 -27.3655148583,-57.7579365265 -29.6997439343,-59.6272175345 c -0.702166470012,-0.702166470012 -4.4502172221,-5.15238369212 -8.18877923811,-10.0580602461 c -15.2009552022,-20.8182869623 -42.5664700605,-44.6729694705 -67.8254855087,-59.6367062706 c -19.8694133541,-11.9273412541 -47.2349282124,-22.4503495682 -70.1502258486,-27.3655148583 c -22.2226199023,-4.44072848602 -69.4575481147,-4.44072848602 -91.442949615,0.474436804062 m 75.0653911387,20.5715798241 c 11.4623931861,2.10649941004 26.1889115842,5.38011335807 32.5084098143,7.49610150418 c 18.0096210822,5.59835428793 45.1379175385,20.1066317562 61.2687688766,32.0339730103 c 17.3074546122,13.0944557921 40.4599706504,37.6513047704 51.6851454345,55.1864890485 c 11.4623931861,17.7724026802 22.4503495682,42.7941997264 27.1377851924,60.8038208086 c 2.33422907599,8.42599764015 4.905676554,18.9490059542 6.31000949403,23.6269528423 c 2.80866588005,10.9879563821 2.80866588005,71.0896107207 0,80.2082860948 c -1.40433294002,3.98526915412 -4.21299882007,14.4987887321 -6.31949823011,23.6269528423 c -4.67794688805,19.1672468841 -16.1308513381,45.3561584684 -27.3560261222,61.7337169446 c -21.7481830982,32.7361394803 -54.4938113146,60.5760911427 -88.8715021369,76.0047760108 c -31.1040768743,14.2710590662 -43.2686365305,16.6052881422 -84.6585033169,16.3680697401 c -42.3197629224,0 -56.1258739206,-2.56195874194 -83.9563368469,-16.3680697401 c -32.2711914123,-16.1308513381 -54.4938113146,-33.4383059503 -74.8376614728,-59.1622694666 c -6.78444629809,-8.42599764015 -15.2009552022,-20.8182869623 -18.7022988161,-27.1377851924 c -3.74805075209,-6.54722789606 -7.49610150418,-12.8572373901 -8.42599764015,-14.0243519281 c -3.97578041804,-5.14289495604 -16.8330178081,-45.6028656065 -19.8789020902,-63.1475386207 c -5.60784302402,-30.6296400703 -3.73856201601,-81.1476709668 3.74805075209,-98.217907177 c 0.929896135962,-2.57144747802 3.73856201601,-10.5324970502 5.84506142605,-17.5446730142 s 4.905676554,-13.7966222621 5.84506142605,-15.2009552022 a 8.53986,8.53986 0 0,0 2.10649941004,-5.37062462199 c 0,-1.64155134206 6.78444629809,-13.3316741942 14.9637368001,-25.7239635163 c 34.6149092244,-52.3873119046 83.9563368469,-85.1329401209 143.355824715,-94.953781965 c 25.0312857823,-4.21299882007 34.1499611564,-4.21299882007 58.2323733306,-0.237218402031 m -67.1138303027,64.0869234927 c -52.6245303066,11.9273412541 -95.883678101,52.1500935025 -112.488966243,105.002353475 c -3.98526915412,12.6200189881 -4.91516529009,21.7481830982 -4.91516529009,47.2349282124 c -0.22772966595,24.0919009103 0.939384872043,34.6149092244 3.98526915412,44.4357510685 c 7.01217596404,21.0460166282 20.3438501582,47.2444169485 30.1646920023,58.4695917326 c 21.7481830982,25.2590154483 50.7457605625,43.0314181284 81.6126190348,50.2808124945 c 25.7239635163,6.072791092 65.0168196287,3.51083235006 78.5762234888,-5.15238369212 c 4.4502172221,-2.56195874194 4.91516529009,-3.97578041804 2.5809362141,-6.77495756201 c -1.40433294002,-1.86928100801 -3.74805075209,-3.27361394803 -5.15238369212,-3.27361394803 s -4.905676554,-2.10649941004 -7.71434243405,-4.91516529009 c -4.91516529009,-4.44072848602 -5.60784302402,-4.67794688805 -12.1645596562,-1.16711453799 c -12.8572373901,6.54722789606 -14.4987887321,5.38011335807 -14.4987887321,-10.2952786482 c 0,-7.47712403202 -1.86928100801,-18.9395172182 -3.97578041804,-25.0217970462 c -2.09701067396,-6.072791092 -3.73856201601,-17.3074546122 -3.51083235006,-24.7845786442 c 0.237218402031,-15.4381736042 3.04588428208,-14.4987887321 -32.2617026762,-10.9974451182 c -12.1645596562,1.17660327407 -22.9247863723,1.40433294002 -23.8546825083,0.474436804062 c -2.80866588005,-2.80866588005 -9.12816411016,-37.8885231724 -8.42599764015,-45.6028656065 c 0.702166470012,-7.49610150418 0.702166470012,-7.49610150418 28.7698477983,-7.49610150418 c 28.0581925922,0 28.0581925922,0 27.1282964563,12.8667261262 c -2.10649941004,25.2590154483 -1.86928100801,26.9005667903 3.97578041804,27.6027332603 c 4.20351008399,0.702166470012 5.14289495604,-0.237218402031 5.14289495604,-5.84506142605 c 0.237218402031,-3.51083235006 2.10649941004,-12.4017780582 4.67794688805,-19.4139540222 c 3.97578041804,-11.9273412541 7.95156083608,-16.1308513381 20.5810685602,-22.4503495682 a 5.78813,5.78813 0 0,0 2.80866588005,-4.67794688805 c 0,-2.33422907599 -3.036395546,-3.27361394803 -10.5324970502,-3.27361394803 c -10.5230083141,0 -10.5230083141,0 -10.5230083141,-26.6633483883 c 0,-26.4261299863 0,-26.4261299863 19.4139540222,-28.0581925922 c 36.0192421644,-3.036395546 33.2105762844,-3.51083235006 33.9127427544,5.60784302402 c 0.22772966595,4.44072848602 1.63206260597,14.2710590662 3.036395546,21.5204534323 c 2.34371781207,11.4529044501 3.51083235006,13.5688925962 7.71434243405,13.5688925962 c 2.5809362141,0 6.54722789606,-0.948873608125 8.42599764015,-2.34371781207 c 2.79917714397,-1.64155134206 2.79917714397,-3.98526915412 0.464948067981,-13.3316741942 c -1.40433294002,-6.08227982808 -2.80866588005,-16.3680697401 -3.27361394803,-22.6780792342 c -0.702166470012,-11.6996115882 -0.702166470012,-11.6996115882 13.3316741942,-15.9126104082 c 7.71434243405,-2.33422907599 15.9031216722,-4.20351008399 18.2373507482,-4.20351008399 c 5.14289495604,0 16.1308513381,22.4503495682 21.9854015002,44.9006991365 c 4.21299882007,16.3680697401 12.1645596562,28.7603590623 17.7724026802,26.8910780543 c 4.44072848602,-1.40433294002 1.86928100801,-27.5932445243 -4.67794688805,-45.8305952724 c -3.27361394803,-9.59311217814 -9.58362344206,-23.3897344403 -14.2615703301,-30.4113991404 c -4.4502172221,-7.24939436607 -16.3775584762,-21.0460166282 -26.1889115842,-30.8668584723 c -13.5688925962,-13.5688925962 -22.4598383043,-20.1161204922 -35.7915124985,-26.4261299863 c -32.2617026762,-15.2009552022 -65.0073308926,-18.9395172182 -100.087188185,-10.9879563821 m 58.9250510645,26.4261299863 c 6.54722789606,6.77495756201 13.3411629302,15.9031216722 15.6753920062,20.5715798241 c 2.10649941004,4.4502172221 4.67794688805,8.89094570813 5.84506142605,9.59311217814 c 1.16711453799,0.939384872043 2.10649941004,4.91516529009 2.34371781207,9.35589377611 c 0.464948067981,7.24939436607 0,7.95156083608 -8.89094570813,9.58362344206 c -5.14289495604,0.939384872043 -14.2615703301,1.64155134206 -20.1161204922,1.64155134206 c -10.2857899121,0.22772966595 -10.9879563821,-0.237218402031 -12.3922893221,-7.02166470012 c -0.702166470012,-3.97578041804 -1.40433294002,-18.2373507482 -1.40433294002,-31.5690249423 c 0,-20.3438501582 0.474436804062,-24.3196305762 3.74805075209,-24.3196305762 c 1.86928100801,0 8.88145697205,5.38011335807 15.2009552022,12.1645596562 m -32.9638691462,13.3221854581 c 0,12.6295077241 -0.702166470012,26.4261299863 -1.40433294002,30.6486175424 c -1.64155134206,7.47712403202 -1.64155134206,7.47712403202 -18.9490059542,6.072791092 c -23.3802457042,-2.10649941004 -24.5568489783,-2.80866588005 -22.6780792342,-11.4623931861 c 3.27361394803,-15.4286848681 29.6997439343,-48.4115314865 38.8089305723,-48.4115314865 c 3.74805075209,0 4.22248755615,2.5809362141 4.22248755615,23.1525160382 m -37.4235751044,-14.9637368001 c 0,1.86928100801 -0.929896135962,3.51083235006 -2.10649941004,3.51083235006 c -1.16711453799,0 -3.73856201601,2.80866588005 -5.60784302402,6.31000949403 c -1.64155134206,3.74805075209 -5.38011335807,10.5324970502 -8.18877923811,15.4381736042 s -5.14289495604,10.2857899121 -5.14289495604,12.1550709201 c 0,4.21299882007 -8.89094570813,4.67794688805 -21.7481830982,0.948873608125 c -7.24939436607,-1.87876974409 -8.89094570813,-3.28310268411 -8.18877923811,-7.49610150418 c 0.702166470012,-5.37062462199 18.0096210822,-19.6416836882 34.6149092244,-28.5231406602 c 12.3922893221,-6.54722789606 16.3680697401,-7.25888310215 16.3680697401,-2.34371781207 m 111.321851705,4.91516529009 c 16.1308513381,9.82084184409 28.9975774643,21.5109646962 28.9975774643,26.6633483883 c 0,2.09701067396 -4.44072848602,5.14289495604 -11.4623931861,7.71434243405 c -6.31000949403,2.09701067396 -12.3922893221,3.97578041804 -13.7966222621,3.97578041804 c -1.16711453799,0 -3.036395546,-2.57144747802 -3.73856201601,-5.85455016213 c -0.939384872043,-3.27361394803 -2.57144747802,-5.84506142605 -3.74805075209,-5.84506142605 c -1.39484420394,0 -2.33422907599,-1.86928100801 -2.33422907599,-4.20351008399 c 0,-2.57144747802 -3.036395546,-9.12816411016 -7.02166470012,-14.7360071342 c -12.3922893221,-18.4745691502 -8.41650890406,-20.8182869623 13.0944557921,-7.71434243405 m -156.222550842,47.6998762804 c 14.4987887321,5.15238369212 14.4987887321,5.15238369212 13.0944557921,17.0797249462 c -0.929896135962,6.77495756201 -2.56195874194,14.4987887321 -3.51083235006,17.5351842781 c -1.16711453799,3.036395546 -2.09701067396,11.6901228521 -2.09701067396,19.4139540222 c 0,13.7966222621 0,13.7966222621 -26.9005667903,13.7966222621 c -26.8910780543,0 -26.8910780543,0 -25.7144747802,-10.0580602461 c 1.85979227192,-13.0944557921 8.17929050203,-34.1404724203 10.7507379801,-35.7725350263 c 1.16711453799,-0.711655206093 2.10649941004,-2.81815461613 2.10649941004,-4.68743562414 s 2.33422907599,-8.17929050203 4.905676554,-14.0243519281 c 3.74805075209,-7.72383117013 6.08227982808,-10.2952786482 8.89094570813,-9.35589377611 c 2.10649941004,0.702166470012 10.2857899121,3.51083235006 18.4745691502,6.072791092 m 58.9250510645,13.3316741942 c 24.1013896464,2.10649941004 23.6269528423,1.64155134206 23.1525160382,30.1741807384 c -0.22772966595,24.3196305762 -0.22772966595,24.3196305762 -29.2253071302,24.3196305762 s -28.9975774643,0 -28.9975774643,-13.5688925962 c 0,-11.4529044501 2.80866588005,-26.1889115842 8.41650890406,-42.3197629224 c 0.702166470012,-1.87876974409 2.80866588005,-2.5809362141 6.31949823011,-1.64155134206 c 2.79917714397,0.939384872043 11.9273412541,2.10649941004 20.3438501582,3.036395546 m -51.2107086305,83.7286071809 c 0.939384872043,7.71434243405 2.80866588005,20.8087982262 4.21299882007,28.9975774643 c 1.64155134206,8.17929050203 2.57144747802,15.2009552022 2.10649941004,15.4381736042 c -1.40433294002,1.39484420394 -32.9733578823,10.5230083141 -36.0192421644,10.5230083141 c -3.27361394803,0 -10.5230083141,-14.0433294002 -17.7724026802,-33.9127427544 a 106.274,106.274 0 0,1 -4.20351008399,-24.0919009103 c 0,-12.3922893221 0,-12.3922893221 25.2495267122,-11.6901228521 c 25.0217970462,0.702166470012 25.0217970462,0.702166470012 26.4261299863,14.7360071342 m 74.1354950028,84.1840665128 c 0.474436804062,23.1525160382 0,31.5785136784 -2.10649941004,31.5785136784 c -3.97578041804,0 -26.4261299863,-23.1525160382 -30.6296400703,-31.5785136784 a 266.633,266.633 0 0,0 -7.4866127681,-14.0243519281 c -2.10649941004,-3.98526915412 -3.73856201601,-8.89094570813 -3.73856201601,-10.9974451182 c 0,-4.20351008399 5.84506142605,-5.60784302402 29.2253071302,-6.072791092 c 14.0433294002,-0.474436804062 14.0433294002,-0.474436804062 14.7360071342,31.0945881382 m -56.8280403906,-13.5688925962 c 2.34371781207,6.09176856416 7.24939436607,15.9126104082 10.9974451182,21.5204534323 c 6.77495756201,10.7602267161 8.17929050203,16.6052881422 4.20351008399,16.6052881422 s -21.7481830982,-10.0580602461 -34.3776908224,-19.1672468841 c -12.3922893221,-9.12816411016 -18.0096210822,-16.3775584762 -16.3680697401,-21.2927237663 c 0.474436804062,-1.39484420394 5.38011335807,-3.97578041804 11.2251747841,-5.37062462199 c 18.2373507482,-4.91516529009 19.6416836882,-4.4502172221 24.3196305762,7.71434243405 m 154.818217902,-77.1624018127 c 0.237218402031,34.6054204883 0.237218402031,34.6054204883 35.5448053603,35.3075869583 s 35.3170756944,0.702166470012 35.3170756944,-7.95156083608 c 0,-4.67794688805 -2.80866588005,-14.4987887321 -6.31949823011,-21.5109646962 c -10.9879563821,-22.4503495682 -29.4625255323,-36.0192421644 -53.3172080405,-39.0556377104 c -11.6901228521,-1.64155134206 -11.6901228521,-1.64155134206 -11.2251747841,33.2105762844 m -36.7214086344,-24.0919009103 c -11.6901228521,6.31000949403 -32.7361394803,23.8546825083 -32.7361394803,27.5932445243 c 0,1.17660327407 -1.86928100801,5.15238369212 -4.21299882007,8.42599764015 c -7.9420721,11.6901228521 -10.9879563821,38.1162528384 -6.31000949403,54.4843225785 c 3.036395546,11.2251747841 11.4623931861,25.4962338503 19.1767356202,33.2105762844 c 4.21299882007,4.44072848602 13.3316741942,10.9879563821 20.1161204922,14.7360071342 c 10.7507379801,6.072791092 14.4987887321,6.77495756201 32.0339730103,6.77495756201 c 17.5446730142,-0.22772966595 21.2832350302,-0.929896135962 31.1040768743,-6.77495756201 c 6.072791092,-3.51083235006 14.7360071342,-10.0580602461 19.1767356202,-14.4987887321 c 10.0580602461,-9.58362344206 22.2226199023,-34.1499611564 22.2226199023,-44.6729694705 c 0,-7.71434243405 0,-7.71434243405 -36.2469718304,-7.71434243405 s -36.2469718304,0 -36.2469718304,-38.5906896424 c 0,-38.5812009063 0,-38.5812009063 -8.66321604218,-38.5812009063 c -4.905676554,0.22772966595 -13.5688925962,2.79917714397 -19.4044652861,5.60784302402" clip-rule="evenodd"/>
</svg>
