<svg xmlns="http://www.w3.org/2000/svg" viewBox="58.98 55.91 731.77 183.72" width="731.77" height="183.72"><defs><style>.cls-1{fill:#633e8d;}.cls-2{fill:#67a45f;}.cls-3{fill:#adce6d;}</style></defs><g><path class="cls-1" d="M256,193.23V134.44h23.43a14.28,14.28,0,0,1,6.66,1.58,17,17,0,0,1,5.26,4.18,20.14,20.14,0,0,1,3.45,5.88,18.36,18.36,0,0,1,1.25,6.58,20.45,20.45,0,0,1-1.17,6.87,19,19,0,0,1-3.29,5.88,16.23,16.23,0,0,1-5.1,4.1,14.11,14.11,0,0,1-6.58,1.53H260.07v22.19Zm4.09-26.08h19.66a10.59,10.59,0,0,0,5.06-1.2,11.73,11.73,0,0,0,3.81-3.23,15.15,15.15,0,0,0,2.41-4.64,17.5,17.5,0,0,0,.84-5.42,15.4,15.4,0,0,0-3.73-10.1,13.23,13.23,0,0,0-4-3.15,10.67,10.67,0,0,0-4.86-1.16H260.07Z"/><path class="cls-1" d="M351.8,189.42v3.81h-38V134.44h37.24v3.81H317.93v23.1h29V165h-29v24.42Z"/><path class="cls-1" d="M371,193.23V134.44h23.68a14.28,14.28,0,0,1,6.66,1.58,17.1,17.1,0,0,1,5.26,4.18,20.14,20.14,0,0,1,3.45,5.88,18.35,18.35,0,0,1,1.24,6.58,20.51,20.51,0,0,1-1,6.25,18.47,18.47,0,0,1-2.73,5.43,15.73,15.73,0,0,1-4.25,4,14.59,14.59,0,0,1-5.46,2.07l14.21,22.85h-4.74L393.54,171H375.08v22.19Zm4.1-26.08h20a10.11,10.11,0,0,0,5-1.24,12.85,12.85,0,0,0,3.85-3.27,14.61,14.61,0,0,0,2.45-4.64,17.33,17.33,0,0,0,.84-5.34,15.18,15.18,0,0,0-1-5.42,15.45,15.45,0,0,0-2.73-4.6,14,14,0,0,0-4-3.19,10.51,10.51,0,0,0-4.94-1.2H375.08Z"/><path class="cls-1" d="M464.24,144.21q-5.53-6.36-15.65-6.37-8.34,0-12.16,3.27a11,11,0,0,0-3.81,8.82,10.18,10.18,0,0,0,1,4.68,8.51,8.51,0,0,0,3,3.18,19.56,19.56,0,0,0,5.18,2.24q3.14.91,7.54,1.9,4.57,1,8.31,2.2a23.79,23.79,0,0,1,6.34,3,12.65,12.65,0,0,1,4,4.47,13.81,13.81,0,0,1,1.41,6.54,14.68,14.68,0,0,1-1.49,6.79,13.51,13.51,0,0,1-4.17,4.85,19.56,19.56,0,0,1-6.42,2.94,32.43,32.43,0,0,1-8.31,1A31.5,31.5,0,0,1,426.44,185l2.17-3.39a26.19,26.19,0,0,0,8.82,6.17A29,29,0,0,0,449.15,190q7.47,0,11.68-2.81t4.21-8.53a10.06,10.06,0,0,0-1.12-4.93,10.38,10.38,0,0,0-3.33-3.52,22,22,0,0,0-5.58-2.56q-3.37-1.08-7.86-2.07c-3-.66-5.74-1.37-8.07-2.11a21.17,21.17,0,0,1-5.86-2.82,11.15,11.15,0,0,1-3.57-4.1,13.45,13.45,0,0,1-1.2-6,15.94,15.94,0,0,1,1.48-7,14.89,14.89,0,0,1,4.13-5.18,18.44,18.44,0,0,1,6.34-3.18,29.15,29.15,0,0,1,8.19-1.08,26.94,26.94,0,0,1,9.87,1.7,23.22,23.22,0,0,1,7.87,5.17Z"/><path class="cls-1" d="M487.68,193.23V134.44h4.09v58.79Z"/><path class="cls-1" d="M547.87,144.21q-5.54-6.36-15.65-6.37-8.36,0-12.16,3.27a11,11,0,0,0-3.81,8.82,10.18,10.18,0,0,0,1,4.68,8.43,8.43,0,0,0,3,3.18A19.41,19.41,0,0,0,525.4,160c2.08.61,4.6,1.24,7.54,1.9s5.82,1.4,8.31,2.2a23.79,23.79,0,0,1,6.34,3,12.75,12.75,0,0,1,4,4.47,13.81,13.81,0,0,1,1.4,6.54,14.68,14.68,0,0,1-1.48,6.79,13.51,13.51,0,0,1-4.17,4.85,19.66,19.66,0,0,1-6.42,2.94,32.43,32.43,0,0,1-8.31,1A31.5,31.5,0,0,1,510.07,185l2.16-3.39a26.23,26.23,0,0,0,8.83,6.17A29,29,0,0,0,532.78,190q7.47,0,11.68-2.81t4.21-8.53a10.06,10.06,0,0,0-1.12-4.93,10.38,10.38,0,0,0-3.33-3.52,22.17,22.17,0,0,0-5.58-2.56q-3.37-1.08-7.87-2.07c-3-.66-5.73-1.37-8.06-2.11a21.17,21.17,0,0,1-5.86-2.82,11.15,11.15,0,0,1-3.57-4.1,13.31,13.31,0,0,1-1.21-6,15.94,15.94,0,0,1,1.49-7,14.89,14.89,0,0,1,4.13-5.18,18.44,18.44,0,0,1,6.34-3.18,29.1,29.1,0,0,1,8.19-1.08,26.94,26.94,0,0,1,9.87,1.7A23.22,23.22,0,0,1,550,140.9Z"/><path class="cls-1" d="M610.71,138.25H589.84v55h-4.09v-55H564.88v-3.81h45.83Z"/><path class="cls-2" d="M660,149.84a14.45,14.45,0,0,0-2-1.57,24.28,24.28,0,0,0-3.61-1.94,30.07,30.07,0,0,0-4.61-1.62,19.69,19.69,0,0,0-5.06-.66q-4.57,0-6.82,1.74a5.82,5.82,0,0,0-2.25,4.88,5.16,5.16,0,0,0,.84,3,7.47,7.47,0,0,0,2.45,2.11,19.7,19.7,0,0,0,4,1.65c1.64.5,3.52,1,5.66,1.58q4.17,1.16,7.59,2.48a20.3,20.3,0,0,1,5.77,3.31,13.7,13.7,0,0,1,3.66,4.76,16.33,16.33,0,0,1,1.28,6.83,17.5,17.5,0,0,1-1.72,8.08,15,15,0,0,1-4.66,5.42,19.81,19.81,0,0,1-6.74,3,32.63,32.63,0,0,1-8,1,41.86,41.86,0,0,1-12.68-2,38.68,38.68,0,0,1-11.23-5.63l4.89-9.86a15.13,15.13,0,0,0,2.61,2,39.13,39.13,0,0,0,4.46,2.4,33.84,33.84,0,0,0,5.69,2,25.12,25.12,0,0,0,6.42.83q9.15,0,9.15-6a5,5,0,0,0-1-3.23,8.87,8.87,0,0,0-3-2.31,28,28,0,0,0-4.65-1.83l-6.1-1.82a50.79,50.79,0,0,1-7.11-2.52,18.57,18.57,0,0,1-5-3.23,12.07,12.07,0,0,1-3-4.31,15.26,15.26,0,0,1-1-5.83,18.72,18.72,0,0,1,1.6-7.95,16,16,0,0,1,4.45-5.8,19.92,19.92,0,0,1,6.62-3.52A26.64,26.64,0,0,1,645,134,30.56,30.56,0,0,1,656.06,136a40.57,40.57,0,0,1,8.82,4.59Z"/><path class="cls-2" d="M722.83,183.21v10H683.26V134.44h38.85v10H694.34v14.16h24v9.28h-24v15.31Z"/><path class="cls-2" d="M777.08,189.42a27.75,27.75,0,0,1-6.74,3.11,26,26,0,0,1-7.7,1.12,24.91,24.91,0,0,1-11.36-2.57,28.86,28.86,0,0,1-8.75-6.71,30.08,30.08,0,0,1-5.65-9.52,31.25,31.25,0,0,1-2-11A30.33,30.33,0,0,1,737,152.58a31,31,0,0,1,5.86-9.52,28,28,0,0,1,8.86-6.59A25.81,25.81,0,0,1,762.88,134a24.39,24.39,0,0,1,11.28,2.61,28.31,28.31,0,0,1,8.7,6.83,31.79,31.79,0,0,1,5.62,9.6,31.06,31.06,0,0,1,2,10.93,30.72,30.72,0,0,1-2,10.93,30.17,30.17,0,0,1-5.5,9.28l7.79,9H780.38Zm-14.36-5.87a14.68,14.68,0,0,0,4-.54,15.73,15.73,0,0,0,3.49-1.45l-8.67-10.1H772L776,176a23.82,23.82,0,0,0,3.37-12.17,23.72,23.72,0,0,0-1.16-7.37,20.8,20.8,0,0,0-3.29-6.29,16.16,16.16,0,0,0-5.22-4.39,14.38,14.38,0,0,0-6.94-1.66,14.72,14.72,0,0,0-7.14,1.7,15.78,15.78,0,0,0-5.22,4.51,20.84,20.84,0,0,0-3.17,6.34,24.54,24.54,0,0,0,0,14.53,19.86,19.86,0,0,0,3.25,6.29,16.41,16.41,0,0,0,5.22,4.39A14.65,14.65,0,0,0,762.72,183.55Z"/><path class="cls-1" d="M153.45,125.45a16,16,0,0,0-5.37-4.93c-.31-.17-.63-.34-1-.5a16,16,0,1,0,6.33,5.43Z"/><path class="cls-3" d="M213.93,214.43c-.15-.23-.33-.44-.5-.66A78.22,78.22,0,0,0,192,192.51a77.23,77.23,0,0,0-30-12,82.68,82.68,0,0,0-17.08-.75c-5.48.28-11,.93-16.41.08-9.79-1.54-18-7.81-24.81-14.72a40.71,40.71,0,0,1-8-12.74,46.28,46.28,0,1,1,89-17.85H174.39l26.3,26.31L227,134.5H216.78a78.44,78.44,0,1,0-126.1,62.35q2.28,1.76,4.7,3.34a78.51,78.51,0,0,0,30.78,11.9,51.73,51.73,0,0,0,9.3.6c5.68-.16,11.32-1.34,17-1a43.9,43.9,0,0,1,14.77,3.85,48.1,48.1,0,0,1,13.59,9.05,43,43,0,0,1,6.45,7.6,15.49,15.49,0,0,0,1.86,2.35l.28.28c.19.19.38.38.58.56s.54.47.82.69l.45.33c.28.2.56.39.85.57l.38.24c.41.24.83.48,1.26.69a16,16,0,0,0,21-22.06A13.89,13.89,0,0,0,213.93,214.43Zm-28.07,15,0,.09A.36.36,0,0,1,185.86,229.48Z"/><path class="cls-2" d="M213.93,214.43a15.87,15.87,0,0,0-5.36-4.92q-.47-.27-1-.51a16,16,0,1,0,6.32,5.43Z"/></g></svg>