<svg xmlns="http://www.w3.org/2000/svg" fill="currentColor" viewBox="-90.728 -89.665 691.338 691.338">
    <path fill-rule="evenodd" d="M236.5.18c-1.37.17-6.25.77-10.7 1.28-19.38 2.23-42.77 8.15-62.48 15.86a255 255 0 0 0-72.07 43.02c-10.37 8.65-25.28 24.08-34.37 35.48-20.9 26.22-38.3 59.56-47.47 91.1-2.66 9.34-6.86 29.56-8.32 40.7-1.45 10.88-1.45 46.02 0 57.42 3.77 30.08 11.74 57.16 24.6 83.55 17.05 35.14 41.99 65.9 72.84 89.81 39.25 30.43 84.33 48.42 133 52.97 13.89 1.28 48.17.5 60.25-1.38 26.82-4.11 53.47-12.6 76.61-24.16 26.91-13.46 48.16-28.97 69.5-51a308 308 0 0 0 16.2-17.82c12.6-15.77 25.97-37.88 34.36-56.64 6.17-13.72 13.72-37.45 16.54-51.77 4.29-21.25 4.89-27.5 4.89-51.41 0-16.97-.43-24.94-1.63-33.43-1.97-14.14-5.57-31.1-9.17-42.5-9-29.05-24.6-58.96-43.88-83.81-9.17-11.83-25.28-28.46-37.53-38.65-11.06-9.26-28.88-21.51-40.54-27.86a263 263 0 0 0-69.07-25.62C289.98 1.46 280.3.44 259.21.1c-11.05-.17-21.25-.08-22.7.09m44.14 18.42a271 271 0 0 1 40.45 8.15c19.7 5.74 42.67 16.02 59.39 26.56 19.88 12.6 41.22 31.2 56.3 49.2A237 237 0 0 1 481 182.28c6.68 20.4 9.68 35.3 11.4 55.36 1.11 13.62.51 37.36-1.29 50.82-4.28 31.19-15.85 63.75-32.48 91.18a220 220 0 0 1-32.65 42.33c-22.97 23.57-48.42 41.14-78.5 54a230 230 0 0 1-84.92 18.76c-24 .77-43.8-1.54-68.05-7.88-31.7-8.23-62.13-23.74-88.87-45.17-15.68-12.6-34.02-32.13-45.33-48.24-21.68-30.86-36.5-69.16-42.08-108.84-.6-4.46-1.03-16.2-1.03-27.85 0-14.57.43-22.97 1.46-30.43 2.83-19.1 8.83-41.47 15.77-58.18 10.11-24.6 23.82-47.3 40.2-66.5 8.3-9.86 24.76-25.71 34.18-33.17a239.6 239.6 0 0 1 109.35-48.16c19.71-3.34 41.74-3.94 62.48-1.72m-40.1 62.56c-12.1 1.03-28.12 4.37-40.37 8.4-13.11 4.29-30.6 12.86-41.65 20.23-14.91 10.02-29.82 23.65-40.8 37.27-6.6 8.23-14.56 20.74-19.87 31.37-5.83 11.65-12.69 31.37-15.09 43.2a182 182 0 0 0 0 70.7c2.06 10.28 8.23 28.96 12.86 38.81a181 181 0 0 0 65.3 74.99c19.8 12.85 46.62 22.7 70.7 25.88 12.6 1.71 35.22 1.63 47.39-.09 31.28-4.37 60.67-17.05 86.04-37.19 15.43-12.25 30.94-30.34 41.3-47.73a172 172 0 0 0 14.06-30.43c7.29-20.4 9.68-34.62 9.68-58.53.09-9.6-.42-20.74-1.02-25.28a178.3 178.3 0 0 0-47.65-98.46c-22.37-23.23-54.25-41.48-85.61-48.94-16.54-3.94-39.17-5.65-55.28-4.2m36.93 18.43a174 174 0 0 1 37.96 10.62 164 164 0 0 1 48.85 31.88c25.1 24.09 40.62 53.4 47.13 89.39.69 3.77 1.55 12.85 1.8 20.14.77 20.56-1.54 36.59-8.22 56.47-6.6 19.63-17.4 38.4-31.71 54.85-7.12 8.14-19.71 19.02-29.91 25.88-16.97 11.31-37.2 19.97-55.7 23.82a201 201 0 0 1-20.49 2.83c-8.74.77-14.57.69-23.65 0-22.02-1.89-38.82-6.43-57.59-15.6-42.85-21-72.93-58.19-84.84-105.06-8.91-35.31-4.8-73.7 11.49-107.04 2.74-5.65 7.37-13.8 10.1-18 17.92-27.16 44.31-48.5 75.25-60.67 9.43-3.77 25.02-7.97 35.22-9.51 10.71-1.72 32.65-1.72 44.3 0m-40.02 64.27a91 91 0 0 0-24.08 8.31c-10.03 4.97-15.43 8.75-23.4 16.37-8.23 7.89-14.05 15.43-18.85 24.51-6.77 12.69-11.32 30.42-11.32 44.3 0 13.03 3.35 28.12 9 40.37 6.69 14.31 18.94 29.31 31.37 38.05a108 108 0 0 0 25.7 13.03c23.75 7.97 52.37 5.4 73.54-6.52 13.1-7.37 22.88-15.85 31.02-26.65 6.68-9 13.97-23.9 16.8-34.62 2.05-7.46 2.22-10.03 2.3-22.97 0-16.8-.85-21.94-6.25-35.73-8.4-21.51-25.36-39.85-46.79-50.65-6.51-3.26-17.57-6.86-25.62-8.23-7.03-1.28-26.22-1.03-33.42.43m31.19 16.97a81 81 0 0 1 28.88 11.65c7.71 5.06 16.71 13.72 21.51 20.74 4.37 6.34 9.51 17.4 11.48 24.43 1.46 5.4 1.89 9.17 1.89 19.54.09 10.88-.26 13.96-1.89 20.14-2.31 8.48-7.2 18.6-12.5 26.05-4.3 6-13.72 15.25-19.55 19.28-6.25 4.2-17.56 9.34-24.76 11.14-18.77 4.8-38.14 2.23-55.54-7.28a78 78 0 0 1-28.19-26.31 80 80 0 0 1-11.48-28.03c-3.17-15.17-.86-32.82 6.25-47.73a81 81 0 0 1 28.2-32.22c6.85-4.54 18.08-9.17 26.48-10.97 8.82-1.8 20.48-1.97 29.22-.43" clip-rule="evenodd"/>
</svg>
