<svg xmlns="http://www.w3.org/2000/svg" fill="currentColor" viewBox="46 46 420 420">
    <path d="M241.0 46.0L249.6 49.0L258.1 52.0L266.5 55.0L274.7 58.0L282.7 61.0L290.2 64.0L297.4 67.0L304.2 70.0L310.4 73.0L316.1 76.0L321.1 79.0L325.5 82.0L329.3 85.0L332.3 88.0L334.6 91.0L336.1 94.0L336.9 97.0L336.9 100.0L336.1 103.0L334.6 106.0L332.3 109.0L329.3 112.0L325.5 115.0L321.1 118.0L316.1 121.0L310.4 124.0L304.2 127.0L297.4 130.0L290.2 133.0L282.7 136.0L274.7 139.0L266.5 142.0L258.1 145.0L249.6 148.0L241.0 151.0L232.4 154.0L223.9 157.0L215.5 160.0L207.3 163.0L199.3 166.0L191.8 169.0L184.6 172.0L177.8 175.0L171.6 178.0L165.9 181.0L160.9 184.0L156.5 187.0L152.7 190.0L149.7 193.0L147.4 196.0L145.9 199.0L145.1 202.0L145.1 205.0L145.9 208.0L147.4 211.0L149.7 214.0L152.7 217.0L156.5 220.0L160.9 223.0L165.9 226.0L171.6 229.0L177.8 232.0L184.6 235.0L191.8 238.0L199.3 241.0L207.3 244.0L215.5 247.0L223.9 250.0L232.4 253.0L241.0 256.0L249.6 259.0L258.1 262.0L266.5 265.0L274.7 268.0L282.7 271.0L290.2 274.0L297.4 277.0L304.2 280.0L310.4 283.0L316.1 286.0L321.1 289.0L325.5 292.0L329.3 295.0L332.3 298.0L334.6 301.0L336.1 304.0L336.9 307.0L336.9 310.0L336.1 313.0L334.6 316.0L332.3 319.0L329.3 322.0L325.5 325.0L321.1 328.0L316.1 331.0L310.4 334.0L304.2 337.0L297.4 340.0L290.2 343.0L282.7 346.0L274.7 349.0L266.5 352.0L258.1 355.0L249.6 358.0L241.0 361.0L232.4 364.0L223.9 367.0L215.5 370.0L207.3 373.0L199.3 376.0L191.8 379.0L184.6 382.0L177.8 385.0L171.6 388.0L165.9 391.0L160.9 394.0L156.5 397.0L152.7 400.0L149.7 403.0L147.4 406.0L145.9 409.0L145.1 412.0L145.1 415.0L145.9 418.0L147.4 421.0L149.7 424.0L152.7 427.0L156.5 430.0L160.9 433.0L165.9 436.0L171.6 439.0L177.8 442.0L184.6 445.0L191.8 448.0L199.3 451.0L207.3 454.0L215.5 457.0L223.9 460.0L232.4 463.0L241.0 466.0L271.0 466.0L262.4 463.0L253.9 460.0L245.5 457.0L237.3 454.0L229.3 451.0L221.8 448.0L214.6 445.0L207.8 442.0L201.6 439.0L195.9 436.0L190.9 433.0L186.5 430.0L182.7 427.0L179.7 424.0L177.4 421.0L175.9 418.0L175.1 415.0L175.1 412.0L175.9 409.0L177.4 406.0L179.7 403.0L182.7 400.0L186.5 397.0L190.9 394.0L195.9 391.0L201.6 388.0L207.8 385.0L214.6 382.0L221.8 379.0L229.3 376.0L237.3 373.0L245.5 370.0L253.9 367.0L262.4 364.0L271.0 361.0L279.6 358.0L288.1 355.0L296.5 352.0L304.7 349.0L312.7 346.0L320.2 343.0L327.4 340.0L334.2 337.0L340.4 334.0L346.1 331.0L351.1 328.0L355.5 325.0L359.3 322.0L362.3 319.0L364.6 316.0L366.1 313.0L366.9 310.0L366.9 307.0L366.1 304.0L364.6 301.0L362.3 298.0L359.3 295.0L355.5 292.0L351.1 289.0L346.1 286.0L340.4 283.0L334.2 280.0L327.4 277.0L320.2 274.0L312.7 271.0L304.7 268.0L296.5 265.0L288.1 262.0L279.6 259.0L271.0 256.0L262.4 253.0L253.9 250.0L245.5 247.0L237.3 244.0L229.3 241.0L221.8 238.0L214.6 235.0L207.8 232.0L201.6 229.0L195.9 226.0L190.9 223.0L186.5 220.0L182.7 217.0L179.7 214.0L177.4 211.0L175.9 208.0L175.1 205.0L175.1 202.0L175.9 199.0L177.4 196.0L179.7 193.0L182.7 190.0L186.5 187.0L190.9 184.0L195.9 181.0L201.6 178.0L207.8 175.0L214.6 172.0L221.8 169.0L229.3 166.0L237.3 163.0L245.5 160.0L253.9 157.0L262.4 154.0L271.0 151.0L279.6 148.0L288.1 145.0L296.5 142.0L304.7 139.0L312.7 136.0L320.2 133.0L327.4 130.0L334.2 127.0L340.4 124.0L346.1 121.0L351.1 118.0L355.5 115.0L359.3 112.0L362.3 109.0L364.6 106.0L366.1 103.0L366.9 100.0L366.9 97.0L366.1 94.0L364.6 91.0L362.3 88.0L359.3 85.0L355.5 82.0L351.1 79.0L346.1 76.0L340.4 73.0L334.2 70.0L327.4 67.0L320.2 64.0L312.7 61.0L304.7 58.0L296.5 55.0L288.1 52.0L279.6 49.0L271.0 46.0ZM241.0 46.0L232.4 49.0L223.9 52.0L215.5 55.0L207.3 58.0L199.3 61.0L191.8 64.0L184.6 67.0L177.8 70.0L171.6 73.0L165.9 76.0L160.9 79.0L156.5 82.0L152.7 85.0L149.7 88.0L147.4 91.0L145.9 94.0L145.1 97.0L145.1 100.0L145.9 103.0L147.4 106.0L149.7 109.0L152.7 112.0L156.5 115.0L160.9 118.0L165.9 121.0L171.6 124.0L177.8 127.0L184.6 130.0L191.8 133.0L199.3 136.0L207.3 139.0L215.5 142.0L223.9 145.0L232.4 148.0L241.0 151.0L249.6 154.0L258.1 157.0L266.5 160.0L274.7 163.0L282.7 166.0L290.2 169.0L297.4 172.0L304.2 175.0L310.4 178.0L316.1 181.0L321.1 184.0L325.5 187.0L329.3 190.0L332.3 193.0L334.6 196.0L336.1 199.0L336.9 202.0L336.9 205.0L336.1 208.0L334.6 211.0L332.3 214.0L329.3 217.0L325.5 220.0L321.1 223.0L316.1 226.0L310.4 229.0L304.2 232.0L297.4 235.0L290.2 238.0L282.7 241.0L274.7 244.0L266.5 247.0L258.1 250.0L249.6 253.0L241.0 256.0L232.4 259.0L223.9 262.0L215.5 265.0L207.3 268.0L199.3 271.0L191.8 274.0L184.6 277.0L177.8 280.0L171.6 283.0L165.9 286.0L160.9 289.0L156.5 292.0L152.7 295.0L149.7 298.0L147.4 301.0L145.9 304.0L145.1 307.0L145.1 310.0L145.9 313.0L147.4 316.0L149.7 319.0L152.7 322.0L156.5 325.0L160.9 328.0L165.9 331.0L171.6 334.0L177.8 337.0L184.6 340.0L191.8 343.0L199.3 346.0L207.3 349.0L215.5 352.0L223.9 355.0L232.4 358.0L241.0 361.0L249.6 364.0L258.1 367.0L266.5 370.0L274.7 373.0L282.7 376.0L290.2 379.0L297.4 382.0L304.2 385.0L310.4 388.0L316.1 391.0L321.1 394.0L325.5 397.0L329.3 400.0L332.3 403.0L334.6 406.0L336.1 409.0L336.9 412.0L336.9 415.0L336.1 418.0L334.6 421.0L332.3 424.0L329.3 427.0L325.5 430.0L321.1 433.0L316.1 436.0L310.4 439.0L304.2 442.0L297.4 445.0L290.2 448.0L282.7 451.0L274.7 454.0L266.5 457.0L258.1 460.0L249.6 463.0L241.0 466.0L271.0 466.0L279.6 463.0L288.1 460.0L296.5 457.0L304.7 454.0L312.7 451.0L320.2 448.0L327.4 445.0L334.2 442.0L340.4 439.0L346.1 436.0L351.1 433.0L355.5 430.0L359.3 427.0L362.3 424.0L364.6 421.0L366.1 418.0L366.9 415.0L366.9 412.0L366.1 409.0L364.6 406.0L362.3 403.0L359.3 400.0L355.5 397.0L351.1 394.0L346.1 391.0L340.4 388.0L334.2 385.0L327.4 382.0L320.2 379.0L312.7 376.0L304.7 373.0L296.5 370.0L288.1 367.0L279.6 364.0L271.0 361.0L262.4 358.0L253.9 355.0L245.5 352.0L237.3 349.0L229.3 346.0L221.8 343.0L214.6 340.0L207.8 337.0L201.6 334.0L195.9 331.0L190.9 328.0L186.5 325.0L182.7 322.0L179.7 319.0L177.4 316.0L175.9 313.0L175.1 310.0L175.1 307.0L175.9 304.0L177.4 301.0L179.7 298.0L182.7 295.0L186.5 292.0L190.9 289.0L195.9 286.0L201.6 283.0L207.8 280.0L214.6 277.0L221.8 274.0L229.3 271.0L237.3 268.0L245.5 265.0L253.9 262.0L262.4 259.0L271.0 256.0L279.6 253.0L288.1 250.0L296.5 247.0L304.7 244.0L312.7 241.0L320.2 238.0L327.4 235.0L334.2 232.0L340.4 229.0L346.1 226.0L351.1 223.0L355.5 220.0L359.3 217.0L362.3 214.0L364.6 211.0L366.1 208.0L366.9 205.0L366.9 202.0L366.1 199.0L364.6 196.0L362.3 193.0L359.3 190.0L355.5 187.0L351.1 184.0L346.1 181.0L340.4 178.0L334.2 175.0L327.4 172.0L320.2 169.0L312.7 166.0L304.7 163.0L296.5 160.0L288.1 157.0L279.6 154.0L271.0 151.0L262.4 148.0L253.9 145.0L245.5 142.0L237.3 139.0L229.3 136.0L221.8 133.0L214.6 130.0L207.8 127.0L201.6 124.0L195.9 121.0L190.9 118.0L186.5 115.0L182.7 112.0L179.7 109.0L177.4 106.0L175.9 103.0L175.1 100.0L175.1 97.0L175.9 94.0L177.4 91.0L179.7 88.0L182.7 85.0L186.5 82.0L190.9 79.0L195.9 76.0L201.6 73.0L207.8 70.0L214.6 67.0L221.8 64.0L229.3 61.0L237.3 58.0L245.5 55.0L253.9 52.0L262.4 49.0L271.0 46.0ZM173.0 88.5L339.0 88.5a10.0 10.0 0 1 1 0 20.0L173.0 108.5a10.0 10.0 0 1 1 0 -20.0ZM173.0 193.5L339.0 193.5a10.0 10.0 0 1 1 0 20.0L173.0 213.5a10.0 10.0 0 1 1 0 -20.0ZM173.0 298.5L339.0 298.5a10.0 10.0 0 1 1 0 20.0L173.0 318.5a10.0 10.0 0 1 1 0 -20.0ZM173.0 403.5L339.0 403.5a10.0 10.0 0 1 1 0 20.0L173.0 423.5a10.0 10.0 0 1 1 0 -20.0Z"/>
</svg>
