<svg xmlns="http://www.w3.org/2000/svg" fill="currentColor" viewBox="-10.296 -97.145 532.597 532.597">
    <path fill-rule="evenodd" d="M125.98.43c-2.98.6-6.66 2.32-8.99 4.2-2.93 2.27-16.42 22.98-22.58 34.54-1.21 2.33-2.32 4.2-2.47 4.2s-1.42-1.17-2.78-2.53a25 25 0 0 0-5.81-4.2 14.6 14.6 0 0 0-6.97-1.76c-6.82-.35-13.64 2.83-16.82 7.83-1.87 2.88-6.97 18.44-9.6 29.1-2.42 9.7-4.85 24.04-5.56 32.83-.25 3.53-.5 17.32-.5 30.56s-.25 26.82-.5 30.15c-.71 9.45-1.98 16.93-4.3 26.27C34.2 211.27 25.71 228 7.58 254 .51 264.16-.25 265.98.05 272.4c.1 3.37.46 4.69 1.82 7.47 1.47 2.98 2.93 4.54 15.1 15.86 7.38 6.92 18.54 17.32 24.8 23.18 18.55 17.33 18.5 17.33 22.49 18.54 2.77.8 4.29 1.01 7.32.76 2.83-.2 4.6-.7 6.97-1.87 2.83-1.36 4.2-2.68 12.73-12.27 20.4-22.99 22.63-25.31 25.46-27.38 5.05-3.74 8.94-5.61 19.85-9.35 17.38-6 26.87-10.35 40.92-18.59 13.63-8.03 32.17-22.37 40.6-31.31 3.34-3.64 6.57-8.09 8.4-11.72 4.03-8.03 14.14-33.95 14.94-38.24.61-3.13.4-5-1.1-9.55a15.6 15.6 0 0 0-3.6-5.96c-2.57-2.88-2.57-2.88-.8-4.75a35 35 0 0 0 2.78-3.38 22 22 0 0 0 3.03-8.94c.45-4.7-3.18-21.57-5.71-26.17-1.67-3.03-5.46-6.97-15.3-15.9l-12.23-11.12a53 53 0 0 0-7.63-5.96c-4.64-2.78-7.88-3.64-13.53-3.59-6.42.05-9.6 1.21-24.35 8.64-6.47 3.28-11.92 6.01-12.12 6.11-.71.3-.46-1.26.9-5.56 3.04-9.54 8.29-18.18 16.47-27.02 2.88-3.08 11.27-11.87 18.7-19.5 9.64-9.95 13.83-14.6 14.8-16.52 1.81-3.53 2.92-9.14 2.47-12.32-1.01-7.43-5.05-13.54-10.96-16.52A23 23 0 0 0 183.82 7c-2.83 0-7.43 1.16-10.2 2.57-2.02 1.01-9.15 6.72-19.6 15.51-2.63 2.27-4.85 4-4.9 3.94-.1-.05.2-1.67.7-3.54.71-2.93.76-3.99.2-7.27a30 30 0 0 0-1.76-6.52c-2.48-5.35-8.34-9.95-14.35-11.2-2.98-.62-4.95-.67-7.93-.06m7.23 11.37a9.9 9.9 0 0 1 6.16 9.19c-.05 2.12-.81 3.84-5.86 13.28-7.17 13.44-17.63 34.25-19.85 39.66-2.88 6.92-5.91 15.9-7.28 21.72-2.37 10.05-2.98 14.4-3.23 24.6-.3 9.95-.3 9.95 1.26 11.46 1.22 1.27 1.97 1.57 3.64 1.57 1.16 0 2.53-.25 3.08-.5 1.67-.92 2.48-3.24 2.48-7.08 0-6 1-15.56 2.32-22.22 3.54-17.58 8.64-29.2 18.84-42.94 4.8-6.47 17.02-19.04 25.3-26.06 10.36-8.84 18.4-15.06 20.16-15.66 2.68-.96 5.1-.81 7.63.5a10.1 10.1 0 0 1 4.7 12.98c-.7 1.52-4.65 5.96-12.83 14.35-18.49 18.9-22.73 23.49-26.27 28.19a88 88 0 0 0-14.34 30.56c-1.57 6.46-2.43 12.27-1.97 13.94.45 1.92 2.98 3.84 5 3.84 1.16 0 4.09-1.27 8.94-3.84 3.99-2.07 12.47-6.42 18.84-9.55 12.88-6.41 15.46-7.22 20.3-6.31 4.65.8 5.3 1.36 27.58 21.62 3.84 3.48 7.58 7.32 8.24 8.48 1.41 2.38 4.7 16.27 4.75 19.8 0 2.88-1.17 5.3-3.64 7.38-4.55 3.89-11.06 3.23-15-1.57-.86-1-2.48-4.2-3.64-7.12-1.92-4.75-2.37-5.46-4.95-7.63-4.44-3.69-13.34-10.05-14.9-10.66-.76-.25-2.53-.5-3.89-.5-2.12 0-3.64.55-9.7 3.69-14.34 7.32-23.74 14.7-29.55 23.18-2.12 3.08-5 9.9-5.6 13.34-.81 4.19-.66 10.6.2 14.09.45 1.67 1.71 4.9 2.82 7.17a24 24 0 0 0 5.41 7.58c4.04 3.99 8.54 6.82 13.49 8.38 2.88.91 4.74 1.12 9.85 1.12 5.2 0 6.97-.2 10.1-1.17a39 39 0 0 0 19.6-14.6 174 174 0 0 0 5.66-9.54c1.97-3.59 4.19-7.17 4.95-7.98 1.71-1.82 5.9-3.84 7.98-3.84 2.78 0 6.1 1.51 8.03 3.59 3.48 3.88 3.58 5.9.55 13.99-4.19 11.11-11.26 27.83-12.93 30.56-2.42 4.04-6.36 8.28-12.78 13.79-11.72 10.05-25.15 19.44-37.43 26.16-10.8 5.91-21.01 10.26-36.92 15.56a71 71 0 0 0-18.34 9.5c-3.99 3.03-7.27 6.46-24.1 25.56a842 842 0 0 1-9.64 10.76c-2.42 2.57-2.78 2.72-5.35 2.98a8.6 8.6 0 0 1-4.1-.46c-1.26-.7-11.41-9.85-22.32-20.15a4173 4173 0 0 0-19.3-18.09c-10.5-9.75-13.84-13.18-14.3-14.54-.95-2.88-.25-5.56 2.48-9.25a506 506 0 0 0 15.81-23.69c5.36-8.64 12.43-22.78 15.46-30.91 2.83-7.53 6.67-21.87 7.88-29.3 1.62-9.85 1.92-16.16 2.32-47.23.36-28.39.5-32.53 1.42-38.39a216 216 0 0 1 7.47-32.58c2.12-6.97 4-12.17 4.85-13.64.96-1.61 4.1-3.03 6.62-3.03 2.88 0 5.3 1.62 6.82 4.55.8 1.56 1.1 2.83.9 4.04-.1.96-1.71 8.69-3.48 17.17-5.4 25.31-6.41 33.9-6.41 54.35 0 13.14.3 15.2 2.42 16.32.6.3 1.97.56 3.08.56 1.57 0 2.48-.36 3.69-1.47 1.62-1.41 1.62-1.41 1.77-15.2.15-15.36.65-23.04 2.22-32.33C87.6 86.55 90.22 76 92.2 70.59c3.54-9.95 8.13-19.75 14.35-30.76 5.6-9.9 16.26-25.91 18.08-27.07a8.9 8.9 0 0 1 8.59-.96m55.46 135.02c1.62 1.3 4.24 3.38 5.86 4.54 2.37 1.82 3.08 2.73 4.24 5.56q2.95 6.99 6.11 10.25c1.77 1.82 1.77 1.82-.7 4.3a37 37 0 0 0-4.65 6.51c-4.95 9.1-7.02 12.18-10.05 15.16-5.26 5.2-11.37 7.83-18.09 7.83-2.72 0-4.6-.36-7.22-1.32a22.7 22.7 0 0 1-11.77-10.7c-1.62-3.24-1.67-3.64-1.67-9.2 0-5.46.1-6.01 1.57-9.1 4.3-8.98 10.25-14.03 29-24.64 1.51-.86 3.13-1.57 3.58-1.57.4-.05 2.12 1.06 3.79 2.38m145.12-39.35c-1.56.5-3.84 1.61-5.1 2.47-2.58 1.77-5.56 5.81-6.72 9.2a23.6 23.6 0 0 0-.55 12.32c2.47 10.5 10.2 18.39 32.88 33.49a750 750 0 0 0 13.29 8.49c3.08 1.87 5.65 3.63 5.65 3.89 0 .65.86.65-60.26-1.32-11.06-.35-21.27-.45-22.63-.25-6.67 1.06-13.28 6.16-16.31 12.53-1.27 2.78-1.57 4.14-1.72 7.88-.2 4.19.4 8.18 1.66 11.46.3.81.06.91-2.17.91a23.6 23.6 0 0 0-14.2 4.75c-2.16 1.62-5.3 5.76-6.6 8.79a27 27 0 0 0-1.62 5.76 18 18 0 0 0 0 6.97c.6 3.69 2.32 7.58 4.5 10.5 1.8 2.43 6.76 5.92 9.74 6.93 1.41.45 2.53 1 2.53 1.2 0 .21-.66 1.62-1.52 3.14-1.87 3.43-2.68 8.54-2.02 12.93.2 1.72 1.11 4.55 1.97 6.32 1.97 4.14 6.36 8.58 10.56 10.55 2.67 1.32 4.19 1.62 9.6 2.12 3.53.3 6.46.61 6.56.66s-.45 1.82-1.16 3.89c-1.16 3.28-1.36 4.45-1.16 8.54.1 3.99.4 5.2 1.71 7.98.86 1.82 2.33 4.19 3.29 5.3a22 22 0 0 0 9.6 6.01c1.76.5 8.13 1.06 17.88 1.57 8.33.45 20.6 1.16 27.27 1.56 17.18 1.07 46.63 1.47 56.58.76 9.04-.65 22.02-2.47 28.59-4.04 10.45-2.42 22.17-7.17 32.02-12.93a44 44 0 0 1 7.08-3.08c3.48-1.11 5.3-1.37 12.88-1.67 8.03-.3 9.09-.45 11.61-1.61 1.57-.71 3.64-2.03 4.6-2.88 2.37-2.07 4.8-6.72 5.46-10.46.3-1.67.75-7.12 1.06-12.12.3-5 1-15.36 1.51-22.99 1.97-28.38 2.17-33.89 1.57-36.97-.76-3.64-3.94-8.49-6.77-10.46-1.16-.8-4.85-2.52-8.18-3.84a131 131 0 0 1-9.1-3.94c-3.94-1.92-8.79-5.35-10.76-7.62a168 168 0 0 1-6.36-8.54c-2.58-3.69-5.6-7.73-6.62-8.94a101 101 0 0 0-16.16-15.4c-6.62-4.96-13.9-9.1-24.5-13.95-4.3-1.97-9.3-4.24-11.11-5.1-1.82-.86-11.92-5.5-22.48-10.36a3527 3527 0 0 1-37.13-17.12 98 98 0 0 0-8.84-3.69c-2.93-.8-6.67-.65-9.9.4m13.03 12.88c3.29 1.46 12.43 5.7 20.36 9.4 7.93 3.68 18.84 8.73 24.25 11.2 19.1 8.8 22.07 10.21 30.25 14.1 9.1 4.4 15.36 7.98 20 11.52 7.08 5.35 15.82 15.15 22.89 25.6 6.16 9.2 12.73 13.8 27.73 19.6 6.37 2.48 7.88 3.6 8.59 6.32.35 1.36-.46 17.17-1.62 33.39-.4 5.4-1.11 15.6-1.51 22.68-.56 8.74-1.06 13.28-1.52 14.24a9 9 0 0 1-2.37 2.58c-1.57 1.11-2.18 1.16-9.5 1.21-6.72.05-8.54.25-12.88 1.42-3.54.96-7.02 2.42-11.87 4.95-9.85 5.2-11.21 5.86-17.98 8.23-7.08 2.53-15.2 4.3-26.98 5.91-7.57 1.01-10.3 1.16-29.8 1.11-14.45 0-26.06-.25-35.61-.86-7.78-.45-20.46-1.21-28.14-1.61-11.92-.61-14.3-.86-15.9-1.72a12 12 0 0 1-3.04-2.17c-2.68-2.83-3.38-7.63-1.72-11.32 1.17-2.52 4.25-5.15 6.62-5.6 1.87-.36 21.12.45 40.16 1.61 6.11.4 14.85.86 19.45 1.06 7.32.3 8.58.25 10.05-.5a5.8 5.8 0 0 0 2.78-5.86c-.36-1.67-2.63-3.9-4.4-4.25-.6-.15-6.11-.5-12.22-.8s-19.2-1.01-29.05-1.52c-9.85-.56-24.4-1.36-32.33-1.77-19.95-1.06-19.8-1-22.02-2.17-2.52-1.31-3.94-2.83-5.2-5.66-1.92-4.19-1.16-8.74 2.07-12.37a13 13 0 0 1 4.2-3.08c2.11-.81 3.17-.81 18.02 0 26.57 1.41 53.1 2.77 65.22 3.33 9.95.45 11.72.4 12.98-.25a5.2 5.2 0 0 0 3.03-4.9c0-1.37-.4-2.33-1.47-3.54-1.41-1.56-1.41-1.61-8.18-2.02-6.36-.35-35.36-1.92-70.16-3.69-8.49-.45-19.04-1-23.49-1.2-6.62-.36-8.49-.61-10.1-1.47a11.7 11.7 0 0 1-5.5-5.76c-.97-2.22-1.07-6.87-.21-8.84a11.9 11.9 0 0 1 6.01-6.21c2.63-1.12 2.63-1.12 20.61-.3 9.9.45 21.62 1.05 26.06 1.3 4.45.26 11.27.61 15.16.76s12.88.61 19.95 1.01 16.32.86 20.46 1.01c7.02.3 7.68.26 9.2-.7 2.16-1.37 3.02-4.3 1.96-6.87a4.7 4.7 0 0 0-2.42-2.48c-1.16-.5-6.32-.96-17.33-1.56-29.5-1.52-44.45-2.28-56.07-2.83-12.37-.56-14.7-1.01-17.47-3.34-2.03-1.71-3.54-4.8-3.84-7.98-.2-2.02 0-3.18.8-5.1 1.37-2.98 2.68-4.5 5.36-5.9 1.82-1.02 2.68-1.12 9.34-.97 4.04.05 12.23.3 18.19.6 21.87.97 46.98 1.62 57.33 1.42 10.2-.15 10.7-.2 12.88-1.41a7.7 7.7 0 0 0 3.49-3.69c.9-1.87 1.1-2.83.85-4.55-.65-4.34-1.2-4.8-16-13.99-9.7-6-22.64-14.65-28.04-18.74-6.52-4.85-12.33-10.7-13.8-13.74a14.3 14.3 0 0 1-1.36-8.64c.61-3.33 4.15-6.31 7.48-6.36.7 0 4.04 1.21 7.32 2.73" clip-rule="evenodd"/>
</svg>
