<svg xmlns="http://www.w3.org/2000/svg" width="512" height="506" fill="currentColor" viewBox="0 0 512 506">
    <path fill-rule="evenodd" d="M252.37.98a11 11 0 0 0-3.28 2.57c-1.06 1.42-1.06 1.97-1.22 41.95-.1 40.53-.1 40.53 1.01 42.2 1.87 2.72 3.59 3.68 6.82 3.88 2.27.15 3.28 0 4.49-.8.9-.51 2.17-1.77 2.93-2.68 1.3-1.77 1.3-1.77 1.41-41.9.1-40.17.1-40.17-1.26-42.24-1.57-2.37-3.48-3.48-6.51-3.89-1.67-.2-2.68 0-4.4.91M77.43 68.66a7.3 7.3 0 0 0-3.13 3.39 10 10 0 0 0-1.16 3.53c0 3.89 0 3.89 29.83 33.77 24.98 24.98 29.12 28.87 30.88 29.37 1.17.3 2.83.4 3.79.3 3.94-.65 7.17-4.29 7.17-8.17 0-1.01-.3-2.58-.7-3.54-.97-2.27-56.9-58.14-59.16-59.1-2.43-1-5.2-.86-7.52.45m348.51-.2c-2.17 1.21-56.93 56.53-58.14 58.75-2.42 4.3.5 10.15 5.65 11.51 1.77.46 2.78.46 4.54-.05 2.07-.55 4.95-3.28 30.64-28.92 15.65-15.6 28.77-29.12 29.22-30.08 1.06-2.22.76-6.66-.6-8.48-1.82-2.47-3.53-3.38-6.61-3.53-2.17-.1-3.38.1-4.7.8m-180.9 53.6c-11.2.86-26.09 4.25-36.38 8.28a150 150 0 0 0-21.2 10.4c-10.3 6.16-22.82 16.56-30.19 25.14a129 129 0 0 0-12.82 17.1 127 127 0 0 0-12.16 24.33c-4.34 11.66-6.66 21.05-7.92 32.56a129 129 0 0 0 5.4 52.74c1.66 5.2 5.35 14.49 7.31 18.38 2.83 5.6 8.59 15.34 11.41 19.23 4.14 5.75 11.71 14.53 16.15 18.72a139 139 0 0 0 32.46 22.87 118 118 0 0 0 20.44 8.17c13.12 4.04 24.02 5.66 38.56 5.7 11.36 0 18.22-.7 28.92-2.97a148 148 0 0 0 26.85-9.19 148 148 0 0 0 20.2-11.7c6.15-4.3 13.87-11.06 19.78-17.17 16.8-17.41 29.02-40.12 33.92-63.14 2.37-11.26 2.97-17.26 2.97-28.52 0-8.33-.25-12.16-1.1-17.92-2.23-14.43-6.11-26.95-12.47-39.57-5.6-11.25-11.1-19.38-19.54-28.97a121 121 0 0 0-20.03-18.47 131 131 0 0 0-46.94-22.41 121 121 0 0 0-21.9-3.64c-7.38-.55-13.69-.55-21.71.06m20.25 16.61c7.27.56 16.5 2.22 23.52 4.3 10.14 2.92 22.81 8.92 32.2 15.18 13.17 8.84 25.9 21.96 34.02 35.08a114 114 0 0 1 13.63 32 109 109 0 0 1 3.07 39.37c-.95 8.43-3.07 18.37-5.4 25.24a116 116 0 0 1-28.71 45.73 119 119 0 0 1-41.65 26.34 110 110 0 0 1-20.44 5.5c-5.55 1.02-7.82 1.17-19.43 1.12-11.96 0-13.78-.16-20.6-1.37-4.33-.8-10.74-2.47-15.29-3.93-8.73-2.88-20.03-8.28-27.2-12.92-12.57-8.23-24.73-20.35-33.41-33.22-5.25-7.82-11-19.58-13.73-28.16-2.27-7.27-4.5-17.67-5.15-24.58-.7-7.57-.35-20.75.8-28.22 1.02-6.6 3.34-15.54 5.66-21.75a135 135 0 0 1 12.06-23.82 110 110 0 0 1 14.94-18.17c18.17-18.12 40.68-29.23 66.53-32.91 9.49-1.36 15.09-1.52 24.58-.8M3.94 245.83c-.91.6-2.22 1.91-2.88 2.87-1.01 1.52-1.16 2.22-1.01 4.9.25 3.68 1.26 5.4 4.24 7.06 1.97 1.17 1.97 1.17 42.25 1.17 38.5 0 40.32-.05 42.14-.96a8 8 0 0 0 4.4-4.85 7.7 7.7 0 0 0-1.37-8.12c-3.03-3.44-.2-3.24-45.22-3.24-40.84 0-40.84 0-42.55 1.17m418.67.1a8 8 0 0 0-2.93 2.97c-.45.96-.8 2.98-.8 4.5 0 2.02.3 3.18 1.16 4.39.6.9 1.76 2.17 2.52 2.72 1.41 1.06 1.72 1.06 42.3 1.21 39.92.1 40.88.1 42.8-.9a10 10 0 0 0 3.18-2.63c.96-1.36 1.16-2.32 1.16-5.05 0-2.62-.25-3.68-1.06-4.74a14 14 0 0 0-2.42-2.42c-1.37-1.06-1.87-1.06-42.6-1.21-41.24-.1-41.24-.1-43.3 1.16M129.41 365.5c-.8.4-14.18 13.37-29.62 28.87-25.24 25.39-28.17 28.41-28.67 30.43a8.3 8.3 0 0 0 3.78 9.4 8.9 8.9 0 0 0 7.98.55c.9-.4 13.57-12.67 29.73-28.87 24.93-25.04 28.1-28.42 28.41-30.14.5-2.72.05-6.05-1.06-7.57-2.22-3.03-7.06-4.24-10.55-2.67m244.3.45c-2.33 1.26-4.3 4.65-4.3 7.32 0 .9.46 2.47.96 3.53 1.26 2.43 56.38 57.44 58.25 58.15 3.78 1.41 8.53-.15 10.6-3.48 1.31-2.17 1.41-6.16.25-8.38-1.16-2.12-55.82-56.48-57.8-57.5-2.26-1.15-5.54-1-7.97.36m-120.54 50.02c-1.06.4-2.42 1.11-2.97 1.67-2.48 2.17-2.43 1.56-2.43 43.4 0 36.4.05 39.42.91 41.04 1.62 3.28 5.86 5.1 9.64 4.04a8.2 8.2 0 0 0 5.4-4.2c.76-1.36.86-5.9.91-40.98.05-39.42.05-39.42-1.31-41.54a10 10 0 0 0-2.88-2.82 9.4 9.4 0 0 0-7.27-.6" clip-rule="evenodd"/>
</svg>
