<svg xmlns="http://www.w3.org/2000/svg" width="512" height="280" fill="currentColor" viewBox="0 0 512 280">
    <path fill-rule="evenodd" d="M251.52.26c-6.9.84-11.98 1.87-16.62 3.41a67.5 67.5 0 0 0-27.96 17.65 68 68 0 0 0-13.78 20.49c-4 9.15-5.16 14.5-5.54 25.06-.26 7.15-.07 10.69.7 15.07a75 75 0 0 0 12.7 29.18c3.86 5.22 11.46 12.5 16.68 15.98a70.6 70.6 0 0 0 34.79 11.72c8.76.45 16.62-.58 25.12-3.41a65 65 0 0 0 19.39-9.99c5.22-3.86 12.37-11.27 16.04-16.68 3.93-5.86 8.7-16.17 10.43-22.87 1.3-4.96 1.49-7.34 1.49-16.75 0-9.47-.2-11.66-1.49-16.1-2.19-7.48-4.44-12.89-7.8-18.62a71 71 0 0 0-28.66-26.8A68 68 0 0 0 262.92.58c-6.57-.7-7.6-.7-11.4-.32M88.54 11.79C75.8 14.56 63.61 22.99 56.4 34c-5.48 8.38-7.99 16.1-8.57 26.1-.45 7.85.52 14.3 3.03 20.8a52 52 0 0 0 11.27 18.04c7.22 7.66 15.01 12.3 25.12 15 7.09 1.87 17.98 1.87 25.13 0a52 52 0 0 0 24.86-14.62c6.19-6.57 9.47-12.24 12.56-21.51 1.61-4.9 1.74-6.38 1.8-14.5 0-10.11-.77-14.1-4.44-21.96a51 51 0 0 0-11.33-16.1c-5.1-4.77-9.02-7.54-14.56-10.06-7.09-3.22-12.95-4.38-21.39-4.31-4.12 0-9.21.45-11.34.9m315-.58c-14.17 2.96-24.99 9.66-33.23 20.55-2.97 4-7.28 12.88-8.7 18.04-.58 2.12-1.16 7.15-1.35 11.08-.33 6.05-.13 8.3 1.1 13.52a53.5 53.5 0 0 0 12.81 24.22c5.67 6.06 12.24 10.57 19.26 13.21 7.09 2.77 11.73 3.6 19.46 3.54 14.36-.13 27.12-5.73 37.04-16.36a51.5 51.5 0 0 0 12.94-23.64c1.8-7.09 2.07-16.04.65-22.74-2.13-9.98-7.54-19.97-14.5-26.86-7.02-6.9-17.58-12.56-26.73-14.24-3.67-.64-15.97-.84-18.74-.32M71.8 131.03c-10.37 1.86-22.86 6.82-32.01 12.69-18.94 12.1-32.66 31.88-38 54.56-.91 3.93-1.36 8.76-1.62 17.07-.32 11.6-.32 11.6 1.55 15.14a15 15 0 0 0 4.57 5.47c2.84 1.94 2.84 1.94 54.3 2.13 51.47.13 51.47.13 51.86-1.61 1.03-5.03 4.45-15.91 6.44-20.8a120 120 0 0 1 23.7-35.95c8.19-8.5 16.05-14.82 24.87-19.97 3.35-1.94 6.25-3.67 6.45-3.8.45-.39-4.45-4.64-10.57-9.28-5.73-4.25-16.3-9.86-23.38-12.37a91 91 0 0 0-11.47-2.96c-6.12-1.23-9.15-1.35-29.18-1.29-16.3.06-23.77.32-27.5.97m316.62-.65a87 87 0 0 0-27.9 9.09c-3.8 1.93-8.7 4.83-10.95 6.44-5.15 3.8-11.4 9.2-11.4 9.85 0 .26 1.68 1.48 3.74 2.58 8.44 4.77 16.17 10.76 24.28 18.94 12.05 12.17 20.1 24.1 25.64 38.07a152 152 0 0 1 6.5 21.06c.4 1.8.4 1.8 51.67 1.8 49.02 0 51.28-.06 53.6-1.22a20 20 0 0 0 4.25-3.02c3.41-3.48 3.86-5.1 4.12-14.24.13-4.7-.06-11.08-.45-14.17a88 88 0 0 0-12.3-34.34q-12.97-20.99-35.89-32.4c-7.92-4-17.45-7.08-24.99-8.12-4.5-.64-46.06-.9-49.92-.32M224.08 154.8a113 113 0 0 0-39.04 13.4 105 105 0 0 0-23.77 18.61c-10.11 10.24-16.36 19.4-22.42 32.6-5.47 12.04-9.4 29.05-9.4 40.97 0 6.83 1.41 10.88 5.09 14.56 5.67 5.6-5.16 5.21 121.49 5.02 112.09-.2 112.09-.2 114.73-1.61 2.83-1.55 5.99-4.77 7.8-8.12.96-1.74 1.15-3.67 1.15-12.04-.06-11.4-1.1-17.72-4.57-28.28-12.56-37.69-43.61-65.58-82.84-74.28-5.48-1.22-8.44-1.35-34.02-1.54-21-.13-29.56.06-34.2.7" clip-rule="evenodd"/>
</svg>
