<svg xmlns="http://www.w3.org/2000/svg" width="512" height="473" fill="currentColor" viewBox="0 0 512 473">
    <path fill-rule="evenodd" d="M490.83 1.31c-10.02 3.63-18.54 10.02-35.38 26.36-8.38 8.1-12.22 11.37-13.43 11.37-.92 0-5.75-.78-10.87-1.78a3213 3213 0 0 0-55.48-10.23c-10.16-1.77-13.21-1.85-15.77-.5-1.07.57-4.26 3.41-7.1 6.26-3.84 3.97-5.26 5.9-5.55 7.74-.35 1.99-.07 2.91 1.21 4.4.92 1 7.96 4.98 15.56 8.88s20.25 10.38 28.06 14.36c8.24 4.19 14.14 7.67 14.14 8.16-.14 1.57-19.68 23.8-20.89 23.8-.64 0-6.25-1.13-12.43-2.48-6.75-1.5-12.3-2.42-13.57-2.13-2.77.5-12.86 9.66-14.2 12.93-.86 1.91-.86 2.7-.08 4.54.78 2.06 2.63 3.06 17.55 10.16 18.97 8.95 15.91 5.68 26.85 28.84 2.91 6.04 5.76 11.44 6.4 11.87.63.5 2.13.92 3.4.92 1.57 0 3.34-.85 5.76-2.77 4.76-3.83 9.95-9.38 10.44-11.22.29-.86-.5-6.25-1.7-12.08-1.21-5.75-2.42-11.5-2.63-12.72-.36-1.99.14-2.55 6.68-8.17 3.83-3.34 9.16-7.88 11.86-10.16 4.62-3.9 4.97-4.04 5.9-2.84.5.71 3.27 5.47 6.04 10.59 2.77 5.04 6.1 11 7.31 13.14a774 774 0 0 1 9.88 18.26c6.6 12.43 7.88 14.42 9.73 15.06 3.27 1.14 5.83-.36 12.36-6.96 5.69-5.83 5.69-5.83 5.61-10.94 0-3.13-2.41-18.9-6.25-40.5-6.32-35.45-6.32-35.45-2.84-38.43 4.62-4.05 17.69-18.61 22.66-25.3 5.05-6.74 7.68-11.29 10.02-17.47 2.49-6.6 2.56-12.43.21-16.7-1.06-1.91-2.7-3.62-4.19-4.33-3.27-1.7-10.58-1.63-15.27.07M501.7 13.9c.14 3.05-.29 4.47-2.99 9.95a85 85 0 0 1-8.02 12.36c-2.63 3.34-9.67 11-15.63 17.12-10.23 10.44-10.87 11.3-10.87 13.85 0 1.56 1 8.03 2.2 14.5 3.55 19.17 5.47 30.04 8.24 46.6 2.63 15.7 2.63 15.7.14 18.61-1.28 1.63-2.63 2.98-2.91 2.98s-2.63-4.05-5.26-9.09c-6.46-12.22-25.79-47.17-26.7-48.3-.44-.43-1.93-.86-3.35-.86-2.06 0-3.55.78-7.53 3.9-9.8 7.82-28.06 24.09-28.49 25.37-.2.7 1 7.1 2.63 14.14 2.99 12.85 2.99 12.85.43 15.41-1.42 1.42-2.77 2.42-2.91 2.2-.22-.2-3.41-6.6-7.1-14.28-4.27-8.95-7.33-14.35-8.4-14.99-.84-.63-7.66-3.9-15.05-7.31-13.43-6.25-13.43-6.25-10.87-8.53 1.49-1.42 3.05-2.2 3.83-1.99.72.15 6.61 1.42 13.22 2.77 10.3 2.2 12.08 2.42 13.64 1.64 1-.57 4.33-3.98 7.53-7.67 11.58-13.5 19.6-23.16 20.81-24.94 1.57-2.42.93-5.19-1.63-6.96-1.56-1.14-54.42-28.63-56.55-29.48-1-.36.36-2.5 2.77-4.27 1.85-1.42 2-1.42 9.52-.21 6.6 1.14 20.1 3.55 59.46 10.87 5.12.92 10.59 1.7 12.3 1.7 3.05 0 3.26-.2 15.84-12.36 6.96-6.82 15.27-14.42 18.4-16.9a76 76 0 0 1 10.8-7.11c4.26-2.2 5.82-2.63 8.73-2.49 3.55.15 3.55.15 3.77 3.77M328.2 128.55c-2.7 1.92-5.47 3.55-6.25 3.55-1.7 0-4.33 1.64-8.17 5.12-2.63 2.34-3.48 2.7-6.4 2.7-3.9 0-8.87 2.06-11.86 4.83a29 29 0 0 0-3.62 4.47 16 16 0 0 1-4.4 4.2c-1.5.92-3.41 2.27-4.27 3.05-.92.85-2.7 1.42-4.69 1.5-2.27.06-3.97.77-6.6 2.7-2.77 1.98-4.34 2.55-7.53 2.83-5.54.43-11.08 4.12-14.07 9.24-1.14 2.06-2.13 4.33-2.13 5.04s-1.14 1.92-2.49 2.7c-1.42.85-2.84 2.13-3.2 2.84-.63 1.14-1.34 1.28-6.24.93-4.55-.36-6.19-.14-9.52 1.13a16.6 16.6 0 0 0-7.25 5.05c-1.78 1.92-3.55 4.69-3.98 6.04-.64 1.91-1.14 2.41-2.06 1.99-.64-.22-3.55-.64-6.54-.79-7.74-.56-11.86 1-17.05 6.11-2.84 2.85-4.33 5.05-5.18 7.75-1.07 3.12-1.7 3.9-3.84 4.83-3.34 1.35-5.61 3.48-7.39 6.89-.85 1.78-1.7 2.63-2.34 2.34a53 53 0 0 0-5.12-1.13 25.3 25.3 0 0 0-13.99 1.7c-3.77 1.57-8.95 6.75-10.8 10.73a27 27 0 0 0-2.13 6.68 9 9 0 0 1-2.7 5.4 32 32 0 0 0-3.62 4.19c-1.42 1.99-1.42 1.99-5.62.78-5.6-1.63-13.14-1.2-17.54.92-6.9 3.34-11.87 10.45-12.5 17.83-.36 3.98-.36 3.98-7.96 3.98-6.47 0-8.03.22-10.8 1.64-4.26 2.13-8.81 6.04-10.94 9.37-2.2 3.41-3.9 9.38-3.9 13.43 0 2.27-.43 3.62-1.57 4.83-1.5 1.57-1.5 1.64-3.7.29-7.24-4.4-16.83-4.76-24.22-.93a27.2 27.2 0 0 0-12.22 12.58c-1.7 3.7-1.99 5.04-1.92 10.72.07 6.54.07 6.54-2.84 7.4-7.18 2.05-13.57 7.95-15.84 14.41A31 31 0 0 0 0 358.8c0 3.9.43 5.61 2.34 9.45 1.64 3.33 3.34 5.54 5.83 7.53 4.83 3.76 9.52 5.25 15.84 4.83a22.3 22.3 0 0 0 14.85-6.68c3.7-3.77 6.4-9.52 6.75-14.64.28-3.97.43-4.19 1.85-3.76.78.28 3.62.64 6.25.85 6.04.5 10.72-1.06 14.99-4.83 3.34-2.91 6.89-8.95 6.89-11.72 0-1.42.42-1.56 5.18-1.85 11.3-.57 18.48-7.67 18.55-18.18 0-3.77.14-4.4 1.06-3.98.64.21 3.13.57 5.47.78 8.24.7 15.42-3.27 19.04-10.59a16 16 0 0 0 1.85-8.02c0-4.27 0-4.27 5.9-4.27 4.61 0 6.39-.35 8.73-1.56 4.55-2.42 7.1-4.9 8.88-8.52a27 27 0 0 0 2-7.54c.42-4.12.49-4.19 3.19-5.11 3.9-1.35 8.17-5.75 9.16-9.45.79-2.84 1-3.05 2.63-2.63 3.98 1 10.59 1.21 13.15.36 3.4-1.14 7.88-5.12 9.66-8.67.78-1.5 1.56-4.12 1.84-5.9.43-3.2.43-3.2 4.48-3.2 4.76 0 8.03-.99 11.15-3.33a17.8 17.8 0 0 0 6.82-9.88c.71-2.63 1.85-4.4 4.76-7.24 3.84-3.77 3.91-3.77 7.25-3.34 2.2.35 4.62.07 7.32-.71 3.48-1 5.04-2.13 11.36-8.17 5.12-4.9 7.89-7.1 9.03-7.1 2.48 0 7.88-3.7 9.66-6.54a18 18 0 0 0 1.99-4.76 4.5 4.5 0 0 1 2.41-3.27c1-.5 2.28-1.5 2.77-2.06.57-.71 2.13-1.14 3.91-1.14 1.56 0 4.62-.78 6.6-1.77a12.4 12.4 0 0 0 5.9-5.05c1.14-1.91 2.13-3.83 2.13-4.33 0-.57 1.35-2.2 2.99-3.7 2.34-2.2 3.62-2.84 6.4-3.05a14.4 14.4 0 0 0 10.72-7.17 13.5 13.5 0 0 1 3.7-4.27 12 12 0 0 0 3.4-3.48c.71-1.2 1.7-1.99 2.7-1.99 2.49 0 6.75-2.84 8.53-5.68.92-1.5 3.62-3.9 5.97-5.4 2.34-1.56 4.83-3.34 5.47-4.05.78-.7 1.27-2.27 1.27-3.98 0-2.13-.42-3.12-1.56-3.9-2.84-2-5.54-1.43-10.8 2.41m43.9 33.39c-1.63.64-6.81 5.68-8.59 8.31-.57.93-1.78 1.64-2.63 1.64-2.2 0-5.68 2.34-7.95 5.4-3.63 4.68-4.9 5.75-7.82 6.18-4.26.7-8.31 3.97-10.58 8.6-1.07 2.12-2.28 4.18-2.7 4.54-.5.35-2.13.92-3.7 1.2-6.68 1.21-11.72 5.76-13.21 12.01-1.2 5.19-2.7 6.54-7.67 7.04-7.68.64-12.86 4.76-15.7 12.36-.86 2.27-1.85 4.47-2.28 4.97s-1.92.92-3.34.92c-3.62 0-9.23 2.85-12.22 6.18-2.41 2.63-3.48 4.9-4.47 9.45-.36 1.57-.78 1.78-3.84 1.85-3.9.14-9.52 2.34-12.07 4.76-2.78 2.56-5.12 7.25-5.62 11.01-.42 3.62-.42 3.62-5.47 3.55-6.4 0-11.86 2-15.77 5.76a21 21 0 0 0-6.4 13.42c-.42 4.12-.42 4.12-5.53 4.05-4.34 0-5.76.36-9.88 2.35-7.17 3.55-10.87 9.16-11.65 17.69-.21 2.48-.85 4.83-1.35 5.25-.64.57-1.99.5-4.83-.07a23 23 0 0 0-14.42 2.06c-3.77 1.92-7.67 6.18-9.6 10.38-1.2 2.62-1.63 4.9-1.63 8.66 0 4.83-.07 5.12-1.42 4.7-6.4-2.07-10.16-2.07-16.4-.15-3.99 1.2-5.48 2.2-8.82 5.54-5.11 5.04-7.1 9.95-7.1 17.4 0 5.2 0 5.2-2.63 5.97-3.98 1.28-9.1 5.33-11.22 8.88-1 1.78-2.2 4.7-2.63 6.61-.86 3.48-.86 3.48-7.96 3.48-6.1 0-7.6.22-10.16 1.64-6.1 3.2-10.73 8.73-12.36 14.56-.64 2.49-.64 2.49-7.6 2.77-8.95.43-13.71 2.27-19.25 7.32a32.3 32.3 0 0 0-9.31 15.91c-.5 2.13-.71 6.04-.57 8.95.29 3.77.93 6.4 2.56 9.88 2.98 6.32 8.88 12.5 14.28 14.92 6.46 2.9 11.22 3.62 17.33 2.62a38 38 0 0 0 8.81-2.62c4.9-2.35 10.3-7.32 13.36-12.3 2.56-4.04 2.56-4.04 7.32-2.84 5.82 1.57 10.01 1.64 14.77.36 8.46-2.27 15.77-8.24 19.33-15.91 1.7-3.63 1.91-4.84 1.91-11.94 0-7.96 0-7.96 4.62-8.74 5.97-1 12.72-4.33 15.99-7.95a32 32 0 0 0 4.47-6.97c1.42-2.98 1.92-5.47 2.13-10.08.29-6.18.29-6.18 5.26-6.9a35 35 0 0 0 8.8-2.7 30 30 0 0 0 7.11-5.4c4.55-4.9 6.18-8.87 6.54-16.26.28-6.18.28-6.18 5.82-5.83 4.05.29 6.4.07 8.96-.78 7.17-2.42 13.2-8.1 15.62-14.7.64-1.71 1.14-5.2 1.21-7.68.07-4.4.14-4.54 2.7-6.1a28 28 0 0 0 4.83-4.41c2.28-2.77 3.2-4.97 3.98-9.66.36-2.06.71-2.63 1.5-2.35 1.41.57 7.95-.92 11.08-2.48 1.49-.79 3.69-2.28 5.04-3.41 2.84-2.5 5.82-7.89 6.54-11.73.7-4.05 2.2-5.9 5.18-6.46 4.76-.85 9.3-3.27 12.3-6.54a22.4 22.4 0 0 0 6.03-12.86c.21-1.98.71-3.69.92-3.69 1.35 0 6.82-5.54 7.89-8.03 1.14-2.48 1.78-2.91 5.97-4.33 3.4-1.14 5.68-2.49 7.81-4.69 1.7-1.63 3.7-4.33 4.4-5.97 1.5-3.4 7.04-9.73 11.02-12.64 3.2-2.28 5.61-5.83 5.61-8.17 0-.93 1.07-2.56 2.49-3.84 1.35-1.28 2.62-2.84 2.84-3.55.28-.71 1.92-1.78 4.05-2.49 4.47-1.49 9.45-6.25 10.58-10.3a7.5 7.5 0 0 1 3.2-4.26c2.7-1.63 6.68-5.97 6.68-7.25 0-.5 1.63-2.2 3.55-3.9 1.99-1.71 3.55-3.56 3.55-4.12s2.27-3.27 4.97-5.9c4.34-4.2 4.98-5.12 4.98-7.32 0-1.99-.5-2.98-1.85-4.05-2.06-1.56-3.27-1.77-5.68-.78" clip-rule="evenodd"/>
</svg>
