<svg xmlns="http://www.w3.org/2000/svg" fill="currentColor" viewBox="60 60 391.998 391.998"><path fill-rule="evenodd" d="M309.14 88.18c-1.95.4-4.66 1.4-6.56 2.45-2.46 1.4-5.8 4.62-7.11 6.9-1.69 2.85-2.82 6.66-2.82 9.3 0 2.38 0 2.38-7.62 2.38-7.48 0-7.66.04-9.53.95-2.56 1.29-4.5 3.67-4.76 5.83-.18 1.65-.18 1.65-11.8 1.65-10.62 0-11.87.07-14.03.73-2.82.88-5.6 2.97-7.18 5.42-2.31 3.63-2.24 1-2.24 61.08 0 48.5.04 54.59.55 54.55l4.4-.07c3.85-.07 3.85-.07 3.85-54.48 0-54.37 0-54.37 1.13-55.7 2.13-2.37 2.09-2.37 14.07-2.37 10.8 0 10.8 0 10.8 4.36 0 2.38.2 4.87.41 5.57a7.5 7.5 0 0 0 4.1 4.5c1.95.95 1.95.95 37.82.88 34.1-.1 35.98-.15 37.15-.77.7-.4 1.65-1.13 2.12-1.65 1.83-1.98 2.13-2.93 2.31-8.06.18-4.87.18-4.87 10.22-4.83 10.88.03 11 .03 13.05 2.2 1.1 1.13 1.1 1.13 1.17 41.65.07 22.32.18 40.63.3 40.7.1.12 2.04-1.05 4.31-2.63 4.14-2.82 4.14-2.82 4.07-40.82-.03-25.75-.18-38.61-.44-39.9-.73-3.37-2.23-5.64-5.2-7.87a15 15 0 0 0-3.55-1.72c-2.13-.7-3.12-.77-13.08-.77-10.81 0-10.81 0-11.07-1.4-.48-2.63-2.45-4.98-5.28-6.26-1.46-.66-2.38-.77-9-.77-7.37 0-7.37 0-7.6-2.86-.21-3.22-1.38-6.7-3.18-9.34-2.53-3.74-6.7-6.96-10.62-8.13-2.06-.59-7.48-1.03-9.16-.7m7.21 10.08a11.4 11.4 0 0 1 6.34 6.4c.73 1.99.8 2.57.59 6.79-.33 6.7-1.25 6.19 11.47 6.19 7.98 0 10.3.1 10.62.47.26.33.4 3 .4 7.51.04 3.85-.03 7.19-.18 7.4-.15.26-11.28.37-33.56.37-33.3 0-33.3 0-33.3-7.5 0-7.04.03-7.52.7-7.89.43-.22 4.57-.36 10.84-.36 10.1 0 10.1 0 11.06-.96 1.03-1.02 1-.7.26-6.96-.3-2.38.66-6.08 1.9-7.62 2.46-2.93 5.68-4.58 9.02-4.61.95 0 2.67.36 3.84.77m-142.56 10.4a44 44 0 0 0-5.42 1.83 34.6 34.6 0 0 0-12.71 10.3c-2.6 3.63-4.44 8.9-4.44 12.67 0 1.21.37 3.3.92 4.95a17 17 0 0 0 2.86 5.46c1.1 1.43 2.09 2.9 2.23 3.26.37.99-.4 2.97-1.43 3.63-1.13.73-2.82.73-4.2.03-2.2-1.13-5.94-6.92-6.97-10.8-.26-.88-.62-3.26-.88-5.32-.44-3.66-.44-3.66-4.62-3.62-4.28.03-6.85.55-11.57 2.41-5.06 1.95-10.45 6.12-14.48 11.14-2.01 2.53-4.25 7.11-5.3 10.77-.48 1.76-.67 3.67-.7 7.15 0 4.32.1 5.06 1.06 7.84 1.32 3.88 4.61 8.87 7.55 11.4 2.05 1.75 2.2 2 2.2 3.44 0 1.2-.23 1.76-1 2.49-.98.92-1.83 1.17-3.66 1.06-1.25-.07-6.08-4.87-8.35-8.28-2.05-3.11-3.85-6.96-3.85-8.24 0-.4-.22-.73-.51-.73-1.14 0-6.45 2.05-8.98 3.44a40 40 0 0 0-9.6 7.95 34 34 0 0 0-7.44 15.35 44 44 0 0 0-.03 13.74c.29 1.54 1.1 4.14 1.83 5.79.7 1.68 1.28 3.22 1.28 3.44s-.73.85-1.65 1.4c-2.12 1.24-6.04 4.87-8.1 7.54a43 43 0 0 0-5.6 10.48 43 43 0 0 0-1.65 6.3c-1.61 9.38.15 18.36 5.06 25.83 2.12 3.26 6.12 7.51 8.8 9.35 1.27.91 1.68 1.35 1.46 1.8a53 53 0 0 0-2.86 9.22c-.73 3.78-.73 10.37-.04 13.67.62 2.97 2.2 7.7 3.04 9.01 4.29 7 7.07 10.04 11.91 13.12a34 34 0 0 0 11.54 4.73c3.04.66 3.04.66 2.75 2.7-.44 3.12-.22 9.06.4 12.1.8 3.77 2.16 6.89 4.7 10.84 2.15 3.37 5.74 7.18 8.71 9.2a50 50 0 0 0 10.44 4.98c2.79.92 7.55 1.65 11.87 1.83 1.98.08 1.98.08 2.42 1.54.63 2.16 2.71 5.2 5.06 7.44 1.9 1.76 6.67 4.47 7.91 4.47.26 0 3.37-2.75 6.93-6.15 3.51-3.38 8.42-8 10.92-10.26 2.56-2.35 4.54-4.44 4.54-4.8 0-.37-.33-.96-.73-1.32-1.03-.92-3.96-5.53-6.16-9.71a85 85 0 0 1-7-18.87c-1.1-4.36-1.5-7.14-1.87-12.82-.47-7.48.11-15.13 1.65-21.22a41 41 0 0 0 1.07-4.94c-.11-.11-3.96 3.59-8.58 8.2-8.42 8.4-8.42 8.4-8.42 18.58 0 7.03.1 10.18.4 10.18.7 0 4.76 4.15 5.57 5.68.66 1.21.8 2.1.8 5.32 0 3.3-.1 4.1-.84 5.57a13 13 0 0 1-5.86 5.67c-1.83.88-2.53 1.03-5.39 1.03-2.78 0-3.62-.15-5.35-.95a13.7 13.7 0 0 1-6.12-6.2c-.76-1.6-.98-2.49-.98-4.76 0-1.76.25-3.48.7-4.72 1.13-3.26 4.6-6.53 8.05-7.51 1.5-.44 1.5-.44 1.58-11.58.03-11.18.03-11.18 10.88-21.91 5.97-5.9 10.84-10.85 10.84-11.03 0-.15-.95-1.2-2.08-2.27-1.18-1.1-3.67-3.6-5.54-5.57-1.87-1.94-3.59-3.55-3.8-3.55-.26 0-1.77 1.28-3.38 2.82-1.65 1.57-4.4 4.17-6.08 5.79-1.72 1.6-6.12 5.78-9.75 9.27-6.66 6.3-6.66 6.3-6.81 9.52-.11 2.05-.4 3.7-.8 4.58a15 15 0 0 1-6.3 6.16 8.7 8.7 0 0 1-4.92 1.17 12 12 0 0 1-8.9-3.56 16 16 0 0 1-2.82-3.7c-.73-1.5-.88-2.41-.92-5.13 0-3 .11-3.51 1.21-5.75.7-1.46 1.8-2.97 2.71-3.73.8-.74 2.6-1.73 4-2.28a9.3 9.3 0 0 1 5.16-.8c2.75.18 5.17 1.1 6.82 2.6.8.77.8.77 4.76-3.08a842 842 0 0 1 19.3-18.4c1.47-1.31 1.47-1.31-4.75-7.58-6.23-6.22-6.23-6.22-18.73-6.22-12.53 0-12.53 0-13.48 1.6-1.25 2.17-4.03 4.4-6.67 5.43-1.54.59-2.9.8-4.72.8a10 10 0 0 1-4.95-1.13 13.5 13.5 0 0 1-6.16-5.86 12 12 0 0 1-1.17-7.15c.51-2.6 1-3.84 2.46-5.86a12.6 12.6 0 0 1 6.85-4.5c2.78-.81 5.68-.59 8.31.62a12.2 12.2 0 0 1 6.23 6c1.1 2.35 1.1 2.35 15.02 2.35s13.93 0 21.33 7.59c17.7 18.17 25.35 25.94 25.76 26.05.21.07.7-.66 1.06-1.62.91-2.41 4.1-7.98 6.63-11.57a89 89 0 0 1 4.5-5.76c2.17-2.49 2.31-2.78 1.73-3.11-4.18-2.45-6.38-5.02-7.18-8.5-.55-2.3-.33-5.86.51-7.51.59-1.17.59-1.17-1.36-3.3-1.9-2.12-1.9-2.12-19.12-2.12-17.26-.04-17.26-.04-27.4-10.23a435 435 0 0 1-10.63-10.84c-.44-.62-.73-.66-2.97-.33-2.82.4-5.86.04-8.1-.95-2.16-1-4.54-3.52-5.75-6.16-1.02-2.2-1.1-2.56-.95-5.71.1-2.57.36-3.74.99-4.95a14 14 0 0 1 5.86-5.83c1.83-.91 2.45-1.02 5.72-1.02 3.37 0 3.8.07 5.6 1.1 2.6 1.43 4.98 4.1 5.94 6.7.66 1.72.77 2.64.66 5.2-.11 2.2-.4 3.6-.96 4.73a7 7 0 0 0-.73 2.02c0 .22 4.18 4.47 9.23 9.45 9.2 9.05 9.2 9.05 21.03 9.16 6.49.07 11.8 0 11.8-.11s-2.67-2.93-5.93-6.23c-3.3-3.33-8.9-9.01-12.46-12.64-6.52-6.6-6.52-6.6-6.52-20.4 0-13.82 0-13.82-1.87-14.74-2.2-1.13-4.76-3.59-5.79-5.56-.95-1.91-1.61-5.72-1.28-7.59.73-4.43 3.11-7.73 6.96-9.6 1.9-.91 2.56-1.06 5.46-1.06 2.86 0 3.55.15 5.35 1.03 2.42 1.17 4.61 3.44 6.08 6.19.88 1.72.99 2.34.99 5.24 0 2.56-.18 3.7-.8 5.05-1 2.27-4.66 5.94-6.24 6.3-1.17.26-1.17.26-1.17 12.83 0 12.6 0 12.6 2.5 15.1 1.35 1.35 7.4 7.58 13.44 13.84 20.26 21 17.8 18.76 19.97 18 1.43-.52 2.56-.63 4.87-.52 2.27.1 3.44.4 4.84 1.1a15 15 0 0 1 3.26 2.38c1.6 1.57 3.15 4.54 3.15 6.04 0 .6.18 1.03.36 1.03.22 0 1.03-.4 1.8-.88.8-.51 2.93-1.68 4.76-2.64 3.34-1.68 3.34-1.68 3.34-13.66 0-11.95 0-11.95-5.57-17.63l-15.76-16c-10.18-10.3-10.18-10.3-10.18-26.46s0-16.16-1-16.52a24 24 0 0 1-1.93-.85c-1.54-.73-4.18-3.62-5.06-5.5-1.5-3.22-1.43-8.2.18-11.39 1.03-2.01 3.74-4.5 6.09-5.57 1.9-.87 2.7-1.06 5.2-1.06 2.42.04 3.33.22 5.24 1.1a12.2 12.2 0 0 1 7.1 11.21 15 15 0 0 1-.65 4.55c-.52 1.68-1.14 2.63-2.86 4.4-1.36 1.35-2.79 2.45-3.6 2.7-1.38.48-1.38.48-1.38 15.03s0 14.54 11.94 26.78a609 609 0 0 0 12.16 12.34c.15.08.26-18.31.26-40.85-.04-40.92-.04-40.92-.84-43.3a27 27 0 0 0-7-11 21 21 0 0 0-6.63-4.87 26.6 26.6 0 0 0-13.38-3.15 28 28 0 0 0-7.29.88m96.14 44.8a16.3 16.3 0 0 0-8.64 7.96c-1 2.09-1.07 2.45-1.07 6.78s.08 4.69 1.07 6.78a17.4 17.4 0 0 0 6.7 6.92c1.03.51 2.93 1.1 4.25 1.36 4.73.88 9.67-.7 13.15-4.18 2.06-2.02 3.15-3.96 4.18-7.15.92-2.89.59-6.88-.88-10.03a16 16 0 0 0-7.25-7.62c-2.31-1.18-2.79-1.29-6.2-1.36-2.85-.07-4.03.04-5.3.55m12.83 9.06c.66.7.77 1.06.5 1.61q-.43.94-7.98 9.42c-.88 1.02-1.72 1.6-2.23 1.6-.59 0-1.69-.9-3.63-3.03-2.02-2.2-2.78-3.26-2.78-4 0-1.02.84-1.75 2.08-1.75.37 0 1.5.8 2.5 1.83 1.72 1.76 1.83 1.8 2.49 1.17.4-.33 1.97-2.12 3.48-3.92a47 47 0 0 1 3.18-3.55q1.05-.77 2.39.62m16.48-.59c-.4.77-.51 3.67-.14 4.58.22.52 3.33.59 31.47.59 31.25 0 31.25 0 31.4-2.13a10 10 0 0 0-.15-2.93c-.3-.8-.3-.8-31.21-.8-30.23 0-31 0-31.37.7m.19 11.43a10 10 0 0 0-.44 2.46c-.15 1.61-.08 2.23.33 2.56.44.33 6.3.44 25.97.37 25.43-.11 25.43-.11 25.54-2.97.11-2.82.11-2.82-25.54-2.82-17.77 0-25.72.11-25.86.4M271 191.28c-2.02.51-5.54 2.71-7.11 4.43-.74.85-1.87 2.6-2.53 3.96-1.06 2.27-1.14 2.67-1.14 6.63 0 4.14.04 4.33 1.29 6.78 2.38 4.65 6.15 7.47 11.17 8.24 1.94.33 3.15.3 4.95-.03 4.83-.92 8.5-3.63 10.59-7.92a15.6 15.6 0 0 0 1.79-8.57c-.37-5.02-3.88-10.11-8.65-12.46-2.16-1.06-2.85-1.2-5.75-1.32a25 25 0 0 0-4.61.26m11.76 9.16c.4.4.73.84.73.99-.04.7-1.21 2.2-5.24 6.85-2.5 2.86-4.58 4.98-4.95 4.98-.36 0-2.01-1.35-3.66-3-2.2-2.24-3-3.26-3-3.96q.02-1.81 1.79-1.83c.66 0 1.47.59 2.78 2.05 1.87 2.05 1.87 2.05 2.94.62 2.56-3.33 6.52-7.43 7.18-7.43.36 0 1.02.33 1.43.73m16.48-.4c-.44.84-.47 4.03-.07 4.69.22.36 6.96.47 30.89.47h31.21c.59 0 .66-.33.55-2.86-.1-2.82-.1-2.82-31.14-2.93-30.41-.07-31.03-.07-31.44.63m90.5 12.05c-9.64 6.82-17.18 10.8-25.65 13.48a102 102 0 0 1-16.85 3.63c-6.56.73-8.24 1.17-8.94 2.16-.3.44-.62 2.05-.7 3.56-.5 7.1-1.02 27.91-.84 33.48a88 88 0 0 0 4.98 26.6c1.25 3.41 1.1 3.12 3.45 8.1.88 1.98 1.76 3.6 1.94 3.6.15 0 1.03-.2 1.94-.41.92-.22 2.75-.52 4.14-.63 2.46-.25 2.46-.25 1.1-2.27-2.38-3.51-5.86-12.23-7.44-18.68-.18-.7-.66-3.45-1.1-6.05-.7-4.4-.73-6.08-.66-22.71.11-17.96.11-17.96 4.51-18.62 8.98-1.31 17.73-3.51 24.18-6a129 129 0 0 0 13.38-6.38c1.1-.66 3.15-1.87 4.5-2.75a17 17 0 0 1 2.82-1.6c.4 0 1.69.65 2.57 1.31.3.22 2.78 1.65 5.53 3.19 11 6.12 23.27 10.22 35.5 11.83 2.53.33 4.84.73 5.13.88.48.22.55 2.6.55 17.99-.04 17.66-.04 17.77-1.02 23.16a89 89 0 0 1-4.18 15.46 103 103 0 0 1-3.15 6.77 82 82 0 0 1-14.44 20.2 89 89 0 0 1-15.13 12.3c-4.25 2.86-10.59 6.34-11.43 6.34-.3 0-2.2-.91-4.21-2.01a40 40 0 0 0-4.03-2.02c-.19 0-.37 1.58-.4 3.56-.04 1.94-.26 3.73-.45 3.95-.22.26-.29.7-.18.95.3.81 7.88 4.36 9.23 4.36 2.02 0 10.63-4.5 17.11-8.94 8.47-5.78 16.78-13.59 22.5-21.1a76 76 0 0 0 8.54-13.81c4.03-7.88 6.15-14.03 8.24-23.74 1.03-4.77 1.03-4.77 1.17-27.52.11-21.54.07-22.75-.55-23.3-.47-.44-1.94-.73-5.24-1.03a83 83 0 0 1-13.55-2.05 90 90 0 0 1-21.07-7.44 91 91 0 0 1-14.18-8.68c-1.32-1.06-2.42-1.61-3.11-1.61-.66 0-2.24.88-4.51 2.5m-90.24-.77c-.37.62-.7 3.81-.48 4.7s.22.9 25.98.83c25.72-.1 25.72-.1 25.72-2.85s0-2.75-25.54-2.86c-14.03-.04-25.6.03-25.68.18m94.49 16.56c-.37.55-10.19 5.83-14.4 7.7-2.16.98-5.93 2.45-8.35 3.3-5.2 1.75-12.9 3.58-16.6 3.91-1.5.15-2.82.48-3.04.74-.3.36-.37 4.72-.22 15.42.22 16.7.4 18.94 2.64 27.04.88 3.22 3 8.8 4.43 11.65.7 1.4 2.16 4.03 3.26 5.9 1.5 2.6 2.24 3.48 2.97 3.66 1.9.52 6.89 3.2 9.16 4.99a45 45 0 0 1 4.03 3.77c2.3 2.53 4.98 6.67 5.75 8.9.37 1 .8 2.06.95 2.35.19.3 1.03.99 1.9 1.54 3.27 2.01 7.6 4.32 8.07 4.32.77 0 8.1-4.54 11.32-7.03 6.16-4.73 8.61-6.9 12.6-11.29a86 86 0 0 0 8.17-10.66 83 83 0 0 0 6.16-12.42c1.9-4.98 3.11-9.9 3.88-15.87.63-4.8.7-7.4.63-19.12-.11-13.52-.11-13.52-3.23-13.96-4.47-.59-10.7-2.12-17.03-4.25a116 116 0 0 1-19.57-9.05 56 56 0 0 0-3.19-1.87c-.07 0-.18.15-.29.33m24.33 29.68c1.5 1.06 2.56 2.93 2.56 4.5 0 .81-.18 1.8-.44 2.24-.36.73-9.12 10.63-14.95 16.93a485 485 0 0 0-12.6 14.18 13 13 0 0 1-2.93 2.63c-1.54.74-3.6.74-4.95.04-.58-.3-4.25-4.25-8.13-8.83-3.92-4.54-7.3-8.65-7.55-9.09-.62-1.06-.58-3.33.04-4.54.3-.55.95-1.4 1.5-1.9.84-.81 1.32-.92 3.56-.92 2.6 0 2.6 0 5.45 3.11 1.62 1.73 3.85 4.3 5.02 5.76 1.32 1.68 2.35 2.63 2.82 2.63.48.04 1.25-.58 2.1-1.72 1.46-1.94 6.26-7.43 11.8-13.44 2.04-2.24 4.86-5.35 6.26-6.93 3.99-4.58 4.1-4.65 5.56-5.2a5.5 5.5 0 0 1 4.88.55m-147.1-28.07a16.6 16.6 0 0 0-7.11 4.47c-1.94 2.13-3.7 5.32-3.7 6.7 0 .63.4.89 2.12 1.36 1.14.3 2.46.74 2.93.92.48.22 1.5.26 2.31.15 1.28-.22 1.61-.11 2.64.84 1.17 1.14 2.49 1.94 3.11 1.94.19 0 1.03-.88 1.84-1.94.8-1.03 2.38-2.86 3.48-4.03 1.72-1.83 2.16-2.13 2.85-1.9.96.29 1.76 1.2 1.8 1.9 0 .48-2.71 3.8-4.91 6.08-.73.73-1.25 1.54-1.14 1.72.15.22.92.74 1.76 1.18.84.4 2.71 1.53 4.14 2.52 1.43.96 2.9 1.8 3.26 1.87 1.4.22 3.48-5.2 3.48-9.08 0-4.07-2.38-8.98-5.57-11.62a22 22 0 0 0-3.77-2.27c-1.61-.77-2.9-1.03-5.13-1.14-1.83-.1-3.48.04-4.4.33m28.1 8.4c-.59.58-.55 3.99.03 4.8.4.58 1.65.62 14.91.54 14.48-.1 14.48-.1 14.48-2.85s0-2.75-14.48-2.86c-10.99-.08-14.61.03-14.94.36m-66.98 8.5c-6.41.8-8.72 1.31-15.35 3.62-7.8 2.68-16.05 7.07-21.62 11.54-8.5 6.85-15.93 15.9-20.48 24.84a69 69 0 0 0-4.83 11.47 74 74 0 0 0-3.04 29.57 76 76 0 0 0 8.02 26.78c2.64 4.95 6.89 11.32 9.27 13.89a18 18 0 0 1 2.09 2.49c0 .14-2.16 2.45-4.84 5.16-4.5 4.58-4.95 4.95-6.52 5.17-3.55.51-3.04.11-18.87 14.58-5.02 4.62-10.11 9.27-11.28 10.33-2.79 2.53-3.92 4.95-3.92 8.32 0 1.76.22 2.9.73 3.92a10.7 10.7 0 0 0 4.94 4.98c1.4.66 2.5.88 4.51.88 2.16 0 3.08-.18 4.65-.99 1.21-.58 2.94-1.9 4.3-3.37 5.74-6.04 13.3-14.1 16.44-17.58l4.84-5.32a15 15 0 0 0 1.98-2.6c.33-.58.66-2.2.77-3.59.14-1.98.33-2.6.95-3.04.4-.3 2.7-2.45 5.1-4.8 3.14-3.11 4.42-4.21 4.8-3.96 1.97 1.5 9.7 6.45 11.9 7.59a90 90 0 0 0 12.67 5.17c1.62.54 5.1 1.39 7.7 1.9 3.63.73 6.34 1.03 11.36 1.17 7 .22 11.02-.1 17.29-1.35 6.08-1.21 13.85-3.96 20-7 2.1-1.06 2.83-1.61 2.83-2.16 0-1.03 1.39-4.95 2.6-7.33.55-1.1 3.48-4.98 6.56-8.61 3.04-3.63 6.44-7.77 7.62-9.16 1.13-1.43 4.87-5.94 8.31-10.04 3.41-4.1 6.56-7.99 7-8.6 1.1-1.7 3-10.96 3.52-17.05.33-3.95.33-6.4 0-10.03a78 78 0 0 0-5.68-23.16 86 86 0 0 0-6.78-12.09 76.6 76.6 0 0 0-25.57-23.12 81 81 0 0 0-23.23-8.02c-4.76-.8-15.6-1-20.74-.4m18.14 10.33c6.96.99 12.45 2.78 19.67 6.3 15.46 7.62 27.44 21.8 32.68 38.76 4.07 13.15 3.48 28.58-1.6 41.66a66 66 0 0 1-11.3 19.23 66 66 0 0 1-12.67 11.1c-3.4 2.2-11.32 5.94-15.39 7.3a63 63 0 0 1-18.13 3.18c-5.2.15-6.56.08-11.91-.8a66 66 0 0 1-20.81-6.82 84 84 0 0 1-8.8-5.42 71 71 0 0 1-13.51-13.6 71 71 0 0 1-6.7-11.75c-2.32-5.24-3.3-8.58-4.85-16.64-.55-2.9-.55-15.53 0-18.13.26-1.1.63-2.86.81-3.85a82 82 0 0 1 4.91-14.29 62 62 0 0 1 13.08-18.35 67 67 0 0 1 11.25-8.76c3.37-2.05 10.04-5.31 10.99-5.31a7 7 0 0 0 1.9-.74c1.73-.88 9.38-2.78 13.01-3.26 4.29-.51 13.15-.44 17.37.19m25.31 24a6.8 6.8 0 0 0-3.18 3.07 10 10 0 0 0-.63 3.52c-.03 2.45-.03 2.45-5.67 8.57-5.2 5.6-5.72 6.08-6.6 5.83a18 18 0 0 0-3-.3c-1.58 0-2.28.19-3.08.81-.55.44-1.28.8-1.58.8-.33 0-2.12-.62-4-1.35-3.07-1.24-3.43-1.46-3.73-2.56a7.7 7.7 0 0 0-3.51-4.29 7 7 0 0 0-5.43-.07c-2.2.91-3.92 3.73-3.92 6.44 0 .7-2.01 2.86-9.01 9.68-8.98 8.75-8.98 8.75-9.78 8.02-1.36-1.24-2.31-1.57-4.47-1.57-1.58 0-2.38.22-3.23.8-.66.48-1.46 1.17-1.8 1.58-.9 1.1-1.5 3.59-1.24 5.2.26 1.4.22 1.47-2.86 4.43-2.7 2.64-3.3 3-4.43 3a7 7 0 0 0-2.5.52c-3.65 1.5-3.36 7.18.41 8.28 2.82.84 5.94-1.35 5.94-4.21 0-1 .47-1.65 3-4.14 3.04-2.97 3.04-2.97 5.8-2.75 2.12.15 3.03.07 3.84-.37a6.5 6.5 0 0 0 3.19-3.62c.33-.92 3.15-3.92 9.89-10.52 5.16-5.06 9.52-9.2 9.7-9.2.15 0 1.03.26 1.91.6 2.2.72 4.5.36 6.08-1 .66-.58 1.43-1.06 1.73-1.06.29 0 1.9.55 3.62 1.24 3.08 1.25 3.08 1.25 3.34 2.79a6.7 6.7 0 0 0 7.14 5.38 6.9 6.9 0 0 0 4.87-3.4c.3-.59.55-2.02.55-3.19.04-2.13.04-2.13 3.2-5.31 1.71-1.76 4.43-4.58 6.04-6.27 2.9-3.08 2.9-3.08 5.5-3.11 2.15-.04 2.78-.19 4.02-1.06a7 7 0 0 0 1.98-1.98c.3-.55.51-2.02.51-3.45 0-1.94-.18-2.7-.76-3.51a11 11 0 0 0-1.98-1.87 4.8 4.8 0 0 0-3.08-.77c-1.03 0-2.27.18-2.79.36m-4.2 27.5c-.3 1.26-.05 61.49.25 61.49.55 0 4.83-2.71 7.55-4.76a66 66 0 0 0 4.76-4c1.9-1.87 1.9-1.87 1.83-27.59-.11-25.75-.11-25.75-7.14-25.86-7.08-.08-7.08-.08-7.26.73M250 323.15c-.07.11-.15 12.24-.18 26.93-.08 26.71-.08 26.71 1.5 26.45a78 78 0 0 0 9.82-2.38c3.11-.95 3.11-.95 3.11-25.97 0-25.07 0-25.07-7.07-25.14-3.88-.07-7.1 0-7.18.11m-14.95 4.7c-6.52.1-6.52.1-6.6 23.66-.07 12.93-.07 23.7 0 23.92.04.19 1.29.55 2.76.81 4.14.66 10.47 1.25 11.06 1.03.48-.19.55-3.56.55-24.73 0-22.02-.07-24.52-.59-24.74-.33-.1-.58-.18-.62-.14s-3 .14-6.56.18m-27.92 12.48c-.07.15-.25 5.9-.36 12.75-.15 9.6-.11 12.6.25 13.05 1.32 1.61 12.94 7.55 13.96 7.14.3-.1.37-5.27.3-16.7-.08-16.53-.08-16.53-7.04-16.53-3.8 0-7 .15-7.1.3m92.11-90.2c-.44 1.1-.47 3.81-.07 4.47.26.33 3.48.44 14.95.37 14.62-.11 14.62-.11 14.73-2.1.07-1.09.03-2.37-.11-2.85-.19-.84-.19-.84-14.66-.84s-14.47 0-14.84.95m51.85 62.1c-5.94.88-10.15 2.97-14.33 7.11-2.78 2.79-17.66 20.19-19.6 22.9-1.4 1.98-5.35 6.89-8.02 9.9-1.32 1.5-4.07 4.72-6.12 7.14l-9.42 11.17c-3.55 4.18-6.15 7.62-6.81 8.98-1.76 3.59-2.35 6.45-2.35 11.36 0 3.84.15 4.76 1.03 7.32 3.15 9.09 9.63 15.1 18.24 16.82 3.56.73 6.63.73 10.37.04 4.84-.96 10.33-3.92 12.97-7.04 2.79-3.33 8.03-9.49 11.98-14.07 2.2-2.52 5.64-6.56 7.66-8.97a265 265 0 0 1 5.35-6.2c.91-.98 3.4-3.88 5.53-6.4s7.18-8.36 11.25-13.01c7.4-8.36 9.09-10.78 9.93-14.07.18-.85.55-2.2.77-3.08.25-.84.44-3.19.44-5.2a18 18 0 0 0-1-6.74c-1.38-4.36-2.96-7.15-5.7-10.08a25 25 0 0 0-14.19-7.77c-3.55-.55-4.72-.58-7.98-.1m9.16 6.41c3.18.77 6.37 2.72 8.86 5.43 3.89 4.1 5.53 8.9 5.13 14.69a16 16 0 0 1-1.35 5.79c-.92 2.23-2.02 3.77-6.34 8.8-12.13 14.1-17.95 20.77-18.17 20.77-.11 0-2.6-2.17-5.54-4.8a306 306 0 0 0-8.79-7.74c-3.11-2.63-9.78-8.5-13.74-12.09-1.47-1.35-1.47-1.35.04-2.93.8-.88 2.2-2.49 3.07-3.59 3.92-4.87 13.93-16.52 16.13-18.68a20.6 20.6 0 0 1 11.9-6.2c2.6-.4 5.76-.18 8.8.55m-37.89 39.61c8.65 7.62 16.01 14.03 19.24 16.78 2.85 2.42 3.59 3.48 2.7 4.03-.21.15-5.23 5.9-11.17 12.82s-11.32 13.01-11.98 13.52c-.66.48-2.53 1.54-4.14 2.31-2.75 1.32-3.18 1.4-7 1.5-3.07.11-4.61 0-6.22-.47a19 19 0 0 1-8.17-4.91 18.9 18.9 0 0 1-5.54-13.48 19 19 0 0 1 1.62-8.17c.44-.92 3.37-4.7 6.48-8.4 3.08-3.66 6.7-7.95 7.95-9.48 1.28-1.58 4-4.77 6.01-7.11 2.93-3.45 3.81-4.25 4.29-4 .33.19 3 2.46 5.93 5.06m71.04-5.9-3.62.55c-4.07.59-9.38 2.79-13.41 5.5a40 40 0 0 0-7.66 7.25c-3 4.1-5.39 9.2-6.27 13.48-1.2 6.01-1.02 11.55.63 17.15.8 2.82 3.11 7.62 4.61 9.67a37 37 0 0 0 7.37 7.7 34.7 34.7 0 0 0 17.88 7.07c2.93.3 4.61.3 7.18-.07a36 36 0 0 0 11.87-3.74c3.55-1.83 4.73-2.71 8.13-5.94a33 33 0 0 0 9.05-14.5c1-2.97 1.03-3.45 1.03-10.08.04-6.89.04-7-1.14-10.26-1.83-5.24-4.65-9.9-7.95-13.23a37 37 0 0 0-14.43-8.94c-4.25-1.39-10.04-2.05-13.27-1.6m6.86 6.05c3.15.44 8.28 2.27 10.55 3.73 3.62 2.39 5.02 3.49 6.04 4.73 1.1 1.36 1.1 1.36.3 1.87-.48.3-5.94 3.11-12.2 6.3-6.23 3.19-12.83 6.56-14.66 7.51-1.8.95-6.41 3.34-10.26 5.31-3.81 1.98-7.84 4.07-8.9 4.66a11 11 0 0 1-2.42 1.02c-.33 0-.62-1.02-.95-3.33-.4-2.71-.4-4.1-.04-7.15.44-3.8.92-5.6 2.24-8.46.4-.88.73-1.65.73-1.72 0-.4 2.3-3.55 3.84-5.28a29 29 0 0 1 9.16-6.63c3.38-1.61 5.13-2.16 8.4-2.56 3.3-.44 4.98-.44 8.17 0m21.83 15.97c2.2 4.36 3.04 9.75 2.46 15.2a27.5 27.5 0 0 1-8.25 16.97c-3.26 3.26-6.63 5.31-11.36 6.96-2.27.77-3.84 1.03-7.21 1.17-8.69.4-15.5-2.05-21.36-7.76-2.82-2.71-6.05-7.04-6.05-8.06 0-.26 2.35-1.65 5.24-3.12a5563 5563 0 0 0 36.35-18.68c4.03-2.06 7.47-3.89 7.69-4.07q1.21-1.15 2.5 1.4" clip-rule="evenodd"/></svg>