<svg xmlns="http://www.w3.org/2000/svg" width="490" height="512" fill="currentColor"><path fill-rule="evenodd" d="M198.448 16.836c-40.46 8.645-81.622 30.867-111.787 60.102-22.45 21.976-36.949 41.855-49.341 68.053-10.997 22.916-11.7 24.557-16.14 42.092-7.952 31.342-8.654 37.652-8.654 70.16 0 23.627 1.167 37.651 3.739 47.244 2.106 7.478 4.677 17.773 6.082 22.916 3.036 11.927 4.213 14.963 14.973 37.414 19.642 40.925 53.554 79.041 88.862 100.561 36.247 21.986 66.649 31.105 108.513 33.211 17.08.702 36.02.237 45.603-1.167 50.28-7.952 101.027-35.08 134.474-71.564 10.523-11.463 12.393-13.797 28.533-38.59 9.82-14.5 18.237-31.807 18.237-36.722 0-1.86 1.168-5.599 2.81-8.644 5.607-10.988 6.546-13.332 7.95-22.679.93-5.152 2.335-9.365 3.512-9.365 1.167 0 2.097-23.617 2.097-52.615 0-30.174-.93-52.615-2.107-52.615-1.167 0-2.8-4.45-3.739-10.058-.939-5.38-3.738-15.201-6.31-21.52-4.678-12.393-27.365-57.758-29.7-59.628-.701-.702-4.45-5.152-8.188-10.058-15.201-20.818-42.567-44.673-67.826-59.637-19.869-11.927-47.234-22.45-70.15-27.365-22.222-4.44-69.457-4.44-91.443.474m75.066 20.572c11.462 2.106 26.189 5.38 32.508 7.496 18.01 5.598 45.138 20.107 61.269 32.034 17.307 13.095 40.46 37.651 51.685 55.187 11.462 17.772 22.45 42.794 27.138 60.803 2.334 8.426 4.905 18.95 6.31 23.627 2.808 10.988 2.808 71.09 0 80.209-1.405 3.985-4.213 14.498-6.32 23.627-4.678 19.167-16.13 45.356-27.356 61.733C397 414.86 364.254 442.7 329.877 458.13c-31.104 14.271-43.269 16.605-84.659 16.368-42.32 0-56.126-2.562-83.956-16.368-32.271-16.13-54.494-33.438-74.838-59.162-6.784-8.426-15.2-20.819-18.702-27.138-3.748-6.547-7.496-12.857-8.426-14.024-3.976-5.143-16.833-45.603-19.879-63.148-5.608-30.63-3.739-81.148 3.748-98.218.93-2.571 3.739-10.532 5.845-17.544s4.906-13.797 5.845-15.201a8.54 8.54 0 0 0 2.107-5.371c0-1.642 6.784-13.332 14.963-25.724 34.615-52.387 83.957-85.133 143.356-94.954 25.032-4.213 34.15-4.213 58.233-.237M206.4 101.495c-52.625 11.927-95.884 52.15-112.49 105.002-3.984 12.62-4.914 21.748-4.914 47.235-.228 24.092.94 34.615 3.985 44.436 7.012 21.046 20.344 47.244 30.165 58.47 21.748 25.259 50.745 43.031 81.612 50.28 25.724 6.073 65.017 3.511 78.576-5.152 4.45-2.562 4.916-3.976 2.581-6.775-1.404-1.87-3.748-3.274-5.152-3.274s-4.906-2.106-7.714-4.915c-4.915-4.44-5.608-4.678-12.165-1.167-12.857 6.547-14.499 5.38-14.499-10.295 0-7.477-1.869-18.94-3.975-25.022-2.097-6.073-3.739-17.307-3.511-24.785.237-15.438 3.046-14.498-32.262-10.997-12.165 1.177-22.925 1.404-23.855.474-2.808-2.808-9.128-37.888-8.426-45.602.703-7.497.703-7.497 28.77-7.497 28.058 0 28.058 0 27.129 12.867-2.107 25.26-1.87 26.9 3.975 27.603 4.204.702 5.143-.237 5.143-5.845.237-3.511 2.107-12.402 4.678-19.414 3.976-11.927 7.952-16.13 20.581-22.45a5.79 5.79 0 0 0 2.809-4.678c0-2.335-3.037-3.274-10.533-3.274-10.523 0-10.523 0-10.523-26.663 0-26.426 0-26.426 19.414-28.059 36.02-3.036 33.21-3.51 33.913 5.608.228 4.441 1.632 14.271 3.036 21.52 2.344 11.454 3.511 13.57 7.715 13.57 2.58 0 6.547-.95 8.426-2.344 2.799-1.642 2.799-3.985.465-13.332-1.405-6.082-2.809-16.368-3.274-22.678-.702-11.7-.702-11.7 13.332-15.912 7.714-2.335 15.903-4.204 18.237-4.204 5.143 0 16.131 22.45 21.986 44.9 4.213 16.369 12.164 28.761 17.772 26.892 4.44-1.404 1.87-27.593-4.678-45.83-3.274-9.594-9.584-23.39-14.262-30.412-4.45-7.25-16.377-21.046-26.188-30.867-13.57-13.569-22.46-20.116-35.792-26.426-32.262-15.201-65.007-18.94-100.087-10.988m58.925 26.426c6.547 6.775 13.341 15.903 15.675 20.572 2.107 4.45 4.678 8.89 5.845 9.593 1.167.94 2.107 4.915 2.344 9.356.465 7.249 0 7.951-8.89 9.583-5.144.94-14.262 1.642-20.117 1.642-10.286.228-10.988-.237-12.392-7.022-.702-3.976-1.405-18.237-1.405-31.569 0-20.344.475-24.32 3.748-24.32 1.87 0 8.882 5.38 15.201 12.165m-32.964 13.322c0 12.63-.702 26.426-1.404 30.649-1.641 7.477-1.641 7.477-18.949 6.073-23.38-2.107-24.557-2.809-22.678-11.463 3.274-15.428 29.7-48.411 38.809-48.411 3.748 0 4.222 2.58 4.222 23.152m-37.423-14.964c0 1.87-.93 3.511-2.107 3.511-1.167 0-3.738 2.809-5.607 6.31-1.642 3.748-5.38 10.533-8.19 15.439s-5.142 10.285-5.142 12.155c0 4.213-8.891 4.678-21.748.948-7.25-1.878-8.891-3.283-8.19-7.496.703-5.37 18.01-19.641 34.616-28.523 12.392-6.547 16.368-7.259 16.368-2.344m111.322 4.916c16.13 9.82 28.997 21.51 28.997 26.663 0 2.097-4.44 5.143-11.462 7.714-6.31 2.097-12.392 3.976-13.797 3.976-1.167 0-3.036-2.571-3.738-5.854-.94-3.274-2.572-5.845-3.748-5.845-1.395 0-2.335-1.87-2.335-4.204 0-2.571-3.036-9.128-7.021-14.736-12.392-18.475-8.417-20.818 13.094-7.714m-156.222 47.7c14.499 5.152 14.499 5.152 13.094 17.08-.93 6.774-2.562 14.498-3.51 17.534-1.168 3.037-2.098 11.69-2.098 19.414 0 13.797 0 13.797-26.9 13.797-26.891 0-26.891 0-25.715-10.058 1.86-13.094 8.18-34.14 10.751-35.773 1.167-.711 2.107-2.818 2.107-4.687s2.334-8.18 4.905-14.024c3.748-7.724 6.082-10.296 8.891-9.356 2.107.702 10.286 3.51 18.475 6.073m58.925 13.331c24.101 2.107 23.627 1.642 23.152 30.174-.227 24.32-.227 24.32-29.225 24.32s-28.998 0-28.998-13.569c0-11.453 2.81-26.189 8.417-42.32.702-1.878 2.809-2.58 6.32-1.641 2.799.94 11.927 2.106 20.343 3.036m-51.21 83.729c.939 7.714 2.808 20.809 4.213 28.997 1.641 8.18 2.571 15.201 2.106 15.439-1.404 1.394-32.973 10.523-36.02 10.523-3.273 0-10.522-14.044-17.772-33.913a106.3 106.3 0 0 1-4.203-24.092c0-12.392 0-12.392 25.25-11.69 25.021.702 25.021.702 26.426 14.736m74.135 84.184c.474 23.152 0 31.578-2.106 31.578-3.976 0-26.427-23.152-30.63-31.578a267 267 0 0 0-7.487-14.024c-2.106-3.986-3.738-8.891-3.738-10.998 0-4.203 5.845-5.608 29.225-6.073 14.043-.474 14.043-.474 14.736 31.095m-56.828-13.569c2.344 6.092 7.25 15.913 10.997 21.52 6.775 10.76 8.18 16.606 4.204 16.606s-21.748-10.058-34.378-19.168c-12.392-9.128-18.01-16.377-16.368-21.292.475-1.395 5.38-3.976 11.225-5.37 18.238-4.916 19.642-4.451 24.32 7.713m154.818-77.162c.237 34.605.237 34.605 35.545 35.308s35.317.702 35.317-7.952c0-4.678-2.809-14.499-6.32-21.51-10.987-22.451-29.462-36.02-53.317-39.057-11.69-1.641-11.69-1.641-11.225 33.211m-36.721-24.092c-11.69 6.31-32.736 23.855-32.736 27.593 0 1.177-1.87 5.153-4.213 8.426-7.942 11.69-10.988 38.117-6.31 54.485 3.036 11.225 11.462 25.496 19.176 33.21 4.213 4.441 13.332 10.988 20.117 14.736 10.75 6.073 14.498 6.775 32.034 6.775 17.544-.227 21.283-.93 31.104-6.775 6.072-3.51 14.736-10.058 19.176-14.498 10.058-9.584 22.223-34.15 22.223-44.673 0-7.715 0-7.715-36.247-7.715s-36.247 0-36.247-38.59c0-38.582 0-38.582-8.663-38.582-4.906.228-13.57 2.8-19.405 5.608" clip-rule="evenodd"/></svg>