<svg xmlns="http://www.w3.org/2000/svg" fill="currentColor" viewBox="-0.013 -99.829 512.017 512.017">
    <path fill-rule="evenodd" d="M76.73.96c-1.11.5-2.62 1.56-3.33 2.37-1.31 1.46-4.94 7.96-16.34 29.2-3.27 6.1-8.11 15.17-10.84 20.16-2.67 5-7.66 14.27-11.09 20.67-3.38 6.35-8.52 15.88-11.34 21.18a6069 6069 0 0 0-18.91 35.55C2.6 134.37.54 139 .24 140.42a9.6 9.6 0 0 0 1.92 8.27c.7.86 3.98 3.03 7.26 4.84 3.27 1.82 6.1 3.28 6.2 3.28.15 0 2.27 1.1 4.74 2.52 12.15 6.65 26.92 14.27 29.54 15.18 3.23 1.1 5.4.95 8.47-.61 1.01-.5 2.88-2.07 4.09-3.53 2.27-2.62 2.27-2.62 7.51 2.12 11.85 10.74 20.17 19 20.77 20.67.16.5-.65 2.72-1.86 5.14-3.18 6.3-3.98 11.35-2.77 17.75.9 4.9 3.22 9.18 7.05 12.91 4.04 4.03 8.37 6.25 14.22 7.36 6.66 1.21 6.6 1.21 7.06 3.43 1.92 9.13 3.73 13.16 7.87 17.34a27 27 0 0 0 12.15 6.86c1.56.4 5.04.76 7.86.76 3.48 0 5.3.2 5.65.65.3.3 1.11 2.17 1.87 4.14.7 1.91 2.01 4.59 2.82 5.9 2.17 3.32 6.9 7.61 10.24 9.17 4.84 2.32 8.47 2.98 15.12 2.78 6.05-.2 6.05-.2 7.26 2.82 1.77 4.34 5.3 9.08 8.73 11.6a30 30 0 0 0 7.1 3.63c3.58 1.2 5 1.4 9.48 1.4 4.54 0 5.85-.2 9.33-1.45 3.88-1.41 4.24-1.67 10.09-7.67 6.05-6.2 6.05-6.2 8.57-4.84 1.4.76 5.24 3.33 8.57 5.65 18.5 13 20.37 13.87 29.24 13.87 3.99 0 5.8-.3 8.57-1.21a37 37 0 0 0 6.71-3.23c4.94-3.08 8.52-7.92 11.6-15.58.7-1.72 1.66-1.77 6.05-.4 4.33 1.36 10.94 1.36 15.27 0 3.48-1.06 8.43-3.79 10.74-5.95 2.58-2.42 6.26-8.17 7.37-11.45.6-1.76 1.3-3.43 1.66-3.68s3.33-.6 6.66-.76c7-.25 10.28-1.2 15.22-4.48 6.15-3.99 10.14-9.94 11.8-17.65.6-2.77 1.36-4.94 1.82-5.35.45-.3 1.4-.6 2.11-.6 2.88-.05 8.58-1.61 12.05-3.33 4.4-2.17 9.13-6.55 11.85-11.04a32.4 32.4 0 0 0 3.99-13.92c.05-1.76-.2-5.04-.6-7.26-.56-3.43-.56-4.28.04-5.4.4-.7 8.07-7.6 17.04-15.32a1103 1103 0 0 1 18.76-15.98c2.47-1.92 2.47-1.92 3.88-.26 2.27 2.73 2.98 3.33 5.25 4.5a9 9 0 0 0 4.84 1.1c2.06 0 3.58-.45 6.8-2.07 4.7-2.32 37.16-19.66 40.5-21.58 4.28-2.52 6.2-6.15 5.49-10.59-.36-2.36-3.58-9.07-13.87-28.43-2.57-4.84-5.65-10.64-6.8-12.86-1.17-2.22-3.69-7-5.65-10.59-1.92-3.63-6.25-11.64-9.58-17.9-3.38-6.25-11.15-20.77-17.3-32.27-17.8-33.17-18.6-34.64-20.42-36.2C436.07.71 433.4-.2 431.08.25c-2.16.4-4.89 1.77-20.32 9.99-6.25 3.27-13.26 7.05-15.63 8.26-9.53 5.05-11.44 6.2-13.2 8.07-1.02 1.06-2.23 2.77-2.68 3.78-1.06 2.57-.96 6.91.25 10.04.5 1.46.86 2.82.7 3.07-.5.8-12.04 6.36-15.57 7.46-2.62.81-4.8 1.06-8.57 1.06-4.14 0-5.95-.25-10.09-1.46-2.77-.8-10.69-3.58-17.64-6.1-11.35-4.18-23.5-8.57-41.45-14.97-8.42-2.98-13.66-3.89-20.57-3.58-6.56.3-11.24 1.46-16.14 4.03-1.96 1.06-7.6 4.89-12.6 8.62-6.2 4.64-9.63 6.86-10.84 7.06-.96.15-3.03.3-4.54.3-4.79 0-15.28 1.41-34.03 4.6-9.99 1.65-20.47 3.17-23.3 3.32-6 .35-11.34-.4-16.54-2.22-4.68-1.66-16.38-7.76-16.38-8.52 0-.3.45-1.56 1-2.77 2.12-4.7.71-11-3.17-14.42-1.97-1.72-2.52-2.07-19.51-11.15C87.87 2.77 82.27 0 80.46 0c-.96 0-2.62.45-3.73.96M90.85 19.2c18.65 9.98 30 16.19 30 16.39 0 .35-12.61 24.55-14.12 27.17-.5.81-3.33 6.05-6.3 11.6-5.9 10.94-11.35 21.13-22.19 41.1a6977 6977 0 0 0-21.23 39.52 83 83 0 0 1-3.68 6.5c-.25.26-3.98-1.46-8.92-4.08-25.21-13.36-30.46-16.18-30.46-16.54 0-.4 2.93-6.1 7.06-13.81 2.17-4.03 8.68-16.29 14.52-27.23 10.19-19.2 28.09-52.54 34.6-64.54 1.76-3.17 4.93-9.12 7.15-13.26 2.17-4.08 4.19-7.4 4.49-7.4.25 0 4.39 2.06 9.08 4.58m344.12 2.72c2.11 3.89 5.6 10.34 7.76 14.37a3893 3893 0 0 1 23.75 44.37c4.94 9.28 10.49 19.77 12.4 23.25 1.92 3.53 3.48 6.5 3.48 6.6 0 .15 1.66 3.28 3.68 7.01s5.65 10.54 8.07 15.13c4.33 8.37 4.33 8.37-5.1 13.4-19.3 10.4-29.9 15.94-30.1 15.69-.25-.25-5.54-10.03-17.14-31.66-12.05-22.54-17.95-33.59-29.34-54.71-18.7-34.74-20.93-39.08-20.67-39.78.25-.6 2.97-2.17 13.96-7.97 8.22-4.34 20.12-10.74 21.93-11.8 1.11-.65 2.37-1.1 2.78-1.06s2.47 3.28 4.54 7.16m-158.58 17.9c2.93.8 14.37 4.9 46.14 16.39 17.64 6.35 21.28 7.51 26.42 8.37 5.5.86 13.56.35 19-1.26 2.38-.7 7.22-2.62 10.7-4.29 3.53-1.66 6.8-3.12 7.36-3.33 1-.3 1.36.3 7.86 12.61 1.31 2.47 4.49 8.37 7.06 13.1 2.52 4.7 7.41 13.77 10.84 20.18 3.43 6.35 8.17 15.22 10.59 19.66s5.6 10.34 7.06 13.11 4.54 8.42 6.86 12.6c2.27 4.14 4.23 7.97 4.33 8.43.1.6-2.52 3.17-8.42 8.21-20.12 17.35-31.06 26.48-31.71 26.48-.7 0-4.34-2.63-12.66-9.08-2.22-1.71-8.32-6.4-13.61-10.39-12.15-9.22-17.5-13.26-37.06-28.23-42.76-32.62-60.56-45.89-63.48-47.4a24 24 0 0 0-11.6-2.06c-1.61.2-4.74.9-6.9 1.56-8.17 2.62-16.24 7.56-29.7 18.3-13.31 10.59-18.15 14.07-22.19 16.08-3.38 1.67-4.43 1.92-8.27 2.12-3.78.2-4.68.05-6.5-.85a10 10 0 0 1-3.48-3.18c-1.36-2.02-1.41-2.37-1.36-7.92 0-4.18.35-7.1 1.1-10.33 2.23-9.03 5.6-14.93 12.16-21.48 2.12-2.07 8.62-7.52 14.42-12.05 5.85-4.6 11.85-9.28 13.36-10.49 13.77-10.74 27.99-21.38 30.76-23a31 31 0 0 1 9.33-3.02c2.47-.35 8.32.2 11.6 1.16M131.94 58.5c7.41 3.73 12.2 5.64 17.75 7.16 3.53.96 5.5 1.1 12.25 1.1 8.02.06 9.98-.2 25.96-3.07 8.07-1.41 16.4-2.67 18.06-2.67.9 0 1.56.2 1.36.45-.15.25-3.78 3.38-8.12 6.91-12.9 10.54-17.5 15.63-21.83 24.15a67 67 0 0 0-5.85 17.3c-.86 4.53-.96 14.01-.2 17.19 1.26 5.44 5.44 11.4 9.88 13.97 3.63 2.16 7.81 3.22 12.7 3.22 5.1 0 10.09-1.2 15.18-3.73 5.7-2.82 7.61-4.23 26.62-19.36 6.91-5.45 13.82-10.03 19.11-12.6 3.53-1.67 5.4-2.27 7.82-2.48 1.76-.15 3.78 0 4.49.26.7.3 3.58 2.22 6.3 4.23a6906 6906 0 0 1 52.89 39.99c32.77 24.9 32.62 24.8 49.92 38.11 6.65 5.1 13.16 10.09 14.47 11.05a18 18 0 0 1 5.95 8.26c.9 2.83.4 8.73-.91 11.5a17 17 0 0 1-7.87 7.97c-2.67 1.3-3.83 1.61-6.7 1.61-2.12 0-4.34-.35-5.8-.96-2.27-.86-14.77-10.64-50.32-39.33-8.27-6.65-12.4-9.68-13.61-9.88-1.27-.3-2.27-.05-3.99.76-1.86.96-2.47 1.56-3.02 3.28-.6 1.71-.66 2.42-.1 4.18a8 8 0 0 0 1.86 3.18c.7.6 13.92 11.19 29.3 23.54 22.13 17.7 28.28 22.84 29.09 24.46 1.46 2.77 1.41 7.76-.1 10.64a14.9 14.9 0 0 1-10.54 8.26c-1.97.46-3.28.46-5.4 0a15 15 0 0 1-4.73-1.91c-1.62-1.11-36.3-29.25-49.87-40.44-3.63-3.02-6.05-3.63-8.67-2.32-1.87 1.01-3.58 3.53-3.58 5.4 0 2.97 1.06 4.43 6.45 8.92l17.45 14.22c19 15.53 24.45 20.12 25.06 21.33.35.6.6 2.37.6 3.93 0 3.68-1.92 7.82-4.79 10.29-2.52 2.16-6.7 3.78-9.73 3.78-1.26 0-3.33-.4-4.64-.9-2.52-.97-4.08-2.13-24.76-18.51-17.6-13.92-17.74-14.02-20.26-14.02s-4.44 1.26-5.65 3.73a4.6 4.6 0 0 0-.4 3.63c.2 1.06.8 2.42 1.36 2.98.5.6 6 5.14 12.25 10.08 16.13 12.86 15.38 12.15 16.03 14.42 1.97 6.5-1.3 13.41-7.86 16.54a12 12 0 0 1-6.15 1.41c-2.27 0-4.04-.35-5.65-1.11-2.47-1.06-7.51-4.44-17.5-11.6-7.51-5.44-8.12-5.95-8.12-6.6 0-.3 1.01-2.47 2.27-4.8 4.14-7.6 4.7-14.76 1.82-22.23a33 33 0 0 0-3.48-6.4c-2.47-3.33-7.31-7-11.65-8.77a39 39 0 0 0-7-1.77c-2.12-.3-4.09-.7-4.3-.96-.24-.2-.75-2.11-1.1-4.23-1.26-7.16-4.94-13.21-10.59-17.25a28.6 28.6 0 0 0-14.37-5.09c-2.32-.15-4.29-.55-4.59-.96-.3-.35-.85-2.11-1.2-3.88q-1.53-7.26-7.27-13a26.2 26.2 0 0 0-19.36-8.02c-2.22 0-5.34.35-7 .75-1.67.46-3.44.66-4 .5-.6-.2-1.6-1.66-2.51-3.57-2.98-6.3-9.94-12.1-16.8-14.07-2.31-.7-4.28-.8-8.56-.66-6.05.3-9.43 1.26-13.11 3.84-1.87 1.26-7.11 6.9-10.64 11.4-1.51 1.96-1.51 1.96-16.04-11.55-7.96-7.47-14.47-13.77-14.47-14.02q.01-.59 24.46-45.73c3.53-6.5 9.58-17.75 13.46-24.96 14.62-27.08 15.93-29.5 16.34-29.5.1 0 2.92 1.36 6.25 3.03m.75 121.26a16.3 16.3 0 0 1 6.91 7.16c1.16 2.67 1.31 7.1.25 10.08-.4 1.26-3.88 5.9-8.97 12.05a397 397 0 0 1-10.14 11.9c-2.31 2.32-6.5 3.68-9.83 3.23-2.97-.4-6.1-1.82-8.32-3.73a17 17 0 0 1-3.17-4.69c-1.16-2.67-1.36-3.58-1.16-6.2a17 17 0 0 1 1.1-4.8c1.07-2.06 18.1-22.63 19.82-23.94 2.17-1.67 4.8-2.32 8.22-2.17 1.92.1 4.13.55 5.3 1.1m36.36 16.64c3.27 1 7.1 4.33 8.57 7.51 1.51 3.23 1.61 8.17.25 11.14-.5 1.11-6.96 9.28-14.37 18.16-12.45 14.97-13.61 16.23-16.33 17.5a12 12 0 0 1-5.4 1.4 14.8 14.8 0 0 1-13.06-8.17 11.4 11.4 0 0 1-1.31-5.95c0-2.47.3-3.93 1.16-5.6 1.26-2.51 27.03-33.32 28.9-34.53a16 16 0 0 1 7.3-2.17c.96-.05 2.93.3 4.29.7m32.22 26.67a14.5 14.5 0 0 1 6.85 6.45c.56 1.06 1.11 3.38 1.26 5.1.5 5.34-.2 6.6-13.86 22.89-10.84 13-12.46 14.72-14.77 15.83-6.71 3.13-15.03.05-18.3-6.86-1.72-3.63-1.77-8.22-.1-11.4 1-2.06 22.38-27.98 25.15-30.55 1.77-1.66 4.74-2.62 8.22-2.62 2.17-.05 3.73.3 5.55 1.16m29.3 27.48c1.1.5 2.92 1.76 3.97 2.82a13.4 13.4 0 0 1 4.04 9.84c0 2.62-.25 3.73-1.31 5.6-.76 1.3-5.3 7.05-10.09 12.75-9.48 11.24-10.79 12.35-15.63 12.8-2.87.26-6.9-.9-9.63-2.77-2.52-1.71-4.74-5.14-5.44-8.37-.66-3.12 0-7 1.66-9.28.6-.85 5.04-6.25 9.88-11.94 4.8-5.75 9.38-10.74 10.19-11.15a14.7 14.7 0 0 1 12.35-.3" clip-rule="evenodd"/>
</svg>
