<svg xmlns="http://www.w3.org/2000/svg" fill="currentColor" viewBox="-14.085 -39.61 540.159 540.159">
    <path fill-rule="evenodd" d="M244.82.21c-.95.1-4.94.46-8.82.7a228 228 0 0 0-39.1 6.82 307 307 0 0 0-27.49 9.38c-8.32 3.48-22.5 10.64-29.76 15.08-23.85 14.43-43.88 32.18-61.84 54.83-6.15 7.77-16.24 22.8-21.38 31.93-12.51 22.2-21.95 47.62-26.28 71.07-2.53 13.82-3.28 21.29-3.59 36.37-.15 8.83-.05 17.4.3 22.15.31 4.28.66 7.86.76 7.96s2.32-.8 4.95-2.01a74 74 0 0 1 6.5-2.83c1.72-.55 1.72-.55 1.52-6.86-.15-6.3-.15-6.3 46-6.3 32.33 0 46.3.15 46.5.55.2.3.56 4.8.81 9.94.5 11.25 1.62 23.76 3.03 34.35 1.87 14.48 7.01 39.5 10.64 51.95 1.42 4.85 1.82 6.86 1.37 7.12-.3.2-3.94 1.71-8.07 3.33-7.47 2.97-7.47 2.97-8.33 5.24-.5 1.26-2.07 5-3.58 8.27-1.46 3.33-2.57 6.1-2.47 6.2s6.25-2.11 13.67-4.88c7.41-2.83 13.52-5.05 13.62-4.95s1.16 2.78 2.42 5.95a276 276 0 0 0 11.65 25.98c10.09 19.37 20.18 33.65 33.1 46.76 3.47 3.58 6.04 6.46 5.64 6.46-1.21 0-8.68-1.97-15.49-4.14a235 235 0 0 1-28.3-11.2c-16.44-7.92-34.55-19.72-47.5-31.02-2.03-1.76-3.9-3.03-4.1-2.77-.25.25-2.06 2.92-4.03 5.9-3.08 4.64-3.53 5.55-2.93 6.05.4.35 3.08 2.57 5.96 4.95 26.13 21.68 57.5 37.42 91.45 45.85 17.8 4.44 35.3 6.55 54.12 6.55 11.85 0 19.92-.55 30.92-2.06a235 235 0 0 0 56.24-15.09c7.67-3.17 24.67-11.7 31.53-15.89a253 253 0 0 0 40.6-30.87c8.53-8.02 18.67-19.42 26.79-30.16a269 269 0 0 0 11.65-17.15 226 226 0 0 0 18.82-39.6c2.06-5.54 6.7-21.74 8.32-29.05 1.76-7.77 3.63-20.83 4.34-30.06.75-9.94.3-36.72-.76-45.05-1.67-13.06-5.15-30.67-5.95-30.41-.3.1-2.83 3.17-5.65 6.86-5.15 6.65-5.15 6.65-4.29 11.85 1.46 8.83 2.47 17.5 2.82 24.16.3 6.46.3 6.46-46.35 6.46s-46.66 0-47.01-8.22c-.66-14.88-2.37-33.55-4.09-44.75-2.12-13.26-6.5-33.94-9.58-44.89-.7-2.57-1.21-4.94-1.06-5.3.1-.35 1.26-.85 2.52-1.2 2.47-.61 14.12-4.1 14.28-4.3a97 97 0 0 0-2.58-6.35c-1.51-3.43-2.97-6.35-3.28-6.45s-2.32.4-4.43 1.1c-2.17.66-5.6 1.72-7.57 2.27-4.14 1.11-3.93 1.22-5.2-2.72-1-3.28-5.75-14.68-9.23-22.24a217 217 0 0 0-22.6-37.63c-5.44-7.12-13.76-16.24-18.8-20.58-2.38-2.07-4.14-3.84-3.84-3.94.7-.25 13.52 3.23 20.33 5.5a225 225 0 0 1 42.57 19.57c4.24 2.52 8.02 4.74 8.37 4.9.5.15 1.21-.96 2.32-3.69a72 72 0 0 1 2.88-6.05 12 12 0 0 0 1.2-2.52c0-.2-2.41-1.87-5.39-3.63-3.03-1.82-6.3-3.79-7.31-4.44-3.64-2.27-19.93-10.14-26.28-12.71a263 263 0 0 0-14.78-5.35c-18.67-6.2-34.9-9.28-56.7-10.85-6.76-.45-20.58-.55-24.72-.2m4.04 68.9c0 53.02 0 53.02-9.43 52.72a372 372 0 0 1-48.58-5.2c-8.72-1.61-22.85-4.74-23.35-5.2-.4-.4 1.2-5.34 3.83-11.75 8.07-19.37 18.87-38.08 29.56-51.3 4.84-5.9 12.16-13.36 17.2-17.5 5.1-4.14 11.75-8.42 16.8-10.8 4.39-2.06 10.29-3.93 12.6-3.98 1.37-.05 1.37-.05 1.37 53.02m22.2-51.3c17.25 5.86 36.92 23.92 51.34 47.07 7.01 11.25 10.14 17.25 15.84 30.11 2.37 5.3 6.5 16 6.3 16.24-.1.05-4.23 1.06-9.22 2.17a385 385 0 0 1-64.37 8.43c-8.47.3-8.47.3-8.47-52.82s0-53.11 2.47-52.76c1.36.15 4.09.86 6.1 1.57M208.9 20c-.05.25-1.77 1.91-3.73 3.68C192.92 34.6 181.17 50 170.83 68.5c-5.95 10.64-13.67 28-16.7 37.58-.4 1.31-.65 1.51-2.07 1.36-.9-.05-7.1-1.97-13.82-4.19-16.74-5.6-41.71-15.73-41.71-16.94 0-.76 14.12-14.83 19.67-19.63 7.01-6 11.15-9.28 18.16-14.17 8.67-6.1 17.8-11.4 28.5-16.54 13.31-6.46 23.7-10.45 37.07-14.08 3.73-1.06 7.06-1.97 7.32-2.07.95-.35 1.86-.25 1.66.16M90.42 99.73c3.38 1.77 14.88 6.66 23.56 10.14 6.96 2.78 22.8 8.27 29.96 10.34 2.62.76 4.84 1.47 4.95 1.52.1.1-.4 2.06-1.11 4.33-2.78 9.08-7.82 32.24-9.84 45.1-1.87 12.1-4.09 35.71-4.09 44.13 0 2.07-.15 5-.3 6.41-.35 2.67-.35 2.67-46.6 2.67-25.43 0-46.36-.1-46.46-.2-.36-.35.45-11.5 1.3-18.71a200 200 0 0 1 5.3-26.53c5.8-21.64 14.03-40.91 26.13-60.94 4.8-8.02 13.02-19.72 13.77-19.72.26 0 1.82.66 3.43 1.46m258.72 26.13c.7 1.36 3.88 13.42 5.85 22.35a541 541 0 0 1 6.05 34.55c1.67 12.16 3.63 40.9 2.88 41.76-.2.2-23.06.3-50.8.26l-50.39-.15-.15-43.59c-.05-24 .05-43.78.25-43.98.25-.2 5.05-.66 10.75-.96 11.6-.6 26.48-2.02 37.07-3.58 9.48-1.36 24.41-4.19 31.53-5.95 3.17-.8 5.95-1.46 6.15-1.52.2-.05.56.36.8.81m-179.37 1.11c21.08 5.05 42.62 7.97 67.14 9.23 11.95.6 11.95.6 11.95 44.4v43.77h-50.8c-50.74 0-50.74 0-50.39-7.97.4-9.38 1.52-23.1 2.63-31.87 1.86-14.99 5.5-34.2 9.33-48.78 2.27-8.78 2.77-10.24 3.43-10.24.25 0 3.28.65 6.7 1.46m78.99 155.31c-.15 43.23-.15 43.23-8.07 43.53-21.44.9-47.62 4.64-68.15 9.79a217 217 0 0 1-9.38 2.27c-.5 0-1.66-3.89-4.29-14.23-5.1-20.12-8.27-39.04-10.34-62.2-.7-7.4-1.26-21.18-.96-22.03.26-.56 9.03-.66 50.8-.5l50.49.1zm114.95-33.85a316 316 0 0 1-2.67 31.18 587 587 0 0 1-4.74 28.3c-1.97 9.43-5.95 25.62-7.26 29.25-.15.4-2.32.05-6.96-1.16-12.77-3.28-30.07-6.4-45.3-8.22-7.16-.8-23.7-2.02-28.35-2.02-2.37 0-4.69-.15-5.14-.3-.71-.3-.81-4.54-.81-43.03 0-23.5.15-42.92.35-43.08.15-.2 23-.35 50.75-.35 50.44 0 50.44 0 50.13 9.43m107.6-5.65c0 4.75-1.21 16.6-2.58 25.23-2.17 13.56-8.42 35.3-13.77 47.91A263 263 0 0 1 442 341.5c-5.7 9.53-16.5 24.61-17.55 24.61-.26 0-2.68-1.06-5.4-2.32a432 432 0 0 0-48.37-19.37c-4.44-1.5-8.18-2.72-8.23-2.82-.1-.05.6-2.93 1.62-6.36 2.27-7.71 5.8-23.2 7.82-34.2a363 363 0 0 0 5.65-50.08c.65-11.96.65-11.96 47.2-11.96 46.57 0 46.57 0 46.57 3.78M248.86 393.1c0 53.22 0 53.22-1.16 53.22-2.22 0-8.78-2.12-13.27-4.3a78 78 0 0 1-9.08-5.24c-8.42-5.65-18.81-15.79-26.48-25.82a216 216 0 0 1-19.77-32.03c-4.8-9.54-11.45-25.12-11.45-26.79 0-.65.55-.86 10.04-3.13 19.37-4.74 47.77-8.47 68.55-9.08 2.62-.05 2.62-.05 2.62 53.17m36.32-51.9a388 388 0 0 1 34.2 4.54c7.92 1.4 23.86 5.2 24.46 5.75 1.06.95-10.04 25.87-16.75 37.57-7.56 13.17-15.58 24.22-23.8 32.74-9.13 9.53-16.9 15.54-25.53 19.93-4.18 2.06-11.85 4.59-14.07 4.59-1.21 0-1.21 0-1.21-52.87 0-29.1.15-53.06.4-53.26.4-.46 9.08-.05 22.3 1m77.98 15.78a490 490 0 0 1 25.78 9.34c6.8 2.82 24.86 10.69 25.22 11.04.5.56-1.52 2.88-6.81 7.77-11.55 10.74-20.89 18.16-32.29 25.57-8.97 5.9-14.12 8.83-24.56 13.93a201 201 0 0 1-27.24 11.2c-7.31 2.36-18.91 5.5-18.91 5.09 0-.2 2.87-3.28 6.45-6.91 7.72-7.92 11.45-12.36 17.35-20.58 9.94-13.92 18.57-30.22 26.18-49.33 3.53-8.83 3.43-8.58 3.89-8.58.25 0 2.47.66 4.94 1.46m74.6-346.43c-5.1.66-13.92 3.23-18.66 5.45a65 65 0 0 0-18.21 12.91c-5.5 5.45-10.54 12.51-13.52 19.02a83 83 0 0 0-5.6 18.56c-1.56 9.84-.55 20.99 2.83 31.43 2.12 6.45 9.43 21.18 16.09 32.38 5.65 9.48 14.58 23 23.15 35.2 7.11 10.15 18.26 25.03 19.72 26.34 1.31 1.16 4.5 1.31 5.8.25 1.87-1.56 16-20.53 24.92-33.44 19.47-28.25 31.78-51 35.61-65.73a70 70 0 0 0 .96-29.6c-1.61-8.48-6.4-19.27-11.85-26.59a67 67 0 0 0-23.91-20.07c-10.9-5.4-24.67-7.67-37.33-6.1m18.51 32.39c6 1.91 10.24 4.54 14.83 9.18 3.33 3.33 4.54 5.04 6.46 8.87 2.47 5 3.83 10.45 3.83 15.34 0 3.48-1.16 9.38-2.47 12.76-2.47 6.2-7.92 12.76-13.97 16.75a41 41 0 0 1-8.07 3.83c-3.98 1.31-5.14 1.46-10.54 1.41-5.15 0-6.66-.2-10.09-1.36a49 49 0 0 1-7.31-3.23 44 44 0 0 1-7.12-5.75 29 29 0 0 1-6.1-8.32c-3.03-5.85-4.09-9.84-4.09-15.84-.05-5.6.66-8.98 2.98-14.02 4.34-9.49 11.6-16.2 20.93-19.22 5.2-1.72 7.47-2.02 12.31-1.82 2.98.1 5.85.6 8.42 1.42M54.16 258.37a68 68 0 0 0-26.74 10.95 76 76 0 0 0-15.08 15.08C7.2 291.66 2.86 301.8.89 310.88c-1.06 5.04-1.21 17.55-.25 22.95a100 100 0 0 0 4.94 16.4c3.18 7.61 11.6 23.15 18.11 33.44a931 931 0 0 0 34.05 49.53c3.48 4.54 5.1 5.55 7.56 4.64 2.98-1.16 30.12-39.75 42.88-61.03 6.7-11.15 14.12-26.13 16.3-32.84a83 83 0 0 0 2.56-10.6c.71-3.98.81-7 .6-13.1-.2-6.72-.44-8.78-1.8-13.93a68 68 0 0 0-8.99-19.87c-3.58-5.35-12.25-14.18-17.3-17.56a70 70 0 0 0-22.44-9.78c-5.4-1.31-17.05-1.72-22.95-.76M70.6 289.7c2.07.45 4.74 1.2 5.95 1.76 7.11 3.03 13.82 9.23 17.3 15.89 3.23 6.2 3.89 9.13 3.89 16.14 0 5.15-.2 6.66-1.36 10.09a45 45 0 0 1-3.23 7.21 41 41 0 0 1-10.95 11.45 37 37 0 0 1-14.07 5.3c-3.08.5-4.84.5-8.17.05-8.53-1.16-14.68-4.24-20.53-10.24a28 28 0 0 1-6.2-8.63c-2.58-5.24-3.79-9.98-3.79-15.38 0-5 1.21-10.14 3.53-14.98a33.6 33.6 0 0 1 15.89-15.94 42 42 0 0 1 7.31-2.67c4.44-.96 9.89-.96 14.43-.05" clip-rule="evenodd"/>
</svg>
