<svg xmlns="http://www.w3.org/2000/svg" width="456" height="512" fill="currentColor" viewBox="0 0 456 512">
    <path fill-rule="evenodd" d="M432.22.23c-.24.25-19.22 4.2-42.31 8.8-23.01 4.51-43.06 8.7-44.54 9.12a13 13 0 0 0-4.77 3.28c-3.86 4.69-1.89 12.41 3.7 14.71 2.38.99 4.2.82 16.76-1.56 7.73-1.4 16.1-2.8 18.57-2.96 11.67-.9 17.26-1.07 17.26-.4 0 .98-18.24 23-26.79 32.53-7.48 8.22-29.66 29.1-47.57 44.79-14.22 12.4-38.54 31.88-55.47 44.37a819 819 0 0 1-67.38 45.28C146.43 230.3 87.84 257.84 30.8 277.73c-14.95 5.17-17.25 6.98-17.25 13.15 0 3.28.4 4.43 2.38 6.49 1.32 1.31 3.45 2.7 4.69 2.95 2.62.58 12.07-2.3 34.01-10.43 30.4-11.26 59.33-23.91 91.22-39.85 51.93-25.97 95.73-53.17 143.63-89.33 34.84-26.2 67.38-55.13 108.22-96.22 19.56-19.56 20.13-20.13 20.38-17.58.33 2.95-2.3 21.44-5.26 37.47-1.97 10.84-1.97 11.17-.57 14.13a10.4 10.4 0 0 0 4.68 4.52c2.96 1.4 3.53 1.48 6.5.41 1.8-.66 4.02-2.14 4.92-3.37.9-1.15 1.9-3.94 2.3-6.16.33-2.14 3.04-17.1 5.92-33.12 2.96-16.02 6.16-34.18 7.15-40.34 1.8-10.77 1.8-11.26.41-14.22-.82-1.72-2.3-3.61-3.37-4.35-1.97-1.24-7.8-2.39-8.55-1.65M367.31 167.3c-1.56.66-4.11 2.38-5.59 3.86-5.42 5.26-5.1-5.34-5.1 167.06 0 111.34.25 157.6.91 160.64 1.07 4.93 5.34 10.2 9.7 12 2.3.99 9.53 1.15 39.44 1.15 36.48-.08 36.65-.08 40.35-1.97a16 16 0 0 0 6.16-5.92c2.46-3.94 2.46-3.94 2.71-163.36.08-110.44-.08-160.31-.66-162.61-1.07-3.87-6-9.54-9.61-11.1-2.14-.82-10.36-1.07-39.03-1.07-30.65.09-36.9.25-39.28 1.32m69.93 15.94c1.56.9 1.56 3.45 1.56 155.72 0 152.26 0 154.8-1.56 155.71-1.07.5-12.5.82-31.47.82-22.2 0-30.16-.24-30.9-.98s-.99-36.49-.99-155.72c0-154.81 0-154.81 1.9-155.55 2.62-1.07 59.4-1.07 61.46 0m-191.55 66.64c-3.61 1.48-7.4 4.85-9.03 8.14-1.65 3.2-1.65 5-1.65 122.02 0 105.35.17 119.15 1.23 121.86 1.65 3.86 4.11 6.5 7.98 8.47 2.87 1.48 5.25 1.56 37.88 1.56 34.76 0 34.76 0 38.62-2.39 2.3-1.56 4.52-3.78 5.67-6 1.89-3.53 1.89-3.53 2.13-122.18.17-118.66.17-118.66-1.8-123.01a15 15 0 0 0-5.51-6.66c-3.53-2.3-3.53-2.3-38.46-2.47-21.85-.08-35.74.17-37.06.66m65.25 16.85c1.15 1.15 1.31 12.57 1.31 113.72 0 112.5 0 112.5-1.8 113.73-1.57 1.15-5.76 1.31-28.85 1.31-17 0-27.52-.33-28.6-.82-1.55-.9-1.55-3.04-1.55-114.22 0-107.07.08-113.4 1.48-114.13.82-.58 11.83-.9 29.08-.9 24.08 0 27.86.16 28.93 1.3m-184.07 50.37c-4.6 2.05-8.3 6.82-9.36 12.08-.66 2.96-.83 29.83-.66 87.18.25 65.82.5 83.32 1.31 85.3 1.48 3.37 4.85 6.82 8.63 8.79 3.04 1.48 4.93 1.56 37.14 1.56 32.13 0 34.19-.08 37.14-1.56 3.95-2.06 6.41-4.69 8.06-8.55 1.07-2.7 1.23-13.23 1.23-88.17s-.16-85.46-1.23-88.17a15.4 15.4 0 0 0-8.22-8.46c-3.04-1.4-6-1.56-36.98-1.56s-33.93.16-37.06 1.56m66.07 15.86c.74.74.99 19.8.99 80.94 0 78.14 0 79.95-1.57 80.77-1.06.5-11.66.82-29 .82-20.3 0-27.7-.24-28.43-.98s-.99-19.8-.99-80.78c0-60.97.25-80.03.99-80.77s8.3-.99 29-.99c20.71 0 28.27.25 29.01.99M12.49 366.47c-4.35 1.07-8.87 4.52-10.76 8.38C0 378.47 0 379.05 0 439.03c0 49.06.25 61.14 1.15 63.27 1.23 2.96 6.16 7.65 9.45 8.96 1.31.5 14.87.74 36.07.74 31.56-.08 34.19-.25 36.98-1.64a16 16 0 0 0 7.97-8.47c1.07-2.7 1.23-10.76 1.23-62.94 0-59.82 0-59.82-2.05-63.93a16.3 16.3 0 0 0-10.35-8.55c-3.3-.98-63.93-.98-67.96 0m63.77 71.9c.16 51.03.08 55.14-1.24 56.05-1.97 1.47-56.12 1.56-57.6.08-.74-.74-.99-14.14-.99-55.3 0-41.5.25-54.57.99-55.3.74-.75 8.05-1 29.83-.83l28.76.25z" clip-rule="evenodd"/>
</svg>
