<svg xmlns="http://www.w3.org/2000/svg" fill="currentColor" viewBox="-41.039 -31.296 574.592 574.592">
    <path fill-rule="evenodd" d="M235.84.45c-4.99.66-13.59 3.63-18.42 6.34a51 51 0 0 0-18.16 17.66c-3.88 6.34-6.7 15.45-7.3 23.75-.4 4.68.25 10.42 1.76 16.4.96 3.68 3.98 10.57 5.94 13.54 1 1.51 1 1.51-3.83 6.85-2.66 2.91-10.51 11.52-17.46 19.07-13.58 14.89-51.52 56.6-72.2 79.4-12.83 14.14-12.83 14.14-14.34 12.88-3.57-2.87-10.67-7.3-13.99-8.7-7.9-3.28-17.51-4.94-25.51-4.39a70 70 0 0 0-18.47 4.28 59 59 0 0 0-23.7 18.72 67 67 0 0 0-4.27 7.3c-4.23 8.5-5.89 15.4-5.89 24.6 0 6.7.86 12.18 2.72 17.66 3.37 9.96 10.51 19.73 19.22 26.32a56.74 56.74 0 0 0 45.39 9.81c2.3-.45 4.22-.75 4.32-.65.2.2 28.08 83.32 36.68 109.28 4.78 14.5 4.78 14.5 1.41 16.71-7.1 4.68-14.19 12.48-17.71 19.52a60 60 0 0 0-5.18 14.95c-.9 4.78-1.06 12.38-.25 17.1a60 60 0 0 0 2 7.8c4.69 13.74 14.65 24.91 27.53 30.8a66 66 0 0 0 8.4 2.92c14.2 3.67 28.84 1.1 41.52-7.25 4.32-2.82 10.36-8.9 13.38-13.43 5.08-7.7 7.75-15 8.76-24.1.3-2.52.45-6.35.4-8.5-.15-4.03-.15-4.03 17.46-10.53 9.71-3.57 21.58-7.95 26.42-9.76 4.83-1.8 12.07-4.48 16.1-5.93 4.02-1.46 15.24-5.49 24.9-9.01 9.71-3.52 19.43-7.1 21.64-7.9 27.67-10.17 28.68-10.47 29.33-9.61.36.45 1.97 2.92 3.63 5.43a54 54 0 0 0 6.79 8.2c9.1 8.66 19.93 13.39 32.1 14 9.51.5 17.92-1.27 26.27-5.44 9.86-4.98 18.72-14.1 23.04-23.65 3.93-8.55 5.09-14.14 5.04-23.35 0-5.83-.26-7.9-1.36-12.07a62 62 0 0 0-4.03-10.57c-4.58-9.2-11.52-16.86-19.62-21.59-3.07-1.8-3.37-2.11-3.07-3.27.4-1.76 12.48-39.3 16.6-51.62.66-1.97 4.58-14.2 8.8-27.17 18.83-58.22 15.96-51.58 22.4-51.58 8.86 0 15.8-1.66 23.6-5.58a50.8 50.8 0 0 0 23.2-24.26 52 52 0 0 0 4.32-16c.45-3.87.5-6.24.05-10.41-1.4-12.68-5.78-22.24-14.14-30.95a50.5 50.5 0 0 0-22.54-13.74c-8.05-2.36-19.92-2.31-28.33.1-4.07 1.16-10.36 4.23-14.64 7.1a59 59 0 0 0-7.6 6.6c-3.87 4.07-3.87 4.07-26.92-7.15a6069 6069 0 0 0-27.82-13.49c-2.62-1.3-11.78-5.73-20.38-9.96A2873 2873 0 0 0 303.16 71a347 347 0 0 1-11.47-5.64c-.2-.2 0-1.96.45-3.87 1.16-4.73 1.16-15.2 0-20.53-2.57-11.73-8.4-21.54-17.3-29.09a57 57 0 0 0-7.1-5.03c-5.24-2.97-13.79-5.78-19.78-6.39-5.48-.6-7.24-.6-12.12 0m15.6 17.26c3.97 1.06 9.66 4.03 12.98 6.74a33.5 33.5 0 0 1 9 11.53c2.47 4.88 3.48 9.4 3.48 15.5 0 6.08-.96 10.06-3.83 15.6-1.5 2.91-3.17 5.13-6.14 8.1-3.32 3.31-4.93 4.47-8.8 6.43-6.14 3.02-10.72 3.98-17.36 3.68a28 28 0 0 1-9.36-1.71 34.3 34.3 0 0 1-19.78-17.41 50 50 0 0 1-2.86-7.4c-.4-1.5-.66-5.03-.66-7.8 0-5.53.9-9.5 3.32-14.7 4.38-9.35 12.78-16.2 23.25-18.86 2.77-.7 4.78-.86 8.85-.65 2.92.1 6.45.55 7.9.95m45.73 68.79c6.9 3.37 16.6 8.1 21.59 10.51 30.39 14.8 52.28 25.46 62.4 30.34a378 378 0 0 1 11.97 5.89c.2.15 0 1.3-.4 2.57-1.06 2.86-2.27 10.91-2.27 14.89 0 3.07 0 3.07-9.66 5.38-5.33 1.26-13.69 3.22-18.52 4.33-17.56 4.13-47.3 11.07-57.86 13.59-5.94 1.4-13.64 3.22-17.1 4.02-3.48.8-10.73 2.52-16.11 3.78s-13.08 3.07-17.1 4.02c-7 1.61-15.4 3.62-73.22 17.36a3640 3640 0 0 1-32.2 7.6 6034 6034 0 0 0-33.97 7.95c-7.2 1.76-6.34 1.91-7.54-1.31a38 38 0 0 0-2.27-4.93c-1.16-2.01-1.16-2.01 2.92-6.54 11.98-13.39 67.53-74.47 91.58-100.79 6.64-7.24 12.22-13.18 12.43-13.18s1.9 1 3.77 2.26c6.39 4.18 14.6 6.85 23.2 7.55 5.03.4 12.57-.45 18.16-2.06a55 55 0 0 0 15.75-7.75c3.42-2.52 8.7-7.8 10.26-10.21.5-.76 1.11-1.36 1.31-1.36s5.99 2.76 12.88 6.09m149.3 29.13c7.94 1.16 14.69 4.73 20.37 10.82a34 34 0 0 1 8.2 14.59c.86 2.97 1.16 5.38 1.16 9.3 0 6.35-.85 10.12-3.82 16.1-1.66 3.43-2.97 5.14-6.4 8.61-3.47 3.42-5.18 4.73-8.6 6.4-6.14 3.01-9.76 3.87-16.35 3.82-4.63-.05-6.19-.25-9.56-1.41-5.94-2.01-10.11-4.58-14.14-8.56a37.4 37.4 0 0 1-9.1-14.74c-1.11-3.37-1.32-4.83-1.32-10.21 0-5.49.16-6.8 1.31-10.32a37 37 0 0 1 8.1-13.73c5.79-6.2 10.67-8.7 21.19-10.87 1.86-.35 5.53-.3 8.95.2m-50.17 57.96c4.78 9.56 11.57 16.76 20.58 21.8 1.4.8 2.56 1.5 2.66 1.55.36.2-8.6 28.13-27.97 87.25a6626 6626 0 0 0-10.17 31.2c-4.12 12.83-4.12 12.83-11.52 12.88-5.84 0-8.25.25-11.82 1.1-5.44 1.36-12.53 4.63-17.61 8.16a56 56 0 0 0-11.12 10.77c-1.51 1.9-1.51 1.9-21.64-7.4a5227 5227 0 0 1-46.04-21.49c-14.24-6.69-31.55-14.79-38.5-17.96-6.89-3.17-14.94-6.84-17.86-8.2-7.24-3.37-33.05-15.1-71.2-32.3-25.46-11.53-24.05-10.77-23.7-12.08.2-.66.46-3.62.66-6.6.25-4.92.4-5.53 1.36-5.93.6-.25 4.58-1.26 8.85-2.26 24.1-5.59 32.56-7.55 48.06-11.28 9.4-2.21 21.43-5.03 26.67-6.29 5.28-1.2 16.8-3.92 25.66-6.03 15.54-3.73 21.28-5.09 58.62-13.84 9.56-2.27 23.04-5.43 29.93-7.05 30.65-7.24 48.26-11.37 61.14-14.34 7.6-1.76 15.55-3.62 17.61-4.17a39 39 0 0 1 4.63-1.06c.6-.05 1.46 1.1 2.72 3.57M63.25 200.46a40 40 0 0 1 14.34 5.79q12.84 8.46 16.55 24c.9 3.57 1.01 5.33.8 9.66a35 35 0 0 1-4.22 15.65 42 42 0 0 1-10.36 12.48 43 43 0 0 1-15.5 7.6 49 49 0 0 1-16.86.45c-4.38-.8-10.26-3.22-14.39-5.94-4.17-2.71-9.91-8.65-12.43-12.83a48 48 0 0 1-3.17-7.24c-1.25-3.53-1.56-5.49-1.76-10.17-.3-6.69.46-10.92 2.82-16.65 2.82-6.75 9.2-14 15.85-18.02 3.22-1.9 9.91-4.32 13.89-5.03 4.43-.7 10.31-.6 14.44.25m52.58 70.45c6.44 2.97 15.15 6.9 19.27 8.75 7.25 3.27 42.07 19.07 59.88 27.17 20.68 9.41 27.17 12.43 43.52 20.13a3518 3518 0 0 0 42.52 19.88c24 11.02 38.8 17.96 39.15 18.31.25.25.1 2.22-.35 4.33-.5 2.51-.81 6.44-.81 11.07 0 6.39-.1 7.24-.85 7.55-.5.2-4.99 1.8-9.97 3.62-4.98 1.76-12.68 4.58-17.1 6.19-4.43 1.6-18.02 6.59-30.2 11.02-23 8.35-34.36 12.53-61.08 22.39-8.66 3.22-16 5.84-16.35 5.84-.3 0-1.11-1.06-1.82-2.37-2.71-5.13-9.96-13.03-15.3-16.76a64 64 0 0 0-14.13-6.69 48 48 0 0 0-17.96-2.16c-5.9.35-5.9.35-6.85-2.82-.55-1.76-10.01-29.99-20.98-62.74s-19.77-59.68-19.52-59.88c.2-.2 1.7-1.36 3.32-2.57a60 60 0 0 0 11.72-12.53 32 32 0 0 1 2.07-3.07c.1 0 5.38 2.42 11.82 5.34m265.12 75.32a34 34 0 0 1 14.04 8.9 31 31 0 0 1 5.89 7.8c2.51 4.94 3.97 9.57 4.42 14.15.66 6.59-1.3 15.2-4.88 21.23-.9 1.56-3.47 4.68-5.68 6.9-2.97 2.96-5.13 4.62-8.15 6.18a34.5 34.5 0 0 1-16.5 4.13c-5.84 0-11.03-1.31-16.51-4.13-3.07-1.56-5.18-3.17-8.15-6.19-4.48-4.47-7.3-8.9-8.86-13.83a35.7 35.7 0 0 1-.65-19.88c1-4.12 1.56-5.48 3.82-9.4 2.57-4.44 6.7-8.91 10.97-11.73 3.98-2.62 5.94-3.52 10.77-4.83 2.82-.76 4.83-.9 9.6-.8 4.89.14 6.8.45 9.87 1.5M147.68 427.3c6.84 2.17 13.39 6.8 17.41 12.18 2.52 3.42 5.18 9 6.24 13.03s1.06 12.63 0 16.6a53 53 0 0 1-2.82 7.2c-1.56 3.27-2.92 5.08-6.39 8.6-3.72 3.78-5.08 4.79-9.16 6.8-5.48 2.72-10.16 3.82-15.85 3.82-5.28 0-9.8-1-14.44-3.22-7.8-3.72-13.28-9.05-16.95-16.65a44 44 0 0 1-2.77-7.65 34 34 0 0 1 1.76-20.13c4.73-11.32 13.64-18.92 25.36-21.58 4.63-1.06 12.63-.6 17.61 1" clip-rule="evenodd"/>
</svg>
