<svg xmlns="http://www.w3.org/2000/svg" fill="currentColor" viewBox="-74.101 -67.521 647.052 647.052">
    <path fill-rule="evenodd" d="M215.49.08a55 55 0 0 0-13.53 3.43c-12.87 5.4-22.46 16.3-25.84 29.32-.9 3.54-.9 3.54-6.6 3.84A45 45 0 0 0 143.87 46a43 43 0 0 0-5.15 4.64 54 54 0 0 0-11.26 20.79c-.5 1.92-1 6.16-1.16 10.1-.3 8.02.5 13.92 2.88 19.98.8 2.17 1.51 3.98 1.51 4.03s-1.71 1.06-3.83 2.17a59 59 0 0 0-6.71 4.34c-6.31 4.8-12.52 12.97-15.44 20.24-.66 1.67-1.82 5-2.53 7.52-1.1 3.68-1.41 5.95-1.61 12.11-.15 4.6-.05 9.03.3 11.36a79 79 0 0 0 2.37 9.33c4.24 12.82 11.66 22.16 23.87 29.88.1.1-.6 1.46-1.61 3.13-1.01 1.61-2.68 5.45-3.69 8.42-1.71 5-1.91 6.11-2.12 12.37-.15 5.15 0 7.87.6 11 1.72 8.53 5.81 16.96 11.21 23.06a49 49 0 0 0 13.58 10.45c1.97 1 5.55 2.37 7.97 3.08 4.7 1.36 11.66 2.32 15.44 2.17 2.27-.1 2.27-.1 2.93 4.08 1.56 10.1 7.87 20.9 15.95 27.3a55 55 0 0 0 8.17 5.1c6.36 3.23 12.47 4.65 19.94 4.7 5.55.05 9.18-.56 14.63-2.27 6.61-2.12 12.26-5.7 17.82-11.26 2.92-2.93 2.92-2.93 5.14-.4 4.4 5 12.37 9.99 19.68 12.21 1.92.6 5.9 1.31 8.84 1.51q16.97 1.36 30.53-8.27a57 57 0 0 0 6.4-5.7 44 44 0 0 0 11.26-22.56c.4-2.42.76-4.5.76-4.6s.9-.05 1.96.1c2.68.36 10.5-.6 15.2-1.86a54 54 0 0 0 13.87-6.51 49 49 0 0 0 11.4-11.46 52 52 0 0 0 7.33-16.55c.75-3.13.95-5.85.9-11.86-.05-6.3-.25-8.58-1.16-11.86-.6-2.22-2.12-6.2-3.38-8.83-1.31-2.62-2.12-4.84-1.92-4.9.26-.1 1.97-1.1 3.74-2.27 4.54-2.97 10.4-8.93 13.78-14.02a55 55 0 0 0 7.67-18.02 60 60 0 0 0 1.26-20.24 52 52 0 0 0-5.1-17.91 47 47 0 0 0-10.4-14.03c-4.39-4.19-7.11-6.2-11.25-8.28-1.51-.75-2.82-1.46-2.93-1.51-.1-.1.61-2.63 1.57-5.65 2.32-7.17 3.08-12.57 2.72-19.53a47 47 0 0 0-5.14-19.23 46 46 0 0 0-11.16-14.38 44 44 0 0 0-15.74-8.73 36 36 0 0 0-10.7-1.72c-5.8-.25-5.8-.25-6.66-3.89-1.11-4.44-4.19-10.9-7.02-14.78A45.3 45.3 0 0 0 293.1.99c-2.17-.5-6.05-.86-9.49-.86-9.23 0-16.95 2.27-24.27 7.27a54 54 0 0 0-5.8 4.6c-2.53 2.36-2.53 2.36-5.05-.21-5-5.15-13.57-9.69-20.64-10.95-3.73-.66-10-1.01-12.36-.76m9.84 18.98c3.53.9 7.52 3.23 10.14 6.05 3.03 3.18 4.34 5.6 5.45 9.84.7 2.78.8 15.34.8 122.13 0 117.43 0 119.15-1 123.03a30 30 0 0 1-2.27 6.1c-2.07 3.54-6.21 7.68-9.54 9.5-4.95 2.77-8.18 3.48-14.69 3.23-5.2-.2-5.9-.36-9.38-2.02a36 36 0 0 1-6.31-3.89c-3.18-2.52-6.86-7.82-8.33-11.9-1.36-3.74-1.76-10.1-1-14.6.7-3.93.2-6.55-1.77-8.82-.66-.81-2.27-1.87-3.54-2.38-2.52-.95-2.97-.9-10.54 1.27a31 31 0 0 1-7.07 1c-11.4.1-21.3-6.45-26.29-17.3-1.67-3.69-2.88-10.35-2.47-13.93a32 32 0 0 1 3.38-11.2c1.56-2.93 5.35-6.82 8.48-8.74 2.17-1.3 3.38-2.97 4.08-5.85.61-2.22.56-2.52-.85-5.3-1.21-2.47-1.87-3.18-3.74-4.04a34 34 0 0 0-5.8-1.91c-7.27-1.72-15.3-7.88-19.43-14.94a39.5 39.5 0 0 1-5-23.52c.81-8.93 3.94-15.84 9.74-21.7 4.65-4.64 10.25-7.52 16.2-8.33 6.1-.8 6.21-.85 8.33-2.77 2.37-2.12 3.18-5 2.42-8.53-.35-1.77-1.16-2.98-3.38-5.3-3.03-3.13-4.74-6.1-6.66-11.6-.86-2.53-1.11-4.45-1.11-8.33-.05-3.84.25-5.96 1.1-8.83 1.72-5.6 3.95-9.44 7.53-12.92 5.5-5.4 13.37-8.33 20.44-7.57 1.86.2 4.34.9 6.3 1.87 2.63 1.3 3.64 1.56 5.66 1.36 2.87-.3 5.55-1.92 6.86-4.14.7-1.21.9-2.83 1.01-8.33.05-5.55.3-7.47 1.16-9.89 4.54-12.77 18.07-20.08 31.09-16.8m65.4.2c7.17 2.12 13.27 7.11 16.3 13.42 2.37 4.95 3.03 8.23 2.67 13.63-.15 2.42-.1 5.15.16 6.05.55 1.82 2.62 4.2 4.64 5.25 2.22 1.16 5.4.86 8.88-.86a21 21 0 0 1 5.85-1.81c3.79-.4 9.09.6 12.92 2.47 4.4 2.12 10.25 8.02 12.47 12.52.86 1.81 1.97 5.1 2.42 7.26 2.12 9.54-.96 21.25-7.11 27.05-2.23 2.12-3.74 5.15-3.74 7.57 0 2.47 1.62 5.7 3.48 7.02 1.06.75 3.08 1.36 6.46 1.81 3.69.6 5.9 1.26 9.19 2.83 3.43 1.66 5.14 2.93 8.17 6a29 29 0 0 1 6.21 8.63c3.68 7.42 4.7 15.45 3.13 23.82a45 45 0 0 1-5.5 13.83 38 38 0 0 1-11.5 10.6c-3.29 1.87-6.22 2.82-12.02 3.99-1.92.4-4.94 3.73-5.6 6.2-.3 1.26-.4 3.08-.2 4.3.25 1.6.86 2.57 2.77 4.33 8.08 7.42 8.83 8.28 10.4 12.11 1.97 4.7 2.82 10.8 2.17 14.94-1.67 10.35-7.07 18.07-15.54 22.36-6.97 3.48-14.39 3.93-22.46 1.31-4.09-1.36-4.6-1.41-6.81-.8a9.4 9.4 0 0 0-5.96 4.74c-.6 1.16-.7 2.77-.4 8.63.4 8.27 0 10.8-2.68 16.1-3.18 6.45-9.94 11.9-17.05 13.77-3.28.9-11.06.9-13.93.05-6.77-2.07-12.72-6.81-15.55-12.36-3.33-6.56-3.07 2.97-3.07-127.58 0-78.57.15-119.55.5-121.37 1.11-5.75 4.84-11.55 9.49-14.78 1.06-.71 3.48-1.87 5.4-2.53 2.72-1 4.54-1.26 8.12-1.3 2.73 0 5.65.3 7.32.8m-91.5 54.7c-2.32.7-5.9 3.48-7.97 6.21-3.83 5.1-5.65 11-5.65 18.02.05 5.2 1.16 9.74 3.58 14.58 2.58 5.1 6.21 9.44 10.35 12.41 6.1 4.34 12.26 6.41 16.65 5.6 2.12-.4 4.54-2.31 5.7-4.48 1.22-2.38 1.06-5.8-.4-8.43-1.21-2.27-2.02-2.83-8.02-5.5-2.93-1.32-6.82-5.15-8.48-8.38-1.01-1.97-1.31-3.28-1.31-5.8 0-3.84.96-6.06 3.58-8.23a10.4 10.4 0 0 0 3.68-7.67c0-2.68-.8-4.44-2.87-6.46a9 9 0 0 0-8.83-1.87m-34.97 64.5a12 12 0 0 0-2.87 1.91 12 12 0 0 0-2.42 6.36c.05 2.63 1.61 5.5 5.5 9.95 10.04 11.35 24.77 20.23 38.5 23.2 2.73.61 6.41 1.07 8.23 1.07 4.34 0 6.8-1.21 8.63-4.3 1.1-1.96 1.3-2.77 1.1-5.04a7.6 7.6 0 0 0-1.6-4.49c-.77-1-1.88-2.17-2.53-2.57-.6-.4-3.13-1.11-5.65-1.52a51 51 0 0 1-15.6-5.14 58 58 0 0 1-19.02-14.84c-1.67-1.92-3.69-3.84-4.5-4.29-2.42-1.21-5.5-1.36-7.77-.3m18.17 70.95c-3.28 1.46-5.6 5.6-5.1 9.08.5 3.13 3.08 7.22 7.07 11.16a28 28 0 0 0 13.42 7.62c4.8 1.2 12.32.75 16.5-.96 1.77-.7 3.9-1.77 4.7-2.37 3.13-2.22 4.39-7.07 2.82-10.75-.85-2.12-3.33-4.19-5.9-5-1.77-.5-2.52-.45-5.75.5a28 28 0 0 1-5.9 1.12c-2.48 0-5.6-1.32-7.48-3.08-.7-.66-2.01-2.27-2.92-3.58-2.63-3.84-7.57-5.45-11.46-3.74M296.8 73.96c-2.12.91-4.1 2.58-4.95 4.2-1.06 2.06-1.01 6.25.05 8.27.45.9 1.82 2.62 3.03 3.83 2.62 2.53 3.58 5.4 3.18 9.29-.15 1.51-.91 3.78-1.67 5.25-1.81 3.33-5.75 6.76-9.18 8.02-4.5 1.72-5.55 2.42-6.97 4.8a8.7 8.7 0 0 0-1.3 4.74c.04 2.93.95 5 3.12 6.76 3.23 2.78 8.18 2.47 14.94-.9 8.07-4 14.63-11.31 17.36-19.44 1.41-4.13 2.17-10.14 1.76-13.82-.45-3.84-2.37-9.74-4.03-12.47-1.97-3.08-4.75-5.9-7.12-7.32-2.37-1.36-6.36-1.96-8.22-1.2m33.5 64.8a14 14 0 0 0-4.84 3.99c-4.09 4.94-9.54 9.48-15.9 13.27a61 61 0 0 1-18.01 6.81c-2.73.5-5.6 1.31-6.41 1.72a8.5 8.5 0 0 0-4.09 5.5 6.8 6.8 0 0 0 0 4.24c.8 3.03 1.92 4.54 4.14 5.7 2.52 1.26 6.66 1.26 13.22-.1 8.43-1.72 18.32-6.26 27-12.36 4.7-3.34 14.79-13.53 16.15-16.4 1.41-2.88 1.46-6.62.15-9.04q-.92-1.74-3.58-3.18c-1.47-.76-3.23-1.36-3.99-1.36-.7 0-2.42.55-3.84 1.21m-18.72 70.65c-.86.4-2.32 1.67-3.28 2.83-3.88 4.8-4.64 5.55-6.71 6.5-1.16.61-3.08 1.07-4.24 1.07s-3.83-.5-5.9-1.11c-3.23-.96-4-1.01-5.76-.5-2.37.75-4.84 2.67-5.85 4.69-.4.75-.76 2.52-.76 3.83.05 6.41 6.16 10.65 16.2 11.15 3.43.15 5.7 0 8.08-.6a32 32 0 0 0 12.06-5.96c3.13-2.57 6.7-7.06 7.92-9.89 1.11-2.62.7-7.01-.86-9.13-2.17-3.08-7.32-4.44-10.9-2.88M44.26 171.56c-3.03.81-5.7 2.98-7.67 6.1-1.52 2.43-1.52 2.43-1.67 16.06-.15 13.57-.15 13.57-1.76 13.32-.91-.15-3.79-.66-6.41-1.16-2.78-.5-7.57-.86-11.36-.91-5.8-.05-6.81.05-8.58 1.06a12.8 12.8 0 0 0-5.75 6.2C0 214.52 0 214.82 0 340.68c0 126.16 0 126.16 1.21 128.69 1.41 2.97 3.33 4.94 5.96 6 1.66.7 11.8.81 93.15.81 66.92 0 91.75.15 93.01.55 4.4 1.52 7.22 5.25 7.98 10.75.3 2.07 1.2 4.95 2.27 7.22 1.36 2.83 2.77 4.74 5.5 7.47a26 26 0 0 0 8.42 5.95c7.27 3.59 9.95 3.89 32.8 3.89 22.77 0 25.6-.3 32.66-3.78a28 28 0 0 0 8.12-5.7 24 24 0 0 0 5.6-7.68 26 26 0 0 0 2.53-7.62c.25-1.87.8-3.99 1.2-4.8a14 14 0 0 1 5.16-5.14c1.4-.8 9.08-.86 93.36-1.11 91.84-.25 91.84-.25 94.22-1.67 1.56-.9 2.87-2.22 3.78-3.78 1.41-2.37 1.41-2.37 1.67-69.74.15-37.04.25-94.42.25-127.43 0-57.33-.05-60.15-.91-61.92a12.5 12.5 0 0 0-9.44-6.71c-2.82-.4-12.92.5-18.77 1.67-4.4.9-4.4.9-4.54-12.27-.15-12.06-.25-13.32-1.21-15.39a14.2 14.2 0 0 0-6.46-6.66c-1.62-.86-3.28-1.11-7.93-1.31-6.1-.26-8.88.25-10.14 1.76-.55.66-.7 19.94-.9 108.5-.26 107.75-.26 107.75-1.67 108.96-1.42 1.2-1.42 1.2-55.52 1.2-31.84 0-56.06.21-58.89.51a90 90 0 0 0-26.5 6.82 97 97 0 0 0-21.19 12.3c-7.06 5.36-17.71 16.86-22.4 24.13-.91 1.47-1.87 2.68-2.07 2.68s-.5-.3-.66-.66c-.7-1.87-8.58-11.66-13.32-16.55a91 91 0 0 0-27-19.78 103 103 0 0 0-23.87-8.08c-5.5-1.06-6.26-1.06-62.83-1.21-31.49-.1-57.78-.25-58.39-.4a5.4 5.4 0 0 1-2.17-1.37c-1-1.1-1-1.3-1-108.3 0-72.06-.16-107.49-.51-108.1-.3-.55-1.01-1.25-1.57-1.56-1.61-.8-11.86-1-14.73-.25" clip-rule="evenodd"/>
</svg>
