<svg xmlns="http://www.w3.org/2000/svg" fill="currentColor" viewBox="-60.467 -0.006 511.993 511.993">
    <path fill-rule="evenodd" d="M32.93.36C23.66 1.72 14.54 6.81 8.75 13.91c-3.02 3.63-6.04 9.62-7.45 14.46C.19 32.3.19 32.3.04 252.9c-.1 153.97 0 222.02.4 225.35.6 5.59 2.92 12.03 5.8 16.42 2.66 3.98 8.4 9.67 11.98 11.78 1.56.9 4.23 2.22 5.9 2.92 7.1 2.87-3.89 2.67 172.86 2.57 162.84-.15 162.84-.15 166.87-1.5a46 46 0 0 0 13.2-7.31c5.84-4.74 10.77-12.8 12.79-20.8 1.05-4.29 1.05-4.29 1.2-182.59.06-127.33-.05-178.86-.45-180.17-.45-1.5-6.8-8.2-33.04-34.5a39396 39396 0 0 0-57.62-57.92c-20.9-21-25.54-25.44-27.45-26.2-2.22-.85-8.11-.9-119.42-.95C88.38-.04 34.59.11 32.93.36m226.3 62.16c.15 43.31.15 43.31 1.36 47.34a38 38 0 0 0 3.12 7.26c2.67 4.43 8.21 9.57 12.8 11.83 6.85 3.38 6.1 3.33 53.49 3.33h42.66l-.1 173.11c-.15 173.17-.15 173.17-1.71 176.44-2.02 4.13-4.38 6.85-7.86 8.97-5.64 3.37 6.6 3.12-169.49 3.02-159.57-.15-159.57-.15-162.49-1.31-5.39-2.22-9.47-6.4-11.78-12.19-.86-2.16-.91-12.64-.91-224.14 0-214.01.05-221.97.9-224.54 1.06-2.97 3.99-6.9 6.6-8.91 1.01-.76 3.13-1.92 4.69-2.57 2.92-1.21 2.92-1.21 115.75-1.06l112.82.1zm59.18 9.11c22.52 22.62 40.95 41.4 41.05 41.8.16.56-5.49.66-35.76.56-35.91-.1-35.91-.1-38.43-1.26a15 15 0 0 1-6.95-6.4c-1.1-2-1.1-2.16-1.26-38.93-.05-20.25 0-36.87.2-36.87.15 0 18.69 18.49 41.15 41.1M87.32 183.1c-1.96 1.16-4.18 3.78-4.58 5.39-.2.7-.2 2.62-.1 4.33.2 2.87.35 3.17 2.52 5.24a11.4 11.4 0 0 0 4.33 2.67c1.41.4 24.48.5 78.27.45 76.21-.15 76.21-.15 78.38-1.41a8.9 8.9 0 0 0 4.63-7.96c0-3.12-.66-4.93-2.42-6.8-2.87-3.07 2.87-2.87-81.8-2.87-74.8 0-77.76.05-79.23.96m1.72 71.27c-4.54 1.61-6.6 4.53-6.55 9.22 0 3.27 1 5.18 3.73 7.4 1.96 1.56 1.96 1.56 108.04 1.71 106.02.1 106.02.1 108.24-.95 2.92-1.41 4.88-4.69 4.93-8.21 0-4.54-2.72-8.11-7.25-9.37-1.2-.3-37.52-.5-105.57-.5-83.46.04-104.11.15-105.57.7m-1.72 72.78c-1.96 1.16-4.18 3.78-4.58 5.4-.2.7-.2 2.56-.1 4.17.15 2.22.55 3.43 1.56 4.74.7.95 2.17 2.16 3.23 2.67 1.86.9 4.93.95 107.43.95 103 0 105.57 0 107.49-.95a10.7 10.7 0 0 0 5.08-6.8c.46-2.67-.5-5.75-2.36-7.91-3.08-3.53 6.6-3.23-110.31-3.23-102.3 0-105.97.05-107.44.96m2.07 72.08c-2.32.7-5.19 2.97-6.04 4.78-.46.91-.81 2.98-.81 4.64 0 3.42 1 5.34 3.83 7.5 1.86 1.46 1.86 1.46 79.68 1.61 76.71.1 77.87.1 79.88-.9a9.3 9.3 0 0 0 3.48-3.13c1.1-1.7 1.36-2.72 1.36-5.03 0-1.66-.35-3.63-.7-4.38-1.11-2.07-4.04-4.44-6.2-5.04-2.37-.66-152.31-.7-154.48-.05" clip-rule="evenodd"/>
</svg>
