<svg xmlns="http://www.w3.org/2000/svg" width="512" height="314" fill="currentColor" viewBox="0 0 512 314">
    <path fill-rule="evenodd" d="M237.58.65c-10.6.82-22.17 2.53-34.14 5.06-30.36 6.5-56.97 17.3-86.04 34.88-16.76 10.12-36.87 25.24-53.9 40.42-10.8 9.65-28.25 27.64-37.14 38.24-8.76 10.53-22.44 28.59-24.83 32.97-1.44 2.46-1.7 3.7-1.44 6.43.41 3.9 2.12 6.56 12.45 19.76a415 415 0 0 0 42.75 46.93c18.33 17.23 32.7 28.65 52.26 41.58a299 299 0 0 0 40.56 22.85 269 269 0 0 0 73.12 22.09c7.38 1.1 13.95 1.5 28.93 1.78 21.07.4 30.03-.14 46.58-2.87a256 256 0 0 0 50.68-13.82c27.84-10.67 56.64-27.43 83.1-48.36 15.06-11.9 37.7-33.51 50.7-48.36 15.45-17.71 29.33-35.9 30.43-39.74.34-1.43.48-3.69.2-4.99-.47-2.67-7.1-12.65-15.59-23.53-14.98-19.29-39.74-45-57.52-59.78-22.99-19.15-44.05-33.1-67.58-44.66C346.06 15.2 320.54 7 294.28 2.97 275.47.1 255.43-.73 237.58.65m32.83 14.97c21.27 1.37 39.33 4.8 59.37 11.36a247 247 0 0 1 35.77 14.7c16.55 8.14 30.98 17.04 47.26 29.14 17.86 13.34 35.5 29.35 52.12 47.4 13 14.1 31.47 38.03 30.71 39.88-.47 1.23-10.4 14.3-16.48 21.68-13.34 16.21-32.42 35.64-47.95 48.84-22.1 18.8-45 34.06-67.71 44.94-16.97 8.14-35.3 14.84-51.16 18.67-9.38 2.33-24.56 4.86-34.61 5.88-11.22 1.1-34.2.9-46.17-.34-18.81-1.98-40.15-7.05-58.96-14.09-10.88-4.04-30.65-13.4-41.66-19.7a382 382 0 0 1-33.51-22.43c-27.7-20.73-56.57-49.73-77.5-78.12-4.24-5.67-4.24-5.67-.34-11.28 12.38-17.78 32.9-40.7 51.84-58.07a452 452 0 0 1 34.89-28.32c21.48-15.32 47.2-28.8 69.76-36.66 22.5-7.8 42.69-11.97 64.78-13.4 11.63-.83 17.58-.83 29.55-.08M246.19 59.4c-2.8.34-7.93 1.23-11.35 1.98-25.24 5.61-47.81 21.48-61.97 43.5-15.87 24.56-19.97 54.59-11.42 82.97.75 2.53 3.35 8.55 5.74 13.48 8.28 16.69 19.7 29.68 35.57 40.28 10.05 6.78 24.49 12.38 37.14 14.44 5.54.95 9.78 1.1 19.15.89 10.67-.35 13.07-.62 20.04-2.47a100.4 100.4 0 0 0 38.44-19.49 99 99 0 0 0 25.72-31.33c3.83-7.18 8.28-19.97 9.71-27.97.62-3.15.96-9.99.96-17.79-.07-13.74-.82-18.94-4.44-30.16-2.26-6.84-7.87-18.33-11.77-24.08a108 108 0 0 0-16.48-18.87c-6.16-5.54-15.46-11.97-22.37-15.46a106 106 0 0 0-24.62-8.48c-8.55-1.65-20.93-2.26-28.05-1.44m25.1 16.14a99 99 0 0 1 22.1 7.8c10.87 5.54 21.95 14.84 29.55 24.9 5.26 6.97 11.62 19.97 13.81 28.38A82.7 82.7 0 0 1 322.4 209c-7.39 9.64-19.08 19.22-30.23 24.76-5.82 2.94-14.98 5.88-22.37 7.32-4.79.89-8.62 1.02-17.1.75-8.75-.27-12.31-.68-17.65-2.05-13.88-3.7-25.85-10.47-36.73-20.8-7.45-7.04-12.79-14.02-17.16-22.3a85 85 0 0 1-8.55-25.92c-2.06-13.47-.2-30.23 4.78-42.81a100 100 0 0 1 10.33-18.95c7.53-10.47 20.86-21.55 32.77-27.02 8.68-4.03 15.93-6.02 28.1-7.8 3.77-.54 17.52.28 22.72 1.37" clip-rule="evenodd"/>
</svg>
