<svg xmlns="http://www.w3.org/2000/svg" fill="currentColor" viewBox="-37.23 -88.136 586.441 586.441">
    <path fill-rule="evenodd" d="M149.57.8c-2.43 1.73-2.48 2.38-2.23 26.18.1 12.28.3 22.79.46 23.45.3 1.41 2.98 3.13 5 3.13 1.77 0 4.5-1.57 5.3-2.98.36-.71.51-8.19.4-24.36-.14-23.29-.14-23.29-1.81-24.75A4.9 4.9 0 0 0 152.9 0c-1.16 0-2.68.35-3.33.8M97.42 35.28c-11.87 3.23-19.1 14.55-17.28 27.18a23.7 23.7 0 0 0 13.14 18.04c3.38 1.56 3.59 1.62 10.96 1.67 7.23.05 7.58.1 8.5 1.16.5.65.9 1.46.9 1.82 0 .4.6 1.36 1.32 2.22 1.61 1.97 4.04 2.48 6.46 1.31 1.32-.6 1.97-1.41 2.58-2.98.76-2.02.76-2.27-.3-5.1a16 16 0 0 0-7.94-8.49c-2.42-1.06-3.99-1.16-12.22-.8-3.09.1-4.15-.06-5.81-.92a13.4 13.4 0 0 1-5.76-5.96c-.81-1.51-1.07-2.93-1.07-5.6 0-2.99.26-4.1 1.42-6.32a13.6 13.6 0 0 1 12.02-7.03c2.78 0 8.4 1.72 11.78 3.7 4.04 2.27 10.46 8.94 13.29 13.79a65 65 0 0 1 6.46 16.42c1.06 4.09 1.97 13.44 2.02 20.06 0 3.43.1 3.84 1.52 5.25 1.41 1.41 1.77 1.52 4.14 1.31 2.07-.2 2.88-.55 3.84-1.71 1.27-1.42 1.27-1.42.96-11.57-.25-8.44-.5-11.02-1.56-15.67-3.59-15.16-11.02-27.33-21.73-35.32-3.13-2.37-6.62-4.14-11.17-5.7-4.85-1.67-11.87-2.03-16.47-.76m96.76-.15c-6.92 1.51-15.26 6.61-21.07 12.83-7.33 7.98-12.98 19.96-15.06 31.83-1.26 7.63-1.87 20.36-1 22.94.7 2.12 2.62 3.38 5.1 3.38 1.92 0 4.34-1.2 5.05-2.47.25-.56.5-3.39.5-6.37 0-10.86 1.67-20.3 5-28.09a47 47 0 0 1 10.42-15.26c5.76-5.5 13.28-8.84 19-8.28 1.56.15 3.63.6 4.64 1.1 2.63 1.27 5.76 4.66 6.67 7.23 1.01 3.08.96 7.48-.2 9.96-1.82 4.09-4.7 6.36-9.15 7.37-1 .26-3.48.2-5.8-.15-3.5-.5-4.45-.45-7.08.3-2.98.86-5.71 2.58-7.43 4.6-1.56 1.77-3.43 5.96-3.43 7.53 0 .86.45 2.27.96 3.13a5.45 5.45 0 0 0 8.84.66c.7-.86 1.31-1.82 1.31-2.22 0-.36.4-1.17.96-1.82.91-1.11 1.21-1.16 8.44-1.21 7.53 0 7.53 0 11.42-1.87a21 21 0 0 0 6.57-4.9 22.3 22.3 0 0 0 5.7-10.41c1.47-5.76.82-12.03-1.91-17.44a24.7 24.7 0 0 0-16.42-12.58c-3.5-.7-8.19-.65-12.03.2m168.8 47.44c-2.11.96-2.97 2.07-4.49 5.86-2.52 6.22-3.38 10.46-3.69 17.94-.25 5.96-.1 7.98.86 12.88a66 66 0 0 0 9.2 23.1c4.9 7.57 13.49 15.45 22.13 20.2a69 69 0 0 0 17.18 6.12c4.3.9 4.3.9 4.14 3.63-.45 7.33-3.44 17.13-7.68 25.01-6.82 12.79-17.23 22.14-29 25.98a55.3 55.3 0 0 1-32.04 1c-4.8-1.2-11.82-4.54-16.52-7.88-5.56-3.99-15.05-12.58-29.8-26.98a887 887 0 0 0-18.96-18.14 255 255 0 0 0-22.98-18.44c-16.78-11.72-37.04-21.52-55.33-26.73-19.25-5.45-40.07-7.88-58.96-6.82-4.96.25-10.82.71-13.04 1.01-13.7 1.77-26.93 4.95-38.1 9.1-12.58 4.7-26.78 12.68-36.68 20.56-5.56 4.45-14.7 13.54-19 18.9C17.3 185.03 8.5 203.72 3.55 225.6.97 236.87.36 242.32.1 256.27c-.25 11.62-.1 14.9.8 23.5 1.07 9.54 1.22 10.2 3.09 14.09 2.12 4.35 5.1 8.08 7.73 9.75 1.21.76 2.12 2.17 3.64 5.46 3.89 8.69 10.56 19.4 17.38 27.94 11.67 14.6 27.89 28.34 45.27 38.3 19.7 11.27 44.56 19.5 68.46 22.79 10.92 1.51 16.37 1.81 31.33 1.76 17.28 0 26.17-.7 39.66-2.98a271 271 0 0 0 28.7-6.82c4.65-1.46 4.65-1.46 7.43.5 7.22 5.21 19.2 11.27 27.79 14.15 11.97 4.05 22.89 5.82 32.59 5.41 3.33-.15 7.88-.66 10.1-1.11 5.56-1.16 11.17-3.59 13.75-5.96a12.6 12.6 0 0 0 4.4-9.96c-.06-4.5-1.68-7.63-5.87-11.21-3.99-3.34-13.03-12.33-13.03-12.94 0-.25 2.57-1.31 5.7-2.37 30.78-10.31 55.38-24.66 75.7-44.06 8.68-8.34 18.38-20.31 25.5-31.48 10.57-16.52 18.5-35.22 23.6-55.83 4.85-19.35 6.27-32.34 5.71-52.85-.3-12.99-.3-12.99 2.08-13.34 4.14-.6 10.6-2.68 15.56-5 11.77-5.5 22.28-15.61 27.99-26.83 3.03-6.01 3.94-8.44 5.5-14.1 1.27-4.75 1.37-5.8 1.32-14.7 0-9-.1-9.9-1.36-14.1-1.82-5.91-3.8-9.85-5.56-11.16a6.6 6.6 0 0 0-3.54-1.01c-1.72 0-2.88.5-6.06 2.67a77 77 0 0 1-7.63 4.4c-4.8 2.27-11.98 4.14-18.5 4.8-8.94.9-15.5 2.93-21.47 6.72-4.3 2.68-9 6.72-11.62 9.9-2.52 3.03-2.52 3.03-6.11-.86a60 60 0 0 0-7.63-6.77c-7.53-5.4-14.7-8.03-24.7-9a76 76 0 0 1-9.4-1.5 59 59 0 0 1-16.83-7.84c-3.59-2.52-6.22-3.18-8.6-2.07m8.65 14.96c6.97 4.09 15.16 6.51 25.16 7.57 6.52.66 11.98 2.28 16.47 4.9 1.82 1.07 5.26 3.85 7.63 6.22 3.44 3.39 4.75 5.15 6.22 8.19 1 2.17 2.47 4.4 3.18 4.95 1.72 1.36 4.65 1.31 6.42-.05.75-.61 1.92-2.28 2.52-3.7 1.52-3.33 5.2-8.23 8.5-11.16a39 39 0 0 1 13.03-7.53c2.17-.7 6.16-1.46 9.34-1.82 6.62-.6 7.43-.75 12.64-2.27a55 55 0 0 0 13.38-5.6c2.43-1.42 3.24-1.67 3.54-1.17.96 1.52 1.77 7.68 1.72 13.09-.05 4.5-.35 7.02-1.36 11.06-1.47 5.71-5 13.4-8.4 17.89-3.18 4.34-8.48 9.3-13.38 12.53-6.97 4.6-14.15 7.07-23.4 7.98-4.09.4-4.5.56-5.86 2.07-1.46 1.67-1.46 1.72-1.16 6.27.15 2.52.46 10.5.6 17.73.26 10.46.16 14.86-.55 21.48a204 204 0 0 1-6.11 31.93c-8.54 29.76-22.08 53.46-42.14 73.72a158 158 0 0 1-21.98 18.7 196 196 0 0 1-34.81 18.99c-6.42 2.63-23 8.44-25.42 8.9-1.61.3-1.66.3-7.52-8.4-6.67-9.8-10.06-14.1-16.58-21.17-5.05-5.45-6.72-6.41-9.6-5.45-2.57.8-3.58 2.22-3.58 5 0 2.27.15 2.53 5.05 7.93 6.52 7.18 11.27 13.44 18.95 24.91a243 243 0 0 0 10.15 14.2c4.04 5.05 9.95 10.86 14.25 14.1 2.58 1.92 3.38 3.63 2.32 4.9-2.17 2.62-9.65 4.34-18.9 4.34-12.83.05-25.61-3.18-38.8-9.8-10.5-5.25-17.73-10.36-25.87-18.4-10.4-10.2-18.8-24.04-23.44-38.6a362 362 0 0 1-2.32-7.77 7 7 0 0 0-1.77-2.88c-1.11-1.17-1.92-1.47-3.54-1.47-1.77 0-2.43.3-3.9 1.77-1.7 1.72-1.76 1.92-1.5 4.45.15 1.46.85 4.54 1.61 6.82.76 2.32 1.26 4.34 1.11 4.44-.35.36-11.52-4.3-18.29-7.63-10.46-5.15-22.18-12.83-32.59-21.42-2.07-1.72-4.7-3.39-5.76-3.69-1.72-.5-2.32-.45-4.8.46-12.83 4.85-16.01 5.9-20.92 7.22a149 149 0 0 1-25.71 4.1c-12.94.95-30.72-.76-44.92-4.35-12.38-3.13-25.82-8.03-35.57-13.04-3.59-1.82-5.86-3.38-7.88-5.45-1.72-1.72-3.19-3.8-3.64-5.1-2.48-6.78-3.39-32.65-1.67-46.14 3.49-27.74 14.3-52.75 30.42-70.48a116 116 0 0 1 35.32-26.53c9.2-4.5 17.83-7.68 27.73-10.1 19.46-4.8 42.5-6.02 62.86-3.29a170 170 0 0 1 64.42 22.29c7.93 4.7 12.38 7.68 19.65 13.23 10.61 7.99 17.13 14 43.05 39.41 6.87 6.72 15.67 14.45 20.62 18.14A67 67 0 0 0 341 236.21c2.07.45 7.02.96 10.91 1.11 5.46.2 8.4.1 12.38-.55 5.96-1.01 12.58-3.09 17.23-5.41a66 66 0 0 0 22.74-19.15c7.27-9.75 12.48-22.33 14.55-35.17.3-2.02.6-6.16.66-9.24.1-5.56.1-5.56-1.47-7.18-1.46-1.41-2.02-1.61-6.06-2.02-9.4-.96-18.5-4.34-25.52-9.6-3.89-2.88-9.6-8.69-11.97-12.28a59 59 0 0 1-6.37-13.03 63 63 0 0 1-2.07-9.3c-.66-4.4-.7-6.42-.3-9.6.65-5.3 1.56-9.3 2.07-9.3.2 0 1.97.91 3.84 2.03M35.73 315.99c5.86 2.27 16.22 5.4 23.3 7.18 5.55 1.36 5.55 1.36 7.32 3.94 2.88 4.34 9.8 12.38 15.97 18.49a191 191 0 0 0 48.25 34.91c4.2 2.12 7.93 3.94 8.33 4.1s.61.4.46.6c-.56.6-15.46-3.08-24.96-6.11a189 189 0 0 1-22.99-9.5 158 158 0 0 1-38.45-26.93c-5.76-5.46-13.7-14.9-18.5-22.03-3.33-4.85-4.14-6.37-3.48-6.37.1 0 2.27.76 4.75 1.72m122.22 2.73a169 169 0 0 0 40.02 24.66c5.81 2.52 15.1 5.86 21.07 7.52.35.1 1.52 1.87 2.68 3.9 1.1 2.07 3.99 6.56 6.36 10 4.35 6.21 4.35 6.21-1.61 5.91-6.82-.4-18.7-2.22-28.05-4.4a162 162 0 0 1-26.17-8.69c-8.08-3.53-19.15-9.9-25.61-14.7-5.61-4.2-18.35-16.42-18.35-17.63 0-.46 2.28-1.37 6.52-2.53 3.59-1.06 9.2-2.88 12.48-4.1a70 70 0 0 1 6.87-2.32c.46 0 2.18 1.07 3.8 2.38M121.12 332c4.45 5.3 9.9 10.6 16.27 15.66 6.16 4.95 11.06 8.19 18.8 12.48a124 124 0 0 0 23.14 10.46c15.05 5.25 33.6 8.9 49.41 9.7 3.39.15 6.32.5 6.42.7.2.31-5.26 1.78-13.4 3.5a303 303 0 0 1-23.74 3.53c-11.17.96-16.02.6-27.13-2.22-6.42-1.62-18.8-5.96-26.63-9.35-18.9-8.13-38.45-21.32-53.36-36.02-6.92-6.78-12.42-12.89-12.02-13.34.15-.16 4.14 0 8.8.35 8.08.56 19.14.35 25.96-.5 1.72-.2 2.98-.16 3.34.15zm48.6-77.4c-4.09 1.3-7.62 4.54-8.84 8.08-1 3.08-.96 7.42.2 9.95 1.22 2.68 3.9 5.3 6.73 6.72 1.61.76 3.18 1.06 5.76 1.06 2.77 0 4.09-.25 6.16-1.31 2.83-1.42 4.65-3.24 6.27-6.42 1.36-2.78 1.41-7.43.05-10.51-1.22-2.68-4-5.56-6.62-6.82-2.02-1.01-7.68-1.42-9.7-.76" clip-rule="evenodd"/>
</svg>
