<svg xmlns="http://www.w3.org/2000/svg" fill="currentColor" viewBox="-29.367 -42.406 570.733 570.733">
    <path fill-rule="evenodd" d="M34.94.45a42 42 0 0 0-17.3 7.11C9.14 13.41 3.69 21.48.97 32.22 0 35.9 0 41.04 0 243.22c0 207.22 0 207.22 1.1 211.5 2.98 11.4 11 21.63 20.93 26.73 1.57.85 4.64 2.11 6.8 2.87 3.94 1.41 3.94 1.41 225.68 1.56 221.74.1 221.74.1 225.83-.95 8.37-2.12 14.27-5.7 20.77-12.6a32 32 0 0 0 6.4-9.29 42 42 0 0 0 3.48-9.88c.96-4.64 1.01-9.12 1.01-209.59 0-147.93-.15-205.86-.55-208.48-1.21-7.66-5.1-15.68-10.74-21.88-2.68-2.98-8.07-7-11.7-8.87A49 49 0 0 0 476.7.45C474.49.15 402.19 0 255.37 0 135.42.05 36.25.25 34.94.45m129.58 64.9-.16 46.78H18.16V74.06c0-38.06 0-38.06 1.1-40.83 1.56-3.79 5.3-8.32 8.97-10.8 5.85-3.98 1.67-3.78 73.01-3.78l63.38-.05zm164.36 0-.15 46.78H183.02l-.15-46.79-.1-46.74h146.21zM477.31 19.5c1.82.56 4.49 1.72 5.9 2.57a24 24 0 0 1 10.14 14.52c.35 1.57.45 15.48.4 38.98l-.15 36.55H347.39L347.22 66c-.05-25.36 0-46.44.15-46.8.15-.44 13.31-.6 63.38-.6 59.85 0 63.38.05 66.55.91M164.36 178.18v47.4l-73.2.14-73.26.1v-47.29c0-26.01.15-47.5.35-47.64.15-.2 33.13-.3 73.2-.26l72.91.16zm164.52.1.1 47.54H182.77v-47.29c0-26.01.15-47.5.35-47.64.15-.2 33.02-.3 72.96-.26l72.65.16zm164.87.05.1 47.5-73.2-.1-73.27-.16-.15-46.89c-.05-25.81 0-47.19.15-47.54.15-.5 15.08-.6 73.21-.5l73 .15zm-166.33 65.95c1.56.3 1.56.3 1.56 47.4v47.08H182.77v-94.28l70.99-.15c39.02-.05 71.19-.15 71.49-.25.3-.05 1.31.05 2.17.2m164.56.2c1.87 0 1.87 0 1.87 47.14v47.14l-73.2-.1-73.27-.15-.15-46.99-.1-47.04 70.44-.15c38.77-.05 70.93-.05 71.49 0 .55.1 1.87.15 2.92.15m-327.46 46.99-.16 47.04-73.2.15-73.26.1v-94.28h146.72zm-.16 120.9v55.21l-62.01.15c-42.1.1-63.07-.05-65.3-.4a23.3 23.3 0 0 1-18.45-16.84c-.55-2.07-.7-11.1-.7-47.8 0-45.22 0-45.22 1.16-45.42.6-.1 33.58-.2 73.2-.16l72.1.05zm164.52.15.1 55.31-72.95-.1-73.01-.15-.15-55.06c-.1-55.05-.1-55.05 1-55.25.66-.1 33.48-.16 73.01-.16l71.85.05zm164.72-8.72c0 46.64 0 46.64-1.62 50.07-2.16 4.54-6.85 9.48-10.94 11.44-1.71.8-4.53 1.72-6.35 2.02-2.22.35-23.2.5-65.3.4l-62-.15-.16-54.7c-.05-30.1 0-55 .15-55.31.15-.5 15.73-.6 73.21-.5l73 .1z" clip-rule="evenodd"/>
</svg>
