<svg xmlns="http://www.w3.org/2000/svg" fill="currentColor" viewBox="-0.654 -99.528 513.298 513.298">
    <path fill-rule="evenodd" d="M249.04.06c-7.98.4-19.04 1.31-24.24 2.02a273 273 0 0 0-69.43 18.94c-8.43 3.53-24.74 11.86-34.09 17.37-24.39 14.34-50.8 35.1-72.96 57.31-16.62 16.62-29.04 31.46-44.6 53.18-5.1 7.17-5 10.85.51 18.68 10.96 15.45 29.85 37.22 46.4 53.37a379 379 0 0 0 37.83 32.68 301 301 0 0 0 19.19 13.48 311 311 0 0 0 37.62 21.41 265 265 0 0 0 79.53 23.83c4.2.56 12.88 1.32 19.34 1.62 28.99 1.41 57.82-2.27 86.96-11.21 38.88-11.97 78.92-35.25 114.12-66.35 9.44-8.39 30.35-29.4 37.92-38.18 10.25-11.87 25.76-31.61 27.63-35.14 1.2-2.28 1.56-5.3.9-7.78-1.26-4.85-12.67-20.7-26.35-36.66-12.28-14.24-28.18-30.5-40.1-40.9-17.12-15-36.3-28.99-54.54-39.75-6.76-3.98-22.87-12.22-30.55-15.65-11.16-5-29.84-11.41-41.9-14.44-14.15-3.59-30.3-6.21-43.69-7.07-9.74-.66-20.85-.96-25.5-.76m28.28 16.11c19.95 1.87 34.49 4.95 53.53 11.21 24.23 7.98 47.72 19.7 69.88 34.84a356 356 0 0 1 48.99 40.3c10 9.75 22.11 22.93 28.98 31.51 4.7 5.9 14.64 19.19 16.77 22.42.85 1.36.85 1.36-5.36 9.6a380 380 0 0 1-22.62 27.36 393 393 0 0 1-54.84 50.3 399 399 0 0 1-26.76 17.98c-22.78 13.58-47.02 23.83-70.55 29.89a259 259 0 0 1-37.26 6.61c-9.6.91-26.06 1.17-35.86.56-14.34-.96-22.27-2.07-36.6-5.2-14-3.03-31.57-8.74-45.2-14.64a391 391 0 0 1-25.25-12.53c-21.3-11.76-45.85-29.74-65.4-47.77-8.17-7.62-23.57-23.33-30.09-30.75C30.6 177.5 16 158.98 16 157.86c0-1.2 11.66-16.66 20.35-27.01 32.11-38.13 71.3-69.79 110.59-89.28a256 256 0 0 1 49.33-18.53c13.89-3.59 24.24-5.46 36.86-6.57 3.49-.3 7.12-.65 8.08-.75.96-.05 7.68-.2 14.9-.2 8.43-.06 16 .15 21.2.65M250.8 59.19c-11.62 1.11-21.82 3.29-29.8 6.47-17.67 6.97-32.06 17.87-43.93 33.33-7.22 9.34-13.43 22.21-16.66 34.33-2.58 9.7-3.23 14.7-3.18 25.25 0 7.47.25 10.9 1.1 15.5 3.85 21.57 13.14 39.34 28.54 54.7a111 111 0 0 0 10.15 8.93c14.29 10.65 30.55 17.17 47.47 19.09 2.52.25 7.82.5 11.86.5a91 91 0 0 0 31.06-5.25 85 85 0 0 0 17.12-7.88 101 101 0 0 0 35.45-34.44c5.9-9.59 10.9-22.62 12.87-33.73 1.47-8.18 1.82-22.01.76-30.04-1.92-14.55-7.47-29.6-15.3-41.41-11.36-17.22-28.58-31.26-47.62-38.78-5.35-2.17-9.5-3.33-15.9-4.65-9.25-1.82-17.83-2.52-24-1.92m13.03 15.35c6.56.71 11.16 1.67 16.81 3.54a87 87 0 0 1 30.3 17.27 84.5 84.5 0 0 1 28.23 53.12c.86 6.77.4 19.24-.96 26.16a97 97 0 0 1-6.26 19.09c-3.94 8.63-10.81 17.97-18.49 25.3a86.5 86.5 0 0 1-43.73 22.16c-5.3.91-7.32 1.01-16.15.81-11.16-.25-15.4-.96-24.75-4.09-10.7-3.58-21.56-10.2-30.2-18.48-8.28-7.88-13.23-14.44-18.02-23.83a96 96 0 0 1-7.32-20.86c-1.22-6-1.77-16.31-1.22-22.72.56-6.77.76-7.78 2.33-14.14 2.32-9.34 6.26-18.08 12.12-26.82a97 97 0 0 1 13.28-15.2 84 84 0 0 1 29.74-17.32c12.02-3.99 22.82-5.25 34.29-3.99" clip-rule="evenodd"/>
</svg>
