<svg xmlns="http://www.w3.org/2000/svg" fill="currentColor" viewBox="-88.02 -37.487 586.977 586.977">
    <path fill-rule="evenodd" d="M244.75.5c-1.26.4-2.62 1.01-3.07 1.36-1 .81-7 10.03-10.02 15.47a173 173 0 0 0-9.52 21.36 97 97 0 0 0-5.4 36.47c.36 7.8 1.32 15.66 2.63 21.05 4.13 17.33 11.68 34.4 24.43 55.16 1.66 2.67 2.97 5.04 2.97 5.34 0 .25-3.68.86-8.16 1.36-23.73 2.52-38.74 5.7-53.75 11.39a131 131 0 0 0-22.92 11.03c-14 8.51-24.58 18.23-33.1 30.32-4.58 6.55-7.55 12.14-10.83 20.2a89 89 0 0 0-6.1 24.84c-.65 6.35-.7 8.76-.2 15.31.71 9.17 1.97 16.17 4.39 24.43 3.12 10.68 6.7 19.45 13 32.2 3.42 6.84 6.04 12.59 5.84 12.69-.2.15-3.02.45-6.25.75-9.72.86-21.4 2.47-27.8 3.78a145 145 0 0 0-48.06 19.65 151 151 0 0 0-22.22 18.18C19.13 394.58 7.3 412.11 1.7 425.61c-1.56 3.73-1.81 4.93-1.66 7.05a9 9 0 0 0 1.3 4.13c1.42 1.97 4.29 3.33 7.01 3.28 2.82 0 6.1-1.87 7.2-4.14.5-.95 2.52-5.03 4.54-9.01 8.61-17.28 20.1-31.59 34.75-43.17 5.4-4.28 10.89-7.66 19.15-11.74 14.66-7.25 30.22-11.43 51.63-13.9 10.33-1.16 19.4-1.61 20.2-1.01 1.66 1.2 10.78 16.88 15.57 26.7 6.2 12.64 9.82 23.12 12.03 34.25 2.67 13.65 2.12 30.43-1.46 44.63-2.57 10.08-8.46 24.03-13.75 32.6-1.4 2.26-2.87 5.03-3.17 6.09a7.6 7.6 0 0 0 1.71 7.46c2.92 3.32 6.95 4.08 10.93 2.06 2.47-1.26 3.02-2.11 8.62-12.74 4.38-8.37 7.45-15.62 9.67-22.92 4.18-13.45 5.84-22.77 6.24-34.56.56-15.67-1.66-28.91-7.4-45.08-3.43-9.63-9.32-21.92-16.52-34.46a55 55 0 0 1-2.62-4.84c0-.2 1.5-.5 3.42-.65 19.45-1.97 28.56-3.33 40.4-6.1 19.04-4.38 35.52-11.33 50.12-21.05 8.01-5.4 17.63-14.06 23.68-21.51a97.4 97.4 0 0 0 18.84-39.44c2.37-10.99 2.57-24.49.55-36.43-1.05-6.3-2.11-10.37-4.53-17.68-3.53-10.78-7.76-19.64-16.72-35.1-1.92-3.28-3.38-6.1-3.23-6.2.1-.15 2.92-.56 6.2-.96 9.57-1.16 23.62-3.63 30.32-5.24 13.1-3.22 28.26-8.92 37.08-13.95 11.94-6.85 18.54-11.84 27.25-20.5 13.7-13.76 23.07-28.87 30.48-49.37 1.6-4.43 1.81-6.6.75-9.02-1.46-3.37-5.69-5.84-9.01-5.14-2.27.5-5.24 2.27-6.2 3.68-.4.66-1.31 2.82-1.97 4.79a113 113 0 0 1-10.98 23.97c-6.24 10.03-16.12 20.91-25.03 27.56q-15.63 11.79-36.78 18.74c-8.5 2.87-15.36 4.48-26.95 6.45-7.65 1.3-25.28 3.22-26.19 2.87-1.36-.5-13.4-20.35-18.64-30.63-5.19-10.23-8.16-17.53-10.58-25.94-2.97-10.33-3.52-14.61-3.52-26.95 0-8.57.2-12.1.9-15.62a138 138 0 0 1 5.24-18.13c2.22-5.8 7.2-15.22 11.49-21.61 3.73-5.64 3.98-6.2 3.98-8.62-.1-4.73-2.62-7.7-7.26-8.46-.95-.15-2.77.05-4.03.45m14.51 173.84c.5.81 3.02 4.84 5.5 8.97a251 251 0 0 1 12.48 23.68 137 137 0 0 1 6.3 17.83c2.52 9.27 3.23 14.1 3.23 23.72 0 7.36-.16 9.73-1.16 14.31-4.28 20.15-14.71 36.17-32.04 49.22a137 137 0 0 1-20.7 12.34c-10.48 4.73-25.24 9.06-39.25 11.48-10.22 1.72-25.48 3.33-32.99 3.48-6.15.1-6.15.1-9.67-5.95-8.31-14.1-15.22-29.57-18.74-41.9a85 85 0 0 1-3.53-25.1c0-8.6 1.01-15.81 3.28-23.52 1.6-5.49 5.08-13.45 7.6-17.63 6.55-10.88 17.79-22.01 29.62-29.42 11.64-7.3 26.6-13.14 43.12-16.77 8.06-1.76 16.32-3.07 29.17-4.53 16.72-1.92 16.57-1.92 17.78-.2m-67.65 20c-.8.35-2.02 1.21-2.62 1.87-1.46 1.6-2.37 4.98-1.96 7.2a8.2 8.2 0 0 0 3.92 5.19c1.21.6 24.03 10.83 39.7 17.73 17.68 7.86 22.01 9.77 27.96 12.54 4.48 2.07 6.65 2.77 8.36 2.77a8 8 0 0 0 6.9-3.72c1-1.42 1.16-2.22 1-4.54-.3-4.18-1.4-5.44-7.55-8.1-7.15-3.18-55.51-24.8-63.87-28.57-7.1-3.17-9.07-3.58-11.84-2.37m-36.42 34.56c-2.17.5-4.94 3.17-5.7 5.39-.3.96-.4 2.57-.2 3.83.26 1.5.91 2.62 2.27 3.88 1.01.95 2.97 2.21 4.33 2.72 1.36.55 3.93 1.66 5.75 2.46l18.13 8.16c8.16 3.68 22.47 10.13 31.74 14.36s18.48 8.36 20.4 9.17c1.96.86 7.45 3.32 12.29 5.54 4.79 2.22 9.52 4.13 10.43 4.28a7.4 7.4 0 0 0 6.95-2.21c2.16-2.22 2.97-4.69 2.32-7.4-.86-3.89-.66-3.79-34.26-18.8-4.03-1.81-13-5.84-20-9.02a497 497 0 0 0-12.9-5.74c-.14 0-2.71-1.16-5.68-2.57-11.19-5.24-31.44-14.05-32.8-14.25a8 8 0 0 0-3.07.2m-11.94 46.54c-1.86.81-4.18 3.43-4.58 5.14-.5 1.87.1 5.24 1.16 6.65 1.3 1.76.45 1.36 27.6 13.6 3.07 1.36 14.86 6.7 26.3 11.89 11.43 5.14 21.4 9.37 22.16 9.37 2.17 0 5.8-2.07 7.05-3.98 1.97-2.87 1.36-7.4-1.16-9.72-.95-.8-16.37-7.91-60.14-27.7-12.95-5.85-15.47-6.6-18.39-5.25M256.04 39.9c-3.63 1.7-5.24 4.98-4.54 8.91.6 3.18 2.42 4.49 12.4 8.82 5.13 2.26 13.4 5.94 18.38 8.16 17.68 7.86 22.32 9.92 34.76 15.41 6.95 3.08 15.77 6.95 19.65 8.72 25.84 11.43 26.09 11.53 27.85 11.53 2.22 0 5.75-2.06 6.85-3.98 1.87-3.22.91-8.56-1.86-10.32-1.06-.7-6.2-3.08-17.98-8.26a2267 2267 0 0 1-18.64-8.17c-12.55-5.49-57.23-25.28-66.24-29.31a31 31 0 0 0-6.55-2.27 8.4 8.4 0 0 0-4.08.76m-7.76 47.05c-2.47 1.25-4.53 4.23-4.53 6.54 0 2.12 1.46 5.34 2.97 6.4 1.3.9 4.13 2.22 24.98 11.39 6.1 2.67 16.17 7.15 22.42 9.92s16.37 7.3 22.52 10.02c7.4 3.28 11.78 5 13 5 3.57 0 7.2-2.78 8-6.2.46-1.87-.45-5.04-1.96-6.8-.76-.91-3.28-2.37-6.65-3.88a543 543 0 0 1-10.13-4.64c-2.62-1.16-4.83-2.17-4.93-2.17-.15 0-7.56-3.27-19.85-8.81-23.47-10.53-39.9-17.53-41.56-17.73a7 7 0 0 0-4.28.96M78.72 377.7c-.85.4-2.21 1.56-3.02 2.62-1.16 1.51-1.46 2.42-1.46 4.49 0 1.96.3 3.07 1.3 4.58 1.12 1.66 2.28 2.42 7.82 4.94 14.05 6.44 33.2 15.26 42.76 19.7 24.28 11.23 27.96 12.84 29.77 12.84a8.8 8.8 0 0 0 6.25-2.87c2.52-3.23 2.17-8.06-.7-10.63-.86-.76-5-2.92-9.12-4.84l-14.86-6.85c-4.03-1.86-13.1-6.1-20.15-9.32-7.05-3.27-17.43-8.06-23.02-10.63-10.73-4.98-12.4-5.39-15.57-4.03m-37.48 35.52c-2.67 1.4-4.03 3.72-4.03 6.85 0 4.78.5 5.19 15.62 12.24l18.13 8.41c2.62 1.2 10.48 4.84 17.38 8.06 6.95 3.22 16.93 7.9 22.17 10.33 5.29 2.47 15.46 7.2 22.67 10.52 8.96 4.19 13.65 6.1 14.86 6.1 2.62 0 6.04-1.91 7.15-4.03 1.26-2.47 1.16-6-.2-8.11-1.21-1.81-3.93-3.32-18.04-9.82l-19.14-8.87c-6.5-3.02-16.37-7.66-21.91-10.22-21.61-10.08-33.35-15.52-36.02-16.63-1.5-.65-4.88-2.21-7.5-3.47-5.4-2.62-8.16-2.98-11.14-1.36" clip-rule="evenodd"/>
</svg>
