<svg xmlns="http://www.w3.org/2000/svg" fill="currentColor" viewBox="-30.493 -100.65 572.988 572.988">
    <path fill-rule="evenodd" d="M266.1 1.2a712 712 0 0 0-19.5 7.65c-28.57 11.5-72.28 29.08-90.42 36.32-9.72 3.85-18.99 7.55-20.5 8.2-1.53.66-13.48 5.42-26.6 10.7-13.12 5.2-32.37 12.9-42.8 17.06-10.44 4.2-27.76 11.1-38.45 15.4-10.73 4.3-20.36 8.36-21.42 9.06-6.08 4.06-8.2 13.33-4.76 20.62.76 1.57 2.07 3.55 2.99 4.3.9.82 12.15 7.75 24.97 15.45 12.76 7.65 28.62 17.22 35.15 21.18 6.53 4 14.23 8.66 17.07 10.33 6.03 3.6 5.62 2.38 4.46 13.02-.4 3.74-1.68 15.34-2.79 25.78-1.11 10.43-2.63 24-3.3 30.13-.7 6.13-1.71 15.7-2.27 21.28-.56 5.57-1.27 12.4-1.57 15.2-.3 2.78-.4 6.17-.2 7.49.4 3.19 2.22 7.34 5.01 11.2 2.94 4.1 10.48 11.34 16.77 16 15.2 11.3 36.21 21.73 58.75 29.12 7.95 2.59 26.44 7.25 34.95 8.82a313 313 0 0 0 63.57 4.9c30.94-.75 56.88-5.1 82.81-13.72 14.44-4.8 25.58-9.82 36.22-16.26 6.58-3.95 12.91-8.96 15.7-12.5 2.38-3 4.3-6.44 4.76-8.72.15-.86 1.67-15.45 3.34-32.42 3.35-33.98 6.28-62.95 7.3-72.58.35-3.44.9-6.48 1.16-6.73.46-.46 15.25-6.59 29.78-12.36 3.1-1.22 9.22-3.75 13.68-5.57 13.32-5.53 14.49-5.98 14.79-5.63.35.36-.2 6.69-2.89 33.99-.8 8.05-1.82 18.8-2.28 23.8-.45 5.02-1.01 9.27-1.16 9.43-.2.2-1.52.7-2.94 1.16a25 25 0 0 0-4.96 2.38 28 28 0 0 0-9.02 9.78 26 26 0 0 0-2.68 13.47c.35 3.4 2.07 8.56 3.6 10.9.8 1.26.8 1.4-2.03 7.34-3.4 7.19-8.61 22.48-11.4 33.48-2.99 11.75-7.5 35.2-7.95 41.48-.26 2.73-.1 3.54.8 4.96a6.6 6.6 0 0 0 2.7 2.33c.85.4 4.7.81 8.45 1.02s13.22.65 21.02 1.06c29.73 1.47 28.32 1.47 30.04.56a10 10 0 0 0 2.73-2.44c1.17-1.67 1.17-1.67 1.17-21.42 0-20.41-.46-28.52-2.33-41.53-1.17-7.96-1.88-11.5-3.8-18.39-1.37-4.71-1.37-4.71.25-6.69a25.4 25.4 0 0 0 4.91-10.79c.87-4.15.61-7.95-.86-12.81-1.57-5.17-5.72-9.98-10.99-12.92-2.18-1.16-3.14-2.02-3.14-2.68 0-.56.26-2.94.5-5.32.46-3.9 3.3-32.92 5.38-54.75 1.42-15.4 0-13.17 11.34-17.78 16.52-6.69 16-6.43 18.5-9.17a20 20 0 0 0 3.23-5.27c2.08-5.42 1.02-12.25-2.48-16.5-.86-1.07-3.8-3.2-6.48-4.77-12.31-7.2-17.63-10.33-25.43-14.9a4345 4345 0 0 0-29.12-16.96c-2.49-1.42-9.02-5.17-14.44-8.36-5.42-3.14-15.1-8.76-21.53-12.4a3991 3991 0 0 1-29.37-16.97 559 559 0 0 0-10.13-5.78c-3.04-1.77-11.05-6.33-17.73-10.18-6.69-3.85-20.46-11.8-30.64-17.63a3425 3425 0 0 1-35.2-20.36c-2.49-1.52-5.78-3.09-7.3-3.5-4.15-1.2-10.69-1-15 .41m16.2 15.6c5.88 3.6 25.84 15.2 47.36 27.5 19.45 11.15 40.02 22.95 53.95 31 28.72 16.57 40.52 23.36 44.82 25.89 2.64 1.52 7.65 4.4 11.15 6.43s14.53 8.4 24.56 14.28c10.03 5.83 21.43 12.41 25.33 14.6 3.9 2.17 7.5 4.3 8 4.7 1.22 1.07 1.06 2.74-.25 4-.66.56-8 3.8-16.36 7.15l-30.4 12.3c-8.35 3.4-17.37 7-20 8.06a2026 2026 0 0 0-23.3 9.37c-10.18 4.1-25.43 10.28-33.94 13.67a14495 14495 0 0 0-81.3 33.03l-17.21 6.99c-2.23.9-8.82 3.6-14.7 5.92-5.82 2.38-14.53 5.93-19.29 7.96-9.67 4.05-11.75 4.35-15.04 2.43-1.93-1.12-6.49-4.05-35.05-22.54-8.36-5.42-17.12-11.1-19.5-12.56a900 900 0 0 1-12.16-7.75c-4.3-2.79-9.12-5.83-10.64-6.8-1.52-.95-5.72-3.59-9.37-5.92-3.6-2.28-9.87-6.23-13.93-8.7-4.05-2.54-8.15-5.07-9.11-5.73-6.69-4.3-35.71-21.93-75.47-45.74-12.1-7.3-23-13.83-24.21-14.54-1.17-.66-2.28-1.62-2.44-2.02-.2-.4-.15-1.32 0-1.98.2-.91 1.02-1.52 3-2.23 5.62-2.12 19.34-7.54 30.74-12.1 6.53-2.64 17.47-7.04 24.31-9.78 40.07-16 158.64-63.56 177.28-71.11 21.68-8.76 22.08-8.92 25.32-8.76 3 .15 3.75.45 7.85 2.98M101.38 189.52c.6.3 5.88 3.55 11.7 7.2 5.83 3.64 12.56 7.9 15.04 9.42 7.35 4.6 11.55 7.3 17.43 10.99l37.33 23.9c20.61 13.33 35.45 22.65 37.58 23.66 1.42.66 4.1 1.42 5.98 1.72 5.72.91 8.91.1 23-5.62 6.93-2.79 18.99-7.7 26.79-10.84s30.94-12.56 51.4-20.92c20.47-8.36 38.7-15.75 40.53-16.51 1.82-.71 7.75-3.1 13.17-5.32 5.42-2.18 10.03-3.85 10.23-3.65.35.36-.4 8.56-5.62 61.09-1.98 19.75-3.7 37.38-3.85 39.1-.26 2.58-.61 3.45-2.08 5.12-4.05 4.76-13.52 10.99-25.02 16.4-7.1 3.35-21.48 8.82-27.6 10.54-2.23.61-4.97 1.42-6.08 1.78-2.84.9-14.6 3.5-21.53 4.76a332 332 0 0 1-28.37 3.64c-9.72.81-36.1.81-46.6 0-29.47-2.22-59.56-9.47-84.73-20.36-13.68-5.92-25.78-12.96-36.07-20.97-5.37-4.2-12.76-11.9-13.93-14.64-.96-2.17-.96-2.17 2.49-33.78 3.95-35.56 7.14-65.6 7.14-66.8 0-.67.3-.67 1.67.1m365.1 64.84c5.2 1.77 8.2 5.82 8.2 10.99 0 3.5-1.37 6.38-4.2 8.76-3.5 2.99-8.06 3.75-12.06 1.93a12.8 12.8 0 0 1-5.98-5.93c-.4-.91-.7-2.89-.7-4.36 0-4.4 1.87-7.85 5.36-10.03 3.1-1.87 6.43-2.38 9.37-1.36M456.7 289c2.12.66 4.05.76 7.75.56 4.86-.25 4.86-.25 5.41 1.62.87 2.73 2.44 11.2 3.35 17.52 1.31 9.27 1.87 17.99 2.18 34.04.35 17.32.6 16.26-3.7 15.6-2.33-.35-2.33-.35-2.03-9.52.15-5.06.46-11.5.61-14.28.25-4.76.2-5.17-.91-6.84a4.9 4.9 0 0 0-3.1-2.23c-1.56-.4-2.27-.3-3.69.46a6.4 6.4 0 0 0-2.48 2.28c-.46.86-.86 5.52-1.22 14.43-.3 7.24-.55 13.58-.55 14.03 0 .76-.46.91-2.64.91-1.47 0-2.94-.2-3.29-.4-.56-.36-.3-3.1 2.33-21.38.86-5.92.91-6.99.3-8.46-1.36-3.29-6.58-4.1-9.06-1.41-1.17 1.26-1.72 4.15-3.85 20.26-1.52 11.44-1.12 10.38-3.95 10.38-3.95 0-3.95 0-2.64-7.14 3-16.67 8.16-37.58 11.75-47.56 2.28-6.39 5.53-13.68 6.08-13.68.26 0 1.78.36 3.35.81" clip-rule="evenodd"/>
</svg>
