<svg xmlns="http://www.w3.org/2000/svg" width="512" height="410" fill="currentColor" viewBox="0 0 512 410">
    <path fill-rule="evenodd" d="M150.73.55a6.6 6.6 0 0 0-2.4 2.03c-.9 1.26-1.02 4.36-1.02 24.74 0 23.28 0 23.28 1.58 24.8a4.9 4.9 0 0 0 3.92 1.58c2.66-.06 3.99-.82 5.13-2.97.57-.95.76-7.91.76-23.6 0-24.1-.13-24.93-3.48-26.45-1.9-.88-2.66-.88-4.5-.13M97.26 35.6c-4.17 1.14-8.22 3.74-11.51 7.34a27 27 0 0 0-4.3 6.84c-1.14 2.78-1.46 4.87-1.4 9.3 0 4.36.32 6.58 1.4 9.3 1.83 4.8 6.7 10.06 11.32 12.34 3.3 1.64 4.24 1.77 10.95 1.83 4.05 0 7.65.25 8.03.5.45.26 1.33 1.59 2.03 2.92 2.21 4.3 5.82 5.06 8.98 1.9 1.7-1.71 1.9-2.28 1.58-4.56-.44-3.3-3.16-7.15-6.7-9.68-2.66-1.84-2.85-1.9-10.38-1.9-8.6 0-10.38-.57-13.41-4.24-2.28-2.72-2.98-4.62-2.98-8.48 0-5.25 2.72-9.49 7.66-11.95 1.58-.83 3.29-1.02 6.64-.83 3.42.2 5.5.7 8.6 2.22 8.23 3.92 15.44 12.53 19.43 23.1 2.85 7.52 3.92 12.96 4.3 22.45.26 4.5.5 8.73.7 9.5.38 1.89 3.67 3.6 5.88 3.03.89-.25 2.28-1.01 3.1-1.71 1.27-1.27 1.4-1.9 1.4-8.8 0-13.6-2.22-23.72-7.6-34.41-3.8-7.53-8.03-13.04-13.66-17.65-9.3-7.72-20.76-10.89-30.06-8.36m95.98.07c-9.1 2.34-19.55 10.37-25.69 20-3.8 5.87-7.71 15.37-9.17 22.07-1.07 5.13-2.02 22.84-1.33 25.56.32 1.2 1.14 2.03 2.66 2.66 1.77.76 2.72.82 4.43.25 1.2-.44 2.4-1.2 2.72-1.77.25-.57.7-4.93.88-9.62.26-4.68.7-10.25 1.08-12.33a61 61 0 0 1 5.95-17.09c1.9-3.73 3.92-6.45 7.65-10.12 3.3-3.35 6.4-5.76 8.86-6.96 3.29-1.64 4.5-1.9 9.24-1.9 4.8 0 5.7.2 7.97 1.71 1.77 1.14 3.16 2.85 4.3 5.25 1.4 2.85 1.71 4.12 1.46 6.65-.45 4.17-3.23 8.66-6.52 10.37-2.21 1.14-3.42 1.33-9.3 1.14-7.6-.19-9.62.38-13.29 3.6-2.84 2.47-5.18 7.66-4.62 10.26a6.6 6.6 0 0 0 2.03 3.1c2.34 1.83 5 1.64 7.21-.57 1.01-1.01 1.84-2.28 1.84-2.79 0-2.02 1.9-2.59 9.36-2.59 6.64-.06 7.78-.25 11-1.77 4.5-2.09 8.74-6.33 11.08-11.14 1.65-3.29 1.77-4.24 1.77-10.56 0-6.4-.12-7.28-1.83-10.7a29 29 0 0 0-4.62-6.57 29 29 0 0 0-7.02-4.75c-3.42-1.58-5.13-1.96-9.3-2.15-2.98-.06-6.58.25-8.8.76m169.43 47.39c-1.39.63-2.34 1.83-3.6 4.68a73 73 0 0 0-3.1 9.1c-1.08 4.44-1.27 6.46-.95 14.05.25 7.15.63 10 1.96 14.5 1.9 6.38 6.2 15.3 9.55 19.8a62 62 0 0 0 36.63 23.6c5.13 1.13 5.13 1.13 4.94 4.87-.32 7.59-4.24 19.17-9.11 27.26-3.04 5.07-8.6 11.46-12.9 14.8a49 49 0 0 1-16.08 8.55c-4.93 1.65-6.2 1.77-15.5 1.77-8.73.06-10.82-.12-15.18-1.39-6.14-1.77-13.04-5.38-18.98-9.93-5.13-3.93-15.25-13.29-30.06-27.84-12.65-12.47-21.95-20.75-30.55-27.4-12.21-9.42-22.72-15.94-36.5-22.46-13.49-6.45-23.8-10.06-38.6-13.28-12.15-2.72-19.93-3.67-33.6-4.05-19.1-.57-32.08.82-49.6 5.31q-20.49 5.24-36.7 14.74a133 133 0 0 0-20.05 14.43c-11.52 9.8-22.46 24.23-29.93 39.6-4.87 9.87-7.34 16.58-9.8 26.13C1.48 233.2.46 240.91.08 255.6c-.31 13.22.26 23.4 1.78 32.52.88 5.19 3.92 10.5 7.97 14.23 2.65 2.47 4.17 4.62 6.51 9.43a163 163 0 0 0 14.56 23.47c7.46 9.8 20.87 22.78 31.95 30.81a177 177 0 0 0 41.12 21.83c11.26 4.24 27.2 8.35 39.54 10.25 12.66 1.96 21.9 2.47 39.04 2.09 17.14-.32 26.13-1.14 39.29-3.67 7.15-1.33 21.51-5 26.07-6.58 2.65-.95 2.65-.95 7.84 2.47 2.78 1.9 6.7 4.3 8.6 5.37 6.4 3.48 17.28 7.72 25.94 10 7.28 1.9 9.94 2.28 18.04 2.53 7.4.32 10.69.13 14.86-.7a45 45 0 0 0 10.13-3.41c6.13-3.04 8.35-5.95 8.73-11.58.19-2.72 0-4.5-.82-6.2-.64-1.45-4.37-5.57-9.56-10.44-4.68-4.43-8.48-8.29-8.48-8.48 0-.25 2.47-1.26 5.57-2.34 21.9-7.34 42.7-17.78 58.33-29.3 24.49-18.02 44.55-43.52 56.82-72.3 6.2-14.43 11.58-33.54 14.17-50.24 1.2-7.6 1.4-11.52 1.4-27.4.06-18.47.06-18.47 1.39-18.47 2.53 0 12.59-3.23 17.33-5.57 5.44-2.65 13.1-8.22 16.83-12.2a67 67 0 0 0 15.25-26.33c1.58-5.12 1.7-6.45 1.7-16.32.07-10.5 0-10.88-1.96-16.64-1.13-3.23-2.53-6.52-3.1-7.4-1.13-1.77-4.68-3.1-6.58-2.53-.7.19-3.73 1.96-6.77 3.86-6.64 4.17-14.93 6.96-23.4 7.84-12.15 1.33-19.68 4.3-28.16 11.14-2.4 1.9-4.3 3.67-4.3 3.92s-.89 1.4-1.96 2.6c-1.96 2.08-1.96 2.08-6.14-2.28-6.7-6.96-14.36-11.58-22.71-13.73a81 81 0 0 0-9.75-1.59 55 55 0 0 1-25.62-9.3c-1.77-1.2-4.05-2.27-5.06-2.46a7.4 7.4 0 0 0-3.8.57m10.95 15.81c7.34 3.67 12.65 5.25 21.95 6.46 4.18.5 9.37 1.58 11.45 2.27 5.07 1.65 11.58 6.08 15.44 10.44 1.71 1.9 3.92 5.2 4.94 7.28 1.07 2.4 2.4 4.11 3.48 4.68 3.73 1.96 6.07.7 8.79-4.74 2.85-5.7 10.19-12.97 15.75-15.7 5.32-2.53 7.79-3.16 16.58-4.23 8.6-1.14 16.32-3.42 22.59-6.84 3.54-1.96 4.74-2.34 5.18-1.7.83 1.32 1.84 8.28 1.84 12.52 0 5.25-1.58 12.66-3.92 18.22-4.81 11.7-13.48 20.88-24.93 26.64-5 2.53-9.5 3.73-16.39 4.55-4.55.51-5.94.89-7.08 2.1a6 6 0 0 0-1.58 3.28c-.07 1.08.25 7.34.7 13.98.69 9.43.69 14.18.12 21.83-1.27 16.51-3.8 29.86-8.67 44.92-7.02 21.9-16.26 39.1-29.93 56.12-6 7.4-17.96 19.17-25.43 25-12.27 9.48-28.85 18.85-44.22 24.98-10.63 4.24-24.1 8.54-24.68 7.91-.25-.25-2.53-3.67-5.06-7.46a224 224 0 0 0-8.67-12.15c-5.5-7.09-12.78-14.74-14.61-15.44a5.5 5.5 0 0 0-3.74.13 5.1 5.1 0 0 0-3.28 6.45c.25 1.01 2.59 3.99 5.12 6.7 5.57 5.83 11.45 13.55 20.12 26.45 7.65 11.45 13.03 17.84 20.3 24.1 2.92 2.54 5.39 5.13 5.51 5.83.32 1.77-2.97 3.54-8.67 4.8-3.6.83-6.64.96-13.6.7-7.21-.25-10.37-.7-16.51-2.27-29.1-7.66-52.39-27.02-64.6-53.66a153 153 0 0 1-4.74-12.84c-2.34-7.34-2.85-8.35-4.5-9.24a5.5 5.5 0 0 0-3.73-.57c-2.15.51-4.36 3.04-4.36 5.07 0 .82.7 3.8 1.52 6.7.88 2.91 1.45 5.38 1.32 5.5-.44.45-12.14-4.55-19.3-8.16-10.24-5.18-21.38-12.4-28.78-18.6-5.25-4.42-7.97-6-10.19-6-1.2 0-4.49.94-7.33 2.14a140 140 0 0 1-36.13 9.3c-8.98 1.08-29.04.45-38.6-1.26-17.08-3.04-33.46-8.29-47.32-15.31-5.7-2.85-10.25-6.64-11.96-10.06-1.77-3.54-2.84-14.24-2.78-29.42 0-15.75.89-23.1 4.37-36.7 2.53-9.8 5.31-17.33 9.8-26.32a112.4 112.4 0 0 1 38.53-43.65c15.63-10.57 33.79-17.34 55.8-20.94 7.15-1.14 11.14-1.4 25.56-1.4 13.54-.06 18.6.2 24.36 1.08 25.18 3.99 46.57 11.83 67 24.55 15.88 9.93 25.18 17.65 48.66 40.43 9.87 9.55 20.56 19.61 23.72 22.33 14.74 12.6 25.94 17.34 42.83 17.97 6.46.25 9.87.06 14.11-.7 14.24-2.72 25.63-9.3 35.37-20.5a73 73 0 0 0 12.65-20.87c3.17-7.85 4.75-14.37 5.57-23.6.95-10.44.06-12.15-6.96-12.9-6.14-.64-13.6-2.67-17.97-4.88a51.7 51.7 0 0 1-27.96-36.57 40 40 0 0 1-.7-11.07c.38-5.13 1.4-10.44 2.03-10.44.12 0 2.72 1.26 5.82 2.78M36.84 316.9c6.2 2.22 21.26 6.71 24.68 7.34 2.02.32 2.9 1.08 5.38 4.24a201 201 0 0 0 26.95 28.28c11.64 9.68 22.33 16.77 36.7 24.17 5.24 2.72 9.1 4.94 8.66 4.94-1.33 0-13.98-3.1-20.88-5.13-25.94-7.72-50.68-22.46-68.2-40.49a151 151 0 0 1-16-19.49c-3.1-4.55-3.74-5.75-2.8-5.75.26 0 2.73.82 5.51 1.9m128.82 8.36a172 172 0 0 0 37.96 20.94c3.98 1.64 9.23 3.41 11.58 4.05 4.3 1.14 4.3 1.14 7.08 5.88 1.52 2.6 4.3 7.02 6.27 9.8 3.47 5.07 3.47 5.07.7 5.26-5.83.38-27.34-3.17-37.9-6.27-18.67-5.5-34.93-13.66-47.84-24.04-6.64-5.31-16-14.93-15.43-15.81.19-.32.82-.57 1.45-.57 1.46 0 13.16-3.61 20-6.14 5.05-1.9 5.05-1.9 8.22.76 1.77 1.45 5.31 4.17 7.9 6.14m-63.27 2.78c6.07-.25 11.77-.57 12.65-.76 1.33-.25 1.96.13 3.67 2.4 3.36 4.37 13.29 14.18 19.1 18.86 7.28 5.82 15.07 10.63 25.63 15.82 10 5 22.08 9.17 34.23 11.95 9.49 2.22 26.07 4.5 32.52 4.5 2.4 0 4.5.25 4.68.56.7 1.14-22.46 5.64-35.93 6.96-10.32 1.02-14.87.89-22.84-.88-7.98-1.71-21.33-6.01-29.55-9.56a226 226 0 0 1-29.48-15.81 208 208 0 0 1-24.1-18.98c-4.69-4.37-13.99-14.55-13.99-15.38 0-.25 2.78-.19 6.2.13 3.35.32 11.13.38 17.2.19m67.7-73.2c-4.88 1.58-7.91 4.5-9.43 8.86-2.03 6.2.82 12.78 7.02 15.94 3.04 1.52 8.23 1.58 11.58 0 3.1-1.4 6.26-4.87 7.28-7.97 1.77-5.32-1.02-12.28-5.95-15.19-2.98-1.7-7.91-2.53-10.5-1.64" clip-rule="evenodd"/>
</svg>
