<svg xmlns="http://www.w3.org/2000/svg" fill="currentColor" viewBox="-7.753 -56.213 527.505 527.505">
    <path fill-rule="evenodd" d="M104.02 33.2v33.21H67.29c-36.73 0-36.73 0-36.73 1.51s0 1.51 36.73 1.51h36.73l-.1 44.88-.15 44.93-36.58.15c-36.63.1-36.63.1-36.63 1.61 0 1.5 0 1.5 36.73 1.5h36.73V201c0 37.93 0 38.49 1 38.49.5 0 1.21-.46 1.51-.96.35-.65.5-13.58.5-38.49v-37.53h97.11v39.65c0 39.64 0 39.64 1.5 41.1 1.52 1.46 1.52 1.46 1.52-39.65s0-41.1 9.5-41.1c9.41 0 9.52 0 9.82-1.16.15-.6.3-1.26.3-1.5 0-.2-4.43-.36-9.81-.36-9.81 0-9.81 0-9.81-45.03V69.43H224c16.35 0 16.86-.05 17.36-1 .3-.56.4-1.26.25-1.51-.2-.3-6.8-.5-17.4-.5h-17.06V33.2c0-33.21 0-33.21-1.51-33.21s-1.51 0-1.51 33.2v33.21h-97.1v-33.2c0-33.21 0-33.21-1.51-33.21s-1.51 0-1.51 33.2m100.12 81.26v45.03h-97.1V69.43h97.1zm100.62-81.25v33.2h-18.1c-18.12 0-18.12 0-18.12 1.51s0 1.51 18.11 1.51h18.11v45.03c0 45.03 0 45.03-9.7 45.03-9.77 0-9.77 0-9.52 1.51.2 1.5.2 1.5 9.71 1.5s9.51 0 9.51 44.28c0 39.05-.1 44.28-.75 44.28q-.76 0-.76 1.5c0 2.52 1.31 1.82 2.27-1.25.5-1.5 1.2-3.02 1.56-3.32.6-.5.7-7.75.7-43.02v-42.46h97.11v35.92c0 35.87 0 35.87 1.4 38.34 1.36 2.47 1.36 2.47 1.51-35.92l.1-38.34h36.98c36.98 0 36.98 0 36.98-1.51s0-1.51-36.98-1.51H407.9V69.43h36.98c36.98 0 36.98 0 36.98-1.5 0-1.52 0-1.52-36.98-1.52H407.9v-33.2C407.9 0 407.9 0 406.4 0c-1.51 0-1.51 0-1.62 33.06l-.15 33.1-48.4.15-48.45.1v-33.2c0-33.21 0-33.21-1.5-33.21-1.52 0-1.52 0-1.52 33.2m99.87 81.25v44.78l-48.4.15-48.45.1V69.43l48.45.1 48.4.15zM253.14 78.9a10 10 0 0 0-3.22 2.62c-1.36 1.86-1.1.9-5.03 23.9-1.6 9.65-3.57 20.97-4.27 25.15-2.17 12.38-5.14 31.1-5.14 32.45-.05 1.66-7.95 43.52-18.56 98.61-3.52 18.12-3.73 19.12-4.18 19.12-.15 0-.95-1.86-1.76-4.17-4.53-12.68-9.4-25.2-10.21-26.11-.5-.56-1.56-1.36-2.42-1.87-1.26-.65-3.87-.85-16.75-1.05-15.3-.25-15.3-.25-24-16.6-4.78-9.01-9.3-17.21-10.01-18.22-1.81-2.62-5.54-4.43-9.16-4.43-2.11 0-3.47.36-5.28 1.31-1.31.76-2.97 2.17-3.62 3.17-.66 1-5.09 9.2-9.87 18.26l-8.7 16.5H58.63c-43.52 0-52.52.1-53.93.71-2.26.96-4.28 3.67-4.63 6.4-.2 1.7 0 2.7.9 4.47a8.5 8.5 0 0 0 2.93 3.27c1.76 1 2.46 1 57.65 1 55.9 0 55.9 0 58.32-1.5 2.36-1.46 2.71-2.02 10.51-16.7 4.48-8.36 8.25-15 8.45-14.8.2.15 3.83 6.8 8 14.64 4.18 7.9 7.95 14.74 8.4 15.25s1.61 1.4 2.57 2c1.71 1.07 2.42 1.12 16.4 1.37 14.54.25 14.54.25 17.2 7.3 1.52 3.87 5.44 14.63 8.81 23.9 3.38 9.25 6.65 17.6 7.35 18.56 2.47 3.37 8.25 4.57 12.18 2.56 3.72-1.91 4.17-2.97 7.04-17.6 1.4-7.35 4.02-20.69 5.79-29.7 1.8-9 3.92-19.97 4.72-24.4s3.07-16.55 5.04-26.91c8.25-43.97 10.16-54.39 9.9-54.8-.14-.2.3-3.56.96-7.39.7-3.82 1.51-8.6 1.81-10.51.66-3.88 1.26-5.08 1.66-3.22.26 1.2 1.56 10.51 4.33 31.4l5.28 37.73a67470.37 67470.37 0 0 0 22.24 157.48c1.36 9.25 1.41 9.6 3.02 11.37.9 1 2.37 2.1 3.17 2.46 2.11.86 6.09.4 8-.95.86-.66 1.91-1.82 2.37-2.62.4-.86 3.47-14.9 6.74-31.3a5214 5214 0 0 1 9.1-44.87c1.71-8.3 4.13-20.33 5.44-26.67 2.36-11.57 2.36-11.57 14.89-11.82 10.77-.2 12.83-.4 14.39-1.16 1-.5 2.31-1.4 2.87-2.01.55-.6 2.11-3.27 3.52-5.89 5.48-10.46 12.78-23.9 13.13-24.3.5-.5 2.67 3.27 10.87 18.67 5.83 10.91 7.65 13.18 11.27 14.18 1.36.36 18.71.5 55.8.4 53.73-.14 53.88-.14 55.29-1.2a12 12 0 0 0 2.56-2.77c1.01-1.4 1.16-2.16 1.01-4.38-.25-2.96-1.36-4.78-3.92-6.54-1.66-1.1-1.66-1.1-53.13-1.1-51.42 0-51.42 0-55.05-6.95-4.93-9.35-15.09-27.87-15.74-28.67-.3-.4-1.71-1.36-3.12-2.17a9 9 0 0 0-5.54-1.46c-3.42 0-6.39 1.16-8.25 3.22-.7.7-5.38 9.06-10.41 18.57-9.16 17.2-9.16 17.2-23.2 17.46-13.83.25-14.09.25-15.85 1.46-.95.65-2.21 1.9-2.81 2.76-.7 1.11-2.12 6.9-4.78 20.18-8.36 40.85-10.62 51.57-10.97 51.57-.2 0-.5-1.2-.7-2.67-.2-1.4-1.77-12.93-3.58-25.5-1.76-12.58-4.48-31.95-5.99-43.02-1.55-11.07-4.62-32.7-6.79-48.05-2.21-15.35-5.93-41.61-8.25-58.36a8335 8335 0 0 0-6.69-46.5c-2.52-17-2.77-17.85-5.79-20.07-1.9-1.4-5.68-1.6-8.25-.45m-5.73 172.87c0 .4-.15 1.06-.3 1.51-.26.7.4.8 5.18.8 5.53 0 5.53 0 5.28-1.5-.2-1.51-.2-1.51-5.18-1.51-3.98 0-4.98.15-4.98.7M105.17 271.6c-1.15.15-1.15.15-1.25 34.96l-.15 34.82-36.58.15c-36.63.1-36.63.1-36.63 1.61s0 1.51 36.63 1.51l36.58-.05.15 35.27c.1 35.22.1 35.22 1.6 35.22 1.52 0 1.52 0 1.52-35.22v-35.22h97.1v35.22c0 35.22 0 35.22 1.5 35.22 1.52 0 1.52 0 1.52-35.22v-35.22h30.34c16.65 0 30.79-.15 31.44-.3q1.12-.3 1.1-1.51c0-1.2 0-1.2-31.29-1.3-31.34-.16-31.34-.16-31.5-9.72-.1-9.6-.1-9.6-1.6-10.46-1.51-.91-1.51-.91-1.61 9.55-.15 10.47-.15 10.47-48.45 10.47h-48.3l-.15-34.72c-.05-19.06-.26-34.81-.5-34.96-.2-.15-.86-.2-1.47-.1m299.61 34.91-.15 34.87-40.3.15c-40.35.1-40.35.1-40.55 1.36-.15.65-.15 1.36 0 1.5.15.16 18.47.26 40.7.26h40.4v35.22c0 35.22 0 35.22 1.51 35.22s1.51 0 1.51-35.22v-35.22h36.98c36.98 0 36.98 0 36.98-1.5 0-1.52 0-1.52-36.98-1.52H407.9v-34.97c0-34.96 0-34.96-1.5-34.96-1.51 0-1.51 0-1.62 34.81m-98.86 79.25c-1.16.75-1.16.8-1.16 15.04 0 14.29 0 14.29 1.51 14.29s1.51 0 1.51-15.1c0-8.3-.15-15.09-.35-15.04a4 4 0 0 0-1.5.8" clip-rule="evenodd"/>
</svg>
