<svg xmlns="http://www.w3.org/2000/svg" fill="currentColor" viewBox="-39.972 -32.785 577.57 577.57">
    <path fill-rule="evenodd" d="M178.67.7a56 56 0 0 0-20.9 7.96c-9.51 6.05-16.16 13.35-21.1 22.96-2.66 5.3-5.18 12.6-6.09 17.78-.6 3.32-.6 3.32-9.71 3.57-7.7.2-9.97.46-14.1 1.51-10.28 2.72-20.65 8.62-27.95 15.87a61 61 0 0 0-11.63 15.7 65 65 0 0 0-6.35 18.34c-1 5.74-.95 14.6.05 20.24.46 2.47.86 4.78.91 5.18q.08.74-3.78 1.87a63 63 0 0 0-16.51 7.6 70 70 0 0 0-9.02 7.4 64.3 64.3 0 0 0-16.91 28.4 81 81 0 0 0-2.32 11.58c-.5 4.49-.5 7-.05 11.84 1.1 10.67 5.24 22.6 10.62 30.56 1.16 1.71 2.02 3.27 1.92 3.48-.1.25-1.51 1.56-3.18 2.92a69 69 0 0 0-12.08 13.7 73 73 0 0 0-9.87 24.77c-.96 4.83-.76 17.97.25 22.86 2.12 9.72 5.7 17.97 10.88 25.18 3.52 4.83 10.62 11.83 15 14.8 1.77 1.2 3.08 2.42 2.92 2.72-.15.35-1.05 2.52-2.01 4.88-3.63 8.86-5.64 20.1-5.19 28.7.36 5.95 1.87 14.36 3.43 19.19a74 74 0 0 0 8.1 16.41c5.4 7.91 14.56 15.82 23.32 20.2a74 74 0 0 0 15.36 5.28c2.11.46 6.3.96 9.36 1.16 5.6.35 5.6.35 5.9 5.19.2 2.67.7 7 1.15 9.62 1 5.84 4.43 15.66 7.3 21a76.7 76.7 0 0 0 37.72 34.39c5.94 2.56 16.21 5.28 23.16 6.09 7.35.85 18.33.3 25.43-1.26a75 75 0 0 0 18.63-6.35 75 75 0 0 0 19.9-13.9c8.8-8.5 14.9-18.12 18.57-29.2 3.88-11.78 3.58 7.35 3.58-212.95 0-219.84.3-201.46-3.53-211.58A56.3 56.3 0 0 0 209.9 4.53a59 59 0 0 0-9.16-3.07c-6-1.36-16.17-1.71-22.06-.75m17.47 11.54c10.63 2.01 20.45 8.26 27.25 17.17a49 49 0 0 1 7.55 15.05c1.1 3.58 1.1 3.58 1.26 200.97.1 140.43 0 198.64-.4 201.66-.66 4.84-3.18 13-5.6 17.73a64 64 0 0 1-10.47 14.65c-6.7 7.05-13.34 11.73-21.7 15.2-10.17 4.34-16.11 5.5-27.95 5.5-6.84 0-9.71-.25-14.3-1.16a78 78 0 0 1-19.89-7.3c-11.18-6.25-22.05-17.88-27.19-29.06-4.03-8.76-5.79-17.72-5.84-29.2 0-5.64-.1-6.5-1-7.66a6 6 0 0 0-2.67-1.76c-.91-.25-3.43-.25-5.64-.05-7.26.76-16.92-.85-24.58-4.08-8.15-3.37-16.92-10.57-21.75-17.87a54 54 0 0 1-7.65-16.62c-1.26-4.68-1.36-5.74-1.36-14.85.05-9.02.15-10.23 1.36-14.86.85-3.17 2.56-7.5 4.63-11.58 1.81-3.62 3.27-7.15 3.27-7.85 0-2.02-1.71-3.78-5.54-5.74-5.03-2.67-11.33-7.96-15.25-12.85A62 62 0 0 1 12.4 297.3c-1.2-4.43-1.36-5.94-1.36-12.34 0-6.24.2-8.05 1.36-12.58 2.62-10.18 9.27-21.15 16.57-27.25a84 84 0 0 1 6.55-4.83c1.86-1.2 3.72-2.67 4.17-3.27.4-.66.76-1.87.76-2.72 0-1.61-.25-2.07-4.93-8.1-3.83-5-8.01-13.4-9.52-19.2a49 49 0 0 1-1.51-11.57c-.46-10.53 1.2-18.08 5.94-27.3a48.8 48.8 0 0 1 24.02-22.96 47 47 0 0 1 14.8-3.98c3.18-.35 5.19-1.76 5.74-4.07.36-1.46.25-2.02-2.06-9.52-1.16-3.73-1.46-5.74-1.66-11.43-.15-5.19 0-7.86.65-11.08a53 53 0 0 1 6.6-16.52c3.22-5.38 10.32-12.63 15.8-16.21 4.39-2.87 11.44-5.94 15.82-6.95 5.54-1.2 12.49-1.56 19.84-.96 6.9.6 7.25.6 8.56-.4 1.51-1.1 1.81-2.16 2.57-9.31a50 50 0 0 1 16.61-31.88 58 58 0 0 1 6.65-4.93 52 52 0 0 1 14.8-5.64c4.79-.9 12.44-.9 16.97-.05m-15.2 25.68c-3.22.85-7.96 3.67-10.43 6.24-2.66 2.72-5.53 8.41-6.24 12.44a25 25 0 0 0 4.58 18.63 26 26 0 0 0 10.63 7.65c2.41.86 2.41.86 2.57 19.9s.15 19.03 12.38 31.26c12.19 12.19 12.19 12.19 12.19 17.02 0 4.89 0 4.89-8.16 14.15-4.53 5.09-9.06 10.28-10.12 11.48-1.86 2.22-1.86 2.22-6.3-2.06a138 138 0 0 0-6.29-5.9c-1.91-1.6-1.91-1.6-11.08-1.6-9.21 0-9.21 0-12.58-3.43-3.38-3.42-3.38-3.42-3.38-11.83 0-5.24-.2-8.91-.55-9.57-.3-.6-2.97-3.52-5.9-6.5-5.38-5.43-5.38-5.43-4.48-6.8a39 39 0 0 0 4.13-9.6c1.46-5.5.66-11.19-2.36-16.83-1.82-3.37-6.35-7.8-9.57-9.36-2.97-1.46-7.7-2.62-10.47-2.62-3.18 0-8.11 1.26-11.18 2.82-3.38 1.71-7.96 6.34-9.72 9.72-1.86 3.72-2.92 9.16-2.52 12.89.96 8.7 5.6 15.46 13.14 19.23 3.33 1.61 4.28 1.87 8.66 2.07 2.82.1 5.75 0 6.9-.36 2.02-.55 2.02-.55 7.5 4.94 4.44 4.43 5.5 5.79 5.6 7.05.05.85.1 4.98.15 9.16.1 7.66.1 7.66 5.54 13.15 2.97 3.07 5.99 5.84 6.74 6.24 1.01.5 3.58.7 10.27.7 8.87 0 8.87 0 15.77 6.65 6.84 6.6 6.84 6.6 7.1 30.67.25 24.02.25 24.02 1.4 25.27.61.66 2.42 1.57 4.03 2.02 3.68 1 6.75 3.22 8.41 6.14 1.92 3.22 2.47 5.94 1.77 8.91-1.46 5.9-6.9 9.67-12.4 8.46-1.7-.35-4.62-3.12-24.36-23.1-22.41-22.72-22.41-22.72-34.95-22.72-12.59 0-12.59 0-22.3-9.72-8.67-8.56-9.72-9.82-9.47-10.92 1.56-6.15 1.16-11.89-1.26-17.02-1.66-3.53-5.54-7.9-9.01-10.12a24 24 0 0 0-5.04-2.27c-3.88-1.1-10.27-1.06-14.25.2-5.49 1.66-10.73 6.2-13.44 11.43-.6 1.21-1.41 3.68-1.87 5.54-1.36 5.9-.1 13.1 3.23 17.88 1.96 2.82 5.99 6.6 8.45 7.85a24.7 24.7 0 0 0 17.07 1.86 28 28 0 0 0 5.9-2.51c1.56-.96 3.02-1.77 3.27-1.77.2 0 4.73 4.33 9.97 9.62 5.29 5.29 10.17 9.92 10.93 10.32 1.05.56 3.92.71 13.39.71 12.03 0 12.03 0 33.74 21.85 20.19 20.35 21.9 21.96 24.62 22.96 4.08 1.57 8.81 1.87 12.54.76a30 30 0 0 0 5.39-2.17c3.02-1.6 6.9-5.74 8.6-9.06 1.67-3.27 2.83-7.7 2.83-10.67s-1.16-7.4-2.87-10.88c-1.77-3.58-6.2-7.96-10.07-9.87-3.18-1.56-3.18-1.56-3.18-24.93 0-23.36 0-23.36 10.73-35.3 5.89-6.54 11.13-12.48 11.58-13.19.7-1.05.86-2.56.86-9.66 0-4.59-.2-8.92-.46-9.57-.25-.66-5.79-6.6-12.33-13.24-11.84-12.09-11.84-12.09-11.89-28.3 0-16.27 0-16.27 3.78-18.08a24.4 24.4 0 0 0 13.65-17.47c.6-2.82.65-4.28.2-7.1a29 29 0 0 0-2.22-7.1c-3.02-6.4-8.3-10.93-14.65-12.6-3.53-.9-9.62-.95-12.84-.04m11.38 11.58c2.97 1.36 5.84 4.53 6.64 7.3 1.31 4.28.2 9.12-2.82 12.29a12.3 12.3 0 0 1-12.53 3.17c-2.92-.96-6.45-4.13-7.6-6.8-.41-1-.76-3.17-.76-4.83 0-2.17.3-3.63 1.1-5.24 1.47-2.82 3.18-4.43 6.35-5.89a10.5 10.5 0 0 1 9.62 0m-68.38 53.48c3.72 1.5 6.8 5.53 7.45 9.71.4 2.47-.8 6.6-2.62 8.97-2.72 3.57-8.5 5.49-12.59 4.18-2.97-1.01-5.49-2.87-7.05-5.19-1.1-1.66-1.46-2.82-1.6-5.54-.31-4.53.75-7.25 3.77-9.92a14 14 0 0 1 3.88-2.47c2.51-.75 6.74-.6 8.76.26m-46.68 78.45c4.78 1.7 8 6.3 8 11.43 0 7.2-6.6 12.89-13.64 11.83-3.07-.45-6.6-2.77-8.36-5.39-1.1-1.66-1.4-2.82-1.56-5.59-.15-2.46.05-4.13.65-5.69.96-2.56 4.39-5.84 6.9-6.64 2.32-.76 5.84-.76 8 .05m-24.52 80.76c-4.33 1.57-8.26 4.18-10.83 7.4-2.77 3.38-4.23 6.75-5.09 11.84-.45 2.67-.45 4.18.06 7 .9 5.09 3.47 9.97 6.9 13.1 5.33 4.88 11.68 6.84 19.38 6.03 7.2-.8 14.1-5.74 17.52-12.53 1.61-3.28 1.61-3.28 24.88-3.53s23.26-.25 26.84 3.53c1.96 2.06 7.35 7.85 11.93 12.79 7.25 7.75 8.3 9.11 7.8 9.81-.35.46-2.36 2.82-4.43 5.3-2.06 2.5-6.7 8.05-10.32 12.33-6.54 7.85-6.54 7.85-12.59 7.95-3.32.1-6.54.26-7.15.4-.65.16-3.82 2.47-7.1 5.2-3.22 2.66-6.3 5.18-6.8 5.58-.75.6-1.15.4-3.67-1.6q-8.25-6.82-18.38-5.4c-7.7 1.11-14.15 5.7-17.32 12.34-2.12 4.43-2.97 8.66-2.57 12.44.4 3.47 1.86 7.8 3.58 10.77 1.7 2.87 5.74 6.4 9.51 8.26 5.7 2.82 13.85 2.82 19.8.05 4.32-2.06 8.3-5.89 10.41-10.17q3.18-6.25 2.72-12.13c-.2-2.98-.2-2.98 6.3-8.36 4.33-3.58 7.1-5.54 8.36-5.8 1-.25 3.92-.3 6.5-.2 2.66.16 5.33.05 6.19-.25.95-.35 3.52-2.97 7.6-7.9 3.37-4.03 9.42-11.13 13.4-15.81 7.2-8.41 7.2-8.41 22.75-8.41s15.56 0 20.35 5.38c4.83 5.44 4.83 5.44 4.83 11.03 0 5.6 0 5.6-3.22 9.82-1.71 2.32-5.5 7.35-8.26 11.13-5.14 6.95-5.14 6.95-10.78 6.95-3.52.05-6.09.25-6.74.65-1.06.6-8.21 8.21-19.49 20.85-6.4 7.2-6.4 7.2-6.4 19.79s0 12.59-1.35 13.14c-5.3 2.12-7.7 3.53-10.33 6.1a21 21 0 0 0-4.78 6.8 18 18 0 0 0-2.07 8.3c-.2 3.68-.05 4.99.91 8a32 32 0 0 0 3.17 6.65 25 25 0 0 0 10.83 8.46c2.32.96 3.88 1.16 8.16 1.16s5.84-.2 8.15-1.16a23.8 23.8 0 0 0 14.86-19.99c.35-4.03-.86-9.67-2.97-13.3a23.3 23.3 0 0 0-10.17-9.36c-3.33-1.4-3.33-1.4-3.33-12.18s0-10.78 9.82-21.55c9.87-10.78 9.87-10.78 15.51-10.78 3.53 0 6.1-.25 6.9-.65.7-.36 3.62-3.93 6.55-7.96 2.92-4.08 7.55-10.52 10.32-14.35 5.03-6.95 5.03-6.95 5.34-15.56.15-4.68.1-9.27-.1-10.07-.4-1.41-10.83-14-14.05-17.02-1.51-1.36-1.51-1.36-19.6-1.36-18.07 0-18.07 0-25.27-7.7a911 911 0 0 1-10.02-10.68 684 684 0 0 0-7.2-7.8c-4.53-4.79-4.53-4.79-30.16-5.04s-25.63-.25-26.49-2.77a30 30 0 0 0-2.21-4.78c-1.97-3.38-6.5-7.4-10.33-9.22-3.07-1.4-3.97-1.61-8.7-1.71-4.14-.15-5.85.05-7.86.75m12.18 11.59c2.52 1.3 4.99 3.87 5.94 6.24 1.16 2.72 1.01 7-.25 9.72a12.8 12.8 0 0 1-6.34 6.04c-2.47 1.06-7 .96-9.52-.2a12 12 0 0 1-6.55-7.4c-1.86-6.4 1.36-12.64 7.76-15.06 2.42-.96 6.44-.65 8.96.66m26.19 86.5c1.5.91 3.02 2.42 3.97 3.93 1.31 2.17 1.51 2.97 1.51 6.04 0 2.82-.25 3.98-1.1 5.4-2.72 4.32-6.2 6.44-10.63 6.49-3.17 0-5.34-.8-7.85-3.02-2.77-2.47-4.03-5.19-4.03-8.82 0-4.73 2.32-8.25 7-10.82 1.6-.86 2.67-1.06 5.34-.9 2.66.14 3.82.5 5.79 1.7m68.33 72.82a14.2 14.2 0 0 1 5.94 7.6c.45 1.56.45 2.82 0 4.83-1 5.04-4.23 8.36-9.22 9.72-1.91.5-2.92.5-4.78 0a13.3 13.3 0 0 1-7.96-5.89c-1.3-2.06-1.5-2.92-1.5-5.74.04-3.98 1.3-6.75 4.12-9.06 3.83-3.18 9.22-3.78 13.4-1.46M303.9.5c-8.36 1.06-16.92 4.39-24.37 9.42a61 61 0 0 0-13.6 13.2 73 73 0 0 0-5.28 8.55 70 70 0 0 0-6.2 19.64c-.7 5.5-.65 390.04.06 396.04a72 72 0 0 0 12.03 31.97c6.65 9.82 16.52 18.28 27.95 23.92 11.43 5.69 20.94 8.16 33.28 8.66 8.91.35 14.8-.25 23.62-2.47a81 81 0 0 0 28.4-13.44c4.53-3.27 12.08-10.93 15.5-15.71a75.5 75.5 0 0 0 14.15-39.23c.36-5.28.36-5.28 6.9-5.89 14.4-1.3 25.78-5.9 35.96-14.5 9.41-7.9 16.1-18.53 19.68-31.02 2.12-7.4 2.72-11.93 2.67-20.09-.05-5.39-.3-8.61-1.1-12.34-1.36-6.5-3.38-12.94-4.89-15.96-1.2-2.37-1.2-2.37.2-3.12 2.52-1.31 9.52-7.25 12.49-10.63a69 69 0 0 0 9.77-14.35 72 72 0 0 0 5.79-17.82c.96-5.64.96-15.81 0-21.7a64 64 0 0 0-21.15-37.67 44 44 0 0 1-3.68-3.42c-.1-.2.86-1.92 2.07-3.78a63 63 0 0 0 7.35-15.56c.9-2.77 1.91-7.2 2.32-9.82.95-6.14.95-15.6 0-21.5a66 66 0 0 0-11.63-27.6 71 71 0 0 0-7.05-7.8c-7.5-7.2-15.66-11.98-25.13-14.65-2.22-.66-4.08-1.21-4.18-1.26-.05 0 .25-1.41.7-3.02.46-1.81.91-6.1 1.06-10.83.25-6.3.1-8.91-.6-12.84-.5-2.77-1.46-6.7-2.12-8.76-1.5-4.63-4.53-10.67-7.6-15.36-3.12-4.73-10.88-12.69-15.5-15.86a74 74 0 0 0-18.39-8.76c-5.89-1.71-10.93-2.32-18.58-2.32-6.44 0-6.44 0-7.05-4.18a63 63 0 0 0-2.62-9.66 59 59 0 0 0-20.44-27.95c-3.78-2.87-13-7.55-17.22-8.76A75 75 0 0 0 310.85 0c-2.06.05-5.19.25-6.95.5M322.68 13a49 49 0 0 1 14.36 6.59c4.53 3.07 10.17 9.01 13.04 13.75 4.53 7.55 6.5 13.7 7 22.3.45 6.7 1.1 8.51 3.42 9.07.7.2 4.48.05 8.4-.26 7.51-.65 13.4-.25 19.8 1.21 4.63 1.06 11.58 4.23 16.06 7.3 6.7 4.69 13.3 12.09 16.77 18.99 3.52 6.9 5.14 13.95 5.14 22.5 0 6.55-.66 10.53-2.72 16.47-.7 2.12-1.31 4.33-1.31 4.94 0 1.76 1.36 3.87 2.87 4.48.75.3 3.12.8 5.18 1.1 2.07.3 4.99.86 6.45 1.32 4.18 1.15 9.87 3.92 14 6.8 5.03 3.52 11.93 10.87 15.05 16.1 2.72 4.64 5.94 13.45 6.75 18.59.76 4.68.66 13.4-.15 17.77-1 5.29-3.53 12.54-5.84 16.82-2.02 3.73-4.99 8-7.9 11.38-1.32 1.51-1.67 2.32-1.67 4.03 0 2.57.56 3.17 6.04 6.8 6.95 4.48 13.9 12.38 17.88 20.24a58 58 0 0 1 4.78 15.2c.9 5.6.4 16.17-1 21.3a51 51 0 0 1-12.74 22.77c-4.28 4.48-8.51 7.75-13.1 10.02-3.62 1.86-5.38 3.92-5.38 6.29 0 .7.7 2.37 1.6 3.78 5.9 9.21 9.17 23.36 8.01 34.14-.65 5.48-1.66 10.67-2.87 14.2-5.03 15-16.66 26.94-31.27 32.12-6.19 2.17-11.68 2.97-19.94 2.92-4.28-.05-7.9.1-8.46.4-1.96 1.06-2.46 3.13-2.46 9.93 0 7.6-1.01 14.95-2.82 20.54-1.87 5.79-5.94 13.9-9.32 18.33-3.12 4.18-9.92 11.08-13.54 13.8-7.8 5.79-18.18 10.27-28.45 12.28-6.2 1.16-19.84 1.16-26.44 0a67.6 67.6 0 0 1-34.74-17.92c-7-6.9-11.69-14.3-15.06-23.92-3.32-9.37-3.07 6.44-3.07-208.01 0-213.25-.2-197.95 2.92-206.56 2.57-7 5.79-11.88 11.68-17.77 2.92-2.92 6.6-6.04 8.16-6.95 4.68-2.77 10.47-5.04 14.75-5.84 5.54-1.06 14.8-.76 20.14.65m-18.37 25.02c-7.16 1.91-13.1 7.75-15.66 15.3a25.2 25.2 0 0 0 0 14.71c1.96 6.14 7.4 12.08 13.34 14.55 2.82 1.16 2.82 1.16 2.82 17.53 0 16.36 0 16.36-12.34 28.75s-12.33 12.38-12.33 22.05 0 9.67 6.94 17.32c3.78 4.18 9.02 9.97 11.59 12.84 4.63 5.2 4.63 5.2 4.53 28.5-.15 23.27-.15 23.27-3.12 24.68a26 26 0 0 0-5.95 4.38 23.4 23.4 0 0 0-6.54 20.3c2.36 14.1 15.96 22.3 28.85 17.52 2.52-.96 4.68-2.98 24.62-22.97 21.9-21.9 21.9-21.9 33.59-21.9 6.44 0 12.19-.2 12.84-.5.65-.26 5.8-4.99 11.48-10.53 10.27-10.02 10.27-10.02 12.49-8.5 3.22 2.2 7.35 3.52 11.98 3.82 2.92.15 4.89 0 7.05-.66 4.33-1.25 6.6-2.56 9.92-5.74 5.09-4.83 7.8-11.83 7.15-18.37a28 28 0 0 0-4.28-12.14c-1.91-2.77-5.89-6.04-9.31-7.6a25 25 0 0 0-12.7-1.72c-4.32.7-6.9 1.72-9.96 3.88a24.5 24.5 0 0 0-8 9.72c-1.27 2.67-1.57 4.08-1.72 7.75-.15 2.57.05 5.64.4 7.26.6 2.76.6 2.76-9.36 12.48-10.02 9.72-10.02 9.72-22.36 9.72-12.34.05-12.34.05-34.64 22.46-12.3 12.34-22.76 22.66-23.27 22.91-1.4.76-5.34.6-7.45-.25a9.8 9.8 0 0 1-5.19-4.89 12 12 0 0 1-.95-8.5c.5-2.07 1.2-3.23 3.22-5.24a14 14 0 0 1 5.08-3.53c5.44-1.96 5.8-2.21 6.55-3.98.6-1.46.76-5.74.76-24.87 0-23.11 0-23.11 7.1-29.76 7.1-6.6 7.1-6.6 15.9-6.6 6.6 0 9.12-.15 10.18-.7 1.2-.66 10.62-10.27 11.73-12.04.2-.3.4-4.48.4-9.16 0-8.56 0-8.56 5.7-14.2 5.63-5.64 5.63-5.64 7.65-5.19 3.02.7 8.76.6 11.98-.25 5.6-1.46 11.63-6.54 14.35-12.08 2.02-4.03 2.62-6.45 2.62-10.07 0-5.9-2.36-12.09-6.2-16.22a22.6 22.6 0 0 0-15.4-7.5c-3.88-.35-8.86.65-12.59 2.52-3.32 1.71-7.6 5.74-9.21 8.7-1.72 3.08-3.43 9.27-3.43 12.24 0 4.03 2.07 10.28 4.89 14.7.9 1.37.9 1.37-4.94 7.31-4.98 5.03-5.94 6.24-6.2 7.96-.2 1.1-.3 5.23-.2 9.16.16 7.15.16 7.15-3.11 10.47-3.23 3.28-3.23 3.28-12.24 3.28-6.8 0-9.32.15-10.32.7-.76.4-3.53 2.92-6.15 5.54-2.61 2.67-5.03 4.83-5.33 4.83s-1.87-1.5-3.53-3.42c-1.61-1.86-6.1-6.8-9.87-11.03-6.95-7.65-6.95-7.65-6.95-12.59 0-4.88 0-4.88 12.34-17.27s12.34-12.38 12.34-31.12c0-18.73 0-18.73 1.4-19.33 4.9-1.97 7.86-3.73 10.28-6.14a24 24 0 0 0 6.95-16.92c0-6.2-2.32-11.84-6.8-16.37-4.58-4.68-9.97-6.85-16.87-6.75-2.06 0-5.03.36-6.54.76m11.93 11.48a14 14 0 0 1 5.84 5.54c.8 1.56 1.06 2.92 1.06 5.59s-.25 4.03-1.06 5.59a13.7 13.7 0 0 1-5.8 5.54c-2.16 1.1-6.08 1.46-8.65.7-4.89-1.36-8.86-6.7-8.86-11.88 0-4.84 3.57-9.82 8.35-11.58 2.37-.86 6.95-.66 9.12.5m67.37 53.63a12.6 12.6 0 0 1 6.65 7.55c.65 2.32.7 3.27.25 5.54a12.4 12.4 0 0 1-5.44 8.1 11.66 11.66 0 0 1-14.65-1.6 18 18 0 0 1-2.92-4.03c-1.06-2.57-.96-7.2.2-9.77 1.06-2.32 4.18-5.14 6.65-6.05 2.57-.95 6.95-.8 9.26.26m45.32 78.55c3.02 1.36 5.04 3.27 6.3 5.94.9 1.91 1.05 3.02.9 5.94s-.4 3.93-1.66 5.8c-2.87 4.22-8.36 6.39-13.2 5.08-2.96-.8-6.19-3.43-7.6-6.2a12.4 12.4 0 0 1 0-10.82c2.82-5.54 9.87-8.2 15.26-5.74m2.02 80.41c-3.93 1.26-8.97 4.79-11.38 8.01a28 28 0 0 0-3.33 6.24c-1.1 3.33-1.1 3.33-26.79 3.48-25.68.1-25.68.1-33.83 9.06-4.54 4.89-11.03 11.94-14.46 15.56-6.24 6.7-6.24 6.7-24.47 6.7-13.3.05-18.48.2-19.23.65-1.41.8-14.25 15.81-14.86 17.33-.25.65-.45 5.13-.45 9.86 0 8.67 0 8.67 3.12 13.2 10.02 14.65 16.52 23.76 17.52 24.67.96.86 1.97 1 7.6 1.16 6.45.2 6.45.2 14.91 9.26 4.64 5.04 9.22 9.97 10.12 11.03 1.62 1.86 1.62 1.86 1.62 12.24 0 10.32 0 10.32-3.18 11.83-6.54 3.12-10.77 8.26-12.48 15.16-1.21 4.73-1.11 8.4.3 13.3 1.81 6.18 7.35 12.03 13.74 14.4a26.3 26.3 0 0 0 12.8 1.05c7-1.46 13.04-6.3 16.36-13.04 1.86-3.78 1.91-3.93 1.91-9.67s-.05-5.9-1.91-9.77c-3.12-6.24-8.06-10.52-14.3-12.39-2.17-.65-2.17-.65-2.17-13.09 0-12.08-.05-12.49-1.1-13.9-1.41-1.8-16.37-18.07-21.8-23.71-4.04-4.18-4.04-4.18-10.18-4.18-5.79 0-6.2-.05-6.95-1.16-.45-.6-3.98-5.59-7.85-11.08-7-9.92-7-9.92-7-15.6 0-5.75 0-5.75 4.83-11.09 4.78-5.38 4.78-5.38 20.7-5.28 15.9.15 15.9.15 22.5 8 3.63 4.28 9.52 11.38 13.05 15.71 4.53 5.5 6.95 8.01 8.05 8.36.96.36 3.78.46 7.6.25 6.1-.3 6.1-.3 10.38 3.33l6.85 5.69c2.57 2.11 2.57 2.11 2.82 7.15.2 4.03.5 5.74 1.66 8.5 1.61 3.89 5.44 8.42 9.21 10.78 3.78 2.42 7.5 3.28 13.4 3.03 4.53-.16 5.54-.36 8.4-1.77 1.77-.9 4.14-2.36 5.2-3.27 2.71-2.22 5.68-7 6.94-11.13.8-2.72 1.01-4.38.8-8.06-.14-4.07-.4-5.13-2.06-8.56a22.5 22.5 0 0 0-10.42-10.82c-4.28-2.07-8.61-2.72-13.54-2.07a22 22 0 0 0-12.19 5.8c-2.32 2.26-2.32 2.26-8.86-3.23-3.58-3.02-7-5.79-7.6-6.1-.61-.3-3.73-.54-7.5-.54-6.45 0-6.45 0-10.28-4.69-2.12-2.52-6.9-8.3-10.68-12.84-3.82-4.53-6.9-8.5-6.9-8.81 0-.55 7.1-8.46 18.84-21.1 4.08-4.38 4.08-4.38 27.04-4.63 12.64-.1 23.16-.05 23.46.1.25.2 1.06 1.66 1.82 3.27 1.5 3.28 5.43 7.7 8.86 9.87 1.26.8 3.62 1.87 5.23 2.32 4.18 1.2 10.48 1.1 14.46-.25a23.7 23.7 0 0 0 14.2-13.5c.95-2.41 1.15-3.82 1.15-8.66 0-5.29-.15-6.1-1.5-9.26-1.92-4.69-6.65-9.52-11.59-11.94-3.22-1.56-3.93-1.71-8.81-1.81-3.73-.1-6.04.1-7.8.65m11.63 11.48c2.97 1.36 5.84 4.54 6.64 7.3a12.2 12.2 0 0 1-4.18 13.35c-1.3.96-3.17 1.91-4.12 2.11-.91.2-2.93.2-4.44.1a11.9 11.9 0 0 1-9.06-5.68c-1.3-2.12-1.51-2.92-1.51-6 0-3.02.2-3.97 1.41-5.94 2.32-3.93 6.34-6.4 10.67-6.4 1.11-.04 3.18.51 4.59 1.16m-23.37 86.71c1.16.81 2.82 2.47 3.63 3.63 1.26 1.76 1.56 2.77 1.71 5.59.15 2.87 0 3.78-1.06 5.9-1.46 2.91-2.82 4.22-5.84 5.73-1.76.9-2.87 1.06-5.39.9a10 10 0 0 1-5.53-1.7 12 12 0 0 1-5.64-8.97c-.1-1.5.05-3.52.35-4.48 1-3.02 3.32-5.64 6.2-7.1 2.26-1.16 3.16-1.36 6.03-1.2 2.77.14 3.78.45 5.54 1.7m-70.3 72.61a12.2 12.2 0 0 1 6.6 9.67c.2 1.92 0 3.12-.85 5.24a11.9 11.9 0 0 1-7.55 7.1c-3.18 1.06-5.7.8-8.97-.9a12 12 0 0 1-6.14-8.06c-.55-2.27-.5-3.13.2-5.6a10.6 10.6 0 0 1 3.02-5.03 14 14 0 0 1 4.38-2.97c2.77-1.06 6.7-.8 9.32.55" clip-rule="evenodd"/>
</svg>
