<svg xmlns="http://www.w3.org/2000/svg" fill="currentColor" viewBox="-90.67 -89.816 691.626 691.626">
    <path fill-rule="evenodd" d="M247.15.7c-3.4.76-6.3 1.93-10.67 4.22-2.8 1.52-6.8 5.28-27.43 25.96C151.69 88.44 9.02 232.68 7.45 234.66 5.67 237 2.87 242.5 1.8 245.84.23 250.6-.38 257.27.23 262.24a51 51 0 0 0 4.52 14.44c.56 1.12 1.83 3.1 2.8 4.42 1.01 1.27 40.39 40.85 87.54 87.9 99.58 99.27 134.69 134.12 136.97 135.8 2.5 1.88 7.83 4.47 11.79 5.74 2.59.81 5.28 1.22 9.9 1.37 5.29.2 7.12.1 10.73-.76a59 59 0 0 0 7.1-2.29c6.92-3.15-1.52 5.08 152.53-148.66 46.38-46.28 78.85-79.1 79.97-80.78a43 43 0 0 0 5.54-13.06c1.16-4.97.76-15.34-.82-20.27a34 34 0 0 0-5.38-10.77c-2.19-2.84-17.78-18.8-59.04-60.36A110238 110238 0 0 1 303.3 32.5c-19.86-20.12-23.78-23.93-26.72-26.06a41 41 0 0 0-12.8-5.69c-4.12-.97-12.6-1.02-16.62-.05m14.48 24.34c1.47.66 3.6 2.33 5.03 3.9 1.37 1.53 9.6 9.97 18.3 18.75a81890 81890 0 0 0 125.53 126.82c63.61 63.86 74.9 75.34 75.75 77.17.61 1.37.87 3.4.92 6.35.05 3.56-.15 4.68-1.07 6.35-1.06 1.98-30.23 31.15-163.75 164.06-64.37 64.06-60.3 60.4-67.06 60.4-2.6 0-4.06-.3-6.15-1.32-3.05-1.42 5.9 7.42-143.27-141.29-81.09-80.83-81.09-80.83-82-84.23-1.02-3.92-.82-6.86.7-10.32.77-1.67 7.93-9.2 28.36-29.82 15.04-15.14 39.78-40.14 55.02-55.53 15.24-15.35 41.76-42.12 58.94-59.45 39.42-39.68 62.95-63.5 71.89-72.8 3.86-3.96 7.77-7.72 8.74-8.28 2.44-1.53 4.01-1.88 8.02-1.93 2.75-.05 4.17.25 6.1 1.17m-70.37 115.38c-4.16.86-9.6 2.74-13.2 4.57-6.66 3.3-14.18 10.21-18.65 17.07a56 56 0 0 0-6.6 15.2c-.67 2.48-.87 5.33-.92 11.42 0 7.01.15 8.74 1.22 12.45 1.62 6.05 5.08 12.96 8.58 17.38 3.71 4.67 9.25 9.7 13.37 12.19 3.96 2.39 10 4.72 14.83 5.8 5.08 1.06 15.8 1.06 20.43-.06a48 48 0 0 0 23.01-12.65c3.71-3.56 7.88-9.35 10.37-14.28 2.64-5.13 4.98-15.04 4.98-20.83 0-2.9-1.17-9.96-2.19-13.72-2.84-9.9-9-18.84-17.32-25.1-5.09-3.8-9.1-5.99-14.08-7.67-7.26-2.49-16.97-3.2-23.83-1.77m14.33 23.67c7.11 1.53 13.57 6.91 17.38 14.53a23 23 0 0 1 1.88 6.5c1.11 8.03-1.37 15.25-7.42 21.3-9.7 9.8-25.15 9.75-35.1-.1-1.63-1.68-3.67-4.17-4.43-5.6-1.57-2.9-3.4-9.5-3.4-12.24s1.32-7.47 3.1-11.18c2.8-5.74 9.55-11.33 15.7-12.95 3.4-.92 8.68-1.02 12.3-.26m117.67 6.05c-.76.2-2.19.91-3.1 1.47-.97.61-10.62 10.16-21.44 21.24-10.87 11.12-25.45 26.06-32.47 33.17l-24.38 24.9c-6.46 6.55-18.5 18.8-26.78 27.18-29.52 29.93-38.15 39.02-39.12 41.15a14 14 0 0 0-.96 5.14c0 4.21 1.83 7.92 4.98 9.9 3.04 1.93 5.89 2.29 9.55 1.22 3.35-.96 1.32.92 30.48-28.7 10-10.22 24.74-25.2 32.72-33.28 28.8-29.22 70.67-72.15 79.56-81.55a47 47 0 0 0 4.22-4.92c.3-.61.81-2.24 1.12-3.66.45-2.08.35-3.1-.3-5.49a11.3 11.3 0 0 0-14.08-7.77m-17.53 98c-6.1 1.02-15.09 4.52-19.81 7.73-10.17 7-17.58 17.17-20.48 28.14-1.32 5.03-1.88 15.35-1.07 20.32a60 60 0 0 0 1.83 7.52c2.5 7.93 5.85 13.16 12.4 19.67 5.8 5.74 11.08 9.04 18.19 11.48 5.84 1.93 13.56 3 18.7 2.49 5.48-.51 10.82-1.73 14.63-3.3 12.95-5.44 23.67-16.97 28.3-30.49a56 56 0 0 0 2.54-15.24c0-7.52-2.5-16.77-6.4-23.73-3-5.43-9.35-12.34-14.9-16.3-3.5-2.55-11.32-6.15-15.74-7.27-4.37-1.07-14.18-1.63-18.19-1.02m16.41 25.66c4.67 2.18 7.62 4.52 10.47 8.23 2.69 3.56 4.98 10.06 4.98 14.18 0 6.65-2.7 13.1-7.63 18.08a24 24 0 0 1-7.31 5.29c-3.6 1.72-4.57 1.98-9 2.18-4 .2-5.58.05-8.38-.81a26 26 0 0 1-12.8-9c-3.5-4.67-4.72-7.97-5.03-13.76-.2-3.46-.05-5.34.61-7.57 1.37-4.83 3.2-7.88 6.8-11.49 3.56-3.55 8.19-6.2 12.25-7.06 1.27-.25 4.27-.35 6.7-.25 3.72.15 4.99.46 8.34 1.98" clip-rule="evenodd"/>
</svg>
