<svg xmlns="http://www.w3.org/2000/svg" fill="currentColor" viewBox="-29.58 -27.474 566.957 566.957">
    <path fill-rule="evenodd" d="M97.48 1.06a17 17 0 0 0-4.13 3.23c-3.43 3.73-3.58 4.79-3.58 26.78V50.4l-29.11.15c-28.55.2-29.26.2-32.99 1.37-2.07.6-5.55 2.06-7.67 3.22C10.17 60.53 3.7 68.8.93 79.7c-1 3.94-1.05 5.1-.8 15.89.3 12.2 1.2 20.48 3.68 32.74a196 196 0 0 0 5.85 23.25c8.12 26.08 19.47 46.97 36.02 66.23 9.23 10.7 23.1 22.2 35.71 29.61 10.04 5.9 24.42 12.06 36.57 15.7 4.7 1.4 4.7 1.4 4.5 4.78a21 21 0 0 1-5.7 12.31 22 22 0 0 1-5.5 3.84c-2.68 1.26-4 1.51-8.03 1.71-2.87.1-5.4.5-6.25.91-3.48 1.87-5.6 5.85-5 9.58a9.3 9.3 0 0 0 4.55 6.66c1.91 1.11 2.72 1.26 7.41 1.26 3.03 0 6.56-.3 8.27-.75 4.44-1.11 11.66-4.9 15.19-7.92 5.5-4.74 8.27-8.63 11.1-15.7a31 31 0 0 1 1.81-4.03c.1-.05 2.47 2.63 5.3 5.96 6.25 7.46 16.9 17.9 23.86 23.4 2.92 2.32 7.81 5.9 10.94 7.92 5.6 3.73 15.8 9.38 20.43 11.4 2.12.91 2.68 1.51 4.74 5.15 7.37 12.7 11.2 22.55 13.83 35.36a99 99 0 0 1 2.01 28.8c-.8 12.91-3.68 25.12-7.72 33.24-3.58 7.22-9.73 14.63-15.18 18.36-3.58 2.48-9.23 5.1-12.76 5.9-1.87.46-7.67.96-13.22 1.17-8.87.4-10.34.6-14.17 1.86A34.7 34.7 0 0 0 140 469.12a51 51 0 0 0-3.13 6.66c-1.41 3.63-1.41 3.89-1.61 16.8-.16 13.11-.16 13.11 1.26 15.28A10 10 0 0 0 140 511c2.01 1.01 3.58 1.01 113.95 1.01 111.88 0 111.88 0 113.95-1.21 1.21-.7 2.57-2.12 3.23-3.28 1.16-2.07 1.16-2.27 1-15.08-.2-12.51-.24-13.12-1.56-16.65a49 49 0 0 0-2.87-6.46c-3.18-5.5-9.74-11.34-15.69-14.02-4.34-1.92-9.63-2.72-19.12-3.02-5.34-.16-9.93-.56-11.6-1.01-1.51-.4-4.9-1.82-7.41-3.13-3.54-1.77-5.8-3.38-9.19-6.56-8.32-7.87-13.51-18.06-16.44-32.43a108.5 108.5 0 0 1 .25-45.4c2.52-11.8 7.52-24.42 13.57-34.2 2.57-4.09 2.68-4.14 7.01-6.26a161 161 0 0 0 28.8-18.1c8.68-6.87 22.45-20.79 27.8-28.16.66-.85 1.36-1.6 1.56-1.6s.5.75.66 1.66c.5 2.67 4.14 9.78 6.66 12.96 4.19 5.35 9.78 9.33 16.85 12.1 3.83 1.52 4.94 1.72 10.7 1.92 6.2.2 6.5.15 8.62-1.06 2.57-1.51 3.63-2.97 4.49-6.1a7 7 0 0 0-.05-4.44 10.2 10.2 0 0 0-4.75-5.8c-.85-.4-3.33-.8-6.05-.9-6.56-.31-9.84-1.62-13.77-5.6-3.63-3.64-5.25-7.17-5.6-12.32-.25-3.27-.25-3.27 4.7-4.74a212 212 0 0 0 21.38-7.97c12.26-5.55 24.21-12.91 33.8-20.88 14.68-12.16 28-28.45 37.43-45.7a197 197 0 0 0 10.64-22.85c3.68-9.44 4.03-10.5 6.36-18.67a227 227 0 0 0 5.85-26.48 188 188 0 0 0 2.52-24.72c.4-8.62-.25-14.68-2.07-19.72-4.29-11.9-14.43-21.29-26.43-24.47-2.88-.8-6.96-.95-32.39-1.16l-29.15-.3-.1-20.18c-.15-22.44-.1-21.94-3.69-25.87-1-1.16-2.77-2.53-3.98-3.08C407.76 0 407.76 0 253.66 0 99.6 0 99.6 0 97.48 1.06m301.5 49.99c0 17.86-.25 38.34-.5 45.55-1.92 48.48-9.13 90.24-21.04 121.57-5.7 15.03-13.46 29.96-21.54 41.36-7.2 10.2-17.8 21.7-27.03 29.36-8.88 7.36-20.79 14.68-30.92 19.02-12.26 5.2-22.6 7.61-37.58 8.87-10.45.86-23.81-.5-35.42-3.58a103 103 0 0 1-22.44-8.72c-18.87-9.59-35.06-23.56-48.98-42.17a197 197 0 0 1-13.67-21.7c-12.46-23.1-21.75-54.02-26.64-88.52-1.66-11.76-3.63-33.85-4.29-47.92-.65-13.37-1.3-82.23-.8-84.14.3-1.37.3-1.37 145.58-1.37h145.27zM89.97 85.85c.45 20.89 1.06 31.99 2.57 47.32 3.63 35.97 8.73 60.33 18.16 86.76 2.07 5.9 3.18 8.53 7.21 17.56 1.52 3.38 2.68 6.3 2.53 6.4-.36.4-3.89-.75-11.1-3.58-14.73-5.75-25.73-12.3-37.48-22.45-21.54-18.46-37.53-45.5-46.71-78.89-4.19-15.18-6.61-31.73-6.71-45.65-.05-9.18-.05-9.38 1.31-12.26 2.62-5.55 6-8.72 11.15-10.49 2.42-.86 5-.9 30.67-.96H89.6zm388.81-14.32a21 21 0 0 1 5.15 3.63 34 34 0 0 1 3.43 5.15c1.46 2.92 1.61 3.63 1.82 9.33.55 14.88-3.28 39.14-8.98 56.9-5.45 17-12.16 31.22-20.84 44.24-6 8.98-11.75 15.79-19.11 22.85a129 129 0 0 1-30.77 21.74c-7.47 3.73-22.2 9.33-22.86 8.67-.1-.1.76-2.21 1.87-4.69 7.77-17.1 14.68-38.38 18.61-57.15 3.43-16.34 6-33.95 7.77-53.32a531 531 0 0 0 2.27-47.31c0-6.2.15-11.45.36-11.66.2-.15 13.31-.25 29.15-.2 28.76.15 28.76.15 32.13 1.82M235.3 334.43c2.22.31 7.22.77 11.1 1.02 7.77.55 20.23-.05 27.8-1.26 2.42-.4 4.54-.66 4.64-.56s-.46 1.62-1.16 3.38c-7.01 16.95-9.84 31.48-9.84 49.89.05 14.58 1.61 25.63 5.35 37.08 2.07 6.3 5.8 14.47 8.57 18.76 2.58 3.89 7.57 9.94 10.6 12.76a71 71 0 0 0 12.1 8.73 64 64 0 0 0 15.09 5.7c1.96.45 7.86.96 13.36 1.16 8.78.3 10.1.45 12.21 1.46 2.72 1.31 5.9 4.6 7.52 7.77 1 1.87 1.16 2.93 1.2 7.47 0 5.3 0 5.3-100.12 5.3s-100.13 0-100.13-5.05c.05-4.14.25-5.5 1.2-7.67 1.32-2.97 4.4-6.05 7.72-7.77 1.92-1 3.23-1.16 12.26-1.51 10.8-.4 15.19-1.21 21.74-3.78a78 78 0 0 0 14.58-8.28c4.5-3.48 10.6-10.19 14.08-15.48 6.05-9.23 9.78-18.67 12.3-31.23 3.59-17.45 3.33-37.58-.7-54.53a143 143 0 0 0-6.3-19.52c-.81-1.86-1.47-3.73-1.47-4.13 0-.5.35-.66 1.16-.46.6.1 2.93.46 5.14.76m14.53-252.2c-1.91 1.15-2.92 2.57-3.88 5.6-.4 1.2-2.02 5.6-3.58 9.78a416 416 0 0 0-3.79 10.34c-.5 1.51-2.22 6.15-3.78 10.34a704 704 0 0 0-3.83 10.4c-1.01 2.87-1.01 2.87-6.16 3.17-2.82.2-10.7.55-17.5.8-29.2 1.17-27.6 1.01-29.36 2.23-2.32 1.56-3.53 3.43-3.78 6-.2 1.71 0 2.87.8 4.49.86 1.76 3.43 4.03 14.23 12.5l19.37 15.24c7.01 5.55 6.86 2.42 1.26 22.85-1.46 5.25-3.03 11.05-3.53 12.87s-1.61 5.9-2.52 9.08-1.87 6.6-2.12 7.61c-1.01 3.68 1.46 8.38 5 9.54.95.35 2.77.5 3.93.4 2.22-.25 3.43-1 16.19-9.84 3.58-2.47 8.32-5.75 10.54-7.31 2.22-1.51 6.86-4.74 10.3-7.11 6.25-4.34 6.25-4.34 12.35-.1 24.87 17.25 32.34 22.34 33.95 23.3 3.83 2.27 9.33.9 11.3-2.88a9 9 0 0 0 .96-3.88c0-1.92-3.94-17-10.6-40.45-1.5-5.2-2.42-9.39-2.16-9.59.25-.15 4.03-3.13 8.42-6.6 4.39-3.49 9.28-7.32 10.9-8.58 12.66-9.79 18.86-14.98 19.72-16.3 1.51-2.57 1.71-4.69.65-7.31a8.4 8.4 0 0 0-2.97-3.73c-2.02-1.36-2.02-1.36-16.14-1.92-16.95-.6-35.77-1.56-35.97-1.77-.15-.15-2.12-5.4-8.93-23.96-5.85-16.04-8.22-22.14-8.98-23.3-1.91-2.83-7.16-3.83-10.29-1.92" clip-rule="evenodd"/>
</svg>
