<svg xmlns="http://www.w3.org/2000/svg" fill="currentColor" viewBox="-0.003 -116.174 511.999 511.999">
    <path fill-rule="evenodd" d="M248.2.45c-7.68.86-15.44 3.28-23.42 7.32a65.5 65.5 0 0 0-22.9 18.97c-6.56 8.73-10.04 15.9-12.87 26.64-1.4 5.45-1.51 6.4-1.56 15.39-.05 10.64.5 14.17 3.48 22.95a67 67 0 0 0 15.64 25.68c9.54 9.94 20.23 16.14 33.8 19.58 3.89.95 6.86 1.3 12.87 1.5 9.13.31 14.43-.24 21.8-2.36 6.55-1.87 16.14-6.61 21.33-10.5a78 78 0 0 0 15.3-15.18 87 87 0 0 0 9.83-18.52c.7-1.97 1.82-5.95 2.42-8.83 1.01-4.34 1.21-6.76 1.21-13.82 0-7.16-.2-9.43-1.16-13.87a70 70 0 0 0-6.86-18.47c-3.48-6.5-5.85-9.79-11.4-15.54C294.1 9.33 279.73 2.22 263.23.45c-5.55-.6-9.54-.6-15.04 0m-158.42 11C75.25 14.43 63.79 22.3 55.52 34.96c-2.47 3.74-5.1 9.84-6.36 14.68-3.78 14.48-1.1 29.77 7.47 42.64 3.28 4.89 9.13 10.84 13.92 14.07a55 55 0 0 0 26.24 8.88c5.85.35 11.85-.35 17.66-2.12 17.5-5.3 30.22-18.46 35.72-37.03 1.3-4.44 1.4-5.45 1.4-13.37s-.1-8.93-1.4-13.37c-3.74-12.51-11.15-23.05-20.94-29.71a68 68 0 0 0-12.97-6.51c-7.41-2.63-18.31-3.33-26.48-1.67m315.82-.6c-4.54.7-9.38 2.02-13.47 3.68a52.4 52.4 0 0 0-29.41 31.53 66 66 0 0 0-2.27 9.74 51 51 0 0 0 5.65 31.38c2.98 5.55 4.59 7.87 8.07 11.6 10.24 11.1 26.24 17.46 41.17 16.45 13.77-.96 27.34-7.67 35.92-17.76a53 53 0 0 0 8.43-13.17 52 52 0 0 0 4.23-28.75c-1.26-8.53-3.93-15.29-8.93-22.7-7.26-10.8-20.08-19.03-33.14-21.4-4.85-.86-12.72-1.16-16.25-.6M78.17 130.06c-6.1.56-9.99 1.37-16.65 3.38-14.68 4.44-29.66 14.08-39.85 25.63A87 87 0 0 0 8.8 178.65c-3.68 7.62-5.3 12.16-7.11 19.88-1.16 4.74-1.36 6.96-1.57 16.7-.25 9.99-.15 11.5.6 13.62 1.17 3.02 4.9 7.01 7.83 8.37 2.27 1.06 2.67 1.06 52.57 1.21 47.83.15 50.3.1 50.75-.75.26-.5.66-1.82.86-2.93a112 112 0 0 1 3.28-11.86c3.03-8.02 4.44-11.45 6.2-14.88a118 118 0 0 1 22.46-30.82 141 141 0 0 1 8.42-7.72 138 138 0 0 1 16.75-11.36c4.14-2.37 4.14-2.37.2-6a92 92 0 0 0-7.97-6.5c-4.79-3.49-15.03-8.89-20.63-10.9a99 99 0 0 0-20.33-4.65c-5.86-.55-36.38-.55-42.94 0m311.8.1c-5.36.46-12.77 2.22-19.03 4.44a108 108 0 0 0-18.06 8.98c-6.05 3.84-15.54 11.81-14.83 12.37.1.1 1.71 1.05 3.58 2.06 5.45 3.03 14.03 9.24 19.88 14.43a127 127 0 0 1 24.52 30.53c4.9 8.62 9.68 21.49 12.1 32.29.66 3.02.66 3.02 51.62 3.02s50.95 0 53.83-1.41a15.2 15.2 0 0 0 7.16-7.37c.91-1.96 1.06-3.53 1.21-10.24.15-6.15-.05-9.58-.85-15.18a81 81 0 0 0-8.18-26.29 83 83 0 0 0-14.78-20.94c-10.64-11-23.96-19.27-37.64-23.4-7.06-2.18-9.83-2.73-16.6-3.39-6.2-.6-37.13-.55-43.94.1M228 154.13c-.96.1-4.49.65-7.82 1.21a108 108 0 0 0-33.8 11.9c-10.24 5.76-15.84 10-24.37 18.47a119 119 0 0 0-17.4 22.1c-1.57 2.67-2.88 5-2.88 5.15 0 .1-1.16 2.62-2.52 5.6a106 106 0 0 0-9.08 31.93 88 88 0 0 0-.46 11.1c.2 5.3.36 6.26 1.62 8.78 1.61 3.33 5 6.66 8.32 8.17 2.37 1.11 2.37 1.11 115.13 1.11s112.76 0 115.69-1.46a17.8 17.8 0 0 0 8.37-9.28c1.11-2.93 1.16-3.49.91-12.06-.3-10.4-1.36-16.55-4.49-26.34-2.17-6.76-3.58-10.19-7.32-17.45-4.33-8.58-11.9-19.02-19.02-26.39-3.12-3.28-11.15-10.04-15.69-13.32-7.36-5.25-19.02-11.15-28-14.18a91 91 0 0 0-14.98-3.98c-5.15-1.01-7.01-1.11-32.95-1.16-15.13-.1-28.3-.05-29.26.1" clip-rule="evenodd"/>
</svg>
