<svg xmlns="http://www.w3.org/2000/svg" width="411" height="512" fill="currentColor" viewBox="0 0 411 512">
    <path fill-rule="evenodd" d="M242.98 1c-1 .54-3.82 4.23-6.5 8.52-8.44 13.47-15.21 29.42-18.02 42.75-.94 4.36-1.21 8.78-1.21 19.1 0 11.26.27 14.61 1.47 20.84 3.76 18.5 11.73 37 25.6 59.45 1.54 2.54 2.62 4.82 2.48 5.09-.2.27-2.88.74-5.9 1-10.52.88-29.01 3.82-38.06 6.04-20.3 5.09-38.2 13.53-52.6 24.86-10.66 8.44-20.78 20.04-26.81 30.76-3.35 5.96-7.5 16.89-9.45 24.73-2.35 9.45-2.88 23.92-1.34 34.65 1.27 8.98 4.62 21.1 8.44 30.96 1.48 3.82 5.36 12.26 8.58 18.76 5.9 11.86 5.9 11.86 3.22 12.2-1.54.2-7.24.87-12.8 1.4-21.98 2.35-37.33 6.64-54.29 15.22a130 130 0 0 0-32.77 23.32c-12.6 12.13-25.53 30.9-31.36 45.44-1.54 3.82-1.88 5.56-1.54 7.37.53 3.08 3.48 5.96 6.7 6.57a9 9 0 0 0 9.38-4.9c8.65-18.83 17.23-31.23 30.3-43.83 4.01-3.88 10.11-8.98 13.6-11.25 13.33-8.92 29.95-15.69 46.98-19.1 9.85-2.01 25.53-3.89 33.44-4.02 5.63-.07 5.63-.07 10.79 8.17 5.76 9.32 12.66 22.92 16.28 31.97 4.76 12.2 7.77 27.34 7.77 39.54 0 19.57-6.1 40.6-16.88 58.57-3.69 6.1-4.23 8.91-2.35 12.6 1.2 2.21 4.7 4.22 7.44 4.22 3.55 0 6.23-1.74 8.44-5.5 4.56-7.77 11.46-22.71 13.67-29.55 5.17-15.95 7.58-31.56 6.84-44.7-.94-18.96-5.7-35.45-15.82-55.62a301 301 0 0 0-7.97-15.08c-1.47-2.55-2.75-4.9-2.75-5.16 0-.2 1.61-.6 3.55-.8 1.88-.27 7.71-.88 12.87-1.48 21.11-2.28 43.76-8.17 59.31-15.48a150 150 0 0 0 23.52-14.07c18.3-13.67 31.7-33.91 36.8-55.5a95 95 0 0 0 2-28.94c-.93-10.39-2.2-16.22-5.62-26.67-3.42-10.2-8.38-20.85-15.02-32.44-2.68-4.56-4.82-8.44-4.82-8.71 0-.2 5.83-1.2 12.93-2.21a405 405 0 0 0 20.58-3.62c22.38-4.96 43.56-14.88 59.04-27.48 8.91-7.24 19.16-19.1 25.87-29.75 3.95-6.37 7.97-14.61 11.39-23.4 2.48-6.36 2.95-8.24 2.68-10.72-.27-2.27-.87-3.48-2.41-4.89-2.48-2.2-4.63-2.81-7.71-2.28-3.82.74-5.97 3.42-7.98 9.79-2.54 7.9-8.98 20.57-14.34 28.14a127 127 0 0 1-10.59 12.4c-13.13 13.14-27 21.38-47.58 28.35-12.46 4.22-35.18 8.38-49.19 8.98-4.29.2-4.29.2-10.92-10.19-8.31-13-17.16-30.69-20.57-41.28-4.16-12.73-5.1-18.3-5.1-31.76 0-13 .8-17.9 4.63-29.29 3.01-8.91 6.77-16.55 12.4-25.26 5.02-7.71 5.56-9.65 3.75-13.14A8 8 0 0 0 247.8 0c-1.68.07-3.89.47-4.83 1m21.05 180.48c10.52 17.56 16.21 30.16 19.83 43.7 4.43 16.61 4.5 29.55.34 44.16-2.08 7.17-6.7 17.02-10.8 22.78-6.22 8.78-16.54 18.3-27.2 25.07-5.3 3.41-13.74 7.57-20.64 10.25-10.12 3.89-25.6 7.7-39.47 9.65-6.5.87-25.6 2.68-28.75 2.68-2.28 0-2.62-.27-4.7-3.89-9.24-15.88-14.34-26.8-18.83-40.34-3.35-9.99-4.82-18.5-4.89-28.48-.06-13.4 2.42-24.87 7.91-36.2 7.24-15.07 21.18-29.14 38-38.26 17.82-9.71 38.47-15.2 68.22-18.3 3.89-.4 7.98-.86 9.05-1 1.14-.06 3.08-.27 4.35-.33 2.35-.07 2.42.06 7.58 8.5m-73.86 13.94a9 9 0 0 0-2.68 4.02c-.73 2.68.07 6.3 1.81 7.77.6.6 7.91 4.1 16.22 7.78s24.86 11.05 36.86 16.35c12 5.36 22.45 9.92 23.32 10.18 2.21.74 5.9-.73 7.84-3.01a7 7 0 0 0 1.68-4.9c0-5.29.73-4.82-28.82-17.95-30.22-13.47-38.67-17.23-43.76-19.57-6.37-2.95-9.58-3.15-12.47-.67m-36.25 33.97c-2.21 1.08-4.7 4.9-4.7 7.18 0 1 .68 2.81 1.55 4.02 1.27 1.94 6.43 4.42 43.7 21.24 23.25 10.45 46.23 20.84 51.2 23.05 7.63 3.49 9.44 4.02 11.65 3.76a8.1 8.1 0 0 0 6.9-6.9 7.1 7.1 0 0 0-3.08-7.04c-1.54-1.14-10.58-5.36-34.5-16.02l-26.81-12.06c-33.71-15.21-40.48-18.1-42.36-18.1-1 0-2.61.4-3.55.87m-12.47 47.59c-1.74 1.54-2.48 2.88-2.68 4.82-.67 5.56-1.54 5.1 38.67 23.32 40.88 18.57 40.41 18.43 44.57 14.28 1.87-1.88 2.28-2.75 2.28-5.23 0-1.6-.47-3.62-1.08-4.49-1.27-1.74-2.88-2.55-39.47-19.17-34.51-15.61-34.71-15.75-37.46-15.75-1.81 0-3.02.54-4.83 2.22m114.27-237.1a7.5 7.5 0 0 0-3.96 6.7c0 3.35 1.54 5.96 4.16 7.23 2.07.94 50.73 22.52 82.3 36.46 7.9 3.48 16.75 7.44 19.7 8.71 4.15 1.88 5.83 2.28 7.9 2.01 3.09-.4 5.03-1.94 6.37-5.02.67-1.68.74-2.82.2-4.76a8.3 8.3 0 0 0-1.88-3.62c-1.07-1-15.88-7.84-26.53-12.33-3.56-1.48-70.3-30.96-78.75-34.78-4.02-1.81-6.97-2.01-9.51-.6m-7.78 47.17c-1.14.74-2.48 1.95-2.81 2.68-1 1.88-.94 5.83.2 8.05 1.14 2.07-.54 1.34 50.26 23.85 29.42 13.07 33.04 14.55 35.45 14.21a8.6 8.6 0 0 0 4.76-2.41c1.68-1.74 2.08-2.68 2.08-5.03 0-1.94-.47-3.62-1.41-4.82-1.07-1.48-9.92-5.7-41.21-19.57-23.06-10.26-40.95-17.83-42.5-18.03a7 7 0 0 0-4.82 1.07M79.06 377.57c-2.41 1.14-4.89 4.62-4.89 6.97 0 .87.54 2.68 1.14 4.02 1.2 2.54 0 1.94 26.34 14.07 6.43 2.95 17.89 8.24 25.46 11.73 25 11.52 27.28 12.53 28.75 12.53 2.62 0 5.97-1.88 7.04-3.95.6-1.08 1.07-2.95 1.07-4.1 0-3.48-1.67-5.76-5.5-7.56-1.94-.94-9.71-4.56-17.28-8.05a6732 6732 0 0 1-34.85-16.15c-11.6-5.36-22.05-9.92-23.12-10.12a8 8 0 0 0-4.16.6M41.2 413.22c-3.82 2-5.1 7.97-2.41 11.32.8 1.01 3.28 2.69 5.5 3.69 2.27 1 24.12 11.2 48.65 22.58a4951 4951 0 0 0 49.45 22.92c3.96 1.75 5.43 2.08 7.58 1.75a7 7 0 0 0 4.28-2.48c2.95-3.49 3.02-6.97.14-10.19-.87-1.07-9.72-5.56-22.92-11.73-32.24-14.94-68.09-31.63-76.53-35.52-4.43-2-8.38-3.41-9.72-3.41-1.2.06-3.02.47-4.02 1.07" clip-rule="evenodd"/>
</svg>
