<svg xmlns="http://www.w3.org/2000/svg" fill="currentColor" viewBox="-81.646 -94.413 675.286 675.286">
    <path fill-rule="evenodd" d="M189.26 1.65c-4.63 2.06-7.54 4.37-10.11 7.8-1.11 1.45-3.94 8.73-6.34 16.1s-17.22 52.25-32.98 99.87c-15.67 47.54-28.95 87.97-29.55 89.68-1.37 4.46-4.02 7.54-8.05 9.34-3.25 1.46-6.5 1.63-45.9 1.63s-42.66.17-45.92 1.62c-6.94 3.17-11.48 12-10.2 19.7.26 1.89 1.72 5.14 3.1 7.37 1.88 2.91 3.67 4.45 7.01 6 4.46 2.14 4.46 2.14 52.17 2.14 44.28 0 47.96-.09 52.85-1.63a47 47 0 0 0 8.82-3.77c7.7-4.45 14.65-14.13 18.07-25 10.62-33.93 54.48-165.92 55.42-166.95.86-.86 12.33 34.26 37.69 115.98 4.37 13.87 10.28 32.97 13.27 42.4s8.31 26.38 11.82 37.68c3.6 11.3 10.03 31.7 14.3 45.4 4.3 13.62 8.49 27.15 9.43 29.98.86 2.83 7.2 23.21 14.13 45.4s15 47.96 18 57.38 6.59 21.07 8.13 25.87c3.08 10.28 6.34 15.08 12.42 18.42 3.5 1.97 5.4 2.4 10.28 2.4 7.1 0 11.65-1.8 16.01-6.34a28 28 0 0 0 4.37-6.26c.77-1.8 5.31-16.18 10.1-31.95 4.72-15.76 11.14-37 14.23-47.1 3-10.11 8.56-28.44 12.25-40.7 3.68-12.24 10.45-34.6 14.99-49.67a2172 2172 0 0 0 9.16-30.4q1.95-6.83 7.88-9.51c3.17-1.46 6.08-1.63 31.7-1.63 19.7 0 29.2-.34 31.68-1.03 6.69-2.06 12.51-10.1 12.51-17.39 0-7.02-5.14-14.73-11.4-17.13-3.16-1.2-8.04-1.37-40.08-1.11-36.32.25-36.32.25-42.31 3.17-7.28 3.6-14.65 10.7-17.82 17.21-2.31 4.71-3.42 8.23-19.78 62.96-4.89 16.44-13.28 44.2-18.5 61.67a5319 5319 0 0 0-11.82 39.14c-1.2 4.2-2.49 7.54-2.75 7.54-.51 0-7.28-21.15-26.2-82.23-2.15-6.85-5.57-17.64-7.63-23.98s-4.45-14.05-5.4-17.13c-.94-3.08-7.53-24.24-14.73-47.11-7.1-22.87-16.01-51.56-19.87-63.81-3.77-12.25-10.28-33.06-14.39-46.26-7.54-23.72-10.62-33.57-29.64-93.36-5.4-16.96-10.79-32.29-11.9-34-2.57-3.77-7.03-7.37-11.3-8.91-4.89-1.71-12.86-1.46-17.22.51" clip-rule="evenodd"/>
</svg>
