<svg xmlns="http://www.w3.org/2000/svg" fill="currentColor" viewBox="-21.956 -33.853 555.911 555.911">
    <path fill-rule="evenodd" d="M332.65.76c-3.38 1.2-5.9 3.07-7.56 5.7-1.51 2.36-2.67 6.44-9.37 32.04l-4.59 17.44c-1.31 4.79-1.31 4.79-6.2 2.37-5.6-2.83-9.27-3.88-14.91-4.24-8.17-.6-18.2 2.62-25.05 8.07-6.7 5.34-11.7 13.7-13.56 22.72-.75 3.68-.95 5.95-.75 8.52a43 43 0 0 0 4.23 15.42c2.02 4.08 3.08 5.5 7.16 9.63 3.47 3.47 5.74 5.29 8.31 6.6 5.85 3.02 9.83 4.03 16.58 4.23 3.33.1 6.1.25 6.15.35.15.16-1.61 7.21-5.85 23.29-8 30.64-8.16 31.14-7.86 33.6.5 4.64 3.58 8.58 7.91 10.14 1.21.45 7.46 2.32 13.81 4.13a4149 4149 0 0 1 33.67 10.03c3.27 1 6.65 1.81 7.45 1.81 1.87 0 3.83-1 5.6-2.87 2.52-2.67 3.02-5.9 1.66-10.48-.45-1.41-.9-4.13-1.06-6.05-.55-6.8 2.17-14.21 7.3-19.55a31 31 0 0 1 5-4.23 26.2 26.2 0 0 1 17.84-3.43c5.39.96 9.12 2.92 13.25 7.05 6.1 6.05 8.16 11.64 7.71 20.72-.25 4.18-.5 5.19-2.12 8.51-1 2.07-2.97 5-4.33 6.5-2.87 3.13-4.03 5.5-4.03 8.22 0 2.21 1.71 5.44 3.53 6.75 1.26.96 8.01 2.97 28.47 8.57 6.1 1.66 15.92 4.43 21.87 6.1 9.47 2.61 11.24 3.02 14.21 2.82 2.82-.16 3.83-.46 5.6-1.72a17 17 0 0 0 3.52-3.47c1.36-1.92 3.23-8.52 14.11-49.64 2.42-9.17 4.08-15.52 7.61-28.47l6.86-25.2c1.91-7.2 4.73-17.64 6.24-23.18 3.73-13.56 9.23-34.07 10.18-37.8.4-1.61.76-4.03.76-5.29 0-2.97-1.2-7.6-2.82-10.99-1.56-3.17-5.6-7.45-8.77-9.32-1.36-.75-9.52-3.37-20.16-6.4-9.82-2.82-25.04-7.15-33.76-9.67-8.72-2.47-17.9-5.1-20.36-5.75-2.42-.65-11.5-3.22-20.16-5.7C344.8 1.17 340.46-.04 337.13 0c-1.26 0-3.27.35-4.48.76M341.17 13c2.06.56 10.68 2.93 19.14 5.34 25.9 7.36 41.03 11.6 54.43 15.37 7.06 1.97 15.02 4.24 17.64 5.04 2.62.81 8.87 2.57 13.86 3.99C480.8 52.4 493 55.94 494.2 56.59c2.77 1.41 4.99 4.59 5.65 8.07.35 2.01.2 3.32-1.06 8.06-.8 3.07-2.02 7.6-2.67 10.13-3.88 14.76-5.4 20.46-7.26 27.21-1.16 4.13-3.93 14.26-6.1 22.43-2.22 8.16-5.19 19.05-6.55 24.19l-4.53 16.63c-7.36 27.66-12.35 46.3-13.51 50.6-.7 2.71-1.56 5.03-1.92 5.18s-3.88-.65-7.86-1.81c-6.2-1.72-24.94-6.9-39.96-10.94-2.47-.7-4.58-1.3-4.69-1.46-.1-.1.46-1.16 1.31-2.37 8.17-11.94 8.57-28.07 1.01-40.67a36 36 0 0 0-11.18-11.79c-5.04-3.32-8.32-4.74-13.26-5.7a37 37 0 0 0-23.58 3.13 46 46 0 0 0-7.86 4.94 43 43 0 0 0-5.9 6.2 41 41 0 0 0-6.65 13.86c-.8 2.87-1.01 4.99-.96 9.62.05 3.28-.05 6.05-.15 6.15-.2.25-3.07-.55-12-3.28-7.05-2.16-27.81-8.21-31.09-9.07-1.3-.3-2.16-.85-2.16-1.26 0-.4 1.46-6.35 3.27-13.2 7-26.66 11.44-44.7 11.44-46.71 0-1.11-.25-2.68-.5-3.38-.6-1.61-3.73-4.38-5.4-4.79-.65-.15-2.41-.15-3.88 0-1.46.2-4.88.46-7.55.6-4.19.26-5.4.16-8.22-.8-6-2.02-11.59-6.55-14.66-12.04-1.67-3.03-3.23-9.02-3.23-12.6 0-3.48 1.16-8.47 2.57-11.29a27.7 27.7 0 0 1 14.46-13c2.37-.96 3.88-1.16 8.67-1.21 5.65 0 5.9.05 9.68 1.86 2.16 1.01 4.99 2.88 6.3 4.09a33 33 0 0 0 3.52 2.82c1.62.8 6.05.7 8.02-.25a8 8 0 0 0 2.72-2.47c.55-.86 1.56-3.88 2.32-6.6 3.42-13.31 7.05-26.87 10.23-38.76 2.72-10.18 3.73-13.3 4.58-13.96.6-.5 1.26-.9 1.46-.9.15 0 2.02.45 4.09.95M20.16 91.21c-5.8.81-11.19 3.73-14.77 8.02-1.81 2.11-3.58 5.59-4.58 9.02-.76 2.52-.81 18.6-.81 181.52 0 176.88 0 178.8 1 181.97 1.27 4.08 4.24 8.77 7.16 11.13 1.21 1.01 3.78 2.57 5.75 3.48 3.48 1.66 3.48 1.66 186.4 1.82 138.59.1 183.59 0 185.7-.46a24 24 0 0 0 5.25-1.81c5.19-2.62 9.72-8.42 11.59-14.72.7-2.47.8-11.44.8-85.72 0-74.43-.1-83.25-.8-85.72a21.2 21.2 0 0 0-11.7-13.7c-3.37-1.62-3.37-1.62-37.13-1.62s-33.77 0-35.48 1.21c-2.12 1.51-3.53 4.64-3.58 7.66 0 1.72.5 3.23 1.97 6.05 2.72 5.14 3.73 8.97 3.67 13.8a26 26 0 0 1-4.48 14.47c-3.83 5.8-9.68 10.08-16.03 11.74-1.66.4-4.68.76-6.8.76q-11.26 0-19.15-8.01a29 29 0 0 1-7.25-12.1c-.46-1.61-.81-4.58-.81-7.2 0-5.04.9-8.42 3.78-13.81 1.86-3.53 2.27-6.4 1.2-9.12-.75-2.12-3.42-4.64-5.49-5.2-1.05-.3-13.15-.5-30.33-.5H206.6V255.9c0-26.76.05-28.27.91-27.92 4.18 1.77 7.4 2.42 13 2.67 5.04.15 6.8.05 10.33-.85 5.4-1.36 11.44-4.34 15.47-7.66 5.9-4.84 10.64-12.45 12.75-20.41 1.36-5.04 1.52-13.5.3-18.5-1.7-6.95-6.3-14.91-11.13-19.4-2.92-2.67-8.32-6.15-11.84-7.56a47 47 0 0 0-6.76-1.91c-4.83-1.01-12.14-.76-16.73.55-1.66.5-3.52 1.01-4.13 1.11-1.16.25-1.16.25-1.16-27.36 0-25.8-.1-27.82-.96-29.74a13.3 13.3 0 0 0-6.7-6.75c-2.67-1.16-2.67-1.16-89.85-1.26-47.97-.05-88.44.1-89.95.3m174.56 12c1.31.55 1.31.55 1.31 31.04 0 32.8-.05 31.9 2.62 34.37 1.61 1.51 4.94 2.32 7.3 1.71a34 34 0 0 0 5.2-1.96c7.91-3.63 15.47-3.48 23.23.4 7.3 3.73 12.85 11.49 14.01 19.86.7 5.08-.1 9.92-2.42 14.66a37 37 0 0 1-4.13 6.45c-2.77 3.17-6.95 5.95-11.44 7.6-2.87 1.02-4.64 1.32-7.91 1.32-4.59 0-9.63-1.26-13.1-3.33a10.8 10.8 0 0 0-8.32-1.2c-2.27.6-4.58 2.36-5.7 4.28-.45.7-.65 10.13-.85 33.51l-.25 32.5-24.04.1c-14.31.05-24.19-.1-24.34-.35s.05-1.1.4-1.86c.4-.76 1.26-3.43 1.87-5.95.95-3.83 1.1-5.44.9-10.33-.2-4.74-.55-6.65-1.86-10.58a51 51 0 0 0-3.93-8.47 39 39 0 0 0-26.16-17.74c-4.38-.75-12.34-.4-16.57.76-4.24 1.1-10.59 4.33-13.96 7-5.6 4.49-10.23 11.19-13.06 18.95-1.05 2.92-1.2 4.13-1.2 11.6.05 7.7.15 8.6 1.36 12.34.75 2.22 1.2 4.18 1 4.38-.25.25-14.36.36-31.4.3l-30.93-.15-.15-86.17c-.16-96.6-.46-88.6 3.67-92.42 2.02-1.87 2.78-2.17 6.8-2.72.71-.1 39.42-.26 85.98-.3 55.63-.06 85.16.1 86.07.4m-77.6 138.38a25.4 25.4 0 0 1 11.94 6.8 35 35 0 0 1 4.89 6.15c.9 1.56 2.11 4.74 2.72 7 1.71 6.86.85 12-3.38 20.62-1.56 3.22-1.81 4.13-1.56 6.2a8.9 8.9 0 0 0 3.53 6.5c1.56 1.15 1.56 1.15 30.03 1.4l28.47.26.15 28.17c.1 22.47 0 28.07-.5 27.87-4.69-2.07-7.81-3.13-10.93-3.68a38.6 38.6 0 0 0-27.07 4.89c-3.83 2.31-8.87 7-11.54 10.78a37 37 0 0 0-6.35 14.46 38 38 0 0 0 0 16.53c1.67 7.26 4.7 12.95 10.03 18.75 7.76 8.36 20.36 12.9 31.95 11.49 4.34-.5 12.25-2.67 13.2-3.58.3-.25.71-.45.91-.45s.4 12.24.4 27.2v27.22l-87.58-.1c-87.63-.15-87.63-.15-89.6-1.51a15 15 0 0 1-3.22-3.28c-1.26-1.86-1.26-1.86-1.26-88.29v-86.47l35.78-.25c33.76-.26 35.88-.3 37.14-1.21a10 10 0 0 0 2.52-2.78c.9-1.4 1.15-2.51 1.1-4.83-.05-2.42-.4-3.73-1.86-6.6-2.72-5.25-3.53-9.08-3.23-14.82.26-5.44 1.31-8.57 4.34-13.05 3.88-5.7 9.67-9.88 15.92-11.44 3.53-.86 9.58-.86 13.05.05m140.14 55.53a53 53 0 0 0-2.87 11.6c-.4 3.57-.4 5.64.05 8.96.7 5.2 2.77 11.2 5.14 15.12a48 48 0 0 0 9.47 10.99c3.23 2.77 9.58 6 14.16 7.25 2.42.66 5.1.91 10.08.91 7.91-.05 11.34-.75 17.39-3.73 7.66-3.78 13.55-9.82 17.43-17.94a37 37 0 0 0 3.98-17.38c0-5.1-.6-8.57-2.77-15.53-.35-1.1-.35-1.1 27.67-1.1 23.53 0 28.32.1 29.48.7 2.42 1.26 4.43 4.03 5.09 6.96.4 1.96.5 24.24.4 83.3-.15 80.68-.15 80.68-1.4 83.15a11 11 0 0 1-3.74 4.13c-2.42 1.66-2.42 1.66-91.56 1.66H206.1V446.2c0-32.76.05-32.05-2.92-35.18-.76-.8-2.52-1.71-3.98-2.16a9 9 0 0 0-5.3-.26 26 26 0 0 0-5.24 2.07c-3.22 1.86-9.47 3.53-13.25 3.53-3.68 0-8.01-1.11-12.14-3.13-4.49-2.16-10.08-7.76-12.1-12.1-1.51-3.22-2.97-8.96-3.02-11.63 0-3.03 1.66-9.33 3.42-12.65 2.27-4.28 6.96-9.12 10.94-11.24 5.09-2.67 8.26-3.33 14.31-3.02 5.5.25 6.7.55 12.35 3.47 3.37 1.72 7.2 2.27 10.18 1.47a8.4 8.4 0 0 0 5.8-4.8c.85-1.9.95-3.97.95-33.2v-31.1h25.75c24.34 0 25.75.06 25.4.86" clip-rule="evenodd"/>
</svg>
