<svg xmlns="http://www.w3.org/2000/svg" fill="currentColor" viewBox="-58.951 -78.337 629.899 629.899">
    <path fill-rule="evenodd" d="M494.5.5c-6.8 1.57-14.2 5.62-22.95 12.61-4.2 3.4-8 6.9-20.11 18.7-6.74 6.58-8.46 8-9.37 7.74-3.1-.65-29.18-5.57-42.7-8.05-24.77-4.5-32.98-5.88-35.16-5.88-1.16 0-2.93.46-4 .97-1.01.55-4.3 3.44-7.3 6.48-4.4 4.5-5.46 5.83-5.77 7.5a5.3 5.3 0 0 0 .61 3.8c1.07 1.97.26 1.52 38.35 20.92 11.14 5.62 20.3 10.48 20.46 10.83.3.76.3.71-11.14 14.04-5.12 5.92-9.43 10.43-9.88 10.43-.5 0-3.4-.56-6.43-1.27-3.1-.7-7.15-1.62-9.12-2.02-1.93-.4-4.46-.96-5.57-1.27-2.9-.7-4.66-.6-6.59.3-2.43 1.12-11.6 9.98-12.61 12.11-1.12 2.28-.71 5.27.86 6.74.66.6 2.74 1.77 4.66 2.68 1.98.86 7.3 3.4 11.9 5.63 4.61 2.17 10.34 4.9 12.72 6.07 4.35 2.03 4.35 2.03 12 18.04 7.1 15.04 7.7 16.1 9.42 17.01 3.6 1.78 5.52.71 14.34-7.9 4.25-4.15 5.11-5.87 4.5-8.91-.15-.76-1.21-5.83-2.37-11.25a481 481 0 0 1-2.33-11.2c-.2-1.05.2-1.66 2.22-3.28 1.37-1.07 6.29-5.27 10.95-9.32 8.35-7.2 10.73-9.07 11.14-8.61.1.15 2.68 4.7 5.67 10.13 2.99 5.42 6.43 11.6 7.6 13.67 2.73 4.87 8.1 14.8 13.37 24.92 2.43 4.66 4.61 8.26 5.37 8.72.66.45 2.28.8 3.55.8 2.07 0 2.58-.25 6.18-3.49 6.07-5.37 9.11-8.76 9.82-11.1.5-1.76.46-3.08-.45-8.8-.61-3.7-1.83-10.74-2.69-15.6l-3.5-20.01c-1.06-6.13-2.88-16.47-4-23-2.07-11.85-2.07-11.85 5.98-20 9.42-9.58 12.46-12.92 17.17-19.2 8.36-11.1 12.11-19.05 12.62-26.75.2-2.89.05-4.5-.61-6.48-1.67-5.02-4.97-7.45-10.79-7.9-1.57-.16-4.3.1-6.03.45m6.37 9.93c1.37.7 1.68 3.4.81 6.74-1.06 4.05-4.7 11.09-8.2 15.85-4.76 6.33-8.76 10.84-19.2 21.53-6.43 6.48-9.88 10.38-10.13 11.34-.35 1.47-.2 2.54 1.77 13.43.56 2.93 1.68 9.16 2.54 13.93 5.21 28.31 8.66 48.42 8.66 50.4 0 1.1-4.4 6.58-5.32 6.58-.25 0-2.08-3.14-4.05-6.94a827 827 0 0 0-13.17-24.46c-1.47-2.64-5.02-9.02-7.85-14.19a196 196 0 0 0-6.39-10.99 5 5 0 0 0-2.98-1.97c-2.84-.51-4.61.76-24.11 17.57-3.75 3.24-8.1 7.1-9.68 8.61-2.38 2.23-2.94 3.1-2.94 4.36 0 1.52.71 5.17 2.28 11.8 1.83 7.55 3.1 13.98 2.94 14.49-.1.35-1.32 1.57-2.74 2.73-2.53 2.13-2.53 2.13-6.28-5.72-2.02-4.3-4.2-8.97-4.8-10.28-2.34-5.12-4.67-9.63-5.48-10.54-.76-.86-4.86-2.94-15.3-7.8-1.82-.81-5.77-2.68-8.8-4.15-5.53-2.59-5.53-2.59-3.55-4.61 1.06-1.07 2.27-2.08 2.78-2.23.76-.25 6.43.8 19 3.54a57 57 0 0 0 6.94 1.27c.7 0 1.87-.25 2.58-.56.66-.3 3.6-3.34 6.48-6.68 2.84-3.4 6.13-7.14 7.3-8.41 5.62-6.28 14.89-17.93 15.2-19.05.4-1.67-.62-4.1-2.29-5.26-.7-.51-4.96-2.79-9.42-5.12-4.46-2.28-12.1-6.28-16.97-8.86-4.86-2.59-13.62-7.15-19.5-10.13a294 294 0 0 1-11.14-5.88c-.26-.3.4-1.32 1.77-2.74 1.62-1.62 2.63-2.28 3.7-2.28 1.26 0 20.97 3.25 27.7 4.56 1.52.3 9.07 1.73 16.72 3.1 7.65 1.41 16.2 2.98 19 3.54 8.91 1.72 16.15 2.68 17.52 2.33.71-.2 5.62-4.5 11.14-9.88 11.9-11.55 16.11-15.45 21.63-19.85 8.97-7.25 18.19-11.1 21.83-9.12M332.51 126.02c-.56.3-2.84 1.87-5.12 3.54-2.58 1.83-4.61 2.94-5.47 2.94-1.72 0-4.96 2.03-8.05 4.97-2.33 2.33-2.49 2.38-6.34 2.68-6.83.5-11.8 3.55-15.95 9.83a13 13 0 0 1-4.16 3.95 28 28 0 0 0-4.15 2.99c-1.37 1.36-1.82 1.46-3.6 1.16-2.43-.4-4.4.36-8.2 3.24-2.18 1.62-3.2 2.08-4.81 2.08-2.89 0-7.14 1.32-9.98 3.14a19.4 19.4 0 0 0-8.46 11.35c-.4 1.62-.91 2.28-2.08 2.73a11 11 0 0 0-3.24 2.69c-1.67 2.02-1.67 2.02-4 1.46-1.27-.35-3.44-.6-4.81-.6-3.3 0-8.41 1.62-11.4 3.6-2.79 1.82-4.76 4.2-6.69 8.05-.76 1.52-1.46 2.83-1.51 2.93-.1.1-1.93-.2-4.1-.65-7-1.47-13.28-.1-18.6 4.1a22 22 0 0 0-7.4 10.59c-.85 2.78-1.06 2.98-3.54 4a16.3 16.3 0 0 0-7.65 6.83 9 9 0 0 1-1.47 2.28c-.25.2-1.57-.05-2.93-.55-1.52-.5-4.06-.86-6.74-.86-3.24 0-5.17.25-7.75 1.16a22.3 22.3 0 0 0-15.2 19.2c-.2 1.77-.6 2.53-2.02 3.7-.96.8-2.43 2.48-3.2 3.7-2.02 3.24-2.58 3.44-6.07 2.22-3.8-1.31-9.93-1.72-13.47-.9-5.93 1.36-11.9 5.87-14.74 11.03-1.47 2.74-2.9 7.96-2.9 10.9 0 1.92 0 1.92-2.63 1.51-4.66-.7-10.02-.35-13.57.86-3.95 1.37-8.92 4.77-11.3 7.75a27.5 27.5 0 0 0-5.92 16.92c0 2.74-.15 3.24-1.32 4.16-1.32 1-1.32 1-3.9-.3-8.81-4.47-16-4.72-24.06-.87-4.91 2.38-9.52 6.89-11.6 11.35-2.28 4.9-2.89 8-2.53 13.72.3 4.92.3 4.92-2.03 5.52-5.57 1.37-11.24 5.37-14.28 9.98C.07 351.37-1 359.27.98 365.55q2.58 8.36 10.84 13.07c2.39 1.37 7.35 2.58 10.64 2.58 3.04 0 7.85-1.21 10.94-2.78a23 23 0 0 0 9.27-9.22c2.18-4.2 2.84-6.53 2.94-10.69.05-1.72.25-3.14.46-3.14.2 0 1.46.36 2.83.76 3.35 1.01 9.52.96 12.67-.1 2.83-.96 7.04-3.5 8.66-5.27 2.07-2.28 4.66-7.14 5.01-9.37.15-1.21.5-2.38.76-2.48.2-.15 2.33-.35 4.66-.4 3.65-.16 4.76-.41 8-1.98 4.26-2.03 7.5-5.07 9.17-8.51.86-1.72 1.17-3.44 1.32-7.24.2-4.82.25-4.97 1.32-4.71.55.15 2.48.55 4.2.9 2.33.41 3.8.41 6.03 0 6.38-1.3 11.1-4.7 14.18-10.38 1.27-2.28 1.47-3.29 1.62-7.85.15-3.6.4-5.16.81-5.16.36 0 1.88.25 3.45.55 2.02.4 3.5.4 5.52 0 5.82-1.21 10.79-4.5 13.32-8.91 1.82-3.04 2.99-8 2.58-10.64-.3-2.18-.3-2.18 2.54-3.04a15.3 15.3 0 0 0 10.38-10.79c.3-1.16.76-2.12.96-2.12.25 0 1.32.35 2.38.86 1.27.5 3.45.8 6.03.86 3.4 0 4.56-.2 7.2-1.42 3.69-1.67 7.29-5.27 8.86-8.76a22 22 0 0 0 1.31-5.47c.2-3.14.2-3.14 4.1-2.94 2.94.2 4.51 0 6.74-.81q8.6-2.95 11.25-10.84c.45-1.32.8-3.1.8-3.9 0-1.17.36-1.67 1.58-2.28 1.82-.96 5.52-4.66 5.52-5.57 0-.46 1.47-.61 5.72-.56 5.17.05 5.93-.05 8.61-1.32 2.18-1.01 4.66-3.04 9.38-7.65 5.82-5.72 6.68-6.38 9.06-6.93a18 18 0 0 0 5.42-2.59 12 12 0 0 0 4.3-5.11c.87-1.68 1.58-3.65 1.58-4.26q.02-1.15 1.42-1.92c.76-.4 2.28-1.42 3.34-2.28 1.27-1.02 2.33-1.47 2.89-1.32 1.36.46 6.73-1.06 9.42-2.63 2.83-1.62 5.47-5.12 6.53-8.61.46-1.63 1.12-2.74 1.67-2.94a9 9 0 0 0 2.69-1.98c1.47-1.42 2.18-1.72 4.86-1.92 3.5-.36 6.43-1.83 9.07-4.56.9-.91 1.97-2.53 2.43-3.55a5.4 5.4 0 0 1 2.18-2.63 13 13 0 0 0 4.6-4.76 2.1 2.1 0 0 1 1.73-1.12c1.97 0 6.13-2.28 8-4.4 1.06-1.17 2.03-2.49 2.18-3 .2-.55 2.68-2.52 5.57-4.45 2.89-1.92 5.52-4.05 5.83-4.71.3-.66.55-2.03.55-2.99 0-1.32-.4-2.23-1.47-3.3-1.21-1.16-1.92-1.46-3.7-1.46-1.2 0-2.63.3-3.18.6m38.85 36.72c-.97.46-3.35 2.69-5.32 4.91-2.89 3.3-4 4.2-5.68 4.61-3.03.81-6.68 3.6-8.6 6.59-2.18 3.34-4 4.81-6.03 4.81-2.49 0-7.4 3.04-9.58 5.88a17 17 0 0 0-2.23 3.74c-.15.71-.9 1.98-1.57 2.84-1.01 1.32-1.77 1.67-3.85 1.98-1.41.15-3.54.76-4.66 1.26-4.55 1.98-8.46 7.04-9.11 11.8a7 7 0 0 1-1.98 3.96c-1.57 1.72-1.92 1.87-5.37 2.07-4.5.36-7.85 1.72-10.94 4.61-2.43 2.23-3.75 4.51-5.27 8.92a16 16 0 0 1-1.82 3.7c-.5.55-1.52.9-2.63.9-2.39 0-6.29 1.22-8.92 2.74-2.33 1.37-5.37 4.5-6.48 6.74-.71 1.31-1.22 3.09-2.08 6.94-.3 1.26-.5 1.42-1.82 1.11-4.1-.8-11.8 2.33-15.25 6.18-2.68 3.04-4 6.08-4.46 10.23-.25 2.89-.45 3.3-1.31 3.14-.56-.1-2.74-.2-4.82-.2-5.97-.1-10.94 1.93-15.6 6.38a19 19 0 0 0-3.44 4.46c-1.52 3.04-2.74 7.55-2.74 10.38 0 2.13 0 2.13-4.66 2.08-5.52-.1-8.5.76-12.91 3.6-5.32 3.44-8.66 9.37-9.12 16.3-.2 2.7-.56 4.16-1.22 4.97-.96 1.17-1.06 1.17-4 .56-4.05-.86-10.13-.4-13.83 1.01-4.25 1.62-8.45 5.73-10.84 10.54-1.87 3.7-1.92 4.05-1.92 9.06 0 5.27 0 5.27-1.27 4.97-7.7-1.98-11.14-2.08-16.4-.3a22.8 22.8 0 0 0-13.68 11.85 24.5 24.5 0 0 0-2.49 13.17c.26 2.98.2 3.39-.6 3.39-1.73 0-7.3 3.09-9.73 5.42a28 28 0 0 0-3.9 4.76c-.7 1.27-1.77 4-2.28 6.08-.7 2.63-1.16 3.7-1.67 3.55-.35-.16-2.89-.36-5.57-.46-4-.15-5.52 0-7.95.81-4.2 1.42-8.26 4.15-10.74 7.3-2.33 2.93-4.3 6.83-4.81 9.36-.3 1.57-.3 1.57-5.93 1.57-4.26 0-6.54.26-9.07 1.02-5.21 1.57-8.4 3.5-12.61 7.7-2.84 2.78-4.36 4.8-5.72 7.6a34 34 0 0 0-3.35 13.97c0 4 1.57 10.14 3.65 13.98a37 37 0 0 0 5.07 6.74c5.06 5.42 11.24 8.41 18.99 9.12 4.86.45 11.1-.76 15.85-3.1 2.94-1.4 4.82-2.88 8.1-6.22 2.7-2.74 4.87-5.47 5.78-7.3 1.12-2.22 1.67-2.83 2.28-2.63 2.84 1.17 8.87 2.28 12 2.28 4.97 0 8.31-.76 12.87-2.89a24 24 0 0 0 7.35-5.42c3.95-4 6.33-8 7.6-12.96.65-2.49.8-4.51.6-8.36a99 99 0 0 0-.45-6.08c-.15-.86.25-1.01 3.09-1.37 9.42-1.06 16.86-5.57 20.97-12.61.7-1.22 1.77-3.7 2.43-5.52.86-2.58 1.11-4.36 1.06-8.4-.05-5.12-.05-5.12 3.6-5.48 7.14-.66 13.67-3.8 18.03-8.71 4.15-4.76 5.67-8.76 6.08-16.41.3-5.47.35-5.83 1.32-5.68.55.1 2.88.3 5.21.46 5.63.35 9.68-.7 14.49-3.95a24.5 24.5 0 0 0 8.81-10.49c1.02-2.28 1.32-3.9 1.52-8.1.26-5.22.26-5.22 2.84-6.89 2.99-1.92 6.08-5.27 7.24-7.9.46-.96 1.07-3.2 1.37-4.97.56-3.19.56-3.19 3.6-3.39 7.8-.45 15.85-5.62 18.94-12.2.6-1.27 1.37-3.7 1.77-5.43 1.02-4.86 1.78-5.67 5.98-6.63a32 32 0 0 0 6.59-2.43c5.77-3.1 10.28-9.78 10.89-16.26.3-3.5.3-3.5 2.93-5.42 3.3-2.43 5.58-5.17 6.64-7.9.66-1.73 1.06-2.18 2.38-2.38.91-.16 2.99-.76 4.66-1.42 2.28-.86 3.85-1.93 6.38-4.46s3.6-4.1 4.46-6.38a11 11 0 0 1 3.09-4.66 17 17 0 0 0 2.99-3.4c.6-.9 2.43-2.53 4.1-3.54 1.72-1.07 3.65-2.74 4.3-3.75a19 19 0 0 0 1.83-4.4c.46-1.93 1.21-3.15 3.04-4.92 1.32-1.32 2.53-2.89 2.73-3.44.2-.56.92-1.12 1.68-1.27 5.06-1.01 11.14-6.38 12.5-11.04.72-2.38 1.07-2.84 4.16-4.92 2.68-1.82 3.7-2.88 4.91-5.21a14 14 0 0 1 3.9-4.66c2.33-1.68 4.51-4.56 4.51-5.88 0-.4 1.82-2.28 4-4.15s4.36-4.2 4.81-5.12c1.27-2.68 1.07-4.7-.65-6.43a4.2 4.2 0 0 0-3.45-1.47c-1.06 0-2.68.4-3.6.86" clip-rule="evenodd"/>
</svg>
