<svg xmlns="http://www.w3.org/2000/svg" width="512" height="471" fill="currentColor" viewBox="0 0 512 471">
    <path fill-rule="evenodd" d="M14.06 2.19a26.6 26.6 0 0 0-12.34 12.5C0 18.35 0 18.35 0 234.31c0 206.13.08 216.13 1.4 220.04 1.96 5.7 6.65 10.62 12.9 13.67 5.23 2.57 5.23 2.57 161.83 2.57s156.61 0 160.9-2.03c7.35-3.43 12.97-10.07 14.46-17.1.31-1.49.62-7.9.62-14.22s.24-11.56.47-11.56c.24 0 3.13 1.02 6.33 2.27a68 68 0 0 0 10.93 3.2c3.13.62 13.75 1.01 27.73 1.1 16.64.07 23.75.38 26.8 1.16 3.66 1.02 4.05 1.33 4.05 3.28 0 1.18.79 3.13 1.8 4.3 1.72 1.95 3.6 2.42 26.8 7.03a1698 1698 0 0 0 25.85 5c.54 0 1.87-.78 2.96-1.8 1.88-1.64 2.74-5.23 14.06-61.86 6.64-33.04 12.11-61.24 12.11-62.56 0-5.16-.55-5.4-27.1-10.55-15.23-3.05-25.15-4.6-26.4-4.3a10 10 0 0 0-3.91 2.5c-1.8 1.96-1.8 1.96-8.75-4.53-3.75-3.51-16.17-15.23-27.57-26-11.4-10.79-22.34-21.17-24.37-22.97-2.1-1.87-3.75-3.6-3.75-3.9 0-.24 1.02-1.02 2.19-1.65 2.03-1.09 29.68-30.07 39.76-41.63 2.34-2.65 4.84-6.56 5.78-9.06 1.32-3.51 1.56-5.47 1.24-9.68-.39-3.99-1.09-6.4-2.89-9.69-2.42-4.3-2.42-4.3.86-8.2 4.61-5.47 6.4-10.54 6.33-18.12 0-5.23-.39-6.8-2.5-11.1-2.97-6-7.89-10.62-13.9-12.8-7.03-2.66-11.02-2.81-17.5-.7-5.47 1.71-6.1 2.18-15.54 11.55a1729 1729 0 0 0-25.62 26.4c-8.6 9.14-15.7 16.49-15.78 16.4 0-.07-.08-22.8-.08-50.53-.08-27.73-.23-51.94-.47-53.74-.39-3.75 4.53 1.72-47.8-53.97-12.26-13.04-23.66-25.23-25.46-27.1C275.57 0 275.57 0 147.16 0S18.75 0 14.06 2.19m251.27 39.83c.24 29.45.24 29.45 2.82 34.68 1.4 2.81 3.82 6.33 5.39 7.74a40 40 0 0 0 7.26 4.53c4.3 2.03 4.3 2.03 31.48 2.26l27.1.23v51.24c0 50.93 0 51.16 1.64 54.13 1.72 3.05 1.72 3.05-7.1 12.42-7.97 8.52-9.07 9.45-12.04 9.77-1.71.23-14.76 1.48-28.97 2.8-14.14 1.26-28.2 2.74-31.1 3.21-6.32 1.02-14.52 4.92-19.44 9.3-2.03 1.8-8.51 10.3-15.07 20.07a2153 2153 0 0 1-30.62 44.05c-8.44 11.8-11.64 17.97-12.34 23.9-1.02 9.22 3.2 19.37 10.38 24.53 3.28 2.42 3.28 2.42.08 6.01-4.22 4.85-7.34 11.1-13.98 28.43a833 833 0 0 1-6.64 16.88 15 15 0 0 0-1.17 5c0 3.2 2.66 6.09 5.62 6.09 2.27 0 22.1-7.9 36.01-14.37 6.33-2.9 8.6-4.53 14.53-10.24 7.03-6.8 7.03-6.8 11.95-5.93 2.73.54 16.72 2.42 31.24 4.3 22.81 2.88 26.8 3.59 30.47 5.38 2.26 1.17 11.71 8.13 20.93 15.47s17.26 13.82 17.89 14.37c.93.86.78 1.4-.63 3.2-1.48 1.96-1.64 2.97-1.64 14.69 0 10.39-.23 13.04-1.4 15.3-.7 1.49-2.5 3.52-3.99 4.46-2.65 1.8-2.65 1.8-157.86 1.8-155.2 0-155.2 0-157.77-1.8a20 20 0 0 1-4.22-3.9c-1.64-2.2-1.64-2.2-1.64-216.37s0-214.17 1.64-216.9a15 15 0 0 1 4.22-4.46c2.57-1.8 2.57-1.8 124.66-1.8H265.1zm19.6-14.14c3.21 3.36 14.85 15.86 25.86 27.89 12.34 13.36 19.84 22.03 19.37 22.5-.39.39-9.45.62-21.71.46-19.53-.23-21.17-.3-23.75-1.87a15 15 0 0 1-4.45-4.22c-1.8-2.5-1.8-2.97-1.8-26.63 0-13.28.16-24.14.32-24.14.15 0 2.89 2.73 6.17 6.01m137.64 118.89c5.62 2.57 8.98 7.42 8.98 12.96 0 3.52-1.1 6.25-3.99 9.92-2.42 2.97-2.42 2.97-5.7.08a954 954 0 0 1-10.54-9.76c-7.42-6.88-7.42-6.88-5.08-9.3 2.74-2.97 7.66-5.39 10.86-5.39 1.33 0 3.75.7 5.47 1.49M406 171.6c5.23 5.08 9.68 9.46 9.76 9.77.31.7-3.75 5.47-20.07 23.2-16.4 17.88-42.1 46-52.41 57.17-27.42 29.76-43.04 46.87-46.56 50.85-2.1 2.42-4.14 4.53-4.6 4.69-1.18.54-37.42-2.58-38.12-3.2-.31-.32 4.92-6.57 11.64-13.83 59.9-64.6 89.35-96.15 113.49-121.23 8.75-9.06 16.17-16.55 16.56-16.55s5 4.14 10.3 9.13m20.85 25.15c0 2.11-.62 4.54-1.48 5.94-.78 1.25-9.6 11.1-19.6 21.87-10 10.7-19.07 20.86-20.24 22.42-1.1 1.64-2.42 2.89-2.8 2.97-.48 0-2.2-1.33-3.76-2.97-2.97-3.05-2.97-3.05 2.34-8.9 2.9-3.2 11.1-12.11 18.2-19.85 7.11-7.65 15.7-17.1 19.14-20.85 5.62-6.33 6.25-6.8 7.19-5.55.54.79 1.01 2.97 1.01 4.92m-116.54 37.5c-.54.78-10.15 11.24-21.4 23.2a11028 11028 0 0 0-47.88 51.62c-3.98 4.38-8.75 8.83-10.54 9.92-3.2 1.88-7.27 5.94-11.64 11.64-1.17 1.56-4.22 4.3-6.8 6.02-4.06 2.8-4.84 3.04-6.8 2.26-2.96-1.1-6.47-4.45-7.72-7.5-1.64-3.75-1.33-8.67.78-13.12 1.01-2.19 4.06-7.1 6.87-10.93a2189 2189 0 0 0 30.93-44.21c7.1-10.4 13.83-19.37 15.39-20.55 5.54-4.3 8.83-5.15 25.93-6.8 8.98-.77 18.9-1.79 22.1-2.18s7.2-.7 8.83-.78c2.74-.08 2.9 0 1.95 1.4m79.52 40.07a8789 8789 0 0 1 37.65 35.61c10.15 9.61 17.1 15.63 19.21 16.56a42 42 0 0 1 3.75 1.96c.23.23-1.64 10.54-4.22 22.88-5.78 28.2-14.68 69.99-15 70.22-.15.16-3.67-.31-7.8-.94-5.32-.86-14.14-1.25-30-1.4-22.1-.16-22.5-.16-28.04-2.19a73 73 0 0 1-12.1-6.4c-3.6-2.43-14.07-10.4-23.28-17.74-10.23-8.12-18.9-14.45-22.26-16.09-5.86-2.89-3.28-2.42-50.62-8.5-12.1-1.57-16.32-2.43-19.13-3.84-4.53-2.34-7.42-5.3-9.46-9.84q-2.7-5.95-.7-13.9c.7-2.81 1.95-4.69 5.24-7.97 4.68-4.69 8.27-6.25 14.29-6.25 1.87 0 10.78.7 19.76 1.56 38.35 3.68 53.43 4.85 58.03 4.46 6.33-.47 12.58-3.52 16.17-7.9 3.28-4.05 4.77-7.41 5.47-12.65.4-2.96.16-4.68-.7-6.4-2.5-4.84-9.53-4.45-11.33.62-.47 1.41-.86 3.75-.86 5.16 0 1.95-.7 3.28-2.65 5.31-1.49 1.49-3.83 2.9-5.24 3.2-2.89.63-16.95-.23-17.41-1.09-.24-.31 3.9-5.39 9.13-11.17 13.9-15.54 49.3-53.66 49.84-53.74.23 0 10.23 9.22 22.26 20.47m92.87 54.2c8.2 1.64 15.07 3.13 15.46 3.44.32.23-1.95 12.73-4.92 27.8-3.04 15-7.88 38.83-10.7 53.04-2.8 14.14-5.23 25.93-5.39 26.1-.15.15-8.04-1.26-17.5-3.13-16.55-3.28-17.18-3.44-17.18-5.24 0-1.01 1.25-7.5 2.82-14.45 1.48-6.95 6.24-29.68 10.54-50.53s7.97-38.51 8.2-39.3c.31-.85.94-1.24 2.11-.93.94.16 8.44 1.64 16.56 3.2M214.8 353.6c.86 4.92 3.98 10.93 7.73 14.92 3.52 3.74 3.52 3.74-1.8 8.59a48 48 0 0 1-11.95 7.8c-8.43 3.91-19.37 8.29-19.68 7.9-.55-.55 9.69-25.86 11.4-28.36 2.11-2.96 12.42-13.74 13.2-13.74.32 0 .79 1.32 1.1 2.89M60.14 120.68a6.05 6.05 0 0 0-.47 8.28c1.49 1.87 1.49 1.87 99.44 2.1 69.83.16 98.5-.07 99.98-.7 2.5-1.01 4.06-4.37 3.28-7.26-1.18-4.69 5.23-4.38-102.1-4.38-98.25 0-98.25 0-100.13 1.96m1.57 59.13c-3.83 2.03-4.61 6.01-1.88 9.52 1.56 2.04 1.56 2.04 100.21 2.04 107.56 0 101.15.3 102.33-4.38.7-2.81-.7-6.17-3.13-7.26-2.73-1.17-195.27-1.17-197.53.08m-1.88 62.01c-2.73 3.52-1.87 7.5 2.03 9.53 1.25.7 19.3.94 68.97.94 57.49 0 67.57-.16 69.44-1.17 3.6-1.88 4.3-5.78 1.56-9.3-1.56-2.03-1.56-2.03-71-2.03s-69.44 0-71 2.03m1.88 59.83c-3.99 2.27-4.7 6.57-1.57 9.61 1.88 1.95 1.88 1.95 36.95 1.95 34.29 0 35.15 0 37.18-1.64 1.56-1.25 2.03-2.26 2.03-4.6 0-2.35-.47-3.36-2.03-4.61-2.03-1.64-2.81-1.64-36.56-1.64-24.44.08-34.91.3-36 .93m-1.57 67.41a6 6 0 0 0-1.95 4.3c0 1.48.7 3.12 1.95 4.3 1.88 1.95 1.88 1.95 45.54 1.95 42.41 0 43.74-.08 45.7-1.57 1-.85 2.18-2.42 2.42-3.51.54-2.27-1.18-6.17-3.05-6.95-.7-.24-20.93-.47-45-.47-43.73 0-43.73 0-45.6 1.95" clip-rule="evenodd"/>
</svg>
