<svg xmlns="http://www.w3.org/2000/svg" fill="currentColor" viewBox="-0.001 -48.939 512.001 512.001">
    <path fill-rule="evenodd" d="M476.63 2.53c-4.44 1.36-12.17 3.74-17.17 5.2-5 1.52-14.1 4.25-20.21 6.11-10.56 3.19-19.4 5.81-26.38 7.79-1.71.5-3.73 1.3-4.44 1.76-1.82 1.22-2.93 4.05-2.53 6.32.36 2.02.46 2.07 14.65 15.46 4.75 4.45 8.6 8.23 8.6 8.39 0 .4-11.73 12.32-65.13 66.38-42.24 42.75-42.04 42.5-44.26 45.07-1.52 1.72-1.52 1.72-1.52 13.49 0 10.15.1 11.87.81 12.48.71.55 2.18-.76 11.27-9.95 50.93-51.49 102.81-103.98 107.1-108.48 2.94-2.98 5.52-5.4 5.77-5.4s5.15 4.6 10.86 10.15c5.76 5.61 11.17 10.61 11.97 11.12.86.55 2.18.96 2.93.96 2.08 0 4.7-1.37 5.71-2.93.5-.76 1.27-3.19 1.77-5.41l5.16-24.5A8037 8037 0 0 1 489 21.68c1.87-8.9 2.98-15.06 2.83-16.12a6.6 6.6 0 0 0-1.41-2.93C489 1.1 486.84-.05 485.63 0c-.5.05-4.55 1.16-9 2.53M246 102.26a51.7 51.7 0 0 0-24.2 12.58 78 78 0 0 0-8.7 10.66c-1.86 2.83-4.74 9.8-6.1 14.65-1.02 3.54-1.17 5.2-1.17 13.14 0 7.98.15 9.6 1.16 13.08a53 53 0 0 0 6.87 15.16c4.75 7.17 11.42 13.19 18.65 16.77a51.05 51.05 0 0 0 56.18-6.21c7.63-6.42 14.04-16.52 16.67-26.42 1.57-5.86 2.12-14.25 1.31-19.96a54 54 0 0 0-10.2-24.5c-6.27-8.44-15.51-14.8-26.02-17.94-3.89-1.21-5.56-1.41-12.83-1.57-5.86-.1-9.3.05-11.62.56M80.28 193c-4.14.45-10.76 2.37-14.85 4.24-3.59 1.62-9.65 5.71-12.78 8.54-3.74 3.39-8.4 9.7-10.82 14.75a65 65 0 0 0-3.33 8.7c-1.01 3.43-1.31 5.96-1.52 11.72-.25 6.66-.15 7.83 1.06 12.78 1.47 6.16 4.7 13.18 8.14 17.78a56 56 0 0 0 11.16 11.17c4.2 2.98 11.62 6.41 16.88 7.83 3.64 1 5.5 1.16 12.38 1.16 6.57-.05 8.79-.25 12.02-1.11 2.12-.6 5.71-1.87 7.88-2.83 11.12-4.8 21.32-15.41 26.02-26.98a51 51 0 0 0 3.44-18.29c0-5.7-1.32-13.03-3.08-17.58-4.85-12.28-13.19-21.42-24.7-27.13a51 51 0 0 0-17.04-4.8c-5.7-.56-5.7-.56-10.86.05m339.52-.05c-9.65 1.21-18.65 5.25-26.63 11.97-4.04 3.44-8.9 9.85-11.77 15.56-7.48 15.16-6.82 32.49 1.87 47.34 1.66 2.93 4.04 5.81 7.73 9.55 2.93 2.93 6.67 6.17 8.38 7.18 4.1 2.47 9.2 4.6 14.4 6 3.6.97 5.51 1.17 12.08 1.17 6.67 0 8.49-.2 12.12-1.21a61 61 0 0 0 15.46-6.92c6.77-4.5 12.99-11.72 17.03-19.86a49 49 0 0 0 3.64-10.2c1.26-5.26 1.36-6.37 1.1-12.84-.3-8.18-1.3-12.73-4.29-19.15-4.14-8.74-9.6-15.15-17.53-20.46a51 51 0 0 0-17.17-7.37c-4-.91-12.28-1.32-16.42-.76M244.99 216.9c-7.38.96-10.46 1.61-17.08 3.63a88 88 0 0 0-19.8 9.05 92 92 0 0 0-16.48 13.54 94 94 0 0 0-12.78 18.49c-6.57 13.03-10.2 29.1-9.55 41.78.2 3.74.56 5.26 1.62 7.48a17.3 17.3 0 0 0 7.38 7.38c3.18 1.61 7.12 2.47 17.43 3.73 32.13 3.94 67.6 4.7 99.68 2.08 14.04-1.12 30.62-3.24 34.15-4.35 6.27-1.92 10.66-6.01 12.23-11.47.7-2.32.8-4.3.55-10.46a84.6 84.6 0 0 0-14.5-44.96c-4.95-7.43-14.45-16.98-21.47-21.58-6.31-4.14-9.85-6-15.91-8.48a87 87 0 0 0-19.7-5.3c-7.69-1.12-19.4-1.37-25.77-.56M81.04 305.16c-10 .56-17.83 2.12-26.52 5.36a88 88 0 0 0-26.02 15.2c-6.32 5.4-13.24 14.1-17.69 22.18-1.82 3.34-4.7 10-6.31 14.7a107 107 0 0 0-4.1 18.55c-.3 2.72-.5 7.32-.35 10.3.15 4.4.46 5.81 1.47 7.83 1.46 2.98 4.9 6.17 8.69 8.04 2.62 1.26 7.52 2.22 19.3 3.63 8.18.96 27.83 2.33 40.92 2.83 11.32.46 19.2.46 31.07 0 21.47-.75 40.22-2.32 55.17-4.64 4.3-.66 8.84-2.83 11.52-5.51 2.93-2.93 4.5-6.67 4.85-11.77.56-7.73-1.51-20.67-4.9-30.57a87 87 0 0 0-9.95-20.06c-4.45-6.72-14.7-17.07-21.27-21.42a86 86 0 0 0-36.68-13.84c-7.33-1.06-11.32-1.21-19.2-.81m338.5-.05a86 86 0 0 0-23.84 4.75 85 85 0 0 0-19.8 9.75c-7.89 5.2-16.63 13.9-21.78 21.62-9.35 13.95-14.7 31.07-14.86 47.5-.05 6.76 0 7.22 1.37 10.1a19 19 0 0 0 3.03 4.7c.9.96 3.13 2.47 5 3.43 3.44 1.72 6.47 2.38 17.58 3.7 13.04 1.56 33.7 2.92 50.52 3.33 23.4.6 53.4-1.17 75.28-4.35 7.68-1.11 11.62-2.63 15.06-5.76a18 18 0 0 0 3.49-4.7c1.36-2.78 1.41-3.13 1.41-10.96-.05-6.32-.3-9.35-1.21-13.9-3.39-17.12-10.51-31.32-21.53-42.84-7.62-8.03-13.84-12.68-22.83-17.18a94 94 0 0 0-22.28-7.67c-4.5-.81-17.69-2.23-18.75-1.92-.15 0-2.77.2-5.86.4" clip-rule="evenodd"/>
</svg>
