<svg xmlns="http://www.w3.org/2000/svg" width="313" height="512" fill="currentColor" viewBox="0 0 313 512">
    <path fill-rule="evenodd" d="M137.81 1.32c-1.27 1.27-1.27 1.57-.97 21.07.24 16.95.43 20.53 1.52 25.37 1.7 7.69 3.45 12.84 6.48 18.9 3.39 6.77 6.9 11.44 14.59 19.43 6.84 7.08 8.84 10.41 9.99 16.65.36 1.94.48 5.02.24 6.9-1.63 14.41-11.38 28.46-24.16 34.94-4.96 2.54-8.78 3.39-14.29 3.39-3.87-.06-6.3-.42-9.87-1.63-2.6-.85-6-1.88-7.5-2.18-4.12-.97-13.87-.8-18.05.3a55 55 0 0 0-8.78 3.45c-3.94 1.94-6.12 3.51-9.69 7.08-5.27 5.33-8.78 10.84-11.75 18.53-3.39 8.9-4.3 14.3-4.3 25.92 0 9.8-.24 11.08-1.87 9.57-1.4-1.34-8.9-3.7-13.75-4.3a33 33 0 0 0-10.29 0c-9.14 1.33-17.62 5.57-23.5 11.86-5.26 5.57-9.14 14.17-9.92 22.1-.55 5.4.54 11.81 3.02 18.05 2 5.02 2 5.02.37 7.87a41 41 0 0 0-2.9 6.12C.65 275.37-.38 282.8.11 287.3a51 51 0 0 0 5.15 15.98c1.75 3.27 1.75 3.27-.3 7.33-3.28 6.54-4.18 10.41-4.12 17.62 0 5.15.3 7.27 1.57 11.2.9 2.67 2.66 6.6 3.94 8.78 2.36 3.88 2.36 3.88.36 6.96-1.15 1.64-2.9 5.33-3.94 8.18-3.45 9.57-2.96 19.44 1.52 28.88q4.08 8.63 10.53 13.62c7.51 5.94 15.38 8.6 25.25 8.54 4.48-.06 7.15-.42 10.3-1.39 3.87-1.21 9.5-4 12.77-6.42 1.27-.85 1.52-.73 5.03 2.48 2.24 2.12 4.3 4.73 5.27 6.79 1.39 2.78 1.75 4.48 2 9.68.3 5.7.48 6.48 1.81 7.51.79.6 2.12 1.15 3.03 1.15 2.06 0 4.12-2.12 4.66-4.6.55-2.72-.73-11.62-2.18-15.56a38 38 0 0 0-3.93-7.02c-3.15-4.24-9.27-9.45-14.23-12.11-2.85-1.52-3.82-1.76-5.09-1.34-2.06.85-3.51 3.21-3.09 5.03.3 1.27 0 1.7-2.6 3.09a31 31 0 0 1-14.35 3.45c-8 0-15.32-2.97-20.59-8.24-5.2-5.2-7.81-10.29-8.84-17.68-1.09-7.44 1.27-15.38 6.66-22.46 1.45-1.94 2.48-4 2.48-4.9 0-.85-1.09-2.97-2.48-4.85-5.2-6.9-6.84-12.11-6.48-20.53.18-5.02.49-6.42 2.18-10.05a43 43 0 0 1 3.51-6.17 7.3 7.3 0 0 0 1.46-3.58c0-.84-1.1-3.2-2.36-5.14-1.34-2-3.03-5.15-3.82-7.09-1.15-2.9-1.4-4.54-1.4-10.72 0-6.3.19-7.69 1.4-10.29.79-1.7 2.48-4.66 3.82-6.72 1.27-2 2.36-4.06 2.36-4.6 0-.49-1.21-3.27-2.67-6.18-4.66-9.14-4.96-17.07-1.03-25.55 1.94-4.18 6.85-9.81 10.54-12.11a32 32 0 0 1 12.41-4.48c5.81-.91 11.32 0 17.38 3.03a24 24 0 0 1 8.17 5.93c1.82 1.94 4 4.42 4.85 5.57 1.2 1.58 1.94 2 3.63 2 4.54 0 11.26 1.21 14.35 2.6 4.9 2.12 9.87 5.88 12.78 9.63 1.45 1.82 3.27 3.51 4.12 3.7.84.24 3.08-.07 5.02-.61 4.78-1.33 11.75-1.27 16.47.24 2.12.67 5.87 2.54 8.36 4.24 2.48 1.63 4.96 3.03 5.63 3.03.6 0 2.54-.8 4.3-1.76a28 28 0 0 1 13.74-3.7c4.79 0 9.33 1.22 13.99 3.76 3.93 2.18 5.45 2.06 8.54-.66 4.9-4.24 14.17-7.15 20.46-6.42 1.82.24 4.73.78 6.48 1.27 3.88 1.09 4.66.79 8.78-3.7a30 30 0 0 1 12.35-8.23c2.79-1.03 4.9-1.27 9.87-1.27 5.76.06 6.36-.06 7.57-1.33a40 40 0 0 0 2.79-4c2.24-3.94 7.69-9.14 11.87-11.32 4.9-2.6 9.8-3.82 15.38-3.82 8.78 0 15.74 2.9 21.85 9.08 4.3 4.36 6.6 8.42 8.12 14.23a26.6 26.6 0 0 1 .24 12.54c-.85 3.81-3.45 9.69-5.63 12.53-.85 1.15-1.58 2.79-1.58 3.64 0 .84.97 3.02 2.12 4.84a24 24 0 0 1 2.79 6.66c.9 4.42.36 11.75-1.15 15.2a38 38 0 0 1-3.09 5.69c-1.03 1.7-1.88 3.57-1.88 4.3 0 .66.97 2.72 2.12 4.54a29 29 0 0 1 3.64 22.65c-.49 1.93-2 5.32-3.33 7.56-1.34 2.25-2.43 4.6-2.43 5.27 0 .6.97 2.73 2.12 4.66a44 44 0 0 1 3.4 7.27c1.02 3.09 1.2 4.78 1.02 9.5-.36 6.85-1.75 11.03-5.33 15.45a54 54 0 0 0-3.39 4.78c-.9 1.64-.9 1.94.85 6.36 1.03 2.54 2 6.11 2.24 7.93.91 7.45-2.6 16.83-8.23 22.1a28 28 0 0 1-15.56 7.03c-4.12.42-4.85.72-6.18 2.3-5.57 6.66-7.33 8.41-10.48 10.41-4.84 3.15-9.26 4.36-15.86 4.42-6.54.06-12.23-1.51-17.26-4.72-1.81-1.21-4-2.18-4.84-2.18-.85 0-3.57.9-6.06 1.94-4.3 1.87-4.9 2-12.1 2-6.97 0-7.88-.13-11.51-1.7-5.87-2.6-6.36-2.6-8.36-.6-1.63 1.63-1.75 2.05-2.12 8.35a95 95 0 0 1-4.96 23.92c-4.48 12.47-4.6 13.08-5.09 19.68-.48 7.38-1.27 9.44-4.54 11.68-3.93 2.73-8.72 2.49-12.23-.6a15 15 0 0 1-2.79-3.15c-.36-.67-.9-4.54-1.15-8.54-.3-5.09-1.15-9.93-2.66-16.05-3.2-12.95-4.6-21.61-4.97-31.48-.36-10.48.49-15.26 3.82-22.28 1.7-3.52 3.39-5.82 6.84-9.27 3.4-3.39 5.81-5.2 9.14-6.78a51 51 0 0 1 8.18-3.15c4.48-1.15 14.53-1.15 19.38-.06 2 .49 5.63 1.03 8.1 1.27a34.6 34.6 0 0 1 16.3 5.45c2.48 1.52 5.14 2.73 5.93 2.73s3.15-.97 5.2-2.12a30 30 0 0 1 16.84-3.7c2.48.19 5.51.55 6.66.73 3.33.55 4.79-.97 5.75-6.24 1.34-6.9 4.55-12.17 9.75-15.86 1.46-1.09 2.85-2.66 3.03-3.51.3-1.1-.24-2.73-1.94-6.06-2.12-4.11-2.36-5.08-2.54-10.17-.24-4.54 0-6.48.97-9.8a37 37 0 0 1 3.45-7.46c1.15-1.81 2.12-3.81 2.12-4.48 0-.66-1.1-2.96-2.36-5.14a34 34 0 0 1-3.33-7.27c-1.21-4.12-1.27-11.63-.06-15.56.48-1.64 2-4.85 3.39-7.15 2.84-4.66 2.84-6.23.18-9.75-.85-1.15-2.18-3.93-3.03-6.17-2.78-8-1.51-17.14 3.27-23.74 1.1-1.45 1.94-3.27 1.94-4 0-1.93-3.4-6.9-5.27-7.62-3.03-1.15-4.78-.12-10.6 6.23-3.08 3.33-7.2 7.09-9.2 8.42a38 38 0 0 1-7.57 3.63c-3.15 1.03-5.45 1.34-10.9 1.27-6.9 0-6.9 0-11.26 4.12-4.78 4.48-7.27 6-12.71 7.57-4.85 1.45-13.33 1.03-17.5-.79-1.64-.72-3.7-1.33-4.67-1.33s-3.2.97-5.02 2.12A53 53 0 0 1 165 289c-2.6 1.1-4.42 1.33-9.27 1.33-4.72 0-6.84-.3-9.68-1.33a42 42 0 0 1-6.79-3.45c-1.75-1.15-3.93-2.12-4.84-2.12-.97 0-2.48.43-3.51.97-3.09 1.64-8.24 2.66-13.02 2.66-7.57 0-13.02-2.11-19.92-7.69-3.21-2.6-3.21-2.6-7.87-2.24-6.18.55-12.3-.54-17.62-3.14-3.03-1.46-5.82-3.52-9.39-6.9-2.78-2.67-5.5-4.85-6.05-4.85-.6 0-2.36.73-4 1.57-3.03 1.7-4.3 3.76-3.57 6 .18.66.97 2.48 1.7 4a27 27 0 0 1 2.42 13.5 31 31 0 0 1-4.73 14.23c-2.48 3.93-2.36 6.11.67 10.65a28 28 0 0 1 4.78 15.99c0 5.33-.97 9.2-3.39 14.1-1.4 2.85-1.57 3.82-1.09 5.15.36 1.03 1.58 2.24 3.15 3.1 4 2.23 8.66 6.83 11.14 11.07a32 32 0 0 1 3.27 8.36c.91 4 .91 5.2.24 10.47-.78 5.7-.72 6.06.37 7.15 1.81 1.75 3.93 2 6.11.66 1.52-.96 2.06-1.81 2.67-4.6.42-1.81.9-3.15 1.15-2.9.24.24 1.03 2.42 1.7 4.72 1.45 4.84 5.93 11.75 9.62 14.77 1.27 1.1 4.48 3.03 7.15 4.36 7.08 3.52 12.4 4.3 28.45 4.06 7.15-.12 13.02-.06 13.02 0 0 .12-1.2 2.73-2.72 5.75-4.36 8.84-4.85 11.57-4.79 25.25 0 13.32.67 18.05 4.55 33.91 1.75 7.15 2.6 12.05 2.9 17.26.36 5.39.85 8.05 1.82 10.35 1.57 3.57 5.27 7.39 9.14 9.45 2.3 1.15 3.63 1.39 8.48 1.39 4.84 0 6.17-.24 8.48-1.45a21 21 0 0 0 8.9-8.84c1.2-2.37 1.63-4.42 2.05-9.81.55-6.84 1.03-8.78 5.03-19.98 2.12-5.94 4-14 4.9-20.65.43-3.15.49-3.27 2.06-2.9.85.17 3.7.66 6.24 1.08 3.63.55 5.81.55 9.5.06a59 59 0 0 0 8.85-2.12c4.05-1.39 4.05-1.39 8.6.79 12.1 5.93 26.82 5.39 38.14-1.4 3.45-2 9.5-7.5 11.2-10.04.73-1.03 1.88-1.52 4.73-2a35 35 0 0 0 25.43-18.95c3.45-6.97 4.48-11.57 4.06-18.23-.19-3.15-.85-6.9-1.52-8.84-1.2-3.45-1.2-3.45.85-6.54a49 49 0 0 0 4-7.81c1.63-4.06 1.93-5.57 2.18-11.63.3-8.05-.55-12.53-3.58-18.53-1.87-3.69-1.87-3.69-.06-7.32 2.6-5.15 3.76-10.11 3.76-16.35a36 36 0 0 0-3.64-16.41c-1.81-3.81-1.81-3.81 0-7.45a32.5 32.5 0 0 0 3.64-15.68c0-5.45-.85-9.39-2.91-14.05-1.21-2.84-1.21-2.84 1.03-7.32a39 39 0 0 0 4.3-17.8c0-10.42-4-19.93-11.57-27.5-3.69-3.75-5.69-5.2-10.29-7.44-9.39-4.55-18.59-5.51-28.64-3.03-8.05 1.94-17.98 8.9-22.83 15.86-2.06 2.97-2.06 2.97-7.2 3.33a38.7 38.7 0 0 0-23.86 10.3c-3.09 2.9-3.09 2.9-6.78 2.3-5.15-.91-9.33-.85-14.35.3-4.24.97-10 3.45-13.26 5.81-1.64 1.15-1.7 1.15-4.12-.12-8.24-4.24-22.04-4.18-30.34.06-2.3 1.15-2.3 1.15-5.87-.97a37.7 37.7 0 0 0-24.4-5.2c-4.97.66-4.97.66-8.78-2.79a45 45 0 0 1-3.82-3.87c0-.19.6-.67 1.4-1.1 2.6-1.39 2.78-2.84 1.51-11.32-1.27-8.72-1.51-19.13-.48-23.85.48-2.3 1.03-3.27 2.12-3.76 1.63-.79 2.42-.36 7.5 4.06 5.21 4.48 14.3 10.3 21.2 13.56 11.26 5.33 20.7 7.93 33.78 9.27 16.9 1.7 36.58-2.24 53.4-10.72 18.05-9.08 32.28-21.5 43.3-37.85 7.27-10.83 13.44-26.15 15.8-39.11 1.46-8.11 1.46-22.83 0-30.1-2.17-11.14-6.65-21.8-12.83-30.45-3.75-5.27-12.53-13.44-17.8-16.65a57 57 0 0 0-24.34-8.36c-11.75-1.15-25.2 1.94-34.82 8-1.45.9-3.09 1.63-3.7 1.63-1.33 0-3.8-2.54-5.2-5.33-.6-1.09-1.58-4.12-2.3-6.66-1.1-4-1.27-6.96-1.52-21.13-.3-15.2-.42-16.53-1.51-17.68-1.57-1.76-5.33-1.7-6.9 0-1.1 1.2-1.15 2.36-1.15 16.53.06 16.4.6 21.31 3.2 28.52 3.64 10.29 10.06 16.22 16.42 15.2 1.2-.19 5.32-1.94 9.14-3.88 8.84-4.48 14.41-5.87 23.31-5.87 3.7 0 8.17.36 10 .84 4.6 1.15 12.7 4.97 17.19 8.18 4.78 3.39 10.65 9.69 14.35 15.32 3.45 5.33 7.32 14.9 8.84 21.98 1.51 7.14 1.51 23.07 0 30.27a99 99 0 0 1-14.35 33.91 101 101 0 0 1-28.46 27.98c-16.1 10.71-33.85 16.22-52.07 16.22a84 84 0 0 1-38.82-9.14c-7.08-3.51-12.47-7.02-19.74-12.84-2.78-2.18-6-4.3-7.2-4.66a13 13 0 0 0-10.54 1.45 12.5 12.5 0 0 0-3.7 4.06c-1.69 3.4-2.96 9.63-2.96 15.08 0 4.78 1.4 17.62 2.48 22.28.3 1.51.49 2.79.37 2.9-.12.19-1.76-.42-3.64-1.33-2.9-1.27-6.72-2.24-14.7-3.63-1.22-.18-1.46-.97-2.37-7.14-1.45-9.39-1.03-23.98.85-30.94 2.48-9.27 7.75-18.23 13.56-22.9 5.39-4.41 12.9-7.08 19.5-7.02 2 0 6.11.67 9.08 1.52 9.69 2.66 12.66 3.27 16.95 3.27 5.88 0 11.5-1.34 17.38-4.12 11.57-5.39 21.74-16.6 26.83-29.43a43 43 0 0 0 3.14-18.83c-.42-9.87-3.5-16.59-10.9-23.8-8.71-8.53-15.43-18.52-18.22-27.06-2.6-8-2.9-11.14-3.33-31.55-.36-18.59-.42-20.16-1.51-21.37-1.58-1.76-5.33-1.76-7.09 0M250.37 279.6c-.06 4.36.3 7.2 1.28 10.78.72 2.66 2 5.99 2.78 7.38 1.46 2.6 1.46 2.6 0 5.15-4.3 7.75-5.45 19.2-2.78 27.73.78 2.48 2 5.75 2.78 7.27 1.4 2.72 1.4 2.84.3 4.6-1.57 2.54-3.5 8.54-4.23 13.44a30 30 0 0 0 0 9.27 47 47 0 0 0 1.81 7.99c1.15 3.03 1.15 3.03-1.57 6.05-3.27 3.7-5.63 7.51-7.03 11.63-1.02 3.03-1.02 3.03-7.87 3.39-6.66.42-12.9 1.82-17.01 4-1.64.84-2 .72-6.66-1.52-5.7-2.78-9.15-3.75-19.8-5.57-14.78-2.42-21.38-2.24-31.3.91-6 1.88-11.51 5.15-16.3 9.5-2.05 1.94-4.05 3.52-4.42 3.52-.36 0-.66-.67-.66-1.45 0-.8-.55-2.06-1.15-2.85-1.15-1.45-1.27-1.45-16.83-1.82-16.66-.3-17.87-.54-23.5-3.87-3.33-1.94-7.39-6.42-8.78-9.75-1.7-3.82-2.42-9.14-1.75-12.47 1.03-5.64 3.39-9.03 10.41-14.84.97-.85 1.64-2 1.64-2.9 0-2.13-2.55-4.55-4.73-4.55-2.24 0-6.54 2.79-9.44 6.12-2.55 2.9-6.18 9.99-6.79 13.08-.36 2-1.45 2.78-1.45 1.03 0-2.24-3.33-10.6-5.81-14.6a51 51 0 0 0-6.9-8.23c-4.18-3.88-4.18-3.88-3.03-6.9 1.75-4.67 2.54-12.17 1.75-17.62a44 44 0 0 0-4.84-14.54c-1.4-2.42-1.4-2.42.55-6.54a41 41 0 0 0 3.75-17.37c0-2.97.18-5.27.48-5.15 9.63 4.97 15.08 6.54 23.92 6.78 2.9.12 5.45.3 5.57.49.18.18-.72 1.2-2 2.24-3.14 2.48-7.63 9.14-9.26 13.68-1.82 5.15-2.24 14.05-.85 18.83 1.64 5.81 4.48 10.54 9.15 15.14a38 38 0 0 0 9.74 7.08 59 59 0 0 0 9.03 3.76c3.02.79 10.53.9 51.65.9 48.13 0 48.13 0 49.53-1.33 1.75-1.63 1.87-4.84.18-6.54-1.21-1.2-2-1.2-47.96-1.2-51.59 0-51.7 0-58.8-3.76-5.14-2.73-9.74-7.39-12.1-12.41-1.76-3.76-1.94-4.67-1.94-9.87 0-5.03.24-6.24 1.7-9.33 2.05-4.42 5.14-8.3 8.05-10.11 2.18-1.33 2.18-1.33 5.93 0 2 .67 5.94 1.57 8.72 2 3.7.48 6.18.48 9.69 0 2.6-.36 6.05-1.1 7.63-1.64 2.97-1.03 2.97-1.03 8.17 1.4a50 50 0 0 0 8.42 3.08c1.76.37 5.63.67 8.6.67 4.05 0 6.54-.36 10.1-1.51a54 54 0 0 0 7.7-3.21c3.03-1.76 3.03-1.76 6.66-.55 2.66.85 5.45 1.15 10.05 1.21 3.51 0 7.75-.36 9.39-.72 4.72-1.15 11.14-4.54 15.56-8.18 4-3.39 4-3.39 8.72-3.39 2.6 0 6.48-.42 8.66-.97 4.48-1.09 12.71-4.9 15.5-7.2a73 73 0 0 0 1.93-1.52c.06 0 .06 2.67.06 5.88m-136.6 31.67c-1.57 1.45-1.75 4.6-.48 6.41.85 1.1 2.24 1.15 50.44 1.46 49.53.3 49.53.3 53.64 2.24 5.15 2.42 10 6.96 12.6 11.86 2 3.64 2.06 3.94 2.06 10.72 0 6.66-.12 7.2-1.94 10.96-2.36 4.85-7.33 9.69-11.93 11.8-1.81.86-4.9 1.77-6.84 2.07-2 .36-23.98.6-51.47.6-47.23 0-48.01 0-49.23 1.21-1.7 1.7-1.57 4.9.19 6.54 1.39 1.34 1.39 1.34 51.04 1.34 54.92 0 53.7.06 61.34-3.94a43 43 0 0 0 6.78-4.54c3.87-3.27 8.11-9.75 9.99-15.08 1.27-3.63 1.57-5.57 1.57-10.6 0-4.72-.3-7.08-1.33-10.05a50 50 0 0 0-3.2-7.26c-2.8-4.9-8.73-10.48-13.93-12.96-8.36-4.12-6.42-4-59.77-4-47.65 0-48.2 0-49.53 1.22" clip-rule="evenodd"/>
</svg>
