<svg xmlns="http://www.w3.org/2000/svg" fill="currentColor" viewBox="-99.669 -0.008 511.992 511.992">
    <path fill-rule="evenodd" d="M137.46 1.53c-1.5 1.56-1.5 1.56-1.26 19.78.2 15.8.36 19.02 1.31 24.2 2.07 11.12 5.54 20.08 11.17 28.48 1.66 2.46 5.99 7.65 9.66 11.42 3.68 3.82 7.25 8.1 8 9.46a34 34 0 0 1 2.17 5.79c1.1 4.22.75 11.42-.76 16.35-3.67 11.62-11.72 21.58-22.14 27.32a28.6 28.6 0 0 1-14.59 3.67c-4.02.05-5.58-.25-9.46-1.5-6.74-2.22-11.47-3.08-17.05-3.08-10.02 0-19.22 3.73-26.72 10.82a52 52 0 0 0-6.14 6.8c-4.43 6.48-7.9 15.14-9.71 23.9-.9 4.67-1.1 7.04-1.06 15.14.05 9.66.05 9.66-3.62 7.95-6.09-2.87-9.16-3.47-17.06-3.47-5.43 0-7.8.25-10.31.95-4.98 1.46-10.97 4.53-14.6 7.5a41 41 0 0 0-9.9 12.53c-4.84 9.4-4.89 22.29-.1 32.65 1.55 3.37 1.55 3.37.2 5.54-1.77 2.72-3.88 7.9-4.84 11.52-.4 1.71-.65 5.23-.65 9.06.05 5.68.2 6.74 1.66 11.07.9 2.61 2.42 6.19 3.37 7.95 1.76 3.17 1.76 3.17.3 5.78A44 44 0 0 0 .6 323.25a29 29 0 0 0 0 8.8c.76 5.6 3.02 12.08 5.69 16.16 1.06 1.66 1.96 3.27 1.96 3.52s-.7 1.46-1.5 2.72c-1.92 2.82-4.13 7.7-5.34 11.62-1.26 4.13-1.3 14.29-.05 18.87 1.16 4.48 4.88 11.67 7.85 15.4a45 45 0 0 0 6.29 5.93c6.89 5.19 12.98 7.3 22.19 7.7 5.18.25 6.69.1 10.56-.85a37 37 0 0 0 12.98-5.9c2.42-1.7 2.42-1.7 4.08-.7 2.77 1.77 6.34 5.94 7.95 9.46 1.4 2.92 1.61 3.98 1.76 8.66.15 2.92.45 5.94.7 6.64.91 2.31 4.68 3.22 6.85 1.71 1.76-1.2 2.31-3.92 1.96-9.06a40 40 0 0 0-1.1-7.34A35 35 0 0 0 76.27 404c-4.78-5.23-13.23-11.02-16.2-11.02-.5 0-1.66.6-2.52 1.3-1.36 1.16-1.56 1.62-1.4 3.38.14 2.01.1 2.01-2.93 3.67-3.77 2.11-9.9 3.73-14.03 3.73-1.71 0-4.83-.46-6.95-.96-6.29-1.61-9.2-3.32-13.73-7.8-5.49-5.48-7.85-10.16-8.76-17.26q-1.05-8.13 2.42-15.45c1-2.26 2.91-5.38 4.22-7.04 3.22-3.97 3.22-5.53.15-9.61-3.02-3.97-5.58-9.1-6.29-12.68-.4-1.71-.5-5.08-.4-8.2.2-4.23.56-5.94 1.61-8.65.8-1.87 2.32-4.68 3.42-6.24 1.11-1.61 2.12-3.58 2.27-4.43.2-1.26-.15-2.11-1.56-4.08-2.42-3.32-5.08-8.9-5.79-12.22-.7-3.32-.7-9.66-.05-13.24.6-3.22 2.27-6.79 5.08-10.87 1.71-2.46 2.02-3.22 1.81-4.93-.1-1.1-1-3.37-2-5.03-1.01-1.66-2.27-4.73-2.83-6.79-1.25-4.58-1.35-10.77-.25-14.64 2.27-7.75 8.05-14.85 14.85-18.22a29 29 0 0 1 15.54-3.22 29.6 29.6 0 0 1 13.89 4.13c3.17 1.86 7.8 6.29 9.76 9.3.8 1.32 2.06 2.62 2.77 2.93.7.35 3.02.6 5.13.6 2.06 0 5.13.35 6.84.8a33.8 33.8 0 0 1 16.91 10.97c1.4 1.76 2.92 3.37 3.37 3.53 1.36.5 3.88.3 6.5-.5 3.16-1.01 10.2-1.11 13.83-.2 3.42.8 7.95 3.01 11.27 5.53a17 17 0 0 0 3.87 2.26c.96.25 2.47-.25 5.79-1.96 2.47-1.21 5.69-2.47 7.14-2.77 3.78-.75 9.46-.7 12.84.2 1.6.4 4.67 1.66 6.84 2.82 2.87 1.46 4.22 1.96 5.18 1.71.7-.2 2.37-1.26 3.72-2.36a29 29 0 0 1 19.88-6.24c2.11.2 5.03.65 6.49 1.1 1.5.46 3.32.66 4.13.5.9-.14 2.91-1.8 5.58-4.52 2.87-2.92 5.13-4.68 7.35-5.84 5.33-2.67 7.75-3.22 14.39-3.22 3.32-.05 6.29-.2 6.64-.45.3-.2 1.81-2.27 3.37-4.58 3.62-5.43 8.15-9.66 12.93-11.98 5.49-2.71 9.66-3.57 16.05-3.27 3.88.2 6.19.56 8.66 1.51a29 29 0 0 1 12.42 8.26 28.3 28.3 0 0 1 8.1 20.12c0 6.4-2.31 13.39-5.98 17.96-2.07 2.62-2.07 4.83 0 8.16 5.48 8.6 5.03 19.27-1.16 28.22-2.21 3.27-2.16 5.13.2 8.6 1 1.47 2.32 3.93 2.92 5.54 3.27 8.66 2.31 16.96-2.97 25.66-1.1 1.86-2.06 3.88-2.06 4.38s.95 2.52 2.06 4.38c2.92 4.83 4.48 9.46 4.83 14.24.5 7.24-2.01 14.24-7.65 21.28-1.05 1.3-1.76 2.77-1.76 3.62 0 .76.56 2.62 1.16 4.08a26 26 0 0 1 2.41 11.22 26.2 26.2 0 0 1-7.9 18.72c-4.72 4.73-11.57 7.7-17.76 7.74-1 .05-2.31.3-2.91.66-.56.35-2.07 1.96-3.28 3.62a31 31 0 0 1-11.17 9.56c-9.56 4.73-20.68 4.13-30.39-1.66a30 30 0 0 0-4.47-2.31c-.7-.26-2.72.35-5.79 1.66-5.38 2.31-10.82 3.32-15.2 2.86a31 31 0 0 1-10.46-2.86c-1.81-.8-3.83-1.46-4.38-1.46s-1.76.65-2.67 1.4c-1.56 1.47-1.56 1.47-2 8.1a90 90 0 0 1-4.64 23.2c-.95 2.62-2.46 6.8-3.32 9.31-1.36 3.83-1.66 5.49-1.96 11.07-.4 7-.86 8.5-3.42 10.87-2.52 2.36-4.53 3.12-7.8 2.87a8.8 8.8 0 0 1-5.03-1.71c-3.47-2.42-4.08-3.98-4.48-11.53-.3-5.33-.8-8.5-2.87-17.1-4.02-16.76-4.78-22.1-4.83-33.21-.05-7.7.1-10.22.86-12.83a43 43 0 0 1 7.8-14.8c5.43-6.23 11.72-10 20.07-11.92 3.93-.9 5.69-1.06 10.37-.8 3.12.15 7.1.6 8.9 1s5.08.9 7.3 1.1c6.44.56 12.17 2.67 18.16 6.6 1.41.96 3.12 1.71 3.78 1.71s3.27-1 5.73-2.26c5.84-2.97 10.52-3.98 16.6-3.58 2.52.15 5.6.46 6.9.6 2.06.26 2.51.16 3.62-.95.7-.7 1.36-2.11 1.56-3.17.6-4.07 1.46-7.1 2.62-9.46 1.16-2.26 4.98-6.49 8.55-9.4.9-.71 1.76-1.97 1.96-2.77.3-1.11-.05-2.12-1.46-4.73-2.81-5.19-3.52-8.4-3.22-14.3.2-4.17.5-5.73 1.77-8.8a35 35 0 0 1 3.12-5.89c.95-1.35 1.5-2.76 1.5-3.77 0-1.06-.75-2.92-2-4.98a53 53 0 0 1-3.18-6.34c-.9-2.52-1.1-3.98-1.1-9.26.05-5.73.15-6.59 1.45-9.66a35 35 0 0 1 3.12-5.79c2.27-3.22 2.27-5.23.05-8.5a39 39 0 0 1-3.17-5.99c-1.3-3.17-1.4-4.07-1.45-9.3 0-4.89.2-6.24 1.15-8.66a41 41 0 0 1 3.22-5.94c1.76-2.61 2.02-3.37 1.76-5.03-.3-2.51-2.91-6.24-4.88-7.04-1.2-.5-2-.5-3.47-.05-1.5.4-3.02 1.76-6.39 5.48-5.58 6.24-9.26 9.36-13.08 11.17-4.98 2.42-8.35 3.07-14.8 2.97-3.16-.05-6.13-.05-6.58 0-.4 0-2.52 1.71-4.63 3.77-6.95 6.8-12.99 9.16-22.24 8.76-3.98-.2-5.74-.55-8.5-1.66-1.97-.76-4.18-1.41-4.94-1.36-.8 0-2.71.86-4.22 1.86-5.49 3.68-10.52 5.29-16.3 5.29-6.45 0-11.33-1.61-17.11-5.49-2.67-1.86-5.14-2.01-7.9-.55-3.22 1.6-7.7 2.56-12.48 2.56-7.7.05-13.03-1.96-19.42-7.2-3.68-2.96-3.68-2.96-8.76-2.6-6.59.4-11.97-.61-17.86-3.43-3.52-1.71-5.03-2.87-8.96-6.74-3.62-3.67-4.98-4.73-6.03-4.73-1.66 0-6.44 2.67-7.15 3.97-.85 1.61-.6 3.27 1 6.7 1.72 3.62 3.03 9.05 3.03 12.47 0 4.99-2.17 11.48-6.04 18.12-.56.95-1 2.36-1 3.07 0 .75.75 2.46 1.7 3.82 4.18 6.14 5.84 11.07 5.84 17.76 0 4.98-.96 9.06-3.02 13.18-1.56 3.02-1.86 5.34-1 6.95.25.5 1.8 1.6 3.36 2.51 5.84 3.33 11.48 10.67 13.44 17.61 1.06 3.78 1.16 7.45.3 12.99-.7 4.68-.7 4.68.66 6.03a4.8 4.8 0 0 0 6.64.1c1.15-1.1 1.56-2.06 2.51-6.23.15-.81.5-1.26.7-1.01s.76 1.91 1.26 3.72c1.41 5.24 4.13 9.86 8.36 14.14 3.07 3.12 4.68 4.28 8.55 6.14 7.15 3.47 9.86 3.87 27.17 3.87 12.38 0 14.6.1 14.6.7 0 .41-.26.91-.56 1.12-1 .6-4.88 9.35-6.09 13.78-1.06 3.88-1.16 5.34-1.16 15.1.05 8.9.26 12.07 1.21 17.8.6 3.83 2.27 11.53 3.62 17.12 2.12 8.45 2.57 11.27 2.92 17.15.3 6.04.6 7.5 1.66 9.92a27 27 0 0 0 3.37 5.08 21 21 0 0 0 11.02 5.88c3.93.7 8.2 0 12.18-2 3.17-1.62 6.7-4.89 8.05-7.5a25 25 0 0 0 2.52-10.57c0-5.28.8-8.9 3.67-16.7 3.22-8.51 4.12-12.03 5.63-20.84.86-4.98 1.26-6.49 1.82-6.39 8.15 2.02 14.39 2.12 21.13.4a60 60 0 0 0 6.44-1.96c1.66-.7 1.81-.65 5.38 1.26 5.08 2.72 12.08 4.43 18.42 4.43 7.04 0 11.77-1.1 17.91-4.08a30 30 0 0 0 9.36-6.69c2.31-2.21 4.43-4.48 4.68-4.98.35-.65 1.81-1.16 5.18-1.86 8.7-1.81 16.35-6.5 21.39-13.18a38 38 0 0 0 6.39-12.84c.85-3.06 1.1-5.18 1.05-9.45 0-4.58-.25-6.3-1.4-9.77-1.37-4.17-1.37-4.17.24-6.39 2.57-3.57 5.39-10.21 6.3-14.74.65-3.07.8-5.58.6-9.06a35 35 0 0 0-3.73-14.74c-1.76-3.82-1.76-3.82 0-7.65 2.87-5.93 3.58-9.25 3.58-16.15 0-6.84-.76-10.26-3.53-16.35-1.76-3.77-1.76-3.77.26-8.05 2.16-4.63 3.57-10.42 3.57-14.8 0-4.17-1.3-10.1-3.07-13.88-1.56-3.47-1.56-3.47-.5-4.98 1.46-2.06 3.77-7.7 4.78-11.67 1.15-4.73 1.05-13.34-.2-18.37a39.4 39.4 0 0 0-25.67-27.57c-2.1-.7-5.88-1.51-8.4-1.86-11.42-1.46-23.5 2.41-32.2 10.31a58 58 0 0 0-5.69 6.34c-2.61 3.52-2.61 3.52-6.44 3.52-8.6.05-18.06 4.03-24.85 10.47-2.87 2.72-2.87 2.72-6.4 2.16-9.75-1.5-19.21.35-26.61 5.28-2.67 1.77-2.67 1.77-7.04 0-5.69-2.31-12.53-3.17-18.02-2.36-2.06.3-5.88 1.36-8.45 2.31-4.68 1.77-4.68 1.77-8.6-.5a36 36 0 0 0-14.44-4.88 31 31 0 0 0-9.21 0c-4.83.6-4.83.6-8.86-3.02-3.42-3.17-3.87-3.72-3.12-4.17 1.96-1.16 3.17-2.77 3.17-4.28 0-.86-.45-4.53-1-8.15-1.36-8.76-1.51-19.68-.3-23.7.6-2.06 1.15-3.02 1.96-3.32 1.5-.6 3.27.15 5.63 2.41 5.34 5.03 14.8 11.22 23.55 15.4 10.01 4.73 18.11 7.14 28.68 8.55 6.9.86 16.4.96 23.4.2 19.57-2.1 40.75-11.42 56.95-25 14.5-12.13 26.07-28.58 31.9-45.34 4.58-13.13 6.1-22.44 5.69-35.02-.15-4.42-.65-9.96-1.1-12.32-3.18-16.3-11.08-30.7-22.3-40.56a61.4 61.4 0 0 0-26.51-13.63c-2.47-.56-5.94-.8-11.58-.8-6.99 0-8.7.2-12.88 1.3a61 61 0 0 0-15.6 6.24c-2.91 1.6-4.37 2.16-5.23 1.96-2.97-.75-6.84-9.71-7.75-18.01-.3-2.72-.55-10.82-.55-18.01 0-13.19 0-13.19-1.46-14.65a4.54 4.54 0 0 0-6.44-.25c-1.4 1.2-1.4 1.2-1.4 17 0 10.57.2 16.91.65 19.28.85 4.78 3.32 12.02 5.08 15.1 2.11 3.67 4.88 6.69 7.3 7.9 2.81 1.5 7.39 1.55 10.1.1 7.96-4.18 11.63-5.84 15.6-7.05 4.08-1.26 5.29-1.4 12.58-1.4 8.96-.06 11.48.4 18.42 3.41 13.53 5.89 24.55 18.37 30.09 34.22 2.46 7 3.72 14.94 3.67 23.2 0 3.87-.4 9.3-.8 12.07-2.52 16.35-10.42 33.06-21.94 46.54-12.53 14.54-29.79 25.81-47.85 31.2-6.6 1.96-11.52 2.86-19.27 3.52-10.67.9-22.9-.66-33.87-4.28-10.06-3.37-22.28-10.36-31.24-17.86-1.86-1.56-4.13-3.27-5.08-3.72-2.27-1.21-6.34-1.56-9-.86-1.42.4-3.03 1.46-4.64 2.97-2.01 1.96-2.61 3.02-3.62 6.14-1.06 3.42-1.16 4.68-1.1 13.08 0 6.09.3 11.02.8 14.34 1.76 10.47 1.66 9.5.6 9.06-4.38-1.87-11.17-3.83-14.14-4.08-2.01-.2-3.87-.6-4.12-.9-.26-.3-.86-2.82-1.36-5.59-.7-3.82-.96-7.45-.9-15.1 0-9.05.1-10.61 1.3-15.6 1.56-6.63 4.48-13.17 8-17.9 3.47-4.68 6.94-7.65 11.77-10.07 5.14-2.51 10.42-3.67 15.1-3.27 4.02.35 5.53.76 12.58 2.97 4.68 1.51 5.53 1.61 12.07 1.56 6.6 0 7.35-.1 11.68-1.61a54 54 0 0 0 14.64-7.75c5.38-4.17 11.92-12.07 15.1-18.36a71 71 0 0 0 4.97-13.44c.46-2.01.81-5.99.81-9.1.1-10.82-3.02-17.62-12.28-27.02-9.56-9.82-13.48-15.8-16.75-25.57-3.02-9.15-3.42-12.72-3.78-33.35-.3-18.57-.3-18.57-1.7-19.78-2.07-1.76-4.54-1.6-6.5.3m112.36 278.35c-.1 4.78.1 6.39 1.2 10.11.7 2.42 1.92 5.74 2.72 7.3 1.46 2.87 1.46 2.87 0 5.73a51 51 0 0 0-2.72 7.3c-1 3.47-1.3 5.54-1.3 9.71a36.6 36.6 0 0 0 3.77 16.8c1.71 3.48 1.71 3.48 0 6.8a46 46 0 0 0-2.72 7.6c-.9 3.57-1.05 5.33-.9 10.56.2 5.29.45 7 1.66 10.52 1.46 4.23 1.46 4.23-.05 5.53-3.57 3.07-7.45 9.36-8.7 13.94-.56 2.06-.56 2.06-7.5 2.37-7.25.25-11.33 1.15-16.26 3.62-2.36 1.16-2.36 1.16-7.3-1.26-5.73-2.77-12.07-4.43-23.09-6.14-10.21-1.56-16.9-1.5-23.9.25a61 61 0 0 0-8.15 2.57 53 53 0 0 0-13.13 8.86c-1.86 1.7-3.57 2.96-3.87 2.76-.26-.15-.5-.9-.5-1.66-.06-1.56-.81-2.71-2.37-3.52-.76-.4-5.13-.6-13.84-.6-14.6 0-17.76-.46-23.4-3.32a23 23 0 0 1-12.27-16.86c-.66-3.97.05-8.05 2.06-12.02 1.71-3.38 3.27-5.09 7.25-8 2.86-2.12 2.91-2.22 2.66-4.18a6.4 6.4 0 0 0-1.16-2.97 5.6 5.6 0 0 0-2.51-1.26c-1.26-.25-2.27.05-4.23 1.1-5.38 2.93-11.12 10.93-12.68 17.67-.35 1.46-.75 2.67-.95 2.67-.15 0-.8-1.92-1.41-4.23-2.17-8.15-5.94-14.39-12.33-20.23-3.72-3.47-3.72-3.47-2.51-7.04a42 42 0 0 0 1.66-16.55 42 42 0 0 0-4.89-14.8c-1.55-2.71-1.55-2.71.1-6.04 2.72-5.38 3.88-10.1 4.18-17.05.15-3.37.4-6.1.6-6.04.16.1 1.67.86 3.33 1.71 1.66.9 4.83 2.16 7.1 2.87 4.62 1.46 12.62 2.51 15.94 2.06 1.41-.2 2.37-.1 2.57.25.2.3-1.11 1.97-2.87 3.68a32.4 32.4 0 0 0-8.2 13.23c-1.16 3.42-1.36 4.88-1.41 9.81-.05 4.68.15 6.44 1.06 9.3a35.6 35.6 0 0 0 12.98 17.67 72 72 0 0 0 8.45 4.73c4.23 2.06 6.09 2.62 9.46 3.07 2.67.3 21.53.45 50.31.35 45.34-.15 46.14-.15 47.25-1.16 1.66-1.5 2.11-3.12 1.46-5.13-1.1-3.32 1.56-3.17-50.62-3.17-52.43 0-49.91.15-56.95-3.37-7.15-3.57-12.89-11.12-14.2-18.67-1.25-7.1 1.57-15.24 7.1-20.68 1.71-1.7 3.62-3.22 4.23-3.37.6-.15 2.36.2 3.87.8 7.85 3.13 18.32 3.33 26.72.46 2.97-.96 2.97-.96 7.6 1.3 6.34 3.13 9.96 3.98 16.95 3.98 4.63 0 6.54-.2 9.51-1.15 3.47-1.06 8.1-3.07 10.42-4.58.9-.56 1.66-.5 5.28.5 3.37.96 5.44 1.2 10.27 1.16 3.32 0 7.04-.25 8.3-.6a39 39 0 0 0 16.3-8.71c3.02-2.67 3.02-2.67 9.06-2.97 8.8-.45 15.54-2.72 22.69-7.65 1.4-.95 2.62-1.66 2.72-1.56s.15 2.72.1 5.84m-136.61 31.4c-1.86 1.86-1.76 4.32.15 6.29 1.46 1.46 1.46 1.46 48.96 1.46 52.13 0 50.06-.1 56.4 3.06 3.98 2.07 8.66 6.8 10.77 11.07a24.5 24.5 0 0 1 2.21 14.7c-1.05 6.79-5.33 13.18-11.32 17.05-6.04 3.88-2.16 3.63-58.56 3.93-50.52.25-50.52.25-51.73 1.66-1.4 1.6-1.6 4.12-.45 5.73.4.6 1.5 1.31 2.41 1.61 1.11.36 17.11.5 50.92.4 37.94-.1 49.92-.3 51.83-.8a54 54 0 0 0 7.2-2.87 26 26 0 0 0 8.35-5.88c4.22-4.23 6.18-7.1 8.3-12.13 5.68-13.69 1.15-30.39-10.77-39.4a36 36 0 0 0-12.43-6.19c-3.57-.95-4.98-1-52.28-1-48.6 0-48.6 0-49.96 1.3" clip-rule="evenodd"/>
</svg>
