<svg xmlns="http://www.w3.org/2000/svg" fill="currentColor" viewBox="-101.501 -64.075 640.145 640.145">
    <path fill-rule="evenodd" d="M202.66 1.03c-11.58 1.72-20.78 4.14-30.84 8.14-15.41 6.11-28.7 14.4-41.55 25.82a136 136 0 0 0-23.3 28.06 147 147 0 0 0-14.35 31.69c-3.84 12.69-6.02 28.56-5.46 40.44.4 9.8.7 12.73 1.82 19.56A139 139 0 0 0 105 199.62c3.44 5.97 4.7 7.84 10.41 15.42 17.19 22.7 44.59 40.59 73.04 47.77 7.79 1.92 10.87 2.42 19.67 3.28 9.6.96 16.47.96 25.37 0 29.27-3.08 55.2-14.66 77.03-34.37a134 134 0 0 0 21.84-25.78c3.54-5.46 9.96-17.94 12.43-24.26 1.82-4.5 4.4-12.59 5.46-16.93 2.12-8.65 4.05-23.4 4.05-31.4 0-6.46-1.07-17.99-2.33-24.71a129 129 0 0 0-12.13-35.38 150 150 0 0 0-12.74-20.42 147 147 0 0 0-16.68-18.15C297.58 23.22 284.9 15.3 270.1 9.42c-9.05-3.6-13.8-4.96-24.97-7.38C234.85-.2 214.08-.7 202.66 1.03m-2.28 294.13c-2.22.2-6.97.65-10.61.96-17.95 1.61-40.84 6.06-56.87 11.01q-47.92 14.95-79.56 43.93a167 167 0 0 0-30.83 37.25C12 405.35 4.16 427.74 1.13 449.07c-1.06 7.58-1.57 45.6-.66 49.84 1.17 5.5 5.16 9.9 10.87 12.03C14.17 512 14.17 512 218.23 512c219.37 0 206.83.15 211.08-2.48 2.22-1.41 5-4.5 6.47-7.23 1.16-2.17 1.16-2.32 1.31-24.41.15-18.15 0-23.55-.66-29.32-1.06-9.3-2.07-14.9-3.89-21.98a150 150 0 0 0-11.02-29.98c-4.35-9-13.09-22.09-20.62-30.88-5.16-6.02-16.38-16.78-22.8-21.89-10.46-8.34-23.45-16.48-36.5-22.9a296 296 0 0 0-30.77-12.38c-22.75-7.28-46.76-11.63-74.3-13.4-8.5-.55-30.23-.55-36.15 0" clip-rule="evenodd"/>
</svg>
