<svg xmlns="http://www.w3.org/2000/svg" width="510" height="512" fill="currentColor" viewBox="0 0 510 512">
    <path fill-rule="evenodd" d="M245.67.85c-1.8.43-5.5 1.98-8.15 3.35-5.15 2.74-3.69 1.37-108.56 107.18-25.98 26.24-64.13 64.82-84.97 85.75C7.63 233.9 6.18 235.54 3.35 241.7c-2.4 5.32-3 7.72-3.26 13.9-.26 5.83 0 8.66 1.46 13.37a43 43 0 0 0 4.71 10.38c1.63 2.4 6.6 7.89 10.98 12.26 4.46 4.37 54.36 54.1 110.95 110.53 56.51 56.33 104.18 103.32 105.9 104.35 5.92 3.6 12.78 5.4 20.5 5.49 8.22.17 14.48-1.37 20.74-5.06 4.8-2.92 222.17-218.66 227.57-225.94a48 48 0 0 0 5.5-10.64c1.62-4.71 1.88-7.03 1.54-14.32-.26-7.63-.69-9.43-3.1-14.66-2.48-5.23-5.4-8.57-28.97-32.58A112467.05 112467.05 0 0 1 368.2 98.09C276.62 5.39 280.65 9.34 275.6 5.9a46 46 0 0 0-9.18-4.46c-5.5-1.63-15.01-1.97-20.75-.6m16.2 24.18c.94.6 13.72 13.2 28.3 28.04 14.66 14.75 50.33 50.85 79.4 80.18 117.39 118.24 116.01 116.78 117.21 120.9.86 2.83.86 4.71.18 7.46-.78 3.34-10.72 13.46-111.73 114.13-60.88 60.7-111.9 111.04-113.19 111.72-2.91 1.55-9.43 1.72-13.03.35-1.54-.6-43.99-42.36-105.47-103.76C86.94 327.46 37.3 278 33.2 274.13c-4.46-4.2-8.06-8.4-8.84-10.3-1.71-4.2-1.54-9 .26-12.43.77-1.45 38.5-40.04 83.78-85.74 45.27-45.62 94.66-95.52 109.75-110.79 15.1-15.26 28.64-28.46 30.01-29.32 3-1.89 10.98-2.15 13.72-.52m-75.46 116.7c-7.63 2.5-10.8 4.12-16.89 8.84-5.49 4.2-12.43 13.89-15.17 21.26-2.32 6.09-3.52 16.64-2.58 23.15 1.63 11.92 8.92 24.95 18.01 32.16a49 49 0 0 0 29.93 10.29c11.74 0 23.06-4.2 31.64-11.75 5.91-5.14 12.43-15.18 14.66-22.38 3.6-11.66 2.91-24.27-1.97-34.73-4.8-10.29-13.8-19.46-24.01-24.35-10.04-4.89-23.41-5.83-33.62-2.49m22.21 23.33c4.98 1.71 11.5 7.89 14.15 13.37 2.57 5.4 2.66 14.32.26 19.73a28 28 0 0 1-11.23 12.51c-3.52 2.06-4.8 2.32-11.67 2.32-9 0-12.51-1.37-18-6.86-4.89-4.8-6.7-9.18-7.12-16.46-.26-5.15 0-6.86 1.8-10.8 4.2-9.27 12.95-15.18 22.55-15.18 2.83 0 7.03.6 9.26 1.37m113.7 5.23c-.68.26-2.66 1.71-4.28 3.17-1.63 1.54-21.53 21.6-44.16 44.67a21518 21518 0 0 1-68.43 69.63c-14.92 15.26-27.95 28.9-28.9 30.44a12.2 12.2 0 0 0 .26 12.78c2.32 3.43 5.15 5.06 8.92 5.06 5.66 0 .86 4.54 77.51-73.32 51.62-52.47 72.2-73.91 73.32-76.48.68-1.55 1.2-4.03 1.2-5.58 0-3.6-2.66-7.97-5.92-9.69-2.57-1.28-7.03-1.63-9.52-.68m-17.75 98.1c-5.48.93-13.03 3.85-18.26 7.2-5.83 3.68-13.03 11.4-16.46 17.57-4.2 7.46-6 15-6 24.44.08 9.17 2.05 16.38 6.6 24a49 49 0 0 0 15.34 15.96 47 47 0 0 0 20.58 7.63c9.52 1.2 17.5-.17 26.76-4.72 6.51-3.17 8.91-4.88 13.72-10.11 10.11-10.9 14.66-22.9 13.8-36.62a51 51 0 0 0-7.46-23.24 76 76 0 0 0-8.06-9.26c-6.86-6.6-17.06-11.66-25.8-12.94-6.87-.95-8.58-.95-14.76.08m18.44 25.97a30 30 0 0 1 6.94 4.98c3.6 3.68 6.6 9.6 7.38 14.57.77 4.9-1.29 12.44-4.72 17.41-4.37 6.34-12.77 10.72-20.5 10.72-6.68 0-12-2.32-17.31-7.63-5.32-5.32-7.63-10.64-7.63-17.15 0-5.32 1.2-9.18 4.2-13.98 4.89-7.72 13.8-12.26 22.64-11.4a29 29 0 0 1 9 2.48" clip-rule="evenodd"/>
</svg>
