<svg xmlns="http://www.w3.org/2000/svg" width="512" height="504" fill="currentColor" viewBox="0 0 512 504">
    <path fill-rule="evenodd" d="M252.26.97c-1.42.53-9.36 4.94-17.6 9.81-23.27 13.7-99.77 59.36-104.79 62.5-2.47 1.57-11.08 6.81-19.09 11.6-8 4.87-17.44 10.56-20.96 12.73s-12.05 7.41-19.08 11.68c-33.61 20.36-60.04 36.9-61.76 38.55s-1.87 2.4-1.87 8.46c0 5.61.23 7.03 1.57 8.83a11 11 0 0 0 3.37 3c1.42.74 53.22.97 243.8.97 214.83 0 242.23-.15 244.17-1.13 3.37-1.8 4.5-4.64 4.5-11.82 0-4.94-.3-6.67-1.28-7.94-.75-.82-3.89-3.14-6.96-5.01-3.07-1.95-20.96-12.95-39.67-24.48s-40.95-25.23-49.4-30.32c-16.7-10.18-80.62-48.43-98.06-58.68-6-3.52-18.34-10.86-27.48-16.25C264.76 3.44 258.02-.07 256 0c-.6 0-2.32.45-3.74.97m8.23 13.48c4.5 2.7 21.56 12.8 50.53 30.01a10640 10640 0 0 1 178.75 108.32c1.94 1.27 3.52 2.7 3.52 3.3 0 .89-34.74 1.04-237.22 1.04-133.01 0-237.43-.3-237.66-.67-.52-.83 1.13-2.18 7.79-6.22 5.46-3.3 8.53-5.16 21.7-13.32 6.74-4.2 30.17-18.49 55.4-33.84a22116 22116 0 0 1 143.34-85.85c4.94-2.92 9.14-5.32 9.36-5.32.15 0 2.17 1.13 4.5 2.55M44.46 182.72c-2.17 1.05-3.29 3.74-3.29 7.93 0 3.75 1.57 6.89 3.44 6.89.83 0 1.05 1.2 1.05 5.61 0 3.15.45 6.82 1.05 8.16.52 1.35 2.1 3.22 3.37 4.12 2.32 1.65 2.32 1.65 2.32 85.33 0 83.69 0 83.69-1.87 84.51-1.05.45-2.55 1.95-3.37 3.3-1.12 1.87-1.5 3.81-1.5 8.16 0 5.39-.07 5.69-2.24 7.26-2.03 1.5-2.25 2.1-2.25 5.69 0 2.92.45 4.49 1.57 5.98 1.5 1.95 1.5 1.95 40.72 1.95 36.68 0 39.23-.07 40.8-1.35 2.32-1.87 3-8.3 1.2-11-.68-1.05-1.73-1.87-2.25-1.87-.75 0-1.12-1.72-1.35-6.59-.22-5.31-.6-7.04-1.94-8.98-.9-1.27-2.32-2.55-3.15-2.77-1.5-.45-1.5-1.5-1.5-84.44.08-83.98.08-83.98 2.48-85.48a9 9 0 0 0 3.29-4.12c.52-1.42.9-5.01.9-7.93.07-4.87.22-5.39 1.87-6.14 3.6-1.57 3.6-10.4.07-13.47-1.94-1.65-1.94-1.65-39.9-1.57-24.47 0-38.54.3-39.52.82m66.62 16.1c-.22 2.84-.52 5.53-.75 5.98-.22.75-6.13.97-26.42.97-14.37 0-26.35-.3-26.57-.67-.23-.37-.68-3.07-.9-5.99-.52-5.31-.52-5.31 27.32-5.31 27.85 0 27.85 0 27.32 5.01m-7.78 101.64v83.47l-19.61-.15-19.69-.23-.22-82.34c-.08-45.28 0-82.79.22-83.3.22-.68 4.94-.9 19.84-.9h19.46zm7.7 99.49c.38 2.39.46 4.86.23 5.38-.3.9-5.09 1.05-27.32 1.05-16.92 0-27.1-.3-27.4-.75-.22-.37-.22-2.77.08-5.16.45-4.34.6-4.5 2.84-4.8 1.28-.14 13.25-.22 26.65-.22 24.33.08 24.33.08 24.93 4.5m47.91-217.38a5.6 5.6 0 0 0-2.4 2.17c-.44.82-.81 3.52-.81 5.99 0 4.19.15 4.64 2.24 6.21 2.17 1.57 2.25 1.87 2.25 7.26 0 4.34.37 6.29 1.5 8.09a13 13 0 0 0 3.36 3.66c1.87 1.2 1.87 1.2 1.87 84.29s0 83.09-3.14 85.93c-3.22 2.85-3.22 2.85-3.52 9.66-.22 6.06-.37 6.96-1.87 7.7-.82.46-1.8 1.2-2.1 1.65s-.6 2.77-.6 5.1c0 3.44.3 4.56 1.65 5.83 1.57 1.5 2.4 1.5 40.35 1.5 21.33 0 39.3-.22 39.97-.45 1.72-.67 3.37-4.34 3.37-7.56 0-3.14-1.72-6.21-3.44-6.21-.75 0-1.05-1.05-1.05-4.34-.08-6.96-1.05-9.96-4.42-12.95-3.07-2.77-3.07-2.77-3.07-85.64 0-82.86 0-82.86 3.07-85.63 2.32-2.02 3.22-3.52 3.67-6.06.37-1.87.67-5.1.75-7.19 0-3.3.22-3.89 1.8-4.64 1.27-.6 1.94-1.65 2.31-3.74.68-3.97-.22-8.01-2.02-9.66-1.42-1.27-3.96-1.34-39.82-1.5-21.1-.07-39 .16-39.9.53m66.47 16.47c-.07 2.7-.52 5.31-.97 5.76-.6.75-6.81.97-26.8.97-23.05 0-26.12-.15-26.5-1.2-.22-.67-.44-3.36-.44-5.98 0-4.8 0-4.8 27.47-4.64 27.47.22 27.47.22 27.24 5.09m-7.7 101.65.14 83.24-19.6-.15-19.7-.23-.22-82.34c-.07-45.28 0-82.79.23-83.3.22-.76 4.56-.9 19.6-.76l19.32.23zm6.8 95.51c.53.68.83 2.85.68 5.47-.22 4.34-.22 4.34-27.17 4.34s-26.95 0-27.17-3.3c-.38-5.24.22-6.66 3.07-7.03 1.27-.15 13.02-.38 26.04-.38 19.62-.15 23.88 0 24.56.9m50.98-213.85c-.6.22-1.72.9-2.4 1.57-1.04.9-1.34 2.32-1.34 6.06 0 2.7.3 5.31.6 5.76a8 8 0 0 0 2.24 1.73c1.5.82 1.65 1.42 1.65 7.33 0 6.44 0 6.44 3.37 9.73 3.37 3.22 3.37 3.22 3.37 85.93s0 82.72-3.37 85.94c-3.37 3.29-3.37 3.29-3.37 9.73 0 6.21-.07 6.43-2.02 7.4-2.4 1.2-3.3 4.12-2.7 8.62.3 2.1.98 3.66 2.03 4.34 1.27.97 7.63 1.12 40.64 1.12 38.18 0 39.22-.07 40.65-1.5 1.12-1.12 1.5-2.47 1.5-5.84 0-2.32-.3-4.64-.6-5.09a7 7 0 0 0-2.1-1.64c-1.5-.75-1.65-1.65-1.87-7.71-.3-6.81-.3-6.81-3.45-9.58-3.21-2.77-3.21-2.77-3.21-85.64 0-82.86 0-82.86 3.36-86.08 3.37-3.3 3.37-3.3 3.37-9.58 0-6.21.08-6.44 2.25-8 2.1-1.58 2.24-2.03 2.24-6.45 0-3.59-.37-5.24-1.42-6.5-1.42-1.8-1.42-1.8-39.9-1.95-21.1-.08-38.92.07-39.52.3m65.87 16.24c0 2.62-.22 5.31-.45 5.99-.37 1.04-3.44 1.2-26.87 1.2s-26.5-.16-26.87-1.2c-.23-.68-.45-3.37-.45-6 0-4.78 0-4.78 27.32-4.78s27.32 0 27.32 4.79m-7.86 101.87v83.1h-38.92l-.22-82.35c-.08-45.28 0-82.79.22-83.3.22-.76 4.57-.9 19.61-.76l19.31.23zm6.67 95.14c.97.38 1.2 1.5 1.2 5.62 0 5.16 0 5.16-27.33 5.16s-27.32 0-27.32-4.71c0-2.62.37-5.1.9-5.62.6-.6 8.08-.82 26.05-.9 13.85 0 25.82.15 26.5.45M387.67 184c-1.57 1.56-2.17 2.91-2.17 4.78q.02 6.94 2.62 8.16c1.5.68 1.72 1.42 2.02 6.89.37 6.73 1.87 10.55 4.64 11.75 1.27.6 1.87 1.65 2.17 3.97.6 4.26.6 130.47 0 149.48-.45 15.35-.45 15.35-2.62 16.62a9 9 0 0 0-3.22 3.82c-.67 1.57-1.12 5.01-1.12 8.3 0 4.42-.23 5.62-1.12 5.62-.6 0-1.65.82-2.32 1.87-1.8 2.7-1.13 9.13 1.2 11 1.56 1.28 4.11 1.35 40.86 1.35 38.25 0 39.3-.07 40.72-1.5 1.2-1.2 1.5-2.47 1.5-6.36 0-4.64-.07-4.86-2.25-5.99-2.17-1.12-2.24-1.27-2.24-6.96 0-4.42-.38-6.36-1.5-8.23-.82-1.35-2.32-2.85-3.37-3.3-1.87-.82-1.87-.82-1.87-84.36 0-83.46 0-83.46 3.15-86.23 3.21-2.7 3.21-2.7 3.59-9.5.37-6.3.52-6.9 2.47-8.39 1.8-1.42 2.02-2.1 2.02-6.36 0-3.52-.37-5.17-1.42-6.44-1.42-1.8-1.42-1.8-40.5-2.02-39-.22-39-.22-41.24 2.02m68.19 14.96c0 3.45-.37 5.4-1.05 6-.67.59-8.46.81-27.1.66-26.12-.22-26.12-.22-26.57-5.46-.3-2.92-.37-5.46-.15-5.84.15-.3 12.58-.52 27.62-.52 27.25 0 27.25 0 27.25 5.16M448 300.46v83.1l-19.61.22-19.69.15V217l19.69.15 19.61.23zm7.04 95.74c.52.68.82 2.85.67 5.47-.22 4.34-.22 4.34-27.1 4.56-14.82.08-27.17-.07-27.4-.37-.22-.38-.3-2.7-.14-5.24.22-4.34.37-4.64 2.24-4.94 1.13-.15 13.03-.38 26.43-.45 20.28-.08 24.62.07 25.3.97M26.57 428.4c-1.2.52-2.92 1.72-3.74 2.7-1.35 1.5-1.57 2.99-1.87 14.89-.38 13.17-.38 13.17-7.11 13.55-7.41.45-10.56 1.72-12.65 5.24-.98 1.8-1.2 4.64-1.2 18.11 0 13.55.15 16.25 1.2 17.74 2.84 4.05-13.7 3.82 254.2 3.82 167.67 0 248.89-.22 250.76-.75a10 10 0 0 0 4.34-2.77c1.43-1.8 1.5-2.92 1.5-18.26 0-16.24 0-16.24-2.02-18.71a14 14 0 0 0-4.5-3.37c-1.34-.6-5-1.05-8.45-1.05-5.99 0-5.99 0-5.99-12.2 0-10.03-.22-12.58-1.35-14.75a9.7 9.7 0 0 0-3.89-3.9c-2.47-1.26-14.97-1.34-229.8-1.34-186.84.08-227.56.23-229.43 1.05m453.1 20.8c-.23 9.96-.23 9.96-223.82 10.19-223.66.15-223.66.15-223.66-9.96 0-10.1 0-10.1 223.81-10.1 223.89 0 223.89 0 223.66 9.88m21.1 32.8c0 10.47 0 10.47-244.77 10.47s-244.77 0-244.77-10.48 0-10.47 244.77-10.47 244.77 0 244.77 10.47" clip-rule="evenodd"/>
</svg>
