<svg xmlns="http://www.w3.org/2000/svg" fill="currentColor" viewBox="-13.59 -39.959 539.179 539.179">
    <path fill-rule="evenodd" d="M41.17.31c-8.43.76-14.65 3.08-22.12 8.24-8.5 5.8-14.6 14.7-17.64 25.46C0 38.96 0 38.96 0 229.66c0 184.55.05 190.81.96 194.25 3.03 11.46 8.08 19.55 16.37 26.11a55 55 0 0 0 16.26 8.34c3.14.86 12.48.9 222.28.9 180.05 0 219.45-.1 221.53-.65a46 46 0 0 0 19.8-10.91c7.53-6.97 11.47-14.04 13.84-24.55.9-4.2.96-9.35.96-193.49 0-184.64-.05-189.29-1.01-193.58a45.5 45.5 0 0 0-12.38-22.68A47.3 47.3 0 0 0 476.9 1.02c-3.44-.9-10.5-.96-217.48-1.01-117.66-.05-215.86.1-218.24.3m435.06 18.75c1.87.7 4.55 2.07 5.96 2.98 3.49 2.22 7.83 7.17 9.6 10.9 2.98 6.17 3.03 7.23 2.93 35.42l-.15 25.66H17.17l-.15-24.75c-.15-27.99.06-30.1 3.24-36.58 3.38-6.87 10.25-12.27 18.39-14.4 2.42-.65 31.57-.75 218.49-.65 215.7.1 215.7.1 219.1 1.42m18.5 244.96c.1 104.77-.06 153.27-.41 155.44a30 30 0 0 1-5.4 12.02 30.6 30.6 0 0 1-12.03 9c-4.04 1.61-4.04 1.61-221.02 1.61-216.97 0-216.97 0-220.5-1.46-4.66-1.92-9.4-5.3-11.98-8.54-1.16-1.46-2.73-4-3.54-5.7-3.13-6.63-2.93 4.29-2.93-162.17 0-83.66.16-152.26.36-152.41.15-.2 107.65-.3 238.8-.26l238.5.16zM59.2 45.93a15 15 0 0 0-3.64 2.02c-5.6 4.5-5.25 13.6.7 17.78 1.98 1.37 2.53 1.52 6.07 1.52 3.43 0 4.2-.15 6.01-1.42a10.8 10.8 0 0 0 4.95-7.72c.46-3.8-.5-6.52-3.23-9.25-1.72-1.72-3.08-2.58-4.75-2.98-2.83-.7-3.59-.7-6.11.05m87.5.1a12.2 12.2 0 0 0-6.67 5.96c-1.17 2.43-1.12 6.97.1 9.35a11.03 11.03 0 0 0 15.05 4.9 10.65 10.65 0 0 0 5.71-11.72c-.76-3.28-2.58-5.91-5.15-7.43a11.4 11.4 0 0 0-9.05-1.06m-45.27.56c-.9.45-2.42 1.72-3.38 2.78-3.7 4.04-3.74 10-.2 14.3a10.3 10.3 0 0 0 8.48 3.78c3.59 0 6.67-1.51 8.74-4.4 1.26-1.76 1.62-2.77 1.77-5.35.1-1.77-.05-4.04-.4-5.05-.81-2.48-2.73-4.7-5.1-5.86-2.43-1.26-7.59-1.36-9.91-.2m213.03 114.27a9.2 9.2 0 0 0-4.34 5.96 8.9 8.9 0 0 0 4.34 9.4c1.72.9 4.15.9 65.43.8 63.65-.15 63.65-.15 65.32-1.3 2.27-1.68 3.33-3.9 3.33-7.18.05-3.13-1.11-5.56-3.39-7.28-1.41-1.06-1.41-1.06-65.16-1.2-61.33-.11-63.8-.06-65.53.8M165.3 172.78c-.15.4-.25 23.14-.2 50.62.1 49.91.1 49.91 1.62 50.32 1.87.5 97.9.15 98.76-.36.91-.55.25-9.1-1.31-16.92a97 97 0 0 0-6.67-21.37 106 106 0 0 0-11.16-19.55c-3.8-5.36-12.33-14.45-18.14-19.35-11.22-9.55-26.22-17.33-40.72-21.12-10.3-2.67-21.57-3.83-22.18-2.27m-23.08 4.4c-9.8 1.51-17.94 3.63-25 6.46-16.73 6.72-33 19.3-43.86 34A114 114 0 0 0 57.4 248.1a101 101 0 0 0-5.6 34.36c0 9.3.8 16.16 2.77 24.24 4.9 20.31 14.3 37.14 28.74 51.58 13.6 13.6 29 22.43 47.29 27.08a105 105 0 0 0 34.35 2.93c18.04-1.41 34.05-6.87 49.36-16.77 13.44-8.74 25.5-21.77 33.84-36.42a112 112 0 0 0 7.99-18.34c2.93-9.5 5.45-23.09 4.64-25.11-.3-.8-4.19-.86-53.44-.86-53.15 0-53.15 0-54.87-1.31-.9-.7-2.07-1.87-2.57-2.63-.81-1.21-.86-5.25-1.11-55.67-.26-54.3-.26-54.3-2.03-54.4-.96 0-3.03.14-4.54.4m172.52 34.8a10 10 0 0 0-3.29 2.88c-1 1.47-1.26 2.48-1.26 4.95 0 3.54.76 5 3.64 7.18 1.82 1.41 1.82 1.41 65.52 1.41s63.7 0 65.62-1.16c2.58-1.62 3.59-3.74 3.64-7.43 0-2.32-.3-3.48-1.21-4.95a8.6 8.6 0 0 0-3.13-2.88c-1.87-1-3.24-1-64.72-1-61.73 0-62.84 0-64.81 1m52.28 62.5c-.4.15-1.36.85-2.12 1.56-1.41 1.31-1.41 1.31-1.41 55.32 0 37.68.15 54.25.55 55.01 1.11 2.07 3.29 2.43 15.1 2.43 11.83 0 14-.36 15.11-2.43.4-.76.56-17.33.56-55.11 0-54.06 0-54.06-1.21-55.47-1.22-1.42-1.22-1.42-13.54-1.52-6.72-.05-12.63.05-13.04.2m-53.8 49.6c-.55.26-1.46.96-2.02 1.57-1 1.11-1 1.82-1 30.61 0 29.5 0 29.5 1.4 30.87 1.37 1.41 1.37 1.41 12.38 1.57 6.01.1 11.97.05 13.19-.16 1.31-.2 2.67-.8 3.38-1.51 1.21-1.21 1.21-1.21 1.21-30.77s0-29.55-1.2-30.96c-1.22-1.42-1.22-1.42-13.8-1.52-6.87-.05-12.98.1-13.54.3m105.23 1.01c-1.67 1.47-1.67 1.47-1.82 30.82-.1 29.3-.1 29.3 1.37 30.97 1.46 1.66 1.46 1.66 14.6 1.66 12.22 0 13.18-.05 14.2-.96a7 7 0 0 0 1.6-2.77c.31-1.22.46-11.47.36-29.96-.15-28.2-.15-28.2-1.56-29.55-1.37-1.42-1.37-1.42-14.25-1.57-12.83-.15-12.83-.15-14.5 1.36" clip-rule="evenodd"/>
</svg>
