<svg xmlns="http://www.w3.org/2000/svg" fill="currentColor" viewBox="-71.926 -71.449 654.901 654.901">
    <path fill-rule="evenodd" d="M461.54.68c-4.2.86-6.83 1.82-11.02 4.05a39.6 39.6 0 0 0-16.99 17.44 47 47 0 0 0-3.59 9.86c-1.21 4.9-1.36 6.11-1.11 10.87a43 43 0 0 0 3.9 16.12c1.66 3.64 1.66 3.64-3.85 9.3a8183 8183 0 0 0-41.96 44.35 11545 11545 0 0 1-38.17 40.64c-1.42 1.47-1.42 1.47-5.1-.1-5.22-2.22-9-3.08-14.82-3.49-4.2-.25-5.92-.1-10.11.86a50 50 0 0 0-8.24 2.58 42 42 0 0 0-13.2 9.4c-2.98 3.34-2.98 3.34-5.2 2.53-1.17-.45-5.11-2.02-8.75-3.54a3302 3302 0 0 1-29.83-12.48 490 490 0 0 0-9.1-3.8c-2.48-1-7.03-2.88-10.11-4.14a250 250 0 0 1-6.17-2.53c-.46-.15-.66-1.57-.66-4.4 0-7.78-3.18-16.53-8.7-23.76-3.03-4.04-9.04-9-13.7-11.27a53 53 0 0 0-7.53-2.89c-3.64-1.06-5.4-1.26-10.82-1.2-7.48 0-11.98.9-17.64 3.63-7.94 3.74-15.42 11.07-19.16 18.76a63 63 0 0 0-3.14 8.29c-1.21 4.2-1.31 5.2-1.1 11.58.2 5.71.45 7.58 1.5 10.71.72 2.08 1.47 4.15 1.63 4.6.25.61-1.17 2.08-5.57 5.82-13.6 11.53-17.74 15.01-27 22.95-5.35 4.6-12.28 10.52-15.41 13.15-6.32 5.36-12.49 10.71-23.87 20.57-4.24 3.7-7.78 6.73-7.93 6.73-.1 0-1.72-.91-3.54-2.02a50 50 0 0 0-8.04-3.64c-3.9-1.32-5.61-1.62-10.72-1.82-7.58-.26-12.94.7-18.86 3.48a41 41 0 0 0-13.65 9.86c-2.93 3.24-6.87 10.01-8.49 14.41a47 47 0 0 0-2.17 13.35c.05 6.32 1.51 12.08 4.85 18.8a34 34 0 0 0 6.02 8.7c5.3 5.71 10.92 9.2 18.7 11.68 2.78.9 4.96 1.16 10.57 1.31 5.76.1 7.78-.05 10.87-.86 8.5-2.22 17.29-7.93 22.24-14.46a47 47 0 0 0 7.54-15.57c.8-3.28 1-5.36.9-10.87-.1-6.01-.3-7.38-1.56-11.32-1.77-5.3-3.94-2.63 15.87-19.62 4.35-3.69 10.37-8.84 13.4-11.47 13.65-11.68 17.04-14.56 44.95-38.33 4.5-3.84 4.5-3.84 5.81-2.98a52 52 0 0 0 10.41 4.9c3.24 1.12 4.35 1.22 12.64 1.22 8.24-.05 9.4-.15 12.39-1.21 7.89-2.84 14.66-7.54 19.26-13.25 1.42-1.77 2.63-3.29 2.68-3.39.1-.05 1.37.4 2.88 1.12 1.52.65 5.1 2.17 8.04 3.33 2.93 1.22 7.59 3.14 10.37 4.35s12.79 5.36 22.24 9.3c9.45 3.9 18.15 7.59 19.36 8.1 2.13 1 2.13 1 2.18 5.65.05 6.32.3 8.04 1.77 12.54q3.1 9.26 8.95 15.47c5.56 5.92 10.87 9.2 18.85 11.58 3.9 1.16 5.41 1.31 10.87 1.31 4.65-.05 7.49-.35 10.37-1.06a43 43 0 0 0 12.84-5.71c3.28-2.23 8.7-7.43 10.67-10.31 2.57-3.7 4.9-9.2 6.06-14.16.91-4.04 1.06-5.71.81-11.68-.2-5.66-.45-7.58-1.52-10.46a68 68 0 0 0-2.37-5.92c-1.16-2.38-1.16-2.38.5-4.3 1.77-1.97 3.04-3.33 29.12-31.24 12.8-13.6 37.52-39.84 53.04-56.27 3.03-3.18 3.03-3.18 6.52-1.62 5.71 2.63 10.26 3.54 17.3 3.54 8.94 0 14.45-1.41 21.17-5.56 9.36-5.61 15.68-14 18.76-24.67 1.21-4.4 1.32-5.2 1.06-12.14-.2-6.06-.45-8.13-1.46-11.22a43 43 0 0 0-5.62-11.37c-3.43-5.06-7.33-8.55-14.6-13.05-1.93-1.21-6.12-2.73-10.02-3.64-4.04-.9-13.14-.9-17.7 0m17.04 22.5a21 21 0 0 1 9.9 10.01c1.42 3.03 1.57 3.9 1.57 8.2 0 4.24-.2 5.15-1.46 7.78-2.13 4.3-6.12 8.44-9.96 10.2-2.89 1.32-3.7 1.47-8.75 1.47s-5.81-.15-8.4-1.41a28 28 0 0 1-5.15-3.39c-4.1-3.64-6.82-10.82-6.27-16.68.56-6.32 5.51-13.35 11.18-15.98a19.5 19.5 0 0 1 10.66-1.92c2.48.15 4.5.66 6.68 1.72m-283.42 94.95c4.85 2.42 7.38 5.05 10.06 10.46 1.06 2.17 1.21 3.24 1.21 7.33 0 4.35-.15 5.16-1.57 8.24a21 21 0 0 1-9.55 9.7c-3.64 1.73-6.12 2.13-10.82 1.73a19 19 0 0 1-12.13-5.56c-2.89-2.83-4.8-6.63-5.62-11.13-.5-2.88-.5-3.89.26-6.82 1.36-5.46 4.1-9.56 8.24-12.39a25 25 0 0 1 4.85-2.53c2.07-.75 3.64-.96 7.23-.8 4 .1 5.06.35 7.84 1.77m137 53.59a20 20 0 0 1 12.8 10.71c1.41 2.99 1.56 3.74 1.56 8.35 0 4.4-.15 5.4-1.31 7.83-1.92 4.05-5.51 7.79-9.2 9.6-3.8 1.83-8.3 2.74-11.43 2.28-5.91-.9-11.73-4.65-14.56-9.4a29 29 0 0 1-2.53-6.22c-.7-2.88-.76-4.04-.3-6.67.76-4.5 2.73-8.4 5.61-11.28a19.7 19.7 0 0 1 9.46-5.4c3.58-.92 6.11-.87 9.9.2M48.1 235.57c1.46.3 3.84 1.16 5.2 1.87 5.36 2.68 8.1 5.76 10.17 11.42.9 2.53 1.1 4.1 1.06 7.23-.1 3.24-.4 4.55-1.72 7.28-3.6 7.39-11.73 12.4-19.16 11.73-4-.35-8.6-2.17-11.68-4.7a17.5 17.5 0 0 1-4.9-6.06c-2.03-3.7-2.08-3.9-2.08-8.85 0-4.75.1-5.31 1.72-8.55.96-1.92 2.68-4.5 3.9-5.66a22.6 22.6 0 0 1 10.06-5.56c3.28-.8 4.2-.8 7.43-.15m379.88-69.31a12 12 0 0 0-6.52 5.8c-1.12 2.03-1.12 2.03-1.12 166.64 0 164.62 0 164.62 1.52 167.1a14 14 0 0 0 4 3.99c2.47 1.51 2.47 1.51 36.9 1.67 25.99.1 34.99 0 36.66-.46 1.46-.4 3.08-1.47 4.65-2.93 4.4-4.3 4 12.84 4-170.53 0-162.74 0-162.74-1.07-164.86a12.3 12.3 0 0 0-6.88-6.42c-2.63-.97-3.94-1.02-36.2-1.02-31.74.05-33.62.1-35.94 1.02M148.14 257.8c-.91.3-2.88 1.72-4.35 3.19-2.22 2.17-2.78 3.13-3.24 5.4-.45 2.03-.55 32.01-.45 119.52.15 116.79.15 116.79 1.26 118.81.61 1.11 1.82 2.73 2.78 3.64 3.44 3.29 1.88 3.19 40.1 3.19 34.27 0 34.68 0 36.9-1.07 2.73-1.26 5.61-4.5 6.37-7.02.36-1.17.46-40.5.36-120.18-.16-118.35-.16-118.35-1.67-120.52a17 17 0 0 0-4.05-3.74c-2.42-1.52-2.42-1.52-37.36-1.62-21.64-.05-35.59.1-36.65.4m140.85 52.53c-3.49 1.32-5.61 3.14-6.98 5.92-1.21 2.42-1.21 2.42-1.36 93.43-.1 99.9-.3 94.03 2.93 97.92.8 1.01 2.48 2.33 3.69 2.88 2.12 1.02 2.78 1.07 36.45 1.07 34.28.05 34.28.05 36.96-1.22 2.78-1.26 4.75-3.38 6.07-6.52.65-1.62.75-12.28.75-92.97 0-63.6-.15-91.76-.55-93.13-.81-2.83-4.6-6.42-8-7.53-2.42-.76-5.75-.86-35.13-.8-30.08.04-32.56.1-34.83.95M7.54 374.1a12.6 12.6 0 0 0-6.22 5.77C.21 381.88.21 381.88.06 441.23c-.15 65.57-.25 62.84 3.03 66.59.86.96 2.53 2.27 3.64 2.88 2.07 1.1 2.18 1.1 36.15 1.26 30.59.1 34.33.05 36.6-.7 3.09-1.02 6.27-3.8 7.48-6.53.91-1.92.97-5.1.97-62.39 0-60.3 0-60.3-1.37-62.79a12.3 12.3 0 0 0-6.42-5.7c-1.72-.72-5.97-.82-36.15-.77-32.96 0-34.28.05-36.45 1.01" clip-rule="evenodd"/>
</svg>
