<svg xmlns="http://www.w3.org/2000/svg" fill="currentColor" viewBox="-73.601 -67.981 647.963 647.963">
    <path fill-rule="evenodd" d="M316.5.36a85 85 0 0 0-26.77 8.15 81 81 0 0 0-27.89 23.53c-2.17 2.94-6.12 9.72-8.2 14.07a97 97 0 0 0-5.76 17.87c-1.12 5.21-1.17 6.37-1.17 30.97 0 22.37.1 26.06.91 29.8 1.17 5.78 4 13.97 6.43 18.88 2.58 5.27 7.64 12.8 11.8 17.67a103 103 0 0 0 12.9 12.1c1.62 1.2 1.62 1.2 1.62 23.98 0 13.41.2 23.58.5 24.6a9 9 0 0 0 2.23 3.49 5.8 5.8 0 0 0 4.05 1.92c1.21.15 2.83.15 3.54-.05.76-.2 7.8-4.7 15.74-10.07 7.94-5.32 18.93-12.76 24.4-16.45 9.96-6.68 9.96-6.68 52.32-6.68 27.48 0 44.23-.2 47.62-.56a90 90 0 0 0 20.75-5.1 87 87 0 0 0 18.17-10.28c5.62-4.2 14.17-13.1 17.71-18.47a94 94 0 0 0 9.62-19.28c.8-2.48 2.02-6.74 2.63-9.42 1.06-4.8 1.11-5.87 1.11-34.3 0-28.65-.05-29.51-1.16-34.52A80 80 0 0 0 478.85 24c-5.42-5.57-11.94-10.78-17.3-13.82C456.98 7.6 449.7 4.36 446 3.3c-1.92-.56-5.61-1.52-8.24-2.08-4.71-1.06-5.72-1.1-61.24-1.21-31.02-.05-58.05.1-60.02.35M432.19 15.7c2.63.4 6.73 1.36 9.1 2.12 12.2 3.8 24.2 12.4 32.2 22.93 3.94 5.21 8.75 14.78 10.52 21a63 63 0 0 1 1.87 9.11c.36 2.88.46 13.77.36 29.4-.2 24.8-.2 24.8-1.52 29.66-3.19 11.84-8.8 21.6-17.06 29.86a90 90 0 0 1-8.65 7.49c-7.14 5-15.23 8.5-24.8 10.57-3.34.71-9.71.81-51.01 1.02-47.22.15-47.22.15-51.37 2.98-24.7 16.9-35.27 23.94-35.78 23.94-.35 0-.5-6.02-.5-17.86 0-17.51 0-17.92-1.12-20.1-.8-1.51-2.22-3.08-4.45-4.7-1.82-1.37-4.8-3.8-6.63-5.42a85 85 0 0 1-12.25-14.22 69 69 0 0 1-9.05-21.96c-.46-2.23-.61-9.11-.61-26.06 0-19.94.15-23.64.9-27.53a70 70 0 0 1 12-27.18c2.99-4.05 10.18-11.08 14.63-14.22a73 73 0 0 1 9.1-5.16c6.28-3.04 12.86-5.12 18.48-5.82 1.97-.26 27.68-.46 57.19-.51 44.23-.05 54.5.1 58.45.66M309.92 57.75c-.86.4-2.18 1.42-2.88 2.28a7.5 7.5 0 0 0-.26 9.36c2.33 2.94-1.72 2.79 66.96 2.79 57.18 0 63.26-.1 64.82-.81q3.95-1.9 3.95-6.53c0-1.87-.3-3.04-1.16-4.25a9.5 9.5 0 0 0-3.3-2.63c-1.96-.92-4.65-.97-64.31-.92-51.52.06-62.5.16-63.82.71m-.6 36.19a5.3 5.3 0 0 0-3.14 3.13 11 11 0 0 0-1.02 3.45c0 .7.51 2.32 1.17 3.54a6.5 6.5 0 0 0 2.88 3.14c1.67.86 5.77.9 64.48.9 62.3 0 62.75 0 64.87-1.06a6.3 6.3 0 0 0 3.3-3.28c1.72-3.6.75-6.89-2.79-9.52-1.37-1.06-1.62-1.06-64.47-1.16-61.64-.15-63.16-.1-65.29.86m1.16 35.02a7.9 7.9 0 0 0-4.6 4.3c-.92 2.12-.92 3.74.1 6.22a5.3 5.3 0 0 0 2.78 3.04c1.87.96 3.24 1.01 40.43 1.01 36.84 0 38.56-.05 40.39-.96a9 9 0 0 0 2.78-2.48c1.11-1.97 1.11-5.46-.05-7.7a8 8 0 0 0-2.94-2.72c-1.92-1.07-2.73-1.07-39.67-1.17-25.46-.05-38.21.1-39.22.46m-190.8-31.13c-2.93.36-10.17 1.78-12.9 2.53a82 82 0 0 0-16.45 6.38c-9.61 4.76-16.95 10.22-24.6 18.32-4.04 4.3-4.95 5.42-8.7 11.03a88 88 0 0 0-9.96 20.1 78 78 0 0 0-3.75 15.73c-.7 4.71-.81 14.78-.81 76.93 0 75.76 0 74.85 2.33 84.36 3.14 12.85 10.42 26.72 19.13 36.54a107 107 0 0 0 15.89 14.27c5.57 3.8 16.3 9.06 22.87 11.18 3.2 1.02 8.45 2.33 11.64 2.94 4.6.91 7.7 1.16 14.93 1.16 11.6.05 17.56-.9 28.54-4.6a88 88 0 0 0 20.35-10.17c13-8.7 23.43-20.7 30-34.52q6.55-13.8 7.9-27.33c.4-3.64.51-28.08.36-77.93-.15-65.7-.25-72.98-1.01-76.17-2.69-11.18-4.25-15.63-8.3-23.53a86 86 0 0 0-14.02-20.09c-4.8-5.11-12.25-11.29-17.36-14.42-4.55-2.74-12.3-6.58-16.6-8.15a94 94 0 0 0-18.22-4.35c-4.25-.51-17.86-.66-21.25-.2m20.3 15.6c11.84 2.02 19.94 5.05 28.8 10.77a69 69 0 0 1 17.4 15.79 73 73 0 0 1 14.58 31.88c.66 3.75.86 7.54.91 16.96 0 12.14 0 12.14-17.46 12.4-15.54.2-17.66.35-19.13 1.16-4.7 2.58-4.86 9.82-.25 12.85 1.21.81 3.14.91 19.13 1.17 17.71.25 17.71.25 17.71 12.4s0 12.14-17.71 12.4c-17.56.25-17.71.25-19.38 1.41a7.2 7.2 0 0 0-3.14 6.28 7.7 7.7 0 0 0 3.39 6.32c1.21.81 3.14.91 19.13 1.17 17.71.25 17.71.25 17.86 12.1.05 7.38-.05 12.04-.4 12.4-.3.3-7.04.5-17.61.6-14.88.05-17.31.2-18.78.91-2.33 1.21-3.6 3.6-3.6 6.78 0 2.43.21 2.89 1.98 4.8 2.03 2.13 2.03 2.13 20.14 2.39 18.12.25 18.12.25 18.07 12.65 0 9.92-.2 13.26-.91 16.7-2.13 9.97-6.58 20.3-12.15 27.99a95 95 0 0 1-7.9 9.26c-12.54 12.65-28.53 19.94-46.8 21.2-8.6.6-21.71-1.31-29.6-4.4-5.37-2.08-13.62-6.53-17.77-9.67a84 84 0 0 1-8.35-7.23 86 86 0 0 1-13.36-18.43c-2.84-5.61-5.37-13.6-6.58-20.6-.86-5.15-1.01-7.94-.91-16.7.15-10.52.15-10.52 18.12-10.77 17.96-.26 17.96-.26 19.68-1.47a7.8 7.8 0 0 0 3.09-6.17c0-2.13-1.77-5.17-3.65-6.28-1.41-.8-2.93-.91-17.2-.8-8.6.04-16.65-.06-17.92-.26-2.22-.3-2.22-.3-2.12-12.55.15-12.2.15-12.2 17.86-12.45 16.55-.26 17.82-.3 19.44-1.27a7.9 7.9 0 0 0 3.59-6.22c0-2.28-1.72-5.27-3.7-6.48-1.46-.86-3.03-.96-19.33-1.21-17.71-.26-17.71-.26-17.71-12.4s0-12.15 17.71-12.4c17.31-.26 17.77-.3 19.54-1.42a7.23 7.23 0 0 0-.56-12.65c-2.18-1.11-2.58-1.11-19.59-1.11-17.35 0-17.35 0-17.35-11.09 0-8.75.2-12.3 1-17 .57-3.24 1.73-8 2.54-10.58a77 77 0 0 1 16.4-27.53c3.59-3.8 9.71-8.75 14.22-11.59a78 78 0 0 1 14.42-6.73c3.8-1.26 11.54-3.09 15.94-3.7 3.85-.5 14.17-.3 18.27.41M4.05 267.36A9 9 0 0 0 1.16 270C0 271.72 0 271.72 0 296.87c0 25.1.2 29.25 2.02 39.22.81 4.46 4.91 18.12 6.74 22.52 2.02 4.96 6.02 13.01 8.6 17.46 3.29 5.72 9.87 14.73 14.78 20.2 11.28 12.65 22.92 21.91 37.45 29.7a178 178 0 0 0 18.97 8.2c7.8 2.73 18.63 5.11 27.33 5.97 6.07.61 6.07.61 5.97 28.5l-.15 27.88-33.9.25c-31.64.26-34.06.3-35.33 1.17a9 9 0 0 0-2.43 2.53c-.76 1.21-.96 2.22-.8 4.25.24 3.34 2.02 5.82 4.8 6.63 2.78.86 147.92.86 150.46.05 3.23-1.11 5.51-4.05 5.51-7.14a7.6 7.6 0 0 0-3.84-6.32c-1.98-1.17-1.98-1.17-35.48-1.17h-33.55V468.8c0-28.04 0-28.04 5.72-28.65 23.58-2.58 44.93-11.13 64.62-25.76 7.64-5.66 20.3-18.32 25.91-25.9a131 131 0 0 0 22.12-46.31c.55-2.23 1.52-6.68 2.12-9.87 1.02-5.42 1.12-7.74 1.32-32.9.2-25.8.15-27.17-.76-28.84a8.4 8.4 0 0 0-3.29-3.04c-2.18-1.16-2.48-1.21-4.76-.6-2.68.75-4.35 2.02-5.16 4.04-.3.86-.6 10.93-.7 26.67-.26 25.96-.36 27.79-2.59 37.96-1.62 7.49-4.8 16.5-8.8 25.05-2.43 5.16-7.5 13.26-12.1 19.43-4.8 6.38-15.03 16.6-21.56 21.51-15.38 11.49-30 18.12-49.19 22.17-6.27 1.31-7.29 1.36-20.5 1.36-11.28 0-14.77-.15-18.47-.9-10.22-1.98-17.76-4.2-25.55-7.45-7.7-3.24-18.17-9.3-25.66-14.93-5.06-3.84-14.02-12.45-18.57-17.91a144 144 0 0 1-13.72-20.45c-4.8-9.06-8.9-20.64-11.08-31.68-1.47-7.28-1.82-14.42-1.82-36.89 0-20.5-.1-22.72-.91-24.3a9 9 0 0 0-2.18-2.72c-1.87-1.37-5.37-1.57-7.54-.51" clip-rule="evenodd"/>
</svg>
