<svg xmlns="http://www.w3.org/2000/svg" fill="currentColor" viewBox="-77.229 -81.821 666.459 666.459">
    <path fill-rule="evenodd" d="M251.55.76c-.92.4-5.49 3-10.16 5.74-4.68 2.8-12.5 7.42-17.38 10.26a15257 15257 0 0 0-99.81 59.7 905 905 0 0 1-9.91 5.99c-2.39 1.42-11.07 6.65-19.3 11.68l-25.15 15.34c-5.59 3.4-12.9 7.87-16.3 9.96C46.73 123.59 20 140.05 13.56 144c-2.64 1.68-4.47 3.2-5.18 4.32-.87 1.52-1.02 2.64-1.02 7.62 0 4.62.2 6.2.91 7.47a9 9 0 0 0 5.64 4.67c1.53.46 66.24.56 242.87.46 235.65-.15 240.83-.15 242.71-1.12a10 10 0 0 0 3.3-3c1.33-1.98 1.38-2.38 1.38-8.53 0-5.74-.1-6.65-1.07-7.92-.97-1.38-4.98-4.02-15.95-10.77l-14.48-8.94c-12.34-7.67-48.46-29.82-63.5-39.02-12.6-7.67-16.91-10.3-36.06-21.74-10.31-6.2-21.9-13.16-25.66-15.44a4037 4037 0 0 0-39.52-23.42c-11.43-6.7-26.67-15.7-35.86-21.18a275 275 0 0 0-9.8-5.54c-3-1.52-4.32-1.93-6.4-1.93-1.48.05-3.4.36-4.32.76m9.9 13.92L289.8 31.5c60.35 35.77 97.63 58.12 126.74 75.95a7461.18 7461.18 0 0 1 54.1 33.27c4.22 2.6 10.26 6.3 13.46 8.23 7.06 4.27 9.15 5.84 9.15 6.76 0 .4-.51.86-1.12 1.01-.66.16-107.34.2-237.13.16-235.96-.16-235.96-.16-236.1-1.22-.16-.92 1.36-2.04 9.13-6.81 15.4-9.55 19.05-11.79 28.86-17.78a716 716 0 0 0 11.33-6.96c11.63-7.42 105.6-63.95 159.86-96.16l23.11-13.77c2.19-1.37 4.32-2.49 4.67-2.49.31 0 2.85 1.32 5.6 3M44.6 182.16c-2.18 1.17-2.94 3.2-2.94 7.72 0 4.37.56 5.64 3.05 6.86 1.22.61 1.27.81 1.32 6.3.05 4.88.25 6.05 1.27 8.13a9.7 9.7 0 0 0 3.4 3.86c2.13 1.42 2.13 1.42 2.13 84.73 0 83.26 0 83.26-1.98 84.48a15 15 0 0 0-3.15 2.94c-1.06 1.48-1.27 2.44-1.47 7.78-.15 3.35-.46 6.4-.66 6.7-.25.36-.71.66-1.12.66-.35 0-1.17.61-1.72 1.32-.87 1.12-1.07 2.09-1.07 5.13 0 4.02.81 6.35 2.49 7.27 1.42.7 77.82.7 79.45-.05 2.03-.92 2.9-3 2.9-7.06 0-1.98-.26-4.07-.57-4.68a5.3 5.3 0 0 0-2.28-1.72c-1.73-.72-1.73-.72-1.73-6.4 0-4.78-.15-6.05-1.12-7.93a8.3 8.3 0 0 0-3.25-3.6c-2.18-1.33-2.18-1.33-2.23-84.89 0-83.56 0-83.56 1.82-84.58a10.5 10.5 0 0 0 3.2-3c1.22-1.83 1.33-2.59 1.58-8.38.25-6.2.3-6.4 1.52-7 2.5-1.23 3.05-2.5 3.05-6.87 0-2.59-.25-4.52-.76-5.48-1.63-3.15-.05-3.05-41.76-3.05-32.6.05-38.2.15-39.37.81m66.8 11.23c.16.25.1 2.8-.1 5.74-.3 5.33-.3 5.33-27.07 5.49-26.82.1-26.82.1-27.03-1.02a51 51 0 0 1-.45-5.59c-.1-2.84 0-4.52.35-4.67.97-.4 54.1-.3 54.3.05m-8.02 106.32v83.06H84.12c-19.3 0-19.3 0-19.71-1.53-.2-.86-.3-38.2-.2-83.05.1-44.86.2-81.59.25-81.69.05-.05 8.78-.05 19.5 0l19.4.15zm7.41 95.45c.2.15.46 2.49.51 5.13.2 4.83.2 4.83-27.23 4.83s-27.43 0-27.27-4.32c.1-2.39.3-4.73.4-5.18.26-.82 1.73-.92 19.66-1.07 20.68-.15 33.43.1 33.93.61m48.42-213.3a6 6 0 0 0-2.19 1.83c-.91 1.16-1.07 2.03-1.07 6 0 4 .16 4.82 1.02 5.78.61.61 1.27 1.12 1.52 1.12.26 0 .77.35 1.17.76.56.5.76 2.19.82 6.45.1 4.83.25 6.05 1.21 7.72.61 1.12 2.09 2.7 3.3 3.5 2.14 1.43 2.14 1.43 2.14 84.69s0 83.26-2.13 84.68c-1.12.76-2.6 2.08-3.15 2.85-.92 1.27-1.07 2.28-1.22 8.02-.2 6.55-.2 6.55-1.88 7.27a5.4 5.4 0 0 0-2.24 1.72c-.3.61-.56 2.9-.56 5.18 0 3.92.1 4.22 1.48 5.64 1.47 1.48 1.47 1.48 40.64 1.48 39.16 0 39.16 0 40.79-1.48 1.57-1.42 1.67-1.72 1.83-5.53.15-2.5-.05-4.47-.41-5.19a5.4 5.4 0 0 0-2.29-1.82c-1.67-.66-1.67-.66-1.82-6.96-.2-6-.26-6.35-1.68-8.18a13 13 0 0 0-3.1-2.9c-1.47-.86-1.68-1.27-1.88-3.9-.15-1.58-.3-39.07-.36-83.32-.05-75.79 0-80.41.87-81.12.46-.46 1.62-1.37 2.54-2.14 2.7-2.13 3.3-3.8 3.6-10.51.31-6.05.31-6.05 1.83-6.91 2.34-1.27 2.85-2.74 2.7-7.47-.16-3.96-.26-4.27-1.83-5.84-1.63-1.68-1.63-1.68-40.13-1.78-21.14-.05-38.97.1-39.52.36m66.13 16.6c-.15 3-.5 5.65-.7 5.85-.26.25-12.3.36-26.83.3-26.36-.15-26.36-.15-26.77-5.13-.25-2.74-.3-5.28-.15-5.68.25-.66 4.11-.77 27.53-.77 27.28 0 27.28 0 26.92 5.44m-7.67 101.25v83.06l-19.25.15c-15.09.1-19.35-.05-19.7-.51-.47-.76-.57-163.98-.1-165.2.3-.76 2.33-.8 19.7-.7l19.35.14zm7.12 95.5c.2.3.45 2.54.6 5.08.31 4.47.31 4.52-.9 4.83-.67.15-13.01.2-27.39.15-26.16-.15-26.16-.15-26-4.98.1-2.64.3-4.98.45-5.23.36-.56 52.88-.46 53.24.15m50.08-213.2a8 8 0 0 0-2.28 2.03c-.92 1.22-1.07 2.19-1.07 5.95 0 3.6.15 4.67.91 5.48.51.56 1.48 1.17 2.19 1.32 1.17.3 1.22.46 1.22 5.8.05 7.61 1.01 9.95 5.23 12.6 1.88 1.21 1.88 1.21 1.88 83.96 0 45.52-.15 83.1-.3 83.56-.16.46-1.17 1.27-2.19 1.83a11 11 0 0 0-3.05 2.95c-1.11 1.68-1.27 2.54-1.47 8.13-.2 6.25-.2 6.25-1.93 6.96a4.2 4.2 0 0 0-2.24 2.03c-.66 1.78-.66 6.8.06 8.79 1.16 3.3-1.07 3.15 42.1 3.15 39.22 0 39.22 0 40.7-1.53 1.47-1.47 1.52-1.57 1.37-6.2-.15-4.72-.15-4.72-1.98-5.89s-1.83-1.17-2.19-7.31c-.2-3.5-.66-6.7-1.01-7.47-.77-1.47-2.34-2.95-4.47-4.27-1.43-.86-1.43-.86-1.43-84.17 0-83.26 0-83.26 2.14-84.68a16 16 0 0 0 3.1-2.8c1.27-1.67 1.83-4.92 1.83-10.71.05-2.44.25-4.42.5-4.42.26 0 1.17-.61 2.03-1.32 1.53-1.27 1.58-1.43 1.58-5.54 0-2.34-.2-4.83-.5-5.54a5.7 5.7 0 0 0-2.14-2.33c-1.63-.97-2.6-1.02-39.52-1.02-29 0-38.15.15-39.07.66m66.3 16.46c-.16 3-.51 5.64-.77 5.9-.56.55-52.47.45-52.98-.06-.25-.25-.56-2.84-.71-5.84-.36-5.44-.36-5.44 27.23-5.44 27.58 0 27.58 0 27.23 5.44m-7.68 101.24v83.06h-39.11l-.15-82.55c-.05-45.42 0-82.85.15-83.21.15-.5 4.37-.6 19.66-.5l19.45.14zm7.37 95.35c.15.1.25 2.44.25 5.13 0 4.93 0 4.93-27.17 4.93s-27.18 0-27.33-2.6c-.1-1.42.05-3.7.25-5.07.4-2.5.4-2.5 19.2-2.8 18.54-.3 34.3-.1 34.8.4m47.9-212.95a5.4 5.4 0 0 0-2.38 2.24c-.97 1.88-1.07 8.38-.16 10.16.3.7 1.32 1.62 2.14 2.08 1.52.86 1.52.86 1.83 6.9.15 3.31.5 6.61.8 7.32.72 1.63 3.1 4.07 4.63 4.63 1.12.45 1.12.45 1.12 84.22s0 83.77-1.47 84.37a9 9 0 0 0-2.54 1.68c-1.99 2.19-2.6 4.57-2.6 10.52 0 5.58 0 5.58-1.62 6.24-2.49 1.02-3.1 2.65-2.85 7.22.16 3.66.3 4.01 1.83 5.38 1.63 1.48 1.63 1.48 40.8 1.48s39.16 0 40.63-1.48c1.43-1.42 1.48-1.67 1.48-6.1 0-4.87-.36-5.73-2.9-6.7-1.12-.4-1.17-.71-1.17-4.88-.05-7.61-1.22-10.66-5.13-13.15-1.98-1.22-1.98-1.22-1.98-84.48 0-83.3 0-83.3 2.13-84.73 4.07-2.74 4.93-5.03 4.98-13.16 0-4.67 0-4.67 1.53-5.28a4.5 4.5 0 0 0 2.03-1.58c.3-.5.5-2.94.5-5.48 0-4.37-.04-4.68-1.47-6.25-1.47-1.68-1.47-1.68-40.03-1.78-32-.1-38.76 0-40.13.61m66.55 16.2c-.05 2.75-.2 5.29-.36 5.7-.25.6-4.57.7-26.92.7-22.5 0-26.67-.1-26.87-.7-.26-.61-.51-8.03-.4-10.37.04-.5 5.68-.6 27.37-.5 27.28.15 27.28.15 27.18 5.18m-7.37 100.38c.05 45.11 0 82.55-.15 83.21-.25 1.12-.25 1.12-19.7 1.02l-19.41-.15-.16-82.55c-.05-45.42 0-82.85.16-83.21.15-.5 4.36-.6 19.65-.5l19.46.14zm6.76 96.42c.2.2.5 2.44.71 5.03.36 4.62.36 4.67-.81 4.98-.66.15-13 .2-27.38.15-26.16-.15-26.16-.15-26.32-4.22-.1-2.23 0-4.57.16-5.18.25-1.12.5-1.17 7-1.27 11.44-.25 46.33.15 46.64.5M26.66 427.5c-1.88.97-3.1 2.04-4.52 4.02-1.01 1.42-1.06 2.29-1.32 14.22-.25 12.7-.25 12.7-6.86 12.96-4.77.2-7.06.5-8.18 1.12-2.23 1.22-4.62 4.11-5.23 6.35-.76 2.69-.7 28.95 0 31.19a8.2 8.2 0 0 0 5.03 5.08c1.17.35 83 .45 251.55.35 249.78-.15 249.78-.15 251.2-1.22.76-.6 1.88-1.83 2.44-2.8.97-1.57 1.02-2.79 1.17-16.1.15-12.03.05-14.78-.66-16.8a11.6 11.6 0 0 0-5.34-6.2c-.8-.41-3.86-.77-8.12-.97-6.86-.26-6.86-.26-7.11-12.96-.2-10.51-.41-12.95-1.07-14.22-1.02-1.83-2.19-2.9-4.37-4.01-1.47-.76-20.42-.81-229.35-.81-205.53 0-227.89.1-229.26.8m452.26 11.23c.25.51.4 2.19.4 3.71-.04 1.53-.1 5.84-.2 9.55-.1 6.7-.1 6.7-223.2 6.6-223.16-.15-223.16-.15-223.31-9.75-.05-6.24.05-9.8.4-10.2.46-.57 42.47-.67 223-.72 211.99-.05 222.5 0 222.91.81m21.34 42.17c.1 10.3.1 10.3-244.24 10.3s-244.34 0-244.34-10.4c0-10.42 0-10.42 244.24-10.32 244.18.16 244.18.16 244.34 10.42" clip-rule="evenodd"/>
</svg>
