<svg xmlns="http://www.w3.org/2000/svg" width="512" height="338" fill="currentColor" viewBox="0 0 512 338">
    <path fill-rule="evenodd" d="M124.6.63a21 21 0 0 0-9.35 5.57c-2.39 2.58-12.73 18.7-18.57 28.84-4.77 8.5-4.77 8.5-7.22 5.84-1.33-1.46-4.18-3.38-6.24-4.38-8.68-3.98-19.56-1-23.94 6.63-.8 1.53-2.91 6.97-4.57 12.14-5.77 17.7-9.15 34.68-10.35 50.93-.33 5.1-.66 20.16-.66 33.48 0 26.33-.66 34.49-3.71 48.35-2.32 10.4-5.5 19.3-10.81 30.3-5.64 11.6-12.54 22.75-25 40.38-1.53 2.2-3.18 5.44-3.58 7.17a24 24 0 0 0-.53 6.96c.53 7.43.93 7.82 31.16 36.14 15.32 14.26 28.92 26.52 30.18 27.19 5.43 2.85 14.39 2.39 18.96-.93 2.19-1.6 7.03-6.83 22.61-24.47 4.65-5.3 9.75-10.74 11.21-12.13 4.7-4.32 11-7.5 22.35-11.41 6.03-2.06 13.8-4.97 17.24-6.43 7.5-3.12 17.97-8.62 26.2-13.73 18.83-11.6 37.86-27.65 43.96-37.07 4.1-6.3 15.85-34.95 17.37-42.37.6-2.79.53-4.25-.26-7.56a21.7 21.7 0 0 0-5.24-9.68c-1.33-1.46-1.33-1.46.86-3.98a24 24 0 0 0 3.38-5.1c2.12-4.85 2.19-8.63.33-17.78-.93-4.64-2.32-10.15-3.11-12.27-1.2-3.25-2.52-4.97-8.82-11.14-4.11-4.04-11.54-11-16.58-15.52-10.61-9.48-15.12-12-22.22-12.53-2.38-.13-6.1.07-8.15.47-2.2.46-9.35 3.58-17.11 7.42a464 464 0 0 1-13.73 6.57c-.66 0 .67-4.51 3.19-10.55a81 81 0 0 1 6.16-11.6c2.39-3.58 9.68-11.67 21.75-24.14 20.7-21.48 21.95-23.2 22.28-31.23.2-3.91-.06-5.9-1.19-8.89a20.7 20.7 0 0 0-11.6-11.67c-3.19-1.26-4.91-1.46-8.76-1.26-3.38.27-5.77.86-8.29 2.06-1.92 1-8.29 5.77-14.12 10.67s-10.68 8.82-10.81 8.76c-.07-.14.2-1.73.66-3.65.6-2.52.6-4.38 0-7.36-.86-4.84-2.19-7.7-5.17-11.14-4.38-5.17-13.46-7.83-20.16-5.9m9.15 11.34c1 .53 2.52 1.72 3.45 2.72 1.4 1.52 1.66 2.38 1.66 5.83-.07 3.98-.33 4.64-7.96 18.7-20.89 38.8-26.92 56.17-27.98 80.9-.33 8.89-.27 9.35 1.06 11.08 1.2 1.45 2.05 1.85 4.11 1.85 3.12 0 5.04-1.66 5.5-4.77.2-1.2.47-5.77.67-10.15.33-9.55 2.19-19.1 5.77-29.84 7.62-22.94 20.82-38.66 55.9-66.9 2.58-2.13 3.91-2.66 6.7-2.93 2.32-.2 4.1.07 5.5.8 4.18 2.12 6.3 7.5 4.77 12.07-.6 1.79-4.97 6.7-16.11 18.1-21.68 22.22-25.4 26.8-30.97 37.67-4.64 8.95-8.62 23.14-8.62 30.37 0 2.32.33 3.18 1.73 4.24.99.8 2.52 1.4 3.38 1.4s7.76-3.19 15.32-7.17c7.55-3.9 16.44-8.35 19.69-9.94 4.9-2.32 6.7-2.79 9.95-2.79q3.89.02 6.7 1.33c3.24 1.59 30.63 26.13 32.16 28.91 1.32 2.32 4.57 16.51 4.57 19.96 0 6.23-6.63 11.07-12.86 9.42a13 13 0 0 1-4.71-2.79c-1.2-1.2-3.12-4.57-4.38-7.69-2.12-5.3-2.52-5.84-7.5-9.75-8.88-7.03-12.06-9.02-15.3-9.35-2.6-.33-3.86.07-9.76 2.99-15.71 7.75-27.58 17.63-32.49 27.05-4.24 8.03-5.5 16.65-3.58 23.94 1.66 6.3 4.18 10.74 8.55 15.05 7.03 7.1 14.99 10.15 25 9.49 3.12-.2 7.36-.93 9.49-1.73 5.57-1.99 12.46-6.83 16.11-11.27 1.72-2.19 4.97-7.23 7.23-11.27 2.19-3.98 4.77-8.1 5.63-9.09a11.15 11.15 0 0 1 13.33-2.25c3.25 1.72 5.24 4.77 5.24 8.28 0 1.86-2.05 7.76-6.63 19.1-3.65 9.02-7.63 17.97-8.82 19.9-4.57 7.16-23.74 23.27-39.19 32.95-7.76 4.91-19.3 11.01-26.72 14.2a344 344 0 0 1-15.26 5.7c-5.43 1.85-11.93 4.37-14.52 5.63-9.35 4.51-11.93 6.97-35.6 33.62-8.16 9.29-10.15 11.15-12.08 11.54-4.44.8-1.79 2.92-43.03-35.4-9.75-9.1-16.98-16.32-17.51-17.51s-.73-3.05-.53-4.18c.26-1.13 2.72-5.3 5.5-9.29 13.46-19.3 23.68-37.6 28.65-51.19A271 271 0 0 0 50 193.13c3.98-15.45 4.38-20.29 4.97-58.09.27-19.43.87-36.14 1.26-38.8 2.52-15.5 4.78-24.86 9.75-40.11 1.66-5.24 2.79-7.63 3.98-8.55a8.4 8.4 0 0 1 8.49-1.13c1.85.73 2.78 1.72 3.71 3.91 1.33 2.92 1.33 2.92-1.06 13.8-5.83 27.25-6.76 33.35-7.5 47.01-.26 5.64-.32 14.52-.2 19.76.27 9.15.34 9.48 1.93 10.74a5.3 5.3 0 0 0 7.1-.2c1.52-1.52 1.52-1.85 1.92-19.43.46-21.48 1.4-28.77 5.9-44.95 2.46-8.82 6.37-18.37 12.34-29.85 7.95-15.38 19.43-32.82 22.94-34.94a8.8 8.8 0 0 1 8.22-.33m58.23 137.33c3.44 2.78 6.23 5.37 6.23 5.77 0 1.59 4.77 10.34 6.63 12.13s1.86 1.8-.2 3.65c-1.2 1-3.45 4.18-5.04 7.03-7.43 13.26-11.14 17.5-17.97 20.69-2.65 1.26-5.1 1.79-9.02 1.99-4.77.26-5.83.07-9.48-1.53-5.04-2.25-10.08-7.49-11.6-12-1.46-4.38-1.33-10.68.33-15.18 2.98-7.96 9.88-14.6 23.27-22.35 4.84-2.85 9.22-5.1 9.75-5.17.46 0 3.71 2.25 7.1 4.97m142.17-42.18c-3.45 1.13-5.9 2.79-8.56 5.77-5.5 6.3-6.16 15.26-1.85 24.47 1.85 3.85 3.58 6.17 7.36 9.82 5.64 5.57 16.97 13.79 32.03 23.34 10.48 6.63 10.48 6.63 6.83 6.83-2 .13-13.66-.07-25.86-.46-12.2-.4-29.38-.93-38.13-1.13-15.26-.4-16.05-.33-19.63 1-5.24 1.98-9.35 5.83-12 11.2-1.93 3.91-2.2 4.97-2.13 9.75 0 3.25.47 6.23 1.13 7.76.53 1.32.86 2.58.6 2.78-.2.2-2 .4-4.05.4-2.72 0-4.77.53-7.69 1.92a22.4 22.4 0 0 0-10.88 10.68c-1.26 2.72-1.72 4.97-1.92 8.95-.2 4.31.07 6.1 1.26 9.28 1.92 5.11 6.77 10.08 11.94 12.2 3.71 1.6 3.71 1.6 1.99 4.65-1.53 2.72-1.73 3.78-1.73 9.68 0 5.7.2 7.03 1.6 9.61 2.12 4.12 6.36 8.43 10.27 10.42 2.39 1.19 5.1 1.85 10.02 2.32 6.76.73 6.76.73 5.43 4.1a23 23 0 0 0-1.32 8.03c0 3.72.33 5.5 1.85 8.82 2.26 5.04 6.9 9.55 11.48 11 2.32.8 12.46 1.6 37.93 3.06 37.2 2.12 50.73 2.39 64.98 1.33 24.94-1.93 41.71-6.37 57.83-15.39 8.88-4.97 12-5.83 23.07-6.43 7.96-.4 10.08-.73 12.34-1.92 3.71-1.93 7.36-6.3 8.55-10.35 1.26-4.18 5.7-69.96 5.04-73.74a19 19 0 0 0-5.83-10.28c-1.53-1.39-5.57-3.51-10.48-5.5-9.35-3.85-13.66-6.23-17.17-9.55-1.4-1.4-4.85-5.77-7.7-9.81a240 240 0 0 0-10.14-12.93c-8.16-9.35-20.16-17.64-36.6-25.27-3.65-1.66-16.06-7.36-27.53-12.67a7166 7166 0 0 1-36.47-16.77c-14.12-6.5-15.98-7.16-19.9-7.36-2.38-.07-5.03.06-5.96.4m18.77 15.92c6.3 2.85 20.22 9.35 30.96 14.32s22.88 10.55 26.86 12.4c11.8 5.44 21.55 10.48 26.2 13.46 2.38 1.53 6.62 4.78 9.41 7.17 5.44 4.77 10.41 10.6 17.7 20.95 2.6 3.65 6.24 7.9 8.16 9.55 4.31 3.65 11.34 7.5 20.03 10.74 5.17 2 6.76 2.92 7.82 4.58 1.13 1.79 1.26 2.85.93 7.7-.2 3.1-1.13 18.03-2.05 33.15-.93 15.12-2 28.64-2.4 30.04a5.8 5.8 0 0 1-2.78 3.78c-1.79 1.12-3.38 1.32-9.61 1.32-4.38 0-9.35.4-12.07 1.06-2.52.53-7.3 2.46-10.74 4.31-16.45 8.76-25.14 11.74-40.98 14.13-17.51 2.65-33.89 2.98-65 1.4-48.66-2.6-48.6-2.6-51.18-4.19-2.86-1.79-4.51-4.97-4.51-8.88 0-3.45 1.79-6.63 4.77-8.56 2.06-1.26 2.85-1.32 12.14-1 5.5.27 20.82 1.07 34.08 1.8 17.7 1 24.6 1.2 25.73.66 2.12-1 3.71-4.77 2.85-6.96a6 6 0 0 0-2.12-2.65c-1.2-.73-9.09-1.33-34.35-2.72-63.26-3.38-61.2-3.25-63.73-4.71a12.8 12.8 0 0 1-5.63-8.02c-.93-4.98 2.91-11.48 7.62-12.87 1.86-.53 6.04-.53 16.05 0a5705 5705 0 0 0 72.41 3.52c7.17.2 7.23.2 8.82-1.66.87-1 1.6-2.59 1.6-3.52 0-2.32-3.39-5.57-5.77-5.57-2.52 0-39.66-1.85-46.3-2.32-2.9-.2-17.23-.93-31.82-1.66s-27.45-1.65-28.65-2.05c-2.78-.93-6.63-5.24-7.23-8.16a12.2 12.2 0 0 1 5.64-12.6c1.92-1.12 3.32-1.32 8.62-1.19 5.97.13 58.82 2.65 85.28 4.11 17.37.93 17.37.93 19.23-1 3.05-2.98 1.53-8.42-2.52-9.21-.8-.2-20.1-1.26-42.9-2.39-37.67-1.92-41.71-2.19-44.23-3.45-3.92-1.79-5.7-4.57-6.04-9.21-.2-3.05 0-4.31 1.2-6.44 1.45-2.65 3.9-4.44 7.16-5.43 1-.27 11.8-.07 24 .46s32.83 1 45.76 1.06c21.42.13 23.74 0 25.66-1.06a9 9 0 0 0 3.18-3.12c1.93-3.71.8-8.88-2.52-11.2-.8-.6-7.42-4.84-14.72-9.42-17.04-10.74-25.13-16.38-31.76-22.21-5.44-4.71-8.42-9.02-9.35-13.33-1-4.84 2.85-10.15 7.36-10.15 1.52 0 6.43 1.86 13.73 5.24" clip-rule="evenodd"/>
</svg>
