<svg xmlns="http://www.w3.org/2000/svg" fill="currentColor" viewBox="-107.618 0 512.01 512.01"><path fill-rule="evenodd" d="M22.44.4c0 .25 1.75 4.82 3.91 10.19 2.2 5.37 5.37 13.34 7.12 17.76 3.22 8.18 9.29 23.68 18.72 47.42l10.54 26.59c2.9 7.33 9.68 24.34 15.05 37.88 5.37 13.5 10.84 27.35 12.2 30.71 2.4 6.17 2.4 6.17 9.08 6.17 4.06 0 6.67-.2 6.67-.5 0-.7-2.96-8.43-11.74-30.5-16-40.3-17.87-44.96-25.24-63.83a396 396 0 0 0-4.47-11.14 84 84 0 0 1-2.2-5.72c0-.2-.56-1.6-1.26-3.16-.65-1.56-3.81-9.48-7.02-17.61-3.22-8.13-8.43-21.53-11.7-29.7C36.23 0 36.23 0 29.36 0c-3.81 0-6.92.2-6.92.4m22.22.2c.15.35 1.4 3.56 2.81 7.18 1.4 3.56 3.01 7.52 3.57 8.78.5 1.25 2 4.97 3.3 8.28 2.82 7.32 8.24 21.07 17.92 45.4 4.02 10.1 9.33 23.49 11.8 29.86 2.5 6.32 8.47 21.48 13.29 33.62a5557 5557 0 0 1 12.34 31.31c2.01 5.07 3.97 9.88 4.37 10.69.75 1.4.75 1.4 32.56 1.4 18.07 0 31.86-.2 31.86-.45 0-.6-1.8-5.37-8.22-21.62l-9.24-23.34c-1.9-4.96-5.27-13.44-7.37-18.81l-6.12-15.56c-1.26-3.16-3.67-9.38-5.42-13.8-1.76-4.41-7.08-17.96-11.8-30.1-12.94-33.17-14.45-36.98-17.76-45.41C109.45.25 109.45.25 76.93.1c-26-.1-32.47 0-32.27.5m73.11-.4c0 .2 4.72 12.3 11.3 28.9.94 2.36 3.9 9.89 6.56 16.81 2.66 6.88 5.52 14.1 6.28 16.06.75 1.9 2.55 6.67 4.06 10.53 1.5 3.87 4.82 12.35 7.38 18.82 8.28 20.97 12.09 30.66 15.85 40.14 2 5.12 4.52 11.44 5.52 14.05s3.76 9.64 6.12 15.56 4.72 11.99 5.27 13.4c.95 2.65.95 2.65 7.98 2.65 3.81 0 6.97-.15 6.97-.3 0-.65-7.52-20.02-20.07-51.63-13.8-34.82-21.47-54.24-23.33-58.96-1-2.6-3.11-7.93-4.62-11.79-1.5-3.86-3.96-10.08-5.41-13.8-1.46-3.71-4.47-11.54-6.78-17.3-2.26-5.83-5.22-13.4-6.62-16.97C131.77 0 131.77 0 124.75 0c-3.82 0-6.98.1-6.98.2m52.74 6.93c-3.32 8.78-6.28 16.6-11.3 30-3.86 10.24-3.86 10.24-.5 18.72 2.61 6.47 3.47 8.28 3.87 7.62.25-.45 1.9-4.71 3.66-9.43 6.07-16.06 7.63-20.17 8.18-21.43.25-.7 3.16-8.12 6.37-16.55a852 852 0 0 1 6.07-15.7c.1-.2-2.9-.36-6.72-.36-6.92 0-6.92 0-9.63 7.13m22.88-2.51c-.96 2.56-3.16 8.28-4.87 12.7-1.66 4.4-4.22 10.93-5.57 14.54-1.4 3.56-3.91 10.14-5.57 14.55a962 962 0 0 1-8.43 21.98c-2.5 6.42-2.5 6.42 1.3 15.8 2.11 5.17 4.77 11.85 5.98 14.9l10.03 25.35c4.37 10.89 8.68 21.82 9.64 24.28.9 2.46 1.75 4.57 1.85 4.72.2.15 1.16-2.26 6.32-15.7 8.03-21.03 31.82-82.7 32.87-85.3l4.47-11.55 9.28-24.28A442 442 0 0 0 256.76.4c0-.2-13.85-.4-30.76-.4-30.8 0-30.8 0-32.61 4.62M265.14.6c-.1.35-3.11 8.08-6.57 17.21-3.52 9.08-6.68 17.36-7.08 18.32a625 625 0 0 0-6.52 17.06c-.65 1.8-2.66 7.07-4.52 11.79l-5.52 14.3c-1.2 3.16-3.46 9.03-5.01 13.04a712 712 0 0 0-4.02 10.54c-.65 1.8-2.66 7.08-4.51 11.8-9.14 23.33-18.82 48.51-18.82 49.02 0 .25 3.01.4 6.67.4 6.68 0 6.68 0 7.98-3.42.75-1.85 3.96-10.13 7.18-18.41 3.26-8.28 6.67-17.11 7.62-19.57l9.94-25.59c2.36-5.97 8.23-21.22 11.09-28.6 1.55-4.16 4.11-10.69 5.57-14.55 4.61-12 8.93-23.18 12.84-33.37 2.06-5.37 4.67-12.14 5.82-15a116 116 0 0 0 2.06-5.42c0-.1-3.16-.15-6.98-.15-5.11 0-7.02.15-7.22.6m-61.42 169.1c.2.65.66 2.05 1.1 3.06.76 1.85.81 1.85 3.72 1.85 4.16 0 4.67.66 4.47 6.33-.15 4.46-.15 4.46-26.6 4.61-26.5.1-26.5.1-26.5 3.11s0 3.01 11.95 3.11c11.5.15 11.84.2 10.39 1-1.46.81-.8.86 15.8.91 15.5 0 17.51-.1 19.07-.9 1-.5 2.1-1.6 2.6-2.61.76-1.46.91-3.16.91-9.89 0-8.17 0-8.17-1.45-9.78-1.46-1.66-1.46-1.66-8.63-1.8-7.13-.2-7.13-.2-6.83 1m-122.78.9c-1.3 1.56-1.3 1.66-1.3 9.88 0 6.98.15 8.53.9 9.79.45.8 1.7 1.9 2.71 2.46 1.76.9 3.11.95 21.32.9 16.96-.05 19.12-.15 16.56-.7-1.6-.35-3.06-.75-3.2-.96-.16-.15 4.66-.3 10.78-.3 11.14 0 11.14 0 11.14-3 0-3.02 0-3.02-26.2-3.12-26.24-.15-26.24-.15-26.49-5.17-.2-3.8-.6-5.72-1.55-8.02-1.5-3.67-2.71-4.07-4.67-1.76m63.32 18.92c0 2.15-.1 6.97-.2 10.68-.05 3.72.1 7.63.35 8.63.6 2.26 2.41 3.42 5.52 3.42 1.66 0 2.36-.3 3.77-1.71 1.7-1.7 1.7-1.7 1.7-13.3 0-11.59 0-11.59-5.52-11.59s-5.52 0-5.62 3.87m-6.72 12.6c-4.67 3.4-7.22 7.97-7.22 12.94 0 1.6-.2 2.2-.86 2.4-.5.16-3.16.66-5.92 1.1a156 156 0 0 0-31.61 8.89 146 146 0 0 0-46.86 30.2c-10.9 10.5-21.88 25.3-28.55 38.64-4.52 9.03-6.63 14.05-9.14 21.83A144 144 0 0 0 .26 354.4c-1.16 17 1.6 37.53 7.47 55.29a161 161 0 0 0 16.91 35.12c5.82 8.89 10.7 14.76 19.57 23.59a143 143 0 0 0 37.74 27.4 153 153 0 0 0 38.83 13.49 135 135 0 0 0 28.6 2.71c17.41-.05 32.77-2.86 49.63-9.08a153 153 0 0 0 42.25-23.79c5.97-4.71 17.9-16.5 22.32-22.02a139 139 0 0 0 17.01-26.55c7.78-15.55 13.15-32.96 15.06-49.02 1.65-13.95 1.5-26.2-.56-40.34-1-6.62-3.5-16.4-6.37-24.84a125 125 0 0 0-5.77-14.55c-4.71-10.59-13.04-23.78-20.87-33.12-15.2-18.16-33.12-31.26-56-41.04a152 152 0 0 0-32.86-9.38c-3.57-.55-3.57-.55-4.12-4.02-.6-4.06-2-7.02-4.56-9.68-1.61-1.7-4.02-3.36-4.87-3.36-.15 0-.25 1.25-.25 2.76 0 2.26.25 3.1 1.6 4.96a9.4 9.4 0 0 1 1.8 4.97c.21 2.66.21 2.66-1.95 3.56-1.7.7-4.06 1-9.83 1.16-7.08.25-7.78.2-9.69-.8a10 10 0 0 0-3.5-1.06c-1.41 0-1.51-.1-1.51-2 0-2.36 1.1-5.27 2.56-6.83.8-.9.95-1.6.85-4.16-.15-3.16-.15-3.16-2.21-1.66m30.4 22.17a148 148 0 0 1 52.44 18.06 118 118 0 0 1 16.81 11.5 141.5 141.5 0 0 1 37.73 46.86c7.48 15 12.05 29.95 14.25 46.51 1.06 7.98 1.16 23.68.2 31.36a155 155 0 0 1-8.22 34.02 105 105 0 0 1-6.18 14.15c-3.6 7.23-4.61 8.88-9.28 15.96-14.25 21.37-35.32 39.08-59.6 50.02-7.33 3.31-12 5.02-19.68 7.18a125 125 0 0 1-23.68 4.61c-17.31 1.76-34.77.3-50.98-4.31a146 146 0 0 1-44.26-20.93 143 143 0 0 1-37.13-38.23A146 146 0 0 1 9.2 388.62c-.65-3.62-1.5-9.14-1.86-12.3-.8-7.12-.8-20.62.05-27.34a159 159 0 0 1 9.89-38.39 154 154 0 0 1 16.6-29.55c4.12-5.62 9.9-12.2 15.76-17.91 6.32-6.18 10.14-9.44 16.71-14.05 6.17-4.37 10.69-6.98 18.87-11.04 15.75-7.83 34.22-12.95 52.98-14.76 7.13-.7 21.63-.2 29.76 1m-25.58.85c-1.5.1-6.58.65-11.3 1.2a140 140 0 0 0-46.4 14.2 134 134 0 0 0-39.24 29.66 157 157 0 0 0-13.55 17.31 166 166 0 0 0-9.79 17.56c-5.62 12-8.93 22.73-11.54 36.88-1.2 6.93-1.35 8.58-1.35 20.57 0 11.9.1 13.8 1.35 21.28A147 147 0 0 0 21 419.41a137 137 0 0 0 28.05 41.4c9.88 10.19 22.63 19.67 35.72 26.64 13 6.88 29.1 12.1 44.81 14.55 6.98 1.1 23.13 1.51 30.86.8 13.1-1.2 29.15-5.26 42-10.58 9.93-4.16 24.08-12.6 33.27-19.87 5.97-4.72 18.56-17.56 23.13-23.53a135 135 0 0 0 17.46-29.76 148 148 0 0 0 10.64-38.23c1.15-8.98 1.25-24.34.25-32.62a142.8 142.8 0 0 0-38.44-80.98 136.5 136.5 0 0 0-55.95-35.02c-3.3-1.06-8.17-2.51-10.78-3.16-6.58-1.66-16.71-3.17-25.24-3.77-6.93-.45-8.63-.5-14.4-.15m14.8 3.66c8.98.66 16.16 1.76 24.54 3.82 7.57 1.85 8.53 2.16 17.36 5.57 19.21 7.37 37.08 19.62 50.47 34.62 15.86 17.86 25.8 36.78 31.82 60.81 1.85 7.43 3.06 16.96 3.36 27.15.2 7.52.1 11.39-.55 16.8-2.31 18.87-8.48 37.84-17.47 53.55-6.22 10.83-12.44 18.91-22.22 28.75-15.7 15.85-35.18 27.5-57.3 34.32a147 147 0 0 1-25.4 5.12c-7.92.7-27.44.3-33.21-.76-14.55-2.6-28.55-7.12-40.3-13.04a137 137 0 0 1-28.94-19.42 135 135 0 0 1-32.07-41.1 142 142 0 0 1-14.85-53.43c-1.96-25.84 5.22-54.7 19.47-77.73a128 128 0 0 1 19.12-24.58 131 131 0 0 1 18.41-15.7 129 129 0 0 1 29.05-15.46 115 115 0 0 1 18.72-5.72 143 143 0 0 1 22.53-3.52c7.78-.55 10.13-.6 17.46-.05m-10.69 7.18c-.75.75-1.1 1.8-1.1 3.06 0 3.51 3.61 5.47 6.42 3.51 1.66-1.15 2.26-3 1.56-5.07-.6-1.95-1.71-2.65-4.12-2.65-1.1 0-2.06.4-2.76 1.15m-21.93 2.1c-2.4 2.37-1.15 6.18 2.36 7.03 1.4.35 3.26-.4 4.27-1.7.35-.46.65-1.56.65-2.46 0-2.31-1.86-4.12-4.26-4.12-1.26 0-2.21.4-3.02 1.26m44.16 0a3.9 3.9 0 0 0-1.25 3.02c0 1.25.4 2.2 1.25 3 .8.86 1.76 1.26 3.01 1.26 2.16 0 4.27-1.85 4.27-3.71s-.96-3.61-2.36-4.27c-1.9-.9-3.62-.65-4.92.7m-64.38 4.77c-.65.3-1.45 1.3-1.9 2.26-.6 1.5-.6 2 0 3.46a3.6 3.6 0 0 0 2.25 2.21c.86.3 1.96.4 2.46.25a5.8 5.8 0 0 0 3.16-3c.6-1.61-.4-4.07-2.1-4.93-1.6-.85-2.21-.9-3.87-.25m85.5 1.56c-1.4 1.66-1.6 2.96-.7 4.62.85 1.7 1.96 2.3 4.02 2.35 1.4 0 2.05-.3 2.86-1.3 2.35-2.96.5-7.23-3.17-7.23-1.3 0-2 .36-3 1.56m-51.38 5.02c-5.16.5-13.54 2.1-19.41 3.76-14.2 3.96-28.3 11.09-38.9 19.52a126 126 0 0 0-15.9 15.5c-10.63 12.7-19.57 30-23.48 45.61a113 113 0 0 0-3.41 27.2c0 12.94 1.6 23.03 5.77 35.88 2.2 6.82 4.61 12.54 7.78 18.56A109 109 0 0 0 70.8 442.3c9.03 8.99 16.8 14.56 28.85 20.58a108 108 0 0 0 32.01 10.28c3.61.56 7.93 1 9.53 1 2.46-.04 3.16-.24 4.57-1.45 1.66-1.45 1.66-1.45-3.26-1.75a109 109 0 0 1-47.07-14.35 107 107 0 0 1-36.02-33.77c-4.42-6.58-10.24-18.52-12.8-26.2a133 133 0 0 1-5.17-22.83c-.4-2.6-.65-8.73-.65-13.54.05-6.58.35-10.44 1.15-15.3 1.3-7.78 2.96-14.06 5.52-20.98A111 111 0 0 1 71.1 285.8a105 105 0 0 1 16.3-13.94c15.76-10.94 35.23-17.67 54.75-18.92 25.39-1.6 50.93 6.17 71.6 21.73a121 121 0 0 1 17.2 16.5A110 110 0 0 1 251 327.15c2.16 6.47 4.57 17.51 4.97 22.33 1.15 14.1.75 22.18-1.7 34.37-2.42 11.8-6.83 23.68-12.3 32.87-5.72 9.63-11.1 16.5-18.37 23.63-6.42 6.17-11.54 10.28-17.5 14-16.06 9.88-31.62 14.95-51.34 16.56-3.96.35-3.96.35-2.26 1.8 1.36 1.16 2.16 1.4 4.27 1.46 3.61 0 16.56-2.26 22.58-3.97a115 115 0 0 0 36.53-18.31c4.86-3.66 12.09-10.59 17.2-16.36 2.06-2.36 5.38-6.77 7.38-9.78a118 118 0 0 0 18.17-45.66c.7-3.97.85-7.88.85-18.57 0-11.9-.1-14.3-1.1-19.57a116 116 0 0 0-12.2-34.57 111.26 111.26 0 0 0-48.87-47.07c-17.71-8.78-39.29-12.79-58.86-10.88m-55.14 3.16c-1.15 1-1.4 1.6-1.35 3.36.05 1.66.4 2.4 1.4 3.31 2.4 2.06 5.37 1.3 6.62-1.65.6-1.51.6-1.96 0-3.47a4.5 4.5 0 0 0-4.31-2.76c-.5 0-1.56.56-2.36 1.2m126.3 1.05c-2.57 2.76-.7 7.28 3 7.28 2.46 0 4.02-1.66 4.02-4.22 0-3.86-4.47-5.82-7.03-3.06m-71.3 3.26c-9.64.9-22.49 4.32-32.22 8.58-6.07 2.61-16.2 8.78-21.68 13.1-2.45 2-6.72 5.82-9.38 8.53a103 103 0 0 0-18.97 26.5c-4.81 9.58-7.57 17.65-9.88 28.8-1.26 6.07-1.36 7.47-1.4 18.86 0 10.84.14 12.95 1.15 18.06 1.45 7.28 3.81 15.7 5.77 20.58.8 2.05 2.8 6.47 4.46 9.78a100 100 0 0 0 18.72 26.4c2.56 2.65 6.32 6.16 8.43 7.87 12.54 10.24 28.7 17.91 45.36 21.48 6.07 1.3 7.17 1.4 19.47 1.4 13.3.05 15.7-.15 24.58-2.26 9.54-2.2 20.53-6.72 29.36-12.04a102 102 0 0 0 32.66-31.26c7.03-10.49 12.7-23.43 15.4-35.17 2.57-10.94 3.32-26.75 1.86-38.24a106 106 0 0 0-6.22-24.33 97 97 0 0 0-9.18-18.37c-6.42-10.18-13.7-18.51-22.48-25.54a105 105 0 0 0-49.17-21.97c-5.62-.96-20.53-1.36-26.65-.76M157.2 272c25.69 2.52 49.27 15.96 64.02 36.64a110 110 0 0 1 10.5 19.26c2.55 6.17 4.7 14.75 5.71 22.83 1.6 12.3.35 26.75-3.26 38.29-.85 2.66-2.3 6.67-3.21 8.88-3.76 8.83-10.74 19.32-17.91 26.84-7.63 7.98-14.76 13.2-24.8 18.27a105 105 0 0 1-10.53 4.56c-6.42 2.26-14.5 3.87-22.38 4.57a65 65 0 0 1-13.24 0c-12.25-1.1-21.83-3.76-32.47-9.08-10.13-5.07-17.61-10.64-25.54-18.97a113 113 0 0 1-8.13-9.68c-1.85-2.61-4.91-7.83-6.82-11.6-6.22-12.39-9.43-24.28-9.93-37.27-.36-9.29.35-15.91 2.55-24.84 3.92-15.96 11.4-29.76 22.28-41.2 7.13-7.52 13.4-12.29 22.68-17.36 9.49-5.17 21.93-8.93 33.37-10.13 5.87-.6 10.94-.6 17.11 0m-8.53 11.5c-.4 1.05-5.42 15.4-8.33 23.83-1.3 3.86-3.91 11.44-5.77 16.81a281 281 0 0 0-3.61 10.94c-.2.8.2 1.85 1.25 3.26 8.63 12.04 15.8 22.78 15.6 23.38-.1.3-4.26-4.92-9.23-11.54-5.11-6.87-9.53-12.3-10.18-12.54-1.4-.55-56.8-.6-56.8-.1.05.25 3.56 3.1 7.88 6.42 4.36 3.31 14 10.74 21.47 16.56l15.26 11.79c1.6 1.25 1.6 1.25-.96 9.78-1.45 4.67-3 9.89-3.51 11.54-.45 1.66-2.36 8.08-4.27 14.3-4.76 15.96-6.37 21.63-6.17 21.83.1.1 2.81-1.7 6.02-3.96 3.22-2.21 11.2-7.68 17.72-12.1s14.55-9.88 17.91-12.19c6.07-4.16 6.07-4.16 8.13-2.7 1.15.8 4.61 3.15 7.73 5.26 3.06 2.16 8.02 5.52 11.03 7.53 16.06 10.99 25.74 17.46 26.4 17.7.55.21.55-.3-.25-2.9-.9-3.01-4.17-13.9-10.54-35.02-3.66-12.1-5.27-17.97-4.97-18.22a11289 11289 0 0 1 43.05-33.21c1.4-1.1 2.61-2.16 2.61-2.36s-13.04-.35-28.95-.4c-15.9 0-29.05-.1-29.15-.2s-3.01-8.28-6.48-18.22c-3.46-9.88-7.67-22.03-9.43-27s-3.31-8.67-3.46-8.27m1.96 10.13c.35 1.1 6.62 18.87 10.88 30.76 3.77 10.54 4.42 12.5 4.42 13.2 0 .8-15.6 24.58-16.16 24.63-.25.05-.4-15.65-.4-34.82 0-21.22.2-34.87.45-34.87s.66.5.8 1.1m-43.8 56.15c13.9 4.72 28.7 9.73 32.9 11.14 4.17 1.4 7.64 2.7 7.64 2.86s-2.56 1-5.62 1.9c-3.12.9-9.04 2.66-13.2 3.87-4.12 1.25-7.98 2.26-8.53 2.26-.9 0-7.33-4.82-22.83-17.01l-11.14-8.68a86 86 0 0 1-5.92-4.72c0-.1.3-.2.7-.2s12.1 3.86 26 8.58m92.87 5.77a1475 1475 0 0 0-19.57 15.35c-.9.86-1.5.96-3.11.7-1.1-.14-3.76-.85-5.92-1.5-4.22-1.3-12.7-3.76-17.31-5.07-2.96-.8-3.62-1.4-2-1.9l8.37-2.86c19.57-6.83 56.3-19.07 57.1-19.07.5 0-7.38 6.47-17.56 14.35m-51.73 25.34c-.25 14.9-.25 14.9-15.06 24.84a3510 3510 0 0 0-20.37 13.85c-3.06 2.15-5.62 3.66-5.72 3.4-.15-.44 2.16-3.7 23.99-33.81 16-22.03 17.1-23.48 17.3-23.28.06.1 0 6.82-.14 15m8.58-6.27a1638 1638 0 0 1 20.72 28.55c4.97 6.87 10.24 14.2 11.7 16.2s2.55 3.77 2.4 3.92c-.1.15-2.6-1.4-5.52-3.41a2113 2113 0 0 0-25.94-17.62 323 323 0 0 1-9.38-6.52c-.4-.45-.66-4.82-.76-15.05-.1-9.43 0-14.35.35-14.25.3.1 3.17 3.76 6.43 8.18m-85.8-112.75a17.7 17.7 0 0 0-6.18 7.98c-1 2.66-1.25 6.52-.55 8.38.4 1 .4 1 .75-.1.2-.55.7-1.36 1.16-1.7.7-.61.75-.51.45.95-.2.85-.2 1.6.05 1.6.85 0 4.67-4.06 5.77-6.17.8-1.6 1.1-3.31 1.3-7.28.16-3.16.06-5.11-.25-5.11-.3 0-1.4.65-2.5 1.45m153.49 3.56c.2 4.27.45 5.47 1.7 7.88a14 14 0 0 0 3.66 4.52c1.2.95 2.31 1.6 2.41 1.45.15-.1-.05-.7-.35-1.3-.8-1.56-.1-1.96 1-.6.96 1.15.96 1.15 1.26-.56.5-2.6-.55-7.27-2.26-9.93-1.4-2.1-6.27-6.47-7.27-6.47-.2 0-.3 2.25-.15 5.01M54.6 274.82a31 31 0 0 0-2.96 4.66c-1.06 2.11-1.4 3.67-1.56 6.68-.1 2.9.05 4.56.7 6.22.9 2.3.9 2.3 1.66.6.8-1.7.8-1.7 1.06.15.3 1.86.3 1.86 2.05-.2a16.5 16.5 0 0 0 3.51-9.73c0-2.41-1.45-8.08-2.45-9.64-.3-.5-.8-.2-2.01 1.26m184.8 1.75a27 27 0 0 0-.95 6.68c0 2.8.25 4.06 1.35 6.27.75 1.55 2.1 3.46 2.96 4.26 1.6 1.5 1.6 1.5 1.36.1-.3-1.6.4-2.3.85-.85.15.55.5 1 .7 1s.7-1.2 1.05-2.7c.9-3.82.46-8.49-1.2-11.7-1.3-2.6-4.06-6.17-4.77-6.17-.25 0-.8 1.4-1.35 3.11m-198.55 15.8a23 23 0 0 0-3.01 10.44c0 3.02.8 5.67 2.6 8.79 1.31 2.25 1.31 2.25 1.46.5.26-2.36.96-3.01 1.36-1.2.2.8.4 1.65.45 1.95.05.25.8-.85 1.6-2.5 1.26-2.62 1.46-3.57 1.46-7.28-.05-3.72-.25-4.67-1.6-7.53-.86-1.8-1.86-3.71-2.31-4.22-.7-.95-.76-.9-2 1.06m213.55-1.25c-.3.35-1.3 2.11-2.2 3.92-1.51 2.96-1.66 3.66-1.71 7.77 0 4.22.1 4.72 1.75 7.78 1.76 3.26 1.76 3.26 1.91 1.36.2-2.21 1.1-2.51 1.1-.35 0 .8.26 1.5.56 1.5.25 0 1.1-1.3 1.85-2.9 2.51-5.43 2.01-11.6-1.35-17.37-1.06-1.8-1.5-2.2-1.9-1.7M30.31 311.2c-2.3 5.47-2.35 11.5-.2 15.76 1.4 2.7 3.67 5.72 4.37 5.72.25 0 .5-.85.6-1.9.2-1.81.4-1.71 1.2.75.26.75.36.8.66.15.95-1.71 1.65-6.28 1.4-8.63-.4-3.22-2.66-7.98-5.32-11.1-2-2.4-2-2.4-2.7-.75m233.73 1a28 28 0 0 0-3.47 5.43c-1.3 2.7-1.55 3.81-1.5 6.77 0 3.61.9 7.78 1.65 7.78.25 0 .6-.86.8-1.86.3-1.55.4-1.75.86-1 .25.5.35 1.6.15 2.5-.3 1.61-.3 1.61 1.56-.4 1-1.1 2.4-3.26 3.1-4.76 1.06-2.16 1.31-3.56 1.36-6.52 0-2.31-.35-4.97-.95-6.93-.55-1.7-1.16-3.11-1.36-3.11s-1.2.95-2.2 2.1M23.09 333.03c-.2 1.05-.4 4.07-.4 6.67.05 3.97.25 5.12 1.2 7.03 1.76 3.36 2.86 4.77 5.12 6.57 2.06 1.66 2.06 1.66 1.7-1.1-.4-3.01.1-2.96 1.31.2.85 2.1.85 2.1 1.45-.85 1.26-5.98-.65-11.34-5.92-16.96-1.8-1.86-3.4-3.42-3.66-3.42-.2 0-.6.86-.8 1.86m246.46 1.5a29 29 0 0 0-4.41 6.18c-1.46 2.9-1.6 3.66-1.5 7.27 0 2.21.24 4.67.55 5.52.45 1.5.45 1.5 1.05-.6.3-1.15.85-2.26 1.15-2.46.4-.25.46.3.25 2-.35 2.42-.35 2.42 1.66.81 4.52-3.61 6.27-7.37 6.27-13.55 0-5.16-.55-8.02-1.5-8.02-.4 0-1.96 1.3-3.52 2.86M18.17 357.12c.55 4.61 1.3 7.22 2.86 10.03a18 18 0 0 0 8.18 7.38c1.35.7 2.56 1.15 2.66 1.05.1-.05-.2-1-.6-2-.45-1.06-.8-2.01-.8-2.21.04-.15.85.6 1.8 1.7 1.8 2 1.8 2 1.56-1.55a22 22 0 0 0-1.5-6.28c-1.56-3.56-5.88-7.57-10.15-9.53a22 22 0 0 0-3.8-1.45c-.41 0-.46.85-.2 2.86m256.3-1.2c-4.01 2.05-8.03 5.96-9.48 9.12-1.26 2.76-2 7.58-1.46 9.29.35 1.05.46.95 1.6-.96.66-1.1 1.41-2.05 1.72-2.05.6 0 .6.3-.36 2.05-.4.86-.65 1.66-.5 1.8.45.46 4.67-1.85 6.93-3.85q2.23-1.9 3.86-5.52a18 18 0 0 0 1.9-7.53c.26-3.21.16-4.01-.4-4.01-.4 0-2.1.75-3.8 1.65m-.4 22.32c-4.67 1.56-8.68 3.96-10.44 6.27-2 2.66-3.46 5.92-3.81 8.73-.2 1.46-.3 2.66-.2 2.66s.95-.9 1.96-2c2-2.21 3.26-2.71 2-.76-.45.7-1.15 1.86-1.65 2.56-.8 1.26-.8 1.26.65.95 2.91-.7 7.53-3.16 9.53-5.11a19 19 0 0 0 3.37-4.72c1.35-2.76 3.06-8.63 2.76-9.48-.1-.25-1.96.15-4.17.9m-254.85.45c1.46 6.62 3.27 10.14 6.68 13.35 1.45 1.35 3.56 2.86 4.71 3.31 2.16.95 5.37 1.7 5.37 1.3 0-.1-.45-.95-1-1.85s-1-1.86-1-2.16c0-.25.9.4 1.95 1.46 1.96 1.95 1.96 1.95 1.7-.26-.44-3.86-1.6-6.67-3.85-9.23a20 20 0 0 0-4.72-3.91c-2.91-1.56-7.83-3.36-9.23-3.36-.76 0-.86.25-.6 1.35m5.67 24.24a30 30 0 0 0 5.42 9.08c2.46 2.7 7.28 4.97 11.24 5.32 3.21.25 3.21.25.96-2.06-2.51-2.6-1.91-3.11 1-.8 1.05.8 2 1.5 2.16 1.5.5 0-.76-3.76-1.96-5.77a19 19 0 0 0-7.58-7.02c-2.66-1.3-8.22-2.76-10.78-2.76-1.4 0-1.4 0-.46 2.5m242-1.76c-4.1.9-6.97 2.3-9.83 4.82-2.16 1.9-4.31 5.62-5.12 8.68-.35 1.4-.35 1.4 1.8-.15 1.21-.86 2.42-1.56 2.72-1.56.25 0-.5 1-1.7 2.26-2.52 2.56-2.37 2.66 2.75 1.7 6.37-1.15 10.34-4.56 13.85-11.79a55 55 0 0 0 1.96-4.36c0-.55-2.96-.35-6.42.4M33.48 423.39c0 .25.86 1.8 1.91 3.41 2.51 3.86 6.02 6.92 9.43 8.23 2.71 1 6.68 1.3 9.69.7 1.55-.3 1.55-.3-1.26-2.3-1.5-1.11-2.66-2.11-2.5-2.26.15-.15 1.4.25 2.8.95 1.36.7 2.51 1 2.51.75 0-.3-.7-1.6-1.55-2.9-1.76-2.82-5.12-5.18-8.68-6.23-2.66-.8-12.35-1.05-12.35-.35m218.27.05c-3.86 1.2-7.88 4.41-9.58 7.68-.5 1.05-.96 1.95-.96 2.1 0 .1 1-.35 2.26-1.05 3.47-1.9 3.87-1.05.55 1.15-2.96 1.96-2.96 1.96-1 2.36 2.76.6 7.83.05 10.49-1.1a18 18 0 0 0 4.61-3.41c2.36-2.31 5.67-6.93 5.67-7.78 0-.5-10.33-.45-12.04.05M49.33 441.85c-1.66.4-3.11.86-3.26.96-.5.5 5.27 5.87 7.73 7.17 2.2 1.16 3.1 1.36 7.02 1.36 2.96-.05 5.12-.3 6.27-.8 1.76-.8 1.76-.8-.75-2.16s-2.5-1.36-.05-1.06c2.4.25 2.4.25 1.7-.9-1.15-1.7-4.71-4.27-6.82-4.87-2.56-.7-8.28-.55-11.84.3m186.76-.3c-2.11.6-4.72 2.36-6.17 4.12-.7.85-1.2 1.6-1.1 1.7s1-.05 2.05-.35c3.16-.85 3.21-.2.05 1.3-3.01 1.41-3.01 1.41 0 2.36 3.71 1.2 8.53 1 11.9-.5 1.3-.55 3.7-2.36 5.41-4.01 2.81-2.71 3.06-3.06 2.2-3.51-2.7-1.4-11.18-2.06-14.34-1.1m-15.6 13.65c-1.36.15-3.02.7-3.77 1.2-1.66 1-3.61 2.76-3.61 3.22 0 .15.75.2 1.7.1 3.26-.4 3.61.2.6 1.1-2.8.85-2.9.9-1.85 1.6 3.71 2.61 9.18 3.57 13.34 2.31 2.71-.8 8.53-4.31 8.53-5.16 0-.4-1.5-1.46-3.36-2.36a19 19 0 0 0-11.59-2.01m-154.8 1.9c-2.26 1.06-4.12 2.16-4.12 2.42 0 .3 1.4 1.4 3.16 2.55a25 25 0 0 0 6.63 2.91c3.2.8 3.61.8 6.67 0 3.92-1.05 7.03-2.8 6.07-3.4-.4-.2-1.55-.56-2.56-.71-2.9-.5-2.35-1.4.66-1.15 2.5.25 2.5.25 1.15-1.16-2.4-2.5-5.07-3.46-9.53-3.46-3.67 0-4.42.2-8.13 2m135.07 8.99c-.8.2-2.7 1.05-4.21 1.86-2.71 1.45-2.71 1.45.65 1.6 3.66.15 4.67 1.05 1.25 1.15-1.2.05-2.7.2-3.36.4-1.2.3-1.15.36.66 1.71 4.21 3.21 9.23 4.47 13.9 3.36 2.95-.65 8.47-2.96 8.47-3.46 0-.65-4.31-3.61-7.27-5.07-3.21-1.6-7.48-2.25-10.09-1.55m-113.1 1.1c-2.75 1.2-8.52 4.92-8.52 5.47 0 .7 5.77 2.96 9.13 3.56 2.56.46 4.01.46 6.22.05 2.7-.55 6.92-2.8 8.23-4.41.5-.55.4-.7-.65-.7-1.91 0-4.37-.6-4.37-1.06 0-.2 1.4-.45 3.16-.55 3.11-.15 3.11-.15-.1-1.8-2.8-1.41-3.71-1.61-7.02-1.61-2.76 0-4.47.3-6.07 1.05m23.59 7.63c-2.76.8-5.22 2.2-9.44 5.57-3.1 2.5-3.1 2.5-.35 3.61 6.08 2.46 12.05 2.76 16.56.75 1.16-.5 3.06-1.8 4.22-2.8 2.4-2.16 2.1-2.77-1.3-2.77-1.16 0-2.27-.25-2.42-.5-.2-.3.9-.5 3.01-.5 2.76 0 3.87.3 6.93 1.8 1.96 1.01 3.96 2.17 4.41 2.52.8.7 2.46.5 2.46-.3s-2.8-2.36-8.93-4.97c-4.82-2.06-6.92-2.66-9.53-2.86-1.9-.1-4.32.1-5.62.45m32.36 4.01c-2.76 2.56-5.02 4.77-5.02 4.92s2.31 2.71 5.17 5.72c5.17 5.47 5.17 5.47 9.28 1 6.98-7.52 6.83-6.17 1.06-11.59-2.71-2.56-5.07-4.66-5.22-4.66s-2.5 2.05-5.27 4.61m33.62-3.96c-7.07 2.4-14.8 5.97-14.8 6.77 0 .25.3.7.7 1 .55.46 1.15.3 2.86-.85q5.5-3.6 10.34-3.6c2.05 0 2.7.14 2.15.5-.4.24-1.55.5-2.5.5-3.07.04-3.27.65-.96 2.75 3.31 2.96 6.02 3.97 11 4.02 3.4 0 5.1-.3 8.42-1.4 2.26-.8 4.11-1.61 4.11-1.76-.05-.76-6.47-5.37-9.43-6.78-3.81-1.75-8.73-2.25-11.89-1.15m-50.03 13.5c-3.8 2-6.92 3.76-6.92 3.96 0 .15 1.1.45 2.46.65 2.4.3 2.6.25 7.42-2.76a210 210 0 0 0 5.32-3.5c.2-.16-.05-.71-.5-1.11-.85-.76-1.4-.55-7.78 2.76m35.28-2.86c-1.1.8-1.06.85 4.06 4.31 4.92 3.26 5.27 3.46 7.43 3.16 1.2-.15 2.4-.45 2.66-.7.2-.2-1.66-1.5-4.27-2.8-2.56-1.31-5.57-2.92-6.72-3.57-1.86-1.1-2.1-1.16-3.16-.4" clip-rule="evenodd"/></svg>