<svg xmlns="http://www.w3.org/2000/svg" fill="currentColor" viewBox="-58.091 -78.778 628.16 628.16">
    <path fill-rule="evenodd" d="M18.88.52c-2.92.7-7.06 2.77-9.84 5-3.22 2.57-5.85 6.45-7.51 11.14C.16 20.4.16 20.4 0 227.02c-.05 113.63.05 210.7.3 215.7.36 8.03.56 9.44 1.72 12.26.7 1.77 2.12 4.24 3.08 5.6 2.12 2.88 6.66 6.31 10.7 8.03 2.82 1.2 3.68 1.31 16.34 1.71 7.37.2 77.6.36 156.17.26 110.04-.1 143.3-.26 144.91-.76a26.4 26.4 0 0 0 18.06-17.61c.56-1.77.76-5.55.76-14.38.05-6.61.25-12.11.5-12.26.2-.15 2.33.55 4.65 1.56 10.34 4.5 19.73 5.6 40.11 4.8 13.88-.61 17.16-.4 25.63 1.26 6.1 1.16 5.8 1 5.8 3.38 0 2.67 1.52 5.2 3.64 6.1.9.4 4.84 1.32 8.73 2.07l23.46 4.6c9.03 1.76 16.95 3.22 17.56 3.22 2.07 0 4.7-1.56 5.45-3.23.35-.85 1.82-7.56 3.23-14.93a2563 2563 0 0 1 5.04-25.48 9811 9811 0 0 0 6.51-32.3c2.22-11.1 5.3-26.38 6.86-33.9 1.52-7.57 2.78-14.79 2.78-16.05 0-1.86-.3-2.57-1.61-4.03-1.67-1.77-1.67-1.77-16.8-4.75-27.6-5.45-31.19-6.1-33.51-6.1-2.47 0-4.29.9-5.95 2.97-.86 1.01-1.11 1.11-2.12.61-1.16-.66-9.34-8.27-35.37-33.05a2850 2850 0 0 0-20.54-19.43c-3.13-2.87-5.7-5.5-5.7-5.85s.5-.76 1.16-.96c1.26-.3 6.26-5.35 20.84-20.99 5.3-5.7 12.16-13.07 15.29-16.4a123 123 0 0 0 7.21-8.22c.8-1.21 2.12-3.58 2.83-5.3 1.1-2.67 1.3-3.88 1.3-8.17.06-5.8-.75-8.63-3.47-12.82a23 23 0 0 1-1.77-2.98c.05-.2 1.36-1.91 3.03-3.83 4.84-5.65 6.76-10.9 6.66-18.27-.05-4.64-.6-7.16-2.52-11.25-1.72-3.63-7.93-9.89-11.71-11.75-7.82-3.84-16.3-3.89-23.87-.1-2.37 1.2-4.79 3.38-14.73 13.11a710 710 0 0 0-14.08 14.84c-13.22 14.18-23.61 24.82-23.91 24.47-.1-.1-.26-23.92-.3-52.83-.06-44.15-.2-52.83-.76-53.89-.4-.7-5.3-6.15-10.9-12.1A7269 7269 0 0 1 306.64 33c-4.39-4.8-16-17.15-23.46-24.97-3.33-3.49-6.71-6.71-7.57-7.22-1.41-.8-8.38-.86-128.16-.8-72.5.04-127.46.25-128.57.5m246.89 41.83c.25 28.76.3 29.57 1.36 32.14 1.72 4.29 3.38 6.81 6.3 9.53 3.54 3.33 6.37 4.95 11 6.21 3.6 1.01 5.05 1.06 29.37 1.06h25.64v50.86c0 31.69.2 51.47.5 52.53a9 9 0 0 0 1.87 3.18c1.36 1.4 1.36 1.4.1 2.77-.66.8-3.28 3.58-5.75 6.2-2.53 2.63-5.9 6.31-7.52 8.18-1.67 1.87-3.33 3.53-3.79 3.63-.45.16-3.53.5-6.86.81-7.41.6-19.12 1.72-29.51 2.73-4.3.45-11.46 1.16-15.9 1.56-9.74.96-13.62 1.51-16.25 2.47-2.37.81-8.37 3.89-10.5 5.3-2.87 1.97-7.91 7.37-10.79 11.66a4406 4406 0 0 1-25.78 37.59c-2.32 3.33-4.6 6.6-5.05 7.31-.5.7-2.97 4.14-5.5 7.72-12.16 16.96-14.18 21.14-14.18 29.52 0 7.82 2.12 13.32 7.12 18.57a33 33 0 0 0 4.74 4.03c1.82.96 2.22 1.87 1.16 2.58-1.66 1.06-6.1 6.6-7.87 9.89-1.97 3.58-3.53 7.36-14.23 34.86-1.36 3.59-2.52 7.17-2.52 7.98a6.1 6.1 0 0 0 3.03 5.2c3.07 1.56 3.93 1.3 22.7-6.57 13.93-5.85 21.1-9.13 23.16-10.54 1.01-.7 4.85-4.14 8.53-7.62 5.45-5.2 6.81-6.26 7.57-5.85.5.25 2.22.7 3.88 1 2.53.46 25.58 3.44 49.15 6.36 3.18.4 7.21 1.21 9.03 1.82 1.77.6 4.6 2.02 6.3 3.18 1.72 1.16 8.23 6.15 14.44 11.15s13.57 10.85 16.4 13.02 5.2 4.18 5.3 4.44c.04.3-.26.96-.71 1.46-1.92 2.12-2.22 4.39-2.27 16.65 0 11.05-.05 12.01-1.06 13.88-1.52 2.87-3.43 4.79-5.86 5.85-2.06.96-6.2.96-156.56.96-151.17 0-154.45 0-156.32-.96a15.7 15.7 0 0 1-5.9-6c-.76-1.62-.81-16-.81-215.36 0-207.68.05-213.68.96-215.8 1-2.32 3.93-5.15 6.36-6.2 1.3-.56 22.45-.66 123.41-.56l121.86.1zm24.72-8.48c6.26 6.71 14.43 15.54 18.17 19.58 17 18.36 21.95 23.81 22.1 24.52.15.6-2.93.7-21.2.7-21.34 0-21.34 0-23.86-1.2a18 18 0 0 1-4.14-2.88c-3.23-3.43-3.18-3.03-3.18-29.22 0-13.01.2-23.71.4-23.71s5.5 5.5 11.71 12.21m131.9 112.67c2.82 1.21 5.75 3.68 7.16 6.1 1.06 1.77 1.42 3.19 1.62 5.96.1 1.97-.05 4.5-.36 5.6-.55 2.07-4.64 7.42-5.9 7.72-.4.1-5.25-4.09-10.8-9.23-8.32-7.82-9.99-9.59-9.58-10.3.65-1.26 4.18-4.39 6-5.34a15.1 15.1 0 0 1 11.86-.5m-16.35 25.23c5.4 5.1 9.89 9.54 10 9.79.1.3-4.35 5.45-9.9 11.5-5.5 6.06-13.87 15.24-18.57 20.39-13.32 14.63-45.91 50.2-50.4 54.94-2.22 2.38-7.57 8.18-11.86 12.87-4.29 4.7-10.75 11.7-14.38 15.64-3.58 3.89-9.29 10.1-12.57 13.78-6.9 7.62-5.4 7.01-15.43 6.15-3.18-.25-9.9-.8-14.89-1.26-11.86-.96-14.38-1.31-14.38-1.76 0-.56 42.28-46.42 65.6-71.15 4.28-4.59 11.9-12.76 16.9-18.16s11.15-11.96 13.67-14.64c2.47-2.62 8.43-8.88 13.12-13.87l17.4-18.32a945 945 0 0 0 11.56-12.2c1.52-1.67 3.13-2.98 3.53-3.04.46 0 5.2 4.2 10.6 9.34m20.23 20.54c1.11 2.57.91 6.86-.4 9.48-.66 1.26-4.74 6.16-9.08 10.9-32.5 35.17-32.95 35.67-32.95 36.83 0 .4-.3.71-.66.71-.85 0-6.9-5.45-6.9-6.2 0-.36 2.31-3.13 5.14-6.16a7536.47 7536.47 0 0 0 38.9-42.28c2.47-2.68 4.64-4.9 4.84-4.9.26 0 .76.76 1.11 1.62m-115.09 40.82c0 .3-1.76 2.37-3.88 4.64-2.17 2.27-9.6 10.3-16.5 17.76-6.92 7.52-14.64 15.8-17.16 18.41-2.52 2.68-8.32 8.89-12.92 13.88s-10.34 11.25-12.86 13.93c-2.47 2.67-6.76 7.21-9.44 10.14-3.03 3.28-5.95 5.9-7.57 6.86-2.82 1.56-8.52 7.32-11.5 11.45-1.87 2.63-4.64 4.95-9.28 7.72-2.78 1.72-2.78 1.72-5.2.61a16 16 0 0 1-4.09-2.67c-2.57-2.48-3.78-5.15-4.04-9.24-.4-6.36.4-7.92 16-29.72 4.14-5.85 13.52-19.32 20.84-30.02 7.31-10.65 14.18-20.43 15.29-21.65a28 28 0 0 1 11.2-7.11c1.81-.55 5.8-1.21 8.88-1.51l13.22-1.26c4.19-.4 10.3-1.01 13.62-1.32 3.33-.3 7.77-.75 9.84-.96l4.7-.45c.45 0 .85.2.85.5m60.75 24.37c2.22 2.01 8.88 8.22 14.68 13.67 5.86 5.5 14.13 13.32 18.42 17.36s10.55 9.99 13.88 13.17c13.47 12.96 23.16 22 24.42 22.85.7.5 2.72 1.57 4.49 2.37 2.77 1.27 3.13 1.62 2.87 2.63-.3 1.31-3.73 17.86-7.06 34.2-1.21 5.96-3.28 15.6-4.54 21.45-1.26 5.8-3.43 16.05-4.8 22.7a709 709 0 0 1-2.82 13.03c-.25.75-.6.9-1.61.65-.76-.15-5.15-.86-9.84-1.56-8.18-1.26-8.88-1.26-22.56-.86-7.77.25-16.7.25-19.83 0-6.25-.4-12.81-2.07-17.15-4.24-6-3.08-12.67-7.92-32.65-23.91-13.17-10.55-15.64-12.32-19.17-14.13-4.44-2.27-8.02-3.13-19.18-4.54l-21.19-2.78-17.66-2.27c-7.97-.96-10.85-1.72-14.07-3.63a20 20 0 0 1-9.64-17.1c0-11 9.23-20.14 20.28-20.14 3.58 0 9.49.5 32.95 2.78 6.96.65 14.23 1.3 16.15 1.5 1.96.16 8.57.72 14.73 1.27 8.83.8 12 .9 14.88.5 4.85-.7 6.61-1.26 10.1-3.38 3.58-2.11 6.5-5.4 8.47-9.43 2.53-5.15 3.28-11.76 1.67-14.48-1.11-1.87-4.75-3.69-6.51-3.28-3.33.86-5.25 3.58-5.25 7.47-.05 4.13-2.72 8.02-6.81 9.78-1.46.66-3.23.91-6.56.86-4.39-.05-12.31-.9-12.77-1.41-.15-.1 1.57-2.22 3.74-4.64 8.22-9.14 23.81-26.3 27.7-30.43 2.22-2.37 9.33-10.04 15.84-17.05 6.46-6.97 11.91-12.72 12.06-12.72.1 0 2.07 1.67 4.34 3.74m110.45 70.99c15.14 3.03 16 3.23 16 4.29 0 .6-2.27 12.41-5.1 26.24a25007 25007 0 0 1-10.55 52.32c-2.97 14.93-5.55 27.3-5.7 27.45-.4.35-33.7-6.3-34.4-6.91-.61-.5.04-4.55 2.67-16.66.55-2.62 1.96-9.13 3.12-14.38 1.97-8.93 6.56-31.18 12.62-61.05 1.41-6.96 2.77-13.12 3.03-13.77.35-.76.8-1.11 1.4-.96.46.15 8.08 1.66 16.91 3.43M214.61 352c.9 4.4 2.52 8.73 4.08 11.2a41 41 0 0 0 4.54 5.65c1.57 1.62 2.73 3.08 2.63 3.33-.1.2-2.37 2.48-5 4.95-4.29 4.04-5.45 4.84-10.34 7.01-10.1 4.54-20.89 8.83-21.2 8.38-.3-.56 8.89-24.12 10.55-26.95 2.37-4.03 12.62-14.93 14.03-14.93.2 0 .5.6.7 1.36M61.57 119.55a6.7 6.7 0 0 0-3.18 5.45c0 1.76 1.87 4.64 3.53 5.5 1.01.5 21.5.6 99.25.5 98.04-.1 98.04-.1 99.6-1.66a5.7 5.7 0 0 0 1.82-3.79c.25-2.67-.55-4.34-2.82-5.85-1.72-1.16-1.72-1.16-99.15-1.16-95.77 0-97.49 0-99.05 1m.35 60.2a9 9 0 0 0-2.42 2.36c-.9 1.37-1.16 2.22-.96 3.69a9 9 0 0 0 1.11 3.18c1.87 2.87-4.03 2.72 101.27 2.72 95.36 0 97.08 0 98.64-1 3.08-1.88 4.1-5.96 2.22-8.79a8 8 0 0 0-2.17-2.12c-.9-.55-20.33-.65-98.8-.65-77.09-.05-97.88.1-98.89.6m-.7 60.94a10 10 0 0 0-2.07 2.48c-1.72 3.33-.25 6.9 3.38 8.27 1.97.76 8.07.8 69.28.7 63.07-.14 67.2-.2 68.72-1.05a5.8 5.8 0 0 0 3.03-6.1 5.4 5.4 0 0 0-2.07-3.7c-1.82-1.66-1.82-1.66-70.39-1.66-68.52 0-68.52 0-69.88 1.06m.75 60.85c-3.07 1.52-4.44 5.25-2.92 8.23a9 9 0 0 0 2.32 2.37c1.71 1.16 1.71 1.16 35.97 1.16 30.28 0 34.52-.1 35.98-.8a7 7 0 0 0 2.57-2.13c1.11-1.66 1.06-4.59-.1-6.55-1.86-3.23-.7-3.13-38.14-3.13-30.63 0-34.11.1-35.68.85m.46 65.9a7 7 0 0 0-2.93 2.37c-.96 1.42-1.16 2.22-.96 4.04.2 1.77.66 2.57 2.07 3.89 1.82 1.66 1.82 1.66 46.02 1.56 44.2-.15 44.2-.15 45.61-1.77a9 9 0 0 0 1.82-3.38 6.5 6.5 0 0 0-3.38-6.46c-1.62-.85-4.7-.9-44.1-.85-31.49 0-42.84.15-44.15.6" clip-rule="evenodd"/>
</svg>
