<svg xmlns="http://www.w3.org/2000/svg" width="296" height="512" fill="currentColor" viewBox="0 0 296 512">
    <path fill-rule="evenodd" d="M22.24.25c0 .42 20.09 51.27 48.7 123.18 8.14 20.52 16.29 41.04 18.06 45.45 3.19 8.15 3.19 8.15 9.87 8.15 3.67 0 6.67-.19 6.67-.5 0-.67-.3-1.53-37.67-95.98-2.94-7.41-9.98-25.36-15.74-39.82A9042 9042 0 0 0 38.9 7.17C36.02 0 36.02 0 29.16 0c-3.8 0-6.92.12-6.92.25m22.23.49c1.41 3.43 29.47 74.11 36.88 92.98 2.57 6.55 9.5 23.95 15.31 38.59 5.76 14.64 12.13 30.69 14.09 35.65 3.55 9.07 3.55 9.07 35.65 9.07s32.1 0 31.73-1.41c-.24-.74-3.67-9.62-7.72-19.73-3.98-10.1-9.8-24.99-12.98-33.07l-13.48-34.3a11702 11702 0 0 1-19.11-48.7 4640 4640 0 0 0-13.6-34.5C109.04 0 109.04 0 76.64 0 50.9 0 44.22.18 44.46.74M117.8.49c0 .25 1.66 4.6 3.62 9.62 3.49 8.76 8.33 21.13 14.76 37.67 9.86 25.3 15.93 40.8 27.5 70.14 4.41 11.08 11.4 28.9 15.56 39.5 7.6 19.3 7.6 19.3 14.83 19.48 5.63.13 7.1 0 6.86-.6-7.48-19.24-20.65-52.63-29.22-74.31a15973 15973 0 0 1-25.73-65.24c-1.6-4.22-4.96-12.92-7.47-19.3-2.51-6.42-5.09-12.92-5.7-14.57C131.7 0 131.7 0 124.78 0c-3.86 0-6.99.18-6.99.49m53.66 3.61c-.85 2.33-4.9 12.99-8.94 23.71-7.35 19.54-7.35 19.54-4.16 27.56 1.71 4.41 3.36 8.27 3.55 8.52.24.24 1.04-1.23 1.84-3.37.73-2.14 6.18-16.36 12-31.67C181.62 13.54 186.4.74 186.4.5c0-.24-3-.49-6.68-.49-6.67 0-6.67 0-8.27 4.1m21.2 2.15c-1.35 3.49-3.5 8.94-4.72 12.13-1.16 3.18-3 7.9-3.98 10.41-9.43 24.26-17.34 45.2-17.34 45.94 0 .5 6.5 17.27 14.52 37.24a4410 4410 0 0 1 14.46 36.51c0 .12.43 1.29.98 2.51 1.1 2.7 1.35 2.45 3.24-2.45.68-1.71 2.82-7.35 4.84-12.55a11475 11475 0 0 0 12.93-33.7C222.72 89 228.67 73.58 230.8 68A8517 8517 0 0 0 256.84.12c0-.06-13.9-.12-30.87-.12-30.87 0-30.87 0-33.32 6.25M264.8.6c0 .55-9 24.44-15.32 40.43-1.65 4.23-6.55 17.03-10.96 28.48a6140 6140 0 0 1-23.65 61.57c-7.4 18.92-12.55 32.46-12.55 32.83 0 .12 3 .24 6.67.24 4.78 0 6.74-.24 6.99-.8.18-.36 4.77-12.18 10.23-26.15a4193 4193 0 0 1 13.47-34.6c3.55-9.07 17.34-44.85 31.8-82.33 4.1-10.6 7.4-19.48 7.4-19.79 0-.24-3.18-.49-7.04-.49-4.17 0-7.04.25-7.04.61m-59.91 168.2c-1.1.25-1.29.62-.98 1.66 1.28 4.1 1.28 4.1 4.4 4.1 4.3 0 5.15 1.1 4.9 6.5-.17 4.23-.17 4.23-26.94 4.4-26.83.13-26.83.13-26.83 3.2 0 3.06 0 3.06 12.13 3.12 9.12 0 11.76.18 10.72.67-.8.37-1.41.92-1.41 1.23 0 .73 31.48.55 34.36-.19a9 9 0 0 0 3.68-2.14c1.34-1.47 1.47-2.08 1.65-9.56.24-8.39-.3-11.02-2.39-12.12-1.22-.68-11.15-1.3-13.3-.86m-123.37.99c-1.77 1.35-2.33 3.98-2.33 10.96 0 7.6.74 10.05 3.43 11.89 1.66 1.16 3.13 1.22 21.26 1.4 13.54.13 19.42 0 19.11-.42-.18-.37-1.1-.68-2.02-.68s-2.08-.3-2.57-.61c-.62-.37 2.81-.61 10.29-.61 11.2 0 11.2 0 11.02-2.94-.18-2.88-.18-2.88-26.34-3.07-26.21-.12-26.21-.12-26.21-4.59 0-3.37-.37-5.45-1.47-8.15-.8-1.96-1.84-3.67-2.33-3.8a3 3 0 0 0-1.84.62m62.6 27.69c0 13.6.19 14.27 4.72 14.88 2.27.3 2.82.12 4.47-1.53 1.84-1.84 1.84-1.84 1.84-13.54s0-11.7-5.51-11.7-5.52 0-5.52 11.89m-8.2 5.94a21 21 0 0 0-4.1 4.96c-.74 1.4-1.42 3.98-1.6 5.76-.18 1.83-.43 3.3-.5 3.3l-7.1 1.23c-24.13 4.35-45.39 13.48-64.56 27.8-7.84 5.89-19.17 16.8-25.17 24.27a153 153 0 0 0-26.22 49.18C1.72 335.8-.06 347.25 0 363.55c.06 12.37.86 19.48 3.68 32.16 2.7 12.12 8.57 27.93 14.4 38.59a168 168 0 0 0 14.88 22.3c2.45 3.06 7.84 8.87 12 12.92 15.56 15.07 32.22 25.6 52.62 33.26 16.11 6.06 29.22 8.64 46.62 9.13 12.8.36 21.37-.31 33.01-2.64 21.32-4.29 46.07-15.8 63.34-29.52 6.43-5.09 18.25-16.79 23.4-23.16 9.37-11.64 18-26.83 23.21-40.92a181 181 0 0 0 7.72-28.97c1.23-6.68 1.41-9.98 1.41-22.54.06-11.15-.24-16.36-1.04-21.62-2.7-16.97-9.19-35.84-17.4-50.6a150 150 0 0 0-34.54-41.84c-15.26-12.86-36.82-23.82-57.16-29.03-2.75-.74-7.6-1.78-10.78-2.33-5.75-1.04-5.75-1.04-6.43-4.72-.86-4.65-3.37-8.94-6.61-11.33-2.58-1.9-2.58-1.9-2.76 1.17-.12 2.45.12 3.49 1.35 5.32a14 14 0 0 1 1.96 4.48c.3 1.71.18 2.32-.74 3-2.02 1.47-5.94 2.14-12.5 2.14-4.83.06-6.98-.18-8.39-.98a9 9 0 0 0-3.55-.98c-1.35 0-1.53-.24-1.53-2.14 0-2.15 1.84-6.62 3.06-7.35.74-.43.86-6.43.06-6.43-.24 0-1.77 1.16-3.36 2.5m34.85 21.31c23.22 4.1 44.65 12.99 61.87 25.8a139 139 0 0 1 29.89 30.07c17.4 23.64 27.38 53.78 27.38 82.63 0 5.2-.3 11.88-.61 14.82-2.33 20.46-10.1 43.07-20.46 59.79-12.56 20.27-30.5 37.36-51.58 49.3-16.05 9.07-36.2 15.5-54.88 17.53-7.48.86-20.52.86-27.75.06a146 146 0 0 1-41.04-10.78 141.9 141.9 0 0 1-76.57-78.1c-6.19-15.38-9.56-31-10.47-48.33-.74-13.3 1.83-30.87 6.55-45.64 9.86-30.87 29.9-57.51 56.48-75.1 7.47-4.96 20.76-11.57 29.83-14.82a165 165 0 0 1 29.4-7.41c9.43-1.4 10.84-1.47 23.28-1.29 7.96.19 13.53.62 18.68 1.47m-29.1.5c-6.61.48-19.1 2.2-23.89 3.3-20.45 4.78-39.38 13.6-55.25 25.79-7.47 5.76-19.84 18.25-25.36 25.6a143 143 0 0 0-27.87 70.45c-.98 8.76-.37 25.36 1.23 34.6 2.94 17.16 8.82 33.76 16.9 47.78 4.23 7.3 6.19 10.23 10.66 15.93a143 143 0 0 0 19.36 20.4c18.2 15.62 41.71 27.2 64.44 31.6 9.19 1.78 18.99 2.82 26.89 2.82 12.86 0 28.91-2.7 42.51-7.16 9.92-3.19 25.42-10.78 34.12-16.54 25.91-17.28 45.39-42.63 55-71.67 4.72-14.27 6.93-26.1 7.48-40.61.24-6.98.06-11.64-.68-17.77-4.04-32.95-17.64-61.37-40.18-83.91-10.04-10.11-18.74-16.67-31.24-23.59a147 147 0 0 0-41.1-14.64 168 168 0 0 0-16.78-2.14c-8.33-.68-10.48-.68-16.24-.25m26.65 4.77a141 141 0 0 1 52.43 19.05 120 120 0 0 1 22.06 17.21c9.06 8.76 16.9 18.56 22.48 28.18a142 142 0 0 1 18.25 52.2c1.4 9.49 1.35 25.78 0 34.66a150 150 0 0 1-11.82 39.82c-7.48 15.98-15.99 27.87-29.34 40.67a137 137 0 0 1-59.97 33.75c-11.52 3.06-16.9 3.8-30.94 4.1-10.4.25-14.64.13-20.21-.67C96.6 493.9 65.97 477 43.8 450.53a141 141 0 0 1-17.15-26.4c-12.56-25.3-17.28-53.48-13.36-79.63.92-6.07 3.8-18.13 5.64-23.46 2.94-8.7 8.27-19.91 13.54-28.43 5.26-8.45 10.23-14.76 18.25-23.03s18.2-16.3 27.63-21.87c6.73-3.98 16.35-8.39 24.38-11.2 9.92-3.5 22.84-6.38 33.5-7.42 7.78-.73 24.01-.24 32.1.92m-21.8 5.7c-1.72 1.4-1.84 4.47-.25 6.25 1.4 1.53 4.65 1.59 6 .12 1.41-1.53 1.29-4.78-.18-6.25-1.53-1.53-3.74-1.6-5.58-.12m-21.57 1.96c-1.22.98-1.65 1.9-1.65 3.3 0 2.46 1.59 4.05 4.04 4.05s3.8-1.1 4.29-3.37c.24-1.35 0-2.27-.8-3.19-1.65-2.02-3.92-2.32-5.88-.8m43.5.49c-1.42 1.53-1.3 4.78.18 6.25.67.67 1.9 1.22 2.75 1.22 1.84 0 4.6-2.51 4.6-4.16 0-.68-.55-1.9-1.29-2.82a3.7 3.7 0 0 0-3.25-1.6c-1.16 0-2.45.5-3 1.1m-65.37 5.63c-2.5 2.52-.73 7.35 2.76 7.35 1.84 0 4.6-2.5 4.6-4.16 0-.67-.56-1.9-1.3-2.82a4 4 0 0 0-6.06-.37m87.78-.49a5 5 0 0 0-2.02 2.33c-.55 1.35-.55 2.15.12 3.5a4.8 4.8 0 0 0 2.51 2.26c1.35.49 1.96.37 3.37-.67a4.3 4.3 0 0 0 1.84-3.37c.12-1.78-.12-2.45-1.47-3.5-1.84-1.4-2.39-1.53-4.35-.55m-48.57 6.07c-8.03.37-12.44 1.04-20.52 3.06-7.42 1.9-13.42 4.1-20.83 7.6a101 101 0 0 0-29.83 20.64 104 104 0 0 0-14.52 17.58 106 106 0 0 0-10.47 19.36 111 111 0 0 0-7.66 61.56c2.76 17.09 10.23 35.34 20.21 49.3 8.09 11.28 20.03 22.55 31 29.16 12.5 7.54 26.83 13.11 39.32 15.26 11.34 1.9 15.38 1.71 17.46-.8.61-.73-.24-.92-5.51-1.29-18.07-1.22-36.02-7.47-51.95-18.07-26.46-17.45-43.67-46.24-47.84-79.87-.98-8.33-.42-22.85 1.3-31.36a114 114 0 0 1 14.39-37.06c5.08-8.4 10.29-14.77 18.25-22.42 14.15-13.66 32.71-23.16 53.23-27.32 6-1.23 8.7-1.41 20.7-1.41 11.95.06 14.64.24 20.22 1.4 9 1.97 20.09 5.77 27.2 9.38 12.06 6.06 24.56 15.74 32.89 25.36 12.43 14.45 20.64 31 24.87 49.92 1.22 5.7 1.6 9.31 1.84 18.75.36 13.1-.19 18.62-2.88 30.13a108.4 108.4 0 0 1-26.9 49.31c-9.67 10.05-18.68 16.73-30.38 22.42a107 107 0 0 1-37.18 10.6c-7.9.73-7.9.73-6.18 2.39 1.71 1.71 1.71 1.71 7.22 1.1 12.01-1.35 24.63-4.72 34.92-9.37 6.43-3 15.07-8.15 21-12.62a129 129 0 0 0 19.43-18.99c4.78-5.94 9.37-13.41 13.41-21.68 8.15-16.48 12-35.35 11.15-54.27-.8-17.95-4.23-31-12.43-47.48-5.46-10.84-15.62-24.2-24.2-31.73-14.15-12.5-29.77-20.95-46.8-25.23-12.07-3.07-21.13-3.92-33.93-3.31m-58.01 2.45c-2.7.98-3.5 4.9-1.41 7.17a4.35 4.35 0 0 0 6.12.12c1.35-1.35 1.6-3.68.62-5.52-.8-1.47-3.62-2.38-5.33-1.77m125.5 1.53c-.97.67-1.34 1.53-1.34 3.25 0 2.81 1.47 4.35 4.1 4.35.99 0 2.27-.5 2.82-1.1.62-.62 1.04-2.15 1.04-3.38 0-1.59-.36-2.45-1.34-3.12a5.4 5.4 0 0 0-2.64-.98c-.67 0-1.9.43-2.63.98m-76.99 4.29c-6.8 1.04-16.84 3.86-24.01 6.74-6.92 2.75-15.87 7.84-22.36 12.61-6.86 5.09-17.09 15.5-22.05 22.55a131 131 0 0 0-12.92 23.89c-2.64 6.55-4.97 15.5-6.31 24.2-.8 5.26-.92 9-.68 17.45.3 8.15.74 12.37 1.9 17.7.86 3.86 2.45 9.62 3.5 12.74 2.57 7.84 9.43 21.26 14.45 28.36 2.27 3.19 7.53 9.25 11.76 13.48 5.51 5.51 9.68 9 14.46 12.19 11.88 7.9 25.17 13.47 38.1 15.99 8.57 1.71 23.09 2.26 31.91 1.22 8.7-.98 18.5-3.49 26.95-6.92 13.42-5.4 23.83-12.37 34.73-23.4 4.84-4.84 8.27-9 12.13-14.82 9.93-14.89 15.44-29.53 17.52-46.74 1.1-8.58.86-22.24-.55-30.44-1.47-8.64-2.39-12.07-5.33-19.79a113 113 0 0 0-11.88-23.03c-3.19-4.78-6.68-8.94-12.44-14.7-6-6-9.8-9.2-15.25-12.74a102 102 0 0 0-25.85-12.56c-10.66-3.5-20.27-4.96-32.4-4.9-5.4.06-12.32.43-15.38.92m30.94 15.31c6.67 1.04 16.29 4.1 23.52 7.54a92 92 0 0 1 27.26 20.09c6.73 7.29 13.35 18.07 17.51 28.36 1.96 4.96 4.3 14.15 5.15 20.4.37 2.63.67 8.63.67 13.29 0 9.62-1.47 19.48-3.98 27.26-2.33 7.16-8.27 18.8-12.86 25.11-4.72 6.62-12.74 14.89-18.87 19.48-20.27 15.25-46 21.2-70.5 16.3-18.87-3.8-37-14.22-49.56-28.43-10.66-12.07-17.94-26.83-21.62-43.8-.86-3.98-1.16-7.84-1.16-16.53 0-9.62.18-12.32 1.4-17.65 4.3-19.05 12.07-33.56 24.87-46.43a86.4 86.4 0 0 1 33.82-21.25c14.45-5.03 28.42-6.19 44.35-3.74M145.48 292a4116 4116 0 0 1-9.06 26.59c-6 17.45-6 17.45-.5 25.42 8.83 12.62 12.01 17.45 11.7 17.76-.18.18-4.34-5.08-9.37-11.7-4.96-6.68-9.3-12.19-9.67-12.31s-13.42-.19-28.98-.12c-28.3.18-28.3.18-19.6 6.86 4.78 3.73 15.25 11.76 23.22 17.94 14.08 10.9 14.45 11.34 13.96 12.93-.3.92-3.43 11.27-6.98 23.1-10.35 34.6-9.8 32.46-7.84 30.8.55-.49 9.3-6.55 19.42-13.35 10.1-6.86 20.33-13.78 22.72-15.5 4.35-3 4.35-3 12.25 2.45a4438 4438 0 0 0 36.39 24.81c1.84 1.23 3.43 2.2 3.49 2.08.18-.12-1.04-4.28-5.76-19.97-9.37-31-10.66-35.58-10.47-36.07.18-.56 41.53-32.9 44.59-34.92 1.35-.92-.55-.98-27.87-1.29-29.28-.3-29.28-.3-29.9-2.14-1.28-4.04-18.25-52-18.43-52.19-.12-.12-1.6 3.86-3.3 8.82m17.03 35.77c3.55 10.17 3.55 10.17-4.35 22.06-4.35 6.55-8.2 11.94-8.51 12.06-.68.25-.86-68.6-.19-69.34.37-.36 3.86 8.95 13.05 35.22M114 352.34c18.25 6.18 33.2 11.4 33.2 11.64 0 .3-.37.49-.74.49-.43 0-6.3 1.65-13.05 3.67-6.73 2.02-12.8 3.68-13.47 3.68-.68 0-5.4-3.25-10.42-7.23-5.08-3.92-13.65-10.6-18.98-14.76-11.27-8.7-11.15-8.64-10.36-8.64.31 0 15.5 5.02 33.82 11.15m103.33-10.6c-.36.3-9.12 7.23-19.54 15.31-10.47 8.15-19.41 14.77-19.97 14.77-1.1 0-26.09-7.1-27.07-7.72-.37-.25 1.22-1.04 3.55-1.78 2.33-.8 17.28-5.82 33.26-11.27 16-5.45 29.34-9.86 29.65-9.86.43 0 .43.18.12.55m-69.4 39.08c-.12 10.35-.37 14.76-.92 15.25-1.16 1.1-39.08 26.65-40.06 27.02-.49.18.43-1.53 2.08-3.86 16.91-23.52 21.2-29.47 34.5-47.6 2.14-2.94 4.03-5.33 4.22-5.33s.3 6.56.18 14.52m10.66-3.12c12.37 16.84 32.22 44.53 32.53 45.33.18.49-4.72-2.58-10.9-6.87a4983 4983 0 0 0-20.9-14.15c-9.67-6.49-9.67-6.49-9.67-21.25.06-14.76.06-14.76 1.83-12.56a287 287 0 0 1 7.11 9.5m-88.7-115.22a20 20 0 0 0-4.4 5.2c-1.84 3.37-2.7 8.4-1.72 10.11.55 1.04.61 1.04.98-.18.67-1.96 1.84-1.72 1.28.3-.36 1.47-.3 1.53.74.8 2.82-2.14 4.04-3.55 5.2-5.7 1.35-2.7 2.21-10.1 1.3-11.7-.5-.92-.87-.73-3.38 1.17m154.18-.31c-.55 2.51.19 7.66 1.47 10.72a14 14 0 0 0 3.37 4.41c2.57 2.33 3.8 2.63 2.82.86-.74-1.47-.8-1.9-.06-1.9.3 0 .8.61 1.04 1.35.43 1.34.49 1.34.92-.37.55-2.02-.25-6.92-1.53-9.37-.8-1.6-2.82-3.62-6.31-6.56-1.29-1.04-1.29-1.04-1.72.86M54.15 275.1c-2.7 3.6-4.35 8.02-4.35 11.63 0 3.5.98 7.3 1.84 7.3.24 0 .67-.62.92-1.42.43-1.28.43-1.28.86.37.36 1.78.36 1.78 1.65.3 2.02-2.2 3.3-5.14 3.74-8.45.24-2.08-.07-4.16-.98-7.28-.74-2.4-1.54-4.35-1.78-4.35-.3 0-1.1.85-1.9 1.9m185.17 1.28c-1.28 3.92-1.34 9.25-.06 12.31.55 1.23 1.78 3.31 2.7 4.54 1.71 2.2 1.71 2.2 2.08.43.43-1.78.43-1.78.92-.25.43 1.47.49 1.47 1.22-.61.43-1.17.8-3.8.8-5.88.06-2.94-.3-4.47-1.78-7.35a24 24 0 0 0-3.3-5.09c-1.47-1.4-1.47-1.4-2.58 1.9M40.43 292.86a26 26 0 0 0-2.2 5.14c-1.17 4.35-.8 7.66 1.28 11.95 1.65 3.37 1.96 3.74 2.14 2.45.43-3 1.05-3.37 1.35-.92.37 2.39.37 2.39 2.09-1.04a14.6 14.6 0 0 0 1.65-7.35c0-3-.37-4.66-1.78-7.54-2.82-5.75-2.75-5.7-4.53-2.7m213.04-.43c-1.77 2.63-3.37 7.66-3.37 10.35 0 3.06 1.35 7.41 2.94 9.5 1.1 1.4 1.1 1.4 1.23-.25.18-2.26.73-2.7.73-.67 0 .92.31 1.65.68 1.65.3 0 1.22-1.28 1.96-2.94 1.84-4.04 1.78-10.29-.12-14.64-.8-1.77-1.78-3.49-2.2-3.86-.68-.55-1.11-.3-1.85.86M29.34 313.5c-1.4 5.15-1.28 9.62.5 13.3.79 1.65 2.26 3.8 3.24 4.71 1.78 1.72 1.78 1.72 1.53-.43-.12-1.16-.06-2.14.12-2.14.25 0 .68.73 1.04 1.65.62 1.6.68 1.66 1.3.55.36-.67.79-3.06.97-5.33.25-3.49.06-4.59-1.29-7.53-1.53-3.3-5.08-8.33-5.94-8.33-.24 0-.92 1.6-1.47 3.55m233.75-.12c-3.18 4.29-4.72 9.06-4.16 13.23.24 1.65.73 3.74 1.1 4.66.67 1.65.67 1.65 1.28-.5.68-2.14.68-2.14.98.25.37 2.45.37 2.45 2.09.18 2.7-3.61 4.1-7.16 4.1-10.78 0-3.37-1.65-10.47-2.45-10.47-.18 0-1.53 1.53-2.94 3.43M23.16 332.49c-.86 2.27-1.05 8.64-.31 11.64a16.6 16.6 0 0 0 6.13 9.31c1.96 1.4 1.96 1.4 1.53-1.23q-.46-2.57.18-2.2c.37.18.86 1.22 1.04 2.27.74 3.24 1.72.98 1.72-3.86.06-3.68-.25-5.03-1.6-7.72-1.77-3.37-5.39-7.72-7.22-8.7-.8-.43-1.17-.3-1.47.5m246.97 1.35c-3.8 3.37-6.61 9.13-6.67 13.6 0 1.77.18 4.22.43 5.33.43 2.08.43 2.08 1.59-.31s1.16-2.39.92-.12c-.19 1.28-.19 2.32 0 2.32.86 0 5.45-4.9 6.55-6.98s1.35-3.55 1.35-8.33c0-3.18-.3-6.3-.67-6.92-.55-.98-.86-.86-3.5 1.4M17.95 356.38c0 3.37 1.6 8.94 3.3 11.7 1.6 2.51 4.23 4.72 7.54 6.43 2.88 1.47 3.43 1.23 2.33-.86-1.41-2.75-1.1-3 .98-.6 1.9 2.14 1.9 2.14 1.6-1.36-.74-7.9-4.9-13.1-13.42-16.72-2.33-.92-2.33-.92-2.33 1.41m256.1-.18a32 32 0 0 0-5.7 3.8c-.91.91-2.38 3-3.24 4.71-1.16 2.33-1.53 4.04-1.53 7.05 0 4.04 0 4.04 1.16 2.14 1.17-1.9 2.52-3.19 2.52-2.39 0 .18-.43 1.16-.92 2.14-.55 1.05-.8 1.84-.62 1.84s1.72-.67 3.31-1.53a17.7 17.7 0 0 0 8.33-9.43c1.17-3.31 1.96-10.48 1.17-10.48-.3 0-2.33.98-4.47 2.15M19 378.68c.18.73.86 3.18 1.53 5.33 1.04 3.12 2.02 4.71 4.72 7.47s4.16 3.74 6.74 4.47c1.83.55 3.43.86 3.61.74.12-.19-.18-.92-.73-1.72-1.6-2.27-1.1-2.7.91-.73 1.96 1.77 1.96 1.77 1.66-.98-.43-3.68-1.84-6.56-4.66-9.5-2.45-2.51-8.14-5.51-11.88-6.12-2.14-.43-2.2-.37-1.9 1.04m254.09-.25c-4.1 1.47-8.58 4.6-10.48 7.47-1.6 2.4-3.3 7.23-3.3 9.38 0 1.04.36.8 2.08-1.17 1.16-1.28 2.26-2.2 2.45-2.02.18.19-.31 1.29-1.17 2.4s-1.4 2.13-1.35 2.26c.13.12 1.6-.25 3.31-.74 4.17-1.22 8.46-4.65 10.23-8.15 1.35-2.63 3.43-8.75 3.43-10.04 0-.74-1.77-.55-5.2.61M24.38 401.9c1.23 3.86 4.17 8.58 6.98 11.09a15.6 15.6 0 0 0 6.68 3.8c1.96.55 4.23.98 5.02.98 1.41 0 1.41-.06-.6-2.15-1.11-1.16-1.9-2.26-1.79-2.45.19-.18 1.3.43 2.45 1.23 1.17.92 2.15 1.28 2.27.92.5-1.35-3.06-7.35-5.51-9.5-3-2.5-7.72-4.4-12.5-4.96-3.43-.43-3.43-.43-3 1.04m241.16-.3a32 32 0 0 0-5.08 1.77c-3.07 1.6-6.56 5.7-7.9 9.25a38 38 0 0 0-1.23 3.68c0 .18 1.04-.5 2.27-1.53 3.3-2.7 3.92-2.33 1.1.6-2.45 2.46-2.45 2.46.3 2.1 1.54-.25 3.99-.8 5.52-1.3 4.35-1.34 8.57-5.81 11.33-12.06 1.53-3.5 1.53-3.5-.8-3.43-1.22 0-3.73.43-5.5.92M36.2 423.15c-2.94.18-2.94.18-1.65 2.7 1.9 3.67 6.74 8.14 10.1 9.3 3.07 1.04 8.58 1.29 9.93.43.55-.3.06-.98-1.72-2.2-1.34-.92-2.32-1.84-2.2-2.02.18-.13 1.4.24 2.82.91 1.34.68 2.45 1.1 2.45.92s-.68-1.47-1.47-2.88c-1.41-2.38-4.54-4.96-7.41-6.06-1.84-.73-7.6-1.29-10.85-1.1m216.97.12c-1.17.25-2.88.74-3.74 1.1-2.51.98-6 4.35-7.35 6.92-1.16 2.33-1.16 2.33.98 1.1 3.12-1.9 3.92-1.1.98.99-1.84 1.22-2.33 1.9-1.78 2.2 1.23.8 6.13.61 9.25-.3 3.74-1.1 6.99-3.74 10.11-8.21 2.51-3.62 2.51-3.62.25-4.04a24 24 0 0 0-8.7.24M49.3 441.89c-1.77.5-3.37.98-3.55 1.1-.12.19 1.4 1.84 3.43 3.74 2.63 2.45 4.6 3.74 6.86 4.41 1.71.5 3.74.92 4.41.92s2.82-.43 4.84-1.04c3.61-.98 3.61-.98.98-2.45-2.7-1.47-2.7-1.47.06-1.1 2.76.3 2.76.3-.06-2.4-1.6-1.52-3.86-3-5.2-3.36-3.07-.86-7.66-.8-11.77.18m186.15 0c-2.14.8-6.8 4.35-6.8 5.27 0 .3.99.24 2.21-.12 1.23-.3 2.33-.43 2.51-.3.12.17-1.04.91-2.7 1.64-2.93 1.35-2.93 1.35-.48 2.27 1.34.55 4.1.98 6.12.98 4.66.06 8.15-1.53 11.95-5.39 3.12-3.18 3-3.5-2.02-4.6-3.8-.79-8.15-.73-10.79.25M65.54 457.1c-2.26 1.03-4.04 2.2-3.92 2.57.31 1.1 5.82 4.59 8.27 5.26 4.54 1.23 9.13.62 13.23-1.9 1.78-1.1 1.78-1.1-1.22-2.02s-3-.92-.3-.92c2.69-.06 2.69-.06 1.22-1.65-2.15-2.27-5.09-3.3-9.37-3.3-2.88 0-4.66.42-7.9 1.95m151.49-.8a17 17 0 0 0-3.37 2.5c-1.23 1.36-1.23 1.36 1.84.99 3-.37 3.06-.37 1.22.55-.98.49-2.14.86-2.57.92-.37 0-.86.24-1.1.61-.56.92 4.47 3.12 7.96 3.5 3.86.42 7.66-.74 12.07-3.62 3.06-1.9 3.06-1.9 1.65-3.06-4.47-3.37-13.48-4.6-17.7-2.4M87.35 467.3c-3.25 1.53-8.15 4.84-8.15 5.52 0 1.1 6.56 3.3 10.72 3.6 3.56.2 4.9 0 7.48-1.1a18 18 0 0 0 4.53-2.81c1.35-1.47 1.35-1.47-1.47-1.47-1.6 0-2.88-.25-2.88-.55 0-.37 1.29-.68 2.94-.8 2.88-.18 2.88-.18.43-1.71-1.9-1.17-3.43-1.54-6.74-1.72-3.25-.12-4.9.12-6.86 1.04m111-.3c-.99.49-2.4 1.28-3.07 1.83-1.16.86-1.04.92 2.15.98 2.45.07 3.06.25 2.14.62-.67.3-2.14.55-3.19.55-1.1.06-2.02.3-2.02.61 0 .92 5.58 4.29 7.78 4.72 3.62.67 8.88-.06 12.68-1.78 3.62-1.65 3.62-1.65 1.23-3.55-3.98-3.25-8.09-4.84-12.2-4.84-2.01.06-4.46.43-5.5.86m-86.44 7.65c-2.75.68-7.6 3.5-10.65 6.13-2.7 2.33-2.7 2.33.91 3.73 4.78 1.84 12.44 2.03 15.62.37 2.82-1.47 6.13-3.98 6.13-4.6 0-.3-1.29-.79-2.88-1.16-2.94-.6-2.94-.6.18-.67 3.37-.06 6.2.86 10.17 3.37 1.66 1.04 2.64 1.35 3.31.98.86-.49.74-.74-.73-1.78-.98-.67-4.48-2.39-7.72-3.73-6.13-2.64-10.97-3.5-14.34-2.64m31.55 4.35c-5.33 4.78-5.33 4.78 0 10.42 5.27 5.7 5.27 5.7 10.35.24 2.76-3 4.96-5.7 4.84-6s-2.39-2.58-5.08-5.03c-4.84-4.4-4.84-4.4-10.11.37m34.67-4.35c-2.51.62-9.8 3.56-13.41 5.4-2.7 1.34-2.88 1.59-2.03 2.44.86.86 1.1.8 2.76-.36q5.3-3.77 10.54-3.68c3.37.06 3.37.06.43.55-1.66.3-3.13.68-3.37.86-.62.67 1.9 2.82 5.33 4.53 2.87 1.41 4.16 1.66 8.02 1.6 3.3-.07 5.7-.5 8.51-1.6 3.92-1.47 3.92-1.47.62-4.1a37 37 0 0 0-6.5-4.17c-3.43-1.59-8.02-2.2-10.9-1.47m-51.7 14.1c-5.94 3-6.8 3.6-5.51 3.91 3.12.86 4.9.37 9.55-2.7 4.66-3 5.76-4.34 3.86-4.65-.49-.06-4.04 1.47-7.9 3.43m35.65-2.95c-.55.55.55 1.53 4.23 3.98 4.9 3.31 7.04 3.92 9.86 2.82.8-.37-.55-1.35-5.57-3.98-3.68-1.9-6.93-3.5-7.3-3.5-.3 0-.85.31-1.22.68" clip-rule="evenodd"/>
</svg>
