<svg xmlns="http://www.w3.org/2000/svg" width="512" height="511" fill="currentColor" viewBox="0 0 512 511">
    <path fill-rule="evenodd" d="M122.68 1.04c-7.8 2.2-15.17 8.11-18.61 15-2.46 4.83-3.44 10.98-3.44 21.55 0 9.84 0 9.84-29.18 9.84-32.46 0-34.84.33-44.6 5.4a57 57 0 0 0-9.5 6.48c-5.66 4.92-11.4 13.45-14.02 20.9C1.36 85.8 1.12 88.02.46 104c-.33 9.67-.57 96.55-.4 193.03C.21 456.2.37 472.84 1.6 476.53a146 146 0 0 0 2.7 7.38c2.3 5.33 8.28 13.11 12.8 16.72 4.83 3.85 12.45 7.62 18.1 9.02 5.58 1.3 435.75 1.39 441.4 0 2.13-.5 6.64-2.22 10-3.78 8.45-4.01 16.15-11.8 20.5-20.98 1.8-3.69 3.68-9.1 4.18-12.05.65-3.77.81-61.4.65-197.13-.25-191.8-.25-191.8-2.38-197.3-3.27-8.28-7.13-14.26-12.62-19.26a60 60 0 0 0-9.84-6.89c-9.42-4.59-11.22-4.83-43.52-4.83-29.67 0-29.67 0-30-12.54-.25-11.56-.5-12.79-2.62-17.54-2.87-6.23-8.53-11.8-15.09-14.84C392.1.79 389.97.38 385.05.38c-5 0-7.04.4-11.06 2.21a31 31 0 0 0-14.84 14.84c-2.05 4.5-2.37 6.15-2.78 17.3-.41 12.29-.41 12.29-99.18 12.29s-98.78 0-99.27-12.7c-.24-8.12-.82-13.78-1.64-15.74-3.28-8.36-10.98-15.09-20-17.46-5.65-1.48-8.44-1.48-13.6-.08m13.27 16.47a14 14 0 0 1 6.89 9.67c.25 1.89.41 15.58.25 30.5-.25 23.85-.41 27.37-1.64 29.67-2.22 4.01-6.07 6.23-11.23 6.64-3.77.24-5.09 0-7.38-1.64a20 20 0 0 1-4.5-4.18c-1.65-2.22-1.73-3.36-1.98-30.74-.16-15.66 0-29.6.25-31.07 1.07-5.82 8.69-11.39 14.34-10.4 1.56.24 3.78.98 5 1.55m256.32.57c1.47.9 3.36 3.04 4.26 4.84 1.56 2.95 1.64 4.92 1.64 32.54 0 29.26 0 29.43-1.89 32.21-2.86 4.27-6.72 6.48-11.23 6.48-4.5 0-8.36-2.21-11.22-6.48-1.89-2.78-1.89-2.95-1.89-32.2 0-27.55.08-29.6 1.56-32.55a13 13 0 0 1 13.2-6.97 19 19 0 0 1 5.57 2.13M100.79 75.05c.33 10 .74 12.95 2.21 16.8 2.46 6.32 8.12 12.22 14.84 15.33 4.43 2.13 6.31 2.54 11.23 2.54 4.02 0 7.38-.57 10.5-1.72 5.97-2.21 12.78-8.52 15.73-14.5 2.05-4.35 2.3-5.66 2.7-17.38.41-12.7.41-12.7 99.27-12.95 98.93-.17 98.93-.17 99.26 12.3.25 11.47.5 12.94 2.46 17.2a30.5 30.5 0 0 0 13.52 14.27c4.27 2.13 5.58 2.37 12.54 2.37 6.64 0 8.37-.32 11.89-2.04 5.57-2.71 11.07-8.45 13.93-14.35 2.22-4.59 2.38-5.65 2.71-17.46.33-12.54.33-12.54 30.41-12.3 30 .25 30 .25 34.92 2.55a31.6 31.6 0 0 1 14.92 14.83c2.3 5 2.3 5 2.54 38.28.24 33.36.24 33.36-1.89 33.86-4.26 1.06-476.72-.17-477.79-1.23-.33-.25-.08-14.51.41-31.56.74-26.48 1.15-31.72 2.38-35.41 3.28-9.35 11.56-17.05 21.47-19.92 4.51-1.23 8.7-1.48 32.3-1.48 27.21-.08 27.21-.08 27.54 11.97m395.74 200.99c0 81.88-.24 107.54-.98 107.95-.5.33-20.58.49-44.43.4-27.95-.07-45.08.17-47.95.75-10.41 1.96-18.77 8.27-22.87 17.05-2.21 4.67-2.21 4.67-2.62 48.52l-.41 43.85H207.18c-170.08 0-170.08 0-175.24-2.78A32 32 0 0 1 18 477.1c-2.21-4.67-2.21-4.67-2.46-155.49-.08-82.95 0-151.31.25-151.89.25-.73 49.18-.98 240.58-.98h240.16zm-14.43 124.5c.41.66-6.14 6.8-57.2 53.53-30.83 28.2-31.32 28.6-31.98 28.03-.82-.9-.49-67.62.41-70.9 1.07-4.01 4.43-7.95 8.53-9.75 3.03-1.4 6.23-1.56 41.56-1.56 21.06 0 38.44.33 38.68.66m14.27 41.4c-.25 30.5-.25 30.5-2.87 35.9a31 31 0 0 1-14.84 14.51c-4.67 2.21-4.67 2.21-39.92 2.38-35.24.24-35.24.24-30.57-4.18 6.07-5.74 55.41-50.82 73.11-66.73 7.55-6.88 14.1-12.45 14.51-12.45.5 0 .74 11.96.58 30.57M195.22 225.3c-.99.33-2.54 1.72-3.53 2.95-1.72 2.21-1.8 2.95-1.55 14.5.24 12.22.24 12.22 2.54 14.19 2.21 1.88 2.78 1.97 14.18 1.97 11.96 0 11.96 0 14.34-2.38s2.38-2.38 2.38-14.43c0-7.05-.33-12.7-.9-13.69-1.56-2.95-5.66-3.93-16.07-3.85-5.33 0-10.5.33-11.4.74m102.46 0c-.99.33-2.54 1.72-3.53 2.95-1.55 1.97-1.72 3.2-1.72 14.02 0 11.88 0 11.88 2.38 14.26s2.38 2.38 14.42 2.38c12.05 0 12.05 0 14.43-2.38s2.38-2.38 2.38-14.6c0-13.76-.5-15.16-5.58-16.63-3.6-.98-20.32-.98-22.78 0m101.64.65c-3.94 2.46-4.6 5.17-4.27 17.38.25 10.82.25 10.82 2.96 13.2 2.62 2.38 2.62 2.38 14.42 2.38 11.23 0 11.8-.09 13.85-1.97 1.15-1.07 2.38-2.87 2.63-4.02.33-1.15.4-6.88.24-12.78-.24-10.41-.32-10.74-2.54-12.96-2.21-2.3-2.46-2.3-13.52-2.54-9.92-.16-11.56 0-13.77 1.31M89.8 305.55c-2.7 2.37-2.7 2.37-2.46 15 .24 12.54.24 12.54 2.62 14.75 2.46 2.3 2.62 2.3 13.6 2.3 11.73 0 14.93-.82 16.73-4.02.4-.9.82-6.97.82-13.6 0-12.06 0-12.06-2.38-14.43-2.38-2.38-2.38-2.38-14.34-2.38s-11.97 0-14.6 2.38m104.34-1.23c-3.52 1.96-4.1 4.26-4.18 15.82 0 5.9.33 11.72.82 12.86 1.4 3.7 4.6 4.6 15.98 4.6 10.9 0 14.27-.82 15.99-4.02.4-.9.82-6.89.82-13.53 0-11.39-.08-11.96-1.97-14.18-1.97-2.3-1.97-2.3-13.77-2.54-8.69-.08-12.21.08-13.69.99m102.46 0c-3.52 1.96-4.1 4.18-4.18 16.3 0 6.32.41 12.06.82 12.96 1.72 3.2 5.08 4.01 15.98 4.01s14.27-.81 15.99-4.01c.4-.9.82-6.97.82-13.6 0-12.06 0-12.06-2.38-14.43-2.38-2.38-2.38-2.38-13.77-2.38-7.79.08-11.88.4-13.28 1.15m101.4 1.23c-2.7 2.37-2.7 2.37-2.7 14.83s0 12.46 2.7 14.84c2.62 2.37 2.62 2.37 13.68 2.37 6.15 0 11.89-.4 12.96-.9 3.85-1.72 4.67-4.59 4.67-16.3 0-11.81-.74-14.52-4.51-16.24-1.31-.57-6.31-.98-13.12-.98-11.06 0-11.06 0-13.68 2.38M90.05 383.99c-2.54 2.13-2.54 2.13-2.54 14.83 0 12.71 0 12.71 2.46 15.09 2.46 2.46 2.46 2.46 14.84 2.21s12.37-.25 14.34-2.54c1.89-2.21 1.97-2.79 1.97-14.6 0-12.37 0-12.37-2.38-14.75-2.38-2.37-2.38-2.37-14.26-2.37-11.64 0-11.97.08-14.43 2.13m102.63-.17c-2.3 1.97-2.3 2.05-2.54 13.61-.17 7.87 0 12.46.73 14.1 1.64 3.93 4.35 4.75 15.9 4.75 10.9 0 14.27-.82 15.99-4.01.4-.9.82-6.97.82-13.6 0-12.06 0-12.06-2.38-14.44s-2.38-2.37-14.34-2.37c-11.4 0-11.97.08-14.18 1.96m102.46 0c-2.3 1.97-2.3 2.05-2.54 13.61-.17 6.4-.09 12.54.16 13.69.33 1.07 1.72 2.62 3.2 3.52 2.3 1.4 4.1 1.64 13.93 1.64 11.4 0 11.4 0 13.77-2.37 2.38-2.38 2.38-2.38 2.38-14.84s0-12.46-2.38-14.84-2.38-2.37-14.34-2.37c-11.4 0-11.97.08-14.18 1.96" clip-rule="evenodd"/>
</svg>
