<svg xmlns="http://www.w3.org/2000/svg" width="510" height="512" fill="currentColor" viewBox="0 0 510 512">
    <path fill-rule="evenodd" d="M234.65.47q-53.63 5.46-99.83 30.42c-11.23 6.03-28.1 17.33-38.7 25.77-10.91 8.74-29.1 26.93-37.84 37.84-10.3 12.93-22.6 31.89-29.64 45.66C10.9 175.15 2 208.9.16 248.12c-.78 17.1 1.39 41.95 5.41 61.3a305 305 0 0 0 10.14 34.9c4.49 12 11.61 27.48 17.03 37.07a316 316 0 0 0 20.9 31.66c12.14 15.7 30.25 33.74 46.35 46.12 14.32 10.91 32.66 22.13 47.29 28.94 27.78 12.85 56.5 20.6 85.82 23.07 11.92 1.08 33.9 1.08 45.28.07a268 268 0 0 0 53.78-10.83c28.25-9.05 58.9-25.46 82.42-44.11 10.92-8.67 32.9-30.8 41.33-41.8a264 264 0 0 0 23.3-35.52c6.27-11.6 8.51-16.56 13.93-30.26 9.52-24.22 14.93-48.9 16.64-75.84 1.7-26.08-1.01-55.02-7.67-80.95-4.4-17.1-12.61-38.39-21.12-54.48-12.3-23.22-25.7-41.72-43.5-60.21a259 259 0 0 0-89.93-59.98C329.84 10.3 306.78 4.42 286.5 1.63 275.6.16 244.94-.53 234.65.47m45.27 18.27c29.1 3.33 56.42 11.37 81.34 23.99a240 240 0 0 1 76.62 61.14c24.61 29.64 42.41 66.7 50.54 105.48 3.1 14.7 4.48 29.02 4.48 47.29 0 19.58-1.39 33.2-5.1 49.92-9.99 44.34-30.8 83.2-62 115.62-24.3 25.23-55.8 45.66-89.61 58.12-30.1 11.07-64.47 16.1-94.96 13.93-36.68-2.56-69.8-12.38-101.38-29.95a236 236 0 0 1-32.5-21.75c-10-7.9-33.13-31.26-40.33-40.78-23.99-31.5-40.32-69.04-46.74-107.42-2.48-14.86-3.33-31.2-2.63-48.53.85-20.27 3.79-37.07 10.13-57.58 4.18-13.85 7.51-21.97 14.55-36.45 6.27-12.69 12.3-22.9 20.51-34.44 17.1-24.14 41.56-47.28 67.33-63.53 16.64-10.53 39.08-20.67 58.82-26.63 11.14-3.32 28.4-6.88 41.02-8.43 12.77-1.47 36.99-1.55 49.91 0M234.65 81.8a217 217 0 0 0-33.66 7.66 174 174 0 0 0-67.18 40.56c-13.16 12.69-23.3 25.77-31.89 41.17-16.87 30.41-24.53 65.24-21.74 99.37a173 173 0 0 0 8.67 42.18c6.65 19.8 14.78 35.13 27 51.3 7.2 9.6 20.75 23.53 29.8 30.8 25.7 20.52 58.5 34.22 89.93 37.54 5.18.55 15.09.7 24.76.47 11.85-.23 18.66-.78 25.78-2.1a178 178 0 0 0 56.03-20.5c11.06-6.42 14.86-9.06 25.61-17.88 11.77-9.6 22.06-20.82 31.58-34.51 18.19-26.16 28.48-55.5 30.88-87.77.7-9.44.7-15.4 0-24.76-1.09-14.94-2.48-23.22-6.04-36.07-5.96-21.9-15.4-40.86-29.4-59.43-11.7-15.4-25.4-28.25-42.34-39.47a175.4 175.4 0 0 0-77.16-28.64c-7.74-.92-32.89-.85-40.63.08m34.05 16.95c21.2 2.01 38.54 7.04 58.12 16.87 20.74 10.45 41.33 27.63 54.72 45.66 19.42 26.08 29.95 55.57 31.88 89.16.55 9.75-.62 25.85-2.78 37.07-2.32 11.76-8.2 29.1-13.86 40.32-8.43 16.8-16.63 28.32-29.4 41.02-13.24 13.23-25.39 22.05-41.8 30.18a158 158 0 0 1-47.44 15.24c-10.75 1.63-34.59 1.63-45.27 0-27.24-4.33-53.01-15.16-73.68-31.1-30.57-23.61-51.54-57.43-59.43-95.97-.93-4.26-2.01-12.85-2.56-19.04-2.32-29.56 4.88-61.53 19.9-88.54 6.65-11.84 14.16-21.9 24.37-32.5a151 151 0 0 1 33.05-26.31c23.68-14.17 51.93-22.21 79.87-22.76 3.17 0 9.67.31 14.31.7m-28.79 64.62q-13.7 2.55-27.16 9.29c-4.64 2.32-10.53 5.73-13.08 7.58a100 100 0 0 0-26.62 29.8c-4.18 7.2-9.14 20.04-11 28.79-1.85 8.82-2.16 25.23-.61 34.05 1.31 7.58 5.03 19.12 8.36 26.16 6.5 13.7 19.11 28.63 31.34 37.07a95.3 95.3 0 0 0 55.18 17.26c9.05 0 19.04-1.7 28.63-4.8 6.82-2.25 18.73-8.28 24.77-12.62 12.54-8.97 24-22.52 30.57-36.3 6.42-13.54 9.05-23.9 9.83-38.38a95.6 95.6 0 0 0-8.67-43.88c-6.2-13.39-17.88-27.7-30.18-36.76-11.53-8.6-28.56-15.63-42.57-17.65-7.35-1-21.98-.85-28.79.4m28.8 17.5c5.8.92 15.78 4.17 20.89 6.73a82 82 0 0 1 29.17 25.22c7.36 10.45 11.23 19.9 13.47 32.97 2.17 12.54.47 27.86-4.49 40.25a85 85 0 0 1-18.88 27.93c-12.93 12.31-29.26 19.97-46.51 21.67-8.6.86-17.65.16-26.08-2-11.77-3.1-24.7-10.3-33.9-18.97-6.73-6.19-14.16-16.64-18.19-25.38a107 107 0 0 1-4.64-13.31c-1.63-6.12-1.94-9.14-1.94-18.2-.07-9.2.24-11.99 1.94-18.33 2.32-8.67 6.65-18.42 11.37-25.46 4.34-6.35 14.48-16.49 20.82-20.82a82 82 0 0 1 36.45-13.16c6.27-.7 13.08-.39 20.51.85" clip-rule="evenodd"/>
</svg>
