<svg xmlns="http://www.w3.org/2000/svg" fill="currentColor" viewBox="-13.219 -52.986 538.438 538.438">
    <path fill-rule="evenodd" d="M32.57.16c-2.38.4-7.73 2.23-10.3 3.54A40.6 40.6 0 0 0 3.59 23.14a48 48 0 0 0-2.63 7.22C.05 33.79 0 39.76 0 214.41c0 180.51 0 180.51 1.16 184.8 1.31 5 3.74 10.35 6.62 14.54 4.09 6.06 11.3 12.07 17.92 15 1.57.7 4.6 1.77 6.72 2.37 3.94 1.16 3.94 1.16 221.3 1.32 155.38.1 218.5 0 221.27-.4a45 45 0 0 0 13.93-4.55c8.84-4.7 16.41-13.03 20.1-22.12a64 64 0 0 0 2.07-6.2c.86-3.09.91-12.93.91-184.51 0-171.68-.05-181.42-.9-184.55-1.27-4.7-4.9-11.87-7.78-15.4a43.4 43.4 0 0 0-19.6-13.48C480.2.06 480.2.06 257.01 0 134.26-.04 33.27.06 32.57.16m442.62 22.07a21.4 21.4 0 0 1 13.99 11.82c1.61 3.38 1.61 3.38 1.76 180.1.1 160.47.05 176.98-.7 179.5a24.7 24.7 0 0 1-6.72 11.22 21.7 21.7 0 0 1-10.4 5.45c-1.72.35-71.6.45-218.63.4-216.12-.15-216.12-.15-218.9-1.26a24.6 24.6 0 0 1-9.59-7.32 31 31 0 0 1-3.18-5.96c-1.36-3.53-1.36-3.53-1.26-181.62.15-178.14.15-178.14 1.77-181.27 2.98-5.66 6.36-8.64 12.22-10.6 3.33-1.12 3.33-1.12 220.2-1.17 182.13 0 217.27.1 219.44.71m-77.76 35.95c-4.8.91-7.98 2.02-12.67 4.4a47 47 0 0 0-17.52 14.74c-2.58 3.63-6.26 11.2-7.43 15.35a63 63 0 0 0-1.56 8.33c-.5 3.79-.5 5.9 0 9.74 1.36 11.06 5.55 20.45 12.32 27.88a63 63 0 0 0 12.52 9.8c4.3 2.42 11.21 4.69 16.51 5.45 5.05.7 13.18.35 17.47-.81a48 48 0 0 0 22.27-12.57c6.72-6.72 10.8-13.89 13.38-23.53.96-3.49 1.16-5.56 1.16-10.86-.05-3.94-.35-7.98-.8-10.1a52.6 52.6 0 0 0-12.68-23.83 53 53 0 0 0-16.26-11.26 57 57 0 0 0-8.58-2.58 52 52 0 0 0-18.13-.15m-230.2 130.17a12 12 0 0 0-2.67 1.37c-.46.35-5.25 6.1-10.7 12.77l-20.81 25.35c-5.96 7.27-13.23 16.1-16.16 19.64-2.93 3.59-10.3 12.52-16.36 19.9a5449 5449 0 0 0-18.93 22.97c-8.08 9.74-13.18 15.95-20.4 24.74a2753 2753 0 0 0-13.89 16.87c-4.19 5.15-4.19 5.15-4.04 26 .15 20.9.15 20.9 1.67 23.33a10 10 0 0 0 3.74 3.63c2.22 1.16 2.22 1.16 207.42 1.16 187.99 0 205.36-.05 206.82-.8a10.7 10.7 0 0 0 4.95-4.85c.86-1.72.96-3.28.96-21.71.05-19.85.05-19.85-6.16-26.87-3.44-3.88-10.15-11.5-15-16.91-4.8-5.45-10.15-11.51-11.91-13.43-1.72-1.97-8.79-10.05-15.7-17.98-6.93-7.93-21.11-24.13-31.52-36-10.4-11.92-19.64-22.62-20.5-23.78a10.4 10.4 0 0 0-4.14-3.18 14 14 0 0 0-3.73-1.11c-2.07.05-5.2 1.81-6.92 3.99-.9 1.1-7.12 8.38-13.78 16.05a10892 10892 0 0 0-27.27 31.71c-24.94 29.09-31.36 36.36-31.96 36.36-.36 0-1.62-1.16-2.83-2.58a5304 5304 0 0 0-16.36-18.63c-25.25-28.73-33.07-37.67-47.46-54.08-7.73-8.83-17.98-20.5-22.73-25.9-4.7-5.4-9.9-11.36-11.5-13.23-1.62-1.92-3.6-3.84-4.4-4.24a10.8 10.8 0 0 0-7.73-.56" clip-rule="evenodd"/>
</svg>
