<svg xmlns="http://www.w3.org/2000/svg" fill="currentColor" viewBox="-98.877 -70.953 653.909 653.909">
    <path fill-rule="evenodd" d="M432.9.16c-.26.25-80.72 16.47-85.77 17.28-1.17.15-3.09.96-4.3 1.72-2.43 1.52-3.9 4-4.3 7.13-.75 5.7 4.8 11.22 10.57 10.46a347 347 0 0 0 11.77-2.12c15.47-2.94 17.7-3.24 27.15-3.6 6.67-.25 9-.2 9 .2 0 1.02-21.94 27.15-29.32 34.88-9.2 9.76-31.8 30.94-46.25 43.37-28.8 24.71-56.76 46.14-86.28 66.06a833 833 0 0 1-25.67 16.68 927 927 0 0 1-55.1 31.59 1457 1457 0 0 1-32.09 16.02 756 756 0 0 1-30.07 13.75l-9.35 4.04a860 860 0 0 1-52.11 20.12 228 228 0 0 0-12.13 4.44 10.3 10.3 0 0 0-5.26 8.7c0 2.02 1.12 5.05 2.43 6.47.45.55 1.77 1.41 2.83 1.97 1.52.75 2.68.96 4.8.8 4.15-.35 31.8-10.15 54.13-19.25 10.62-4.3 21.84-9 24.36-10.11.91-.45 3.04-1.41 4.7-2.17 3.04-1.37 5.56-2.48 13.15-5.97 11.97-5.56 36.9-17.89 46.75-23.15a875 875 0 0 0 75.56-45.18 875 875 0 0 0 98.3-75.2c18.35-16.23 27.7-25.18 59.9-57.42 9.45-9.46 17.38-17.19 17.64-17.19.55 0 .05 8.85-.96 15.82a674 674 0 0 1-4.4 25.98c-1.42 7.78-1.52 8.9-.96 10.87.86 2.83 3.79 5.6 6.82 6.47 1.92.5 2.73.5 4.65 0a9.7 9.7 0 0 0 6.12-4.76c.45-.85 1.21-3.94 1.72-6.87 1.06-6.06 1.87-10.46 3.74-20.22.7-3.74 1.87-10.1 2.57-14.15.71-4.04 1.87-10.41 2.53-14.15 4.2-23.6 4.9-28.4 4.95-32.45.05-4.04-.05-4.5-1.46-6.52a11 11 0 0 0-3.34-3.08C438.1.46 433.4-.35 432.9.16m-64.04 166.33c-1.16.4-2.88 1.16-3.84 1.77-2.68 1.67-5.66 5.16-6.72 7.94-.96 2.42-.96 6.31-.96 162.94 0 160.48 0 160.48 1.41 163.36a18.3 18.3 0 0 0 9.25 8.44c2.68 1 3.69 1.06 38.06 1.06 38.46 0 37.8.05 42.56-2.93a17 17 0 0 0 4.14-4.3c3.69-5.5 3.39 8.54 3.39-165.63 0-173.81.25-160.67-3.34-166.03a17 17 0 0 0-4.14-4.3c-4.65-3.08-3.95-3.03-42.51-2.98-27.44 0-35.63.16-37.3.66m69.24 16.93c.81.6.86 12.08.86 155.12 0 142.98-.05 154.5-.86 155.37-.76.85-2.42.9-31.99.9-23.55 0-31.29-.15-31.74-.6-.46-.46-.6-35.63-.6-155.07 0-146.52.04-154.55.9-155.26a5 5 0 0 1 1.87-1.06c.56-.16 14.46-.2 30.88-.16 24.52.06 30.03.16 30.68.76m-191.8 66.21c-5.11 2.03-7.9 4.6-10.17 9.5-1.1 2.43-1.1 2.43-1.1 121.2 0 118.78 0 118.78 1.66 122.17 1.82 3.69 4.15 6.01 8.04 7.98 2.42 1.27 2.42 1.27 37.04 1.27 34.63 0 34.63 0 37.15-1.27 3.6-1.77 6.98-5.3 8.4-8.9 1.2-2.97 1.2-2.97 1.2-121.5 0-118.52 0-118.52-1.66-121.9-1.82-3.7-4.15-6.02-8.04-8-2.42-1.25-2.42-1.25-36.29-1.36-31.84-.1-34.01-.05-36.24.81m64.79 16.73c1.01 1.01 1.01 1.67 1.01 113.62 0 101.09-.1 112.71-.8 113.72-.77 1.12-.77 1.12-29.53 1.12-28.75 0-28.75 0-29.51-1.12-.71-1-.81-12.63-.81-113.67 0-112.6 0-112.6 1.31-113.62 1.32-1.06 1.77-1.06 29.32-1.06 27.34 0 28 0 29.01 1.01M143.54 315.4c-12.08.2-14.45.4-16.12 1.16a19 19 0 0 0-7.68 6.72c-2.89 4.9-2.78.5-2.63 91.28.15 77.79.2 83.7 1 86.08.51 1.36 1.78 3.64 2.84 5.05a14 14 0 0 0 5.36 4.3c3.48 1.77 3.48 1.77 37 1.92 32.8.1 33.5.1 36.28-.91a18.4 18.4 0 0 0 9.25-8.5c1.42-2.87 1.42-2.87 1.57-87.78.1-60-.05-85.57-.4-87.14a20 20 0 0 0-2.38-5c-2.02-2.99-5.66-5.71-9-6.62-2.32-.66-33.2-.96-55.09-.56m49.48 17.49c.71.7.81 8.69.81 80.56s-.1 79.86-.8 80.57c-.72.7-4.05.8-29.27.8-28.5 0-28.5 0-29.27-1.1-.7-1.02-.8-9.46-.8-79.91 0-58.38.15-79.05.55-79.86.35-.6.86-1.27 1.16-1.47s13.25-.4 28.71-.4c24.92 0 28.2.1 28.91.8m-181.5 33.76c-1.16.4-2.88 1.16-3.89 1.77a18 18 0 0 0-6.62 8.19C0 379.28 0 380.59 0 439.47c0 60.15 0 60.15 1.42 63.03a18.4 18.4 0 0 0 9.24 8.49c2.78 1.01 3.5 1.01 36.3.9 33.4-.14 33.4-.14 36.79-1.81 1.82-.91 4.1-2.48 5-3.49a26 26 0 0 0 2.93-4.7C93 499.11 93 499.11 93 438.97s0-60.15-1.47-63.33a17 17 0 0 0-9.2-8.65c-2.67-1-3.69-1.06-35.73-1-25.62 0-33.4.14-35.08.65m64.14 16.83c.86.76.91 3.13.91 55.14 0 49.89-.05 54.44-.86 55.3-.76.85-2.37.9-29.51.9-27.9 0-28.76-.05-29.27-.95-.35-.66-.5-18.76-.5-55.1 0-53.47 0-54.13 1-55.14 1.02-1 1.68-1 29.17-1 25.47 0 28.2.1 29.06.85" clip-rule="evenodd"/>
</svg>
