<svg xmlns="http://www.w3.org/2000/svg" fill="currentColor" viewBox="-51.543 -15.553 543.097 543.097">
    <path fill-rule="evenodd" d="M214.47 2.37c-2.37 1.25-12.64 7-22.91 12.73-10.22 5.74-19.53 10.98-20.64 11.58s-5.74 3.22-10.32 5.8c-4.58 2.56-18.48 10.36-30.96 17.26-12.44 6.9-27.29 15.15-32.98 18.33S79.9 77.43 72 81.8 49.84 94.14 40.28 99.43a4848 4848 0 0 1-20.4 11.33C6.76 117.96 1.42 121.08.77 121.98.1 122.94 0 138.85 0 255.55 0 387.8 0 388 1 389.3a6 6 0 0 0 2.12 1.66c.56.15 2.17.96 3.53 1.76 1.35.81 7.3 4.18 13.14 7.46 5.89 3.27 20.74 11.57 33.07 18.52 12.34 6.9 25.02 13.95 28.2 15.71s7.85 4.38 10.31 5.84c6.25 3.57 26.23 14.95 37.76 21.4 9.06 5.08 17.52 9.86 32.22 18.12 14.75 8.3 17.93 10.07 24.17 13.6 3.62 2 12.48 7.04 19.78 11.17 7.5 4.23 13.8 7.45 14.5 7.45 1.46 0 2.52-.55 22.6-11.98a5665 5665 0 0 0 24.42-13.85c5.4-3.07 11.63-6.6 13.85-7.9s8.56-4.93 14.1-8.06l17.87-10.06 20.13-11.33c6.8-3.83 16.06-9.11 20.65-11.73 4.53-2.62 9.31-5.34 10.57-6a69 69 0 0 0 3.77-2.1c1.31-.81 42.65-24.17 62.68-35.45 4.03-2.27 7.8-4.63 8.41-5.24 1.16-1.1 1.16-1.1 1.16-133.5 0-80.91-.2-132.87-.46-133.62-.35-.8-1.8-1.97-4.43-3.37l-7.7-4.28c-2.06-1.16-8.4-4.69-14.1-7.8-10.42-5.75-19.23-10.63-40.77-22.56-6.5-3.58-22-12.13-34.49-18.98a3620 3620 0 0 1-23.86-13.2c-.7-.44-3.43-1.95-6.04-3.41a159048.41 159048.41 0 0 1-57.95-31.72C237.93 8.9 220.86 0 219.91 0c-.66 0-3.08 1.06-5.44 2.37m11.02 9.86c2.67 1.51 8.1 4.48 12.13 6.65s10.48 5.69 14.35 7.8c8.81 4.84 23.61 12.94 27.94 15.26 1.77 1 3.33 1.96 3.38 2.21.1.2-2.42 1.81-5.5 3.48a1756 1756 0 0 0-24.81 13.79c-30.1 16.87-32.67 18.27-33.23 18.27-.25 0-4.48-2.21-9.31-4.93-4.83-2.67-11.08-6.14-13.85-7.65-2.77-1.56-7.5-4.23-10.57-5.94a1768 1768 0 0 0-25.27-14.15c-2.01-1.06-3.68-2.16-3.68-2.47 0-.25.86-.9 1.92-1.4 1-.5 9.66-5.3 19.23-10.68 31.97-17.87 41.03-22.85 41.73-22.85.36-.05 2.82 1.15 5.54 2.61m76.22 41.84c4.79 2.57 16.36 8.96 25.78 14.15l21.8 11.98c2.51 1.4 4.63 2.77 4.63 3.07-.05.3-10.07 6.24-22.3 13.24-43.85 24.97-40.13 22.96-41.59 22.3-1.16-.5-22.65-12.48-43.1-23.91l-9.56-5.29a162 162 0 0 1-7.95-4.53c-.5-.45-1-.1 20.29-11.93 14.95-8.3 18.98-10.57 35.74-19.99 3.73-2.11 7-3.82 7.2-3.82s4.28 2.11 9.06 4.73m-145.74.1c4.38 2.42 10.42 5.79 13.44 7.5 3.07 1.76 8.96 5.04 13.09 7.3 17.42 9.57 27.94 15.6 27.94 16.01 0 .2-1.21 1-2.67 1.81-1.4.8-15.25 8.56-30.71 17.22-28.04 15.8-28.04 15.8-43.8 6.9a2968 2968 0 0 0-22-12.39 476 476 0 0 1-9.31-5.38c-1.66-1.01-5.8-3.38-9.17-5.29-3.42-1.91-6.19-3.72-6.19-3.98 0-.3 1.86-1.56 4.18-2.77 4.18-2.21 13.3-7.3 33.33-18.42 17.67-9.82 23.1-12.79 23.56-12.84.25 0 3.98 1.96 8.3 4.33M374.8 94.29c4.99 2.77 15.4 8.56 23.16 12.84 14.55 8.1 15.25 8.46 22.4 12.34a70 70 0 0 1 5.24 3.02c1 .75 1.81.2-12.79 8.4l-17.87 10.07a1744 1744 0 0 1-30.86 17.07c-1.96 1-1.96 1-10.98-4.08-4.93-2.77-12.28-6.84-16.3-9.11-4.04-2.22-13.4-7.45-20.9-11.58-7.45-4.13-14-7.85-14.5-8.15-.86-.6-.8-.71.5-1.67 1.26-.85 13.4-7.9 22.81-13.19q5.22-2.94 26.68-15.25c4.84-2.77 9.52-5.39 10.32-5.9 1.16-.65 1.82-.7 2.77-.3a329 329 0 0 1 10.32 5.5m-287.26.46c5.44 3.07 13.29 7.6 17.42 9.97 4.18 2.41 13.34 7.6 20.39 11.57a529 529 0 0 1 13.54 7.8c.55.56.2.96-2.01 2.37-1.51.96-9.42 5.5-17.57 10.07s-20.7 11.68-27.9 15.71c-7.14 4.03-13.19 7.35-13.39 7.35-.55 0-14.45-7.55-39.77-21.65a913 913 0 0 0-12.33-6.8c-6.6-3.47-11.83-6.54-11.83-6.9 0-.3 7.35-4.47 41.03-23.2A1527 1527 0 0 0 74.5 90.22c.96-.6 2.06-1.11 2.47-1.11.4 0 5.13 2.52 10.57 5.64m151.79 5.74c10.27 5.74 23.76 13.24 30 16.71a529 529 0 0 1 11.98 6.8c.5.4.25.8-1.26 1.7-2.92 1.82-39.31 22.51-51.6 29.31-8.36 4.68-8.36 4.68-19.63-1.61-6.2-3.42-14.85-8.3-19.28-10.78-4.43-2.51-11.78-6.64-16.37-9.2-4.58-2.58-9.86-5.6-11.78-6.65-3.42-2.02-3.42-2.02-.05-3.98 1.87-1.1 7.25-4.13 11.98-6.8 4.79-2.67 12.29-6.9 16.72-9.41l12.33-6.9c2.37-1.3 7.1-3.98 10.58-5.94 3.47-2.01 6.64-3.62 7-3.62.4 0 9.16 4.68 19.38 10.37m-82.37 33.63c4.08 2.31 11.48 6.44 16.47 9.26a4162 4162 0 0 1 27.94 15.7c2.36 1.32 5.28 2.98 6.54 3.63 1.21.7 2.32 1.51 2.42 1.81.05.26-.8 1.06-2.02 1.72-1.2.65-4.53 2.61-7.45 4.28l-11.58 6.54-22.9 12.99c-9.11 5.23-16.87 9.46-17.17 9.46s-2.37-1-4.53-2.26c-2.22-1.26-8.71-4.94-14.55-8.2-5.79-3.28-15.1-8.52-20.64-11.64s-12.64-7.1-15.81-8.86c-3.17-1.81-5.84-3.47-5.94-3.77s3.93-2.87 9.01-5.7c5.09-2.86 11.93-6.74 15.26-8.6 3.32-1.86 12.83-7.25 21.14-11.93 8.3-4.74 15.4-8.61 15.76-8.61.3-.05 3.92 1.86 8.05 4.18m138.7-2.27c3.47 1.91 31.32 17.37 37.1 20.64 1.52.86 6.3 3.53 10.58 5.9 11.68 6.44 10.92 5.43 5.99 8.2-4.38 2.47-27.09 15.25-41.99 23.61-4.68 2.67-10.22 5.79-12.28 6.95-3.68 2.11-3.83 2.11-5.29 1.36-.85-.46-6.44-3.53-12.38-6.85s-13-7.2-15.61-8.66c-13.09-7.2-27.24-15.1-29.6-16.51-1.46-.86-2.57-1.76-2.52-1.97.25-.65 60.46-34.53 61.47-34.58.45-.05 2.52.85 4.53 1.91m136.28 37c0 30.06-.1 38.01-.6 38.47-.86.65-31.27 18.07-49.64 28.4-7.85 4.37-14.45 7.84-14.7 7.7-.3-.2-.5-14.96-.45-38.27 0-34.89.1-37.96.85-38.61.76-.66 9.16-5.44 32.83-18.68a2025 2025 0 0 0 18.37-10.37c6.4-3.62 11.98-6.6 12.44-6.6.8 0 .85 2.47.9 37.96M18.63 136.94c3.17 1.7 10.77 5.94 16.86 9.31s17.12 9.46 24.47 13.54c13.4 7.4 13.4 7.4 13.64 44.8.15 20.55.15 38.12.05 38.92-.25 1.57-.25 1.57-3.12.05-2.87-1.56-49.44-27.63-57.7-32.32-4.52-2.56-4.52-2.56-4.67-40.57-.05-20.9 0-38.32.15-38.67.2-.5.75-.35 2.36.56 1.21.7 4.79 2.66 7.96 4.38m211.6 38.16c5.33 3.02 12.03 6.8 14.95 8.4 2.92 1.62 8.8 4.89 13.09 7.3 4.27 2.42 11.37 6.4 15.75 8.81 6.4 3.53 7.86 4.54 7.3 5.04-.35.3-4.83 2.92-9.97 5.79-5.13 2.87-12.13 6.8-15.6 8.8-16.06 9.22-35.2 19.9-35.7 19.9-.3 0-4.22-2.07-8.7-4.59-4.54-2.56-12.94-7.25-18.78-10.52-5.8-3.27-13.3-7.45-16.62-9.31-3.32-1.92-8.5-4.84-11.53-6.55-3.07-1.7-5.58-3.32-5.68-3.57-.06-.25 1.7-1.46 4.02-2.77 4.43-2.42 46.22-25.98 52.96-29.85a40 40 0 0 1 4.43-2.32c.2 0 4.74 2.47 10.07 5.44m128.22 35.19-.05 38.66-22 12.49c-12.08 6.84-26.18 14.85-31.31 17.72-5.09 2.92-9.42 5.08-9.57 4.88s-.15-17.67 0-38.81c.25-38.52.25-38.52 11.33-44.76l41.03-23.2c5.38-3.08 9.97-5.6 10.22-5.6.2 0 .35 17.37.35 38.62m-263.3-31.06a6873 6873 0 0 0 45.61 25.52c4.08 2.27 4.08 2.27 4.33 8.6.3 7.2.05 71.1-.25 71.45-.15.1-1.56-.56-3.17-1.41-7.45-4.08-58.4-32.83-58.95-33.28-.5-.4-.66-8.81-.66-38.92 0-21.09.15-38.51.3-38.66.2-.2.5-.25.66-.15.15.1 5.64 3.17 12.13 6.85m191.81 71.38v38.72l-25.02 14.3c-13.8 7.8-27.79 15.8-31.06 17.67-3.32 1.9-6.2 3.27-6.45 3.02-.2-.2-.35-17.72-.3-38.87.15-38.51.15-38.51 4.43-40.98 3.98-2.26 8.26-4.68 16.62-9.36 1.8-1.01 11.07-6.25 20.64-11.68 19.28-10.93 20.24-11.43 20.79-11.48.2 0 .35 17.42.35 38.66m-124-33.43c4.64 2.57 11.99 6.7 16.27 9.12 10.42 5.89 21.4 12.08 29.8 16.76 6.95 3.88 6.95 3.88 6.95 42.84 0 36.3-.05 38.92-.86 38.62-1.1-.45-30.4-16.82-37.66-21.05-1.66-.95-7.7-4.43-13.44-7.65-10.47-5.94-10.47-5.94-10.47-44.65 0-22.6.2-38.72.45-38.72s4.28 2.12 8.96 4.73m268.94 40.93c.05 36.35.05 36.35-2.06 37.56-2.87 1.61-11.38 6.45-24.92 14.15-6.2 3.47-16.26 9.21-22.4 12.68-6.2 3.53-12.19 6.9-13.3 7.56-1.56.9-2.16 1-2.36.55-.4-1.1-.4-75.57 0-76.12.45-.6 13.24-8 37.4-21.7 4.03-2.26 11.73-6.64 17.12-9.66 9.82-5.6 9.82-5.6 10.17-3.48.15 1.16.35 18.48.35 38.46m-417.8-36.4c12.13 6.85 37.86 21.3 42.18 23.72 13.6 7.45 16.97 9.41 17.32 9.97.2.3.3 2.87.2 5.63-.1 2.77-.2 19.94-.25 38.17-.05 33.07-.05 33.07-2.92 31.46-1.6-.86-7.1-3.93-12.23-6.8S39.92 313.5 28.7 307.2L8.3 295.77l-.14-38.41c-.1-31.01 0-38.36.55-38.36.35 0 2.77 1.2 5.39 2.72m344.35 75.97c0 38.42 0 38.42-4.38 40.88-5.19 2.82-24.37 13.75-44.1 24.98-7.65 4.43-14.05 8-14.2 8s-.2-17.37-.15-38.56c.15-38.57.15-38.57 3.68-40.63 1.96-1.1 5.43-3.07 7.8-4.38 2.37-1.26 10.62-6 18.37-10.42 21.25-12.14 32.17-18.28 32.63-18.28.2 0 .35 17.27.35 38.41m-254.59-25.77c11.38 6.44 25.27 14.2 30.81 17.32 10.07 5.64 10.07 5.64 10.32 12.89.4 9.96.3 69.27-.1 69.67-.4.45-2.11-.45-20.24-10.72-8.6-4.83-18.12-10.22-21.2-11.93-3.01-1.72-6.44-3.63-7.54-4.28-1.11-.6-4.28-2.42-7.05-3.93a61 61 0 0 1-5.9-3.52c-.85-.7-.9-3.23-.9-38.97 0-25.47.15-38.16.5-38.16.3 0 9.87 5.24 21.3 11.63m182.75 104.71c-.25.2-5.59 3.33-11.98 6.9-14.5 8.2-26.33 14.9-39.42 22.4-5.64 3.28-10.42 5.9-10.73 5.9-.25 0-.45-14.7-.45-38.27 0-38.2 0-38.2 1.16-39.01 1.1-.86 6.04-3.63 52.96-30.16 8.56-4.88 8.56-4.88 8.71 33.53.05 21.1-.05 38.51-.25 38.71m-128.53-74.3a7267.98 7267.98 0 0 0 45.96 25.93c11.94 6.69 11.94 6.69 11.94 45.1 0 23.16-.2 38.47-.46 38.47-.4 0-9.36-4.99-54.92-30.71-6.8-3.83-6.8-3.83-6.95-42.44-.05-21.25 0-38.62.1-38.62s2.01 1 4.33 2.27m273.72 41.73c.05 38.62.05 38.62-1 39.27-1.31.76-18.58 10.62-24.02 13.7-2.06 1.15-11.83 6.64-21.65 12.18s-18.02 10.02-18.17 9.86c-.45-.25-.56-76.87-.1-77.53.35-.5 16.96-10.06 39.67-22.85 3.32-1.86 10.12-5.69 15.1-8.51s9.27-5.03 9.57-4.93c.35.15.55 12.83.6 38.81M29.15 317.27c10.97 6.09 22.2 12.43 24.97 14l12.18 6.84c7.2 3.98 7.2 3.98 7.3 33.68.05 16.31.1 32.78.15 36.5.05 3.73 0 8-.15 9.42-.2 2.66-.2 2.66-2.31 1.46-1.11-.66-4.33-2.42-7.1-3.98A6430 6430 0 0 1 9.2 384.23c-1.15-.7-1.15-.7-1.15-39.42 0-29.55.15-38.72.6-38.72.3 0 9.56 5.04 20.49 11.18m329.3 68.06c0 38.92 0 38.92-8.16 43.6-4.53 2.57-9.91 5.64-11.98 6.8-2.06 1.2-10.47 5.94-18.62 10.57s-16.82 9.57-19.24 10.93-4.58 2.36-4.78 2.26c-.25-.15-.35-17.72-.25-39.07.1-38.76.1-38.76 3.52-40.72l21-11.94a3616 3616 0 0 0 27.43-15.65c5.4-3.12 10.12-5.7 10.48-5.7.45-.04.6 8.06.6 38.92m-260.88-29.8c7.95 4.48 18.62 10.52 23.76 13.44 10.12 5.7 15.6 8.81 20.54 11.48 3.12 1.71 3.12 1.71 3.17 7.1.2 18.12 0 72.24-.3 72.5-.15.2-1.16-.16-2.17-.71-1-.55-4.78-2.67-8.4-4.73-3.58-2.02-9.37-5.29-12.84-7.2-8.1-4.53-24.12-13.54-32.57-18.43-6.7-3.82-6.7-3.82-6.7-42.74 0-27.74.15-38.87.55-38.87.3 0 7.05 3.68 14.96 8.16m189.3 70.23c-.16 39.12-.16 39.12-3.18 40.83-1.66.96-5.29 3.02-8.06 4.63-4.98 2.87-30.45 17.32-39.26 22.3-2.47 1.41-6 3.43-7.76 4.48-1.81 1.06-3.57 1.92-3.92 1.92-.56 0-.66-7.15-.66-38.97 0-39.02 0-39.02 4.94-41.73 4.58-2.52 13.19-7.46 44.4-25.18 7.05-4.02 12.99-7.35 13.24-7.35.2-.05.3 17.57.25 39.07m-108.35-24.72a4611 4611 0 0 0 31.06 17.42c6.4 3.58 6.4 3.58 6.4 42.44 0 21.35-.15 38.97-.3 39.17-.16.15-1.21-.25-2.27-.96a17 17 0 0 0-2.17-1.2c-.2 0-46.92-26.24-54.27-30.46-3.42-1.97-3.42-1.97-3.42-41.14 0-21.54.1-39.16.15-39.16.1 0 11.28 6.24 24.82 13.9" clip-rule="evenodd"/>
</svg>
