<svg xmlns="http://www.w3.org/2000/svg" fill="currentColor" viewBox="40 40 432 432">
    <path d="M100.0 256.0a156.0 156.0 0 1 1 312.0 0a156.0 156.0 0 1 1 -312.0 0ZM134.0 256.0a122.0 122.0 0 1 0 244.0 0a122.0 122.0 0 1 0 -244.0 0ZM241.0 40.0L271.0 40.0L271.0 150.0L241.0 150.0ZM241.0 362.0L271.0 362.0L271.0 472.0L241.0 472.0ZM40.0 241.0L150.0 241.0L150.0 271.0L40.0 271.0ZM362.0 241.0L472.0 241.0L472.0 271.0L362.0 271.0ZM226.0 222.0a30.0 30.0 0 1 1 60.0 0a30.0 30.0 0 1 1 -60.0 0ZM194.0 278.0a30.0 30.0 0 1 1 60.0 0a30.0 30.0 0 1 1 -60.0 0ZM258.0 278.0a30.0 30.0 0 1 1 60.0 0a30.0 30.0 0 1 1 -60.0 0Z"/>
</svg>
