<svg xmlns="http://www.w3.org/2000/svg" fill="currentColor" viewBox="-73.061 -69.416 650.822 650.822">
    <path fill-rule="evenodd" d="M441.18.48c-1.71.5-8.21 6.96-39.32 39.17Q382.3 59.98 381.3 62.08c-.91 2.02-.91 2.67-.06 26.67.76 22.28.76 24.65.06 25.66-.4.65-10.6 11.03-22.59 23.08-77.07 77.63-129.15 130.61-130.05 132.33-1.16 2.11-1.16 5.95.05 8.26a8.6 8.6 0 0 0 2.67 2.88c2.27 1.3 6.15 1.3 8.52 0 1-.56 17.09-16.54 35.79-35.54s45.42-46.13 59.43-60.24c14.01-14.17 32.97-33.27 42.1-42.55 16.63-16.83 16.63-16.83 39.56-16.48 14.67.2 23.6.1 24.75-.2 1.42-.4 8.07-6.7 31.66-30.1 16.44-16.28 30.25-30.24 30.7-31.1.4-.86.8-2.72.8-4.08a7.8 7.8 0 0 0-4.08-7.16c-1.81-1-3.07-1.1-23.34-1.66-11.8-.3-21.47-.6-21.52-.7-.25-.26-1.16-11.9-2.17-27.03-.55-8.72-1.26-16.84-1.56-18a8.9 8.9 0 0 0-5.55-5.7c-2.01-.6-3.17-.55-5.29.06m-4.03 30.55c.15 1.36.76 8.82 1.31 16.68.55 7.82 1.26 14.87 1.56 15.63a7.6 7.6 0 0 0 3.73 4.03c1.21.6 4.59.86 16.39 1.21 8.16.25 14.97.56 15.12.7.15.16-8.77 9.23-19.81 20.22-20.12 19.86-20.12 19.86-38.06 19.56-9.93-.2-18.15-.5-18.35-.7-.15-.16-.6-9.18-.96-20.02-.65-19.76-.65-19.76 8.92-29.49 5.25-5.39 13.97-14.36 19.36-19.96 5.4-5.54 9.98-10.18 10.18-10.18.16-.05.46 1 .6 2.32M222.2 37.28a269 269 0 0 0-45.06 7.06 224 224 0 0 0-48.45 18.55 217 217 0 0 0-26.71 16.13 174 174 0 0 0-17.3 13.36c-11.9 10.18-24.95 23.79-33.97 35.33a259 259 0 0 0-19.2 28.74c-3.64 6.45-9.68 18.55-12.15 24.45-9.18 21.57-15.73 46.47-18.2 69.4-1.11 10.14-1.51 29.5-.8 40.24a264 264 0 0 0 5.84 39.32c1.56 6.55 5.3 18.75 8.01 26.06 8.17 21.98 18.3 40.78 31.3 58.07 5.86 7.76 9.79 12.45 17.8 21.17a254 254 0 0 0 31.91 28.89c21.07 15.97 46.43 29.28 71.03 37.2 4.03 1.26 11.4 3.32 16.38 4.53 17.34 4.29 29.14 5.75 48.65 6.15 21.27.4 36.54-1 55.2-5.14 31.1-6.9 60.34-19.8 85.34-37.65 10.53-7.57 18.95-14.72 29.39-25.1 15.52-15.43 26.16-28.94 36.9-46.89 4.38-7.3 12-22.83 15.67-31.86 6.76-16.58 12.05-35.43 14.67-52.12a224 224 0 0 0 2.98-38c-.05-26.73-3.73-49.76-12-74.77a217 217 0 0 0-23.34-49.55c-3.83-6.1-3.83-6.1-13.96-6.35-5.55-.15-10.24-.2-10.34-.1s.96 1.71 2.32 3.58c3.28 4.53 8.22 12.3 11.8 18.6a224 224 0 0 1 26.61 78.08c1.62 11.55 2.07 18.1 2.07 30.5 0 12.35-.45 19.36-2.07 31a171 171 0 0 1-5.24 25.71c-6.8 24.9-16.89 47.13-30.4 67.05a210 210 0 0 1-28.02 33.67 211 211 0 0 1-31.56 25.91 193 193 0 0 1-21.42 12.55c-15.43 7.92-29.5 13.26-47.14 17.8a211 211 0 0 1-75.86 5.09c-12.05-1.46-18.75-2.72-29.54-5.6a225 225 0 0 1-53.64-21.77c-9.42-5.25-24.25-15.48-32.26-22.24-7.26-6.1-17.09-15.27-21.27-19.8C57.72 404.35 44.5 384.1 34.23 360a227 227 0 0 1-12.86-40.73c-2.22-10.18-3.12-15.63-3.78-22.94-2.37-25.6-.35-49.95 6.3-76.37 3.68-14.57 10.54-33.02 17.14-45.87a196 196 0 0 1 13.36-22.53 223 223 0 0 1 46.88-51.12 267 267 0 0 1 24.15-16.43c17.29-10.03 33.97-17.14 51.97-22.08 13.96-3.83 29.69-6.5 44.56-7.61 9.63-.7 27.52-.3 36.55.75 7.56.91 19.76 3.03 25.66 4.39 6.6 1.51 19.96 5.44 23.94 6.96 1.97.8 5.5 2.16 7.86 3.07 4.94 1.87 24.76 11.54 30 14.62a409 409 0 0 1 10.23 6.4c3.68 2.37 6.76 4.24 6.86 4.13.1-.1 0-4.68-.2-10.18-.26-7.56-.5-10.18-1.06-10.68-1.16-1.11-13.82-8.17-21.33-11.95a219 219 0 0 0-27.57-11.75 262 262 0 0 0-34.73-9.27 276 276 0 0 0-30.25-3.58c-9.98-.56-16.58-.56-25.7.05m-.25 77.58a174 174 0 0 0-38.36 8.57c-17.85 6.1-31.3 13.46-47.08 25.66-5.85 4.53-20.12 18.8-25.2 25.25a197 197 0 0 0-14.98 22.43 183 183 0 0 0-13.66 32.27c-5.44 18.2-7.56 33.92-7 52.42.45 14.37 1.9 24.15 5.64 37.7a164 164 0 0 0 10.84 28.34c9.12 18.65 21.67 35.34 36.54 48.6 8.77 7.8 13.56 11.54 22.18 17.03 6.91 4.39 12.56 7.46 19.66 10.64 12.2 5.5 26.67 9.88 40.23 12.2 3.28.55 10.28 1.26 15.53 1.61 7.36.45 11.64.45 18.75 0 11.09-.7 17.44-1.61 27.07-3.93 12.55-2.98 22.13-6.45 34.53-12.55 24.04-11.8 43.8-28.99 59.83-51.98a168 168 0 0 0 27.88-71.27c1.11-8.22 1.51-25.81.8-35.04a164 164 0 0 0-7.65-38.16c-4.5-13.5-10.09-25-18.25-37.6-2.17-3.38-4.14-6.15-4.34-6.15-.45 0-11.64 11.29-11.64 11.74 0 .2 1.26 2.37 2.82 4.79 4.69 7.3 11.8 22.28 14.72 30.85 4.13 12.35 6.65 23.9 7.66 35.54.91 11.14.5 22.68-1.3 34.53-1.02 6.65-4.1 18.65-6.71 26.31-2.52 7.26-7.72 18.6-11.55 25.06-10.28 17.59-24.2 33.06-39.62 44.1a151 151 0 0 1-40.68 20.42c-15.78 5.1-29.74 7-47.33 6.45-10.29-.35-16.49-1.06-24.9-2.87a145 145 0 0 1-57.88-27.37c-12.85-10.08-23.89-21.88-32.36-34.63-11.6-17.34-19.46-38.01-22.58-59.03-.96-6.5-1.11-9.83-1.11-20.37.05-13.2.7-20.72 2.82-30.5 4.03-19.05 12.25-37.55 23.8-53.93 5.24-7.42 8.82-11.65 16.38-19.21 10.18-10.13 18.2-16.23 30.55-23.19 16.23-9.07 34.22-14.92 53.48-17.39 9.58-1.26 24.95-1.1 34.99.3 10.33 1.41 15.87 2.67 24.44 5.4 11.04 3.57 21.28 8.36 32.92 15.42 4.19 2.57 4.19 2.57 10.08-3.38 5.9-5.9 5.9-5.9 4.14-7.4-.96-.81-3.94-2.83-6.56-4.44-19.7-12.1-39.92-19.36-62.5-22.49-6.86-.95-28.33-1.4-35.04-.75m7.46 76.17a72 72 0 0 0-19.6 4.03c-7.57 2.62-11 4.18-16.74 7.66a83 83 0 0 0-17.9 14.42 85 85 0 0 0-14.82 21.27c-2.67 5.45-5.5 13.92-6.9 20.62-2.02 9.88-1.97 24.55.1 34.03 3.27 14.92 9.93 28.28 19.5 39.21 10.8 12.36 26.22 21.93 41.6 25.81 7.7 1.97 12.34 2.47 21.16 2.47 8.62 0 12.56-.45 20.67-2.52 6.3-1.56 10.64-3.22 17.2-6.55 14.16-7.2 26.46-19.15 34.42-33.37a90 90 0 0 0 10.33-31.1c.71-5.8.71-16.89 0-22.69-.3-2.52-1.2-7.05-1.96-10.13-1.41-5.54-5.1-15.53-6.35-17.19-.6-.8-1.21-.35-6.8 5.2-6.1 6.1-6.1 6.1-4.75 10.02 2.32 6.76 3.28 12.15 3.63 20.27.36 9.17-.25 14.57-2.67 22.99a65.4 65.4 0 0 1-13.56 25.05 67 67 0 0 1-36.55 21.93c-2.06.45-7.15.96-11.34 1.1-8.97.3-15.57-.55-22.53-2.87a66 66 0 0 1-27.73-17.54 68 68 0 0 1-18.6-36.65c-.96-6.15-.75-17.19.46-23.29a71.6 71.6 0 0 1 12.55-28.58c3.88-5.2 10.94-11.95 15.83-15.17s12.35-6.9 17.24-8.52c7.16-2.32 12.04-3.08 20.51-3.03 6 .05 9.03.3 13 1.16 2.83.6 6.61 1.62 8.38 2.27 3.22 1.16 3.22 1.16 9.32-4.94 3.38-3.38 6.1-6.3 6.1-6.45 0-.7-4.89-2.87-11.64-5.14a80.5 80.5 0 0 0-31.56-3.78" clip-rule="evenodd"/>
</svg>
