<svg xmlns="http://www.w3.org/2000/svg" width="512" height="489" fill="currentColor" viewBox="0 0 512 489">
    <path fill-rule="evenodd" d="M331.25 1.24a13.2 13.2 0 0 0-6.8 6.48c-1.18 2.42-1.9 4.97-10.2 36.44-2.36 8.96-4.39 16.41-4.52 16.55-.13.06-1.3-.53-2.68-1.44-3.27-2.23-8.24-4-13.87-4.98a26 26 0 0 0-9.29-.06c-9.55 1.5-15.9 4.64-22.3 11.12-5.5 5.56-8.9 12.17-10.34 20.34-.92 5.43-.92 6.35.06 11.9 1.5 8.7 4.58 14.6 10.86 20.88 3.54 3.53 6.22 5.56 9.42 7.06 5.5 2.62 12.7 4.19 17.67 3.86 2.94-.2 3.72-.06 3.72.66 0 .52-3 12.36-6.67 26.23a941 941 0 0 0-6.93 27.4c-.13 1.12-.07 3.15.13 4.39.52 2.55 3.6 6.47 6.21 7.78.92.46 7 2.42 13.48 4.32 6.47 1.83 17.99 5.3 25.51 7.65 8.63 2.69 14.98 4.32 17.14 4.39 2.94.06 3.66-.2 5.43-1.9 1.11-1.05 2.29-3.01 2.75-4.32.58-1.96.45-3.27-.46-6.74-1.64-5.95-1.18-13.21 1.18-18.31 3.2-7 8.83-11.9 16.02-14.13a31 31 0 0 1 7.66-1.31c7.91 0 16.35 4.58 20.73 11.25 3.6 5.56 4.12 7.4 4.12 14.92 0 5.95-.2 7.32-1.57 10.07-.85 1.7-3 4.97-4.77 7.13-1.77 2.22-3.34 4.71-3.6 5.56a9 9 0 0 0 2.55 8.37c2.3 2.1 1.64 1.84 46.38 14.26 8.5 2.36 16.75 4.32 18.19 4.32 2.74 0 5.95-1.24 8.17-3.2.66-.6 1.7-2.1 2.36-3.34s5.17-17.34 10.07-35.65c4.9-18.38 11.32-42.52 14.4-53.64 3-11.19 8.76-32.45 12.75-47.36 4.05-14.92 7.52-28.46 7.72-30.1.46-4.18-1.31-10.72-4.06-14.97-2.29-3.34-6.28-6.8-9.48-8.11-.92-.4-14-4.2-29.11-8.44-15.11-4.32-30.42-8.7-34.02-9.75a13229 13229 0 0 0-86.41-24.47C344.14 1.05 338.84 0 337.07 0s-4.38.59-5.82 1.24m14.07 12.82c9.74 2.69 38.85 10.93 89.94 25.45 18.38 5.17 38.8 10.99 45.46 12.82 6.68 1.9 13.02 4 14.2 4.65a12.6 12.6 0 0 1 5.1 7.58c.46 2.16-1.7 10.67-12.43 50.24-2.61 9.68-7.45 27.67-10.79 39.9a8116 8116 0 0 1-8.83 32.71c-1.57 5.76-4.65 17.4-6.87 25.84a579 579 0 0 1-4.32 15.83c-.2.27-1.7 0-3.4-.45-1.7-.53-13.34-3.73-25.9-7.2-12.56-3.4-23.03-6.35-23.23-6.54s.2-1.18.86-2.16a48 48 0 0 0 5.3-12.23c.52-2.1.97-6.48.97-9.62 0-10.14-4.05-19.62-11.7-27.15-3.86-3.79-10.6-7.58-16.16-9.02-4.45-1.18-12.5-1.31-17.4-.27-5.24 1.05-12.7 5.04-16.94 8.97a37 37 0 0 0-10.67 16.55c-1.57 4.58-1.83 6.6-1.83 11.84 0 3.92-.26 6.4-.65 6.4-.33 0-7-1.89-14.79-4.24-7.85-2.3-17.72-5.24-22.04-6.48-6.48-1.9-7.85-2.49-7.72-3.47.06-.65 2.88-11.9 6.28-25.05 9.48-36.76 9.1-34.54 7.33-38.2-1.97-4.06-5.76-5.1-13.61-3.6-7.26 1.3-15.63-1.57-21.26-7.26a35 35 0 0 1-5.1-7c-1.77-3.53-1.9-4.32-1.9-11 0-6.8.13-7.45 2.1-11.5a27 27 0 0 1 12.49-12.24c3.27-1.57 4.51-1.76 10.27-1.76 5.69 0 7 .2 10.14 1.7 1.96.91 4.97 2.88 6.73 4.38q5.22 4.5 9.56 2.75c3.85-1.57 4.5-3.01 9.22-20.67 2.48-9.3 5.95-22.38 7.72-28.98 3.27-12.1 4.32-14.2 6.6-13.54.6.2 3.86 1.1 7.27 2.02M16.22 91.97c-4.06 1.25-8.9 4.65-11.52 8.05a26 26 0 0 0-3.47 7.13c-1.3 4.38-1.3 5.3-1.17 184.27.2 179.9.2 179.9 1.83 183.17 2.09 4.25 6.73 9.22 10.46 11.12a34 34 0 0 0 6.41 2.22c2.56.52 52.66.72 183.5.72 147.44 0 180.67-.2 183.68-.92 4.51-1.04 8.9-3.53 11.51-6.54 1.11-1.17 2.81-3.92 3.86-6.02 1.9-3.85 1.9-3.85 1.9-89.88 0-86.02 0-86.02-1.57-89.22a22.8 22.8 0 0 0-10.47-10.14c-3.66-1.7-3.66-1.7-35.71-1.9-20.94-.13-32.84 0-34.41.46-3.47 1.05-5.3 3.34-5.7 7.26-.26 2.88.07 4.06 2.1 8.5 2.88 6.09 3.73 11.2 2.88 16.69-.85 5.62-3.47 10.53-7.98 15.04-5.7 5.7-11.52 8.11-19.43 8.18-4.12 0-9.62-1.44-13.02-3.4-3.27-1.97-7.59-6.22-9.81-9.68-5.17-8.18-5.23-19.76-.07-28.13 1.64-2.75 1.83-7.66.33-10.54-.59-1.17-2.1-2.48-3.73-3.27-2.55-1.1-4.64-1.24-31.33-1.24h-28.65v-28.06c0-28.06 0-28.06 4.12-26.76 5.75 1.84 14.06 2.23 19.69.92 5.43-1.3 12.43-4.84 16.48-8.44a46 46 0 0 0 9.81-13.08c2.82-6.22 3.73-11.25 3.34-18.45-.46-8.18-2.16-13.34-6.6-19.89a37.8 37.8 0 0 0-21.66-15.43c-6.6-1.7-16.42-1.12-22.7 1.3-1.04.4-1.18-1.37-1.3-27.6-.2-28.13-.2-28.13-2.17-31.27a13.3 13.3 0 0 0-4.84-4.7c-2.87-1.51-2.87-1.51-92.23-1.45-75.49 0-89.82.2-92.37.98m179.16 11.52c.6.59.79 8.37.79 31.13 0 27.15.13 30.55 1.11 32.19 2.36 3.99 6.8 4.58 13.22 1.7a44 44 0 0 1 8.56-2.55c3.67-.53 5.24-.46 8.9.46 8.44 2.02 14.65 7.2 18.45 15.24 1.57 3.33 1.76 4.58 1.76 10.33 0 6.28-.13 6.8-2.48 11.58-2.81 5.76-7 9.94-12.76 12.76-3.33 1.63-4.38 1.83-10.6 1.83-6.4 0-7.19-.13-11.38-2.16-4.97-2.35-9.02-2.75-12.16-1.11a7 7 0 0 0-2.75 2.48c-.66 1.12-.92 9.3-1.18 34.15l-.33 32.7-24.46.2c-23.1.14-24.4.07-24.07-.98 2.87-8.83 3.14-10.46 2.87-17.2-.45-11.06-3.85-18.9-11.44-26.43-7.4-7.26-16.03-10.92-25.97-11.05-3.2 0-7.53.32-9.49.78-10.46 2.49-20.54 10.2-25.44 19.63-3.21 6.14-4.65 11.77-4.65 18.44 0 4.32 1.44 11.9 2.94 15.83.46 1.05-1.17 1.12-31.13.98l-31.66-.2v-86.67c0-85.5 0-86.67 1.3-88.9a11 11 0 0 1 6.94-5.3c1.24-.26 40.95-.52 88.3-.58 66.08-.07 86.23.13 86.81.72m-76.92 138.55c2.29.72 5.62 2.29 7.39 3.53a31 31 0 0 1 8.83 10.2c1.9 3.73 2.81 8.96 2.49 14-.27 3.73-.86 5.95-3.01 10.6-1.5 3.27-2.75 6.47-2.75 7.13 0 1.96 2.42 6.48 4.05 7.52 1.25.85 6.15 1.05 29.96 1.31l28.46.33.2 28.06c.13 26.5.06 28-.98 27.54-13.87-5.7-25.32-5.36-36.96 1.18-7.79 4.38-14.98 13.08-17.6 21.32-.79 2.42-1.5 7-1.7 10.34-.46 7.46.85 13.47 4.25 20.15 3.2 6.21 10.73 13.8 16.48 16.55 6.74 3.27 11.65 4.25 19.63 3.92 6.21-.33 9.42-.98 15.9-3.47 1.04-.45 1.1 1.12 1.1 26.76v27.21h-87.06c-97.53 0-89.95.4-93.35-4.77-1.76-2.69-1.76-2.69-1.76-88.7v-86.1l36.17-.32c36.24-.33 36.24-.33 38.46-2.75 1.9-2.1 2.23-2.94 2.23-5.69 0-2.35-.66-4.58-2.42-8.24-1.9-4.12-2.42-6.02-2.68-10.14-.33-5.56.91-11.06 3.33-15.05 3.8-6.14 10.86-11.5 17.34-13.01 4.18-.98 9.61-.79 14 .59m137.83 57.95a42 42 0 0 0-.6 23.81c1.51 5.7 5.37 11.91 10.47 17.08 3.73 3.8 6.22 5.56 9.88 7.32 6.22 2.95 10.66 3.93 17.2 3.86 6.68 0 13.22-1.5 18.32-4.18 5.23-2.75 13.22-10.73 15.96-16.03 4.52-8.63 5.89-19.82 3.47-28.72a75 75 0 0 0-1.7-5.69c-.46-1.04 1.11-1.11 27.87-1.11 26.62 0 28.52.07 30.41 1.24a9.5 9.5 0 0 1 3.08 3.54c1.05 2.15 1.11 8.7.98 85.43-.2 83.07-.2 83.07-1.57 84.9-.72.99-2.36 2.5-3.53 3.28-2.16 1.5-2.16 1.5-91.32 1.5h-89.23v-30.68c0-30.61 0-30.61-1.5-32.84a10.5 10.5 0 0 0-8.31-4.51c-1.3 0-4.38.98-6.87 2.16-6.15 2.94-10.66 3.99-16.03 3.6-7.71-.6-15.63-5.24-20.27-11.97-2.62-3.86-4.58-10.08-4.58-14.66 0-5.43 2.09-11.64 5.5-16.22 2.87-3.93 7.97-7.85 12.16-9.29 7.33-2.55 14.52-2.03 22.04 1.57 3.47 1.7 5.56 2.29 8.05 2.29a15 15 0 0 0 5.3-.98 10 10 0 0 0 3.2-3.14c1.25-2.03 1.31-3.53 1.31-33.69v-31.53h25.78c25.7 0 25.7 0 24.53 3.66" clip-rule="evenodd"/>
</svg>
