<svg xmlns="http://www.w3.org/2000/svg" fill="currentColor" viewBox="-14.376 -39.405 540.751 540.751">
    <path fill-rule="evenodd" d="M340.81 1.1a6.8 6.8 0 0 0-3.37 3.43c-1 1.97-1.16 3.02-1.16 8.41 0 6.2 0 6.2-76.88 6.2-75.88 0-76.93 0-78.6 1a9 9 0 0 0-3.87 5.84c-.66 3.63 1.76 8.2 5.13 9.57 1.36.6 27.75.7 162.23.7 148.07 0 160.81-.05 162.73-.8a9.6 9.6 0 0 0 3.52-2.87c1.2-1.67 1.46-2.52 1.46-4.89 0-2.16-.3-3.27-1.1-4.53-.66-.9-1.82-2.16-2.58-2.72-1.4-1.06-1.4-1.06-78.8-1.3-77.38-.26-77.38-.26-77.63-7.4-.25-7.16-.25-7.16-2.01-8.97C348.32 1.16 345.8 0 343.83 0c-.45 0-1.8.5-3.02 1.1m-137.7 51.72c-.55.25-1.46.95-2.01 1.56-1.01 1.1-1.01 1.91-1.16 63.24-.1 50.34 0 62.13.55 62.13.35 0 3.58-1.72 7.15-3.83 3.63-2.17 8.1-4.78 10.07-5.94 3.42-2.02 3.58-2.07 8.3-2.07 4.24 0 5.1.15 7.3 1.36 4.8 2.57 7.76 6.2 9.07 11.23 1 3.98.96 6.55-.25 10.37-1.81 5.8-3.07 6.95-23.41 21.35-18.63 13.14-18.63 13.14-18.78 48.79-.1 35.6-.1 35.6 1.36 37.1 1.46 1.47 1.46 1.47 143.74 1.47 142.24 0 142.24 0 143.65-1.21s1.4-1.21 1.4-122.15 0-120.94-1.65-122.4c-1.61-1.46-1.61-1.46-143-1.4-77.73 0-141.78.2-142.33.4m251.24 42.44c2.92 2.32 2.77-2.77 2.77 87.25 0 90.03.15 84.94-2.77 87.26-1.36 1.1-1.71 1.1-17.72 1.1-16.37 0-16.37 0-18.08-1.7-1.71-1.72-1.71-1.72-1.71-86.66s0-84.93 1.71-86.65c1.71-1.7 1.71-1.7 18.08-1.7 16 0 16.36 0 17.72 1.1m-58.96 51.3c2.97 2.37 2.82-1.25 2.82 61.38 0 62.38.1 59.56-2.77 61.83-1.36 1.1-1.76 1.1-17.57 1.1-17.72 0-17.62 0-19.18-3.01-.66-1.26-.76-9.02-.76-59.67s.1-58.4.76-59.66c1.56-3.02 1.46-3.02 19.18-3.02 15.66 0 16.21.05 17.52 1.06m-59.16 45.02a6 6 0 0 1 2.27 2.46c.7 1.52.8 5.4.8 36.81s-.1 35.3-.8 36.8c-1.51 3.18-1.92 3.23-19.89 3.23-16.16 0-16.16 0-17.87-1.71-1.72-1.72-1.72-1.72-1.62-38.57.16-36.86.16-36.86 1.92-38.32 1.71-1.46 1.71-1.46 17.77-1.46 13.04 0 16.26.15 17.42.76m-59.41 41.74c.76.4 1.81 1.36 2.32 2.16.8 1.26.95 2.87 1.05 15.26.1 7.95-.05 14.65-.35 15.7a7 7 0 0 1-2.01 3.13c-1.56 1.3-1.56 1.3-17.88 1.3-16.31 0-16.31 0-17.87-1.4-1.36-1.21-1.66-1.97-2.01-4.58-.2-1.72-.26-8.76-.16-15.71.26-13.65.26-13.8 3.08-15.61 1.3-.86 2.66-.96 16.91-.96 12.54 0 15.76.15 16.92.7M61.12 55.74c-4.32.9-9.46 3.07-13.24 5.53-3.82 2.52-8.25 7.05-11.02 11.33a44 44 0 0 0-5.7 14.7c-.9 4.79-.4 13.6 1.01 18.18 2.47 7.86 7.8 15.71 13.8 20.2a46 46 0 0 0 14.9 7.04c5.5 1.36 12.54 1.1 18.38-.55 2.47-.7 6-2.12 7.86-3.08 7.04-3.72 13.09-10.07 16.81-17.72a36 36 0 0 0 3.88-16.97c.05-8.05-1.56-13.9-5.8-20.84a36 36 0 0 0-9.05-10.42c-6.85-5.39-15-8.31-23.47-8.2-2.67 0-6.4.34-8.35.8M41.25 152.4A54 54 0 0 0 28 156.64a50 50 0 0 0-14.6 11.02 52 52 0 0 0-10.08 16.42c-3.47 8.8-3.42 7.8-3.27 59.1.15 46.07.15 46.07 1.31 48.34a20 20 0 0 0 2.52 3.68 14.8 14.8 0 0 0 8.46 4.33c3.37.45 6.7-.05 9.46-1.51 1.06-.56 2.12-.86 2.32-.6.2.2.65 13.74.96 30.1.75 37.61 1.4 63.7 2.11 83.83.55 15.71.55 15.91 1.91 18.88a24 24 0 0 0 2.97 4.84c1.87 2.16 6.65 4.43 10.12 4.83 1.77.2 3.48-.05 6.1-.8 3.02-.96 4.12-1.57 6.29-3.78a15 15 0 0 0 3.68-5.5c1-2.6 1.1-4.37 1.6-24.1.3-11.74.76-29.81 1.01-40.19.26-10.37.6-26.38.8-35.5.26-14.5.46-16.86 1.22-18.72a7 7 0 0 1 2.62-3.17c3.42-2.07 8.5-.81 10.27 2.61.8 1.56.85 3.18 2.16 60.57 1.1 46.78 1.46 55.29 2.37 58.26a17 17 0 0 0 3.02 4.88c4.23 4.68 10.32 6.55 16.01 4.88 5.24-1.5 8.5-4.27 10.52-8.86.8-1.86 1.06-4.02 1.41-12.58.2-5.7.66-20.95.96-33.99.25-13.04.65-27.74.75-32.73.5-15.4 1.72-68.47 2.32-99.69.5-25.67.7-29.8 1.36-30.3.6-.51.96-.51 1.46-.06.4.3 3.32 4.18 6.5 8.51 3.17 4.38 6.6 8.61 7.6 9.47a13.3 13.3 0 0 0 9.77 2.92c2.56-.2 4.28-.96 12.38-5.44 5.24-2.82 12.64-6.9 16.52-9.01 3.87-2.12 10.22-5.64 14.1-7.8l10.82-6.05c4.88-2.72 6.64-5.08 6.95-9.26.25-3.58-.5-6.1-2.57-8.41a10.3 10.3 0 0 0-7.86-3.73c-2.51 0-5.13 1.06-19.18 7.7-15.86 7.5-23.41 10.93-24.17 10.93-.5 0-1.1-.3-1.36-.65-.3-.3-1.76-3.33-3.32-6.65-9.31-20.09-12.13-25.83-14.3-29.1a55 55 0 0 0-20.14-17.92 63 63 0 0 0-7.55-2.92c-4.43-1.41-4.43-1.41-32.12-1.46-15.2-.06-28.25 0-28.95.15M186.9 320.2c-4.18.21-5.4.46-6.55 1.32a8.4 8.4 0 0 0-3.37 7 8.1 8.1 0 0 0 3.72 7.15c1.67 1.15 1.67 1.15 78.6 1.15h76.98v16.62c0 16.61 0 16.61-5.18 23-22.56 27.9-56.44 70.15-58 72.31-1.21 1.71-1.47 2.57-1.47 4.78.05 2.17.36 3.02 1.56 4.53.86 1.01 2.32 2.17 3.33 2.57 2.36.9 5.94.36 7.5-1.1.6-.6 12.59-15.46 26.58-32.98l25.43-31.82.25 31.16c.25 30.51.25 31.22 1.31 32.58 1.91 2.57 3.58 3.47 6.5 3.47s4.58-.9 6.5-3.47c1.05-1.36 1.05-2.07 1.3-32.78.25-31.42.25-31.42 1.81-29.55.86 1 9.37 11.58 18.88 23.5 33.69 42.1 32.28 40.39 34.7 41.1a7.2 7.2 0 0 0 7.6-1.97 7.4 7.4 0 0 0 2.01-7.5c-.35-1.21-2.97-4.94-7.25-10.22-3.67-4.58-11.43-14.2-17.22-21.4a6442 6442 0 0 0-33.83-41.9c-6.7-8.15-6.7-8.15-6.7-24.56v-16.37h77.08c77.04 0 77.09 0 78.95-1.05 1-.56 2.27-1.61 2.82-2.37.8-1.06 1-2.16 1-4.88 0-2.87-.2-3.83-1.15-5.19a10 10 0 0 0-2.67-2.42c-1.36-.65-18.38-.75-158.7-.85-86.45-.05-159.5 0-162.32.15" clip-rule="evenodd"/>
</svg>
