<svg xmlns="http://www.w3.org/2000/svg" width="512" height="354" fill="currentColor" viewBox="0 0 512 354">
    <path fill-rule="evenodd" d="M92.48.67c-.6.42-2.23 3.64-3.7 7.22C75.93 38.62 73.88 43.49 73 45.08c-.82 1.64-10.26 6.98-45.16 25.57a457 457 0 0 0-13.61 7.45c-.41.35-.76 1.29-.76 2.17 0 3.4-1.3 3.28 28.86 3.58 27.74.29 27.74.29 27.5 8.5a499 499 0 0 1-.58 14.96c-.35 6.74-.35 6.74-15.31 14.72-8.21 4.34-22.58 11.9-31.97 16.78-9.32 4.87-17.6 9.38-18.3 10.03-.76.7-1.35 1.64-1.35 2.17 0 .47.53 1.4 1.18 2.05 1.11 1.11 1.93 1.17 32.26 1.17 31.08 0 31.08 0 31.08 2.06 0 2.87-13.66 57.13-21.4 85.05-1.18 4.16-2.88 10.38-3.82 13.78a7324 7324 0 0 1-14.66 53.38c-1.3 4.69-3.58 12.72-4.99 17.89-6.63 23.8-4.98 21.05-12.96 21.4q-7.12.35-8.1 1.12c-1.05.88-1.23 2.81-.35 4.16.47.77 11.56.88 93.73.88 100.48 0 95.14.18 95.14-2.99 0-2.52-1.93-3.17-9.38-3.17-6.75 0-6.75 0-14.6-28.91-4.35-15.84-8.75-32.03-9.8-35.9-2-7.62-12.26-45.4-14.96-55.43-4.05-14.72-6.57-24.63-6.28-24.93.12-.11 3.93 1.18 8.45 3 27.69 10.96 51.68 18.7 75.08 24.28a430 430 0 0 0 52.14 8.91c9.21.94 15.43 1.24 29.04 1.24 22.05.05 38.89-1.41 58.42-5.1 16.3-3.12 37.77-8.75 50.44-13.26 5.51-1.94 5.51-1.94 5.51-1.12 0 1.17-7.86 30.56-17.12 64.17-2.58 9.33-5.99 21.76-7.57 27.57a666 666 0 0 1-3.23 11.55c-.29.94-1.11 1.06-5.8 1.06-4.23 0-5.7.23-6.4.94-1.17 1.17-1.17 2.23 0 3.4.83.82 7.86.94 69.1.94 52.2 0 68.33-.18 68.86-.7 1.06-1.06.82-3.3-.41-4-.65-.29-3.4-.58-6.16-.58-4.98 0-4.98 0-5.63-2.52-.35-1.35-1.52-5.63-2.64-9.5-12.55-44.82-33.14-124.18-33.14-127.76 0-1.4 0-1.4 22.11-1.52 15.25-.06 22.3-.3 22.88-.7 1.05-.94.94-2.53-.24-3.58-.58-.47-6.74-3.82-13.66-7.4-6.92-3.57-17.25-8.97-22.88-12.02-10.26-5.51-10.26-5.51-10.67-15.42-.24-5.46-.3-10.27-.18-10.68.18-.53 4.64-.7 19.6-.7 16.77 0 19.47-.12 20.23-.94 1.11-1.12 1.17-2.05.23-3.29-.4-.47-9.56-5.74-20.35-11.67-10.73-5.86-20.06-11.14-20.65-11.61-.58-.53-4.16-8.21-7.92-17.07s-7.1-16.3-7.44-16.54c-1.35-.88-3.88-.47-4.46.64-.35.6-3.4 7.8-6.8 15.96-3.4 8.21-6.58 15.42-6.99 16.07-.76 1.11-6.39 4.4-27.04 15.54-7.86 4.29-9.97 5.16-12.9 5.46-1.94.17-6.16.76-9.39 1.23-3.22.47-11.84 1.23-19.12 1.58a206 206 0 0 1-26.22.06 315 315 0 0 1-55.84-7.8c-29.32-6.74-58-17-91.2-32.73-4.52-2.17-8.22-3.58-9.1-3.46-1.23.18-1.46.53-1.64 2.4-.17 2.18-.17 2.18 6.75 5.46 42.93 20.3 77.72 31.85 113.67 37.77 18.6 3.05 25.28 3.64 45.17 3.93 14.54.24 21.05.06 28.97-.64 5.63-.53 10.5-1.17 10.85-1.47a8 8 0 0 1 2.11-.82c1-.23 1.82 0 2.64.76 1.18 1.12 2.35 1.18 20.83 1.3 19.65.17 19.65.17 19.47 9.85-.12 5.34-.3 10.09-.47 10.56-.12.47-5.69 3.75-12.38 7.27-6.74 3.58-17.77 9.38-24.57 13.02-12.44 6.51-12.44 6.51-19.65 7.22-26.98 2.46-49.86 2.1-74.44-1.18-25.04-3.34-49.2-9.03-75.66-17.95a392 392 0 0 1-18.71-6.74c-3.99-1.58-7.68-2.7-8.15-2.52-1.24.47-3.52-1.18-3.76-2.7-.12-.88-1.82-2.05-6.33-4.4-3.4-1.76-18.13-9.56-32.73-17.36-20.36-10.8-26.57-14.43-26.8-15.37-.36-1.64-1.3-28.1-1-28.68.11-.24 12.43-.41 27.39-.41 27.27 0 27.27 0 28.21-1.47 1.47-2.23.41-3.93-3.99-6.33-2.05-1.12-11.32-6.22-20.7-11.27-23.05-12.49-32.8-18-33.26-18.7a964 964 0 0 1-9.62-22.35C102.51 11.82 97.99 1.55 97.46.97c-1.05-1.18-3.58-1.3-4.98-.3m9.62 26.16a803 803 0 0 1 7.21 17.54c.41 1.35.41 1.35-14.2 1.35-8.03 0-14.72-.17-14.95-.35-.18-.18.47-2.23 1.46-4.52 1-2.34 4-9.5 6.75-15.95a998 998 0 0 0 5.51-13.08c.3-.7.7-1.3.94-1.3.3 0 3.52 7.34 7.28 16.31m4.8 25.1c.36.36-11.26 13.73-11.9 13.73-.76 0-12.32-12.9-12.32-13.72 0-.47 23.76-.47 24.22 0M71.18 61.98c-.11 4.16-.4 9.44-.58 11.73-.35 4.28-.35 4.28-19.48 4.22-10.55-.06-19.82-.23-20.58-.47-1.18-.29 1.17-1.76 13.49-8.38 8.2-4.4 17.53-9.5 20.76-11.27 3.23-1.81 6.04-3.28 6.28-3.28.23 0 .29 3.34.11 7.45m66.05 2.87c6.92 3.76 14.9 8.1 17.77 9.62 2.82 1.53 4.99 2.88 4.75 3.05-.17.18-9.38.41-20.4.41-20.13.12-20.13.12-20.48-3.87a148 148 0 0 1-.41-11.79c0-7.8 0-7.8 3.1-6.1 1.65 1 8.75 4.87 15.67 8.68m-52.85-1c3.23 3.53 5.93 6.58 5.93 6.81 0 .47-12.8 14.37-13.2 14.37-.18 0-.35-.12-.35-.3-.06-.17.11-6.39.35-13.78.23-7.45.64-13.49.88-13.49s3.1 2.88 6.4 6.4m27.69-2.16c.06 2.34.23 8.56.47 13.84.17 5.22.17 9.5 0 9.5-.53 0-12.26-12.96-12.67-13.9-.18-.41 2.28-3.64 5.51-7.22 3.17-3.51 5.92-6.45 6.22-6.45.23 0 .4 1.94.47 4.23m-3.82 28.44c3.88 4.17 4.99 5.7 4.81 6.8-.11.89-3.75 5.29-9.26 11.27-9.1 9.8-9.1 9.8-10.86 7.74-.93-1.11-5.1-5.57-9.2-9.91-4.7-4.99-7.51-8.39-7.51-9.15s3.46-4.99 9.27-11.32c10.32-11.26 7.68-11.8 22.75 4.57m340.67 4.99c3.81 9.27 3.81 9.27-6.5 9.27-7.99 0-10.22-.18-9.98-.77.18-.35 2.35-5.57 4.8-11.55 2.47-5.98 4.7-11.09 4.88-11.44.4-.64 1.58 1.88 6.8 14.49M83.21 114.93c7.21 7.63 7.21 7.63-.59 16.13-4.22 4.7-7.86 8.5-8.03 8.5-.12 0-.12-5.33.11-11.9.36-11.26.88-20.35 1.23-20.35.06 0 3.35 3.4 7.28 7.62m31.5 12.56c.4 12.26.4 12.26-7.34 3.93-4.28-4.58-7.68-8.57-7.56-8.86.11-.3 3.22-3.93 6.92-8.04 6.74-7.45 6.74-7.45 7.15-3.4.18 2.29.6 9.62.83 16.37m335.62-17.19c-.41 1.23-7.22 8.68-7.86 8.56-.88-.17-7.86-7.74-7.86-8.56 0-.47 2.46-.64 7.98-.64 5.51 0 7.92.17 7.74.64m-25.63 9.91c-.06 4-.18 7.4-.3 7.45-.11.12-6.33.12-13.9.06l-13.72-.17 13.49-7.4c7.45-4.1 13.72-7.39 14.02-7.33.23.06.47 3.4.4 7.4m49.38-.52c7.16 3.93 13.26 7.33 13.55 7.62.36.3-5.28.53-13.31.53-13.9 0-13.9 0-13.9-1.94 0-1-.18-4.46-.41-7.62-.3-4.34-.18-5.7.35-5.7.41 0 6.63 3.23 13.72 7.1m-36.07 2.93c.65.88.24 1.58-3.22 5.4-2.23 2.46-4.17 4.45-4.4 4.45-.53.06-.65-17.18-.12-17.71.35-.3 6.04 5.51 7.74 7.86m17.07 3.87c.06 3.34-.12 6.04-.35 6.04-.3 0-2.29-2-4.46-4.4-2.58-2.81-3.87-4.63-3.58-5.1.24-.41 2.06-2.58 4-4.75 3.57-4 3.57-4 3.98-.88.18 1.7.35 5.8.41 9.09m-386.71 2.35c-.18 3.8-.53 9.61-.7 12.9-.36 6.04-.36 6.04-24.46 6.04-13.26 0-23.88-.17-23.64-.41.76-.82 47.57-25.34 48.39-25.34.64-.06.7 1.17.4 6.8m77.07 5.5c12.73 6.75 23.4 12.56 23.7 12.85.4.42-8.1.6-23.23.6-23.81 0-23.81 0-24.17-9.28-.23-5.04-.52-10.85-.7-12.9-.3-2.87-.18-3.64.41-3.64.47 0 11.26 5.58 24 12.38m-42.17 2.12c11.03 12.02 12.26 13.43 12.26 14.08 0 .64-5.05 5.57-13.73 13.25-6.98 6.22-6.98 6.22-9.38 4.05-8.74-7.8-18.54-16.83-18.54-17.18 0-.18 4.28-5.05 9.56-10.8 5.22-5.69 9.74-10.79 10.1-11.2.28-.47.87-.82 1.22-.82.3 0 4.17 3.87 8.5 8.62m345.94-1.76c3.58 3.81 6.52 7.16 6.52 7.5-.06.3-3 3.7-6.63 7.52-6.63 6.98-6.63 6.98-13.32-.18-4.87-5.22-6.5-7.33-6.1-7.92 1.06-1.52 12.26-13.66 12.67-13.72.18-.06 3.29 3.05 6.86 6.8m-10.96 25.63c.23.41-1.59 2.88-4.4 6.04-2.64 2.94-5.05 5.4-5.28 5.4-.24.06-.3-4.22-.06-9.5.35-8.15.47-10.09.76-11.5.06-.23 8.45 8.68 8.98 9.56m18.3 2.64c.23 4.87.29 8.86.17 8.86-.35 0-6.68-6.57-8.91-9.2-1.59-1.94-1.59-1.94 3.05-6.93 4.57-4.93 4.57-4.99 4.92-3.29.18.94.53 5.7.77 10.56m-271.7-7.68c.36 1.17 8.4 4.46 26.58 10.8 30.56 10.67 60.82 17.65 89.74 20.7 4.87.52 16.48 1.11 25.87 1.29 18.41.35 31.73-.3 46.86-2.23 14.78-1.94 20.18-2.29 34.37-2.11 13.73.11 13.73.11 13.55 2.17-.29 3.34-6.04 26.63-6.8 27.39-.7.76-15.02 5.34-27.63 8.86-17 4.8-38.89 9.03-56.66 11.08-6.98.76-13.9 1-30.44 1-22.7 0-27.92-.35-48.39-3.52a377 377 0 0 1-37.3-7.63c-18.36-4.57-39.42-11.08-55.08-17.12-16.72-6.4-26.16-10.27-26.75-10.85-.64-.7-10.2-38.13-10.2-39.95 0-.82 2.99-.94 31.02-.94 29.57 0 31.03.06 31.27 1.06M76.3 162.27c1.4 1.17 5.04 4.4 8.1 7.15 5.5 5.05 5.5 5.05 2.04 8.16-11.2 10.15-18.82 17.07-20.64 18.53-2 1.7-2 1.7-1.64-.3 1.05-5.15 8.91-35.71 9.2-35.71.18 0 1.47 1 2.94 2.17m40.59-1.17c.17.58 1.76 6.45 3.52 13.08 3.7 13.66 5.92 22.87 5.57 23.16-.18.24-4.87-3.8-15.49-13.2-3.75-3.4-7.8-6.97-8.91-7.91-2-1.76-2-1.76 6.16-8.92 4.45-3.99 8.27-7.21 8.44-7.21.24 0 .53.47.7 1m306.17 7.62a126 126 0 0 1-.46 8.74c-.24 1.17-.6 1.17-16.2 1.3-10.32.05-15.77-.13-15.65-.48.17-.64 30.85-16.95 31.9-17 .53 0 .65 2.1.41 7.44m49.92-2.11c5.51 3 12.5 6.69 15.49 8.27 2.93 1.58 5.4 3.17 5.4 3.46s-6.34.53-15.5.53c-15.54 0-15.54 0-15.83-2.52-.18-1.35-.47-5.28-.65-8.8-.23-4.64-.17-6.28.36-6.28.4 0 5.22 2.4 10.73 5.34m-17.24 12.32c1.76 2.1 1.76 2.1-4.87 8.2a291 291 0 0 1-7.51 6.87c-.82.59-2-.23-8.21-5.8-4-3.58-7.4-6.63-7.51-6.75-.12-.12 1.29-1.88 3.23-3.87 1.93-2.06 5.33-5.75 7.56-8.33 4.05-4.58 4.05-4.58 9.8 1.47 3.17 3.34 6.5 7.03 7.5 8.2m-355.8 4.28c13.37 11.73 21.52 19.06 24.22 21.7 3.1 2.93 3.1 2.93-12.9 13.5-8.74 5.74-16.25 10.5-16.55 10.5-.82 0-32.02-20.89-31.85-21.3.18-.35 12.62-11.61 25.05-22.7 3.7-3.29 7.04-5.8 7.33-5.63.35.23 2.47 2 4.7 3.93m361.6 17.71c1.7 6.98 2.94 12.79 2.76 12.97-.35.4-17.01-14.5-17.19-15.31-.11-.59 10.27-10.27 11.03-10.33.18 0 1.7 5.7 3.4 12.67m-28.45-7.39c2.76 2.4 4.93 4.7 4.87 5.05-.11.7-16.42 15.48-16.71 15.19-.24-.24.82-4.93 3.75-17.3 1.88-7.8 1.88-7.75 2.58-7.51.3.11 2.82 2.17 5.51 4.57m21.18 19c5.98 5.4 10.85 10.04 10.85 10.27 0 .41-22 15.31-22.64 15.31-.47 0-7.68-4.81-16.78-11.26-5.69-4.05-5.69-4.05-1.46-8.04 11.32-10.73 17.77-16.42 18.42-16.3.4.05 5.63 4.57 11.6 10.03m-320.96 11.5c5.92 21.24 9.91 36.49 9.56 36.78-.3.3-13.2-8.1-35.66-23.17-3.52-2.35-6.34-4.46-6.34-4.7 0-.64 28.98-19.35 29.39-18.94.18.18 1.58 4.7 3.05 10.03m-68.74-7.21c12.55 7.97 23.93 15.78 23.81 16.3-.12.3-7.57 5.52-16.6 11.56-19.06 12.79-24.87 16.54-25.16 16.25-.12-.12 1.17-5.4 2.93-11.68l6.1-22.58c3.64-13.31 3.4-12.6 4.05-12.6.23 0 2.46 1.22 4.87 2.75m363.13 17.83c5.4 3.64 9.85 6.74 9.85 6.92 0 .41-28.21 19.42-28.86 19.42-.4 0 0-1.7 4-16.72 3.8-14.2 4.4-16.13 4.8-16.13.18 0 4.81 2.93 10.2 6.5m44.93 9.44c2.34 8.8 4.22 16.37 4.22 16.78 0 .4-6.57-3.7-14.66-9.1-8.04-5.45-14.67-9.97-14.67-10.14 0-.41 19.54-13.43 20.24-13.5.35 0 2.52 7.22 4.87 15.96m-358.44 5.52c25.98 17.12 28.27 18.65 28.33 19 0 .18-10.68 6.98-23.76 15.2-13.66 8.56-24.1 14.71-24.57 14.54s-8.04-4.87-16.9-10.44c-8.8-5.52-19.18-12.09-23.05-14.49s-7.15-4.46-7.27-4.58c-.24-.17 46.92-31.79 47.57-31.84.23-.06 9.09 5.63 19.65 12.6m345.48 6.5c9.09 6.1 16.48 11.27 16.36 11.62-.12.53-7.45 5.22-26.57 17.01-7.1 4.4-7.1 4.4-19.36-3.28-6.68-4.23-14.13-8.92-16.54-10.44-2.4-1.47-4.4-2.94-4.4-3.17-.06-.53 32.5-22.64 33.38-22.7.3 0 8.03 4.93 17.13 10.97m-41.18 24.11c4.87 3.05 10.97 6.93 13.6 8.57 2.7 1.64 4.76 3.22 4.7 3.58-.3.82-43.82 28.03-44.23 27.62-.17-.17.77-4.34 2.12-9.27 3.16-11.79 8.68-31.61 9.8-35.54.93-3.1.93-3.1 3.04-1.76 1.17.7 6.16 3.81 10.97 6.8m67.98 15.66c3.4 12.56 6.22 23.23 6.22 23.58 0 .41-.12.77-.3.77-.11 0-1.52-.77-3.05-1.65-3.87-2.34-37.53-23.4-39.94-25.04-1.93-1.3-1.93-1.3 6.45-6.63 20.53-12.9 23.64-14.72 24-14.31.23.23 3.22 10.67 6.62 23.28M62.03 285.5c26.1 16.37 26.52 16.6 26.52 17.07-.06.18-5.64 3.81-12.5 8.04s-21.23 13.2-31.96 19.88c-10.74 6.69-19.71 12.03-19.89 11.85-.23-.3 9.68-37.01 15.66-57.9.59-2.1 1.53-5.33 2.06-7.2.46-1.83 1.05-3.35 1.23-3.35.11 0 8.62 5.22 18.88 11.61m85.82-7.74c11.96 43.05 17.6 64.29 17.3 64.58-.12.12-1.53-.53-3.17-1.53-7.15-4.22-60.53-37.71-60.82-38.18-.36-.53 44.28-28.74 45.16-28.5.35.11 1 1.7 1.53 3.63m315.68 30.8c11.38 7.15 21.7 13.66 22.99 14.54 2.35 1.53 2.35 1.53-21 1.7-12.84.06-33.73.06-46.34 0-22.99-.17-22.99-.17-14.2-5.8 4.88-3.11 11.97-7.63 15.85-10.04l14.07-8.91c3.87-2.4 7.28-4.46 7.51-4.46.3 0 9.8 5.8 21.12 12.96m-336.21 17.88c17.89 11.15 32.73 20.53 33.02 20.83.35.29-26.4.58-65.52.64-36.36.12-66.1 0-66.1-.17 0-.41 2.34-1.88 22.29-14.32 8.2-5.16 21.4-13.37 29.32-18.3l14.43-8.97c.06 0 14.73 9.15 32.56 20.3" clip-rule="evenodd"/>
</svg>
