<svg xmlns="http://www.w3.org/2000/svg" width="468" height="512" fill="currentColor" viewBox="0 0 468 512">
    <path fill-rule="evenodd" d="M234.02.57a240 240 0 0 0-28.64 3.84 251 251 0 0 0-50.4 15.2c-29.91 12.68-54.66 29.2-78.25 52.18a227 227 0 0 0-28.19 32.84c-6.51 9.04-10.2 15-15.96 25.45a257 257 0 0 0-17.83 38.95 304 304 0 0 0-7.98 26.82 269 269 0 0 0-6.41 41.12c-.66 8.28-.36 36.06.5 44.45a249 249 0 0 0 8.23 43.7c8.9 32.27 23.14 61.26 42.99 87.38 5.6 7.37 7.32 9.44 13.79 16.67a258 258 0 0 0 34.9 32.22 373 373 0 0 0 21.88 14.85c4.54 2.78 14.4 8.09 21.72 11.62a270 270 0 0 0 42.98 16.01 270 270 0 0 0 44.86 7.63c9.14.66 32.32.66 39.5.05a264 264 0 0 0 59.05-12.17c20.1-6.67 44.04-18.49 60.86-30 13.59-9.35 27.33-20.82 38.14-31.98a249 249 0 0 0 31.16-38.7c3.44-5.25 6.42-9.84 6.52-10.2.46-1.16-.76-2.77-2.07-2.77-.66 0-2.83 1-4.75 2.27-4.34 2.83-16.97 9.4-24.8 12.93-10 4.5-20.5 8.08-33.19 11.37-15.65 3.99-25.56 5.25-43.94 5.6-14.55.3-24.25-.2-34.5-1.66-32.38-4.7-61.63-16.12-89.16-34.7-18.08-12.23-36.62-29.8-50.1-47.64-3.8-5-10.2-14.6-13.74-20.6a287 287 0 0 1-12.23-24.3c-5.65-13.29-10.9-30.82-13.79-45.97a224 224 0 0 1-3.33-36.12c0-33.03 7.93-66.22 23.08-96.22 3.9-7.68 5.3-10.16 9.8-17.43 4.35-7.07 10.91-16.01 16.87-23.24 5.46-6.56 16.57-17.83 23.09-23.53a226 226 0 0 1 26.16-19.3c12.18-7.53 28.34-14.85 41.32-18.79 4.1-1.26 5.3-1.82 5.76-2.73q1.29-2.94-3.03-3.53C269.29.07 248.22-.6 234.02.57" clip-rule="evenodd"/>
</svg>
