<svg xmlns="http://www.w3.org/2000/svg" fill="currentColor" viewBox="-16.496 -95.371 544.991 544.991">
    <path fill-rule="evenodd" d="M92.92.53c-.6.3-1.56 1.51-2.16 2.72-.56 1.21-1.01 2.32-1.01 2.42s-1.36 3.47-3.07 7.45c-4.38 10.42-7.9 18.82-9.51 22.55l-3.02 7.14c-1.56 3.88-1.61 3.93-5.19 5.9a5645 5645 0 0 1-46.15 24.9c-4.58 2.42-8.6 4.79-8.9 5.24-.86 1.06-.81 2.72.04 3.92.7.91 1.76.96 28.34 1.21 27.58.25 27.58.25 27.38 9.56-.1 5.14-.3 11.88-.5 15.05-.3 5.7-.3 5.7-10.12 10.98-5.39 2.86-15.6 8.25-22.65 11.97a1278 1278 0 0 0-15.1 7.96c-1.26.65-5.53 2.87-9.56 4.88s-7.7 4.02-8.15 4.43c-.56.45-.91 1.46-.91 2.41 0 3.32-1.2 3.22 33.37 3.22 31.1 0 31.1 0 30.75 2.62-.6 5.19-13.84 56.98-23.05 90.5a7358 7358 0 0 0-10.42 38.25c-1.36 5.03-2.87 10.51-9.26 33.21-.65 2.37-2.47 8.91-4.03 14.6a640 640 0 0 1-3.47 12.33c-.65 2.01-.65 2.01-8 2.27-4.78.15-7.55.45-7.95.85-.96.96-.76 3.73.3 4.48.8.6 16.35.7 93.71.7 92.1 0 92.76 0 93.77-1 1.2-1.21 1.26-2.42.2-3.93-.7-1.05-1.1-1.1-8-1.1-7.25 0-7.25 0-7.8-2.17-.36-1.16-1.36-4.83-2.27-8.15-.96-3.32-3.17-11.58-4.98-18.37s-4.48-16.41-5.84-21.4c-1.41-4.98-3.68-13.38-5.08-18.62-1.41-5.28-3.33-12.38-4.23-15.85-2.17-8.05-4.33-16.1-10.07-37-3.37-12.27-6.24-23.65-5.99-23.85.1-.15 2.87.8 6.14 2.07 20.64 8 26.83 10.26 38.05 13.94 26.73 8.8 50.38 14.5 75.55 18.12a299 299 0 0 0 39.76 3.42c27.68.65 55.71-2.62 84.8-9.92 12.69-3.17 28.4-8 33.88-10.31.65-.26.85-.1.85.55 0 .95-2.36 10.06-8.15 31.15-1.66 6.1-4.33 16.06-5.99 22.15a1823 1823 0 0 1-4.43 16.36c-.8 2.91-2.97 10.72-4.83 17.36a1749 1749 0 0 1-4.08 14.7c-.75 2.66-.75 2.66-6.24 2.66-4.28 0-5.64.15-6.24.8-.96.91-1.06 2.78-.2 3.63.45.46 16.5.6 69.1.6s68.65-.14 69.1-.6c.96-.95.71-2.77-.5-3.62-.85-.6-2.41-.8-6.24-.8-5.13 0-5.13 0-6.14-3.93-.55-2.12-3.52-13.04-6.6-24.26-3.11-11.23-7.9-29-10.71-39.51a9223 9223 0 0 0-7.05-26.68c-3.82-14.44-10.97-43.73-10.97-45.14s0-1.41 21.9-1.41c21.23 0 21.94-.05 22.9-1 1.15-1.17 1.25-2.02.4-3.08-.36-.45-10.02-5.69-21.44-11.72A1139 1139 0 0 1 463.8 156c-2.36-1.35-2.36-1.35-2.66-4.88-.2-1.91-.4-6.64-.5-10.52-.2-7.04-.2-7.04 19.37-7.2 13.44-.04 19.78-.3 20.28-.65.96-.8.8-3.17-.2-4.07-.5-.4-5.54-3.33-11.22-6.45s-12.23-6.74-14.6-8.05l-9.91-5.49c-5.59-3.12-5.59-3.12-9.47-12.28a834 834 0 0 1-8.4-20.18c-.65-1.66-1.76-3.42-2.52-3.97-1.15-.86-1.46-.91-2.71-.3-.81.4-1.72 1.25-2.07 1.96-.35.7-2.01 4.63-3.72 8.8-6 14.75-9.16 22.15-9.72 22.75-1.25 1.36-36.54 20.39-37.3 20.08-.34-.1-2.26.1-4.22.5-6.34 1.22-16.36 2.17-28.33 2.78-8.81.45-14.3.45-22.95 0-23-1.21-40.07-3.68-62.82-9.11-14.94-3.58-34.72-9.92-52.04-16.76-8.7-3.38-20.83-8.71-33.22-14.45a183 183 0 0 0-8.45-3.77c-.8-.25-1.46-.05-2.17.55-1.05.96-1.25 3.32-.3 4.13.86.7 21.5 10.27 29.6 13.69 36.79 15.7 70.36 25.06 104.88 29.39 12.84 1.61 19.68 2.01 35.49 2.01 11.87 0 18.82-.25 25.41-.9 6.14-.56 9.31-1.11 9.87-1.61 1.16-1.01 3.67-.9 4.73.3.86.96 1.66 1 20.58 1.1 19.68.16 19.68.16 19.53 7.96-.05 4.28-.25 9.06-.4 10.57-.25 2.77-.25 2.77-3.37 4.48-1.71.9-10.72 5.63-19.98 10.47-19.28 10.06-23.1 12.13-24.16 13.03-1 .8-14.1 2.06-28.69 2.77-17.62.8-35.38.05-53.85-2.37a402 402 0 0 1-73.48-16.96 589 589 0 0 1-24.57-8.86c-2.31-.85-4.78-1.5-5.53-1.45-.76.05-1.66-.1-2.02-.3-.35-.2-.95-1.11-1.3-2.07-.8-1.86 1.15-.76-27.99-16.16-42.73-22.6-37.95-19.63-38.35-23.9-.2-2.02-.4-8.81-.5-15.05-.15-11.33-.15-11.33 27.28-11.58 27.38-.25 27.38-.25 28.18-1.66.66-1.2.66-1.5 0-2.72-.8-1.4-1.76-2.01-14.1-8.65-21.48-11.68-29.79-16.21-36.58-20.03-6.24-3.58-7.75-4.64-8.26-5.9-.35-.85-2.26-5.43-4.27-10.11-1.97-4.73-6.04-14.24-8.96-21.19C98.76 3.4 97.5 1 96.49.48c-1.5-.65-2.1-.65-3.57.05m4.03 14.35c1 2.47 3.52 8.5 5.63 13.49 5.04 11.93 6.8 16.25 6.8 16.86 0 .3-5.49.5-14.6.5-12.43 0-14.6-.1-14.6-.75 0-.36.76-2.47 1.72-4.63.9-2.17 2.62-6.1 3.67-8.71 6.2-14.75 9.01-21.14 9.26-21.14.2 0 1.16 1.96 2.12 4.38m9.81 37.6c-.2.9-11.37 13.38-11.98 13.38-.55 0-12.08-12.88-12.08-13.54 0-.3 4.38-.5 12.13-.55 10.42 0 12.08.05 11.93.7m-35.63 6.69c0 2.47-.15 7.65-.35 11.58-.3 7.2-.3 7.2-20.9 7.2-11.27 0-20.53-.16-20.53-.41 0-.2 8.36-4.83 18.53-10.32A1332 1332 0 0 0 68.36 56.1c1.1-.65 2.16-1.26 2.42-1.26.2-.05.35 1.91.35 4.33m58.18 1.5c3.88 2.17 12.28 6.75 18.72 10.23 6.4 3.47 11.68 6.44 11.68 6.64 0 .25-9.16.4-20.33.4-20.29 0-20.29 0-20.64-4.68a339 339 0 0 1-.35-18.12c.05-.45 1.5.3 10.92 5.54m-45 3.43a131 131 0 0 1 5.84 6.75c.1.25-1.7 2.46-3.97 4.93-2.32 2.41-5.29 5.64-6.6 7.04-1.36 1.46-2.61 2.67-2.76 2.67-.3 0 .1-13.84.7-22.8.15-2.66.45-4.88.7-4.88.2 0 2.92 2.82 6.1 6.3m27.79 1.1c.15 4.14.45 10.33.6 13.85.2 3.62.15 6.44-.1 6.4-.4-.06-6.34-6.45-11.42-12.29-1.97-2.26-1.97-2.26 3.97-8.8 3.27-3.58 6.1-6.55 6.3-6.55.14 0 .45 3.32.65 7.4M104.3 86c6.09 6.59 9.06 10.16 9.1 10.97 0 .75-2.76 4.07-9.1 10.92-5.04 5.38-9.32 9.81-9.52 9.81s-4.38-4.33-9.36-9.61c-5.43-5.79-9.06-10.12-9.16-10.82-.15-.96 1.46-2.97 7.3-9.36 4.08-4.43 8.2-9.01 9.16-10.07.9-1.06 1.86-1.91 2.06-1.81.25.1 4.53 4.58 9.52 9.97m344.5 9.4c3.73 9.22 3.73 9.22-6.59 9.22-8.05 0-10.27-.15-10.06-.66.25-.55 8.15-19.27 9.5-22.5.51-1.2.56-1.15 1.97 1.77.76 1.66 3.12 7.14 5.18 12.18M84.82 116.86c5.48 5.89 5.48 5.89-.7 12.73-3.43 3.78-6.9 7.65-7.8 8.7-.86 1.01-1.72 1.67-1.87 1.52-.3-.3.55-25.07 1-29.6.3-2.66.3-2.66 2.07-1 .96.95 4.23 4.38 7.3 7.65m29.5 2.21c.34 6.34.6 13.5.6 16-.06 4.54-.06 4.54-5.09-.75-2.82-2.92-6.34-6.7-7.85-8.4-2.77-3.17-2.77-3.17 4.18-10.67 3.87-4.13 7.1-7.55 7.3-7.55.15-.05.55 5.08.85 11.37m335.8-8.55c0 .75-7.1 8.7-7.76 8.7-.65 0-7.85-7.9-7.85-8.65 0-.2 3.52-.4 7.8-.4s7.8.14 7.8.35m-25.42 2.71c.2.3.2 3.78 0 7.8-.36 7.25-.36 7.25-13.9 7.25-7.64 0-13.53-.2-13.53-.45s1.1-1.06 2.51-1.76c5.54-2.92 22.95-12.53 23.4-12.94q.91-.89 1.52.1m43.88 3.78c15.7 8.55 18.78 10.37 18.78 10.82 0 .25-5.74.45-13.6.45-13.58 0-13.58 0-13.58-2.92 0-1.56-.15-5.08-.35-7.8-.2-3.52-.15-4.88.25-4.88.35 0 4.18 1.96 8.5 4.33m-34.07 1.91c2.06 2.32 3.78 4.43 3.78 4.73 0 .66-7.75 9.16-8.36 9.16-.25 0-.4-2.11-.25-5.18.1-2.82.25-6.9.25-9.06.05-2.11.2-3.88.45-3.83.2 0 2.07 1.92 4.13 4.18m20.33 5.19c.26 5.68.2 8.7-.15 8.7-.6 0-8.35-8.4-8.35-9.06 0-.75 7.5-9.06 7.85-8.65.2.2.5 4.27.65 9M68.06 135.12c-.4 7.9-.8 12.68-1.16 12.88-.3.2-11.17.4-24.1.4-15.86 0-23.56-.15-23.41-.5.25-.75 48.42-26.07 48.87-25.67.2.2.1 6-.2 12.89m60.9-9.31c3.77 1.96 14.54 7.7 23.9 12.68 17.12 9.16 17.12 9.16 14.8 9.51-1.3.25-12.03.35-23.9.3-21.55-.15-21.55-.15-21.85-5.43-.2-2.92-.5-8.76-.7-12.99-.3-6.09-.26-7.65.25-7.65.4 0 3.72 1.61 7.5 3.58m-23.7 13.08c5.58 6.1 10.16 11.43 10.16 11.83 0 .9-5.34 5.99-19.48 18.47-1.1.96-1.1.96-3.07-.7a779 779 0 0 1-18.32-16.66c-.86-.96-.75-1.16 3.47-5.84 8.56-9.56 16.51-18.17 16.76-18.22.15 0 4.89 4.98 10.47 11.12M455 141.26c.75 1.05.65 1.26-2.52 4.78-1.81 1.96-4.83 5.28-6.75 7.35-3.42 3.72-3.42 3.72-9.86-3.27-3.52-3.83-6.4-7.25-6.4-7.65 0-.36 2.88-3.83 6.4-7.76 6.44-7.04 6.44-7.04 12.38-.85 3.27 3.42 6.3 6.74 6.75 7.4m-16.46 19.73c0 .35-9.67 10.77-10.22 11.02-.5.2-.4-2.22.5-16.3.3-4.99.3-4.99 4.99 0 2.56 2.76 4.68 5.13 4.73 5.28m17.86 2.51c.36 8.81.36 8.81-1.5 7.05-1.01-.96-3.43-3.52-5.34-5.64-3.52-3.87-3.52-3.87 1.16-9 4.68-5.09 4.68-5.09 4.98-3.18.2 1.11.5 5.94.7 10.77m-271.53-8.15c0 .55.6 1.2 1.41 1.56 3.27 1.51 25.72 9.71 33.57 12.28 27.18 8.86 56.98 15.4 80.78 17.67 13.24 1.3 29.9 1.96 40.52 1.6 17.16-.55 40.56-2.71 41.77-3.87.25-.25 9.01-.45 19.78-.45 19.38 0 19.38 0 19.03 2.11-.15 1.21-1.71 7.85-3.37 14.8-3.07 12.63-3.07 12.63-13.5 15.95-18.97 6.14-33.01 9.72-49.42 12.69-18.87 3.37-30.25 4.58-48.01 5.08-43.34 1.26-96.08-9-148.78-28.94-10.57-3.97-24.5-9.46-25.57-10.06-.45-.2-2.56-7.55-5.63-19.73-2.72-10.62-4.93-19.83-4.93-20.49-.06-1.1-.06-1.1 31.15-1.1 29.95 0 31.2.04 31.2.9m-109.06 6.74c4.83 4.03 13.69 12.08 13.69 12.49 0 .35-4.53 4.53-18.12 16.8-7.2 6.5-7.3 6.55-7.5 6.3-.1-.1.2-1.91.7-3.98.56-2.06 2.62-10.52 4.64-18.72 2-8.26 3.77-15 3.87-15s1.31.96 2.72 2.11m41.12-1.35c0 .4 1 4.42 2.26 8.9 3.02 11.18 7.2 27.79 7 28.04-.1.1-1.16-.6-2.37-1.61a1292 1292 0 0 1-23.15-20.49c-.9-.85-.85-.95 1.76-3.37 4.38-4.18 13.7-12.23 14.15-12.23.2 0 .35.35.35.76m366.85 11.92c5.34 2.87 9.72 5.44 9.67 5.7-.05.2-7 .4-15.45.34-8.5-.05-15.5-.15-15.6-.2-.06-.1-.3-4.13-.5-8.9-.36-8.76-.36-8.76 5.88-5.44 3.42 1.81 10.62 5.63 16 8.5m-61.05-2.76c-.2 4.63-.4 8.45-.45 8.55-.25.25-31.6.25-31.86 0-.15-.15 3.07-2.01 7.2-4.13l15.75-8.35c4.58-2.42 8.6-4.43 9.01-4.48.6 0 .66 1.36.35 8.4m27.08 3.02c4.03 4.32 7.35 8.05 7.35 8.25 0 .65-14.1 13.29-14.8 13.29s-14.8-12.28-14.84-12.94c-.06-.2 2.06-2.62 4.63-5.28 2.51-2.72 5.83-6.4 7.34-8.1a42 42 0 0 1 2.87-3.13c.05 0 3.43 3.53 7.45 7.9M99.67 183.23c2.66 2.32 6.24 5.44 7.9 6.95 1.7 1.5 6.74 6.04 11.27 10.06 4.48 3.98 8.15 7.45 8.15 7.6 0 .2-7.3 5.14-16.15 10.98l-16.16 10.67-15.5-10.32c-8.56-5.69-15.7-10.57-15.9-10.92-.26-.4.65-1.61 2.51-3.32 4.18-3.88 28.7-25.77 28.9-25.82.1 0 2.36 1.86 4.98 4.12m334.24 11.48c2.26 2.01 4.07 3.87 4.02 4.13-.2.6-16.7 15.45-16.96 15.25-.2-.2 5.44-24.41 5.84-25.07.15-.25.86.1 1.61.76.7.7 3.17 2.86 5.49 4.93m27.38 6.09c1.6 6.5 2.87 12.18 2.82 12.68-.1.66-2.37-1.1-8.71-6.7-4.68-4.12-8.56-7.74-8.56-8.05 0-.7 10.47-10.06 11.07-9.91.26.1 1.82 5.49 3.38 11.98m-10.32 9.06c3.82 3.42 8.56 7.75 10.52 9.61 3.62 3.37 3.62 3.37 2.51 4.33-1.7 1.56-21.54 14.75-21.94 14.6-.35-.16-19.88-13.64-21.29-14.7-.85-.66-.65-1 3.02-4.48 2.17-2.01 7.2-6.7 11.17-10.32 6.45-5.84 7.4-6.5 8.2-5.94.51.35 4.03 3.48 7.8 6.9m-318.04 13.13a2100 2100 0 0 1 9.92 36.6c.3 1.5.25 1.65-.5 1.35-.96-.35-6.4-3.92-25.42-16.6-7.05-4.69-13.54-9.02-14.45-9.57-.9-.6-1.6-1.3-1.6-1.56 0-.3 6.49-4.73 14.44-9.91 7.95-5.19 14.6-9.42 14.74-9.47.16 0 1.46 4.13 2.87 9.16m-71.72-8.05c.6.3 6 3.78 11.93 7.65 5.94 3.93 11.88 7.8 13.19 8.6 1.3.86 2.31 1.72 2.21 2.02-.25.9-41.42 28.24-41.87 27.83-.3-.35-.4.05 8.1-30.85 1.76-6.4 3.42-12.53 3.78-13.74.3-1.16.75-2.11 1.05-2.11s1 .25 1.61.6m408.83 20.13c.91 3.43 2.77 10.57 4.23 15.96 1.41 5.33 2.52 9.91 2.42 10.11-.2.56-29.1-18.72-29.1-19.37.06-.8 19.84-13.8 20.34-13.29.25.25 1.2 3.22 2.11 6.6m-42.42-.2c5.23 3.52 9.5 6.6 9.5 6.9.06.65-28.13 19.68-28.53 19.27-.3-.3.7-4.33 5.29-21.54 2.71-10.21 2.97-11.07 3.67-11.07.35.05 4.88 2.92 10.07 6.44m-313.86 14.65a2770 2770 0 0 1 23.95 15.9c4.99 3.37 4.99 3.37 3.53 4.38-.76.5-5.59 3.57-10.72 6.8-5.14 3.17-11.93 7.44-15.1 9.46-19.38 12.23-20.74 12.98-21.6 12.48-.45-.3-4.52-2.92-9.1-5.74-12.53-7.9-37.45-23.6-37.65-23.85-.15-.16 46.9-31.71 47.56-31.91.1-.05 8.7 5.58 19.13 12.48m345.46 6.64a696 696 0 0 1 16.81 11.53c.15.25-1.8 1.7-4.38 3.32-2.56 1.6-6.39 3.97-8.45 5.23-2.06 1.31-7.25 4.53-11.53 7.25a335 335 0 0 1-8.6 5.34c-.7.35-3.53-1.21-13.14-7.3-6.74-4.23-14.24-8.91-16.7-10.37-2.42-1.46-4.34-2.87-4.24-3.17.15-.45 32.92-22.95 33.42-22.95.1 0 7.65 4.98 16.81 11.12m21.34 18.93c6.04 21.44 12.33 45.1 12.08 45.34s-3.42-1.5-8.3-4.68a3090 3090 0 0 0-15.7-9.86l-16.76-10.42c-2.37-1.46-4.28-2.82-4.28-3.02s6.19-4.18 13.74-8.9c7.5-4.69 14.6-9.17 15.7-9.92 1.1-.76 2.16-1.41 2.37-1.41s.7 1.3 1.15 2.87m-66.68 2.46c4.27 2.67 10.51 6.6 13.84 8.76 3.32 2.11 6.8 4.28 7.7 4.78.85.55 1.6 1.1 1.6 1.3 0 .36-2.6 2.12-10.56 7-2.07 1.31-10.52 6.6-18.77 11.73a493 493 0 0 1-15.25 9.41c-.5 0 .25-3.22 2.91-12.83 3.07-10.97 5.9-21.14 8-29.1.86-3.21 1.87-5.88 2.17-5.88.35 0 4.08 2.16 8.36 4.83M45.4 275.34c9.46 5.73 42.43 26.47 42.98 27.02.4.4-1.06 1.36-21.04 13.8-8 4.98-16.3 10.11-18.37 11.42-2.06 1.3-7.95 4.93-13.08 8.15-5.14 3.17-9.82 6.1-10.42 6.45-.6.4-1.2.6-1.36.45-.15-.15 1.56-6.8 3.77-14.85 2.27-8 4.58-16.46 5.24-18.82.65-2.37 2.31-8.46 3.77-13.6 1.41-5.13 3.28-11.77 4.08-14.79 1.51-5.59 1.81-6.34 2.32-6.34.15 0 1.1.5 2.1 1.1m103.88 7.75c1.3 4.68 3.62 13.03 5.08 18.57 1.51 5.54 3.88 14.2 5.29 19.28 3.42 12.33 5.69 21.29 5.43 21.59-.25.25-9-5.09-27.78-16.81-6.64-4.13-17.11-10.72-23.3-14.55a391 391 0 0 1-12.33-7.9c-.6-.5-.86-1-.6-1.16.3-.1 4.57-2.77 9.56-5.94 21.34-13.48 35.23-21.94 35.73-21.79.25.1 1.56 4.03 2.92 8.7m304.35 19.48c5.68 3.57 13.94 8.8 18.37 11.57s9.96 6.34 12.33 7.85c4.28 2.82 4.28 2.82-18.72 2.97-12.64.05-33.47.05-46.26 0-23.3-.15-23.3-.15-17.56-3.87 7.14-4.58 6.8-4.33 20.88-13.24 19.13-12.08 19.63-12.38 20.14-12.08.3.15 5.13 3.22 10.82 6.8m-356.9 4.98c1.87 1.06 7.56 4.63 29.75 18.52 6.8 4.28 14.4 9 16.86 10.52 11.18 6.9 17.37 10.92 17.37 11.22 0 .25-29.85.4-66.29.4-56.47 0-66.18-.1-65.58-.7.4-.35 11.38-7.3 24.41-15.4a6198 6198 0 0 0 32.21-20.13c4.73-3.02 8.76-5.49 9.01-5.49.25-.05 1.26.45 2.27 1.06" clip-rule="evenodd"/>
</svg>
