<svg xmlns="http://www.w3.org/2000/svg" width="512" height="372" fill="currentColor" viewBox="0 0 512 372">
    <path fill-rule="evenodd" d="M269.98.36c-1.74.28-23.12 8.54-47.56 18.4L92.95 70.62c-53.1 21.24-85.94 34.7-87.47 35.89a18 18 0 0 0-4.02 5c-1.4 2.57-1.6 3.82-1.4 7.98.22 4.03.63 5.55 2.3 8.26 1.94 3.13 3.89 4.44 32.97 21.94 17.01 10.27 35.55 21.38 41.17 24.71 10.28 6.11 10.28 6.11 9.93 12.01-.21 3.27-1.95 20.13-3.89 37.49-7.15 65.12-7.08 64.98-5.97 69a33 33 0 0 0 3.2 6.95c6.73 10.62 22.9 22.97 43.66 33.32a236 236 0 0 0 48.66 18.12c37.5 9.5 76.44 11.8 115.94 6.87 4.79-.63 13.88-2.15 20.2-3.47 20.82-4.24 37.55-9.72 53.73-17.63 16.31-7.92 26.52-15.7 30.61-23.12 2.09-3.82 1.46 1.46 11.39-98.72.83-8.4 1.73-15.83 2.01-16.52.28-.76 2.71-2.22 5.97-3.54 3.06-1.25 16.1-6.6 29.02-11.87 12.91-5.28 23.6-9.44 23.74-9.23.14.13-.28 6.17-1.04 13.4l-3.05 31.58c-.98 10.14-1.88 19.3-1.95 20.34-.2 1.67-.76 2.22-4.23 3.61-7.3 2.92-11.6 7.36-14.44 14.86-1.18 3.12-1.39 4.93-1.18 9.44.28 4.3.76 6.38 2.22 9.3 1.94 3.75 1.94 3.75-.83 9.72-7.3 15.69-13.33 38.04-18.26 67.48-1.39 8.12-1.46 9.65-.7 11.66.56 1.18 1.53 2.5 2.16 2.84.7.35 6.52.98 12.98 1.4 43.1 2.5 46.44 2.56 48.52.83a9 9 0 0 0 2.3-2.71c.97-1.94 1.04-30 0-44.3-1.05-15.26-3.06-28.04-5.9-37.2-1.05-3.2-1.05-3.2 1.45-6.87a24.5 24.5 0 0 0 4.38-15.97c-.63-8.12-4.93-15-12.15-19.23-1.8-1.04-2.99-2.22-2.99-2.99 0-1.24 5.76-62.27 6.67-69.83.34-3.61.34-3.61 12.63-8.61 6.73-2.7 12.98-5.42 13.88-5.97 2.64-1.74 5.56-6.46 6.4-10.41.62-3.06.62-4.45-.29-7.5-.62-2.08-1.94-4.8-2.91-5.9-.97-1.18-6.39-4.86-11.94-8.12-5.63-3.27-15.7-9.17-22.36-13.12-18.67-10.97-74.14-42.98-146.47-84.56a7925 7925 0 0 1-32.28-18.6C282.47 1.13 282.2.99 274.84.02c-.98-.07-3.13.07-4.86.34m7.63 14.17c.98.48 5.21 2.91 9.38 5.41 15.68 9.16 26.44 15.34 54.49 31.45 15.83 9.1 33.53 19.23 39.22 22.56l26.73 15.48c24.44 14.1 35.54 20.48 61.23 35.4 12.91 7.5 24.64 14.24 26.17 15 1.46.76 2.85 1.88 3.12 2.5 1.12 2.99 6.18.83-101.63 44.22a6240 6240 0 0 0-37.48 15.14c-5.56 2.22-22.84 9.3-38.53 15.61-15.62 6.4-34.23 13.96-41.3 16.8-7.09 2.85-20.49 8.4-29.86 12.22-11.6 4.8-17.84 7.01-19.58 6.94-2.63 0-5.34-1.73-57.82-35.6-36.59-23.61-77.48-48.88-131.35-81.16-14.16-8.47-26.17-15.83-26.59-16.38-1.73-2.09.49-3.48 15.07-9.17 14.44-5.62 175.84-70.25 219.58-87.88 12.77-5.21 24.22-9.45 25.34-9.45a8 8 0 0 1 3.81.9m-172.37 177.5c2.64 1.6 8.82 5.49 13.75 8.61 5 3.13 15.4 9.8 23.25 14.72 18.54 11.8 27.08 17.22 53.46 34.23 12 7.7 23.25 14.71 24.99 15.48 2.36 1.1 4.58 1.45 9.02 1.45 5.42.07 6.53-.2 13.89-3.19 17.56-7.08 46.3-18.74 60.4-24.5 81.5-33.26 86.7-35.34 87.26-34.78.34.34-4.1 48.03-9.3 99.2-.35 3.75-.7 4.37-3.76 7.43-4.1 4.1-13.81 10.2-23.53 14.78-24.02 11.25-52.55 18.26-84.28 20.69-14.92 1.18-46.3.42-59.77-1.39-38.39-5.14-73.03-17.08-97.88-33.6-11.6-7.7-19.92-15.41-22.7-20.96a10 10 0 0 1-.77-4.52c.14-1.31.84-8.05 1.6-14.92 2.01-17.84 7.5-68.52 7.98-74.28.5-5 .9-7.3 1.4-7.3.2 0 2.42 1.33 5 2.86m363.35 63.53a11.6 11.6 0 0 1 5.83 8.12c.9 5.69-2.85 11.31-8.6 13.05-3.83 1.11-7.37.28-10.56-2.64-4.37-3.96-5.07-9.37-1.94-14.5 3.12-5.21 9.65-6.88 15.27-4.03m-5.48 33.94c5.97 0 5.97 0 6.73 2.43 1.25 4.3 3.54 18.19 4.23 26.38.42 4.38.9 15.27 1.18 24.1.42 16.17.42 16.17-2.84 16.17-3.2 0-3.2 0-2.78-15.14.49-15.13.49-15.13-1.46-16.66-1.04-.83-2.63-1.53-3.54-1.53-.83 0-2.43.77-3.47 1.67-1.94 1.6-1.94 1.6-2.43 14.02-.28 6.88-.55 13.47-.55 14.65-.07 2.08-.28 2.3-2.3 2.3-4.5 0-4.5.06-2.42-14.03 1.04-7.01 1.87-13.54 1.87-14.51s-.76-2.5-1.67-3.33c-1.25-1.18-2.29-1.53-4.23-1.32-4.3.35-4.86 1.8-7.08 17.7-1.88 14.1-1.88 14.1-4.86 14.1-2.5 0-2.99-.21-2.99-1.33 0-1.66 3.48-19.43 5.56-28.18 2.29-9.79 6.66-24.5 8.88-29.85 3.82-9.16 3.61-8.89 5.97-8.2 1.18.28 4.86.56 8.2.56" clip-rule="evenodd"/>
</svg>
