<svg xmlns="http://www.w3.org/2000/svg" fill="currentColor" viewBox="-5.99 -45.123 523.973 523.973">
    <path fill-rule="evenodd" d="M424.34 1.77c-5.1 1.61-13.52 4.09-48.17 14.32-32.69 9.64-37.58 11.15-38.64 11.86a7.14 7.14 0 0 0-2.42 8.98c.6 1.1 4.29 4.64 9.79 9.28 15.78 13.31 17.65 15.03 17.65 15.88 0 1.11-35.91 37.18-47.41 47.62-23.1 20.98-36.12 32.08-56.75 48.37-75.8 59.97-161.1 109.45-242.86 140.98a599 599 0 0 0-11.25 4.38c-2.62 1.11-4.03 3.28-4.23 6.4-.15 1.98.05 2.99.8 4.25 1.32 2.06 3.89 3.63 5.96 3.63.9 0 3.88-.7 6.55-1.57 12.97-4.13 41.61-14.98 60.68-23 41.71-17.55 89.18-41.81 127.36-65.11a1139 1139 0 0 0 49.18-31.78 1163 1163 0 0 0 49.93-36.87c27.8-21.84 49.83-40.9 74.25-64.26 6-5.75 11.1-10.44 11.24-10.44.4 0 7.32 7.21 17.1 17.76 4.64 5.04 6.4 6.55 7.92 7 2.52.81 5.25 0 7.21-2.01 1.57-1.62 1.11.3 12.71-56.8 6.26-31.07 8.28-41.6 8.28-43.73a7.3 7.3 0 0 0-3.58-6.05c-.91-.5-2.63-.9-3.74-.86-1.1 0-4.49.81-7.56 1.77M387 191.92c-12.76 1.26-20.17 2.68-28.5 5.35-10.79 3.48-17.7 6.6-26.32 11.8a120 120 0 0 0-33.95 30.72c-6 8.02-13.32 21.79-16.8 31.68-3.32 9.38-5.8 20.73-6.45 29.6-.15 2.37-.35 5.1-.46 6.06-.1.95.05 5.5.3 10.08.97 17.46 4.7 31.58 12.57 47.62 5.7 11.7 13.82 22.7 23.75 32.33a112 112 0 0 0 29.2 20.68 117 117 0 0 0 22.2 8.57c11.7 3.23 23.1 4.6 34.45 4.09 12.5-.56 21.74-2.12 32.33-5.6a117 117 0 0 0 46.35-27.94c10.4-10.14 17-19.17 23.56-32.08 6.15-12.06 10.39-26.28 12.15-40.35.36-2.78.61-9.13.61-14.13 0-10.69-1.21-19.82-3.88-29.55-2.58-9.33-4.54-14.58-8.43-22.45a123 123 0 0 0-15.18-23.65 145 145 0 0 0-18.56-18.01c-15.89-12.3-37.17-21.34-56.29-23.86-5.95-.75-18.91-1.3-22.65-.96m13.57 32.18a11 11 0 0 1 2.88 3.53c.75 1.67.95 3.33.95 8.43 0 6.3 0 6.3 3.79 7.21 2.07.5 5.85 1.92 8.42 3.13 8.22 4.03 14.38 9.93 17.75 17q3.47 7.25 2.32 11.55a8.9 8.9 0 0 1-4.89 5.75c-1.06.45-3.53.7-6.8.7-4 0-5.7-.25-7.27-.96-2.22-1-3.68-3.02-4.74-6.35a16 16 0 0 0-4.7-6.81c-.7-.56-2.82-1.77-4.73-2.67-3.28-1.57-3.69-1.62-9.74-1.62-6.2 0-6.35.05-10.19 1.87a26 26 0 0 0-5.95 3.93 20 20 0 0 0-3.43 5c-1 2.16-1.31 3.63-1.31 6.35 0 2.62.25 4.14 1.11 5.9 1.51 3.13 5.5 6.71 9.33 8.48 1.72.75 5.85 2.01 9.18 2.72 12.81 2.87 17.55 4.34 23.7 7.36 3.54 1.72 7.47 4.14 9.44 5.8 6.1 5 10.04 11 12.2 18.62 3.13 10.74.61 23.5-6.55 33.03a46 46 0 0 1-11.65 10.3 56 56 0 0 1-12.86 5.39c-2.38.6-2.38.6-2.53 7.77-.15 6.86-.2 7.26-1.56 9.28a10.5 10.5 0 0 1-3.38 3.13c-1.51.75-2.98 1-6.05 1-3.08 0-4.54-.25-6.05-1a10.5 10.5 0 0 1-3.38-3.13c-1.32-1.97-1.42-2.52-1.67-9.13-.25-7.06-.25-7.06-3.38-7.72-4.69-.96-12.4-4.54-16.8-7.82a46 46 0 0 1-6.6-6.1c-3.13-3.73-6.86-11.3-7.62-15.43-.3-1.62-.4-3.79-.2-4.85.45-2.37 3.33-5.6 5.7-6.4 1.06-.35 3.83-.5 6.96-.35 4.74.15 5.3.3 7.01 1.61 1.87 1.41 2.93 3.28 4.6 8.02 1.1 3.08 4.93 6.96 8.72 8.73 1.56.75 4.84 1.66 7.31 2.11 3.63.66 5.25.71 8.83.26 2.52-.3 5.65-1.11 7.31-1.82 1.56-.7 4.09-2.47 5.55-3.83a17.8 17.8 0 0 0 5.75-11.3c.76-8.22-4.19-14.73-13.72-18.1-1.92-.72-7.01-2.03-11.25-2.88-9.43-1.97-15.63-3.99-21.54-7.02-3.48-1.81-5.54-3.37-9.12-6.9-4.04-3.99-4.9-5.15-6.91-9.34a52 52 0 0 1-3.08-8.17c-.46-1.86-.8-5.5-.8-8.07 0-5.7 1.2-10.49 4.13-16.54 1.76-3.58 2.92-5.1 6.9-9.08 2.78-2.77 6.21-5.6 8.13-6.7a53 53 0 0 1 12-4.9c2.12-.56 2.12-.56 2.12-6.96 0-5.15.2-6.81.96-8.43 1-2.21 2.02-3.27 4.34-4.53 1.16-.61 2.62-.76 6.35-.66 4.44.15 5 .25 6.71 1.61m-202 46.46a6 6 0 0 0-2.18 2.47c-.75 1.56-.8 8.57-.8 78.83 0 76.42 0 77.08 1 78.74 1.87 3.03 2.48 3.13 23.56 3.13 17.15 0 19.27-.1 20.83-.91 1.01-.5 2.12-1.61 2.63-2.62.85-1.67.9-6.46.9-78.59 0-83.83.2-78.38-2.82-80.75-1.31-1.06-1.82-1.06-21.59-1.06-16.5.05-20.48.15-21.54.76m-75.31 38.84a6 6 0 0 0-2.67 2.21c-1.16 1.72-1.16 1.72-1.16 59.57s0 57.86 1.16 59.57a7 7 0 0 0 2.87 2.32c1.26.4 7.31.6 20.33.6 20.12.06 20.27.06 22.5-2.77 1.05-1.36 1.05-1.36 1.05-59.82 0-58.5 0-58.5-1.71-60.22-.96-.96-2.12-1.72-2.68-1.77l-19.52-.1c-11.3-.05-19.21.1-20.17.4m-77.78 36.06a7 7 0 0 0-2.37 2.02c-1.36 1.61-1.36 1.61-1.36 41.5 0 30.73.15 40.26.66 41.17.3.65 1.26 1.71 2.01 2.27 1.42 1 2.07 1.05 20.58 1.2 16.8.1 19.37.06 20.88-.7 3.53-1.66 3.33 1.16 3.28-43.38 0-43.98.1-42.21-3.02-43.83-1.21-.65-4.44-.76-20.53-.7-10.5 0-19.52.2-20.13.45" clip-rule="evenodd"/>
</svg>
