<svg xmlns="http://www.w3.org/2000/svg" fill="currentColor" viewBox="-79.917 -80.431 671.834 671.834">
    <path fill-rule="evenodd" d="M122.35.8c-7.7 2.07-15.14 8.1-18.43 14.89a46 46 0 0 0-2.43 6.07c-.3 1.27-.71 7.4-.91 13.68-.3 11.4-.3 11.4-30.44 11.65-16.56.2-30.69.5-31.4.7s-2.73.87-4.56 1.42c-4.25 1.32-9.57 4-13.47 6.79-4 2.83-9.42 8.6-12.46 13.17-2.93 4.4-6.07 12.15-7.34 17.92C.05 91.2 0 99.8 0 281.56c0 159.58.1 190.62.7 192.95a60 60 0 0 0 5.78 14.23 47 47 0 0 0 15.8 15.9 56 56 0 0 0 7 3.3c8.45 3.29-10.09 3.03 226.92 3.03 215.9 0 215.9 0 220.7-1.21a49 49 0 0 0 15.8-7.1 55 55 0 0 0 6.59-5.87c6.03-6.43 9.62-12.9 11.75-21.27.96-3.7.96-8.6.96-196.49 0-188.14 0-192.8-.96-196.5a52 52 0 0 0-5.07-12.8c-4.9-8.77-14.53-16.87-23.95-20.16-6.94-2.43-8.15-2.48-38.9-2.48-29.11 0-29.11 0-29.37-1.17-.1-.6-.3-6.23-.35-12.5-.15-11.25-.2-11.45-1.62-14.95-1.72-4.25-5.07-9.11-7.95-11.54-2.59-2.23-7.95-5.07-11.55-6.13-3.6-1.07-10.69-1.07-14.28 0a30.6 30.6 0 0 0-13.12 7.75 27.7 27.7 0 0 0-7.29 12.96c-.46 1.82-.86 7.4-1.06 13.93-.2 5.97-.51 11.04-.71 11.3-.2.2-44.67.3-98.86.24l-98.45-.15-.3-11.4c-.36-12.45-.76-14.83-3.55-20.4-2.12-4.2-7.74-9.67-12.1-11.85a41 41 0 0 0-6.33-2.43c-3.75-.97-10.28-.91-13.88.05m12.41 15.9a14 14 0 0 1 6.89 6.48c1.16 2.38 1.16 2.38 1.16 31.5s0 29.12-1.21 31.55c-2.23 4.5-7.55 7.95-12.2 7.95-4.31 0-8.92-2.73-11.55-6.78-1.37-2.08-1.37-2.08-1.37-32.47 0-30.38 0-30.38 1.42-32.81 2.53-4.26 8.25-7.14 13.01-6.53.96.1 2.69.6 3.85 1.11m255.75-.05a14.5 14.5 0 0 1 6.73 6.94c1.02 2.28 1.07 3.19 1.07 31.3 0 27.04-.1 29.06-.97 30.99a13.9 13.9 0 0 1-11.74 8.2c-2.28.15-3.35-.05-5.68-1.11-3.19-1.52-5.62-4-7.04-7.24-.9-2.03-.9-3.65-.8-31.66.15-29.52.15-29.52 2.17-32.56 1.52-2.28 2.69-3.34 4.76-4.4 2.18-1.17 3.34-1.42 6.08-1.42 2.18 0 4.05.35 5.42.96M100.53 72.6c0 6.48.25 11.14.7 13.67a29.5 29.5 0 0 0 10.18 16.97 35 35 0 0 0 11.15 5.67c3.24.86 10.43.86 13.67 0a30.3 30.3 0 0 0 20.05-18.33c1.27-3.5 1.93-10.33 1.98-20.1 0-7.7 0-7.7 99-7.7 54.45 0 99.01.15 99.06.35.05.25.1 5.16.2 11.04.1 5.82.41 11.75.77 13.17 1.46 6.48 6.88 14.23 12.4 17.72 3.3 2.13 8.82 4.1 12.66 4.5 3.8.41 8.66-.24 12.51-1.71 6.38-2.38 12.36-7.85 15.65-14.28 2.58-5.07 2.99-7.7 2.99-19.15 0-5.72.2-10.68.4-11.04.36-.5 6.28-.6 30.04-.5 29.57.15 29.57.15 32.81 1.36 4.05 1.52 10.08 5.52 12.46 8.3 2.38 2.74 4.91 7.35 6.43 11.5 1.17 3.3 1.17 3.3 1.32 35.4.1 18.54-.05 32.31-.3 32.57-.26.25-85.7.4-207.54.4-200.75-.1-272.2-.35-272.91-1.11-.36-.36.3-28.61 1.21-53.08.4-10.23.5-11.09 1.82-14.43 1.62-4 2.18-4.96 5.07-8.76 2.23-2.99 6.68-6.58 10.63-8.6 1.37-.72 4.36-1.83 6.59-2.44 3.95-1.11 4.7-1.16 31.55-1.16 27.45-.06 27.45-.06 27.45 9.77m396.43 203.33c.1 99.1.05 107.16-.76 108.02-.76.86-2.89.91-46.7.91-44.81 0-45.98 0-49.67 1.07a41 41 0 0 0-7.1 2.83c-4.55 2.59-9.51 7.75-11.8 12.36-3.44 7.04-3.39 5.77-3.39 51.45 0 22.59-.15 41.43-.3 41.88-.3.76-15.6.82-168.7.82-168.33 0-168.33 0-172.23-1.32a40 40 0 0 1-6.73-3.04c-3.45-2.08-8.46-7.3-10.59-10.99a43 43 0 0 1-2.68-5.92c-1.12-3.3-1.12-3.3-1.27-153.2-.05-82.45 0-150.4.15-151.07.26-1.11.26-1.11 240.96-1.01l240.66.15zm-14.69 124.99c-.15.96-20.71 20.1-48.51 45.22-7.2 6.48-21.02 19.14-27.1 24.82-10.28 9.52-12.96 11.8-13.47 11.29-.3-.3-.45-12.86-.35-35.65.15-34.44.15-35.2 1.21-37.43a20 20 0 0 1 2.43-3.95c1.62-1.87 5.22-4.1 7.55-4.66.91-.25 18.89-.4 40-.45 35.86-.05 38.4 0 38.24.8m14.54 39.65c0 31.6.05 31.2-2.89 37.17a31 31 0 0 1-8.1 10.49c-3.7 3.09-6.79 4.65-11.6 6.02-3.6.96-5.11 1.02-37.17 1.02-33.43-.06-33.43-.06-28.72-4.56 4.06-3.95 24.21-22.44 61.89-56.72 21.83-19.85 25.07-22.74 25.83-22.64.66.1.76 3.75.76 29.22M194.47 225.45a9.6 9.6 0 0 0-4.1 4.4c-.51 1.27-.71 4.2-.71 11.7 0 6.13.2 10.64.55 11.7a9 9 0 0 0 1.68 2.89c2.22 2.48 3.09 2.63 14.89 2.63 10.68 0 11.14-.05 12.8-1.16a13 13 0 0 0 2.9-2.89c1.16-1.72 1.16-1.92 1-13.52-.14-10.94-.2-11.8-1.2-13.17a9 9 0 0 0-2.8-2.28c-1.46-.8-3.23-.9-12.86-.9-7.14.04-11.5.25-12.15.6m103.06-.2a9 9 0 0 0-4 3.64c-1.02 1.67-1.07 2.43-1.07 12.82 0 9.82.1 11.24.97 12.91a8 8 0 0 0 2.98 3.04c1.93 1.06 2.54 1.11 13.12 1.11 10.74 0 11.2-.05 12.81-1.16a13 13 0 0 0 2.74-2.53c1.01-1.37 1.06-2.08 1.06-13.27s-.05-11.9-1.06-13.27a15 15 0 0 0-2.74-2.58c-1.62-1.07-2.07-1.12-12.86-1.07-6.18 0-11.55.15-11.95.36m101.79.7c-.91.66-2.18 1.83-2.74 2.59-1 1.37-1.06 2.08-1.06 13.52 0 12.1 0 12.1 1.52 13.67 2.79 2.94 3.24 3.04 15.3 3.04 10.48 0 11.14-.05 13.01-1.16a9.4 9.4 0 0 0 2.94-2.89c.86-1.62.9-2.78.8-13.42-.14-11.4-.2-11.7-1.36-13.37-2.03-2.83-3.3-3.09-15.65-3.09-10.68 0-11.14.05-12.76 1.12M90.9 304.3a8.4 8.4 0 0 0-2.93 3.14c-1.17 2.18-1.17 2.53-1.02 13.62.16 11 .2 11.45 1.32 13.07 2.23 3.09 3.2 3.3 15.55 3.34 10.38.05 11.24 0 12.91-1.01a10 10 0 0 0 2.89-2.74c1.11-1.62 1.16-2.07 1.16-13.37 0-10.78-.1-11.85-1-13.37a9 9 0 0 0-2.64-2.63c-1.52-.91-2.59-1.01-13.07-1.01-10.13 0-11.6.1-13.17.96m103.57-.35a9.6 9.6 0 0 0-4.1 4.4c-.51 1.27-.71 4.3-.71 12.1 0 9.43.1 10.64 1.01 12.46a9 9 0 0 0 2.28 3c.66.45 2.33 1.06 3.65 1.3 1.31.21 6.63.36 11.8.36 8.45-.05 9.52-.15 11.14-1.11a10 10 0 0 0 2.88-2.74c1.12-1.62 1.17-2.07 1.17-13.11 0-10.9-.05-11.55-1.17-13.42a9 9 0 0 0-2.88-2.89c-1.57-.86-3-.96-12.92-.96-7.14 0-11.5.25-12.15.6m101.84.35c-.86.56-2.02 1.87-2.68 2.94-1.12 1.87-1.17 2.33-1.17 13.37s.05 11.5 1.17 13.11c.6.97 1.82 2.13 2.73 2.69 1.47.8 2.79.91 12.66.91 6.38 0 11.6-.2 12.3-.5 1.83-.77 2.8-1.63 4.01-3.6 1.01-1.67 1.06-2.48 1.06-12.56 0-11.85-.2-12.92-2.98-15.55-1.62-1.52-1.62-1.52-13.63-1.67-11.24-.1-12.1-.05-13.47.86m103.21 0c-.86.5-2.12 1.72-2.78 2.68-1.22 1.68-1.22 1.83-1.22 13.58 0 11.5.05 11.95 1.12 13.47 2.17 3.04 3.6 3.34 15.8 3.4 9.52.1 11.14 0 12.56-.77a11 11 0 0 0 2.78-2.53c1.11-1.62 1.17-2.08 1.32-13.17.15-10.68.1-11.6-.86-13.47a9.6 9.6 0 0 0-2.74-3.09c-1.62-1.01-2.43-1.06-13.06-1.06-10.23 0-11.5.1-12.92.96m-307.9 78.24a10 10 0 0 0-3.05 2.64c-1.46 1.87-1.46 1.87-1.46 13.92 0 11.35.05 12.1 1.06 13.42a14 14 0 0 0 2.43 2.44c1.27 1 2.18 1.06 12.71 1.21 10.69.15 11.45.1 13.42-.91a8.3 8.3 0 0 0 3.04-2.68c.91-1.47 1.01-2.59 1.01-13.48 0-11.24-.05-11.9-1.11-13.62a8 8 0 0 0-3.14-2.68c-1.82-.81-3.4-.96-12.71-.91-7.85 0-11.04.15-12.2.65m103.6-.35a9 9 0 0 0-4.6 4.4c-.81 1.83-.96 3.45-.96 12.46 0 9.83.05 10.54 1.16 12.66a7.3 7.3 0 0 0 3.14 3.4c1.93 1.06 2.59 1.16 12.46 1.16 7.9 0 10.89-.15 12.15-.7a9.2 9.2 0 0 0 4.46-4.21c.36-.7.56-5.01.56-12.46 0-10.94-.05-11.4-1.12-13.01a15 15 0 0 0-2.58-2.74c-1.37-1.01-2.18-1.06-12.66-1.16-6.18-.05-11.6.05-12 .2m101.24.81c-.9.6-2.22 1.92-2.83 2.84-1.12 1.67-1.17 2.12-1.17 13.06 0 10.13.1 11.55.97 13.22a8 8 0 0 0 2.98 3.04c1.93 1.06 2.54 1.11 13.12 1.11 10.74 0 11.2-.05 12.81-1.16a13 13 0 0 0 2.74-2.53c1.01-1.37 1.06-2.18 1.21-12.92.1-11.14.1-11.55-1.06-13.52a9 9 0 0 0-3.14-3.14c-1.93-1.11-2.53-1.16-12.97-1.16-10.53 0-10.99.05-12.66 1.16" clip-rule="evenodd"/>
</svg>
