<svg xmlns="http://www.w3.org/2000/svg" fill="currentColor" viewBox="-110.867 -32.724 577.436 577.436">
    <path fill-rule="evenodd" d="M2.67.2c-4.14.45-4.24.25 5.35 19.04 4.75 9.4 13.24 26.16 18.84 37.28 5.66 11.1 14.5 28.59 19.7 38.9 5.2 10.24 14.55 28.68 20.71 40.9a3421 3421 0 0 0 13.64 26.78c1.31 2.47 7.33 14.3 13.39 26.26 6.06 11.92 13.23 26.02 15.9 31.32 4.96 9.6 4.96 9.6 50.97 9.75 25.31.05 46.02-.1 46.02-.3 0-.26-3.69-7.68-8.13-16.57a18453 18453 0 0 1-52.89-105.77C129.66 73.89 92.98.65 92.43.45 91.57.1 5.55-.11 2.67.2M268.1.1c-2.58.1-4.85.4-5.3.75-.61.5-36.42 72.13-49.81 99.61a7083 7083 0 0 1-15.91 32.33c-6.42 13.03-11.82 24.35-11.97 25.05-.26 1.37 2.62 7.28 26.82 55.01 8.84 17.43 8.84 17.43 18.74 17.43s9.9 0 10.66-1.27c.4-.7 4.95-9.54 10.1-19.7s12.42-24.34 16.11-31.57a9713 9713 0 0 0 18.94-37.37c6.77-13.34 14.65-28.9 17.53-34.6C326.65 61.47 355.7 3.13 355.7 2c0-.75-.3-1.46-.66-1.61-.7-.25-79.56-.56-86.93-.3M126 244.57c-.6.1-1.3.46-1.6.81s-.61 4.24-.66 9.34c-.16 8.7-.16 8.7-4.45 10.97a126 126 0 0 0-13.64 8.08 125 125 0 0 0-18.64 15.1 123 123 0 0 0-16.31 19.2c-11.52 16.71-18.59 33.99-21.97 53.79-.76 4.3-.91 8.13-.91 19.95 0 15 .35 18.74 2.57 28.44 2.38 10.36 8.19 25.05 13.7 34.7 1.25 2.22 3.98 6.52 6.1 9.6a135 135 0 0 0 48.6 43.09c13.73 7.27 27.17 11.46 43.18 13.48 8.94 1.16 23.9 1.16 31.83.05 13.28-1.92 25.6-5.35 36.16-10.2 21.42-9.8 38.39-23.39 52.33-41.98 5.1-6.81 8.64-12.62 12.48-20.2 7.47-14.95 11.57-29.3 12.98-45.61.7-8.19.3-23.44-.76-30.41a158 158 0 0 0-4.54-19.65c-6.62-20.2-17.33-37.78-32.08-52.53a171 171 0 0 0-12.17-10.91 164 164 0 0 0-20.46-13.29c-7.22-3.84-6.47-2.37-6.21-11.92.15-5.55.05-8.53-.3-9.04-.46-.6-8.14-.76-52.34-.86-28.48-.1-52.28-.1-52.88 0M191.79 272c6.67.76 17.23 3.28 23.34 5.56a136 136 0 0 1 20.76 10 116 116 0 0 1 28.49 24.95c4.75 5.8 11.01 15.86 14.55 23.34 2.98 6.36 6.77 18.03 8.38 25.76 1.11 5.45 1.37 8.33 1.57 16.92.2 7.58.05 11.92-.5 16.16-1.17 8.8-2.99 15.96-6.57 25.76-4.9 13.49-14.6 28.34-25.61 39.3a110 110 0 0 1-30.31 21.47 106 106 0 0 1-39.8 11.01c-19.65 1.52-41.07-2.78-58.2-11.77-13.58-7.12-24.7-15.86-34.04-26.72a116 116 0 0 1-15.86-23.94 109 109 0 0 1-7.93-20.2c-4.7-16.42-4.9-36.53-.45-53.3 2.27-8.63 4.24-14.3 7.27-20.6a115 115 0 0 1 12.43-20.56c4.19-5.56 13.18-14.9 18.38-19.1a119 119 0 0 1 19.2-12.32c3.73-1.87 7.83-3.84 9.09-4.4 4.7-1.92 12.73-4.34 18.79-5.6a113 113 0 0 1 37.02-1.72m-22.73 14.14a103 103 0 0 0-34.04 9.55c-7.17 3.49-11.47 6.21-18.24 11.57-10.2 8.03-18.03 17.52-24.65 29.85a95.4 95.4 0 0 0-11.2 44.2c0 8.43.7 14.8 2.57 22.47 2.42 10.16 7.68 22.28 13.23 30.56a111 111 0 0 0 21.17 22.84c4.7 3.68 13.53 9.09 19.24 11.76 4.3 1.97 15 5.66 19.14 6.57 9.45 2.02 21.07 2.83 29.45 2.07 8.24-.8 14.9-2.22 22.83-4.85a94 94 0 0 0 23.24-11.36 94 94 0 0 0 28.59-29.55 92 92 0 0 0 7.83-15.76 94 94 0 0 0 6.46-30.56c1.12-22.78-7.17-46.88-22.27-65.06a110 110 0 0 0-14.65-14.2 103 103 0 0 0-40.4-18.58c-5.31-1.06-16.12-2.12-20.92-2.02-1.57.05-4.85.25-7.38.5m12.08 28.34c.7.66 2.07 3.08 3.03 5.46s3.03 7.37 4.6 11.1l5.05 12.13c5.15 12.43 5.1 12.38 6.66 12.48 16.87 1.46 39 3.84 40.21 4.3 3.18 1.2 4.34 5.1 2.32 7.67-.55.7-5.96 5.45-11.97 10.5-14.44 12.13-18.79 16.02-18.79 17.03 0 .45 1.72 8.89 3.84 18.74a657 657 0 0 1 4.1 20c.3 2.32-.77 4.9-2.33 5.76-.56.25-1.82.5-2.83.5-1.46 0-5.05-1.97-19.04-10.35-9.45-5.7-17.53-10.36-17.93-10.36s-2.83 1.27-5.4 2.83c-2.53 1.57-10.31 6.22-17.28 10.36-14.3 8.48-15.2 8.79-17.99 5.96-1.46-1.42-1.51-1.72-1.26-4.4.15-1.56 1.41-8.23 2.88-14.75l3.99-18.33c1.67-7.48 3.69-4.75-15.36-20.61a738 738 0 0 1-13.48-11.37c-1.01-.96-1.97-2.37-2.17-3.23-.46-2.02.9-4.75 2.93-5.7 1.06-.51 5.6-1.17 12.98-1.88 6.26-.55 15.35-1.41 20.2-1.86s9.1-1.07 9.4-1.37 1.16-2.02 1.82-3.84c3.23-8.38 14.04-34.9 14.6-35.81 1.46-2.27 5.2-2.73 7.22-.96" clip-rule="evenodd"/>
</svg>
