<svg xmlns="http://www.w3.org/2000/svg" fill="currentColor" viewBox="-75.534 -64.832 641.668 641.668">
    <path fill-rule="evenodd" d="M241.6 1.44C240 2.9 240 2.9 240 29.18c.04 23.92.1 26.38.9 27.24a8 8 0 0 0 2.31 1.56c1.16.45 1.97.45 3.48 0 3.67-1.1 3.57-.3 3.42-29.55-.15-25.98-.15-25.98-1.56-27.19a5.2 5.2 0 0 0-6.95.2M67.91 66.94c-1.15 1.16-1.46 1.91-1.46 3.68 0 2.16 0 2.16 18.78 20.89 18.73 18.78 18.73 18.78 20.9 18.78 1.76 0 2.51-.3 3.67-1.46s1.46-1.92 1.46-3.68c0-2.16 0-2.16-18.78-20.9C73.75 65.49 73.75 65.49 71.6 65.49c-1.76 0-2.52.3-3.68 1.46m330.21 17.02q-18.43 18.51-18.83 19.88a5.4 5.4 0 0 0 1.56 5.24c.96.96 1.77 1.2 3.63 1.2 2.42 0 2.42 0 20.9-18.52 12.23-12.23 18.57-18.93 18.77-19.89a5.2 5.2 0 0 0-1.5-5.18c-.97-.96-1.77-1.2-3.63-1.2-2.37 0-2.37 0-20.9 18.47M233.1 100.52c-.7.1-3.27.45-5.79.76-10.52 1.25-23.1 4.43-32.22 8.15a133 133 0 0 0-22.9 11.58 141 141 0 0 0-43.55 43.65c-5.09 8.1-10.22 18.98-14.2 29.9-1.05 2.97-3.42 12.09-4.63 17.67-2.52 12.24-3.27 30.11-1.81 42.8.85 7.05 3.62 19.73 5.49 25.27 2.06 5.94 5.23 13.6 7.9 18.93 6.75 13.5 14.15 23.81 25.68 35.84 14.34 15 19.88 21.6 24.11 28.75 3.58 6 5.14 9.26 7.3 15.05 3.78 10.12 6.3 23.01 6.3 32.38 0 4.88.9 9 2.56 11.98a21 21 0 0 0 6.8 7.05c4.68 2.76 3.37 2.71 51.1 2.71 41.98 0 44.2-.05 46.87-.95q5.28-1.81 8.35-5.29a24 24 0 0 0 4.23-7.6c.26-.8.66-5.03.91-9.36.86-13.95 3.93-26.33 9.36-37.66 1.77-3.73 4.69-8.96 6.5-11.58 3.98-6 8.7-11.53 20.94-24.47 10.12-10.72 13.85-15.3 18.78-22.9 3.93-6.05 5.14-8.11 8.26-14.35 5.99-11.88 11.02-28.15 13.04-42.04.65-4.63.9-9.31.9-17.62 0-6.24-.3-13.5-.65-16.11-.96-7.05-2.52-15.2-3.98-20.64-2.87-10.78-8.66-24.52-14.45-34.34-10.72-18.22-26.73-34.79-44.8-46.47-15.51-9.96-34.04-16.96-53.17-19.98-4.73-.76-9.41-1.06-19.13-1.16-7.05-.1-13.4-.1-14.1.05m25.18 10.82c7.1.66 16.46 2.52 24.16 4.84a149 149 0 0 1 24.72 10.47 126 126 0 0 1 28.65 21.85c7.3 7.3 14.45 16.41 18.98 24.16 8 13.55 13.44 28 16.2 43.1a124 124 0 0 1 1.37 37.35c-.8 6.7-1.01 7.8-3.18 16.27a124 124 0 0 1-12.03 30.05c-5.74 10.37-11.12 17.42-22.9 29.86-12.84 13.54-18.08 19.88-22.6 27.13a109 109 0 0 0-14.05 35.14 110 110 0 0 0-2.37 18.18c-.4 7.65-1.31 9.81-4.73 11.57-2.27 1.11-2.27 1.11-46.12 1.01-43.85-.15-43.85-.15-45.71-1.61a9 9 0 0 1-2.57-3.02c-.35-.86-.75-4.28-.96-7.6a115 115 0 0 0-2.56-20.14 106 106 0 0 0-7.6-22.4c-2.77-5.74-7.1-13.1-9.97-16.87-4.03-5.28-11.43-13.8-18.08-20.8-8.7-9.05-14.3-15.95-19.28-23.5-3.93-6.04-8.56-15-11.43-22.15-6.19-15.36-9.46-33.53-8.7-48.28.6-11.88 1.76-19.99 4.42-29.76 2.42-9.06 4.33-14.14 8.66-23.16a129 129 0 0 1 14.3-23.4c4.88-6.3 17.12-18.28 23.76-23.26a139 139 0 0 1 28.6-16.37 126 126 0 0 1 24.27-7.15c4.58-.85 7.75-1.2 18.87-2.26 2.57-.25 10.48.1 17.88.75m-25.43 56.74a8 8 0 0 0-2.41 2.92c-.46 1.06-1.16 4.38-1.56 7.4-.4 2.97-.96 5.74-1.26 6.1-.36.4-1.21.85-1.97 1.05-.75.2-2.97 1.11-4.98 2.02-3.68 1.7-3.68 1.7-9.06-2.32-2.97-2.16-6.1-4.13-7-4.28-3.17-.6-4.78.5-12.23 8.1-5.74 5.95-7.1 7.6-7.4 9.12-.2 1.06-.1 2.52.2 3.32.25.76 2.06 3.68 3.92 6.45 3.23 4.78 3.38 5.08 2.82 6.64-1.26 3.83-3.22 8.76-3.57 9.11-.25.25-3.58.96-7.4 1.61-6.3 1.11-7.05 1.36-8.46 2.77-1.56 1.51-1.56 1.51-1.71 12.74-.1 10.47-.05 11.28.9 12.84.56.9 1.77 1.96 2.62 2.36.9.46 4.43 1.21 7.86 1.72 3.37.5 6.24 1 6.29 1.1.1.1 1.1 2.57 2.26 5.44 2.07 5.24 2.07 5.24.66 7.05-.8 1-2.57 3.57-4.03 5.79-2.77 4.23-3.17 6.24-1.86 8.76.4.75 3.88 4.48 7.7 8.25 5.69 5.54 7.35 6.95 8.86 7.2 1 .2 2.42.2 3.07.05.66-.15 3.33-1.86 5.9-3.82 2.61-1.97 5.18-3.68 5.78-3.83.66-.15 3.02.56 6.04 1.86 2.72 1.16 5.04 2.17 5.14 2.22.05.05.45 2.82.9 6.1.4 3.31 1.01 6.59 1.31 7.4.3.75 1.21 1.96 2.02 2.61 1.46 1.26 1.5 1.26 12.63 1.26 10.27 0 11.33-.1 12.84-1a7 7 0 0 0 2.37-2.63c.4-.9 1.06-4.28 1.5-7.4.41-3.17.92-5.94 1.12-6.14.65-.6 9.81-4.48 10.62-4.48.45 0 2.82 1.56 5.34 3.47a72 72 0 0 0 5.68 4.03c1.51.76 3.98.7 5.6-.15 2.2-1.16 15.1-14.5 15.45-16.06.2-.75.2-2.11.05-3.02-.15-.96-2.02-4.08-4.08-7-3.72-5.28-3.72-5.28-1.56-10.47 1.16-2.87 2.47-5.39 2.87-5.59s3.62-.8 7.2-1.36c5.94-.95 6.64-1.15 8.05-2.61 1.56-1.51 1.56-1.51 1.72-12.74.1-8.3-.05-11.48-.56-12.44-1.16-2.26-3.42-3.27-9.21-4.23-3.02-.45-6.04-1-6.7-1.2-.9-.26-1.5-1.21-2.56-3.88a45 45 0 0 0-2.22-5.19c-.86-1.6-.86-1.6 2.32-6.14a80 80 0 0 0 4.02-6.19c1.01-1.86 1.16-4.43.36-6.04-.3-.6-3.78-4.33-7.66-8.26-7.5-7.55-8.5-8.2-11.93-7.45-.85.2-3.87 2.07-6.64 4.13-4.84 3.57-5.19 3.78-6.65 3.27-2.77-.9-9.46-3.57-9.71-3.82-.16-.16-.6-2.92-.96-6.2-.4-3.27-.96-6.54-1.26-7.3-.3-.7-1.1-1.86-1.81-2.51-1.21-1.16-1.46-1.16-12.64-1.31-10.47-.1-11.58-.05-12.94.8m18.38 10.68c.2.7.65 3.27.95 5.73.6 4.69 1.31 6.5 2.92 7.96.56.5 2.72 1.46 4.84 2.16a62 62 0 0 1 7.5 3.07c3.17 1.62 3.98 1.82 6.5 1.62 2.71-.2 3.27-.46 7.75-3.93 4.88-3.68 4.88-3.68 8.86.3 2.16 2.17 3.97 4.18 3.97 4.43s-1.15 2.07-2.56 3.98c-3.88 5.34-4.63 7-4.38 9.77.15 1.35 1.26 4.63 2.51 7.45 1.26 2.77 2.72 6.14 3.23 7.55 1.3 3.37 3.42 4.53 10.27 5.54 2.92.45 5.43.95 5.69 1.2.2.2.3 2.97.25 6.15-.15 5.74-.15 5.74-5.5 6.54-2.91.45-5.78 1-6.38 1.16-2.27.75-4.13 2.87-4.94 5.69a75 75 0 0 1-3.02 7.5c-2.42 5.23-2.77 7.75-1.4 10.42.44.9 2.06 3.27 3.57 5.34 2.77 3.67 2.77 3.67-1.16 7.65-2.17 2.21-4.23 3.98-4.53 3.98-.36 0-2.22-1.26-4.13-2.72a44 44 0 0 0-5.09-3.53c-2.56-1.36-5.03-1-10.17 1.41-2.61 1.21-5.99 2.57-7.5 3.07a13 13 0 0 0-4.33 2.47c-1.36 1.36-1.66 2.22-2.41 6.6-1.41 8.3-.66 7.55-7.2 7.7-6.5.15-6.35.25-6.9-4.53-.55-5.04-1.36-7.96-2.62-9.42q-1.2-1.43-6.34-3.47c-2.87-1.16-6.4-2.62-7.8-3.32-2.97-1.46-6.05-1.66-8.1-.6-.76.4-3.03 1.96-5.1 3.52s-3.97 2.82-4.27 2.82-2.27-1.77-4.43-3.88c-3.88-3.83-3.88-3.83-1.21-7.65a72 72 0 0 0 3.52-5.44c1.41-2.77 1.06-5.54-1.4-10.77a69 69 0 0 1-2.83-6.95c-.3-1.2-.85-2.62-1.15-3.17-1.01-1.66-4.23-2.97-9.32-3.73-2.67-.4-5.28-.85-5.74-1-.8-.26-.9-1.01-.9-6 0-3.17.2-5.84.45-6.04.25-.15 2.87-.6 5.84-1 7.95-1.11 9.11-1.97 11.18-7.9.7-2.02 2-5.34 2.97-7.4 2.06-4.49 2.21-7.4.6-10.08-.6-1-2.22-3.27-3.52-5.03-1.31-1.76-2.42-3.48-2.42-3.78s1.81-2.36 3.98-4.53c4.02-3.98 4.02-3.98 8.45-.7a91 91 0 0 0 5.54 3.87c2.07 1.06 5.04.66 8.71-1.2a69 69 0 0 1 7.4-3.03 31 31 0 0 0 5.04-2.01c1.8-1.2 2.67-3.47 3.42-9.06.35-2.92.8-5.49 1-5.8.2-.34 2.37-.5 5.9-.4 5.49.16 5.64.16 5.94 1.42m-11.83 29.9c-10.47 2.01-19.74 8.91-24.32 18.12-2.47 4.94-3.32 8.86-3.32 14.65.05 6 1 10.12 3.52 14.86 4.53 8.7 12.79 15.2 22 17.36 4.53 1.06 11.48.96 16.26-.25a43 43 0 0 0 6.6-2.31c3.52-1.71 7.5-4.89 10.62-8.46 4.53-5.19 6.8-10.02 7.75-16.77 1.31-9.2-1.8-19.68-7.85-26.22a41 41 0 0 0-10.12-7.76c-6.4-3.27-14.55-4.48-21.14-3.22m11.27 10.62c5.95 1.56 11.28 5.39 14.3 10.17a29 29 0 0 1 2.42 5.29c.85 2.57 1 4.03.85 7.7-.2 3.73-.5 5.14-1.8 7.96a24 24 0 0 1-10.93 11.17c-6.3 3.07-12.44 3.32-18.83.8q-10.06-4.01-13.7-14.74c-.85-2.52-1-4.03-.85-7.45.15-3.68.45-4.84 2.06-8.11a24.6 24.6 0 0 1 15.71-12.84c3.42-.85 7.55-.85 10.77.05M1.46 237.1C.3 238.26 0 239.02 0 240.68s.3 2.42 1.46 3.57c1.46 1.46 1.46 1.46 28.34 1.46 26.89 0 26.89 0 28.2-1.4 1.66-1.77 2.01-3.43 1.2-5.4-1.46-3.42-.2-3.27-29.65-3.27-26.63 0-26.63 0-28.09 1.46m430.95 0c-1.16 1.16-1.46 1.92-1.46 3.58s.3 2.42 1.46 3.57c1.46 1.46 1.46 1.46 11.22 1.51 5.34 0 17.32 0 26.59-.05 18.62-.1 18.57-.05 19.93-3.32.6-1.46.6-1.96 0-3.42-1.46-3.48-.15-3.33-29.65-3.33-26.63 0-26.63 0-28.1 1.46M84.98 386.53C72.3 399.26 66.4 405.5 66.15 406.5c-.75 3.23 2.67 6.75 6.04 6.15 1.26-.26 5.54-4.28 20.1-18.83 18.47-18.53 18.47-18.53 18.47-20.7 0-1.7-.3-2.46-1.46-3.62s-1.92-1.46-3.68-1.46c-2.16 0-2.16 0-20.64 18.48m297.18-17.77a5.5 5.5 0 0 0-2.56 4.22c0 .66.3 1.77.7 2.52.4.76 8.76 9.31 18.53 19.08 19.03 18.93 19.33 19.18 22.5 17.57 2.02-1.06 3.07-2.67 3.07-4.68 0-1.16-.55-2.27-2.06-4.03-2.07-2.41-27.44-27.74-32.83-32.77-2.21-2.07-3.17-2.62-4.48-2.62-.9.05-2.21.35-2.87.7M189.3 461.04a5.9 5.9 0 0 0-3.32 4.02c-.4 2.02.56 4.48 2.02 5.34.7.4 4.83.7 12.13.86 11.07.25 11.07.25 11.38 7.55.25 5.84.55 7.9 1.46 10.32 2.06 5.33 4.12 8.46 8.56 12.89 3.52 3.52 5.18 4.73 8.6 6.39 7.25 3.47 14.05 4.38 21.7 2.92 11.83-2.27 21.95-11.48 25.83-23.46.6-1.81 1-5.14 1.2-9.57.3-6.8.3-6.8 11.39-7.04 6.09-.15 11.47-.46 11.98-.7 1.2-.56 2.36-2.93 2.36-4.8 0-1-.55-2.1-1.46-3.16-1.46-1.66-1.46-1.66-57.29-1.77-30.66-.05-56.13.06-56.54.2m79.45 13.94c.2 4.73-.66 9.92-2.22 13.24-1.56 3.22-6.09 8.26-8.96 9.97a25.5 25.5 0 0 1-15.9 3.22c-6.85-.95-14.2-6.14-17.58-12.48a23 23 0 0 1-2.01-6.1c-.6-3.67-.76-10.72-.2-11.22.15-.2 10.77-.3 23.5-.25 23.22.15 23.22.15 23.37 3.62" clip-rule="evenodd"/>
</svg>
