<svg xmlns="http://www.w3.org/2000/svg" width="437" height="512" fill="currentColor" viewBox="0 0 437 512">
    <path fill-rule="evenodd" d="M201.1 1.17a140 140 0 0 0-60.69 25.17c-8.92 6.53-22.94 20.86-29.55 30.1-9.63 13.62-18.31 33.37-21.58 49.38-.72 3.27-1.67 10.67-2.23 16.49-.72 8.12-.72 12.82 0 21.1.56 5.82 1.51 13.3 2.23 16.57 3.34 16.17 12.58 37.11 22.38 50.97 6.85 9.64 21.58 24.37 31.3 31.22 13.46 9.56 33.29 18.32 48.98 21.66 14.18 3.1 31.78 3.75 46.67 1.6 16-2.23 34.17-8.45 48.03-16.41 6.69-3.82 15.6-10.35 22.7-16.49 11.14-9.71 23.89-26.84 30.9-41.5 4.22-8.75 9.15-23.33 10.9-31.85.64-3.26 1.6-10.43 2.08-15.93.87-10.99.16-25.32-2-36.23-1.75-9.24-5.49-20.23-10.43-30.67-14.9-31.14-40.22-54.63-73.11-67.7-8.04-3.18-22.7-6.76-31.94-7.88-9.71-1.2-25.4-.95-34.64.4m-2.4 294.28c-44.99 3.35-83.93 14.58-115.15 33.13C43 352.71 15.37 388.16 4.46 430.28.48 445.5 0 450.69 0 477.05c0 24.29 0 24.29 2.15 27.55a16 16 0 0 0 6.3 5.34c4.21 2.07 4.21 2.07 209.7 2.07 198.38 0 205.63-.08 208.74-1.51 1.75-.8 4.14-2.47 5.33-3.75 4.38-4.7 4.62-6.37 4.62-29.54 0-29.47-1.6-41.34-8.12-61.57-3.1-9.8-10.36-24.77-16.33-33.85-12.1-18.4-28.27-34.24-48.82-47.86-7.57-5.1-11.23-7.17-21.1-12.1-15.77-7.9-31.78-13.7-51.37-18.48-29.07-7.1-63.72-10.04-92.4-7.89" clip-rule="evenodd"/>
</svg>
