<svg xmlns="http://www.w3.org/2000/svg" fill="currentColor" viewBox="-69.353 -73.11 650.704 650.704">
    <path fill-rule="evenodd" d="M235.6.08c-17.15 1.52-28.3 3.13-40.1 5.8-18.47 4.24-43.44 12.92-57.42 19.98a254.22 254.22 0 0 0-63.21 46.31 234 234 0 0 0-31.08 38.35c-6.81 10.4-10.24 16.4-16.3 28.25-8.32 16.45-15.28 34.61-19.37 50.7C2.27 212.54 0 230.05 0 251.99c0 19.02 1.16 30.53 4.8 48.74 1.25 6.1 3.17 14.43 4.28 18.57a257 257 0 0 0 16.65 43.48c13.22 26.9 32.84 53.68 53.38 72.75 19.12 17.76 37.73 30.93 59.38 42.08 9.68 5 17.66 8.53 26.38 11.76 20.23 7.41 39.05 11.8 61.65 14.22 10.8 1.21 32.7 1.21 43.64 0 13.63-1.46 25.94-3.63 36.73-6.45 5.9-1.57 5.9-1.57.2-5.4a155 155 0 0 1-15.59-11.76 46 46 0 0 0-3.58-2.92c-.15 0-2.17 1.2-4.54 2.67-7.57 4.8-16.8 8.12-24.16 8.78-3.43.3-3.43.3-3.43-28s0-28.3-1.97-32.85a143 143 0 0 1-8.83-28.05c-2.07-10.7-2.52-16.09-2.52-28.5 0-10.14.2-13.77 1.16-20.18 1.76-12.31 6.2-28.05 10.44-37.23 1.67-3.69 1.67-3.69 1.77-27.25.05-12.96.25-24.06.45-24.62.45-1.06.5-1.1 17.76-.96 9.53.05 17.9-.1 18.72-.3.75-.2 2.57-1.41 4.03-2.62 3.23-2.73 8.38-6.36 13.72-9.69 4.04-2.52 4.04-2.52-25.22-2.77l-29.26-.26v-46.76c0-25.68.1-46.87.25-47.02s5.15-.5 11.1-.81c20.03-1.01 35.92-2.73 53.98-5.85 10.24-1.77 23.92-4.54 29.26-6 1.57-.41 2.93-.56 3.18-.31.6.6 7.87 29.61 10.4 41.42a314 314 0 0 1 3.02 16.14c1.26 8.38 3.08 25.38 3.08 28.86 0 2.58 0 2.58 4.94 2.27 2.68-.2 6.1-.35 7.57-.35 2.62 0 2.62 0 2.62-2.17 0-2.88-1.81-20.84-2.77-27.3-2.32-15.58-5-27.94-10.54-49.18-1.87-7.07-3.28-13.17-3.23-13.57.1-.46 4.28-2.07 11.25-4.4a317 317 0 0 0 44.34-18.2c4.14-2.07 7.67-3.74 7.87-3.74.96 0 11.6 15.9 17.36 25.93 14.48 25.13 25.27 56.3 29.56 85.31 1.57 10.65 2.12 18.42 2.22 31.33.1 12.21.1 12.21 7.22 19.07 7.11 6.87 7.11 6.87 7.41 4.75.15-1.21.4-8.48.6-16.15.56-23.15-1.15-40.4-6.35-63.21a210 210 0 0 0-7.92-26.49 273 273 0 0 0-38.74-71.59 236 236 0 0 0-24.52-27.54 244 244 0 0 0-39.3-31.64 201 201 0 0 0-36.83-19.22C319.9 9.67 298.1 4.07 274.65 1.3 268 .48 262 .12 251.75.02c-7.62-.05-14.88-.05-16.14.05m5.15 63.87c.05 26.44.05 48.9.05 49.85-.05.96-.05 6.26-.1 11.8-.05 10.04-.05 10.04-6.7 9.7-20.19-1.07-31.64-2.08-47.33-4.35-12.36-1.76-37.79-6.86-38.65-7.72-.7-.7 6.51-18.36 12.72-31.12 6.25-12.87 9.83-19.28 16.09-28.76 6.6-10.04 12.16-16.95 19.42-24.27 6.16-6.2 12.82-11.45 19.43-15.23 6.7-3.89 18.16-7.77 23.36-7.87 1.61-.05 1.61-.05 1.71 47.97m26.03-46.2c8.33 2.41 16 6.3 23.67 12 5.1 3.78 14.83 13.42 19.62 19.37 2.27 2.88 5.7 7.42 7.57 10.1 8.37 12.1 18.82 31.27 24.82 45.75 2.27 5.45 6.66 17.4 6.66 18.11 0 .46-3.18 1.21-14.88 3.64-24.52 4.99-49.45 7.92-71.64 8.37-6.56.15-6.56.15-6.71-55.34-.1-30.53 0-57.42.15-59.74.35-4.19.35-4.19 3.38-3.88 1.66.2 5 .9 7.36 1.61m55.1 10.18c11.45 3.89 19.32 7.02 26.99 10.65 16.6 7.97 33.5 19.12 48.93 32.39 7.07 6.05 24.47 23.36 24.47 24.31 0 .76-9.94 5.8-19.92 10.2a322 322 0 0 1-29.77 11.1 810 810 0 0 0-8.12 2.62c-.36.1-.96-.76-1.42-1.97-.4-1.21-1.91-5.25-3.28-8.98a273 273 0 0 0-20.68-43.54c-8.63-14.48-16.7-25.38-25.78-34.81-3.08-3.18-5.55-5.9-5.55-6.05 0-.4 5.7 1.26 14.13 4.08M184.6 28.94c-18.36 19.12-35.77 48.74-48.33 82.08-2.98 7.93-3.08 8.08-4.44 7.93-2.27-.26-23-7.32-31.43-10.7-9.94-3.99-26.24-11.86-26.24-12.66 0-.3 4.6-5.2 10.24-10.8 13.93-13.87 24.47-22.65 38.45-31.83 13.17-8.63 24.87-14.79 37.58-19.63 8.18-3.13 26.7-9.28 27.95-9.33.66 0-.5 1.51-3.78 4.94M87.03 119.2a314 314 0 0 0 31.02 11.7 770 770 0 0 1 8.48 2.68c1.36.4 1.67.7 1.46 1.61-.1.56-1.51 5.7-3.07 11.4-3.38 12.41-5.8 23-7.82 34.56a440 440 0 0 0-6.41 57.11c-.35 7.22-.35 7.22-47.68 7.22-47.37 0-47.37 0-47.37-2.73 0-4.54 1-15.33 2.07-22.5 1.46-9.69 4.08-22 6.7-31.48a238 238 0 0 1 15.7-40.92 251 251 0 0 1 21.04-35.41c3.02-4.14 3.02-4.14 10.39-.46 4.09 2.02 11.05 5.3 15.49 7.22m67.1 21.49c9.28 2.12 28.1 5.4 39.25 6.86 11.1 1.46 22.7 2.47 35.62 3.08 6.25.3 11.4.6 11.5.65.1.1.25 66 .15 86.73 0 7.47 0 7.47-57.21 7.47-33.55 0-57.36-.2-57.51-.46-.36-.55.45-18 1.2-26.28 1.17-12.72 3.44-28 6.56-44.4a468 468 0 0 1 8.13-32.39c1-3.53 1.06-3.53 2.62-3.33.9.15 5.25 1.06 9.69 2.07M78 261.07c32.34.05 32.34.05 32.69 7.21.8 16.8 2.22 30.72 4.9 48.08 2.21 14.43 4.89 27.1 8.77 41.62 1.87 6.96 3.28 12.92 3.13 13.27-.1.3-2.93 1.46-6.2 2.57-18.07 5.86-31.49 11.35-47.13 19.23a180 180 0 0 1-8.73 4.28c-.45 0-7.46-9.83-11.7-16.4a218 218 0 0 1-13.12-22.95 233 233 0 0 1-13.92-34.05c-3.48-10.9-7.42-27.75-8.98-38.6-.8-5.45-2.07-18.92-2.07-21.74 0-2.42 0-2.42 5.7-2.57 3.08-.1 9.84-.1 14.98-.06 5.15.06 23.87.1 41.68.1m162.75 10.54c.05 5.75.05 26.69 0 46.57-.2 36.12-.2 36.12-9.74 36.42-14.63.56-35.77 2.57-48.13 4.7a682 682 0 0 0-32.49 6.55c-3.98.96-7.41 1.57-7.61 1.36-.86-.9-7.02-24.82-9.29-35.97a376 376 0 0 1-7.46-64.32c-.16-5.55-.16-5.55 34.66-5.8 19.17-.16 44.95-.2 57.36-.1 22.5.1 22.5.1 22.7 10.59m-.05 104.38c.05 4.7.05 74.97-.05 106.9 0 6.11 0 6.11-3.38 5.66-7.16-.96-12.46-2.68-19.83-6.51-7.87-4.09-13.67-8.58-22.45-17.35-8.12-8.08-13.87-15.19-20.83-25.48-8.53-12.77-17.46-30.88-23.87-48.69a276 276 0 0 0-2.47-6.66c-.25-.6-.3-1.2-.1-1.36.86-.55 11.1-2.87 20.79-4.8a465 465 0 0 1 33.8-5.34 404 404 0 0 1 32.19-2.22c6.15-.05 6.15-.05 6.2 5.85m-106.55 13.88c2.67 8.78 9.33 24.57 15.18 36.32a213 213 0 0 0 19.83 32.44 201 201 0 0 0 15.44 17.66c1.97 1.92 3.58 3.68 3.58 3.83 0 .46-10.54-2.72-17.66-5.34-16.44-6-32.28-14.18-48.93-25.23a251 251 0 0 1-24.22-18.31c-4.74-4.2-21.7-20.89-21.7-21.4 0-.2 3.34-2.06 7.47-4.13a267 267 0 0 1 22.8-10.14c7.22-2.83 24.83-8.78 26.09-8.83.96 0 1.26.5 2.12 3.13m237.42-143.64a152 152 0 0 0-20.38 4.09 127 127 0 0 0-53.53 31.48c-15.59 15.54-26.74 34.46-33.1 56.25-2.27 7.82-3.58 15.34-4.28 25.43a97 97 0 0 0 0 16.25 121 121 0 0 0 8.72 38.04c3.94 9.99 10.95 22.2 18.07 31.53 6.15 8.07 15.89 17.7 24.51 24.26 6 4.5 15.14 10.04 22.15 13.37 10 4.75 22.7 8.63 34.81 10.65 4.34.7 8.33.9 18.42.9 9.99 0 14.07-.2 18.31-.9 21.44-3.58 39.35-11.15 57.46-24.32 5.2-3.78 18.32-16.75 22.76-22.5a154 154 0 0 0 13.22-21.14c4.84-9.63 8.93-21.84 11.35-33.8 1.56-7.97 2.17-16.85 1.86-27.9-.2-6.96-.6-12.1-1.3-16.24a131 131 0 0 0-20.29-51.01c-6-8.98-16.95-20.79-25.93-27.95a137 137 0 0 0-34.26-19.42c-6.6-2.43-16.24-5-23.76-6.36-4.7-.8-8.68-1.11-17.66-1.21-7.92-.15-13.37.05-17.15.5m7.32 71.9c.25 53.12.3 56.9 1.16 58.17a7 7 0 0 0 2.52 2.22c1.51.85 5.14.9 57.76 1.05 56.1.1 56.1.1 56.1 2.43 0 3.23-1.36 11.6-2.77 17.35-4.94 19.78-14.18 36.43-27.95 50.65-8.12 8.33-15.49 13.93-26.03 19.88-10.3 5.75-23.71 10.34-35.92 12.26-5.1.76-9.44 1.06-16.05 1.11-12.96.05-21.49-1.16-32.79-4.7-11.25-3.52-19.02-7.15-28.45-13.36a115.3 115.3 0 0 1-39.66-44.9c-5.55-11.3-9.58-24.72-10.8-36.17-.8-7.17-.65-19.58.26-26.74 2.07-16.2 8.27-32.8 17.35-46.57 4.6-6.91 7.67-10.64 14.28-17.3 5.7-5.8 13.82-12.31 20.28-16.25 5.15-3.18 15.9-8.22 21.75-10.24 9.13-3.18 22.2-5.95 26.94-5.75 1.76.1 1.76.1 2.02 56.86m27.9-55.45c7.56 1.36 19.57 5.4 27.54 9.28a122 122 0 0 1 22.65 14.58c5.55 4.64 13.17 12.57 16.85 17.46A118 118 0 0 1 494.67 350c.7 3.48 1.41 8.07 1.61 10.2.3 3.83.3 3.83-51.1 3.72l-51.41-.15-.15-50.7c-.05-27.9 0-51 .15-51.4.2-.56 1.06-.61 3.93-.31 1.97.15 6.1.76 9.09 1.31" clip-rule="evenodd"/>
</svg>
