<svg xmlns="http://www.w3.org/2000/svg" width="501" height="512" fill="currentColor" viewBox="0 0 501 512">
    <path fill-rule="evenodd" d="M308.97 1.47c-9.03 1.9-20.14 6.8-28.26 12.43-7.13 4.9-16.74 14.5-20.8 20.97a93 93 0 0 0-10.12 21.3c-2.4 7.04-2.4 7.04-2.4 38.12 0 30 .08 31.25 1.9 37.05 4.48 14.34 14.1 28.92 25.2 38.29 6.47 5.47 6.47 5.47 6.47 29.67 0 24.12 0 24.12 2.57 26.27 1.4 1.16 3.56 2.16 4.8 2.16 2.57 0 9.37-4.23 35.06-21.72 17.82-12.18 17.82-12.18 65.8-12.43 48-.33 48-.33 55.45-2.57 8.7-2.73 19.15-8.04 25.94-13.26 6.05-4.72 13.76-12.93 17.82-19.06 4.3-6.47 8.54-15.83 10.77-23.62 1.66-6.05 1.74-8.12 1.83-38.29 0-30.67-.09-32.16-1.9-38.37-5.15-17.74-15.67-33.07-30.1-43.76-6.38-4.73-18.64-10.7-26.43-12.85C437.6.4 432.37.23 376.68.06c-56.1-.16-61-.08-67.71 1.41m131.11 15.42c17.4 5.55 31.83 17.73 39.7 33.56 6.47 12.85 6.88 15.66 6.55 48.9-.25 28.5-.25 28.5-2.57 35.14-3.57 10.2-8.2 17.32-16.66 25.7-5.72 5.71-9.2 8.36-14.34 11.01a87 87 0 0 1-13.26 5.3c-6.21 1.83-8.12 1.83-54.78 2.16-48.32.25-48.32.25-68.54 13.93-20.3 13.67-20.3 13.67-20.3-4.31 0-14.5-.25-18.4-1.33-20.47-.66-1.5-3.73-4.56-6.8-6.8-7.62-5.8-15.91-15.58-19.97-23.79-5.64-11.43-5.89-13.5-5.89-42.1 0-26.85.34-29.67 4.31-39.78 3.24-8.12 7.46-14.34 14.76-21.63 7.46-7.54 14.33-11.94 23.87-15.42a65 65 0 0 1 9.6-2.65c2.33-.41 30.34-.66 62.25-.58 56.27.17 58.18.17 63.4 1.83M309.05 58.24a8 8 0 0 0-3.15 3.81c-.66 1.91-.58 3.15.25 5.3.66 1.5 1.9 3.16 2.82 3.65 1.16.67 21.46.92 65.64.92 63.9 0 63.9 0 65.89-2.08 3.64-3.56 2.65-9.86-1.83-11.93-1.4-.66-20.47-.91-64.72-.91-52.88.08-63.07.25-64.9 1.24m.42 35.56c-1.41.66-2.82 1.74-3.15 2.57-.25.74-.5 2.73-.5 4.47 0 2.24.58 3.65 2.15 5.14 2.16 1.99 2.16 1.99 66.3 1.99 64.15 0 64.15 0 66.3-2.16a7.24 7.24 0 0 0 .1-10.52c-2.25-2.24-2.25-2.24-65.48-2.4-51.72-.17-63.65 0-65.72.9m-.42 35.72c-2.9 1.57-4.22 5.3-3.23 8.86 1.5 5.23 1.24 5.14 37.3 5.47 17.98.17 35.88.09 39.7-.24 5.71-.5 7.29-.92 8.86-2.57 2.65-2.57 2.65-6.97 0-10.03-1.99-2.32-1.99-2.32-41.27-2.49-32.99-.16-39.53 0-41.36 1M121.42 97.69a86.6 86.6 0 0 0-58.27 30c-10.03 11.69-17.98 29.18-19.97 43.93-.58 4.23-.91 31.9-.91 77.57 0 58.85.25 72.35 1.24 78.07a85.7 85.7 0 0 0 24.95 47.16c8.12 7.8 12.93 11.27 21.46 15.58 13.01 6.55 24.37 9.37 38.96 9.45 5.47 0 12.34-.41 15.33-.91 22.7-4.15 44.5-17.99 57.18-36.55 4.73-6.96 9.7-17.4 11.94-25.11 1.16-3.9 2.4-10.61 2.9-14.92 1.16-10.44 1.24-133.68.08-145.78a86 86 0 0 0-8.62-30.42c-4.22-8.37-11.77-18.73-17.65-24.2-13.68-12.76-32.74-22.05-48.48-23.54-10.53-1-12.85-1-20.14-.33m22.37 16.41c4.15.83 9.53 2.32 12.02 3.32 11.27 4.22 23.54 13.5 31.16 23.37 5.06 6.55 11.44 20.39 13.26 28.5 1 4.57 1.5 10.45 1.5 19.07.08 12.43.08 12.43-17.74 12.85-9.78.24-18.48.74-19.31 1.16a5.3 5.3 0 0 0-2.24 2.23c-1.33 2.4-.91 7.05.75 9.12 1.57 1.99 1.9 1.99 20.14 2.4 18.48.42 18.48.42 18.73 12.6.25 12.1.25 12.1-17.99 12.43-17.9.25-18.23.25-20.3 2.24-1.66 1.58-2.16 2.82-2.16 5.47s.5 3.9 2.16 5.47c2.07 1.99 2.48 1.99 20.05 2.4 17.99.42 17.99.42 17.99 12.44s0 12.01-18.48 12.43c-18.24.41-18.57.41-20.14 2.4-2.08 2.49-2.08 7.63 0 10.11 1.57 2 1.9 2 20.14 2.4 18.48.42 18.48.42 18.4 13.27-.17 13.17-1 18.31-4.56 28.17-4.64 12.68-15.09 25.95-26.69 33.9-5.47 3.73-16.41 8.7-22.96 10.53-4.06 1.16-8.53 1.49-17.82 1.57-10.44 0-13.42-.33-18.73-1.82a78 78 0 0 1-25.52-12.68c-12.19-9.2-21.88-23.7-25.86-38.54-1.41-5.06-1.9-9.86-2.16-20.55-.41-13.84-.41-13.84 17.16-13.84 17.74 0 19.9-.34 22.13-3.24.58-.74 1.08-2.73 1.08-4.47 0-2.24-.58-3.73-2.08-5.14-1.99-2.07-1.99-2.07-20.3-2.07-18.23 0-18.23 0-18.23-12.35 0-12.43 0-12.43 18.15-12.68 17.98-.25 18.23-.25 20.3-2.24a6.2 6.2 0 0 0 2.16-4.8c0-1.58-.42-3.57-.92-4.56-1.82-3.32-5.47-3.98-23.12-3.98-16.66 0-16.66 0-16.4-12.27.24-12.18.24-12.18 18.72-12.6 18.24-.41 18.57-.41 20.14-2.4 1.82-2.15 2.07-7.21.5-9.28-2.24-2.9-4.4-3.23-22.13-3.23-17.57 0-17.57 0-17.16-14.76.25-11.77.75-15.9 2.16-20.72 4.23-14.5 13.18-28.26 24.03-36.88a92 92 0 0 1 14.59-8.95c14.5-6.96 30.42-8.95 45.58-5.8M3.73 267.67C0 269.67 0 269.83 0 298.26c0 30.33.58 35.38 5.47 51.3 3.23 10.36 9.78 24.2 15.33 32.49 12.77 18.97 31.25 35.38 50.89 45.16 13.92 7.05 30.42 11.94 44.26 13.18 5.88.58 5.88.58 5.88 28.6 0 28.09 0 28.09-34.06 28.09s-34.07 0-36.47 2.4c-3.23 3.32-3.23 6.8 0 10.11 2.4 2.4 2.4 2.4 77.58 2.4 82.46 0 78.9.26 80.64-4.96a6.5 6.5 0 0 0 0-4.98c-1.66-4.89-2.24-4.97-39.2-4.97-33.57 0-33.57 0-33.4-27.93.24-27.93.24-27.93 10.19-29.34a131 131 0 0 0 31.82-8.7c21.14-8.7 42.93-26.02 56.36-44.75 7.13-10.03 15.91-28.27 19.06-39.7 4.4-15.83 4.64-18.57 4.64-48.32 0-27.68 0-27.68-2.32-29.67-1.24-1.08-3.23-2-4.3-2-3.07 0-5.97 1.58-6.97 3.9-.58 1.33-.91 9.78-.91 24.54 0 12.43-.41 25.77-.83 29.58-1.74 14.1-7.3 30.67-14.25 42.69a123 123 0 0 1-19.31 24.78c-15.92 15.74-36.55 26.77-59.26 31.66-5.39 1.16-10.44 1.49-21.55 1.49-11.77 0-16.16-.42-23.12-1.9-14.67-3.16-30.67-10.12-42.93-18.9-7.46-5.23-19.07-16.5-24.7-23.8-10.03-13.17-17.57-28.75-21.3-44.25-1.5-6.3-1.82-10.77-2.24-36.46-.5-29.34-.5-29.34-2.82-31.33a7.3 7.3 0 0 0-8.45-1" clip-rule="evenodd"/>
</svg>
