<svg xmlns="http://www.w3.org/2000/svg" width="504" height="512" fill="currentColor" viewBox="0 0 504 512">
    <path fill-rule="evenodd" d="M17.68 1.08C11.04 3.36 6.48 7.01 3.34 12.63-.36 19.27-.05-3.27.05 257.33.2 491.99.2 491.99 1.42 495.03c1.62 4.1 4.2 8 6.79 10.44a29 29 0 0 0 10.43 5.72c2.53.76 23.76.81 233.6.81 228.8 0 230.82 0 234.06-1.01A26.4 26.4 0 0 0 503.67 493c.66-2.69.76-24.06.76-194.05 0-188.62 0-191.05-1-194.9-1.93-7.55-2.29-7.96-28.37-34.5-6.59-6.68-19.9-20.36-29.63-30.39a3327 3327 0 0 0-26.09-26.64c-7.44-7.5-8.81-8.66-12.36-10.38-4.05-1.98-4.05-1.98-195-2.08-191-.15-191-.15-194.3 1.01m79.77 16.16c.16.36.3 33.94.4 74.61.11 69.09.21 74.15 1.02 76.99 1.37 4.6 4.2 9.17 7.95 12.97a24 24 0 0 0 7.15 5.16 40 40 0 0 0 6.23 2.33c1.82.46 32.16.61 119.03.56 105.7 0 116.9-.1 119.38-.81 6.23-1.88 11.7-5.57 15.2-10.44 2.73-3.74 3.19-4.6 4.66-8.4 1.11-2.89 1.11-2.89 1.36-78.1.26-75.22.26-75.22 8.87-75.38 6.89-.1 9.01 0 10.74.66 1.67.66 5.31 4.1 17.22 16.36 8.3 8.56 19.3 19.86 24.46 25.18 5.17 5.26 13.17 13.47 17.73 18.23 4.6 4.71 11.9 12.26 16.26 16.72 9.37 9.57 10.89 11.3 11.6 13.11.35.97.5 61.7.5 191.62 0 190.2 0 190.2-1.11 192.22a10 10 0 0 1-2.94 3.09c-1.77 1.11-1.77 1.11-31.4 1.11h-29.63l-.26-110.42c-.25-106.26-.3-110.47-1.21-112.44a28 28 0 0 0-5.42-7.75c-.96-.91-3.2-2.43-5.02-3.3-3.29-1.62-3.29-1.62-157.77-1.77-116.9-.1-155.15 0-157.28.46a20.3 20.3 0 0 0-13.98 10.64 24 24 0 0 0-1.72 5.57c-.3 2.17-.5 39.35-.5 110.97 0 107.79 0 107.79-1.12 108.04-.66.15-13.12.26-27.76.15-29.68-.15-28.36 0-31.25-3.8-1.42-1.82-1.42-1.82-1.57-233.6-.1-165.73 0-232.54.4-234.36a7.7 7.7 0 0 1 2.19-4.15c.9-.86 2.17-1.78 2.88-2.08.81-.3 14.95-.5 37.89-.5 28.82-.06 36.67.1 36.82.55m265.42 73.34c0 70.91-.06 73.75-.97 75.47a13.6 13.6 0 0 1-5.62 5.73c-2.03 1.11-2.03 1.11-116.45 1.26-77.7.05-115.02-.05-116.34-.4a13.3 13.3 0 0 1-7.4-6.08c-1.16-2.23-1.16-2.23-1.16-75.72 0-40.47.15-73.7.35-73.85.15-.2 55.97-.3 123.95-.26l123.64.16zm41.73 186.2c1.07 1.36 1.07 1.36 1.07 109.66v108.34l-155.1-.1-155.14-.15-.15-107.38c-.06-59.06 0-107.9.15-108.5a5.4 5.4 0 0 1 1.37-2.18c1.11-1.01 1.11-1.01 153.92-1.01 152.87 0 152.87 0 153.88 1.32M270.07 41.5c-1.97.56-4.05 3-4.45 5.17-.16.91-.26 23.15-.16 49.48.16 52.33 0 49.6 3.1 51.87 1.41 1.07 1.82 1.07 31.4 1.07 28.46 0 30.08-.06 31.55-.97a8 8 0 0 0 2.43-2.33c.71-1.31.81-5.97.81-50.4 0-44.26-.1-49.13-.8-50.7a7 7 0 0 0-2.44-2.63c-1.42-.76-4.3-.86-30.7-.96-16.8-.05-29.78.1-30.74.4m50.35 14.24c.5.4.66 8.05.66 39.4 0 32.57-.1 38.95-.71 39.46-.5.4-6.08.56-20.36.45l-19.7-.15-.16-39.6c-.1-39.62-.1-39.62 2.53-39.77 1.47-.1 10.44-.25 19.86-.25 11.75-.1 17.42.05 17.88.46M136.45 326.3a8.3 8.3 0 0 0-4.8 7.3c.04 2.28 1.82 5.57 3.64 6.68 1.67 1.02 2.23 1.02 115.38 1.02 112.6 0 113.71 0 115.39-1.02a7.7 7.7 0 0 0 3.64-6.78q0-4.8-4.25-6.84c-2.13-1.07-2.13-1.07-114.83-1.07-92.74.05-112.9.16-114.17.71m.51 49.54a8.1 8.1 0 0 0-5.32 7.34c0 2.18 1.93 5.58 3.85 6.74 1.72 1.12 1.72 1.12 115.13 1.12 102.32 0 113.56-.1 114.93-.82.86-.45 2.13-1.57 2.84-2.48 1-1.36 1.31-2.28 1.31-4.4 0-3.14-1.31-5.68-3.7-7-1.51-.8-8.66-.85-114.57-.96-78-.05-113.4.1-114.47.46m1.27 50.6c-1.27.25-2.84.86-3.55 1.37a7.6 7.6 0 0 0-2.88 6.84c.2 2.58 1.31 4.45 3.6 6.12 1.36 1.07 1.36 1.07 114.61 1.22 111.03.1 113.26.1 115.44-.86 2.94-1.32 4.25-3.5 4.25-7.14 0-3.6-1.42-5.83-4.56-7.14-1.57-.66-223.62-1.07-226.91-.41" clip-rule="evenodd"/>
</svg>
