<svg xmlns="http://www.w3.org/2000/svg" width="355" height="512" fill="currentColor" viewBox="0 0 355 512">
    <path fill-rule="evenodd" d="M.13 1.16c-.8.94 1.74 6.38 17.12 36.78C27.1 57.59 38.43 79.79 42.27 87.4c3.92 7.55 14.5 28.44 23.58 46.42a68326 68326 0 0 0 45.47 89.37c3.85 7.47 3.85 7.47 49.76 7.47 25.17 0 45.84-.15 45.84-.3 0-.21-21.97-44.53-48.88-98.5a66065 66065 0 0 1-56.87-114.52C96.74 8.27 92.6.73 91.96.44 91.3.22 70.56 0 45.9 0 6.08 0 1 .15.13 1.16m262.43.15c-1.1 1.16-20.39 39.82-63.76 127.8l-14.5 29.38 18.13 35.9c18.13 35.9 18.13 35.9 28.21 35.9 10.01 0 10.01 0 20.9-21.4 6.01-11.82 16.82-33 24-47.14A26027 26027 0 0 0 339.22 35.9c9.14-17.98 16.4-33.22 16.25-34.09C355.25.36 354.9.36 309.5.15 266.26 0 263.64.07 262.56 1.3M124.24 245.8c-.37.8-.73 5.16-.73 9.65 0 8.2 0 8.2-5.59 11.03-3.04 1.6-8.34 4.71-11.75 6.96a134 134 0 0 0-51.2 64.56 124 124 0 0 0-6.6 26.33c-.88 6.16-1.1 11.24-.8 21.18.21 7.47.87 15.8 1.6 19.58 2.97 15.89 12.18 37.5 21.75 50.85a136 136 0 0 0 48.24 41.92 128 128 0 0 0 32.93 11.75c6.45 1.3 12.04 1.96 21.1 2.25 7.84.29 14.73.07 18.86-.44 16.03-2.1 29.09-6.02 42.73-12.83 19-9.43 35.18-23 47.5-39.68a121 121 0 0 0 13.79-23.14 123.6 123.6 0 0 0 11.75-62.88c-.44-5.59-1.45-13.2-2.18-16.9-5-24.09-16.6-45.85-34.09-63.9-9.8-10.16-20.89-18.5-34.45-25.9-5.44-2.98-5.44-2.98-5.66-12.19s-.22-9.2-53.31-9.43c-51.94-.14-53.1-.14-53.9 1.24m66.36 26.2c9.5 1.08 18.5 3.4 27.57 7.03a112 112 0 0 1 33.14 20.09c6.1 5.22 14.87 15.38 19.15 21.98 7.47 11.6 13.78 26.62 16.69 40.18 1.08 4.86 1.37 9.07 1.37 20.6-.07 13.06-.21 15.3-1.95 22.49-2.04 8.55-6.02 19.94-9.36 26.54-1.09 2.25-4.43 7.62-7.25 11.97-6.6 9.87-19.88 23.43-29.3 29.81a115 115 0 0 1-45.56 18.5c-7.47 1.23-10.73 1.38-20.82 1.09-13.2-.44-20.74-1.74-31.91-5.59-9.36-3.2-22.27-9.94-30.18-15.74-9.28-6.89-20.23-18.35-26.4-27.49-6.53-9.86-10.08-16.9-13.63-27.27-4.57-13.2-5.52-19.3-5.52-34.31 0-10.59.3-14.43 1.6-20.31a117 117 0 0 1 17.62-41.7c6.24-9.44 19.73-22.85 29.38-29.24 8.27-5.44 19.58-11.02 28.22-13.85 5.73-1.89 18.27-4.5 23.93-5 6.39-.59 17.05-.44 23.21.21m-24.95 14.5c-10.59 1.52-23 5.22-31.62 9.57A97.3 97.3 0 0 0 86 351.06c-3.92 11.03-4.93 17.85-4.86 31.56 0 9.93.36 13.63 1.6 18.93a98 98 0 0 0 8.99 24.3 98 98 0 0 0 19 25.16c6.9 6.6 17.85 14.15 25.97 17.85 8.05 3.7 18.2 6.67 27.42 8.05 14.65 2.17 31.26.58 45.62-4.43 15.89-5.58 31.26-16.1 41.7-28.65 15.24-18.06 23-39.1 23-61.94 0-5.51-.43-12.11-1.16-15.96-1.45-8.12-5.22-19.58-8.77-26.54a98.6 98.6 0 0 0-32.06-36.85c-9.65-6.53-23.87-12.4-36.05-14.94-6.75-1.45-24.09-2.03-30.76-1.1m15.52 28.29c.73.8 2.33 3.91 3.63 7.03 1.23 3.12 4.86 11.82 7.98 19.44 3.12 7.54 5.73 13.93 5.87 14.07.08.15 9.58 1.16 21.04 2.32 18.93 1.89 20.96 2.18 22.56 3.63 1.96 1.89 2.1 3.99.5 6.31-.87 1.23-17.26 15.45-29.15 25.24-1.74 1.45-1.82 1.67-1.02 5.44.44 2.18 2.25 10.88 4.06 19.44 1.89 8.56 3.34 16.47 3.34 17.63a5.07 5.07 0 0 1-4.86 4.93c-1.3 0-8.27-3.77-19.58-10.6-17.56-10.58-17.56-10.58-35.33 0-10.44 6.17-18.57 10.6-19.65 10.6-2.33 0-4.72-2.4-4.72-4.79 0-1.45 5.44-27.78 7.9-38.15.66-2.76.66-2.76-13.63-14.5-7.83-6.54-15.09-12.7-16.17-13.79-2.54-2.4-2.69-5.51-.37-7.69 1.6-1.45 3.63-1.81 22.49-3.62 11.46-1.1 21.1-2.33 21.4-2.69.36-.43 3.98-9.21 8.12-19.58 7.62-19.3 9.21-22.12 12.62-22.12.94 0 2.25.65 2.97 1.45" clip-rule="evenodd"/>
</svg>
